<?xml version="1.0" encoding="UTF-8" standalone="no"?>
<!DOCTYPE svg PUBLIC "-//W3C//DTD SVG 1.1//EN"
 "http://www.w3.org/Graphics/SVG/1.1/DTD/svg11.dtd">
<!-- Generated by graphviz version 2.26.3 (20100126.1600)
 -->
<!-- Title: harpoon/memory/chunked_random_access_memory.hh Pages: 1 -->
<!--zoomable 492 -->
<svg id="main" version="1.1" xmlns="http://www.w3.org/2000/svg" xmlns:xlink="http://www.w3.org/1999/xlink" xml:space="preserve" onload="init(evt)">
<style type="text/css"><![CDATA[
.edge:hover path { stroke: red; }
.edge:hover polygon { stroke: red; fill: red; }
]]></style>
<script type="text/javascript"><![CDATA[
var edges = document.getElementsByTagName('g');
if (edges && edges.length) {
  for (var i=0;i<edges.length;i++) {
    if (edges[i].id.substr(0,4)=='edge') {
      edges[i].setAttribute('class','edge');
    }
  }
}
]]></script>
        <defs>
                <circle id="rim" cx="0" cy="0" r="7"/>
                <circle id="rim2" cx="0" cy="0" r="3.5"/>
                <g id="zoomPlus">
                        <use xlink:href="#rim" fill="#404040">
                                <set attributeName="fill" to="#808080" begin="zoomplus.mouseover" end="zoomplus.mouseout"/>
                        </use>
                        <path d="M-4,0h8M0,-4v8" fill="none" stroke="white" stroke-width="1.5" pointer-events="none"/>
                </g>
                <g id="zoomMin">
                        <use xlink:href="#rim" fill="#404040">
                                <set attributeName="fill" to="#808080" begin="zoomminus.mouseover" end="zoomminus.mouseout"/>
                        </use>
                        <path d="M-4,0h8" fill="none" stroke="white" stroke-width="1.5" pointer-events="none"/>
                </g>
                <g id="dirArrow">
                        <path fill="none" stroke="white" stroke-width="1.5" d="M0,-3.0v7 M-2.5,-0.5L0,-3.0L2.5,-0.5"/>
                </g>
               <g id="resetDef">
                       <use xlink:href="#rim2" fill="#404040">
                               <set attributeName="fill" to="#808080" begin="reset.mouseover" end="reset.mouseout"/>
                       </use>
               </g>
        </defs>

<script type="text/javascript">
var viewWidth = 685;
var viewHeight = 492;
var sectionId = 'dynsection-0';
</script>
<script xlink:href="../../svgpan.js"/>
<svg id="graph" class="graph">
<g id="viewport">
<title>harpoon/memory/chunked_random_access_memory.hh</title>
<polygon fill="white" stroke="white" points="-4,5 -4,-488 682.175,-488 682.175,5 -4,5"/>
<!-- Node1 -->
<g id="node1" class="node"><title>Node1</title>
<polygon fill="#bfbfbf" stroke="black" points="514.675,-449 514.675,-483 659.675,-483 659.675,-449 514.675,-449"/>
<text text-anchor="start" x="522.675" y="-470" font-family="Helvetica,sans-Serif" font-size="10.00">harpoon/memory/chunked</text>
<text text-anchor="middle" x="587.175" y="-457" font-family="Helvetica,sans-Serif" font-size="10.00">_random_access_memory.hh</text>
</g>
<!-- Node2 -->
<g id="node3" class="node"><title>Node2</title>
<a xlink:href="../../d5/d08/harpoon_8hh.html" target="_top" xlink:title="Harpoon library common header file. ">
<polygon fill="white" stroke="black" points="323.175,-58.5 323.175,-79.5 425.175,-79.5 425.175,-58.5 323.175,-58.5"/>
<text text-anchor="middle" x="374.175" y="-66.5" font-family="Helvetica,sans-Serif" font-size="10.00">harpoon/harpoon.hh</text>
</a>
</g>
<!-- Node1&#45;&gt;Node2 -->
<g id="edge2" class="edge"><title>Node1&#45;&gt;Node2</title>
<path fill="none" stroke="midnightblue" d="M608.049,-448.899C634.636,-425.058 677.175,-379.086 677.175,-329 677.175,-329 677.175,-329 677.175,-192 677.175,-140.272 523.646,-99.8631 435.16,-80.8692"/>
<polygon fill="midnightblue" stroke="midnightblue" points="435.74,-77.4144 425.232,-78.7691 434.291,-84.2629 435.74,-77.4144"/>
</g>
<!-- Node6 -->
<g id="node11" class="node"><title>Node6</title>
<a xlink:href="../../dc/d1d/chunked__memory_8hh.html" target="_top" xlink:title="harpoon/memory/chunked\l_memory.hh">
<polygon fill="white" stroke="black" points="311.675,-377 311.675,-411 440.675,-411 440.675,-377 311.675,-377"/>
<text text-anchor="start" x="319.675" y="-398" font-family="Helvetica,sans-Serif" font-size="10.00">harpoon/memory/chunked</text>
<text text-anchor="middle" x="376.175" y="-385" font-family="Helvetica,sans-Serif" font-size="10.00">_memory.hh</text>
</a>
</g>
<!-- Node1&#45;&gt;Node6 -->
<g id="edge10" class="edge"><title>Node1&#45;&gt;Node6</title>
<path fill="none" stroke="midnightblue" d="M537.171,-448.937C506.799,-438.573 467.85,-425.283 435.869,-414.37"/>
<polygon fill="midnightblue" stroke="midnightblue" points="436.779,-410.982 426.185,-411.065 434.519,-417.607 436.779,-410.982"/>
</g>
<!-- Node18 -->
<g id="node43" class="node"><title>Node18</title>
<a xlink:href="../../d3/dc0/random__access__memory_8hh.html" target="_top" xlink:title="harpoon/memory/random\l_access_memory.hh">
<polygon fill="white" stroke="black" points="524.675,-247 524.675,-281 649.675,-281 649.675,-247 524.675,-247"/>
<text text-anchor="start" x="532.675" y="-268" font-family="Helvetica,sans-Serif" font-size="10.00">harpoon/memory/random</text>
<text text-anchor="middle" x="587.175" y="-255" font-family="Helvetica,sans-Serif" font-size="10.00">_access_memory.hh</text>
</a>
</g>
<!-- Node1&#45;&gt;Node18 -->
<g id="edge50" class="edge"><title>Node1&#45;&gt;Node18</title>
<path fill="none" stroke="midnightblue" d="M587.175,-448.778C587.175,-413.67 587.175,-333.585 587.175,-291.306"/>
<polygon fill="midnightblue" stroke="midnightblue" points="590.675,-291.179 587.175,-281.179 583.675,-291.179 590.675,-291.179"/>
</g>
<!-- Node3 -->
<g id="node5" class="node"><title>Node3</title>
<polygon fill="white" stroke="#bfbfbf" points="289.675,-0.5 289.675,-21.5 330.675,-21.5 330.675,-0.5 289.675,-0.5"/>
<text text-anchor="middle" x="310.175" y="-8.5" font-family="Helvetica,sans-Serif" font-size="10.00">string</text>
</g>
<!-- Node2&#45;&gt;Node3 -->
<g id="edge4" class="edge"><title>Node2&#45;&gt;Node3</title>
<path fill="none" stroke="midnightblue" d="M362.436,-58.3619C353.234,-50.0226 340.235,-38.2418 329.503,-28.5162"/>
<polygon fill="midnightblue" stroke="midnightblue" points="331.599,-25.6924 321.839,-21.5707 326.898,-30.8793 331.599,-25.6924"/>
</g>
<!-- Node4 -->
<g id="node7" class="node"><title>Node4</title>
<polygon fill="white" stroke="#bfbfbf" points="348.175,-0.5 348.175,-21.5 400.175,-21.5 400.175,-0.5 348.175,-0.5"/>
<text text-anchor="middle" x="374.175" y="-8.5" font-family="Helvetica,sans-Serif" font-size="10.00">memory</text>
</g>
<!-- Node2&#45;&gt;Node4 -->
<g id="edge6" class="edge"><title>Node2&#45;&gt;Node4</title>
<path fill="none" stroke="midnightblue" d="M374.175,-58.3619C374.175,-50.9219 374.175,-40.7427 374.175,-31.7276"/>
<polygon fill="midnightblue" stroke="midnightblue" points="377.675,-31.5706 374.175,-21.5707 370.675,-31.5707 377.675,-31.5706"/>
</g>
<!-- Node5 -->
<g id="node9" class="node"><title>Node5</title>
<polygon fill="white" stroke="#bfbfbf" points="418.175,-0.5 418.175,-21.5 458.175,-21.5 458.175,-0.5 418.175,-0.5"/>
<text text-anchor="middle" x="438.175" y="-8.5" font-family="Helvetica,sans-Serif" font-size="10.00">utility</text>
</g>
<!-- Node2&#45;&gt;Node5 -->
<g id="edge8" class="edge"><title>Node2&#45;&gt;Node5</title>
<path fill="none" stroke="midnightblue" d="M385.913,-58.3619C395.115,-50.0226 408.115,-38.2418 418.846,-28.5162"/>
<polygon fill="midnightblue" stroke="midnightblue" points="421.451,-30.8793 426.51,-21.5707 416.75,-25.6924 421.451,-30.8793"/>
</g>
<!-- Node6&#45;&gt;Node2 -->
<g id="edge12" class="edge"><title>Node6&#45;&gt;Node2</title>
<path fill="none" stroke="midnightblue" d="M391.479,-376.852C430.102,-331.413 524.614,-205.281 469.175,-116 459.762,-100.841 443.849,-90.423 427.712,-83.3287"/>
<polygon fill="midnightblue" stroke="midnightblue" points="428.816,-80.0005 418.232,-79.5251 426.209,-86.4972 428.816,-80.0005"/>
</g>
<!-- Node7 -->
<g id="node14" class="node"><title>Node7</title>
<a xlink:href="../../dc/d3f/memory_8hh.html" target="_top" xlink:title="harpoon/memory/memory.hh">
<polygon fill="white" stroke="black" points="206.675,-318.5 206.675,-339.5 347.675,-339.5 347.675,-318.5 206.675,-318.5"/>
<text text-anchor="middle" x="277.175" y="-326.5" font-family="Helvetica,sans-Serif" font-size="10.00">harpoon/memory/memory.hh</text>
</a>
</g>
<!-- Node6&#45;&gt;Node7 -->
<g id="edge14" class="edge"><title>Node6&#45;&gt;Node7</title>
<path fill="none" stroke="midnightblue" d="M350.164,-376.922C335.267,-367.141 316.675,-354.934 301.984,-345.289"/>
<polygon fill="midnightblue" stroke="midnightblue" points="303.688,-342.221 293.408,-339.658 299.846,-348.073 303.688,-342.221"/>
</g>
<!-- Node17 -->
<g id="node41" class="node"><title>Node17</title>
<polygon fill="white" stroke="#bfbfbf" points="145.175,-318.5 145.175,-339.5 189.175,-339.5 189.175,-318.5 145.175,-318.5"/>
<text text-anchor="middle" x="167.175" y="-326.5" font-family="Helvetica,sans-Serif" font-size="10.00">vector</text>
</g>
<!-- Node6&#45;&gt;Node17 -->
<g id="edge48" class="edge"><title>Node6&#45;&gt;Node17</title>
<path fill="none" stroke="midnightblue" d="M317.435,-376.926C284.947,-367.31 243.665,-354.809 199.052,-340.204"/>
<polygon fill="midnightblue" stroke="midnightblue" points="200.076,-336.856 189.483,-337.055 197.888,-343.505 200.076,-336.856"/>
</g>
<!-- Node7&#45;&gt;Node2 -->
<g id="edge16" class="edge"><title>Node7&#45;&gt;Node2</title>
<path fill="none" stroke="midnightblue" d="M217.149,-318.445C170.946,-309.481 111.635,-295.89 91.1746,-282 24.9288,-237.027 -31.5745,-176.238 21.1746,-116 40.0624,-94.4307 216.907,-79.4431 312.889,-72.8235"/>
<polygon fill="midnightblue" stroke="midnightblue" points="313.308,-76.3032 323.048,-72.1333 312.833,-69.3193 313.308,-76.3032"/>
</g>
<!-- Node8 -->
<g id="node17" class="node"><title>Node8</title>
<a xlink:href="../../d5/d09/hardware__component_8hh.html" target="_top" xlink:title="Hardware component. ">
<polygon fill="white" stroke="black" points="137.675,-253.5 137.675,-274.5 298.675,-274.5 298.675,-253.5 137.675,-253.5"/>
<text text-anchor="middle" x="218.175" y="-261.5" font-family="Helvetica,sans-Serif" font-size="10.00">harpoon/hardware_component.hh</text>
</a>
</g>
<!-- Node7&#45;&gt;Node8 -->
<g id="edge18" class="edge"><title>Node7&#45;&gt;Node8</title>
<path fill="none" stroke="midnightblue" d="M267.432,-318.267C258.497,-308.423 245.086,-293.648 234.513,-282"/>
<polygon fill="midnightblue" stroke="midnightblue" points="237.049,-279.586 227.736,-274.534 231.865,-284.291 237.049,-279.586"/>
</g>
<!-- Node12 -->
<g id="node28" class="node"><title>Node12</title>
<polygon fill="white" stroke="#bfbfbf" points="47.6746,-181.5 47.6746,-202.5 76.6746,-202.5 76.6746,-181.5 47.6746,-181.5"/>
<text text-anchor="middle" x="62.1746" y="-189.5" font-family="Helvetica,sans-Serif" font-size="10.00">list</text>
</g>
<!-- Node7&#45;&gt;Node12 -->
<g id="edge46" class="edge"><title>Node7&#45;&gt;Node12</title>
<path fill="none" stroke="midnightblue" d="M215.648,-318.489C187.417,-311.501 154.641,-300.149 129.175,-282 103.273,-263.541 83.1562,-232.016 71.9818,-211.602"/>
<polygon fill="midnightblue" stroke="midnightblue" points="74.9859,-209.795 67.2284,-202.579 68.7927,-213.057 74.9859,-209.795"/>
</g>
<!-- Node14 -->
<g id="node32" class="node"><title>Node14</title>
<a xlink:href="../../d3/d22/address__range_8hh.html" target="_top" xlink:title="harpoon/memory/address\l_range.hh">
<polygon fill="white" stroke="black" points="310.675,-175 310.675,-209 437.675,-209 437.675,-175 310.675,-175"/>
<text text-anchor="start" x="318.675" y="-196" font-family="Helvetica,sans-Serif" font-size="10.00">harpoon/memory/address</text>
<text text-anchor="middle" x="374.175" y="-183" font-family="Helvetica,sans-Serif" font-size="10.00">_range.hh</text>
</a>
</g>
<!-- Node7&#45;&gt;Node14 -->
<g id="edge36" class="edge"><title>Node7&#45;&gt;Node14</title>
<path fill="none" stroke="midnightblue" d="M284.786,-318.25C299.989,-296.778 334.488,-248.053 355.905,-217.803"/>
<polygon fill="midnightblue" stroke="midnightblue" points="358.912,-219.613 361.834,-209.429 353.199,-215.568 358.912,-219.613"/>
</g>
<!-- Node8&#45;&gt;Node2 -->
<g id="edge20" class="edge"><title>Node8&#45;&gt;Node2</title>
<path fill="none" stroke="midnightblue" d="M216.075,-253.231C211.543,-226.621 203.781,-156.959 237.175,-116 247.758,-103.018 284.427,-90.8201 317.165,-82.1052"/>
<polygon fill="midnightblue" stroke="midnightblue" points="318.363,-85.4106 327.166,-79.5154 316.608,-78.6341 318.363,-85.4106"/>
</g>
<!-- Node9 -->
<g id="node20" class="node"><title>Node9</title>
<a xlink:href="../../d3/de3/log_8hh.html" target="_top" xlink:title="harpoon/log/log.hh">
<polygon fill="white" stroke="black" points="94.1746,-181.5 94.1746,-202.5 190.175,-202.5 190.175,-181.5 94.1746,-181.5"/>
<text text-anchor="middle" x="142.175" y="-189.5" font-family="Helvetica,sans-Serif" font-size="10.00">harpoon/log/log.hh</text>
</a>
</g>
<!-- Node8&#45;&gt;Node9 -->
<g id="edge22" class="edge"><title>Node8&#45;&gt;Node9</title>
<path fill="none" stroke="midnightblue" d="M206.961,-253.376C194.837,-241.89 175.311,-223.393 160.861,-209.703"/>
<polygon fill="midnightblue" stroke="midnightblue" points="163.101,-207.004 153.435,-202.667 158.287,-212.086 163.101,-207.004"/>
</g>
<!-- Node8&#45;&gt;Node12 -->
<g id="edge32" class="edge"><title>Node8&#45;&gt;Node12</title>
<path fill="none" stroke="midnightblue" d="M185.012,-253.432C157.359,-243.949 117.416,-228.669 85.1746,-210 84.3683,-209.533 83.5593,-209.041 82.752,-208.528"/>
<polygon fill="midnightblue" stroke="midnightblue" points="84.5555,-205.516 74.3791,-202.567 80.4957,-211.218 84.5555,-205.516"/>
</g>
<!-- Node13 -->
<g id="node30" class="node"><title>Node13</title>
<polygon fill="white" stroke="#bfbfbf" points="246.175,-181.5 246.175,-202.5 292.175,-202.5 292.175,-181.5 246.175,-181.5"/>
<text text-anchor="middle" x="269.175" y="-189.5" font-family="Helvetica,sans-Serif" font-size="10.00">atomic</text>
</g>
<!-- Node8&#45;&gt;Node13 -->
<g id="edge34" class="edge"><title>Node8&#45;&gt;Node13</title>
<path fill="none" stroke="midnightblue" d="M225.7,-253.376C233.61,-242.209 246.214,-224.415 255.819,-210.855"/>
<polygon fill="midnightblue" stroke="midnightblue" points="258.694,-212.851 261.619,-202.667 252.982,-208.805 258.694,-212.851"/>
</g>
<!-- Node9&#45;&gt;Node2 -->
<g id="edge24" class="edge"><title>Node9&#45;&gt;Node2</title>
<path fill="none" stroke="midnightblue" d="M147.902,-181.409C157.385,-164.892 177.935,-133.121 204.175,-116 236.735,-94.7549 278.815,-83.0223 312.962,-76.5924"/>
<polygon fill="midnightblue" stroke="midnightblue" points="313.592,-80.0353 322.825,-74.8392 312.367,-73.1433 313.592,-80.0353"/>
</g>
<!-- Node10 -->
<g id="node23" class="node"><title>Node10</title>
<a xlink:href="../../d9/d74/message_8hh.html" target="_top" xlink:title="harpoon/log/message.hh">
<polygon fill="white" stroke="black" points="29.6746,-116.5 29.6746,-137.5 152.675,-137.5 152.675,-116.5 29.6746,-116.5"/>
<text text-anchor="middle" x="91.1746" y="-124.5" font-family="Helvetica,sans-Serif" font-size="10.00">harpoon/log/message.hh</text>
</a>
</g>
<!-- Node9&#45;&gt;Node10 -->
<g id="edge26" class="edge"><title>Node9&#45;&gt;Node10</title>
<path fill="none" stroke="midnightblue" d="M133.753,-181.267C126.178,-171.612 114.881,-157.215 105.827,-145.675"/>
<polygon fill="midnightblue" stroke="midnightblue" points="108.366,-143.241 99.4395,-137.534 102.859,-147.562 108.366,-143.241"/>
</g>
<!-- Node10&#45;&gt;Node2 -->
<g id="edge28" class="edge"><title>Node10&#45;&gt;Node2</title>
<path fill="none" stroke="midnightblue" d="M142.424,-116.497C190.358,-106.673 262.007,-91.9884 312.934,-81.5512"/>
<polygon fill="midnightblue" stroke="midnightblue" points="313.736,-84.9596 322.829,-79.5231 312.33,-78.1021 313.736,-84.9596"/>
</g>
<!-- Node11 -->
<g id="node26" class="node"><title>Node11</title>
<polygon fill="white" stroke="#bfbfbf" points="65.1746,-58.5 65.1746,-79.5 117.175,-79.5 117.175,-58.5 65.1746,-58.5"/>
<text text-anchor="middle" x="91.1746" y="-66.5" font-family="Helvetica,sans-Serif" font-size="10.00">sstream</text>
</g>
<!-- Node10&#45;&gt;Node11 -->
<g id="edge30" class="edge"><title>Node10&#45;&gt;Node11</title>
<path fill="none" stroke="midnightblue" d="M91.1746,-116.362C91.1746,-108.922 91.1746,-98.7427 91.1746,-89.7276"/>
<polygon fill="midnightblue" stroke="midnightblue" points="94.6747,-89.5706 91.1746,-79.5707 87.6747,-89.5707 94.6747,-89.5706"/>
</g>
<!-- Node14&#45;&gt;Node2 -->
<g id="edge38" class="edge"><title>Node14&#45;&gt;Node2</title>
<path fill="none" stroke="midnightblue" d="M413.816,-174.912C439.846,-161.038 466.769,-139.906 453.175,-116 445.021,-101.661 430.573,-91.2393 416.243,-83.9088"/>
<polygon fill="midnightblue" stroke="midnightblue" points="417.45,-80.609 406.911,-79.528 414.476,-86.9456 417.45,-80.609"/>
</g>
<!-- Node15 -->
<g id="node35" class="node"><title>Node15</title>
<a xlink:href="../../db/db3/address_8hh.html" target="_top" xlink:title="harpoon/memory/address.hh">
<polygon fill="white" stroke="black" points="304.175,-116.5 304.175,-137.5 444.175,-137.5 444.175,-116.5 304.175,-116.5"/>
<text text-anchor="middle" x="374.175" y="-124.5" font-family="Helvetica,sans-Serif" font-size="10.00">harpoon/memory/address.hh</text>
</a>
</g>
<!-- Node14&#45;&gt;Node15 -->
<g id="edge40" class="edge"><title>Node14&#45;&gt;Node15</title>
<path fill="none" stroke="midnightblue" d="M374.175,-174.922C374.175,-166.67 374.175,-156.692 374.175,-147.982"/>
<polygon fill="midnightblue" stroke="midnightblue" points="377.675,-147.852 374.175,-137.852 370.675,-147.852 377.675,-147.852"/>
</g>
<!-- Node16 -->
<g id="node38" class="node"><title>Node16</title>
<polygon fill="white" stroke="#bfbfbf" points="246.175,-116.5 246.175,-137.5 286.175,-137.5 286.175,-116.5 246.175,-116.5"/>
<text text-anchor="middle" x="266.175" y="-124.5" font-family="Helvetica,sans-Serif" font-size="10.00">limits</text>
</g>
<!-- Node14&#45;&gt;Node16 -->
<g id="edge44" class="edge"><title>Node14&#45;&gt;Node16</title>
<path fill="none" stroke="midnightblue" d="M345.799,-174.922C329.394,-165.049 308.883,-152.704 292.786,-143.016"/>
<polygon fill="midnightblue" stroke="midnightblue" points="294.257,-139.816 283.884,-137.658 290.647,-145.814 294.257,-139.816"/>
</g>
<!-- Node15&#45;&gt;Node2 -->
<g id="edge42" class="edge"><title>Node15&#45;&gt;Node2</title>
<path fill="none" stroke="midnightblue" d="M374.175,-116.362C374.175,-108.922 374.175,-98.7427 374.175,-89.7276"/>
<polygon fill="midnightblue" stroke="midnightblue" points="377.675,-89.5706 374.175,-79.5707 370.675,-89.5707 377.675,-89.5706"/>
</g>
<!-- Node18&#45;&gt;Node2 -->
<g id="edge52" class="edge"><title>Node18&#45;&gt;Node2</title>
<path fill="none" stroke="midnightblue" d="M584.613,-246.663C579.155,-215.891 563.499,-151.62 524.175,-116 499.824,-93.9437 465.202,-82.238 435.356,-76.0256"/>
<polygon fill="midnightblue" stroke="midnightblue" points="435.919,-72.5699 425.439,-74.1224 434.6,-79.4445 435.919,-72.5699"/>
</g>
</g>
</svg>
        <g id="navigator" transform="translate(0 0)" fill="#404254">
                <rect fill="#f2f5e9" fill-opacity="0.5" stroke="#606060" stroke-width=".5" x="0" y="0" width="60" height="60"/>
                <use id="zoomplus" xlink:href="#zoomPlus" x="17" y="9" onmousedown="handleZoom(evt,'in')"/>
                <use id="zoomminus" xlink:href="#zoomMin" x="42" y="9" onmousedown="handleZoom(evt,'out')"/>
                <use id="reset" xlink:href="#resetDef" x="30" y="36" onmousedown="handleReset()"/>
                <g id="arrowUp" xlink:href="#dirArrow" transform="translate(30 24)" onmousedown="handlePan(0,-1)">
                  <use xlink:href="#rim" fill="#404040">
                        <set attributeName="fill" to="#808080" begin="arrowUp.mouseover" end="arrowUp.mouseout"/>
                  </use>
                  <path fill="none" stroke="white" stroke-width="1.5" d="M0,-3.0v7 M-2.5,-0.5L0,-3.0L2.5,-0.5"/>
                </g>
                <g id="arrowRight" xlink:href="#dirArrow" transform="rotate(90) translate(36 -43)" onmousedown="handlePan(1,0)">
                  <use xlink:href="#rim" fill="#404040">
                        <set attributeName="fill" to="#808080" begin="arrowRight.mouseover" end="arrowRight.mouseout"/>
                  </use>
                  <path fill="none" stroke="white" stroke-width="1.5" d="M0,-3.0v7 M-2.5,-0.5L0,-3.0L2.5,-0.5"/>
                </g>
                <g id="arrowDown" xlink:href="#dirArrow" transform="rotate(180) translate(-30 -48)" onmousedown="handlePan(0,1)">
                  <use xlink:href="#rim" fill="#404040">
                        <set attributeName="fill" to="#808080" begin="arrowDown.mouseover" end="arrowDown.mouseout"/>
                  </use>
                  <path fill="none" stroke="white" stroke-width="1.5" d="M0,-3.0v7 M-2.5,-0.5L0,-3.0L2.5,-0.5"/>
                </g>
                <g id="arrowLeft" xlink:href="#dirArrow" transform="rotate(270) translate(-36 17)" onmousedown="handlePan(-1,0)">
                  <use xlink:href="#rim" fill="#404040">
                        <set attributeName="fill" to="#808080" begin="arrowLeft.mouseover" end="arrowLeft.mouseout"/>
                  </use>
                  <path fill="none" stroke="white" stroke-width="1.5" d="M0,-3.0v7 M-2.5,-0.5L0,-3.0L2.5,-0.5"/>
                </g>
        </g>
        <svg viewBox="0 0 15 15" width="100%" height="30px" preserveAspectRatio="xMaxYMin meet">
         <g id="arrow_out" transform="scale(0.3 0.3)">
          <a xlink:href="chunked__random__access__memory_8hh__incl_org.svg" target="_base">
           <rect id="button" ry="5" rx="5" y="6" x="6" height="38" width="38"
                fill="#f2f5e9" fill-opacity="0.5" stroke="#606060" stroke-width="1.0"/>
           <path id="arrow"
             d="M 11.500037,31.436501 C 11.940474,20.09759 22.043105,11.32322 32.158766,21.979434 L 37.068811,17.246167 C 37.068811,17.246167 37.088388,32 37.088388,32 L 22.160133,31.978069 C 22.160133,31.978069 26.997745,27.140456 26.997745,27.140456 C 18.528582,18.264221 13.291696,25.230495 11.500037,31.436501 z"
             style="fill:#404040;"/>
          </a>
         </g>
        </svg>
</svg>
