<?xml version="1.0" encoding="UTF-8" standalone="no"?>
<!DOCTYPE svg PUBLIC "-//W3C//DTD SVG 1.1//EN"
 "http://www.w3.org/Graphics/SVG/1.1/DTD/svg11.dtd">
<!-- Generated by graphviz version 2.26.3 (20100126.1600)
 -->
<!-- Title: harpoon/memory/chunked_random_access_memory.hh Pages: 1 -->
<svg width="722pt" height="492pt"
 viewBox="0.00 0.00 722.00 492.00" xmlns="http://www.w3.org/2000/svg" xmlns:xlink="http://www.w3.org/1999/xlink">
<g id="graph1" class="graph" transform="scale(1 1) rotate(0) translate(4 488)">
<title>harpoon/memory/chunked_random_access_memory.hh</title>
<polygon fill="white" stroke="white" points="-4,5 -4,-488 719,-488 719,5 -4,5"/>
<!-- Node1 -->
<g id="node1" class="node"><title>Node1</title>
<polygon fill="#bfbfbf" stroke="black" points="439.5,-449 439.5,-483 584.5,-483 584.5,-449 439.5,-449"/>
<text text-anchor="start" x="447.5" y="-470" font-family="Helvetica,sans-Serif" font-size="10.00">harpoon/memory/chunked</text>
<text text-anchor="middle" x="512" y="-457" font-family="Helvetica,sans-Serif" font-size="10.00">_random_access_memory.hh</text>
</g>
<!-- Node2 -->
<g id="node3" class="node"><title>Node2</title>
<a xlink:href="../../d5/d08/harpoon_8hh.html" target="_top" xlink:title="Harpoon library common header file. ">
<polygon fill="white" stroke="black" points="219,-58.5 219,-79.5 321,-79.5 321,-58.5 219,-58.5"/>
<text text-anchor="middle" x="270" y="-66.5" font-family="Helvetica,sans-Serif" font-size="10.00">harpoon/harpoon.hh</text>
</a>
</g>
<!-- Node1&#45;&gt;Node2 -->
<g id="edge2" class="edge"><title>Node1&#45;&gt;Node2</title>
<path fill="none" stroke="midnightblue" d="M439.458,-461.713C298.214,-451.37 0,-418.888 0,-329 0,-329 0,-329 0,-192 0,-156.003 0.579791,-139.322 28,-116 54.6744,-93.312 146.129,-80.4249 208.647,-74.0793"/>
<polygon fill="midnightblue" stroke="midnightblue" points="209.193,-77.5425 218.803,-73.0797 208.508,-70.5761 209.193,-77.5425"/>
</g>
<!-- Node7 -->
<g id="node13" class="node"><title>Node7</title>
<a xlink:href="../../dc/d1d/chunked__memory_8hh.html" target="_top" xlink:title="harpoon/memory/chunked\l_memory.hh">
<polygon fill="white" stroke="black" points="447.5,-377 447.5,-411 576.5,-411 576.5,-377 447.5,-377"/>
<text text-anchor="start" x="455.5" y="-398" font-family="Helvetica,sans-Serif" font-size="10.00">harpoon/memory/chunked</text>
<text text-anchor="middle" x="512" y="-385" font-family="Helvetica,sans-Serif" font-size="10.00">_memory.hh</text>
</a>
</g>
<!-- Node1&#45;&gt;Node7 -->
<g id="edge12" class="edge"><title>Node1&#45;&gt;Node7</title>
<path fill="none" stroke="midnightblue" d="M512,-448.937C512,-440.807 512,-430.876 512,-421.705"/>
<polygon fill="midnightblue" stroke="midnightblue" points="515.5,-421.441 512,-411.441 508.5,-421.441 515.5,-421.441"/>
</g>
<!-- Node20 -->
<g id="node47" class="node"><title>Node20</title>
<a xlink:href="../../d3/dc0/random__access__memory_8hh.html" target="_top" xlink:title="harpoon/memory/random\l_access_memory.hh">
<polygon fill="white" stroke="black" points="589.5,-247 589.5,-281 714.5,-281 714.5,-247 589.5,-247"/>
<text text-anchor="start" x="597.5" y="-268" font-family="Helvetica,sans-Serif" font-size="10.00">harpoon/memory/random</text>
<text text-anchor="middle" x="652" y="-255" font-family="Helvetica,sans-Serif" font-size="10.00">_access_memory.hh</text>
</a>
</g>
<!-- Node1&#45;&gt;Node20 -->
<g id="edge54" class="edge"><title>Node1&#45;&gt;Node20</title>
<path fill="none" stroke="midnightblue" d="M541.852,-448.931C556.329,-439.5 573.112,-426.715 585,-412 614.937,-374.942 634.536,-322.357 644.407,-290.867"/>
<polygon fill="midnightblue" stroke="midnightblue" points="647.832,-291.634 647.383,-281.049 641.133,-289.604 647.832,-291.634"/>
</g>
<!-- Node3 -->
<g id="node5" class="node"><title>Node3</title>
<polygon fill="white" stroke="#bfbfbf" points="153.5,-0.5 153.5,-21.5 194.5,-21.5 194.5,-0.5 153.5,-0.5"/>
<text text-anchor="middle" x="174" y="-8.5" font-family="Helvetica,sans-Serif" font-size="10.00">string</text>
</g>
<!-- Node2&#45;&gt;Node3 -->
<g id="edge4" class="edge"><title>Node2&#45;&gt;Node3</title>
<path fill="none" stroke="midnightblue" d="M252.392,-58.3619C237.777,-49.532 216.776,-36.844 200.189,-26.8224"/>
<polygon fill="midnightblue" stroke="midnightblue" points="201.865,-23.7461 191.496,-21.5707 198.246,-29.7376 201.865,-23.7461"/>
</g>
<!-- Node4 -->
<g id="node7" class="node"><title>Node4</title>
<polygon fill="white" stroke="#bfbfbf" points="212,-0.5 212,-21.5 264,-21.5 264,-0.5 212,-0.5"/>
<text text-anchor="middle" x="238" y="-8.5" font-family="Helvetica,sans-Serif" font-size="10.00">memory</text>
</g>
<!-- Node2&#45;&gt;Node4 -->
<g id="edge6" class="edge"><title>Node2&#45;&gt;Node4</title>
<path fill="none" stroke="midnightblue" d="M264.131,-58.3619C259.845,-50.5949 253.913,-39.8426 248.784,-30.5458"/>
<polygon fill="midnightblue" stroke="midnightblue" points="251.727,-28.6357 243.832,-21.5707 245.598,-32.0172 251.727,-28.6357"/>
</g>
<!-- Node5 -->
<g id="node9" class="node"><title>Node5</title>
<polygon fill="white" stroke="#bfbfbf" points="282,-0.5 282,-21.5 322,-21.5 322,-0.5 282,-0.5"/>
<text text-anchor="middle" x="302" y="-8.5" font-family="Helvetica,sans-Serif" font-size="10.00">utility</text>
</g>
<!-- Node2&#45;&gt;Node5 -->
<g id="edge8" class="edge"><title>Node2&#45;&gt;Node5</title>
<path fill="none" stroke="midnightblue" d="M275.869,-58.3619C280.155,-50.5949 286.087,-39.8426 291.216,-30.5458"/>
<polygon fill="midnightblue" stroke="midnightblue" points="294.402,-32.0172 296.168,-21.5707 288.273,-28.6357 294.402,-32.0172"/>
</g>
<!-- Node6 -->
<g id="node11" class="node"><title>Node6</title>
<polygon fill="white" stroke="#bfbfbf" points="340,-0.5 340,-21.5 386,-21.5 386,-0.5 340,-0.5"/>
<text text-anchor="middle" x="363" y="-8.5" font-family="Helvetica,sans-Serif" font-size="10.00">cstdint</text>
</g>
<!-- Node2&#45;&gt;Node6 -->
<g id="edge10" class="edge"><title>Node2&#45;&gt;Node6</title>
<path fill="none" stroke="midnightblue" d="M287.058,-58.3619C301.085,-49.6138 321.184,-37.0786 337.182,-27.1015"/>
<polygon fill="midnightblue" stroke="midnightblue" points="339.418,-29.8323 346.051,-21.5707 335.713,-23.8927 339.418,-29.8323"/>
</g>
<!-- Node7&#45;&gt;Node2 -->
<g id="edge14" class="edge"><title>Node7&#45;&gt;Node2</title>
<path fill="none" stroke="midnightblue" d="M523.621,-376.625C530.078,-366.334 537.828,-352.834 543,-340 556.013,-307.706 562,-298.817 562,-264 562,-264 562,-264 562,-192 562,-154.235 554.176,-138.706 524,-116 494.279,-93.6371 396.434,-80.5218 331.225,-74.059"/>
<polygon fill="midnightblue" stroke="midnightblue" points="331.344,-70.5544 321.055,-73.0785 330.673,-77.5221 331.344,-70.5544"/>
</g>
<!-- Node8 -->
<g id="node16" class="node"><title>Node8</title>
<a xlink:href="../../dc/d3f/memory_8hh.html" target="_top" xlink:title="harpoon/memory/memory.hh">
<polygon fill="white" stroke="black" points="331.5,-318.5 331.5,-339.5 472.5,-339.5 472.5,-318.5 331.5,-318.5"/>
<text text-anchor="middle" x="402" y="-326.5" font-family="Helvetica,sans-Serif" font-size="10.00">harpoon/memory/memory.hh</text>
</a>
</g>
<!-- Node7&#45;&gt;Node8 -->
<g id="edge16" class="edge"><title>Node7&#45;&gt;Node8</title>
<path fill="none" stroke="midnightblue" d="M483.099,-376.922C466.39,-367.049 445.499,-354.704 429.105,-345.016"/>
<polygon fill="midnightblue" stroke="midnightblue" points="430.427,-341.732 420.037,-339.658 426.866,-347.759 430.427,-341.732"/>
</g>
<!-- Node19 -->
<g id="node45" class="node"><title>Node19</title>
<polygon fill="white" stroke="#bfbfbf" points="490,-318.5 490,-339.5 534,-339.5 534,-318.5 490,-318.5"/>
<text text-anchor="middle" x="512" y="-326.5" font-family="Helvetica,sans-Serif" font-size="10.00">vector</text>
</g>
<!-- Node7&#45;&gt;Node19 -->
<g id="edge52" class="edge"><title>Node7&#45;&gt;Node19</title>
<path fill="none" stroke="midnightblue" d="M512,-376.922C512,-368.67 512,-358.692 512,-349.982"/>
<polygon fill="midnightblue" stroke="midnightblue" points="515.5,-349.852 512,-339.852 508.5,-349.852 515.5,-349.852"/>
</g>
<!-- Node8&#45;&gt;Node2 -->
<g id="edge18" class="edge"><title>Node8&#45;&gt;Node2</title>
<path fill="none" stroke="midnightblue" d="M414.705,-318.487C452.836,-285.703 560.338,-183.502 505,-116 483.417,-89.6735 393.406,-77.7995 331.266,-72.6585"/>
<polygon fill="midnightblue" stroke="midnightblue" points="331.408,-69.1589 321.163,-71.8611 330.857,-76.1372 331.408,-69.1589"/>
</g>
<!-- Node9 -->
<g id="node19" class="node"><title>Node9</title>
<a xlink:href="../../d5/d09/hardware__component_8hh.html" target="_top" xlink:title="Hardware component. ">
<polygon fill="white" stroke="black" points="152.5,-253.5 152.5,-274.5 313.5,-274.5 313.5,-253.5 152.5,-253.5"/>
<text text-anchor="middle" x="233" y="-261.5" font-family="Helvetica,sans-Serif" font-size="10.00">harpoon/hardware_component.hh</text>
</a>
</g>
<!-- Node8&#45;&gt;Node9 -->
<g id="edge20" class="edge"><title>Node8&#45;&gt;Node9</title>
<path fill="none" stroke="midnightblue" d="M374.471,-318.412C346.114,-307.505 301.733,-290.436 270.249,-278.327"/>
<polygon fill="midnightblue" stroke="midnightblue" points="271.107,-274.907 260.517,-274.584 268.594,-281.44 271.107,-274.907"/>
</g>
<!-- Node13 -->
<g id="node30" class="node"><title>Node13</title>
<polygon fill="white" stroke="#bfbfbf" points="305.5,-181.5 305.5,-202.5 334.5,-202.5 334.5,-181.5 305.5,-181.5"/>
<text text-anchor="middle" x="320" y="-189.5" font-family="Helvetica,sans-Serif" font-size="10.00">list</text>
</g>
<!-- Node8&#45;&gt;Node13 -->
<g id="edge50" class="edge"><title>Node8&#45;&gt;Node13</title>
<path fill="none" stroke="midnightblue" d="M395.566,-318.25C381.794,-295.241 349.291,-240.937 331.736,-211.608"/>
<polygon fill="midnightblue" stroke="midnightblue" points="334.543,-209.483 326.405,-202.7 328.537,-213.078 334.543,-209.483"/>
</g>
<!-- Node16 -->
<g id="node36" class="node"><title>Node16</title>
<a xlink:href="../../d3/d22/address__range_8hh.html" target="_top" xlink:title="harpoon/memory/address\l_range.hh">
<polygon fill="white" stroke="black" points="351.5,-175 351.5,-209 478.5,-209 478.5,-175 351.5,-175"/>
<text text-anchor="start" x="359.5" y="-196" font-family="Helvetica,sans-Serif" font-size="10.00">harpoon/memory/address</text>
<text text-anchor="middle" x="415" y="-183" font-family="Helvetica,sans-Serif" font-size="10.00">_range.hh</text>
</a>
</g>
<!-- Node8&#45;&gt;Node16 -->
<g id="edge40" class="edge"><title>Node8&#45;&gt;Node16</title>
<path fill="none" stroke="midnightblue" d="M403.02,-318.25C405.014,-297.239 409.484,-250.131 412.364,-219.776"/>
<polygon fill="midnightblue" stroke="midnightblue" points="415.886,-219.715 413.346,-209.429 408.917,-219.054 415.886,-219.715"/>
</g>
<!-- Node9&#45;&gt;Node2 -->
<g id="edge22" class="edge"><title>Node9&#45;&gt;Node2</title>
<path fill="none" stroke="midnightblue" d="M239.632,-253.297C245.82,-242.723 254.721,-225.873 259,-210 270.177,-168.535 271.216,-117.913 270.753,-90.0013"/>
<polygon fill="midnightblue" stroke="midnightblue" points="274.248,-89.7503 270.498,-79.8411 267.25,-89.9257 274.248,-89.7503"/>
</g>
<!-- Node10 -->
<g id="node22" class="node"><title>Node10</title>
<a xlink:href="../../d3/de3/log_8hh.html" target="_top" xlink:title="harpoon/log/log.hh">
<polygon fill="white" stroke="black" points="28,-181.5 28,-202.5 124,-202.5 124,-181.5 28,-181.5"/>
<text text-anchor="middle" x="76" y="-189.5" font-family="Helvetica,sans-Serif" font-size="10.00">harpoon/log/log.hh</text>
</a>
</g>
<!-- Node9&#45;&gt;Node10 -->
<g id="edge24" class="edge"><title>Node9&#45;&gt;Node10</title>
<path fill="none" stroke="midnightblue" d="M209.834,-253.376C182.972,-241.057 138.523,-220.673 108.284,-206.805"/>
<polygon fill="midnightblue" stroke="midnightblue" points="109.554,-203.537 99.0052,-202.55 106.636,-209.9 109.554,-203.537"/>
</g>
<!-- Node9&#45;&gt;Node13 -->
<g id="edge34" class="edge"><title>Node9&#45;&gt;Node13</title>
<path fill="none" stroke="midnightblue" d="M245.837,-253.376C259.844,-241.784 282.482,-223.05 299.067,-209.324"/>
<polygon fill="midnightblue" stroke="midnightblue" points="301.638,-211.74 307.11,-202.667 297.175,-206.347 301.638,-211.74"/>
</g>
<!-- Node14 -->
<g id="node32" class="node"><title>Node14</title>
<polygon fill="white" stroke="#bfbfbf" points="142,-181.5 142,-202.5 188,-202.5 188,-181.5 142,-181.5"/>
<text text-anchor="middle" x="165" y="-189.5" font-family="Helvetica,sans-Serif" font-size="10.00">atomic</text>
</g>
<!-- Node9&#45;&gt;Node14 -->
<g id="edge36" class="edge"><title>Node9&#45;&gt;Node14</title>
<path fill="none" stroke="midnightblue" d="M222.966,-253.376C212.219,-241.997 194.972,-223.735 182.08,-210.085"/>
<polygon fill="midnightblue" stroke="midnightblue" points="184.486,-207.534 175.075,-202.667 179.397,-212.341 184.486,-207.534"/>
</g>
<!-- Node15 -->
<g id="node34" class="node"><title>Node15</title>
<polygon fill="white" stroke="#bfbfbf" points="206,-181.5 206,-202.5 250,-202.5 250,-181.5 206,-181.5"/>
<text text-anchor="middle" x="228" y="-189.5" font-family="Helvetica,sans-Serif" font-size="10.00">mutex</text>
</g>
<!-- Node9&#45;&gt;Node15 -->
<g id="edge38" class="edge"><title>Node9&#45;&gt;Node15</title>
<path fill="none" stroke="midnightblue" d="M232.262,-253.376C231.524,-242.741 230.368,-226.095 229.446,-212.82"/>
<polygon fill="midnightblue" stroke="midnightblue" points="232.925,-212.401 228.741,-202.667 225.942,-212.886 232.925,-212.401"/>
</g>
<!-- Node10&#45;&gt;Node2 -->
<g id="edge26" class="edge"><title>Node10&#45;&gt;Node2</title>
<path fill="none" stroke="midnightblue" d="M94.8885,-181.384C113.636,-170.737 143.094,-153.711 168,-138 195.408,-120.711 226.117,-99.7068 246.61,-85.4473"/>
<polygon fill="midnightblue" stroke="midnightblue" points="248.798,-88.1886 254.993,-79.5939 244.79,-82.4492 248.798,-88.1886"/>
</g>
<!-- Node11 -->
<g id="node25" class="node"><title>Node11</title>
<a xlink:href="../../d9/d74/message_8hh.html" target="_top" xlink:title="harpoon/log/message.hh">
<polygon fill="white" stroke="black" points="36.5,-116.5 36.5,-137.5 159.5,-137.5 159.5,-116.5 36.5,-116.5"/>
<text text-anchor="middle" x="98" y="-124.5" font-family="Helvetica,sans-Serif" font-size="10.00">harpoon/log/message.hh</text>
</a>
</g>
<!-- Node10&#45;&gt;Node11 -->
<g id="edge28" class="edge"><title>Node10&#45;&gt;Node11</title>
<path fill="none" stroke="midnightblue" d="M79.6329,-181.267C82.7724,-171.991 87.3938,-158.336 91.2154,-147.045"/>
<polygon fill="midnightblue" stroke="midnightblue" points="94.544,-148.128 94.4347,-137.534 87.9135,-145.884 94.544,-148.128"/>
</g>
<!-- Node11&#45;&gt;Node2 -->
<g id="edge30" class="edge"><title>Node11&#45;&gt;Node2</title>
<path fill="none" stroke="midnightblue" d="M129.148,-116.497C157.189,-107.041 198.582,-93.0829 229.245,-82.7428"/>
<polygon fill="midnightblue" stroke="midnightblue" points="230.436,-86.035 238.794,-79.5231 228.2,-79.4019 230.436,-86.035"/>
</g>
<!-- Node12 -->
<g id="node28" class="node"><title>Node12</title>
<polygon fill="white" stroke="#bfbfbf" points="72,-58.5 72,-79.5 124,-79.5 124,-58.5 72,-58.5"/>
<text text-anchor="middle" x="98" y="-66.5" font-family="Helvetica,sans-Serif" font-size="10.00">sstream</text>
</g>
<!-- Node11&#45;&gt;Node12 -->
<g id="edge32" class="edge"><title>Node11&#45;&gt;Node12</title>
<path fill="none" stroke="midnightblue" d="M98,-116.362C98,-108.922 98,-98.7427 98,-89.7276"/>
<polygon fill="midnightblue" stroke="midnightblue" points="101.5,-89.5706 98,-79.5707 94.5001,-89.5707 101.5,-89.5706"/>
</g>
<!-- Node16&#45;&gt;Node2 -->
<g id="edge42" class="edge"><title>Node16&#45;&gt;Node2</title>
<path fill="none" stroke="midnightblue" d="M351.371,-177.104C328.887,-168.942 305.192,-156.562 289,-138 277.415,-124.719 272.835,-104.972 271.054,-90.002"/>
<polygon fill="midnightblue" stroke="midnightblue" points="274.51,-89.3359 270.168,-79.6716 267.535,-89.9342 274.51,-89.3359"/>
</g>
<!-- Node17 -->
<g id="node39" class="node"><title>Node17</title>
<a xlink:href="../../db/db3/address_8hh.html" target="_top" xlink:title="harpoon/memory/address.hh">
<polygon fill="white" stroke="black" points="298,-116.5 298,-137.5 438,-137.5 438,-116.5 298,-116.5"/>
<text text-anchor="middle" x="368" y="-124.5" font-family="Helvetica,sans-Serif" font-size="10.00">harpoon/memory/address.hh</text>
</a>
</g>
<!-- Node16&#45;&gt;Node17 -->
<g id="edge44" class="edge"><title>Node16&#45;&gt;Node17</title>
<path fill="none" stroke="midnightblue" d="M402.651,-174.922C396.221,-166.029 388.34,-155.13 381.72,-145.974"/>
<polygon fill="midnightblue" stroke="midnightblue" points="384.543,-143.905 375.847,-137.852 378.87,-148.006 384.543,-143.905"/>
</g>
<!-- Node18 -->
<g id="node42" class="node"><title>Node18</title>
<polygon fill="white" stroke="#bfbfbf" points="456,-116.5 456,-137.5 496,-137.5 496,-116.5 456,-116.5"/>
<text text-anchor="middle" x="476" y="-124.5" font-family="Helvetica,sans-Serif" font-size="10.00">limits</text>
</g>
<!-- Node16&#45;&gt;Node18 -->
<g id="edge48" class="edge"><title>Node16&#45;&gt;Node18</title>
<path fill="none" stroke="midnightblue" d="M431.027,-174.922C439.545,-165.845 450.024,-154.679 458.723,-145.41"/>
<polygon fill="midnightblue" stroke="midnightblue" points="461.525,-147.539 465.816,-137.852 456.42,-142.749 461.525,-147.539"/>
</g>
<!-- Node17&#45;&gt;Node2 -->
<g id="edge46" class="edge"><title>Node17&#45;&gt;Node2</title>
<path fill="none" stroke="midnightblue" d="M350.025,-116.362C335.106,-107.532 313.667,-94.844 296.734,-84.8224"/>
<polygon fill="midnightblue" stroke="midnightblue" points="298.249,-81.6519 287.861,-79.5707 294.684,-87.6759 298.249,-81.6519"/>
</g>
<!-- Node20&#45;&gt;Node2 -->
<g id="edge56" class="edge"><title>Node20&#45;&gt;Node2</title>
<path fill="none" stroke="midnightblue" d="M648.561,-246.954C641.247,-215.461 620.994,-148.421 576,-116 537.867,-88.5222 409.012,-76.6523 331.195,-71.8892"/>
<polygon fill="midnightblue" stroke="midnightblue" points="331.224,-68.3849 321.035,-71.2899 330.811,-75.3728 331.224,-68.3849"/>
</g>
</g>
</svg>
