<?xml version="1.0" encoding="UTF-8" standalone="no"?>
<!DOCTYPE svg PUBLIC "-//W3C//DTD SVG 1.1//EN"
 "http://www.w3.org/Graphics/SVG/1.1/DTD/svg11.dtd">
<!-- Generated by graphviz version 2.26.3 (20100126.1600)
 -->
<!-- Title: harpoon::memory::serializer::binary_file Pages: 1 -->
<svg width="144pt" height="328pt"
 viewBox="0.00 0.00 144.00 328.00" xmlns="http://www.w3.org/2000/svg" xmlns:xlink="http://www.w3.org/1999/xlink">
<g id="graph1" class="graph" transform="scale(1 1) rotate(0) translate(4 324)">
<title>harpoon::memory::serializer::binary_file</title>
<polygon fill="white" stroke="white" points="-4,5 -4,-324 141,-324 141,5 -4,5"/>
<!-- Node1 -->
<g id="node1" class="node"><title>Node1</title>
<polygon fill="#bfbfbf" stroke="black" points="-0.5,-0.5 -0.5,-141.5 136.5,-141.5 136.5,-0.5 -0.5,-0.5"/>
<text text-anchor="start" x="7.5" y="-128.5" font-family="Helvetica,sans-Serif" font-size="10.00">harpoon::memory::serializer</text>
<text text-anchor="middle" x="68" y="-115.5" font-family="Helvetica,sans-Serif" font-size="10.00">::binary_file</text>
<polyline fill="none" stroke="black" points="-0.5,-107.5 136.5,-107.5 "/>
<text text-anchor="middle" x="68" y="-94.5" font-family="Helvetica,sans-Serif" font-size="10.00"> </text>
<polyline fill="none" stroke="black" points="-0.5,-86.5 136.5,-86.5 "/>
<text text-anchor="start" x="7.5" y="-73.5" font-family="Helvetica,sans-Serif" font-size="10.00">+ binary_file()</text>
<text text-anchor="start" x="7.5" y="-60.5" font-family="Helvetica,sans-Serif" font-size="10.00">+ start_memory_block()</text>
<text text-anchor="start" x="7.5" y="-47.5" font-family="Helvetica,sans-Serif" font-size="10.00">+ write()</text>
<text text-anchor="start" x="7.5" y="-34.5" font-family="Helvetica,sans-Serif" font-size="10.00">+ end_memory_block()</text>
<text text-anchor="start" x="7.5" y="-21.5" font-family="Helvetica,sans-Serif" font-size="10.00">+ seek_memory_block()</text>
<text text-anchor="start" x="7.5" y="-8.5" font-family="Helvetica,sans-Serif" font-size="10.00">+ read()</text>
</g>
<!-- Node2 -->
<g id="node2" class="node"><title>Node2</title>
<a xlink:href="../../d4/d42/classharpoon_1_1memory_1_1serializer_1_1serializer.html" target="_top" xlink:title="{harpoon::memory::serializer\l::serializer\n||+ start_memory_block()\l+ write()\l+ end_memory_block()\l+ seek_memory_block()\l+ read()\l+ ~serializer()\l}">
<polygon fill="white" stroke="black" points="-0.5,-178.5 -0.5,-319.5 136.5,-319.5 136.5,-178.5 -0.5,-178.5"/>
<text text-anchor="start" x="7.5" y="-306.5" font-family="Helvetica,sans-Serif" font-size="10.00">harpoon::memory::serializer</text>
<text text-anchor="middle" x="68" y="-293.5" font-family="Helvetica,sans-Serif" font-size="10.00">::serializer</text>
<polyline fill="none" stroke="black" points="-0.5,-285.5 136.5,-285.5 "/>
<text text-anchor="middle" x="68" y="-272.5" font-family="Helvetica,sans-Serif" font-size="10.00"> </text>
<polyline fill="none" stroke="black" points="-0.5,-264.5 136.5,-264.5 "/>
<text text-anchor="start" x="7.5" y="-251.5" font-family="Helvetica,sans-Serif" font-size="10.00">+ start_memory_block()</text>
<text text-anchor="start" x="7.5" y="-238.5" font-family="Helvetica,sans-Serif" font-size="10.00">+ write()</text>
<text text-anchor="start" x="7.5" y="-225.5" font-family="Helvetica,sans-Serif" font-size="10.00">+ end_memory_block()</text>
<text text-anchor="start" x="7.5" y="-212.5" font-family="Helvetica,sans-Serif" font-size="10.00">+ seek_memory_block()</text>
<text text-anchor="start" x="7.5" y="-199.5" font-family="Helvetica,sans-Serif" font-size="10.00">+ read()</text>
<text text-anchor="start" x="7.5" y="-186.5" font-family="Helvetica,sans-Serif" font-size="10.00">+ ~serializer()</text>
</a>
</g>
<!-- Node2&#45;&gt;Node1 -->
<g id="edge2" class="edge"><title>Node2&#45;&gt;Node1</title>
<path fill="none" stroke="midnightblue" d="M68,-168.354C68,-159.401 68,-150.334 68,-141.521"/>
<polygon fill="none" stroke="midnightblue" points="64.5001,-168.394 68,-178.394 71.5001,-168.394 64.5001,-168.394"/>
</g>
</g>
</svg>
