<?xml version="1.0" encoding="UTF-8" standalone="no"?>
<!DOCTYPE svg PUBLIC "-//W3C//DTD SVG 1.1//EN"
 "http://www.w3.org/Graphics/SVG/1.1/DTD/svg11.dtd">
<!-- Generated by graphviz version 2.26.3 (20100126.1600)
 -->
<!-- Title: harpoon::log::console_log Pages: 1 -->
<svg width="136pt" height="264pt"
 viewBox="0.00 0.00 136.00 264.00" xmlns="http://www.w3.org/2000/svg" xmlns:xlink="http://www.w3.org/1999/xlink">
<g id="graph1" class="graph" transform="scale(1 1) rotate(0) translate(4 260)">
<title>harpoon::log::console_log</title>
<polygon fill="white" stroke="white" points="-4,5 -4,-260 133,-260 133,5 -4,5"/>
<!-- Node1 -->
<g id="node1" class="node"><title>Node1</title>
<polygon fill="#bfbfbf" stroke="black" points="0,-1 0,-129 128,-129 128,-1 0,-1"/>
<text text-anchor="middle" x="64" y="-116" font-family="Helvetica,sans-Serif" font-size="10.00">harpoon::log::console_log</text>
<polyline fill="none" stroke="black" points="0,-108 128,-108 "/>
<text text-anchor="middle" x="64" y="-95" font-family="Helvetica,sans-Serif" font-size="10.00"> </text>
<polyline fill="none" stroke="black" points="0,-87 128,-87 "/>
<text text-anchor="start" x="8" y="-74" font-family="Helvetica,sans-Serif" font-size="10.00">+ ~console_log()</text>
<text text-anchor="start" x="8" y="-61" font-family="Helvetica,sans-Serif" font-size="10.00">+ out()</text>
<text text-anchor="start" x="8" y="-48" font-family="Helvetica,sans-Serif" font-size="10.00">+ display_component()</text>
<text text-anchor="start" x="8" y="-35" font-family="Helvetica,sans-Serif" font-size="10.00">+ display_file()</text>
<text text-anchor="start" x="8" y="-22" font-family="Helvetica,sans-Serif" font-size="10.00">+ display_line()</text>
<text text-anchor="start" x="8" y="-9" font-family="Helvetica,sans-Serif" font-size="10.00">+ display_function()</text>
</g>
<!-- Node2 -->
<g id="node2" class="node"><title>Node2</title>
<a xlink:href="../../d8/dae/classharpoon_1_1log_1_1log.html" target="_top" xlink:title="{harpoon::log::log\n||+ ~log()\l+ out()\l+ out()\l}">
<polygon fill="white" stroke="black" points="19.5,-166.5 19.5,-255.5 108.5,-255.5 108.5,-166.5 19.5,-166.5"/>
<text text-anchor="middle" x="64" y="-242.5" font-family="Helvetica,sans-Serif" font-size="10.00">harpoon::log::log</text>
<polyline fill="none" stroke="black" points="19.5,-234.5 108.5,-234.5 "/>
<text text-anchor="middle" x="64" y="-221.5" font-family="Helvetica,sans-Serif" font-size="10.00"> </text>
<polyline fill="none" stroke="black" points="19.5,-213.5 108.5,-213.5 "/>
<text text-anchor="start" x="27.5" y="-200.5" font-family="Helvetica,sans-Serif" font-size="10.00">+ ~log()</text>
<text text-anchor="start" x="27.5" y="-187.5" font-family="Helvetica,sans-Serif" font-size="10.00">+ out()</text>
<text text-anchor="start" x="27.5" y="-174.5" font-family="Helvetica,sans-Serif" font-size="10.00">+ out()</text>
</a>
</g>
<!-- Node2&#45;&gt;Node1 -->
<g id="edge2" class="edge"><title>Node2&#45;&gt;Node1</title>
<path fill="none" stroke="midnightblue" d="M64,-156.254C64,-147.432 64,-138.231 64,-129.21"/>
<polygon fill="none" stroke="midnightblue" points="60.5001,-156.402 64,-166.402 67.5001,-156.402 60.5001,-156.402"/>
</g>
</g>
</svg>
