<?xml version="1.0" encoding="UTF-8" standalone="no"?>
<!DOCTYPE svg PUBLIC "-//W3C//DTD SVG 1.1//EN"
 "http://www.w3.org/Graphics/SVG/1.1/DTD/svg11.dtd">
<!-- Generated by graphviz version 2.26.3 (20100126.1600)
 -->
<!-- Title: harpoon::memory::linear_random_access_memory Pages: 1 -->
<svg width="376pt" height="1062pt"
 viewBox="0.00 0.00 376.00 1062.00" xmlns="http://www.w3.org/2000/svg" xmlns:xlink="http://www.w3.org/1999/xlink">
<g id="graph1" class="graph" transform="scale(1 1) rotate(0) translate(4 1058)">
<title>harpoon::memory::linear_random_access_memory</title>
<polygon fill="white" stroke="white" points="-4,5 -4,-1058 373,-1058 373,5 -4,5"/>
<!-- Node1 -->
<g id="node1" class="node"><title>Node1</title>
<polygon fill="#bfbfbf" stroke="black" points="120.5,-0.5 120.5,-89.5 251.5,-89.5 251.5,-0.5 120.5,-0.5"/>
<text text-anchor="start" x="128.5" y="-76.5" font-family="Helvetica,sans-Serif" font-size="10.00">harpoon::memory::linear</text>
<text text-anchor="middle" x="186" y="-63.5" font-family="Helvetica,sans-Serif" font-size="10.00">_random_access_memory</text>
<polyline fill="none" stroke="black" points="120.5,-55.5 251.5,-55.5 "/>
<text text-anchor="middle" x="186" y="-42.5" font-family="Helvetica,sans-Serif" font-size="10.00"> </text>
<polyline fill="none" stroke="black" points="120.5,-34.5 251.5,-34.5 "/>
<text text-anchor="start" x="128.5" y="-21.5" font-family="Helvetica,sans-Serif" font-size="10.00">+ ~linear_random_access</text>
<text text-anchor="start" x="128.5" y="-8.5" font-family="Helvetica,sans-Serif" font-size="10.00">_memory()</text>
</g>
<!-- Node2 -->
<g id="node2" class="node"><title>Node2</title>
<a xlink:href="../../dc/d01/classharpoon_1_1memory_1_1random__access__memory.html" target="_top" xlink:title="{harpoon::memory::random\l_access_memory\&lt; linear\l_memory \&gt;\n||+ ~random_access_memory()\l}">
<polygon fill="white" stroke="black" points="112.5,-128.5 112.5,-217.5 259.5,-217.5 259.5,-128.5 112.5,-128.5"/>
<text text-anchor="start" x="120.5" y="-204.5" font-family="Helvetica,sans-Serif" font-size="10.00">harpoon::memory::random</text>
<text text-anchor="start" x="120.5" y="-191.5" font-family="Helvetica,sans-Serif" font-size="10.00">_access_memory&lt; linear</text>
<text text-anchor="middle" x="186" y="-178.5" font-family="Helvetica,sans-Serif" font-size="10.00">_memory &gt;</text>
<polyline fill="none" stroke="black" points="112.5,-170.5 259.5,-170.5 "/>
<text text-anchor="middle" x="186" y="-157.5" font-family="Helvetica,sans-Serif" font-size="10.00"> </text>
<polyline fill="none" stroke="black" points="112.5,-149.5 259.5,-149.5 "/>
<text text-anchor="start" x="120.5" y="-136.5" font-family="Helvetica,sans-Serif" font-size="10.00">+ ~random_access_memory()</text>
</a>
</g>
<!-- Node2&#45;&gt;Node1 -->
<g id="edge2" class="edge"><title>Node2&#45;&gt;Node1</title>
<path fill="none" stroke="midnightblue" d="M186,-118.047C186,-108.524 186,-98.7286 186,-89.5268"/>
<polygon fill="none" stroke="midnightblue" points="182.5,-118.232 186,-128.232 189.5,-118.232 182.5,-118.232"/>
</g>
<!-- Node3 -->
<g id="node4" class="node"><title>Node3</title>
<a xlink:href="../../da/df3/classharpoon_1_1memory_1_1linear__memory.html" target="_top" xlink:title="{harpoon::memory::linear\l_memory\n||+ linear_memory()\l+ linear_memory()\l+ operator=()\l+ prepare()\l+ cleanup()\l+ get()\l+ set()\l+ serialize()\l+ deserialize()\l+ ~linear_memory()\l}">
<polygon fill="white" stroke="black" points="14,-268.5 14,-461.5 136,-461.5 136,-268.5 14,-268.5"/>
<text text-anchor="start" x="22" y="-448.5" font-family="Helvetica,sans-Serif" font-size="10.00">harpoon::memory::linear</text>
<text text-anchor="middle" x="75" y="-435.5" font-family="Helvetica,sans-Serif" font-size="10.00">_memory</text>
<polyline fill="none" stroke="black" points="14,-427.5 136,-427.5 "/>
<text text-anchor="middle" x="75" y="-414.5" font-family="Helvetica,sans-Serif" font-size="10.00"> </text>
<polyline fill="none" stroke="black" points="14,-406.5 136,-406.5 "/>
<text text-anchor="start" x="22" y="-393.5" font-family="Helvetica,sans-Serif" font-size="10.00">+ linear_memory()</text>
<text text-anchor="start" x="22" y="-380.5" font-family="Helvetica,sans-Serif" font-size="10.00">+ linear_memory()</text>
<text text-anchor="start" x="22" y="-367.5" font-family="Helvetica,sans-Serif" font-size="10.00">+ operator=()</text>
<text text-anchor="start" x="22" y="-354.5" font-family="Helvetica,sans-Serif" font-size="10.00">+ prepare()</text>
<text text-anchor="start" x="22" y="-341.5" font-family="Helvetica,sans-Serif" font-size="10.00">+ cleanup()</text>
<text text-anchor="start" x="22" y="-328.5" font-family="Helvetica,sans-Serif" font-size="10.00">+ get()</text>
<text text-anchor="start" x="22" y="-315.5" font-family="Helvetica,sans-Serif" font-size="10.00">+ set()</text>
<text text-anchor="start" x="22" y="-302.5" font-family="Helvetica,sans-Serif" font-size="10.00">+ serialize()</text>
<text text-anchor="start" x="22" y="-289.5" font-family="Helvetica,sans-Serif" font-size="10.00">+ deserialize()</text>
<text text-anchor="start" x="22" y="-276.5" font-family="Helvetica,sans-Serif" font-size="10.00">+ ~linear_memory()</text>
</a>
</g>
<!-- Node3&#45;&gt;Node2 -->
<g id="edge4" class="edge"><title>Node3&#45;&gt;Node2</title>
<path fill="none" stroke="midnightblue" d="M135.866,-259.718C144.405,-244.947 152.773,-230.473 160.152,-217.711"/>
<polygon fill="none" stroke="midnightblue" points="132.8,-258.028 130.825,-268.438 138.86,-261.532 132.8,-258.028"/>
</g>
<!-- Node4 -->
<g id="node6" class="node"><title>Node4</title>
<a xlink:href="../../db/d2f/classharpoon_1_1memory_1_1memory.html" target="_top" xlink:title="{harpoon::memory::memory\n||+ memory()\l+ get_address_range()\l+ get_address_range()\l+ set_address_range()\l+ has_address()\l+ get_offset()\l+ get()\l+ set()\l+ get()\l+ set()\land 7 more...\l}">
<polygon fill="white" stroke="black" points="8,-500.5 8,-693.5 142,-693.5 142,-500.5 8,-500.5"/>
<text text-anchor="middle" x="75" y="-680.5" font-family="Helvetica,sans-Serif" font-size="10.00">harpoon::memory::memory</text>
<polyline fill="none" stroke="black" points="8,-672.5 142,-672.5 "/>
<text text-anchor="middle" x="75" y="-659.5" font-family="Helvetica,sans-Serif" font-size="10.00"> </text>
<polyline fill="none" stroke="black" points="8,-651.5 142,-651.5 "/>
<text text-anchor="start" x="16" y="-638.5" font-family="Helvetica,sans-Serif" font-size="10.00">+ memory()</text>
<text text-anchor="start" x="16" y="-625.5" font-family="Helvetica,sans-Serif" font-size="10.00">+ get_address_range()</text>
<text text-anchor="start" x="16" y="-612.5" font-family="Helvetica,sans-Serif" font-size="10.00">+ get_address_range()</text>
<text text-anchor="start" x="16" y="-599.5" font-family="Helvetica,sans-Serif" font-size="10.00">+ set_address_range()</text>
<text text-anchor="start" x="16" y="-586.5" font-family="Helvetica,sans-Serif" font-size="10.00">+ has_address()</text>
<text text-anchor="start" x="16" y="-573.5" font-family="Helvetica,sans-Serif" font-size="10.00">+ get_offset()</text>
<text text-anchor="start" x="16" y="-560.5" font-family="Helvetica,sans-Serif" font-size="10.00">+ get()</text>
<text text-anchor="start" x="16" y="-547.5" font-family="Helvetica,sans-Serif" font-size="10.00">+ set()</text>
<text text-anchor="start" x="16" y="-534.5" font-family="Helvetica,sans-Serif" font-size="10.00">+ get()</text>
<text text-anchor="start" x="16" y="-521.5" font-family="Helvetica,sans-Serif" font-size="10.00">+ set()</text>
<text text-anchor="start" x="16" y="-508.5" font-family="Helvetica,sans-Serif" font-size="10.00">and 7 more...</text>
</a>
</g>
<!-- Node4&#45;&gt;Node3 -->
<g id="edge6" class="edge"><title>Node4&#45;&gt;Node3</title>
<path fill="none" stroke="midnightblue" d="M75,-490.03C75,-480.533 75,-470.955 75,-461.552"/>
<polygon fill="none" stroke="midnightblue" points="71.5001,-490.291 75,-500.291 78.5001,-490.291 71.5001,-490.291"/>
</g>
<!-- Node5 -->
<g id="node8" class="node"><title>Node5</title>
<a xlink:href="../../df/d54/classharpoon_1_1hardware__component.html" target="_top" xlink:title="Base class for all hardware components of computer system (i.e. CPU, memory). All components should d...">
<polygon fill="white" stroke="black" points="0,-732.5 0,-925.5 150,-925.5 150,-732.5 0,-732.5"/>
<text text-anchor="middle" x="75" y="-912.5" font-family="Helvetica,sans-Serif" font-size="10.00">harpoon::hardware_component</text>
<polyline fill="none" stroke="black" points="0,-904.5 150,-904.5 "/>
<text text-anchor="middle" x="75" y="-891.5" font-family="Helvetica,sans-Serif" font-size="10.00"> </text>
<polyline fill="none" stroke="black" points="0,-883.5 150,-883.5 "/>
<text text-anchor="start" x="8" y="-870.5" font-family="Helvetica,sans-Serif" font-size="10.00">+ hardware_component()</text>
<text text-anchor="start" x="8" y="-857.5" font-family="Helvetica,sans-Serif" font-size="10.00">+ hardware_component()</text>
<text text-anchor="start" x="8" y="-844.5" font-family="Helvetica,sans-Serif" font-size="10.00">+ operator=()</text>
<text text-anchor="start" x="8" y="-831.5" font-family="Helvetica,sans-Serif" font-size="10.00">+ ~hardware_component()</text>
<text text-anchor="start" x="8" y="-818.5" font-family="Helvetica,sans-Serif" font-size="10.00">+ add_component()</text>
<text text-anchor="start" x="8" y="-805.5" font-family="Helvetica,sans-Serif" font-size="10.00">+ remove_component()</text>
<text text-anchor="start" x="8" y="-792.5" font-family="Helvetica,sans-Serif" font-size="10.00">+ replace_component()</text>
<text text-anchor="start" x="8" y="-779.5" font-family="Helvetica,sans-Serif" font-size="10.00">+ prepare()</text>
<text text-anchor="start" x="8" y="-766.5" font-family="Helvetica,sans-Serif" font-size="10.00">+ cleanup()</text>
<text text-anchor="start" x="8" y="-753.5" font-family="Helvetica,sans-Serif" font-size="10.00">+ boot()</text>
<text text-anchor="start" x="8" y="-740.5" font-family="Helvetica,sans-Serif" font-size="10.00">and 10 more...</text>
</a>
</g>
<!-- Node5&#45;&gt;Node4 -->
<g id="edge8" class="edge"><title>Node5&#45;&gt;Node4</title>
<path fill="none" stroke="midnightblue" d="M75,-722.03C75,-712.533 75,-702.955 75,-693.552"/>
<polygon fill="none" stroke="midnightblue" points="71.5001,-722.291 75,-732.291 78.5001,-722.291 71.5001,-722.291"/>
</g>
<!-- Node6 -->
<g id="node10" class="node"><title>Node6</title>
<polygon fill="white" stroke="#bfbfbf" points="19.5,-964.5 19.5,-1053.5 130.5,-1053.5 130.5,-964.5 19.5,-964.5"/>
<text text-anchor="start" x="27.5" y="-1040.5" font-family="Helvetica,sans-Serif" font-size="10.00">std::enable_shared</text>
<text text-anchor="start" x="27.5" y="-1027.5" font-family="Helvetica,sans-Serif" font-size="10.00">_from_this&lt; hardware</text>
<text text-anchor="middle" x="75" y="-1014.5" font-family="Helvetica,sans-Serif" font-size="10.00">_component &gt;</text>
<polyline fill="none" stroke="#bfbfbf" points="19.5,-1006.5 130.5,-1006.5 "/>
<text text-anchor="middle" x="75" y="-993.5" font-family="Helvetica,sans-Serif" font-size="10.00"> </text>
<polyline fill="none" stroke="#bfbfbf" points="19.5,-985.5 130.5,-985.5 "/>
<text text-anchor="middle" x="75" y="-972.5" font-family="Helvetica,sans-Serif" font-size="10.00"> </text>
</g>
<!-- Node6&#45;&gt;Node5 -->
<g id="edge10" class="edge"><title>Node6&#45;&gt;Node5</title>
<path fill="none" stroke="midnightblue" d="M75,-953.812C75,-944.863 75,-935.37 75,-925.775"/>
<polygon fill="none" stroke="midnightblue" points="71.5001,-954.043 75,-964.043 78.5001,-954.043 71.5001,-954.043"/>
</g>
<!-- Node7 -->
<g id="node12" class="node"><title>Node7</title>
<a xlink:href="../../dc/d01/classharpoon_1_1memory_1_1random__access__memory.html" target="_top" xlink:title="{harpoon::memory::random\l_access_memory\&lt; MemoryImplementation \&gt;\n||+ ~random_access_memory()\l}">
<polygon fill="white" stroke="black" points="154,-327 154,-403 368,-403 368,-327 154,-327"/>
<text text-anchor="start" x="162" y="-390" font-family="Helvetica,sans-Serif" font-size="10.00">harpoon::memory::random</text>
<text text-anchor="middle" x="261" y="-377" font-family="Helvetica,sans-Serif" font-size="10.00">_access_memory&lt; MemoryImplementation &gt;</text>
<polyline fill="none" stroke="black" points="154,-369 368,-369 "/>
<text text-anchor="middle" x="261" y="-356" font-family="Helvetica,sans-Serif" font-size="10.00"> </text>
<polyline fill="none" stroke="black" points="154,-348 368,-348 "/>
<text text-anchor="start" x="162" y="-335" font-family="Helvetica,sans-Serif" font-size="10.00">+ ~random_access_memory()</text>
</a>
</g>
<!-- Node7&#45;&gt;Node2 -->
<g id="edge12" class="edge"><title>Node7&#45;&gt;Node2</title>
<path fill="none" stroke="orange" d="M242.272,-317.055C230.385,-286.625 215.107,-247.514 203.471,-217.725"/>
<polygon fill="orange" stroke="orange" points="239.104,-318.566 246.003,-326.607 245.624,-316.019 239.104,-318.566"/>
<text text-anchor="middle" x="257.5" y="-240.5" font-family="Helvetica,sans-Serif" font-size="10.00"> &lt; linear_memory &gt;</text>
</g>
<!-- Node8 -->
<g id="node14" class="node"><title>Node8</title>
<polygon fill="white" stroke="#bfbfbf" points="201.5,-565.5 201.5,-628.5 320.5,-628.5 320.5,-565.5 201.5,-565.5"/>
<text text-anchor="middle" x="261" y="-615.5" font-family="Helvetica,sans-Serif" font-size="10.00">MemoryImplementation</text>
<polyline fill="none" stroke="#bfbfbf" points="201.5,-607.5 320.5,-607.5 "/>
<text text-anchor="middle" x="261" y="-594.5" font-family="Helvetica,sans-Serif" font-size="10.00"> </text>
<polyline fill="none" stroke="#bfbfbf" points="201.5,-586.5 320.5,-586.5 "/>
<text text-anchor="middle" x="261" y="-573.5" font-family="Helvetica,sans-Serif" font-size="10.00"> </text>
</g>
<!-- Node8&#45;&gt;Node7 -->
<g id="edge14" class="edge"><title>Node8&#45;&gt;Node7</title>
<path fill="none" stroke="midnightblue" d="M261,-555.052C261,-511.861 261,-445.135 261,-403.322"/>
<polygon fill="none" stroke="midnightblue" points="257.5,-555.228 261,-565.228 264.5,-555.228 257.5,-555.228"/>
</g>
</g>
</svg>
