<?xml version="1.0" encoding="UTF-8" standalone="no"?>
<!DOCTYPE svg PUBLIC "-//W3C//DTD SVG 1.1//EN"
 "http://www.w3.org/Graphics/SVG/1.1/DTD/svg11.dtd">
<!-- Generated by graphviz version 2.26.3 (20100126.1600)
 -->
<!-- Title: harpoon/memory/exception/write_access_violation.hh Pages: 1 -->
<svg width="451pt" height="448pt"
 viewBox="0.00 0.00 451.00 448.00" xmlns="http://www.w3.org/2000/svg" xmlns:xlink="http://www.w3.org/1999/xlink">
<g id="graph1" class="graph" transform="scale(1 1) rotate(0) translate(4 444)">
<title>harpoon/memory/exception/write_access_violation.hh</title>
<polygon fill="white" stroke="white" points="-4,5 -4,-444 448,-444 448,5 -4,5"/>
<!-- Node1 -->
<g id="node1" class="node"><title>Node1</title>
<polygon fill="#bfbfbf" stroke="black" points="309,-405 309,-439 443,-439 443,-405 309,-405"/>
<text text-anchor="start" x="317" y="-426" font-family="Helvetica,sans-Serif" font-size="10.00">harpoon/memory/exception</text>
<text text-anchor="middle" x="376" y="-413" font-family="Helvetica,sans-Serif" font-size="10.00">/write_access_violation.hh</text>
</g>
<!-- Node2 -->
<g id="node3" class="node"><title>Node2</title>
<a xlink:href="../../d5/d08/harpoon_8hh.html" target="_top" xlink:title="Harpoon library common header file. ">
<polygon fill="white" stroke="black" points="183,-58.5 183,-79.5 285,-79.5 285,-58.5 183,-58.5"/>
<text text-anchor="middle" x="234" y="-66.5" font-family="Helvetica,sans-Serif" font-size="10.00">harpoon/harpoon.hh</text>
</a>
</g>
<!-- Node1&#45;&gt;Node2 -->
<g id="edge2" class="edge"><title>Node1&#45;&gt;Node2</title>
<path fill="none" stroke="midnightblue" d="M388.018,-404.724C405.006,-378.568 434,-326.783 434,-278 434,-278 434,-278 434,-206 434,-136.53 350.854,-99.6897 291.783,-82.2823"/>
<polygon fill="midnightblue" stroke="midnightblue" points="292.735,-78.9144 282.159,-79.5535 290.825,-85.6489 292.735,-78.9144"/>
</g>
<!-- Node6 -->
<g id="node11" class="node"><title>Node6</title>
<a xlink:href="../../d2/d41/access__violation_8hh.html" target="_top" xlink:title="harpoon/memory/exception\l/access_violation.hh">
<polygon fill="white" stroke="black" points="252,-333 252,-367 386,-367 386,-333 252,-333"/>
<text text-anchor="start" x="260" y="-354" font-family="Helvetica,sans-Serif" font-size="10.00">harpoon/memory/exception</text>
<text text-anchor="middle" x="319" y="-341" font-family="Helvetica,sans-Serif" font-size="10.00">/access_violation.hh</text>
</a>
</g>
<!-- Node1&#45;&gt;Node6 -->
<g id="edge10" class="edge"><title>Node1&#45;&gt;Node6</title>
<path fill="none" stroke="midnightblue" d="M362.492,-404.937C355.496,-396.1 346.816,-385.135 339.054,-375.331"/>
<polygon fill="midnightblue" stroke="midnightblue" points="341.758,-373.109 332.807,-367.441 336.27,-377.454 341.758,-373.109"/>
</g>
<!-- Node3 -->
<g id="node5" class="node"><title>Node3</title>
<polygon fill="white" stroke="#bfbfbf" points="149.5,-0.5 149.5,-21.5 190.5,-21.5 190.5,-0.5 149.5,-0.5"/>
<text text-anchor="middle" x="170" y="-8.5" font-family="Helvetica,sans-Serif" font-size="10.00">string</text>
</g>
<!-- Node2&#45;&gt;Node3 -->
<g id="edge4" class="edge"><title>Node2&#45;&gt;Node3</title>
<path fill="none" stroke="midnightblue" d="M222.261,-58.3619C213.059,-50.0226 200.06,-38.2418 189.328,-28.5162"/>
<polygon fill="midnightblue" stroke="midnightblue" points="191.424,-25.6924 181.664,-21.5707 186.724,-30.8793 191.424,-25.6924"/>
</g>
<!-- Node4 -->
<g id="node7" class="node"><title>Node4</title>
<polygon fill="white" stroke="#bfbfbf" points="208,-0.5 208,-21.5 260,-21.5 260,-0.5 208,-0.5"/>
<text text-anchor="middle" x="234" y="-8.5" font-family="Helvetica,sans-Serif" font-size="10.00">memory</text>
</g>
<!-- Node2&#45;&gt;Node4 -->
<g id="edge6" class="edge"><title>Node2&#45;&gt;Node4</title>
<path fill="none" stroke="midnightblue" d="M234,-58.3619C234,-50.9219 234,-40.7427 234,-31.7276"/>
<polygon fill="midnightblue" stroke="midnightblue" points="237.5,-31.5706 234,-21.5707 230.5,-31.5707 237.5,-31.5706"/>
</g>
<!-- Node5 -->
<g id="node9" class="node"><title>Node5</title>
<polygon fill="white" stroke="#bfbfbf" points="278,-0.5 278,-21.5 318,-21.5 318,-0.5 278,-0.5"/>
<text text-anchor="middle" x="298" y="-8.5" font-family="Helvetica,sans-Serif" font-size="10.00">utility</text>
</g>
<!-- Node2&#45;&gt;Node5 -->
<g id="edge8" class="edge"><title>Node2&#45;&gt;Node5</title>
<path fill="none" stroke="midnightblue" d="M245.739,-58.3619C254.941,-50.0226 267.94,-38.2418 278.672,-28.5162"/>
<polygon fill="midnightblue" stroke="midnightblue" points="281.276,-30.8793 286.336,-21.5707 276.576,-25.6924 281.276,-30.8793"/>
</g>
<!-- Node6&#45;&gt;Node2 -->
<g id="edge12" class="edge"><title>Node6&#45;&gt;Node2</title>
<path fill="none" stroke="midnightblue" d="M334.149,-332.545C358.385,-302.382 400.839,-238.851 377,-188 354.13,-139.216 300.345,-103.48 265.646,-84.5024"/>
<polygon fill="midnightblue" stroke="midnightblue" points="266.881,-81.1951 256.407,-79.5971 263.598,-87.3778 266.881,-81.1951"/>
</g>
<!-- Node7 -->
<g id="node14" class="node"><title>Node7</title>
<a xlink:href="../../df/d8d/memory__exception_8hh.html" target="_top" xlink:title="harpoon/memory/exception\l/memory_exception.hh">
<polygon fill="white" stroke="black" points="133,-261 133,-295 267,-295 267,-261 133,-261"/>
<text text-anchor="start" x="141" y="-282" font-family="Helvetica,sans-Serif" font-size="10.00">harpoon/memory/exception</text>
<text text-anchor="middle" x="200" y="-269" font-family="Helvetica,sans-Serif" font-size="10.00">/memory_exception.hh</text>
</a>
</g>
<!-- Node6&#45;&gt;Node7 -->
<g id="edge14" class="edge"><title>Node6&#45;&gt;Node7</title>
<path fill="none" stroke="midnightblue" d="M290.799,-332.937C274.762,-323.234 254.485,-310.966 237.162,-300.485"/>
<polygon fill="midnightblue" stroke="midnightblue" points="238.779,-297.372 228.411,-295.19 235.155,-303.361 238.779,-297.372"/>
</g>
<!-- Node11 -->
<g id="node25" class="node"><title>Node11</title>
<a xlink:href="../../db/db3/address_8hh.html" target="_top" xlink:title="harpoon/memory/address.hh">
<polygon fill="white" stroke="black" points="228,-195.5 228,-216.5 368,-216.5 368,-195.5 228,-195.5"/>
<text text-anchor="middle" x="298" y="-203.5" font-family="Helvetica,sans-Serif" font-size="10.00">harpoon/memory/address.hh</text>
</a>
</g>
<!-- Node6&#45;&gt;Node11 -->
<g id="edge28" class="edge"><title>Node6&#45;&gt;Node11</title>
<path fill="none" stroke="midnightblue" d="M316.509,-332.916C312.634,-306.345 305.176,-255.207 301.007,-226.622"/>
<polygon fill="midnightblue" stroke="midnightblue" points="304.444,-225.931 299.537,-216.541 297.517,-226.942 304.444,-225.931"/>
</g>
<!-- Node7&#45;&gt;Node2 -->
<g id="edge16" class="edge"><title>Node7&#45;&gt;Node2</title>
<path fill="none" stroke="midnightblue" d="M202.782,-260.897C208.971,-222.854 223.86,-131.331 230.592,-89.9469"/>
<polygon fill="midnightblue" stroke="midnightblue" points="234.074,-90.3405 232.225,-79.9082 227.165,-89.2165 234.074,-90.3405"/>
</g>
<!-- Node8 -->
<g id="node17" class="node"><title>Node8</title>
<a xlink:href="../../df/d18/hardware__component__exception_8hh.html" target="_top" xlink:title="harpoon/exception/hardware\l_component_exception.hh">
<polygon fill="white" stroke="black" points="33.5,-189 33.5,-223 172.5,-223 172.5,-189 33.5,-189"/>
<text text-anchor="start" x="41.5" y="-210" font-family="Helvetica,sans-Serif" font-size="10.00">harpoon/exception/hardware</text>
<text text-anchor="middle" x="103" y="-197" font-family="Helvetica,sans-Serif" font-size="10.00">_component_exception.hh</text>
</a>
</g>
<!-- Node7&#45;&gt;Node8 -->
<g id="edge18" class="edge"><title>Node7&#45;&gt;Node8</title>
<path fill="none" stroke="midnightblue" d="M177.012,-260.937C164.3,-251.501 148.319,-239.639 134.463,-229.354"/>
<polygon fill="midnightblue" stroke="midnightblue" points="136.275,-226.34 126.159,-223.19 132.102,-231.961 136.275,-226.34"/>
</g>
<!-- Node8&#45;&gt;Node2 -->
<g id="edge20" class="edge"><title>Node8&#45;&gt;Node2</title>
<path fill="none" stroke="midnightblue" d="M118.35,-188.84C134.82,-170.551 161.871,-140.862 186,-116 195.549,-106.161 206.451,-95.4465 215.449,-86.736"/>
<polygon fill="midnightblue" stroke="midnightblue" points="218.01,-89.128 222.784,-79.6694 213.154,-84.0867 218.01,-89.128"/>
</g>
<!-- Node9 -->
<g id="node20" class="node"><title>Node9</title>
<a xlink:href="../../d5/d38/harpoon__exception_8hh.html" target="_top" xlink:title="harpoon/exception/harpoon\l_exception.hh">
<polygon fill="white" stroke="black" points="0,-117 0,-151 134,-151 134,-117 0,-117"/>
<text text-anchor="start" x="8" y="-138" font-family="Helvetica,sans-Serif" font-size="10.00">harpoon/exception/harpoon</text>
<text text-anchor="middle" x="67" y="-125" font-family="Helvetica,sans-Serif" font-size="10.00">_exception.hh</text>
</a>
</g>
<!-- Node8&#45;&gt;Node9 -->
<g id="edge22" class="edge"><title>Node8&#45;&gt;Node9</title>
<path fill="none" stroke="midnightblue" d="M94.4685,-188.937C90.2269,-180.454 85.0046,-170.009 80.2565,-160.513"/>
<polygon fill="midnightblue" stroke="midnightblue" points="83.323,-158.82 75.7203,-151.441 77.062,-161.95 83.323,-158.82"/>
</g>
<!-- Node9&#45;&gt;Node2 -->
<g id="edge24" class="edge"><title>Node9&#45;&gt;Node2</title>
<path fill="none" stroke="midnightblue" d="M110.877,-116.922C137.666,-106.495 171.538,-93.3116 196.971,-83.4127"/>
<polygon fill="midnightblue" stroke="midnightblue" points="198.567,-86.5472 206.616,-79.6584 196.028,-80.0239 198.567,-86.5472"/>
</g>
<!-- Node10 -->
<g id="node23" class="node"><title>Node10</title>
<polygon fill="white" stroke="#bfbfbf" points="37.5,-58.5 37.5,-79.5 96.5,-79.5 96.5,-58.5 37.5,-58.5"/>
<text text-anchor="middle" x="67" y="-66.5" font-family="Helvetica,sans-Serif" font-size="10.00">stdexcept</text>
</g>
<!-- Node9&#45;&gt;Node10 -->
<g id="edge26" class="edge"><title>Node9&#45;&gt;Node10</title>
<path fill="none" stroke="midnightblue" d="M67,-116.922C67,-108.67 67,-98.6922 67,-89.9818"/>
<polygon fill="midnightblue" stroke="midnightblue" points="70.5001,-89.8521 67,-79.8521 63.5001,-89.8521 70.5001,-89.8521"/>
</g>
<!-- Node11&#45;&gt;Node2 -->
<g id="edge30" class="edge"><title>Node11&#45;&gt;Node2</title>
<path fill="none" stroke="midnightblue" d="M292.978,-195.25C282.276,-172.341 257.081,-118.409 243.339,-88.9919"/>
<polygon fill="midnightblue" stroke="midnightblue" points="246.402,-87.279 238.999,-79.7002 240.06,-90.2418 246.402,-87.279"/>
</g>
</g>
</svg>
