<?xml version="1.0" encoding="UTF-8" standalone="no"?>
<!DOCTYPE svg PUBLIC "-//W3C//DTD SVG 1.1//EN"
 "http://www.w3.org/Graphics/SVG/1.1/DTD/svg11.dtd">
<!-- Generated by graphviz version 2.26.3 (20100126.1600)
 -->
<!-- Title: harpoon/memory/serializer/binary_file.hh Pages: 1 -->
<svg width="614pt" height="478pt"
 viewBox="0.00 0.00 614.00 478.00" xmlns="http://www.w3.org/2000/svg" xmlns:xlink="http://www.w3.org/1999/xlink">
<g id="graph1" class="graph" transform="scale(1 1) rotate(0) translate(4 474)">
<title>harpoon/memory/serializer/binary_file.hh</title>
<polygon fill="white" stroke="white" points="-4,5 -4,-474 611,-474 611,5 -4,5"/>
<!-- Node1 -->
<g id="node1" class="node"><title>Node1</title>
<polygon fill="#bfbfbf" stroke="black" points="42.5,-435 42.5,-469 173.5,-469 173.5,-435 42.5,-435"/>
<text text-anchor="start" x="50.5" y="-456" font-family="Helvetica,sans-Serif" font-size="10.00">harpoon/memory/serializer</text>
<text text-anchor="middle" x="108" y="-443" font-family="Helvetica,sans-Serif" font-size="10.00">/binary_file.hh</text>
</g>
<!-- Node2 -->
<g id="node3" class="node"><title>Node2</title>
<a xlink:href="../../d5/d08/harpoon_8hh.html" target="_top" xlink:title="Harpoon library common header file. ">
<polygon fill="white" stroke="black" points="172,-58.5 172,-79.5 274,-79.5 274,-58.5 172,-58.5"/>
<text text-anchor="middle" x="223" y="-66.5" font-family="Helvetica,sans-Serif" font-size="10.00">harpoon/harpoon.hh</text>
</a>
</g>
<!-- Node1&#45;&gt;Node2 -->
<g id="edge2" class="edge"><title>Node1&#45;&gt;Node2</title>
<path fill="none" stroke="midnightblue" d="M77.1327,-434.957C62.4829,-425.614 45.6723,-412.898 34,-398 9.4144,-366.62 0,-354.864 0,-315 0,-315 0,-315 0,-185 0,-111.736 95.903,-84.6769 161.925,-74.7288"/>
<polygon fill="midnightblue" stroke="midnightblue" points="162.427,-78.1927 171.839,-73.3281 161.448,-71.2615 162.427,-78.1927"/>
</g>
<!-- Node7 -->
<g id="node13" class="node"><title>Node7</title>
<a xlink:href="../../d0/dcd/serializer_8hh.html" target="_top" xlink:title="harpoon/memory/serializer\l/serializer.hh">
<polygon fill="white" stroke="black" points="42.5,-363 42.5,-397 173.5,-397 173.5,-363 42.5,-363"/>
<text text-anchor="start" x="50.5" y="-384" font-family="Helvetica,sans-Serif" font-size="10.00">harpoon/memory/serializer</text>
<text text-anchor="middle" x="108" y="-371" font-family="Helvetica,sans-Serif" font-size="10.00">/serializer.hh</text>
</a>
</g>
<!-- Node1&#45;&gt;Node7 -->
<g id="edge12" class="edge"><title>Node1&#45;&gt;Node7</title>
<path fill="none" stroke="midnightblue" d="M108,-434.937C108,-426.807 108,-416.876 108,-407.705"/>
<polygon fill="midnightblue" stroke="midnightblue" points="111.5,-407.441 108,-397.441 104.5,-407.441 111.5,-407.441"/>
</g>
<!-- Node19 -->
<g id="node46" class="node"><title>Node19</title>
<polygon fill="white" stroke="#bfbfbf" points="191,-369.5 191,-390.5 241,-390.5 241,-369.5 191,-369.5"/>
<text text-anchor="middle" x="216" y="-377.5" font-family="Helvetica,sans-Serif" font-size="10.00">fstream</text>
</g>
<!-- Node1&#45;&gt;Node19 -->
<g id="edge54" class="edge"><title>Node1&#45;&gt;Node19</title>
<path fill="none" stroke="midnightblue" d="M133.594,-434.937C151.123,-423.251 174.235,-407.843 191.52,-396.32"/>
<polygon fill="midnightblue" stroke="midnightblue" points="193.589,-399.147 199.968,-390.688 189.706,-393.323 193.589,-399.147"/>
</g>
<!-- Node3 -->
<g id="node5" class="node"><title>Node3</title>
<polygon fill="white" stroke="#bfbfbf" points="106.5,-0.5 106.5,-21.5 147.5,-21.5 147.5,-0.5 106.5,-0.5"/>
<text text-anchor="middle" x="127" y="-8.5" font-family="Helvetica,sans-Serif" font-size="10.00">string</text>
</g>
<!-- Node2&#45;&gt;Node3 -->
<g id="edge4" class="edge"><title>Node2&#45;&gt;Node3</title>
<path fill="none" stroke="midnightblue" d="M205.392,-58.3619C190.777,-49.532 169.776,-36.844 153.189,-26.8224"/>
<polygon fill="midnightblue" stroke="midnightblue" points="154.865,-23.7461 144.496,-21.5707 151.246,-29.7376 154.865,-23.7461"/>
</g>
<!-- Node4 -->
<g id="node7" class="node"><title>Node4</title>
<polygon fill="white" stroke="#bfbfbf" points="165,-0.5 165,-21.5 217,-21.5 217,-0.5 165,-0.5"/>
<text text-anchor="middle" x="191" y="-8.5" font-family="Helvetica,sans-Serif" font-size="10.00">memory</text>
</g>
<!-- Node2&#45;&gt;Node4 -->
<g id="edge6" class="edge"><title>Node2&#45;&gt;Node4</title>
<path fill="none" stroke="midnightblue" d="M217.131,-58.3619C212.845,-50.5949 206.913,-39.8426 201.784,-30.5458"/>
<polygon fill="midnightblue" stroke="midnightblue" points="204.727,-28.6357 196.832,-21.5707 198.598,-32.0172 204.727,-28.6357"/>
</g>
<!-- Node5 -->
<g id="node9" class="node"><title>Node5</title>
<polygon fill="white" stroke="#bfbfbf" points="235,-0.5 235,-21.5 275,-21.5 275,-0.5 235,-0.5"/>
<text text-anchor="middle" x="255" y="-8.5" font-family="Helvetica,sans-Serif" font-size="10.00">utility</text>
</g>
<!-- Node2&#45;&gt;Node5 -->
<g id="edge8" class="edge"><title>Node2&#45;&gt;Node5</title>
<path fill="none" stroke="midnightblue" d="M228.869,-58.3619C233.155,-50.5949 239.087,-39.8426 244.216,-30.5458"/>
<polygon fill="midnightblue" stroke="midnightblue" points="247.402,-32.0172 249.168,-21.5707 241.273,-28.6357 247.402,-32.0172"/>
</g>
<!-- Node6 -->
<g id="node11" class="node"><title>Node6</title>
<polygon fill="white" stroke="#bfbfbf" points="293,-0.5 293,-21.5 339,-21.5 339,-0.5 293,-0.5"/>
<text text-anchor="middle" x="316" y="-8.5" font-family="Helvetica,sans-Serif" font-size="10.00">cstdint</text>
</g>
<!-- Node2&#45;&gt;Node6 -->
<g id="edge10" class="edge"><title>Node2&#45;&gt;Node6</title>
<path fill="none" stroke="midnightblue" d="M240.058,-58.3619C254.085,-49.6138 274.184,-37.0786 290.182,-27.1015"/>
<polygon fill="midnightblue" stroke="midnightblue" points="292.418,-29.8323 299.051,-21.5707 288.713,-23.8927 292.418,-29.8323"/>
</g>
<!-- Node7&#45;&gt;Node2 -->
<g id="edge14" class="edge"><title>Node7&#45;&gt;Node2</title>
<path fill="none" stroke="midnightblue" d="M91.411,-362.665C70.711,-339.136 38,-294.858 38,-250 38,-250 38,-250 38,-185 38,-125.222 108.19,-95.0745 162.102,-80.7353"/>
<polygon fill="midnightblue" stroke="midnightblue" points="163.124,-84.087 171.958,-78.2383 161.405,-77.3013 163.124,-84.087"/>
</g>
<!-- Node8 -->
<g id="node16" class="node"><title>Node8</title>
<a xlink:href="../../d3/d22/address__range_8hh.html" target="_top" xlink:title="harpoon/memory/address\l_range.hh">
<polygon fill="white" stroke="black" points="88.5,-233 88.5,-267 215.5,-267 215.5,-233 88.5,-233"/>
<text text-anchor="start" x="96.5" y="-254" font-family="Helvetica,sans-Serif" font-size="10.00">harpoon/memory/address</text>
<text text-anchor="middle" x="152" y="-241" font-family="Helvetica,sans-Serif" font-size="10.00">_range.hh</text>
</a>
</g>
<!-- Node7&#45;&gt;Node8 -->
<g id="edge16" class="edge"><title>Node7&#45;&gt;Node8</title>
<path fill="none" stroke="midnightblue" d="M113.843,-362.737C121.272,-340.786 134.18,-302.649 142.903,-276.877"/>
<polygon fill="midnightblue" stroke="midnightblue" points="146.242,-277.929 146.133,-267.334 139.612,-275.684 146.242,-277.929"/>
</g>
<!-- Node11 -->
<g id="node24" class="node"><title>Node11</title>
<a xlink:href="../../dc/d3f/memory_8hh.html" target="_top" xlink:title="harpoon/memory/memory.hh">
<polygon fill="white" stroke="black" points="201.5,-304.5 201.5,-325.5 342.5,-325.5 342.5,-304.5 201.5,-304.5"/>
<text text-anchor="middle" x="272" y="-312.5" font-family="Helvetica,sans-Serif" font-size="10.00">harpoon/memory/memory.hh</text>
</a>
</g>
<!-- Node7&#45;&gt;Node11 -->
<g id="edge26" class="edge"><title>Node7&#45;&gt;Node11</title>
<path fill="none" stroke="midnightblue" d="M151.089,-362.922C177.396,-352.495 210.66,-339.312 235.636,-329.413"/>
<polygon fill="midnightblue" stroke="midnightblue" points="237.101,-332.597 245.108,-325.658 234.522,-326.089 237.101,-332.597"/>
</g>
<!-- Node8&#45;&gt;Node2 -->
<g id="edge18" class="edge"><title>Node8&#45;&gt;Node2</title>
<path fill="none" stroke="midnightblue" d="M134.278,-232.78C109.024,-206.109 68.5176,-153.935 95,-116 103.987,-103.126 138.025,-90.9751 168.742,-82.2541"/>
<polygon fill="midnightblue" stroke="midnightblue" points="169.852,-85.5787 178.562,-79.5466 167.992,-78.8305 169.852,-85.5787"/>
</g>
<!-- Node9 -->
<g id="node19" class="node"><title>Node9</title>
<a xlink:href="../../db/db3/address_8hh.html" target="_top" xlink:title="harpoon/memory/address.hh">
<polygon fill="white" stroke="black" points="104,-116.5 104,-137.5 244,-137.5 244,-116.5 104,-116.5"/>
<text text-anchor="middle" x="174" y="-124.5" font-family="Helvetica,sans-Serif" font-size="10.00">harpoon/memory/address.hh</text>
</a>
</g>
<!-- Node8&#45;&gt;Node9 -->
<g id="edge20" class="edge"><title>Node8&#45;&gt;Node9</title>
<path fill="none" stroke="midnightblue" d="M155.059,-232.897C159.034,-210.673 165.972,-171.886 170.257,-147.929"/>
<polygon fill="midnightblue" stroke="midnightblue" points="173.755,-148.248 172.071,-137.787 166.864,-147.015 173.755,-148.248"/>
</g>
<!-- Node10 -->
<g id="node22" class="node"><title>Node10</title>
<polygon fill="white" stroke="#bfbfbf" points="180,-174.5 180,-195.5 220,-195.5 220,-174.5 180,-174.5"/>
<text text-anchor="middle" x="200" y="-182.5" font-family="Helvetica,sans-Serif" font-size="10.00">limits</text>
</g>
<!-- Node8&#45;&gt;Node10 -->
<g id="edge24" class="edge"><title>Node8&#45;&gt;Node10</title>
<path fill="none" stroke="midnightblue" d="M164.611,-232.922C171.179,-224.029 179.227,-213.13 185.989,-203.974"/>
<polygon fill="midnightblue" stroke="midnightblue" points="188.861,-205.976 191.986,-195.852 183.23,-201.817 188.861,-205.976"/>
</g>
<!-- Node9&#45;&gt;Node2 -->
<g id="edge22" class="edge"><title>Node9&#45;&gt;Node2</title>
<path fill="none" stroke="midnightblue" d="M182.987,-116.362C189.825,-108.268 199.402,-96.9318 207.472,-87.3796"/>
<polygon fill="midnightblue" stroke="midnightblue" points="210.29,-89.4683 214.07,-79.5707 204.942,-84.9508 210.29,-89.4683"/>
</g>
<!-- Node11&#45;&gt;Node2 -->
<g id="edge28" class="edge"><title>Node11&#45;&gt;Node2</title>
<path fill="none" stroke="midnightblue" d="M272.702,-304.275C274.336,-273.82 276.617,-184.582 253,-116 249.574,-106.052 243.65,-96.0793 237.966,-87.8959"/>
<polygon fill="midnightblue" stroke="midnightblue" points="240.763,-85.7917 232.022,-79.8043 235.121,-89.9357 240.763,-85.7917"/>
</g>
<!-- Node11&#45;&gt;Node8 -->
<g id="edge50" class="edge"><title>Node11&#45;&gt;Node8</title>
<path fill="none" stroke="midnightblue" d="M252.453,-304.412C236.327,-295.677 212.904,-282.99 192.731,-272.063"/>
<polygon fill="midnightblue" stroke="midnightblue" points="194.19,-268.872 183.73,-267.187 190.856,-275.027 194.19,-268.872"/>
</g>
<!-- Node12 -->
<g id="node27" class="node"><title>Node12</title>
<a xlink:href="../../d5/d09/hardware__component_8hh.html" target="_top" xlink:title="Hardware component. ">
<polygon fill="white" stroke="black" points="329.5,-239.5 329.5,-260.5 490.5,-260.5 490.5,-239.5 329.5,-239.5"/>
<text text-anchor="middle" x="410" y="-247.5" font-family="Helvetica,sans-Serif" font-size="10.00">harpoon/hardware_component.hh</text>
</a>
</g>
<!-- Node11&#45;&gt;Node12 -->
<g id="edge30" class="edge"><title>Node11&#45;&gt;Node12</title>
<path fill="none" stroke="midnightblue" d="M294.479,-304.412C317.234,-293.694 352.624,-277.025 378.239,-264.96"/>
<polygon fill="midnightblue" stroke="midnightblue" points="379.975,-268.011 387.53,-260.584 376.992,-261.678 379.975,-268.011"/>
</g>
<!-- Node16 -->
<g id="node38" class="node"><title>Node16</title>
<polygon fill="white" stroke="#bfbfbf" points="577.5,-174.5 577.5,-195.5 606.5,-195.5 606.5,-174.5 577.5,-174.5"/>
<text text-anchor="middle" x="592" y="-182.5" font-family="Helvetica,sans-Serif" font-size="10.00">list</text>
</g>
<!-- Node11&#45;&gt;Node16 -->
<g id="edge52" class="edge"><title>Node11&#45;&gt;Node16</title>
<path fill="none" stroke="midnightblue" d="M342.647,-309.924C389.102,-304.339 450.112,-292.613 499,-268 530.655,-252.063 559.868,-222.55 576.81,-203.353"/>
<polygon fill="midnightblue" stroke="midnightblue" points="579.624,-205.448 583.493,-195.585 574.317,-200.883 579.624,-205.448"/>
</g>
<!-- Node12&#45;&gt;Node2 -->
<g id="edge32" class="edge"><title>Node12&#45;&gt;Node2</title>
<path fill="none" stroke="midnightblue" d="M388.257,-239.349C370.603,-229.867 345.943,-214.631 329,-196 301.841,-166.136 312.358,-146.572 286,-116 275.675,-104.024 261.789,-93.2605 249.682,-85.0651"/>
<polygon fill="midnightblue" stroke="midnightblue" points="251.545,-82.1015 241.257,-79.5709 247.721,-87.965 251.545,-82.1015"/>
</g>
<!-- Node13 -->
<g id="node30" class="node"><title>Node13</title>
<a xlink:href="../../d3/de3/log_8hh.html" target="_top" xlink:title="harpoon/log/log.hh">
<polygon fill="white" stroke="black" points="338,-174.5 338,-195.5 434,-195.5 434,-174.5 338,-174.5"/>
<text text-anchor="middle" x="386" y="-182.5" font-family="Helvetica,sans-Serif" font-size="10.00">harpoon/log/log.hh</text>
</a>
</g>
<!-- Node12&#45;&gt;Node13 -->
<g id="edge34" class="edge"><title>Node12&#45;&gt;Node13</title>
<path fill="none" stroke="midnightblue" d="M406.037,-239.267C402.612,-229.991 397.57,-216.336 393.401,-205.045"/>
<polygon fill="midnightblue" stroke="midnightblue" points="396.637,-203.702 389.889,-195.534 390.07,-206.127 396.637,-203.702"/>
</g>
<!-- Node12&#45;&gt;Node16 -->
<g id="edge44" class="edge"><title>Node12&#45;&gt;Node16</title>
<path fill="none" stroke="midnightblue" d="M444.863,-239.473C475.339,-229.982 520.877,-215.106 567.653,-196.293"/>
<polygon fill="midnightblue" stroke="midnightblue" points="569.08,-199.491 577.021,-192.478 566.439,-193.008 569.08,-199.491"/>
</g>
<!-- Node17 -->
<g id="node40" class="node"><title>Node17</title>
<polygon fill="white" stroke="#bfbfbf" points="452,-174.5 452,-195.5 498,-195.5 498,-174.5 452,-174.5"/>
<text text-anchor="middle" x="475" y="-182.5" font-family="Helvetica,sans-Serif" font-size="10.00">atomic</text>
</g>
<!-- Node12&#45;&gt;Node17 -->
<g id="edge46" class="edge"><title>Node12&#45;&gt;Node17</title>
<path fill="none" stroke="midnightblue" d="M420.733,-239.267C430.672,-229.328 445.637,-214.363 457.336,-202.664"/>
<polygon fill="midnightblue" stroke="midnightblue" points="459.87,-205.08 464.466,-195.534 454.92,-200.13 459.87,-205.08"/>
</g>
<!-- Node18 -->
<g id="node42" class="node"><title>Node18</title>
<polygon fill="white" stroke="#bfbfbf" points="516,-174.5 516,-195.5 560,-195.5 560,-174.5 516,-174.5"/>
<text text-anchor="middle" x="538" y="-182.5" font-family="Helvetica,sans-Serif" font-size="10.00">mutex</text>
</g>
<!-- Node12&#45;&gt;Node18 -->
<g id="edge48" class="edge"><title>Node12&#45;&gt;Node18</title>
<path fill="none" stroke="midnightblue" d="M430.85,-239.412C451.863,-228.741 484.493,-212.172 508.226,-200.12"/>
<polygon fill="midnightblue" stroke="midnightblue" points="509.827,-203.232 517.159,-195.584 506.658,-196.991 509.827,-203.232"/>
</g>
<!-- Node13&#45;&gt;Node2 -->
<g id="edge36" class="edge"><title>Node13&#45;&gt;Node2</title>
<path fill="none" stroke="midnightblue" d="M378.657,-174.436C368.016,-159.751 347.042,-133.054 324,-116 305.648,-102.417 282.743,-91.3663 263.388,-83.4013"/>
<polygon fill="midnightblue" stroke="midnightblue" points="264.506,-80.0793 253.92,-79.6311 261.916,-86.5826 264.506,-80.0793"/>
</g>
<!-- Node14 -->
<g id="node33" class="node"><title>Node14</title>
<a xlink:href="../../d9/d74/message_8hh.html" target="_top" xlink:title="harpoon/log/message.hh">
<polygon fill="white" stroke="black" points="375.5,-116.5 375.5,-137.5 498.5,-137.5 498.5,-116.5 375.5,-116.5"/>
<text text-anchor="middle" x="437" y="-124.5" font-family="Helvetica,sans-Serif" font-size="10.00">harpoon/log/message.hh</text>
</a>
</g>
<!-- Node13&#45;&gt;Node14 -->
<g id="edge38" class="edge"><title>Node13&#45;&gt;Node14</title>
<path fill="none" stroke="midnightblue" d="M395.354,-174.362C402.543,-166.186 412.641,-154.702 421.093,-145.091"/>
<polygon fill="midnightblue" stroke="midnightblue" points="423.73,-147.392 427.705,-137.571 418.473,-142.769 423.73,-147.392"/>
</g>
<!-- Node14&#45;&gt;Node2 -->
<g id="edge40" class="edge"><title>Node14&#45;&gt;Node2</title>
<path fill="none" stroke="midnightblue" d="M398.246,-116.497C362.754,-106.877 310.069,-92.5981 271.736,-82.209"/>
<polygon fill="midnightblue" stroke="midnightblue" points="272.394,-78.7609 261.826,-79.5231 270.563,-85.5172 272.394,-78.7609"/>
</g>
<!-- Node15 -->
<g id="node36" class="node"><title>Node15</title>
<polygon fill="white" stroke="#bfbfbf" points="411,-58.5 411,-79.5 463,-79.5 463,-58.5 411,-58.5"/>
<text text-anchor="middle" x="437" y="-66.5" font-family="Helvetica,sans-Serif" font-size="10.00">sstream</text>
</g>
<!-- Node14&#45;&gt;Node15 -->
<g id="edge42" class="edge"><title>Node14&#45;&gt;Node15</title>
<path fill="none" stroke="midnightblue" d="M437,-116.362C437,-108.922 437,-98.7427 437,-89.7276"/>
<polygon fill="midnightblue" stroke="midnightblue" points="440.5,-89.5706 437,-79.5707 433.5,-89.5707 440.5,-89.5706"/>
</g>
</g>
</svg>
