<?xml version="1.0" encoding="UTF-8" standalone="no"?>
<!DOCTYPE svg PUBLIC "-//W3C//DTD SVG 1.1//EN"
 "http://www.w3.org/Graphics/SVG/1.1/DTD/svg11.dtd">
<!-- Generated by graphviz version 2.26.3 (20100126.1600)
 -->
<!-- Title: harpoon/harpoon.hh Pages: 1 -->
<svg width="176pt" height="88pt"
 viewBox="0.00 0.00 176.00 88.00" xmlns="http://www.w3.org/2000/svg" xmlns:xlink="http://www.w3.org/1999/xlink">
<g id="graph1" class="graph" transform="scale(1 1) rotate(0) translate(4 84)">
<title>harpoon/harpoon.hh</title>
<polygon fill="white" stroke="white" points="-4,5 -4,-84 173,-84 173,5 -4,5"/>
<!-- Node1 -->
<g id="node1" class="node"><title>Node1</title>
<polygon fill="#bfbfbf" stroke="black" points="33,-58.5 33,-79.5 135,-79.5 135,-58.5 33,-58.5"/>
<text text-anchor="middle" x="84" y="-66.5" font-family="Helvetica,sans-Serif" font-size="10.00">harpoon/harpoon.hh</text>
</g>
<!-- Node2 -->
<g id="node3" class="node"><title>Node2</title>
<polygon fill="white" stroke="#bfbfbf" points="-0.5,-0.5 -0.5,-21.5 40.5,-21.5 40.5,-0.5 -0.5,-0.5"/>
<text text-anchor="middle" x="20" y="-8.5" font-family="Helvetica,sans-Serif" font-size="10.00">string</text>
</g>
<!-- Node1&#45;&gt;Node2 -->
<g id="edge2" class="edge"><title>Node1&#45;&gt;Node2</title>
<path fill="none" stroke="midnightblue" d="M72.2614,-58.3619C63.0594,-50.0226 50.0599,-38.2418 39.3283,-28.5162"/>
<polygon fill="midnightblue" stroke="midnightblue" points="41.4244,-25.6924 31.6642,-21.5707 36.7237,-30.8793 41.4244,-25.6924"/>
</g>
<!-- Node3 -->
<g id="node5" class="node"><title>Node3</title>
<polygon fill="white" stroke="#bfbfbf" points="58,-0.5 58,-21.5 110,-21.5 110,-0.5 58,-0.5"/>
<text text-anchor="middle" x="84" y="-8.5" font-family="Helvetica,sans-Serif" font-size="10.00">memory</text>
</g>
<!-- Node1&#45;&gt;Node3 -->
<g id="edge4" class="edge"><title>Node1&#45;&gt;Node3</title>
<path fill="none" stroke="midnightblue" d="M84,-58.3619C84,-50.9219 84,-40.7427 84,-31.7276"/>
<polygon fill="midnightblue" stroke="midnightblue" points="87.5001,-31.5706 84,-21.5707 80.5001,-31.5707 87.5001,-31.5706"/>
</g>
<!-- Node4 -->
<g id="node7" class="node"><title>Node4</title>
<polygon fill="white" stroke="#bfbfbf" points="128,-0.5 128,-21.5 168,-21.5 168,-0.5 128,-0.5"/>
<text text-anchor="middle" x="148" y="-8.5" font-family="Helvetica,sans-Serif" font-size="10.00">utility</text>
</g>
<!-- Node1&#45;&gt;Node4 -->
<g id="edge6" class="edge"><title>Node1&#45;&gt;Node4</title>
<path fill="none" stroke="midnightblue" d="M95.7386,-58.3619C104.941,-50.0226 117.94,-38.2418 128.672,-28.5162"/>
<polygon fill="midnightblue" stroke="midnightblue" points="131.276,-30.8793 136.336,-21.5707 126.576,-25.6924 131.276,-30.8793"/>
</g>
</g>
</svg>
