<?xml version="1.0" encoding="UTF-8" standalone="no"?>
<!DOCTYPE svg PUBLIC "-//W3C//DTD SVG 1.1//EN"
 "http://www.w3.org/Graphics/SVG/1.1/DTD/svg11.dtd">
<!-- Generated by graphviz version 2.26.3 (20100126.1600)
 -->
<!-- Title: harpoon/clock/clock.hh Pages: 1 -->
<svg width="572pt" height="334pt"
 viewBox="0.00 0.00 572.37 334.00" xmlns="http://www.w3.org/2000/svg" xmlns:xlink="http://www.w3.org/1999/xlink">
<g id="graph1" class="graph" transform="scale(1 1) rotate(0) translate(4 330)">
<title>harpoon/clock/clock.hh</title>
<polygon fill="white" stroke="white" points="-4,5 -4,-330 569.365,-330 569.365,5 -4,5"/>
<!-- Node1 -->
<g id="node1" class="node"><title>Node1</title>
<polygon fill="#bfbfbf" stroke="black" points="390.5,-304.5 390.5,-325.5 507.5,-325.5 507.5,-304.5 390.5,-304.5"/>
<text text-anchor="middle" x="449" y="-312.5" font-family="Helvetica,sans-Serif" font-size="10.00">harpoon/clock/clock.hh</text>
</g>
<!-- Node2 -->
<g id="node3" class="node"><title>Node2</title>
<a xlink:href="../../d5/d08/harpoon_8hh.html" target="_top" xlink:title="Harpoon library common header file. ">
<polygon fill="white" stroke="black" points="248,-58.5 248,-79.5 350,-79.5 350,-58.5 248,-58.5"/>
<text text-anchor="middle" x="299" y="-66.5" font-family="Helvetica,sans-Serif" font-size="10.00">harpoon/harpoon.hh</text>
</a>
</g>
<!-- Node1&#45;&gt;Node2 -->
<g id="edge2" class="edge"><title>Node1&#45;&gt;Node2</title>
<path fill="none" stroke="midnightblue" d="M468.206,-304.483C506.911,-281.864 588.052,-226.387 557,-174 535.114,-137.076 419.521,-100.871 350.704,-82.1432"/>
<polygon fill="midnightblue" stroke="midnightblue" points="351.473,-78.7257 340.907,-79.5089 349.655,-85.4856 351.473,-78.7257"/>
</g>
<!-- Node6 -->
<g id="node11" class="node"><title>Node6</title>
<a xlink:href="../../d5/d09/hardware__component_8hh.html" target="_top" xlink:title="Hardware component. ">
<polygon fill="white" stroke="black" points="149.5,-239.5 149.5,-260.5 310.5,-260.5 310.5,-239.5 149.5,-239.5"/>
<text text-anchor="middle" x="230" y="-247.5" font-family="Helvetica,sans-Serif" font-size="10.00">harpoon/hardware_component.hh</text>
</a>
</g>
<!-- Node1&#45;&gt;Node6 -->
<g id="edge10" class="edge"><title>Node1&#45;&gt;Node6</title>
<path fill="none" stroke="midnightblue" d="M413.326,-304.412C375.704,-293.246 316.317,-275.619 275.384,-263.47"/>
<polygon fill="midnightblue" stroke="midnightblue" points="276.241,-260.074 265.658,-260.584 274.249,-266.784 276.241,-260.074"/>
</g>
<!-- Node12 -->
<g id="node26" class="node"><title>Node12</title>
<a xlink:href="../../d3/dce/tick_8hh.html" target="_top" xlink:title="harpoon/clock/tick.hh">
<polygon fill="white" stroke="black" points="438,-174.5 438,-195.5 548,-195.5 548,-174.5 438,-174.5"/>
<text text-anchor="middle" x="493" y="-182.5" font-family="Helvetica,sans-Serif" font-size="10.00">harpoon/clock/tick.hh</text>
</a>
</g>
<!-- Node1&#45;&gt;Node12 -->
<g id="edge28" class="edge"><title>Node1&#45;&gt;Node12</title>
<path fill="none" stroke="midnightblue" d="M455.818,-304.18C461.405,-294.893 469.156,-280.99 474,-268 481.669,-247.435 486.834,-222.805 489.819,-205.743"/>
<polygon fill="midnightblue" stroke="midnightblue" points="493.294,-206.179 491.47,-195.742 486.388,-205.038 493.294,-206.179"/>
</g>
<!-- Node13 -->
<g id="node30" class="node"><title>Node13</title>
<a xlink:href="../../d8/d45/generator_8hh.html" target="_top" xlink:title="harpoon/clock/generator\l/generator.hh">
<polygon fill="white" stroke="black" points="344.5,-233 344.5,-267 465.5,-267 465.5,-233 344.5,-233"/>
<text text-anchor="start" x="352.5" y="-254" font-family="Helvetica,sans-Serif" font-size="10.00">harpoon/clock/generator</text>
<text text-anchor="middle" x="405" y="-241" font-family="Helvetica,sans-Serif" font-size="10.00">/generator.hh</text>
</a>
</g>
<!-- Node1&#45;&gt;Node13 -->
<g id="edge34" class="edge"><title>Node1&#45;&gt;Node13</title>
<path fill="none" stroke="midnightblue" d="M441.734,-304.267C436.448,-296.458 429.062,-285.546 422.298,-275.554"/>
<polygon fill="midnightblue" stroke="midnightblue" points="425.086,-273.429 416.582,-267.11 419.289,-277.353 425.086,-273.429"/>
</g>
<!-- Node3 -->
<g id="node5" class="node"><title>Node3</title>
<polygon fill="white" stroke="#bfbfbf" points="214.5,-0.5 214.5,-21.5 255.5,-21.5 255.5,-0.5 214.5,-0.5"/>
<text text-anchor="middle" x="235" y="-8.5" font-family="Helvetica,sans-Serif" font-size="10.00">string</text>
</g>
<!-- Node2&#45;&gt;Node3 -->
<g id="edge4" class="edge"><title>Node2&#45;&gt;Node3</title>
<path fill="none" stroke="midnightblue" d="M287.261,-58.3619C278.059,-50.0226 265.06,-38.2418 254.328,-28.5162"/>
<polygon fill="midnightblue" stroke="midnightblue" points="256.424,-25.6924 246.664,-21.5707 251.724,-30.8793 256.424,-25.6924"/>
</g>
<!-- Node4 -->
<g id="node7" class="node"><title>Node4</title>
<polygon fill="white" stroke="#bfbfbf" points="273,-0.5 273,-21.5 325,-21.5 325,-0.5 273,-0.5"/>
<text text-anchor="middle" x="299" y="-8.5" font-family="Helvetica,sans-Serif" font-size="10.00">memory</text>
</g>
<!-- Node2&#45;&gt;Node4 -->
<g id="edge6" class="edge"><title>Node2&#45;&gt;Node4</title>
<path fill="none" stroke="midnightblue" d="M299,-58.3619C299,-50.9219 299,-40.7427 299,-31.7276"/>
<polygon fill="midnightblue" stroke="midnightblue" points="302.5,-31.5706 299,-21.5707 295.5,-31.5707 302.5,-31.5706"/>
</g>
<!-- Node5 -->
<g id="node9" class="node"><title>Node5</title>
<polygon fill="white" stroke="#bfbfbf" points="343,-0.5 343,-21.5 383,-21.5 383,-0.5 343,-0.5"/>
<text text-anchor="middle" x="363" y="-8.5" font-family="Helvetica,sans-Serif" font-size="10.00">utility</text>
</g>
<!-- Node2&#45;&gt;Node5 -->
<g id="edge8" class="edge"><title>Node2&#45;&gt;Node5</title>
<path fill="none" stroke="midnightblue" d="M310.739,-58.3619C319.941,-50.0226 332.94,-38.2418 343.672,-28.5162"/>
<polygon fill="midnightblue" stroke="midnightblue" points="346.276,-30.8793 351.336,-21.5707 341.576,-25.6924 346.276,-30.8793"/>
</g>
<!-- Node6&#45;&gt;Node2 -->
<g id="edge12" class="edge"><title>Node6&#45;&gt;Node2</title>
<path fill="none" stroke="midnightblue" d="M222.163,-239.026C212.533,-224.115 198.459,-196.709 207,-174 220.845,-137.189 254.103,-104.857 276.6,-86.1159"/>
<polygon fill="midnightblue" stroke="midnightblue" points="279.06,-88.6282 284.633,-79.6177 274.657,-83.1861 279.06,-88.6282"/>
</g>
<!-- Node7 -->
<g id="node14" class="node"><title>Node7</title>
<a xlink:href="../../d3/de3/log_8hh.html" target="_top" xlink:title="harpoon/log/log.hh">
<polygon fill="white" stroke="black" points="64,-174.5 64,-195.5 160,-195.5 160,-174.5 64,-174.5"/>
<text text-anchor="middle" x="112" y="-182.5" font-family="Helvetica,sans-Serif" font-size="10.00">harpoon/log/log.hh</text>
</a>
</g>
<!-- Node6&#45;&gt;Node7 -->
<g id="edge14" class="edge"><title>Node6&#45;&gt;Node7</title>
<path fill="none" stroke="midnightblue" d="M210.779,-239.412C191.579,-228.836 161.859,-212.465 140.031,-200.441"/>
<polygon fill="midnightblue" stroke="midnightblue" points="141.661,-197.343 131.213,-195.584 138.283,-203.474 141.661,-197.343"/>
</g>
<!-- Node10 -->
<g id="node22" class="node"><title>Node10</title>
<polygon fill="white" stroke="#bfbfbf" points="215.5,-174.5 215.5,-195.5 244.5,-195.5 244.5,-174.5 215.5,-174.5"/>
<text text-anchor="middle" x="230" y="-182.5" font-family="Helvetica,sans-Serif" font-size="10.00">list</text>
</g>
<!-- Node6&#45;&gt;Node10 -->
<g id="edge24" class="edge"><title>Node6&#45;&gt;Node10</title>
<path fill="none" stroke="midnightblue" d="M230,-239.267C230,-230.18 230,-216.892 230,-205.74"/>
<polygon fill="midnightblue" stroke="midnightblue" points="233.5,-205.534 230,-195.534 226.5,-205.534 233.5,-205.534"/>
</g>
<!-- Node11 -->
<g id="node24" class="node"><title>Node11</title>
<polygon fill="white" stroke="#bfbfbf" points="287,-116.5 287,-137.5 333,-137.5 333,-116.5 287,-116.5"/>
<text text-anchor="middle" x="310" y="-124.5" font-family="Helvetica,sans-Serif" font-size="10.00">atomic</text>
</g>
<!-- Node6&#45;&gt;Node11 -->
<g id="edge26" class="edge"><title>Node6&#45;&gt;Node11</title>
<path fill="none" stroke="midnightblue" d="M237.099,-239.085C250.654,-218.244 280.383,-172.537 297.393,-146.384"/>
<polygon fill="midnightblue" stroke="midnightblue" points="300.512,-148.007 303.031,-137.715 294.644,-144.19 300.512,-148.007"/>
</g>
<!-- Node7&#45;&gt;Node2 -->
<g id="edge16" class="edge"><title>Node7&#45;&gt;Node2</title>
<path fill="none" stroke="midnightblue" d="M118.992,-174.441C129.368,-159.515 150.195,-132.259 174,-116 195.862,-101.069 223.09,-90.1066 246.549,-82.5434"/>
<polygon fill="midnightblue" stroke="midnightblue" points="247.828,-85.8111 256.345,-79.5085 245.757,-79.1247 247.828,-85.8111"/>
</g>
<!-- Node8 -->
<g id="node17" class="node"><title>Node8</title>
<a xlink:href="../../d9/d74/message_8hh.html" target="_top" xlink:title="harpoon/log/message.hh">
<polygon fill="white" stroke="black" points="-0.5,-116.5 -0.5,-137.5 122.5,-137.5 122.5,-116.5 -0.5,-116.5"/>
<text text-anchor="middle" x="61" y="-124.5" font-family="Helvetica,sans-Serif" font-size="10.00">harpoon/log/message.hh</text>
</a>
</g>
<!-- Node7&#45;&gt;Node8 -->
<g id="edge18" class="edge"><title>Node7&#45;&gt;Node8</title>
<path fill="none" stroke="midnightblue" d="M102.646,-174.362C95.4567,-166.186 85.3591,-154.702 76.9073,-145.091"/>
<polygon fill="midnightblue" stroke="midnightblue" points="79.5267,-142.769 70.2949,-137.571 74.2699,-147.392 79.5267,-142.769"/>
</g>
<!-- Node8&#45;&gt;Node2 -->
<g id="edge20" class="edge"><title>Node8&#45;&gt;Node2</title>
<path fill="none" stroke="midnightblue" d="M104.1,-116.497C143.908,-106.795 203.165,-92.3547 245.883,-81.9445"/>
<polygon fill="midnightblue" stroke="midnightblue" points="246.932,-85.2913 255.819,-79.5231 245.275,-78.4903 246.932,-85.2913"/>
</g>
<!-- Node9 -->
<g id="node20" class="node"><title>Node9</title>
<polygon fill="white" stroke="#bfbfbf" points="35,-58.5 35,-79.5 87,-79.5 87,-58.5 35,-58.5"/>
<text text-anchor="middle" x="61" y="-66.5" font-family="Helvetica,sans-Serif" font-size="10.00">sstream</text>
</g>
<!-- Node8&#45;&gt;Node9 -->
<g id="edge22" class="edge"><title>Node8&#45;&gt;Node9</title>
<path fill="none" stroke="midnightblue" d="M61,-116.362C61,-108.922 61,-98.7427 61,-89.7276"/>
<polygon fill="midnightblue" stroke="midnightblue" points="64.5001,-89.5706 61,-79.5707 57.5001,-89.5707 64.5001,-89.5706"/>
</g>
<!-- Node12&#45;&gt;Node2 -->
<g id="edge30" class="edge"><title>Node12&#45;&gt;Node2</title>
<path fill="none" stroke="midnightblue" d="M484.746,-174.236C472.804,-159.314 449.347,-132.337 424,-116 401.22,-101.318 373.181,-90.2441 349.435,-82.5451"/>
<polygon fill="midnightblue" stroke="midnightblue" points="350.479,-79.2044 339.89,-79.5544 348.386,-85.8842 350.479,-79.2044"/>
</g>
<!-- Node12&#45;&gt;Node11 -->
<g id="edge32" class="edge"><title>Node12&#45;&gt;Node11</title>
<path fill="none" stroke="midnightblue" d="M459.86,-174.497C426.63,-163.965 375.775,-147.847 342.701,-137.364"/>
<polygon fill="midnightblue" stroke="midnightblue" points="343.637,-133.989 333.047,-134.304 341.522,-140.662 343.637,-133.989"/>
</g>
<!-- Node13&#45;&gt;Node2 -->
<g id="edge36" class="edge"><title>Node13&#45;&gt;Node2</title>
<path fill="none" stroke="midnightblue" d="M404.357,-232.931C403.19,-217.003 399.949,-192.92 391,-174 374.092,-138.254 341.366,-105.422 319.853,-86.3094"/>
<polygon fill="midnightblue" stroke="midnightblue" points="322.06,-83.5901 312.213,-79.6786 317.471,-88.8767 322.06,-83.5901"/>
</g>
<!-- Node13&#45;&gt;Node11 -->
<g id="edge40" class="edge"><title>Node13&#45;&gt;Node11</title>
<path fill="none" stroke="midnightblue" d="M370.947,-232.777C356.097,-223.693 339.677,-211.247 329,-196 319.005,-181.725 314.259,-162.382 312.01,-147.808"/>
<polygon fill="midnightblue" stroke="midnightblue" points="315.465,-147.234 310.732,-137.755 308.521,-148.117 315.465,-147.234"/>
</g>
<!-- Node13&#45;&gt;Node12 -->
<g id="edge38" class="edge"><title>Node13&#45;&gt;Node12</title>
<path fill="none" stroke="midnightblue" d="M428.121,-232.922C441.113,-223.326 457.266,-211.394 470.205,-201.837"/>
<polygon fill="midnightblue" stroke="midnightblue" points="472.606,-204.415 478.57,-195.658 468.447,-198.784 472.606,-204.415"/>
</g>
<!-- Node14 -->
<g id="node35" class="node"><title>Node14</title>
<polygon fill="white" stroke="#bfbfbf" points="338,-174.5 338,-195.5 382,-195.5 382,-174.5 338,-174.5"/>
<text text-anchor="middle" x="360" y="-182.5" font-family="Helvetica,sans-Serif" font-size="10.00">thread</text>
</g>
<!-- Node13&#45;&gt;Node14 -->
<g id="edge42" class="edge"><title>Node13&#45;&gt;Node14</title>
<path fill="none" stroke="midnightblue" d="M393.177,-232.922C387.083,-224.12 379.63,-213.354 373.332,-204.258"/>
<polygon fill="midnightblue" stroke="midnightblue" points="376.083,-202.082 367.513,-195.852 370.327,-206.066 376.083,-202.082"/>
</g>
</g>
</svg>
