<?xml version="1.0" encoding="UTF-8" standalone="no"?>
<!DOCTYPE svg PUBLIC "-//W3C//DTD SVG 1.1//EN"
 "http://www.w3.org/Graphics/SVG/1.1/DTD/svg11.dtd">
<!-- Generated by graphviz version 2.26.3 (20100126.1600)
 -->
<!-- Title: harpoon/execution/up_execution_unit.hh Pages: 1 -->
<svg width="785pt" height="550pt"
 viewBox="0.00 0.00 784.83 550.00" xmlns="http://www.w3.org/2000/svg" xmlns:xlink="http://www.w3.org/1999/xlink">
<g id="graph1" class="graph" transform="scale(1 1) rotate(0) translate(4 546)">
<title>harpoon/execution/up_execution_unit.hh</title>
<polygon fill="white" stroke="white" points="-4,5 -4,-546 781.826,-546 781.826,5 -4,5"/>
<!-- Node1 -->
<g id="node1" class="node"><title>Node1</title>
<polygon fill="#bfbfbf" stroke="black" points="325.826,-507 325.826,-541 435.826,-541 435.826,-507 325.826,-507"/>
<text text-anchor="start" x="333.826" y="-528" font-family="Helvetica,sans-Serif" font-size="10.00">harpoon/execution/up</text>
<text text-anchor="middle" x="380.826" y="-515" font-family="Helvetica,sans-Serif" font-size="10.00">_execution_unit.hh</text>
</g>
<!-- Node2 -->
<g id="node3" class="node"><title>Node2</title>
<a xlink:href="../../d5/d08/harpoon_8hh.html" target="_top" xlink:title="Harpoon library common header file. ">
<polygon fill="white" stroke="black" points="384.826,-58.5 384.826,-79.5 486.826,-79.5 486.826,-58.5 384.826,-58.5"/>
<text text-anchor="middle" x="435.826" y="-66.5" font-family="Helvetica,sans-Serif" font-size="10.00">harpoon/harpoon.hh</text>
</a>
</g>
<!-- Node1&#45;&gt;Node2 -->
<g id="edge2" class="edge"><title>Node1&#45;&gt;Node2</title>
<path fill="none" stroke="midnightblue" d="M435.888,-515.792C544.698,-498.015 776.826,-451.691 776.826,-380 776.826,-380 776.826,-380 776.826,-185 776.826,-148.388 762.547,-135.917 731.826,-116 694.088,-91.5346 572.344,-78.6792 497.255,-72.91"/>
<polygon fill="midnightblue" stroke="midnightblue" points="497.216,-69.3974 486.983,-72.1425 496.694,-76.3779 497.216,-69.3974"/>
</g>
<!-- Node6 -->
<g id="node11" class="node"><title>Node6</title>
<a xlink:href="../../d9/d3e/execution__unit_8hh.html" target="_top" xlink:title="harpoon/execution/execution\l_unit.hh">
<polygon fill="white" stroke="black" points="71.3258,-363 71.3258,-397 212.326,-397 212.326,-363 71.3258,-363"/>
<text text-anchor="start" x="79.3258" y="-384" font-family="Helvetica,sans-Serif" font-size="10.00">harpoon/execution/execution</text>
<text text-anchor="middle" x="141.826" y="-371" font-family="Helvetica,sans-Serif" font-size="10.00">_unit.hh</text>
</a>
</g>
<!-- Node1&#45;&gt;Node6 -->
<g id="edge10" class="edge"><title>Node1&#45;&gt;Node6</title>
<path fill="none" stroke="midnightblue" d="M352.471,-506.916C309.258,-480.88 226.897,-431.256 178.963,-402.376"/>
<polygon fill="midnightblue" stroke="midnightblue" points="180.516,-399.225 170.144,-397.062 176.903,-405.221 180.516,-399.225"/>
</g>
<!-- Node17 -->
<g id="node44" class="node"><title>Node17</title>
<a xlink:href="../../dd/dba/processing__unit_8hh.html" target="_top" xlink:title="harpoon/execution/processing\l_unit.hh">
<polygon fill="white" stroke="black" points="307.826,-435 307.826,-469 453.826,-469 453.826,-435 307.826,-435"/>
<text text-anchor="start" x="315.826" y="-456" font-family="Helvetica,sans-Serif" font-size="10.00">harpoon/execution/processing</text>
<text text-anchor="middle" x="380.826" y="-443" font-family="Helvetica,sans-Serif" font-size="10.00">_unit.hh</text>
</a>
</g>
<!-- Node1&#45;&gt;Node17 -->
<g id="edge54" class="edge"><title>Node1&#45;&gt;Node17</title>
<path fill="none" stroke="midnightblue" d="M380.826,-506.937C380.826,-498.807 380.826,-488.876 380.826,-479.705"/>
<polygon fill="midnightblue" stroke="midnightblue" points="384.326,-479.441 380.826,-469.441 377.326,-479.441 384.326,-479.441"/>
</g>
<!-- Node3 -->
<g id="node5" class="node"><title>Node3</title>
<polygon fill="white" stroke="#bfbfbf" points="351.326,-0.5 351.326,-21.5 392.326,-21.5 392.326,-0.5 351.326,-0.5"/>
<text text-anchor="middle" x="371.826" y="-8.5" font-family="Helvetica,sans-Serif" font-size="10.00">string</text>
</g>
<!-- Node2&#45;&gt;Node3 -->
<g id="edge4" class="edge"><title>Node2&#45;&gt;Node3</title>
<path fill="none" stroke="midnightblue" d="M424.087,-58.3619C414.885,-50.0226 401.886,-38.2418 391.154,-28.5162"/>
<polygon fill="midnightblue" stroke="midnightblue" points="393.25,-25.6924 383.49,-21.5707 388.55,-30.8793 393.25,-25.6924"/>
</g>
<!-- Node4 -->
<g id="node7" class="node"><title>Node4</title>
<polygon fill="white" stroke="#bfbfbf" points="409.826,-0.5 409.826,-21.5 461.826,-21.5 461.826,-0.5 409.826,-0.5"/>
<text text-anchor="middle" x="435.826" y="-8.5" font-family="Helvetica,sans-Serif" font-size="10.00">memory</text>
</g>
<!-- Node2&#45;&gt;Node4 -->
<g id="edge6" class="edge"><title>Node2&#45;&gt;Node4</title>
<path fill="none" stroke="midnightblue" d="M435.826,-58.3619C435.826,-50.9219 435.826,-40.7427 435.826,-31.7276"/>
<polygon fill="midnightblue" stroke="midnightblue" points="439.326,-31.5706 435.826,-21.5707 432.326,-31.5707 439.326,-31.5706"/>
</g>
<!-- Node5 -->
<g id="node9" class="node"><title>Node5</title>
<polygon fill="white" stroke="#bfbfbf" points="479.826,-0.5 479.826,-21.5 519.826,-21.5 519.826,-0.5 479.826,-0.5"/>
<text text-anchor="middle" x="499.826" y="-8.5" font-family="Helvetica,sans-Serif" font-size="10.00">utility</text>
</g>
<!-- Node2&#45;&gt;Node5 -->
<g id="edge8" class="edge"><title>Node2&#45;&gt;Node5</title>
<path fill="none" stroke="midnightblue" d="M447.564,-58.3619C456.766,-50.0226 469.766,-38.2418 480.498,-28.5162"/>
<polygon fill="midnightblue" stroke="midnightblue" points="483.102,-30.8793 488.162,-21.5707 478.401,-25.6924 483.102,-30.8793"/>
</g>
<!-- Node6&#45;&gt;Node2 -->
<g id="edge12" class="edge"><title>Node6&#45;&gt;Node2</title>
<path fill="none" stroke="midnightblue" d="M212.403,-363.323C265.13,-347.34 335.178,-318.056 377.826,-268 422.741,-215.282 432.903,-129.36 435.181,-89.9522"/>
<polygon fill="midnightblue" stroke="midnightblue" points="438.679,-90.0781 435.644,-79.9273 431.687,-89.7552 438.679,-90.0781"/>
</g>
<!-- Node7 -->
<g id="node14" class="node"><title>Node7</title>
<a xlink:href="../../d5/d09/hardware__component_8hh.html" target="_top" xlink:title="Hardware component. ">
<polygon fill="white" stroke="black" points="208.326,-239.5 208.326,-260.5 369.326,-260.5 369.326,-239.5 208.326,-239.5"/>
<text text-anchor="middle" x="288.826" y="-247.5" font-family="Helvetica,sans-Serif" font-size="10.00">harpoon/hardware_component.hh</text>
</a>
</g>
<!-- Node6&#45;&gt;Node7 -->
<g id="edge14" class="edge"><title>Node6&#45;&gt;Node7</title>
<path fill="none" stroke="midnightblue" d="M161.346,-362.737C189.495,-337.844 241.185,-292.131 269.323,-267.247"/>
<polygon fill="midnightblue" stroke="midnightblue" points="271.75,-269.773 276.923,-260.527 267.113,-264.529 271.75,-269.773"/>
</g>
<!-- Node13 -->
<g id="node29" class="node"><title>Node13</title>
<a xlink:href="../../d7/d55/clock_8hh.html" target="_top" xlink:title="harpoon/clock/clock.hh">
<polygon fill="white" stroke="black" points="34.3258,-304.5 34.3258,-325.5 151.326,-325.5 151.326,-304.5 34.3258,-304.5"/>
<text text-anchor="middle" x="92.8258" y="-312.5" font-family="Helvetica,sans-Serif" font-size="10.00">harpoon/clock/clock.hh</text>
</a>
</g>
<!-- Node6&#45;&gt;Node13 -->
<g id="edge32" class="edge"><title>Node6&#45;&gt;Node13</title>
<path fill="none" stroke="midnightblue" d="M128.952,-362.922C122.247,-354.029 114.031,-343.13 107.129,-333.974"/>
<polygon fill="midnightblue" stroke="midnightblue" points="109.821,-331.73 101.007,-325.852 104.231,-335.944 109.821,-331.73"/>
</g>
<!-- Node7&#45;&gt;Node2 -->
<g id="edge16" class="edge"><title>Node7&#45;&gt;Node2</title>
<path fill="none" stroke="midnightblue" d="M285.32,-239.302C277.993,-214.741 263.937,-153.548 291.826,-116 302.173,-102.069 340.121,-90.0109 374.463,-81.5967"/>
<polygon fill="midnightblue" stroke="midnightblue" points="375.577,-84.9296 384.497,-79.2132 373.959,-78.1191 375.577,-84.9296"/>
</g>
<!-- Node8 -->
<g id="node17" class="node"><title>Node8</title>
<a xlink:href="../../d3/de3/log_8hh.html" target="_top" xlink:title="harpoon/log/log.hh">
<polygon fill="white" stroke="black" points="614.826,-174.5 614.826,-195.5 710.826,-195.5 710.826,-174.5 614.826,-174.5"/>
<text text-anchor="middle" x="662.826" y="-182.5" font-family="Helvetica,sans-Serif" font-size="10.00">harpoon/log/log.hh</text>
</a>
</g>
<!-- Node7&#45;&gt;Node8 -->
<g id="edge18" class="edge"><title>Node7&#45;&gt;Node8</title>
<path fill="none" stroke="midnightblue" d="M352.953,-239.5C414.847,-229.268 511.47,-213.045 604.749,-196.17"/>
<polygon fill="midnightblue" stroke="midnightblue" points="605.423,-199.605 614.638,-194.376 604.174,-192.717 605.423,-199.605"/>
</g>
<!-- Node11 -->
<g id="node25" class="node"><title>Node11</title>
<polygon fill="white" stroke="#bfbfbf" points="338.326,-174.5 338.326,-195.5 367.326,-195.5 367.326,-174.5 338.326,-174.5"/>
<text text-anchor="middle" x="352.826" y="-182.5" font-family="Helvetica,sans-Serif" font-size="10.00">list</text>
</g>
<!-- Node7&#45;&gt;Node11 -->
<g id="edge28" class="edge"><title>Node7&#45;&gt;Node11</title>
<path fill="none" stroke="midnightblue" d="M299.394,-239.267C309.18,-229.328 323.914,-214.363 335.433,-202.664"/>
<polygon fill="midnightblue" stroke="midnightblue" points="337.932,-205.115 342.454,-195.534 332.944,-200.204 337.932,-205.115"/>
</g>
<!-- Node12 -->
<g id="node27" class="node"><title>Node12</title>
<polygon fill="white" stroke="#bfbfbf" points="300.826,-116.5 300.826,-137.5 346.826,-137.5 346.826,-116.5 300.826,-116.5"/>
<text text-anchor="middle" x="323.826" y="-124.5" font-family="Helvetica,sans-Serif" font-size="10.00">atomic</text>
</g>
<!-- Node7&#45;&gt;Node12 -->
<g id="edge30" class="edge"><title>Node7&#45;&gt;Node12</title>
<path fill="none" stroke="midnightblue" d="M291.932,-239.085C297.784,-218.518 310.527,-173.735 318.013,-147.426"/>
<polygon fill="midnightblue" stroke="midnightblue" points="321.406,-148.291 320.777,-137.715 314.673,-146.376 321.406,-148.291"/>
</g>
<!-- Node8&#45;&gt;Node2 -->
<g id="edge20" class="edge"><title>Node8&#45;&gt;Node2</title>
<path fill="none" stroke="midnightblue" d="M641.252,-174.496C621.952,-165.059 592.92,-150.764 567.826,-138 532.313,-119.936 491.732,-98.6217 465.048,-84.5128"/>
<polygon fill="midnightblue" stroke="midnightblue" points="466.356,-81.2454 455.881,-79.6602 463.081,-87.432 466.356,-81.2454"/>
</g>
<!-- Node9 -->
<g id="node20" class="node"><title>Node9</title>
<a xlink:href="../../d9/d74/message_8hh.html" target="_top" xlink:title="harpoon/log/message.hh">
<polygon fill="white" stroke="black" points="576.326,-116.5 576.326,-137.5 699.326,-137.5 699.326,-116.5 576.326,-116.5"/>
<text text-anchor="middle" x="637.826" y="-124.5" font-family="Helvetica,sans-Serif" font-size="10.00">harpoon/log/message.hh</text>
</a>
</g>
<!-- Node8&#45;&gt;Node9 -->
<g id="edge22" class="edge"><title>Node8&#45;&gt;Node9</title>
<path fill="none" stroke="midnightblue" d="M658.24,-174.362C654.928,-166.677 650.355,-156.069 646.377,-146.84"/>
<polygon fill="midnightblue" stroke="midnightblue" points="649.555,-145.368 642.382,-137.571 643.126,-148.139 649.555,-145.368"/>
</g>
<!-- Node9&#45;&gt;Node2 -->
<g id="edge24" class="edge"><title>Node9&#45;&gt;Node2</title>
<path fill="none" stroke="midnightblue" d="M601.245,-116.497C567.886,-106.918 518.435,-92.7196 482.292,-82.3418"/>
<polygon fill="midnightblue" stroke="midnightblue" points="483.053,-78.9188 472.475,-79.5231 481.121,-85.647 483.053,-78.9188"/>
</g>
<!-- Node10 -->
<g id="node23" class="node"><title>Node10</title>
<polygon fill="white" stroke="#bfbfbf" points="611.826,-58.5 611.826,-79.5 663.826,-79.5 663.826,-58.5 611.826,-58.5"/>
<text text-anchor="middle" x="637.826" y="-66.5" font-family="Helvetica,sans-Serif" font-size="10.00">sstream</text>
</g>
<!-- Node9&#45;&gt;Node10 -->
<g id="edge26" class="edge"><title>Node9&#45;&gt;Node10</title>
<path fill="none" stroke="midnightblue" d="M637.826,-116.362C637.826,-108.922 637.826,-98.7427 637.826,-89.7276"/>
<polygon fill="midnightblue" stroke="midnightblue" points="641.326,-89.5706 637.826,-79.5707 634.326,-89.5707 641.326,-89.5706"/>
</g>
<!-- Node13&#45;&gt;Node2 -->
<g id="edge34" class="edge"><title>Node13&#45;&gt;Node2</title>
<path fill="none" stroke="midnightblue" d="M60.4922,-304.367C43.6728,-297.001 24.6243,-285.344 14.8258,-268 -21.3142,-204.03 13.4031,-147.406 79.8258,-116 130.718,-91.9369 286.98,-78.4341 374.614,-72.5676"/>
<polygon fill="midnightblue" stroke="midnightblue" points="374.94,-76.0538 384.689,-71.9065 374.482,-69.0688 374.94,-76.0538"/>
</g>
<!-- Node13&#45;&gt;Node7 -->
<g id="edge36" class="edge"><title>Node13&#45;&gt;Node7</title>
<path fill="none" stroke="midnightblue" d="M124.753,-304.412C158.068,-293.364 210.452,-275.991 247.04,-263.857"/>
<polygon fill="midnightblue" stroke="midnightblue" points="248.523,-267.053 256.912,-260.584 246.319,-260.409 248.523,-267.053"/>
</g>
<!-- Node14 -->
<g id="node33" class="node"><title>Node14</title>
<a xlink:href="../../d3/dce/tick_8hh.html" target="_top" xlink:title="harpoon/clock/tick.hh">
<polygon fill="white" stroke="black" points="34.8258,-174.5 34.8258,-195.5 144.826,-195.5 144.826,-174.5 34.8258,-174.5"/>
<text text-anchor="middle" x="89.8258" y="-182.5" font-family="Helvetica,sans-Serif" font-size="10.00">harpoon/clock/tick.hh</text>
</a>
</g>
<!-- Node13&#45;&gt;Node14 -->
<g id="edge38" class="edge"><title>Node13&#45;&gt;Node14</title>
<path fill="none" stroke="midnightblue" d="M65.8869,-304.332C50.5616,-296.699 32.7016,-284.785 23.8258,-268 16.3464,-253.856 16.4943,-246.221 23.8258,-232 30.7242,-218.619 43.3898,-208.211 55.7949,-200.63"/>
<polygon fill="midnightblue" stroke="midnightblue" points="57.7067,-203.57 64.6955,-195.607 54.2664,-197.474 57.7067,-203.57"/>
</g>
<!-- Node15 -->
<g id="node37" class="node"><title>Node15</title>
<a xlink:href="../../d8/d45/generator_8hh.html" target="_top" xlink:title="harpoon/clock/generator\l/generator.hh">
<polygon fill="white" stroke="black" points="32.3258,-233 32.3258,-267 153.326,-267 153.326,-233 32.3258,-233"/>
<text text-anchor="start" x="40.3258" y="-254" font-family="Helvetica,sans-Serif" font-size="10.00">harpoon/clock/generator</text>
<text text-anchor="middle" x="92.8258" y="-241" font-family="Helvetica,sans-Serif" font-size="10.00">/generator.hh</text>
</a>
</g>
<!-- Node13&#45;&gt;Node15 -->
<g id="edge44" class="edge"><title>Node13&#45;&gt;Node15</title>
<path fill="none" stroke="midnightblue" d="M92.8258,-304.267C92.8258,-296.931 92.8258,-286.857 92.8258,-277.38"/>
<polygon fill="midnightblue" stroke="midnightblue" points="96.3259,-277.11 92.8258,-267.11 89.3259,-277.11 96.3259,-277.11"/>
</g>
<!-- Node14&#45;&gt;Node2 -->
<g id="edge40" class="edge"><title>Node14&#45;&gt;Node2</title>
<path fill="none" stroke="midnightblue" d="M112.981,-174.438C145.213,-159.993 205.643,-133.836 258.826,-116 298.608,-102.658 344.412,-90.5816 379.458,-82.0114"/>
<polygon fill="midnightblue" stroke="midnightblue" points="380.61,-85.3336 389.505,-79.5781 378.962,-78.5303 380.61,-85.3336"/>
</g>
<!-- Node14&#45;&gt;Node12 -->
<g id="edge42" class="edge"><title>Node14&#45;&gt;Node12</title>
<path fill="none" stroke="midnightblue" d="M132.201,-174.497C177.732,-163.211 249.139,-145.512 290.721,-135.205"/>
<polygon fill="midnightblue" stroke="midnightblue" points="291.753,-138.556 300.617,-132.753 290.068,-131.761 291.753,-138.556"/>
</g>
<!-- Node15&#45;&gt;Node2 -->
<g id="edge46" class="edge"><title>Node15&#45;&gt;Node2</title>
<path fill="none" stroke="midnightblue" d="M59.9617,-232.723C36.0836,-217.84 10.4358,-195.431 25.8258,-174 66.3187,-117.612 270.409,-87.2603 374.528,-75.2302"/>
<polygon fill="midnightblue" stroke="midnightblue" points="375.045,-78.694 384.587,-74.089 374.256,-71.7386 375.045,-78.694"/>
</g>
<!-- Node15&#45;&gt;Node12 -->
<g id="edge50" class="edge"><title>Node15&#45;&gt;Node12</title>
<path fill="none" stroke="midnightblue" d="M111.303,-232.945C130.315,-216.117 161.374,-190.572 191.826,-174 223.656,-156.678 263.139,-143.6 290.59,-135.693"/>
<polygon fill="midnightblue" stroke="midnightblue" points="291.799,-138.989 300.481,-132.918 289.907,-132.25 291.799,-138.989"/>
</g>
<!-- Node15&#45;&gt;Node14 -->
<g id="edge48" class="edge"><title>Node15&#45;&gt;Node14</title>
<path fill="none" stroke="midnightblue" d="M92.0376,-232.922C91.6567,-224.67 91.1962,-214.692 90.7942,-205.982"/>
<polygon fill="midnightblue" stroke="midnightblue" points="94.2841,-205.68 90.3267,-195.852 87.2915,-206.003 94.2841,-205.68"/>
</g>
<!-- Node16 -->
<g id="node42" class="node"><title>Node16</title>
<polygon fill="white" stroke="#bfbfbf" points="200.826,-174.5 200.826,-195.5 244.826,-195.5 244.826,-174.5 200.826,-174.5"/>
<text text-anchor="middle" x="222.826" y="-182.5" font-family="Helvetica,sans-Serif" font-size="10.00">thread</text>
</g>
<!-- Node15&#45;&gt;Node16 -->
<g id="edge52" class="edge"><title>Node15&#45;&gt;Node16</title>
<path fill="none" stroke="midnightblue" d="M126.982,-232.922C147.282,-222.772 172.806,-210.01 192.41,-200.208"/>
<polygon fill="midnightblue" stroke="midnightblue" points="194.13,-203.261 201.509,-195.658 190.999,-197 194.13,-203.261"/>
</g>
<!-- Node17&#45;&gt;Node2 -->
<g id="edge56" class="edge"><title>Node17&#45;&gt;Node2</title>
<path fill="none" stroke="midnightblue" d="M454.136,-439.289C558.874,-419.015 738.826,-375.393 738.826,-315 738.826,-315 738.826,-315 738.826,-185 738.826,-151.38 734.389,-136.608 707.826,-116 675.752,-91.1166 567.004,-78.584 497.113,-72.953"/>
<polygon fill="midnightblue" stroke="midnightblue" points="497.339,-69.46 487.097,-72.1716 496.795,-76.4388 497.339,-69.46"/>
</g>
<!-- Node17&#45;&gt;Node6 -->
<g id="edge60" class="edge"><title>Node17&#45;&gt;Node6</title>
<path fill="none" stroke="midnightblue" d="M324.186,-434.937C289.488,-424.484 244.905,-411.053 208.507,-400.088"/>
<polygon fill="midnightblue" stroke="midnightblue" points="209.057,-396.598 198.473,-397.065 207.038,-403.301 209.057,-396.598"/>
</g>
<!-- Node17&#45;&gt;Node7 -->
<g id="edge58" class="edge"><title>Node17&#45;&gt;Node7</title>
<path fill="none" stroke="midnightblue" d="M372.982,-434.778C356.033,-397.564 316.067,-309.813 297.99,-270.122"/>
<polygon fill="midnightblue" stroke="midnightblue" points="301.127,-268.564 293.797,-260.914 294.756,-271.465 301.127,-268.564"/>
</g>
<!-- Node17&#45;&gt;Node12 -->
<g id="edge70" class="edge"><title>Node17&#45;&gt;Node12</title>
<path fill="none" stroke="midnightblue" d="M388.111,-434.813C398.886,-407.357 417.151,-351.823 410.826,-304 402.98,-244.681 407.072,-225.029 375.826,-174 368.677,-162.325 357.769,-151.834 347.787,-143.742"/>
<polygon fill="midnightblue" stroke="midnightblue" points="349.781,-140.861 339.722,-137.535 345.512,-146.408 349.781,-140.861"/>
</g>
<!-- Node17&#45;&gt;Node16 -->
<g id="edge68" class="edge"><title>Node17&#45;&gt;Node16</title>
<path fill="none" stroke="midnightblue" d="M353.685,-434.863C311.337,-406.31 231.149,-344.51 199.826,-268 191.254,-247.063 200.849,-221.881 210.131,-204.786"/>
<polygon fill="midnightblue" stroke="midnightblue" points="213.39,-206.147 215.42,-195.748 207.348,-202.611 213.39,-206.147"/>
</g>
<!-- Node18 -->
<g id="node49" class="node"><title>Node18</title>
<a xlink:href="../../d0/df4/cycle_8hh.html" target="_top" xlink:title="harpoon/execution/cycle.hh">
<polygon fill="white" stroke="black" points="460.826,-174.5 460.826,-195.5 596.826,-195.5 596.826,-174.5 460.826,-174.5"/>
<text text-anchor="middle" x="528.826" y="-182.5" font-family="Helvetica,sans-Serif" font-size="10.00">harpoon/execution/cycle.hh</text>
</a>
</g>
<!-- Node17&#45;&gt;Node18 -->
<g id="edge62" class="edge"><title>Node17&#45;&gt;Node18</title>
<path fill="none" stroke="midnightblue" d="M408.992,-434.853C422.569,-425.402 438.176,-412.623 448.826,-398 493.89,-336.125 516.569,-245.877 524.932,-205.665"/>
<polygon fill="midnightblue" stroke="midnightblue" points="528.393,-206.206 526.918,-195.715 521.528,-204.836 528.393,-206.206"/>
</g>
<!-- Node18&#45;&gt;Node2 -->
<g id="edge64" class="edge"><title>Node18&#45;&gt;Node2</title>
<path fill="none" stroke="midnightblue" d="M520.243,-174.295C504.395,-154.527 470.364,-112.08 450.693,-87.5443"/>
<polygon fill="midnightblue" stroke="midnightblue" points="453.373,-85.292 444.388,-79.6792 447.912,-89.6707 453.373,-85.292"/>
</g>
<!-- Node18&#45;&gt;Node12 -->
<g id="edge66" class="edge"><title>Node18&#45;&gt;Node12</title>
<path fill="none" stroke="midnightblue" d="M491.702,-174.497C453.207,-163.605 393.597,-146.74 356.737,-136.311"/>
<polygon fill="midnightblue" stroke="midnightblue" points="357.555,-132.906 346.98,-133.551 355.649,-139.641 357.555,-132.906"/>
</g>
</g>
</svg>
