<?xml version="1.0" encoding="UTF-8" standalone="no"?>
<!DOCTYPE svg PUBLIC "-//W3C//DTD SVG 1.1//EN"
 "http://www.w3.org/Graphics/SVG/1.1/DTD/svg11.dtd">
<!-- Generated by graphviz version 2.26.3 (20100126.1600)
 -->
<!-- Title: harpoon/execution/up_execution_unit.hh Pages: 1 -->
<!--zoomable 550 -->
<svg id="main" version="1.1" xmlns="http://www.w3.org/2000/svg" xmlns:xlink="http://www.w3.org/1999/xlink" xml:space="preserve" onload="init(evt)">
<style type="text/css"><![CDATA[
.edge:hover path { stroke: red; }
.edge:hover polygon { stroke: red; fill: red; }
]]></style>
<script type="text/javascript"><![CDATA[
var edges = document.getElementsByTagName('g');
if (edges && edges.length) {
  for (var i=0;i<edges.length;i++) {
    if (edges[i].id.substr(0,4)=='edge') {
      edges[i].setAttribute('class','edge');
    }
  }
}
]]></script>
        <defs>
                <circle id="rim" cx="0" cy="0" r="7"/>
                <circle id="rim2" cx="0" cy="0" r="3.5"/>
                <g id="zoomPlus">
                        <use xlink:href="#rim" fill="#404040">
                                <set attributeName="fill" to="#808080" begin="zoomplus.mouseover" end="zoomplus.mouseout"/>
                        </use>
                        <path d="M-4,0h8M0,-4v8" fill="none" stroke="white" stroke-width="1.5" pointer-events="none"/>
                </g>
                <g id="zoomMin">
                        <use xlink:href="#rim" fill="#404040">
                                <set attributeName="fill" to="#808080" begin="zoomminus.mouseover" end="zoomminus.mouseout"/>
                        </use>
                        <path d="M-4,0h8" fill="none" stroke="white" stroke-width="1.5" pointer-events="none"/>
                </g>
                <g id="dirArrow">
                        <path fill="none" stroke="white" stroke-width="1.5" d="M0,-3.0v7 M-2.5,-0.5L0,-3.0L2.5,-0.5"/>
                </g>
               <g id="resetDef">
                       <use xlink:href="#rim2" fill="#404040">
                               <set attributeName="fill" to="#808080" begin="reset.mouseover" end="reset.mouseout"/>
                       </use>
               </g>
        </defs>

<script type="text/javascript">
var viewWidth = 1264;
var viewHeight = 550;
var sectionId = 'dynsection-0';
</script>
<script xlink:href="../../svgpan.js"/>
<svg id="graph" class="graph">
<g id="viewport">
<title>harpoon/execution/up_execution_unit.hh</title>
<polygon fill="white" stroke="white" points="-4,5 -4,-546 1261,-546 1261,5 -4,5"/>
<!-- Node1 -->
<g id="node1" class="node"><title>Node1</title>
<polygon fill="#bfbfbf" stroke="black" points="735,-507 735,-541 845,-541 845,-507 735,-507"/>
<text text-anchor="start" x="743" y="-528" font-family="Helvetica,sans-Serif" font-size="10.00">harpoon/execution/up</text>
<text text-anchor="middle" x="790" y="-515" font-family="Helvetica,sans-Serif" font-size="10.00">_execution_unit.hh</text>
</g>
<!-- Node2 -->
<g id="node3" class="node"><title>Node2</title>
<a xlink:href="../../d5/d08/harpoon_8hh.html" target="_top" xlink:title="Harpoon library common header file. ">
<polygon fill="white" stroke="black" points="617,-58.5 617,-79.5 719,-79.5 719,-58.5 617,-58.5"/>
<text text-anchor="middle" x="668" y="-66.5" font-family="Helvetica,sans-Serif" font-size="10.00">harpoon/harpoon.hh</text>
</a>
</g>
<!-- Node1&#45;&gt;Node2 -->
<g id="edge2" class="edge"><title>Node1&#45;&gt;Node2</title>
<path fill="none" stroke="midnightblue" d="M845.286,-518.7C968.725,-505.338 1256,-465.101 1256,-380 1256,-380 1256,-380 1256,-185 1256,-124.631 1196.38,-134.769 1139,-116 1064.47,-91.62 839.306,-77.4697 729.518,-71.8461"/>
<polygon fill="midnightblue" stroke="midnightblue" points="729.426,-68.3371 719.262,-71.3284 729.073,-75.3282 729.426,-68.3371"/>
</g>
<!-- Node7 -->
<g id="node13" class="node"><title>Node7</title>
<a xlink:href="../../d9/d3e/execution__unit_8hh.html" target="_top" xlink:title="harpoon/execution/execution\l_unit.hh">
<polygon fill="white" stroke="black" points="293.5,-363 293.5,-397 434.5,-397 434.5,-363 293.5,-363"/>
<text text-anchor="start" x="301.5" y="-384" font-family="Helvetica,sans-Serif" font-size="10.00">harpoon/execution/execution</text>
<text text-anchor="middle" x="364" y="-371" font-family="Helvetica,sans-Serif" font-size="10.00">_unit.hh</text>
</a>
</g>
<!-- Node1&#45;&gt;Node7 -->
<g id="edge12" class="edge"><title>Node1&#45;&gt;Node7</title>
<path fill="none" stroke="midnightblue" d="M739.459,-506.916C660.594,-480.257 508.573,-428.87 424.173,-400.34"/>
<polygon fill="midnightblue" stroke="midnightblue" points="425.069,-396.949 414.475,-397.062 422.827,-403.58 425.069,-396.949"/>
</g>
<!-- Node19 -->
<g id="node48" class="node"><title>Node19</title>
<a xlink:href="../../dd/dba/processing__unit_8hh.html" target="_top" xlink:title="harpoon/execution/processing\l_unit.hh">
<polygon fill="white" stroke="black" points="717,-435 717,-469 863,-469 863,-435 717,-435"/>
<text text-anchor="start" x="725" y="-456" font-family="Helvetica,sans-Serif" font-size="10.00">harpoon/execution/processing</text>
<text text-anchor="middle" x="790" y="-443" font-family="Helvetica,sans-Serif" font-size="10.00">_unit.hh</text>
</a>
</g>
<!-- Node1&#45;&gt;Node19 -->
<g id="edge58" class="edge"><title>Node1&#45;&gt;Node19</title>
<path fill="none" stroke="midnightblue" d="M790,-506.937C790,-498.807 790,-488.876 790,-479.705"/>
<polygon fill="midnightblue" stroke="midnightblue" points="793.5,-479.441 790,-469.441 786.5,-479.441 793.5,-479.441"/>
</g>
<!-- Node3 -->
<g id="node5" class="node"><title>Node3</title>
<polygon fill="white" stroke="#bfbfbf" points="551.5,-0.5 551.5,-21.5 592.5,-21.5 592.5,-0.5 551.5,-0.5"/>
<text text-anchor="middle" x="572" y="-8.5" font-family="Helvetica,sans-Serif" font-size="10.00">string</text>
</g>
<!-- Node2&#45;&gt;Node3 -->
<g id="edge4" class="edge"><title>Node2&#45;&gt;Node3</title>
<path fill="none" stroke="midnightblue" d="M650.392,-58.3619C635.777,-49.532 614.776,-36.844 598.189,-26.8224"/>
<polygon fill="midnightblue" stroke="midnightblue" points="599.865,-23.7461 589.496,-21.5707 596.246,-29.7376 599.865,-23.7461"/>
</g>
<!-- Node4 -->
<g id="node7" class="node"><title>Node4</title>
<polygon fill="white" stroke="#bfbfbf" points="610,-0.5 610,-21.5 662,-21.5 662,-0.5 610,-0.5"/>
<text text-anchor="middle" x="636" y="-8.5" font-family="Helvetica,sans-Serif" font-size="10.00">memory</text>
</g>
<!-- Node2&#45;&gt;Node4 -->
<g id="edge6" class="edge"><title>Node2&#45;&gt;Node4</title>
<path fill="none" stroke="midnightblue" d="M662.131,-58.3619C657.845,-50.5949 651.913,-39.8426 646.784,-30.5458"/>
<polygon fill="midnightblue" stroke="midnightblue" points="649.727,-28.6357 641.832,-21.5707 643.598,-32.0172 649.727,-28.6357"/>
</g>
<!-- Node5 -->
<g id="node9" class="node"><title>Node5</title>
<polygon fill="white" stroke="#bfbfbf" points="680,-0.5 680,-21.5 720,-21.5 720,-0.5 680,-0.5"/>
<text text-anchor="middle" x="700" y="-8.5" font-family="Helvetica,sans-Serif" font-size="10.00">utility</text>
</g>
<!-- Node2&#45;&gt;Node5 -->
<g id="edge8" class="edge"><title>Node2&#45;&gt;Node5</title>
<path fill="none" stroke="midnightblue" d="M673.869,-58.3619C678.155,-50.5949 684.087,-39.8426 689.216,-30.5458"/>
<polygon fill="midnightblue" stroke="midnightblue" points="692.402,-32.0172 694.168,-21.5707 686.273,-28.6357 692.402,-32.0172"/>
</g>
<!-- Node6 -->
<g id="node11" class="node"><title>Node6</title>
<polygon fill="white" stroke="#bfbfbf" points="738,-0.5 738,-21.5 784,-21.5 784,-0.5 738,-0.5"/>
<text text-anchor="middle" x="761" y="-8.5" font-family="Helvetica,sans-Serif" font-size="10.00">cstdint</text>
</g>
<!-- Node2&#45;&gt;Node6 -->
<g id="edge10" class="edge"><title>Node2&#45;&gt;Node6</title>
<path fill="none" stroke="midnightblue" d="M685.058,-58.3619C699.085,-49.6138 719.184,-37.0786 735.182,-27.1015"/>
<polygon fill="midnightblue" stroke="midnightblue" points="737.418,-29.8323 744.051,-21.5707 733.713,-23.8927 737.418,-29.8323"/>
</g>
<!-- Node7&#45;&gt;Node2 -->
<g id="edge14" class="edge"><title>Node7&#45;&gt;Node2</title>
<path fill="none" stroke="midnightblue" d="M293.335,-367.481C231.002,-351.894 150,-318.466 150,-250 150,-250 150,-250 150,-185 150,-128.414 203.716,-135.047 257,-116 319.867,-93.5273 508.198,-78.9065 606.597,-72.5858"/>
<polygon fill="midnightblue" stroke="midnightblue" points="606.938,-76.0713 616.697,-71.9459 606.495,-69.0853 606.938,-76.0713"/>
</g>
<!-- Node8 -->
<g id="node16" class="node"><title>Node8</title>
<a xlink:href="../../d5/d09/hardware__component_8hh.html" target="_top" xlink:title="Hardware component. ">
<polygon fill="white" stroke="black" points="297.5,-239.5 297.5,-260.5 458.5,-260.5 458.5,-239.5 297.5,-239.5"/>
<text text-anchor="middle" x="378" y="-247.5" font-family="Helvetica,sans-Serif" font-size="10.00">harpoon/hardware_component.hh</text>
</a>
</g>
<!-- Node7&#45;&gt;Node8 -->
<g id="edge16" class="edge"><title>Node7&#45;&gt;Node8</title>
<path fill="none" stroke="midnightblue" d="M365.859,-362.737C368.425,-338.912 373.044,-296.017 375.786,-270.563"/>
<polygon fill="midnightblue" stroke="midnightblue" points="379.275,-270.844 376.866,-260.527 372.316,-270.094 379.275,-270.844"/>
</g>
<!-- Node15 -->
<g id="node33" class="node"><title>Node15</title>
<a xlink:href="../../d7/d55/clock_8hh.html" target="_top" xlink:title="harpoon/clock/clock.hh">
<polygon fill="white" stroke="black" points="527.5,-304.5 527.5,-325.5 644.5,-325.5 644.5,-304.5 527.5,-304.5"/>
<text text-anchor="middle" x="586" y="-312.5" font-family="Helvetica,sans-Serif" font-size="10.00">harpoon/clock/clock.hh</text>
</a>
</g>
<!-- Node7&#45;&gt;Node15 -->
<g id="edge36" class="edge"><title>Node7&#45;&gt;Node15</title>
<path fill="none" stroke="midnightblue" d="M422.328,-362.922C459.159,-352.138 506.062,-338.405 540.209,-328.407"/>
<polygon fill="midnightblue" stroke="midnightblue" points="541.313,-331.731 549.927,-325.562 539.346,-325.013 541.313,-331.731"/>
</g>
<!-- Node8&#45;&gt;Node2 -->
<g id="edge18" class="edge"><title>Node8&#45;&gt;Node2</title>
<path fill="none" stroke="midnightblue" d="M360.095,-239.452C337.511,-224.799 303.602,-197.442 321,-174 355.178,-127.95 516.521,-94.2561 606.673,-78.6609"/>
<polygon fill="midnightblue" stroke="midnightblue" points="607.499,-82.0707 616.768,-76.9387 606.322,-75.1703 607.499,-82.0707"/>
</g>
<!-- Node9 -->
<g id="node19" class="node"><title>Node9</title>
<a xlink:href="../../d3/de3/log_8hh.html" target="_top" xlink:title="harpoon/log/log.hh">
<polygon fill="white" stroke="black" points="178,-174.5 178,-195.5 274,-195.5 274,-174.5 178,-174.5"/>
<text text-anchor="middle" x="226" y="-182.5" font-family="Helvetica,sans-Serif" font-size="10.00">harpoon/log/log.hh</text>
</a>
</g>
<!-- Node8&#45;&gt;Node9 -->
<g id="edge20" class="edge"><title>Node8&#45;&gt;Node9</title>
<path fill="none" stroke="midnightblue" d="M353.24,-239.412C327.956,-228.6 288.509,-211.731 260.24,-199.642"/>
<polygon fill="midnightblue" stroke="midnightblue" points="261.32,-196.297 250.749,-195.584 258.568,-202.734 261.32,-196.297"/>
</g>
<!-- Node12 -->
<g id="node27" class="node"><title>Node12</title>
<polygon fill="white" stroke="#bfbfbf" points="429.5,-174.5 429.5,-195.5 458.5,-195.5 458.5,-174.5 429.5,-174.5"/>
<text text-anchor="middle" x="444" y="-182.5" font-family="Helvetica,sans-Serif" font-size="10.00">list</text>
</g>
<!-- Node8&#45;&gt;Node12 -->
<g id="edge30" class="edge"><title>Node8&#45;&gt;Node12</title>
<path fill="none" stroke="midnightblue" d="M388.899,-239.267C398.99,-229.328 414.185,-214.363 426.064,-202.664"/>
<polygon fill="midnightblue" stroke="midnightblue" points="428.635,-205.044 433.304,-195.534 423.723,-200.057 428.635,-205.044"/>
</g>
<!-- Node13 -->
<g id="node29" class="node"><title>Node13</title>
<polygon fill="white" stroke="#bfbfbf" points="629,-116.5 629,-137.5 675,-137.5 675,-116.5 629,-116.5"/>
<text text-anchor="middle" x="652" y="-124.5" font-family="Helvetica,sans-Serif" font-size="10.00">atomic</text>
</g>
<!-- Node8&#45;&gt;Node13 -->
<g id="edge32" class="edge"><title>Node8&#45;&gt;Node13</title>
<path fill="none" stroke="midnightblue" d="M380.936,-239.237C386.092,-222.484 398.433,-190.396 421,-174 452.183,-151.344 562.536,-136.583 618.673,-130.365"/>
<polygon fill="midnightblue" stroke="midnightblue" points="619.25,-133.823 628.816,-129.269 618.498,-126.863 619.25,-133.823"/>
</g>
<!-- Node14 -->
<g id="node31" class="node"><title>Node14</title>
<polygon fill="white" stroke="#bfbfbf" points="330,-174.5 330,-195.5 374,-195.5 374,-174.5 330,-174.5"/>
<text text-anchor="middle" x="352" y="-182.5" font-family="Helvetica,sans-Serif" font-size="10.00">mutex</text>
</g>
<!-- Node8&#45;&gt;Node14 -->
<g id="edge34" class="edge"><title>Node8&#45;&gt;Node14</title>
<path fill="none" stroke="midnightblue" d="M373.707,-239.267C369.996,-229.991 364.535,-216.336 360.018,-205.045"/>
<polygon fill="midnightblue" stroke="midnightblue" points="363.177,-203.519 356.213,-195.534 356.678,-206.118 363.177,-203.519"/>
</g>
<!-- Node9&#45;&gt;Node2 -->
<g id="edge22" class="edge"><title>Node9&#45;&gt;Node2</title>
<path fill="none" stroke="midnightblue" d="M232.033,-174.436C241.64,-158.714 262.014,-129.559 288,-116 342.036,-87.805 513.638,-75.887 606.652,-71.3941"/>
<polygon fill="midnightblue" stroke="midnightblue" points="606.945,-74.8843 616.77,-70.9197 606.618,-67.892 606.945,-74.8843"/>
</g>
<!-- Node10 -->
<g id="node22" class="node"><title>Node10</title>
<a xlink:href="../../d9/d74/message_8hh.html" target="_top" xlink:title="harpoon/log/message.hh">
<polygon fill="white" stroke="black" points="-0.5,-116.5 -0.5,-137.5 122.5,-137.5 122.5,-116.5 -0.5,-116.5"/>
<text text-anchor="middle" x="61" y="-124.5" font-family="Helvetica,sans-Serif" font-size="10.00">harpoon/log/message.hh</text>
</a>
</g>
<!-- Node9&#45;&gt;Node10 -->
<g id="edge24" class="edge"><title>Node9&#45;&gt;Node10</title>
<path fill="none" stroke="midnightblue" d="M196.12,-174.497C169.337,-165.082 129.855,-151.204 100.478,-140.877"/>
<polygon fill="midnightblue" stroke="midnightblue" points="101.531,-137.537 90.9363,-137.523 99.2097,-144.141 101.531,-137.537"/>
</g>
<!-- Node10&#45;&gt;Node2 -->
<g id="edge26" class="edge"><title>Node10&#45;&gt;Node2</title>
<path fill="none" stroke="midnightblue" d="M122.764,-117.654C127.239,-117.065 131.687,-116.506 136,-116 306.099,-96.029 507.7,-80.4087 606.787,-73.258"/>
<polygon fill="midnightblue" stroke="midnightblue" points="607.192,-76.738 616.916,-72.5308 606.691,-69.756 607.192,-76.738"/>
</g>
<!-- Node11 -->
<g id="node25" class="node"><title>Node11</title>
<polygon fill="white" stroke="#bfbfbf" points="35,-58.5 35,-79.5 87,-79.5 87,-58.5 35,-58.5"/>
<text text-anchor="middle" x="61" y="-66.5" font-family="Helvetica,sans-Serif" font-size="10.00">sstream</text>
</g>
<!-- Node10&#45;&gt;Node11 -->
<g id="edge28" class="edge"><title>Node10&#45;&gt;Node11</title>
<path fill="none" stroke="midnightblue" d="M61,-116.362C61,-108.922 61,-98.7427 61,-89.7276"/>
<polygon fill="midnightblue" stroke="midnightblue" points="64.5001,-89.5706 61,-79.5707 57.5001,-89.5707 64.5001,-89.5706"/>
</g>
<!-- Node15&#45;&gt;Node2 -->
<g id="edge38" class="edge"><title>Node15&#45;&gt;Node2</title>
<path fill="none" stroke="midnightblue" d="M627.291,-304.498C649.442,-297.194 676.009,-285.556 695,-268 721.57,-243.438 724.3,-231.122 733,-196 743.38,-154.095 709.494,-110.381 686.808,-86.7459"/>
<polygon fill="midnightblue" stroke="midnightblue" points="689.16,-84.1479 679.624,-79.532 684.2,-89.0875 689.16,-84.1479"/>
</g>
<!-- Node15&#45;&gt;Node8 -->
<g id="edge40" class="edge"><title>Node15&#45;&gt;Node8</title>
<path fill="none" stroke="midnightblue" d="M552.118,-304.412C516.612,-293.316 460.696,-275.843 421.847,-263.702"/>
<polygon fill="midnightblue" stroke="midnightblue" points="422.456,-260.226 411.867,-260.584 420.368,-266.907 422.456,-260.226"/>
</g>
<!-- Node16 -->
<g id="node37" class="node"><title>Node16</title>
<a xlink:href="../../d3/dce/tick_8hh.html" target="_top" xlink:title="harpoon/clock/tick.hh">
<polygon fill="white" stroke="black" points="514,-174.5 514,-195.5 624,-195.5 624,-174.5 514,-174.5"/>
<text text-anchor="middle" x="569" y="-182.5" font-family="Helvetica,sans-Serif" font-size="10.00">harpoon/clock/tick.hh</text>
</a>
</g>
<!-- Node15&#45;&gt;Node16 -->
<g id="edge42" class="edge"><title>Node15&#45;&gt;Node16</title>
<path fill="none" stroke="midnightblue" d="M576.939,-304.252C569.96,-295.227 560.873,-281.652 557,-268 551.1,-247.203 556.081,-222.61 561.305,-205.62"/>
<polygon fill="midnightblue" stroke="midnightblue" points="564.782,-206.264 564.662,-195.67 558.149,-204.026 564.782,-206.264"/>
</g>
<!-- Node17 -->
<g id="node41" class="node"><title>Node17</title>
<a xlink:href="../../d8/d45/generator_8hh.html" target="_top" xlink:title="harpoon/clock/generator\l/generator.hh">
<polygon fill="white" stroke="black" points="565.5,-233 565.5,-267 686.5,-267 686.5,-233 565.5,-233"/>
<text text-anchor="start" x="573.5" y="-254" font-family="Helvetica,sans-Serif" font-size="10.00">harpoon/clock/generator</text>
<text text-anchor="middle" x="626" y="-241" font-family="Helvetica,sans-Serif" font-size="10.00">/generator.hh</text>
</a>
</g>
<!-- Node15&#45;&gt;Node17 -->
<g id="edge48" class="edge"><title>Node15&#45;&gt;Node17</title>
<path fill="none" stroke="midnightblue" d="M592.605,-304.267C597.362,-296.537 603.99,-285.766 610.088,-275.857"/>
<polygon fill="midnightblue" stroke="midnightblue" points="613.211,-277.461 615.471,-267.11 607.249,-273.792 613.211,-277.461"/>
</g>
<!-- Node16&#45;&gt;Node2 -->
<g id="edge44" class="edge"><title>Node16&#45;&gt;Node2</title>
<path fill="none" stroke="midnightblue" d="M576.108,-174.315C585.538,-160.401 602.983,-135.551 620,-116 628.884,-105.794 639.573,-95.1854 648.608,-86.6355"/>
<polygon fill="midnightblue" stroke="midnightblue" points="651.105,-89.0923 656.034,-79.7138 646.333,-83.9717 651.105,-89.0923"/>
</g>
<!-- Node16&#45;&gt;Node13 -->
<g id="edge46" class="edge"><title>Node16&#45;&gt;Node13</title>
<path fill="none" stroke="midnightblue" d="M584.223,-174.362C596.625,-165.696 614.346,-153.313 628.557,-143.382"/>
<polygon fill="midnightblue" stroke="midnightblue" points="630.681,-146.168 636.873,-137.571 626.671,-140.43 630.681,-146.168"/>
</g>
<!-- Node17&#45;&gt;Node2 -->
<g id="edge50" class="edge"><title>Node17&#45;&gt;Node2</title>
<path fill="none" stroke="midnightblue" d="M565.353,-236.608C527.208,-224.927 488.135,-204.926 505,-174 530.258,-127.685 585.678,-98.726 624.865,-83.2301"/>
<polygon fill="midnightblue" stroke="midnightblue" points="626.351,-86.4094 634.45,-79.5782 623.859,-79.8681 626.351,-86.4094"/>
</g>
<!-- Node17&#45;&gt;Node13 -->
<g id="edge54" class="edge"><title>Node17&#45;&gt;Node13</title>
<path fill="none" stroke="midnightblue" d="M629.615,-232.897C634.334,-210.573 642.586,-171.535 647.644,-147.605"/>
<polygon fill="midnightblue" stroke="midnightblue" points="651.076,-148.295 649.72,-137.787 644.227,-146.847 651.076,-148.295"/>
</g>
<!-- Node17&#45;&gt;Node16 -->
<g id="edge52" class="edge"><title>Node17&#45;&gt;Node16</title>
<path fill="none" stroke="midnightblue" d="M611.024,-232.922C603.064,-223.845 593.273,-212.679 585.144,-203.41"/>
<polygon fill="midnightblue" stroke="midnightblue" points="587.741,-201.063 578.516,-195.852 582.478,-205.678 587.741,-201.063"/>
</g>
<!-- Node18 -->
<g id="node46" class="node"><title>Node18</title>
<polygon fill="white" stroke="#bfbfbf" points="680,-174.5 680,-195.5 724,-195.5 724,-174.5 680,-174.5"/>
<text text-anchor="middle" x="702" y="-182.5" font-family="Helvetica,sans-Serif" font-size="10.00">thread</text>
</g>
<!-- Node17&#45;&gt;Node18 -->
<g id="edge56" class="edge"><title>Node17&#45;&gt;Node18</title>
<path fill="none" stroke="midnightblue" d="M645.968,-232.922C656.903,-223.57 670.43,-212.001 681.454,-202.572"/>
<polygon fill="midnightblue" stroke="midnightblue" points="683.987,-205.012 689.311,-195.852 679.437,-199.692 683.987,-205.012"/>
</g>
<!-- Node19&#45;&gt;Node2 -->
<g id="edge60" class="edge"><title>Node19&#45;&gt;Node2</title>
<path fill="none" stroke="midnightblue" d="M863.078,-446.852C974.006,-438.372 1174.64,-420.179 1199,-398 1226.98,-372.524 1218,-352.843 1218,-315 1218,-315 1218,-315 1218,-185 1218,-106.741 1131.6,-136.24 1056,-116 943.089,-85.7695 806.445,-74.9418 729.137,-71.0929"/>
<polygon fill="midnightblue" stroke="midnightblue" points="729.245,-67.5942 719.09,-70.6155 728.913,-74.5863 729.245,-67.5942"/>
</g>
<!-- Node19&#45;&gt;Node7 -->
<g id="edge64" class="edge"><title>Node19&#45;&gt;Node7</title>
<path fill="none" stroke="midnightblue" d="M716.75,-441.614C647.365,-431.497 540.34,-415.17 448,-398 446.9,-397.796 445.793,-397.588 444.679,-397.377"/>
<polygon fill="midnightblue" stroke="midnightblue" points="445.009,-393.875 434.525,-395.404 443.674,-400.747 445.009,-393.875"/>
</g>
<!-- Node19&#45;&gt;Node8 -->
<g id="edge62" class="edge"><title>Node19&#45;&gt;Node8</title>
<path fill="none" stroke="midnightblue" d="M716.993,-445.333C639.658,-437.177 523.627,-421.49 486,-398 435.845,-366.688 401.585,-302.818 386.58,-270.179"/>
<polygon fill="midnightblue" stroke="midnightblue" points="389.652,-268.474 382.389,-260.761 383.257,-271.32 389.652,-268.474"/>
</g>
<!-- Node19&#45;&gt;Node12 -->
<g id="edge88" class="edge"><title>Node19&#45;&gt;Node12</title>
<path fill="none" stroke="midnightblue" d="M725.431,-434.919C665.811,-416.398 577.842,-381.768 519,-326 509.297,-316.804 471.645,-241.434 453.664,-204.818"/>
<polygon fill="midnightblue" stroke="midnightblue" points="456.694,-203.048 449.154,-195.606 450.407,-206.126 456.694,-203.048"/>
</g>
<!-- Node19&#45;&gt;Node13 -->
<g id="edge86" class="edge"><title>Node19&#45;&gt;Node13</title>
<path fill="none" stroke="midnightblue" d="M790,-434.699C790,-408.71 790,-358.05 790,-315 790,-315 790,-315 790,-250 790,-193.696 725.191,-156.798 684.4,-139.149"/>
<polygon fill="midnightblue" stroke="midnightblue" points="685.675,-135.889 675.098,-135.276 682.984,-142.351 685.675,-135.889"/>
</g>
<!-- Node19&#45;&gt;Node18 -->
<g id="edge84" class="edge"><title>Node19&#45;&gt;Node18</title>
<path fill="none" stroke="midnightblue" d="M784.361,-434.892C768.814,-387.72 725.382,-255.944 708.671,-205.239"/>
<polygon fill="midnightblue" stroke="midnightblue" points="711.984,-204.112 705.53,-195.71 705.336,-206.303 711.984,-204.112"/>
</g>
<!-- Node20 -->
<g id="node53" class="node"><title>Node20</title>
<a xlink:href="../../d0/df4/cycle_8hh.html" target="_top" xlink:title="harpoon/execution/cycle.hh">
<polygon fill="white" stroke="black" points="818,-174.5 818,-195.5 954,-195.5 954,-174.5 818,-174.5"/>
<text text-anchor="middle" x="886" y="-182.5" font-family="Helvetica,sans-Serif" font-size="10.00">harpoon/execution/cycle.hh</text>
</a>
</g>
<!-- Node19&#45;&gt;Node20 -->
<g id="edge66" class="edge"><title>Node19&#45;&gt;Node20</title>
<path fill="none" stroke="midnightblue" d="M796.151,-434.892C813.112,-387.72 860.492,-255.944 878.723,-205.239"/>
<polygon fill="midnightblue" stroke="midnightblue" points="882.059,-206.304 882.149,-195.71 875.472,-203.936 882.059,-206.304"/>
</g>
<!-- Node21 -->
<g id="node57" class="node"><title>Node21</title>
<a xlink:href="../../d4/d15/instruction_8hh.html" target="_top" xlink:title="harpoon/execution/instruction.hh">
<polygon fill="white" stroke="black" points="856,-369.5 856,-390.5 1014,-390.5 1014,-369.5 856,-369.5"/>
<text text-anchor="middle" x="935" y="-377.5" font-family="Helvetica,sans-Serif" font-size="10.00">harpoon/execution/instruction.hh</text>
</a>
</g>
<!-- Node19&#45;&gt;Node21 -->
<g id="edge72" class="edge"><title>Node19&#45;&gt;Node21</title>
<path fill="none" stroke="midnightblue" d="M824.363,-434.937C848.653,-422.876 880.927,-406.85 904.345,-395.222"/>
<polygon fill="midnightblue" stroke="midnightblue" points="906.075,-398.27 913.475,-390.688 902.962,-392.001 906.075,-398.27"/>
</g>
<!-- Node23 -->
<g id="node62" class="node"><title>Node23</title>
<a xlink:href="../../d5/d5f/breakpoint_8hh.html" target="_top" xlink:title="harpoon/execution/breakpoint.hh">
<polygon fill="white" stroke="black" points="1032,-369.5 1032,-390.5 1190,-390.5 1190,-369.5 1032,-369.5"/>
<text text-anchor="middle" x="1111" y="-377.5" font-family="Helvetica,sans-Serif" font-size="10.00">harpoon/execution/breakpoint.hh</text>
</a>
</g>
<!-- Node19&#45;&gt;Node23 -->
<g id="edge78" class="edge"><title>Node19&#45;&gt;Node23</title>
<path fill="none" stroke="midnightblue" d="M863.242,-435.572C921.129,-422.588 1000.77,-404.724 1053.98,-392.79"/>
<polygon fill="midnightblue" stroke="midnightblue" points="1054.93,-396.164 1063.92,-390.56 1053.4,-389.333 1054.93,-396.164"/>
</g>
<!-- Node20&#45;&gt;Node2 -->
<g id="edge68" class="edge"><title>Node20&#45;&gt;Node2</title>
<path fill="none" stroke="midnightblue" d="M868.341,-174.292C845.142,-160.353 803.003,-135.477 766,-116 744.431,-104.647 719.677,-92.7843 700.444,-83.8171"/>
<polygon fill="midnightblue" stroke="midnightblue" points="701.755,-80.5671 691.21,-79.5364 698.811,-86.9178 701.755,-80.5671"/>
</g>
<!-- Node20&#45;&gt;Node13 -->
<g id="edge70" class="edge"><title>Node20&#45;&gt;Node13</title>
<path fill="none" stroke="midnightblue" d="M843.624,-174.497C798.094,-163.211 726.687,-145.512 685.104,-135.205"/>
<polygon fill="midnightblue" stroke="midnightblue" points="685.757,-131.761 675.209,-132.753 684.073,-138.556 685.757,-131.761"/>
</g>
<!-- Node21&#45;&gt;Node2 -->
<g id="edge74" class="edge"><title>Node21&#45;&gt;Node2</title>
<path fill="none" stroke="midnightblue" d="M941.734,-369.346C954.73,-347.73 982,-296.798 982,-250 982,-250 982,-250 982,-185 982,-131.646 820.462,-95.1521 729.114,-78.7806"/>
<polygon fill="midnightblue" stroke="midnightblue" points="729.604,-75.3132 719.148,-77.0244 728.389,-82.2069 729.604,-75.3132"/>
</g>
<!-- Node22 -->
<g id="node60" class="node"><title>Node22</title>
<polygon fill="white" stroke="#bfbfbf" points="1016.5,-304.5 1016.5,-325.5 1075.5,-325.5 1075.5,-304.5 1016.5,-304.5"/>
<text text-anchor="middle" x="1046" y="-312.5" font-family="Helvetica,sans-Serif" font-size="10.00">functional</text>
</g>
<!-- Node21&#45;&gt;Node22 -->
<g id="edge76" class="edge"><title>Node21&#45;&gt;Node22</title>
<path fill="none" stroke="midnightblue" d="M953.329,-369.267C971.271,-358.76 998.805,-342.637 1019.2,-330.692"/>
<polygon fill="midnightblue" stroke="midnightblue" points="1021.15,-333.607 1028.01,-325.534 1017.61,-327.567 1021.15,-333.607"/>
</g>
<!-- Node23&#45;&gt;Node2 -->
<g id="edge80" class="edge"><title>Node23&#45;&gt;Node2</title>
<path fill="none" stroke="midnightblue" d="M1110.44,-369.217C1109.34,-346.949 1107,-294.257 1107,-250 1107,-250 1107,-250 1107,-185 1107,-107.827 850.208,-80.8468 729.423,-72.4247"/>
<polygon fill="midnightblue" stroke="midnightblue" points="729.431,-68.9174 719.218,-71.7349 728.959,-75.9015 729.431,-68.9174"/>
</g>
<!-- Node23&#45;&gt;Node22 -->
<g id="edge82" class="edge"><title>Node23&#45;&gt;Node22</title>
<path fill="none" stroke="midnightblue" d="M1100.27,-369.267C1090.33,-359.328 1075.36,-344.363 1063.66,-332.664"/>
<polygon fill="midnightblue" stroke="midnightblue" points="1066.08,-330.13 1056.53,-325.534 1061.13,-335.08 1066.08,-330.13"/>
</g>
</g>
</svg>
        <g id="navigator" transform="translate(0 0)" fill="#404254">
                <rect fill="#f2f5e9" fill-opacity="0.5" stroke="#606060" stroke-width=".5" x="0" y="0" width="60" height="60"/>
                <use id="zoomplus" xlink:href="#zoomPlus" x="17" y="9" onmousedown="handleZoom(evt,'in')"/>
                <use id="zoomminus" xlink:href="#zoomMin" x="42" y="9" onmousedown="handleZoom(evt,'out')"/>
                <use id="reset" xlink:href="#resetDef" x="30" y="36" onmousedown="handleReset()"/>
                <g id="arrowUp" xlink:href="#dirArrow" transform="translate(30 24)" onmousedown="handlePan(0,-1)">
                  <use xlink:href="#rim" fill="#404040">
                        <set attributeName="fill" to="#808080" begin="arrowUp.mouseover" end="arrowUp.mouseout"/>
                  </use>
                  <path fill="none" stroke="white" stroke-width="1.5" d="M0,-3.0v7 M-2.5,-0.5L0,-3.0L2.5,-0.5"/>
                </g>
                <g id="arrowRight" xlink:href="#dirArrow" transform="rotate(90) translate(36 -43)" onmousedown="handlePan(1,0)">
                  <use xlink:href="#rim" fill="#404040">
                        <set attributeName="fill" to="#808080" begin="arrowRight.mouseover" end="arrowRight.mouseout"/>
                  </use>
                  <path fill="none" stroke="white" stroke-width="1.5" d="M0,-3.0v7 M-2.5,-0.5L0,-3.0L2.5,-0.5"/>
                </g>
                <g id="arrowDown" xlink:href="#dirArrow" transform="rotate(180) translate(-30 -48)" onmousedown="handlePan(0,1)">
                  <use xlink:href="#rim" fill="#404040">
                        <set attributeName="fill" to="#808080" begin="arrowDown.mouseover" end="arrowDown.mouseout"/>
                  </use>
                  <path fill="none" stroke="white" stroke-width="1.5" d="M0,-3.0v7 M-2.5,-0.5L0,-3.0L2.5,-0.5"/>
                </g>
                <g id="arrowLeft" xlink:href="#dirArrow" transform="rotate(270) translate(-36 17)" onmousedown="handlePan(-1,0)">
                  <use xlink:href="#rim" fill="#404040">
                        <set attributeName="fill" to="#808080" begin="arrowLeft.mouseover" end="arrowLeft.mouseout"/>
                  </use>
                  <path fill="none" stroke="white" stroke-width="1.5" d="M0,-3.0v7 M-2.5,-0.5L0,-3.0L2.5,-0.5"/>
                </g>
        </g>
        <svg viewBox="0 0 15 15" width="100%" height="30px" preserveAspectRatio="xMaxYMin meet">
         <g id="arrow_out" transform="scale(0.3 0.3)">
          <a xlink:href="up__execution__unit_8hh__incl_org.svg" target="_base">
           <rect id="button" ry="5" rx="5" y="6" x="6" height="38" width="38"
                fill="#f2f5e9" fill-opacity="0.5" stroke="#606060" stroke-width="1.0"/>
           <path id="arrow"
             d="M 11.500037,31.436501 C 11.940474,20.09759 22.043105,11.32322 32.158766,21.979434 L 37.068811,17.246167 C 37.068811,17.246167 37.088388,32 37.088388,32 L 22.160133,31.978069 C 22.160133,31.978069 26.997745,27.140456 26.997745,27.140456 C 18.528582,18.264221 13.291696,25.230495 11.500037,31.436501 z"
             style="fill:#404040;"/>
          </a>
         </g>
        </svg>
</svg>
