<?xml version="1.0" encoding="UTF-8" standalone="no"?>
<!DOCTYPE svg PUBLIC "-//W3C//DTD SVG 1.1//EN"
 "http://www.w3.org/Graphics/SVG/1.1/DTD/svg11.dtd">
<!-- Generated by graphviz version 2.26.3 (20100126.1600)
 -->
<!-- Title: harpoon/execution/up_execution_unit.hh Pages: 1 -->
<svg width="916pt" height="550pt"
 viewBox="0.00 0.00 916.00 550.00" xmlns="http://www.w3.org/2000/svg" xmlns:xlink="http://www.w3.org/1999/xlink">
<g id="graph1" class="graph" transform="scale(1 1) rotate(0) translate(4 546)">
<title>harpoon/execution/up_execution_unit.hh</title>
<polygon fill="white" stroke="white" points="-4,5 -4,-546 913,-546 913,5 -4,5"/>
<!-- Node1 -->
<g id="node1" class="node"><title>Node1</title>
<polygon fill="#bfbfbf" stroke="black" points="170,-507 170,-541 280,-541 280,-507 170,-507"/>
<text text-anchor="start" x="178" y="-528" font-family="Helvetica,sans-Serif" font-size="10.00">harpoon/execution/up</text>
<text text-anchor="middle" x="225" y="-515" font-family="Helvetica,sans-Serif" font-size="10.00">_execution_unit.hh</text>
</g>
<!-- Node2 -->
<g id="node3" class="node"><title>Node2</title>
<a xlink:href="../../d5/d08/harpoon_8hh.html" target="_top" xlink:title="Harpoon library common header file. ">
<polygon fill="white" stroke="black" points="329,-58.5 329,-79.5 431,-79.5 431,-58.5 329,-58.5"/>
<text text-anchor="middle" x="380" y="-66.5" font-family="Helvetica,sans-Serif" font-size="10.00">harpoon/harpoon.hh</text>
</a>
</g>
<!-- Node1&#45;&gt;Node2 -->
<g id="edge2" class="edge"><title>Node1&#45;&gt;Node2</title>
<path fill="none" stroke="midnightblue" d="M169.959,-513.844C103.348,-498.005 0,-460.465 0,-380 0,-380 0,-380 0,-185 0,-136.686 39.936,-135.814 84,-116 124.848,-97.6322 244.615,-82.7138 318.686,-74.9118"/>
<polygon fill="midnightblue" stroke="midnightblue" points="319.237,-78.3735 328.822,-73.8585 318.514,-71.411 319.237,-78.3735"/>
</g>
<!-- Node7 -->
<g id="node13" class="node"><title>Node7</title>
<a xlink:href="../../d9/d3e/execution__unit_8hh.html" target="_top" xlink:title="harpoon/execution/execution\l_unit.hh">
<polygon fill="white" stroke="black" points="154.5,-363 154.5,-397 295.5,-397 295.5,-363 154.5,-363"/>
<text text-anchor="start" x="162.5" y="-384" font-family="Helvetica,sans-Serif" font-size="10.00">harpoon/execution/execution</text>
<text text-anchor="middle" x="225" y="-371" font-family="Helvetica,sans-Serif" font-size="10.00">_unit.hh</text>
</a>
</g>
<!-- Node1&#45;&gt;Node7 -->
<g id="edge12" class="edge"><title>Node1&#45;&gt;Node7</title>
<path fill="none" stroke="midnightblue" d="M225,-506.916C225,-482.341 225,-436.753 225,-407.427"/>
<polygon fill="midnightblue" stroke="midnightblue" points="228.5,-407.062 225,-397.062 221.5,-407.062 228.5,-407.062"/>
</g>
<!-- Node19 -->
<g id="node48" class="node"><title>Node19</title>
<a xlink:href="../../dd/dba/processing__unit_8hh.html" target="_top" xlink:title="harpoon/execution/processing\l_unit.hh">
<polygon fill="white" stroke="black" points="423,-435 423,-469 569,-469 569,-435 423,-435"/>
<text text-anchor="start" x="431" y="-456" font-family="Helvetica,sans-Serif" font-size="10.00">harpoon/execution/processing</text>
<text text-anchor="middle" x="496" y="-443" font-family="Helvetica,sans-Serif" font-size="10.00">_unit.hh</text>
</a>
</g>
<!-- Node1&#45;&gt;Node19 -->
<g id="edge58" class="edge"><title>Node1&#45;&gt;Node19</title>
<path fill="none" stroke="midnightblue" d="M280.168,-509.343C321.114,-498.464 377.379,-483.515 422.196,-471.609"/>
<polygon fill="midnightblue" stroke="midnightblue" points="423.099,-474.99 431.865,-469.039 421.302,-468.225 423.099,-474.99"/>
</g>
<!-- Node3 -->
<g id="node5" class="node"><title>Node3</title>
<polygon fill="white" stroke="#bfbfbf" points="263.5,-0.5 263.5,-21.5 304.5,-21.5 304.5,-0.5 263.5,-0.5"/>
<text text-anchor="middle" x="284" y="-8.5" font-family="Helvetica,sans-Serif" font-size="10.00">string</text>
</g>
<!-- Node2&#45;&gt;Node3 -->
<g id="edge4" class="edge"><title>Node2&#45;&gt;Node3</title>
<path fill="none" stroke="midnightblue" d="M362.392,-58.3619C347.777,-49.532 326.776,-36.844 310.189,-26.8224"/>
<polygon fill="midnightblue" stroke="midnightblue" points="311.865,-23.7461 301.496,-21.5707 308.246,-29.7376 311.865,-23.7461"/>
</g>
<!-- Node4 -->
<g id="node7" class="node"><title>Node4</title>
<polygon fill="white" stroke="#bfbfbf" points="322,-0.5 322,-21.5 374,-21.5 374,-0.5 322,-0.5"/>
<text text-anchor="middle" x="348" y="-8.5" font-family="Helvetica,sans-Serif" font-size="10.00">memory</text>
</g>
<!-- Node2&#45;&gt;Node4 -->
<g id="edge6" class="edge"><title>Node2&#45;&gt;Node4</title>
<path fill="none" stroke="midnightblue" d="M374.131,-58.3619C369.845,-50.5949 363.913,-39.8426 358.784,-30.5458"/>
<polygon fill="midnightblue" stroke="midnightblue" points="361.727,-28.6357 353.832,-21.5707 355.598,-32.0172 361.727,-28.6357"/>
</g>
<!-- Node5 -->
<g id="node9" class="node"><title>Node5</title>
<polygon fill="white" stroke="#bfbfbf" points="392,-0.5 392,-21.5 432,-21.5 432,-0.5 392,-0.5"/>
<text text-anchor="middle" x="412" y="-8.5" font-family="Helvetica,sans-Serif" font-size="10.00">utility</text>
</g>
<!-- Node2&#45;&gt;Node5 -->
<g id="edge8" class="edge"><title>Node2&#45;&gt;Node5</title>
<path fill="none" stroke="midnightblue" d="M385.869,-58.3619C390.155,-50.5949 396.087,-39.8426 401.216,-30.5458"/>
<polygon fill="midnightblue" stroke="midnightblue" points="404.402,-32.0172 406.168,-21.5707 398.273,-28.6357 404.402,-32.0172"/>
</g>
<!-- Node6 -->
<g id="node11" class="node"><title>Node6</title>
<polygon fill="white" stroke="#bfbfbf" points="450,-0.5 450,-21.5 496,-21.5 496,-0.5 450,-0.5"/>
<text text-anchor="middle" x="473" y="-8.5" font-family="Helvetica,sans-Serif" font-size="10.00">cstdint</text>
</g>
<!-- Node2&#45;&gt;Node6 -->
<g id="edge10" class="edge"><title>Node2&#45;&gt;Node6</title>
<path fill="none" stroke="midnightblue" d="M397.058,-58.3619C411.085,-49.6138 431.184,-37.0786 447.182,-27.1015"/>
<polygon fill="midnightblue" stroke="midnightblue" points="449.418,-29.8323 456.051,-21.5707 445.713,-23.8927 449.418,-29.8323"/>
</g>
<!-- Node7&#45;&gt;Node2 -->
<g id="edge14" class="edge"><title>Node7&#45;&gt;Node2</title>
<path fill="none" stroke="midnightblue" d="M157.753,-362.913C104.142,-344.775 38,-310.199 38,-250 38,-250 38,-250 38,-185 38,-126.414 220.264,-91.5457 318.678,-76.9889"/>
<polygon fill="midnightblue" stroke="midnightblue" points="319.406,-80.4199 328.799,-75.5196 318.4,-73.4926 319.406,-80.4199"/>
</g>
<!-- Node8 -->
<g id="node16" class="node"><title>Node8</title>
<a xlink:href="../../d5/d09/hardware__component_8hh.html" target="_top" xlink:title="Hardware component. ">
<polygon fill="white" stroke="black" points="410.5,-239.5 410.5,-260.5 571.5,-260.5 571.5,-239.5 410.5,-239.5"/>
<text text-anchor="middle" x="491" y="-247.5" font-family="Helvetica,sans-Serif" font-size="10.00">harpoon/hardware_component.hh</text>
</a>
</g>
<!-- Node7&#45;&gt;Node8 -->
<g id="edge16" class="edge"><title>Node7&#45;&gt;Node8</title>
<path fill="none" stroke="midnightblue" d="M260.048,-362.871C312.532,-337.221 410.678,-289.255 460.421,-264.945"/>
<polygon fill="midnightblue" stroke="midnightblue" points="461.962,-268.087 469.41,-260.552 458.889,-261.798 461.962,-268.087"/>
</g>
<!-- Node15 -->
<g id="node33" class="node"><title>Node15</title>
<a xlink:href="../../d7/d55/clock_8hh.html" target="_top" xlink:title="harpoon/clock/clock.hh">
<polygon fill="white" stroke="black" points="153.5,-304.5 153.5,-325.5 270.5,-325.5 270.5,-304.5 153.5,-304.5"/>
<text text-anchor="middle" x="212" y="-312.5" font-family="Helvetica,sans-Serif" font-size="10.00">harpoon/clock/clock.hh</text>
</a>
</g>
<!-- Node7&#45;&gt;Node15 -->
<g id="edge36" class="edge"><title>Node7&#45;&gt;Node15</title>
<path fill="none" stroke="midnightblue" d="M221.584,-362.922C219.916,-354.579 217.894,-344.47 216.138,-335.692"/>
<polygon fill="midnightblue" stroke="midnightblue" points="219.564,-334.971 214.17,-325.852 212.7,-336.344 219.564,-334.971"/>
</g>
<!-- Node8&#45;&gt;Node2 -->
<g id="edge18" class="edge"><title>Node8&#45;&gt;Node2</title>
<path fill="none" stroke="midnightblue" d="M477.633,-239.119C465.777,-228.936 448.59,-212.809 437,-196 413.127,-161.375 395.371,-115.138 386.447,-89.0766"/>
<polygon fill="midnightblue" stroke="midnightblue" points="389.75,-87.9175 383.269,-79.5365 383.109,-90.1301 389.75,-87.9175"/>
</g>
<!-- Node9 -->
<g id="node19" class="node"><title>Node9</title>
<a xlink:href="../../d3/de3/log_8hh.html" target="_top" xlink:title="harpoon/log/log.hh">
<polygon fill="white" stroke="black" points="784,-174.5 784,-195.5 880,-195.5 880,-174.5 784,-174.5"/>
<text text-anchor="middle" x="832" y="-182.5" font-family="Helvetica,sans-Serif" font-size="10.00">harpoon/log/log.hh</text>
</a>
</g>
<!-- Node8&#45;&gt;Node9 -->
<g id="edge20" class="edge"><title>Node8&#45;&gt;Node9</title>
<path fill="none" stroke="midnightblue" d="M546.516,-239.491C601.646,-229.044 688.868,-212.488 773.972,-196.194"/>
<polygon fill="midnightblue" stroke="midnightblue" points="774.637,-199.63 783.8,-194.311 773.32,-192.755 774.637,-199.63"/>
</g>
<!-- Node12 -->
<g id="node27" class="node"><title>Node12</title>
<polygon fill="white" stroke="#bfbfbf" points="507.5,-174.5 507.5,-195.5 536.5,-195.5 536.5,-174.5 507.5,-174.5"/>
<text text-anchor="middle" x="522" y="-182.5" font-family="Helvetica,sans-Serif" font-size="10.00">list</text>
</g>
<!-- Node8&#45;&gt;Node12 -->
<g id="edge30" class="edge"><title>Node8&#45;&gt;Node12</title>
<path fill="none" stroke="midnightblue" d="M496.119,-239.267C500.588,-229.896 507.188,-216.057 512.604,-204.7"/>
<polygon fill="midnightblue" stroke="midnightblue" points="515.831,-206.066 516.976,-195.534 509.512,-203.053 515.831,-206.066"/>
</g>
<!-- Node13 -->
<g id="node29" class="node"><title>Node13</title>
<polygon fill="white" stroke="#bfbfbf" points="541,-116.5 541,-137.5 587,-137.5 587,-116.5 541,-116.5"/>
<text text-anchor="middle" x="564" y="-124.5" font-family="Helvetica,sans-Serif" font-size="10.00">atomic</text>
</g>
<!-- Node8&#45;&gt;Node13 -->
<g id="edge32" class="edge"><title>Node8&#45;&gt;Node13</title>
<path fill="none" stroke="midnightblue" d="M505.477,-239.129C517.727,-229.189 534.864,-213.418 545,-196 553.581,-181.256 558.422,-162.48 561.068,-148.238"/>
<polygon fill="midnightblue" stroke="midnightblue" points="564.59,-148.385 562.748,-137.952 557.682,-147.257 564.59,-148.385"/>
</g>
<!-- Node14 -->
<g id="node31" class="node"><title>Node14</title>
<polygon fill="white" stroke="#bfbfbf" points="446,-174.5 446,-195.5 490,-195.5 490,-174.5 446,-174.5"/>
<text text-anchor="middle" x="468" y="-182.5" font-family="Helvetica,sans-Serif" font-size="10.00">mutex</text>
</g>
<!-- Node8&#45;&gt;Node14 -->
<g id="edge34" class="edge"><title>Node8&#45;&gt;Node14</title>
<path fill="none" stroke="midnightblue" d="M487.202,-239.267C483.92,-229.991 479.088,-216.336 475.093,-205.045"/>
<polygon fill="midnightblue" stroke="midnightblue" points="478.363,-203.793 471.727,-195.534 471.764,-206.128 478.363,-203.793"/>
</g>
<!-- Node9&#45;&gt;Node2 -->
<g id="edge22" class="edge"><title>Node9&#45;&gt;Node2</title>
<path fill="none" stroke="midnightblue" d="M804.794,-174.379C766.191,-159.625 693.08,-132.848 629,-116 565.711,-99.3599 491.901,-86.1889 441.165,-78.0737"/>
<polygon fill="midnightblue" stroke="midnightblue" points="441.443,-74.5742 431.019,-76.469 440.349,-81.4882 441.443,-74.5742"/>
</g>
<!-- Node10 -->
<g id="node22" class="node"><title>Node10</title>
<a xlink:href="../../d9/d74/message_8hh.html" target="_top" xlink:title="harpoon/log/message.hh">
<polygon fill="white" stroke="black" points="747.5,-116.5 747.5,-137.5 870.5,-137.5 870.5,-116.5 747.5,-116.5"/>
<text text-anchor="middle" x="809" y="-124.5" font-family="Helvetica,sans-Serif" font-size="10.00">harpoon/log/message.hh</text>
</a>
</g>
<!-- Node9&#45;&gt;Node10 -->
<g id="edge24" class="edge"><title>Node9&#45;&gt;Node10</title>
<path fill="none" stroke="midnightblue" d="M827.781,-174.362C824.766,-166.758 820.617,-156.294 816.985,-147.135"/>
<polygon fill="midnightblue" stroke="midnightblue" points="820.132,-145.576 813.192,-137.571 813.625,-148.157 820.132,-145.576"/>
</g>
<!-- Node10&#45;&gt;Node2 -->
<g id="edge26" class="edge"><title>Node10&#45;&gt;Node2</title>
<path fill="none" stroke="midnightblue" d="M747.078,-118.628C665.413,-107.587 522.571,-88.2753 441.245,-77.2803"/>
<polygon fill="midnightblue" stroke="midnightblue" points="441.537,-73.7879 431.158,-75.9164 440.599,-80.7248 441.537,-73.7879"/>
</g>
<!-- Node11 -->
<g id="node25" class="node"><title>Node11</title>
<polygon fill="white" stroke="#bfbfbf" points="783,-58.5 783,-79.5 835,-79.5 835,-58.5 783,-58.5"/>
<text text-anchor="middle" x="809" y="-66.5" font-family="Helvetica,sans-Serif" font-size="10.00">sstream</text>
</g>
<!-- Node10&#45;&gt;Node11 -->
<g id="edge28" class="edge"><title>Node10&#45;&gt;Node11</title>
<path fill="none" stroke="midnightblue" d="M809,-116.362C809,-108.922 809,-98.7427 809,-89.7276"/>
<polygon fill="midnightblue" stroke="midnightblue" points="812.5,-89.5706 809,-79.5707 805.5,-89.5707 812.5,-89.5706"/>
</g>
<!-- Node15&#45;&gt;Node2 -->
<g id="edge38" class="edge"><title>Node15&#45;&gt;Node2</title>
<path fill="none" stroke="midnightblue" d="M197.193,-304.281C168.29,-281.929 108.556,-227.926 125,-174 134.061,-144.287 138.302,-133.451 164,-116 188.882,-99.1031 264.271,-85.2778 318.989,-77.0971"/>
<polygon fill="midnightblue" stroke="midnightblue" points="319.563,-80.5505 328.949,-75.6358 318.547,-73.6246 319.563,-80.5505"/>
</g>
<!-- Node15&#45;&gt;Node8 -->
<g id="edge40" class="edge"><title>Node15&#45;&gt;Node8</title>
<path fill="none" stroke="midnightblue" d="M257.136,-304.484C305.963,-293.109 383.825,-274.969 436.146,-262.78"/>
<polygon fill="midnightblue" stroke="midnightblue" points="436.984,-266.178 445.929,-260.501 435.395,-259.361 436.984,-266.178"/>
</g>
<!-- Node16 -->
<g id="node37" class="node"><title>Node16</title>
<a xlink:href="../../d3/dce/tick_8hh.html" target="_top" xlink:title="harpoon/clock/tick.hh">
<polygon fill="white" stroke="black" points="142,-174.5 142,-195.5 252,-195.5 252,-174.5 142,-174.5"/>
<text text-anchor="middle" x="197" y="-182.5" font-family="Helvetica,sans-Serif" font-size="10.00">harpoon/clock/tick.hh</text>
</a>
</g>
<!-- Node15&#45;&gt;Node16 -->
<g id="edge42" class="edge"><title>Node15&#45;&gt;Node16</title>
<path fill="none" stroke="midnightblue" d="M201.71,-304.475C193.781,-295.58 183.446,-282.07 179,-268 172.341,-246.926 179.65,-222.076 186.854,-205.096"/>
<polygon fill="midnightblue" stroke="midnightblue" points="190.202,-206.193 191.2,-195.645 183.842,-203.268 190.202,-206.193"/>
</g>
<!-- Node17 -->
<g id="node41" class="node"><title>Node17</title>
<a xlink:href="../../d8/d45/generator_8hh.html" target="_top" xlink:title="harpoon/clock/generator\l/generator.hh">
<polygon fill="white" stroke="black" points="187.5,-233 187.5,-267 308.5,-267 308.5,-233 187.5,-233"/>
<text text-anchor="start" x="195.5" y="-254" font-family="Helvetica,sans-Serif" font-size="10.00">harpoon/clock/generator</text>
<text text-anchor="middle" x="248" y="-241" font-family="Helvetica,sans-Serif" font-size="10.00">/generator.hh</text>
</a>
</g>
<!-- Node15&#45;&gt;Node17 -->
<g id="edge48" class="edge"><title>Node15&#45;&gt;Node17</title>
<path fill="none" stroke="midnightblue" d="M217.945,-304.267C222.182,-296.615 228.069,-285.986 233.511,-276.16"/>
<polygon fill="midnightblue" stroke="midnightblue" points="236.74,-277.554 238.524,-267.11 230.617,-274.162 236.74,-277.554"/>
</g>
<!-- Node16&#45;&gt;Node2 -->
<g id="edge44" class="edge"><title>Node16&#45;&gt;Node2</title>
<path fill="none" stroke="midnightblue" d="M213.888,-174.295C246.108,-153.871 316.521,-109.238 354.502,-85.1624"/>
<polygon fill="midnightblue" stroke="midnightblue" points="356.845,-87.8217 363.417,-79.5117 353.097,-81.9094 356.845,-87.8217"/>
</g>
<!-- Node16&#45;&gt;Node13 -->
<g id="edge46" class="edge"><title>Node16&#45;&gt;Node13</title>
<path fill="none" stroke="midnightblue" d="M252.36,-176.166C256.974,-175.432 261.567,-174.703 266,-174 362.223,-158.742 475.945,-140.843 530.934,-132.197"/>
<polygon fill="midnightblue" stroke="midnightblue" points="531.479,-135.654 540.814,-130.643 530.392,-128.739 531.479,-135.654"/>
</g>
<!-- Node17&#45;&gt;Node2 -->
<g id="edge50" class="edge"><title>Node17&#45;&gt;Node2</title>
<path fill="none" stroke="midnightblue" d="M187.209,-234.562C150.69,-222.085 114.569,-201.979 133,-174 173.951,-111.836 259.983,-86.3677 318.882,-76.0044"/>
<polygon fill="midnightblue" stroke="midnightblue" points="319.527,-79.4453 328.818,-74.3533 318.38,-72.54 319.527,-79.4453"/>
</g>
<!-- Node17&#45;&gt;Node13 -->
<g id="edge54" class="edge"><title>Node17&#45;&gt;Node13</title>
<path fill="none" stroke="midnightblue" d="M254.711,-232.797C262.559,-215.087 277.302,-188.143 299,-174 336.743,-149.399 467.998,-135.191 530.463,-129.678"/>
<polygon fill="midnightblue" stroke="midnightblue" points="530.919,-133.152 540.582,-128.809 530.319,-126.178 530.919,-133.152"/>
</g>
<!-- Node17&#45;&gt;Node16 -->
<g id="edge52" class="edge"><title>Node17&#45;&gt;Node16</title>
<path fill="none" stroke="midnightblue" d="M234.6,-232.922C227.622,-224.029 219.071,-213.13 211.887,-203.974"/>
<polygon fill="midnightblue" stroke="midnightblue" points="214.441,-201.559 205.515,-195.852 208.934,-205.88 214.441,-201.559"/>
</g>
<!-- Node18 -->
<g id="node46" class="node"><title>Node18</title>
<polygon fill="white" stroke="#bfbfbf" points="308,-174.5 308,-195.5 352,-195.5 352,-174.5 308,-174.5"/>
<text text-anchor="middle" x="330" y="-182.5" font-family="Helvetica,sans-Serif" font-size="10.00">thread</text>
</g>
<!-- Node17&#45;&gt;Node18 -->
<g id="edge56" class="edge"><title>Node17&#45;&gt;Node18</title>
<path fill="none" stroke="midnightblue" d="M269.545,-232.922C281.458,-223.479 296.224,-211.774 308.181,-202.296"/>
<polygon fill="midnightblue" stroke="midnightblue" points="310.647,-204.807 316.31,-195.852 306.299,-199.321 310.647,-204.807"/>
</g>
<!-- Node19&#45;&gt;Node2 -->
<g id="edge60" class="edge"><title>Node19&#45;&gt;Node2</title>
<path fill="none" stroke="midnightblue" d="M569.183,-442.935C687.575,-426.202 908,-385.573 908,-315 908,-315 908,-315 908,-185 908,-151.735 905.812,-135.69 879,-116 844.422,-90.6075 567.002,-76.4459 441.399,-71.2804"/>
<polygon fill="midnightblue" stroke="midnightblue" points="441.308,-67.7739 431.175,-70.866 441.025,-74.7682 441.308,-67.7739"/>
</g>
<!-- Node19&#45;&gt;Node7 -->
<g id="edge64" class="edge"><title>Node19&#45;&gt;Node7</title>
<path fill="none" stroke="midnightblue" d="M431.777,-434.937C391.928,-424.35 340.583,-410.708 299.026,-399.667"/>
<polygon fill="midnightblue" stroke="midnightblue" points="299.795,-396.25 289.231,-397.065 297.997,-403.016 299.795,-396.25"/>
</g>
<!-- Node19&#45;&gt;Node8 -->
<g id="edge62" class="edge"><title>Node19&#45;&gt;Node8</title>
<path fill="none" stroke="midnightblue" d="M510.822,-434.81C518.467,-424.791 527.008,-411.499 531,-398 544.504,-352.337 519.598,-298.215 503.372,-269.759"/>
<polygon fill="midnightblue" stroke="midnightblue" points="506.183,-267.636 498.072,-260.82 500.161,-271.206 506.183,-267.636"/>
</g>
<!-- Node19&#45;&gt;Node13 -->
<g id="edge80" class="edge"><title>Node19&#45;&gt;Node13</title>
<path fill="none" stroke="midnightblue" d="M521.66,-434.942C553.031,-411.812 602,-367.327 602,-315 602,-315 602,-315 602,-250 602,-212.061 585.292,-170.355 574.034,-146.558"/>
<polygon fill="midnightblue" stroke="midnightblue" points="577.149,-144.961 569.607,-137.519 570.862,-148.04 577.149,-144.961"/>
</g>
<!-- Node19&#45;&gt;Node18 -->
<g id="edge78" class="edge"><title>Node19&#45;&gt;Node18</title>
<path fill="none" stroke="midnightblue" d="M422.869,-440.03C397.636,-432.218 371.574,-419.314 355,-398 310.406,-340.652 319.265,-246.993 326.002,-205.684"/>
<polygon fill="midnightblue" stroke="midnightblue" points="329.471,-206.166 327.759,-195.711 322.577,-204.952 329.471,-206.166"/>
</g>
<!-- Node20 -->
<g id="node53" class="node"><title>Node20</title>
<a xlink:href="../../d0/df4/cycle_8hh.html" target="_top" xlink:title="harpoon/execution/cycle.hh">
<polygon fill="white" stroke="black" points="630,-174.5 630,-195.5 766,-195.5 766,-174.5 630,-174.5"/>
<text text-anchor="middle" x="698" y="-182.5" font-family="Helvetica,sans-Serif" font-size="10.00">harpoon/execution/cycle.hh</text>
</a>
</g>
<!-- Node19&#45;&gt;Node20 -->
<g id="edge66" class="edge"><title>Node19&#45;&gt;Node20</title>
<path fill="none" stroke="midnightblue" d="M557.572,-434.893C578.336,-426.584 600.221,-414.678 616,-398 669.134,-341.84 688.908,-247.558 695.308,-205.886"/>
<polygon fill="midnightblue" stroke="midnightblue" points="698.796,-206.215 696.746,-195.82 691.867,-205.225 698.796,-206.215"/>
</g>
<!-- Node21 -->
<g id="node57" class="node"><title>Node21</title>
<a xlink:href="../../d4/d15/instruction_8hh.html" target="_top" xlink:title="harpoon/execution/instruction.hh">
<polygon fill="white" stroke="black" points="364,-369.5 364,-390.5 522,-390.5 522,-369.5 364,-369.5"/>
<text text-anchor="middle" x="443" y="-377.5" font-family="Helvetica,sans-Serif" font-size="10.00">harpoon/execution/instruction.hh</text>
</a>
</g>
<!-- Node19&#45;&gt;Node21 -->
<g id="edge72" class="edge"><title>Node19&#45;&gt;Node21</title>
<path fill="none" stroke="midnightblue" d="M483.44,-434.937C475.517,-424.174 465.271,-410.255 457.075,-399.12"/>
<polygon fill="midnightblue" stroke="midnightblue" points="459.771,-396.88 451.024,-390.901 454.134,-401.029 459.771,-396.88"/>
</g>
<!-- Node20&#45;&gt;Node2 -->
<g id="edge68" class="edge"><title>Node20&#45;&gt;Node2</title>
<path fill="none" stroke="midnightblue" d="M685.722,-174.371C667.433,-159.105 631.377,-131.146 596,-116 546.249,-94.701 485.768,-82.6057 441.473,-76.0372"/>
<polygon fill="midnightblue" stroke="midnightblue" points="441.825,-72.5519 431.43,-74.6011 440.834,-79.4814 441.825,-72.5519"/>
</g>
<!-- Node20&#45;&gt;Node13 -->
<g id="edge70" class="edge"><title>Node20&#45;&gt;Node13</title>
<path fill="none" stroke="midnightblue" d="M673.734,-174.497C652.124,-165.143 620.335,-151.384 596.528,-141.079"/>
<polygon fill="midnightblue" stroke="midnightblue" points="597.757,-137.797 587.189,-137.037 594.976,-144.221 597.757,-137.797"/>
</g>
<!-- Node21&#45;&gt;Node2 -->
<g id="edge74" class="edge"><title>Node21&#45;&gt;Node2</title>
<path fill="none" stroke="midnightblue" d="M433.704,-369.38C416.18,-348.224 380,-298.655 380,-250 380,-250 380,-250 380,-185 380,-151.598 380,-112.785 380,-89.5939"/>
<polygon fill="midnightblue" stroke="midnightblue" points="383.5,-89.5561 380,-79.5561 376.5,-89.5561 383.5,-89.5561"/>
</g>
<!-- Node22 -->
<g id="node60" class="node"><title>Node22</title>
<polygon fill="white" stroke="#bfbfbf" points="413.5,-304.5 413.5,-325.5 472.5,-325.5 472.5,-304.5 413.5,-304.5"/>
<text text-anchor="middle" x="443" y="-312.5" font-family="Helvetica,sans-Serif" font-size="10.00">functional</text>
</g>
<!-- Node21&#45;&gt;Node22 -->
<g id="edge76" class="edge"><title>Node21&#45;&gt;Node22</title>
<path fill="none" stroke="midnightblue" d="M443,-369.267C443,-360.18 443,-346.892 443,-335.74"/>
<polygon fill="midnightblue" stroke="midnightblue" points="446.5,-335.534 443,-325.534 439.5,-335.534 446.5,-335.534"/>
</g>
</g>
</svg>
