<?xml version="1.0" encoding="UTF-8" standalone="no"?>
<!DOCTYPE svg PUBLIC "-//W3C//DTD SVG 1.1//EN"
 "http://www.w3.org/Graphics/SVG/1.1/DTD/svg11.dtd">
<!-- Generated by graphviz version 2.26.3 (20100126.1600)
 -->
<!-- Title: harpoon::clock::generator::generator Pages: 1 -->
<svg width="278pt" height="446pt"
 viewBox="0.00 0.00 278.00 446.00" xmlns="http://www.w3.org/2000/svg" xmlns:xlink="http://www.w3.org/1999/xlink">
<g id="graph1" class="graph" transform="scale(1 1) rotate(0) translate(4 442)">
<title>harpoon::clock::generator::generator</title>
<polygon fill="white" stroke="white" points="-4,5 -4,-442 275,-442 275,5 -4,5"/>
<!-- Node1 -->
<g id="node1" class="node"><title>Node1</title>
<polygon fill="#bfbfbf" stroke="black" points="71.5,-166.5 71.5,-437.5 198.5,-437.5 198.5,-166.5 71.5,-166.5"/>
<text text-anchor="start" x="79.5" y="-424.5" font-family="Helvetica,sans-Serif" font-size="10.00">harpoon::clock::generator</text>
<text text-anchor="middle" x="135" y="-411.5" font-family="Helvetica,sans-Serif" font-size="10.00">::generator</text>
<polyline fill="none" stroke="black" points="71.5,-403.5 198.5,-403.5 "/>
<text text-anchor="middle" x="135" y="-390.5" font-family="Helvetica,sans-Serif" font-size="10.00"> </text>
<polyline fill="none" stroke="black" points="71.5,-382.5 198.5,-382.5 "/>
<text text-anchor="start" x="79.5" y="-369.5" font-family="Helvetica,sans-Serif" font-size="10.00">+ generator()</text>
<text text-anchor="start" x="79.5" y="-356.5" font-family="Helvetica,sans-Serif" font-size="10.00">+ generator()</text>
<text text-anchor="start" x="79.5" y="-343.5" font-family="Helvetica,sans-Serif" font-size="10.00">+ operator=()</text>
<text text-anchor="start" x="79.5" y="-330.5" font-family="Helvetica,sans-Serif" font-size="10.00">+ ~generator()</text>
<text text-anchor="start" x="79.5" y="-317.5" font-family="Helvetica,sans-Serif" font-size="10.00">+ set_frequency()</text>
<text text-anchor="start" x="79.5" y="-304.5" font-family="Helvetica,sans-Serif" font-size="10.00">+ get_frequency()</text>
<text text-anchor="start" x="79.5" y="-291.5" font-family="Helvetica,sans-Serif" font-size="10.00">+ get_tick()</text>
<text text-anchor="start" x="79.5" y="-278.5" font-family="Helvetica,sans-Serif" font-size="10.00">+ wait_for_tick()</text>
<text text-anchor="start" x="79.5" y="-265.5" font-family="Helvetica,sans-Serif" font-size="10.00">+ wait_tick()</text>
<text text-anchor="start" x="79.5" y="-252.5" font-family="Helvetica,sans-Serif" font-size="10.00">+ next_tick()</text>
<text text-anchor="start" x="79.5" y="-239.5" font-family="Helvetica,sans-Serif" font-size="10.00">+ is_running()</text>
<text text-anchor="start" x="79.5" y="-226.5" font-family="Helvetica,sans-Serif" font-size="10.00">+ start()</text>
<text text-anchor="start" x="79.5" y="-213.5" font-family="Helvetica,sans-Serif" font-size="10.00">+ stop()</text>
<text text-anchor="start" x="79.5" y="-200.5" font-family="Helvetica,sans-Serif" font-size="10.00"># set_tick()</text>
<text text-anchor="start" x="79.5" y="-187.5" font-family="Helvetica,sans-Serif" font-size="10.00"># get_atomic_tick()</text>
<text text-anchor="start" x="79.5" y="-174.5" font-family="Helvetica,sans-Serif" font-size="10.00"># get_atomic_tick()</text>
</g>
<!-- Node2 -->
<g id="node3" class="node"><title>Node2</title>
<a xlink:href="../../df/d89/classharpoon_1_1clock_1_1generator_1_1dummy__generator.html" target="_top" xlink:title="{harpoon::clock::generator\l::dummy_generator\n||+ ~dummy_generator()\l+ wait_for_tick()\l+ wait_tick()\l}">
<polygon fill="white" stroke="black" points="-0.5,-14 -0.5,-116 126.5,-116 126.5,-14 -0.5,-14"/>
<text text-anchor="start" x="7.5" y="-103" font-family="Helvetica,sans-Serif" font-size="10.00">harpoon::clock::generator</text>
<text text-anchor="middle" x="63" y="-90" font-family="Helvetica,sans-Serif" font-size="10.00">::dummy_generator</text>
<polyline fill="none" stroke="black" points="-0.5,-82 126.5,-82 "/>
<text text-anchor="middle" x="63" y="-69" font-family="Helvetica,sans-Serif" font-size="10.00"> </text>
<polyline fill="none" stroke="black" points="-0.5,-61 126.5,-61 "/>
<text text-anchor="start" x="7.5" y="-48" font-family="Helvetica,sans-Serif" font-size="10.00">+ ~dummy_generator()</text>
<text text-anchor="start" x="7.5" y="-35" font-family="Helvetica,sans-Serif" font-size="10.00">+ wait_for_tick()</text>
<text text-anchor="start" x="7.5" y="-22" font-family="Helvetica,sans-Serif" font-size="10.00">+ wait_tick()</text>
</a>
</g>
<!-- Node1&#45;&gt;Node2 -->
<g id="edge2" class="edge"><title>Node1&#45;&gt;Node2</title>
<path fill="none" stroke="midnightblue" d="M90.7237,-156.257C86.3963,-142.013 82.2375,-128.323 78.5163,-116.074"/>
<polygon fill="none" stroke="midnightblue" points="87.4876,-157.646 93.7433,-166.197 94.1853,-155.611 87.4876,-157.646"/>
</g>
<!-- Node3 -->
<g id="node5" class="node"><title>Node3</title>
<a xlink:href="../../dc/def/classharpoon_1_1clock_1_1generator_1_1threaded__generator.html" target="_top" xlink:title="{harpoon::clock::generator\l::threaded_generator\n||+ threaded_generator()\l+ operator=()\l+ ~threaded_generator()\l+ start()\l+ stop()\l}">
<polygon fill="white" stroke="black" points="143.5,-1 143.5,-129 270.5,-129 270.5,-1 143.5,-1"/>
<text text-anchor="start" x="151.5" y="-116" font-family="Helvetica,sans-Serif" font-size="10.00">harpoon::clock::generator</text>
<text text-anchor="middle" x="207" y="-103" font-family="Helvetica,sans-Serif" font-size="10.00">::threaded_generator</text>
<polyline fill="none" stroke="black" points="143.5,-95 270.5,-95 "/>
<text text-anchor="middle" x="207" y="-82" font-family="Helvetica,sans-Serif" font-size="10.00"> </text>
<polyline fill="none" stroke="black" points="143.5,-74 270.5,-74 "/>
<text text-anchor="start" x="151.5" y="-61" font-family="Helvetica,sans-Serif" font-size="10.00">+ threaded_generator()</text>
<text text-anchor="start" x="151.5" y="-48" font-family="Helvetica,sans-Serif" font-size="10.00">+ operator=()</text>
<text text-anchor="start" x="151.5" y="-35" font-family="Helvetica,sans-Serif" font-size="10.00">+ ~threaded_generator()</text>
<text text-anchor="start" x="151.5" y="-22" font-family="Helvetica,sans-Serif" font-size="10.00">+ start()</text>
<text text-anchor="start" x="151.5" y="-9" font-family="Helvetica,sans-Serif" font-size="10.00">+ stop()</text>
</a>
</g>
<!-- Node1&#45;&gt;Node3 -->
<g id="edge4" class="edge"><title>Node1&#45;&gt;Node3</title>
<path fill="none" stroke="midnightblue" d="M179.25,-156.343C182.1,-146.961 184.878,-137.819 187.505,-129.17"/>
<polygon fill="none" stroke="midnightblue" points="175.815,-155.611 176.257,-166.197 182.512,-157.646 175.815,-155.611"/>
</g>
</g>
</svg>
