<?xml version="1.0" encoding="UTF-8" standalone="no"?>
<!DOCTYPE svg PUBLIC "-//W3C//DTD SVG 1.1//EN"
 "http://www.w3.org/Graphics/SVG/1.1/DTD/svg11.dtd">
<!-- Generated by graphviz version 2.26.3 (20100126.1600)
 -->
<!-- Title: harpoon/memory/chunked_read_only_memory.hh Pages: 1 -->
<!--zoomable 592 -->
<svg id="main" version="1.1" xmlns="http://www.w3.org/2000/svg" xmlns:xlink="http://www.w3.org/1999/xlink" xml:space="preserve" onload="init(evt)">
<style type="text/css"><![CDATA[
.edge:hover path { stroke: red; }
.edge:hover polygon { stroke: red; fill: red; }
]]></style>
<script type="text/javascript"><![CDATA[
var edges = document.getElementsByTagName('g');
if (edges && edges.length) {
  for (var i=0;i<edges.length;i++) {
    if (edges[i].id.substr(0,4)=='edge') {
      edges[i].setAttribute('class','edge');
    }
  }
}
]]></script>
        <defs>
                <circle id="rim" cx="0" cy="0" r="7"/>
                <circle id="rim2" cx="0" cy="0" r="3.5"/>
                <g id="zoomPlus">
                        <use xlink:href="#rim" fill="#404040">
                                <set attributeName="fill" to="#808080" begin="zoomplus.mouseover" end="zoomplus.mouseout"/>
                        </use>
                        <path d="M-4,0h8M0,-4v8" fill="none" stroke="white" stroke-width="1.5" pointer-events="none"/>
                </g>
                <g id="zoomMin">
                        <use xlink:href="#rim" fill="#404040">
                                <set attributeName="fill" to="#808080" begin="zoomminus.mouseover" end="zoomminus.mouseout"/>
                        </use>
                        <path d="M-4,0h8" fill="none" stroke="white" stroke-width="1.5" pointer-events="none"/>
                </g>
                <g id="dirArrow">
                        <path fill="none" stroke="white" stroke-width="1.5" d="M0,-3.0v7 M-2.5,-0.5L0,-3.0L2.5,-0.5"/>
                </g>
               <g id="resetDef">
                       <use xlink:href="#rim2" fill="#404040">
                               <set attributeName="fill" to="#808080" begin="reset.mouseover" end="reset.mouseout"/>
                       </use>
               </g>
        </defs>

<script type="text/javascript">
var viewWidth = 1160;
var viewHeight = 592;
var sectionId = 'dynsection-0';
</script>
<script xlink:href="../../svgpan.js"/>
<svg id="graph" class="graph">
<g id="viewport">
<title>harpoon/memory/chunked_read_only_memory.hh</title>
<polygon fill="white" stroke="white" points="-4,5 -4,-588 1157,-588 1157,5 -4,5"/>
<!-- Node1 -->
<g id="node1" class="node"><title>Node1</title>
<polygon fill="#bfbfbf" stroke="black" points="736.5,-549 736.5,-583 865.5,-583 865.5,-549 736.5,-549"/>
<text text-anchor="start" x="744.5" y="-570" font-family="Helvetica,sans-Serif" font-size="10.00">harpoon/memory/chunked</text>
<text text-anchor="middle" x="801" y="-557" font-family="Helvetica,sans-Serif" font-size="10.00">_read_only_memory.hh</text>
</g>
<!-- Node2 -->
<g id="node3" class="node"><title>Node2</title>
<a xlink:href="../../d5/d08/harpoon_8hh.html" target="_top" xlink:title="Harpoon library common header file. ">
<polygon fill="white" stroke="black" points="597,-58.5 597,-79.5 699,-79.5 699,-58.5 597,-58.5"/>
<text text-anchor="middle" x="648" y="-66.5" font-family="Helvetica,sans-Serif" font-size="10.00">harpoon/harpoon.hh</text>
</a>
</g>
<!-- Node1&#45;&gt;Node2 -->
<g id="edge2" class="edge"><title>Node1&#45;&gt;Node2</title>
<path fill="none" stroke="midnightblue" d="M858.991,-548.949C914.548,-528.618 990,-488.724 990,-422 990,-422 990,-422 990,-206 990,-156.918 967.584,-142.075 926,-116 890.772,-93.9106 779.862,-80.4402 709.238,-73.8776"/>
<polygon fill="midnightblue" stroke="midnightblue" points="709.4,-70.378 699.125,-72.9593 708.767,-77.3493 709.4,-70.378"/>
</g>
<!-- Node7 -->
<g id="node13" class="node"><title>Node7</title>
<a xlink:href="../../dc/d1d/chunked__memory_8hh.html" target="_top" xlink:title="harpoon/memory/chunked\l_memory.hh">
<polygon fill="white" stroke="black" points="396.5,-405 396.5,-439 525.5,-439 525.5,-405 396.5,-405"/>
<text text-anchor="start" x="404.5" y="-426" font-family="Helvetica,sans-Serif" font-size="10.00">harpoon/memory/chunked</text>
<text text-anchor="middle" x="461" y="-413" font-family="Helvetica,sans-Serif" font-size="10.00">_memory.hh</text>
</a>
</g>
<!-- Node1&#45;&gt;Node7 -->
<g id="edge12" class="edge"><title>Node1&#45;&gt;Node7</title>
<path fill="none" stroke="midnightblue" d="M760.662,-548.916C698.294,-522.501 578.599,-471.807 510.885,-443.128"/>
<polygon fill="midnightblue" stroke="midnightblue" points="511.858,-439.739 501.285,-439.062 509.128,-446.185 511.858,-439.739"/>
</g>
<!-- Node20 -->
<g id="node47" class="node"><title>Node20</title>
<a xlink:href="../../d9/d5e/read__only__memory_8hh.html" target="_top" xlink:title="harpoon/memory/read\l_only_memory.hh">
<polygon fill="white" stroke="black" points="745.5,-477 745.5,-511 856.5,-511 856.5,-477 745.5,-477"/>
<text text-anchor="start" x="753.5" y="-498" font-family="Helvetica,sans-Serif" font-size="10.00">harpoon/memory/read</text>
<text text-anchor="middle" x="801" y="-485" font-family="Helvetica,sans-Serif" font-size="10.00">_only_memory.hh</text>
</a>
</g>
<!-- Node1&#45;&gt;Node20 -->
<g id="edge54" class="edge"><title>Node1&#45;&gt;Node20</title>
<path fill="none" stroke="midnightblue" d="M801,-548.937C801,-540.807 801,-530.876 801,-521.705"/>
<polygon fill="midnightblue" stroke="midnightblue" points="804.5,-521.441 801,-511.441 797.5,-521.441 804.5,-521.441"/>
</g>
<!-- Node3 -->
<g id="node5" class="node"><title>Node3</title>
<polygon fill="white" stroke="#bfbfbf" points="531.5,-0.5 531.5,-21.5 572.5,-21.5 572.5,-0.5 531.5,-0.5"/>
<text text-anchor="middle" x="552" y="-8.5" font-family="Helvetica,sans-Serif" font-size="10.00">string</text>
</g>
<!-- Node2&#45;&gt;Node3 -->
<g id="edge4" class="edge"><title>Node2&#45;&gt;Node3</title>
<path fill="none" stroke="midnightblue" d="M630.392,-58.3619C615.777,-49.532 594.776,-36.844 578.189,-26.8224"/>
<polygon fill="midnightblue" stroke="midnightblue" points="579.865,-23.7461 569.496,-21.5707 576.246,-29.7376 579.865,-23.7461"/>
</g>
<!-- Node4 -->
<g id="node7" class="node"><title>Node4</title>
<polygon fill="white" stroke="#bfbfbf" points="590,-0.5 590,-21.5 642,-21.5 642,-0.5 590,-0.5"/>
<text text-anchor="middle" x="616" y="-8.5" font-family="Helvetica,sans-Serif" font-size="10.00">memory</text>
</g>
<!-- Node2&#45;&gt;Node4 -->
<g id="edge6" class="edge"><title>Node2&#45;&gt;Node4</title>
<path fill="none" stroke="midnightblue" d="M642.131,-58.3619C637.845,-50.5949 631.913,-39.8426 626.784,-30.5458"/>
<polygon fill="midnightblue" stroke="midnightblue" points="629.727,-28.6357 621.832,-21.5707 623.598,-32.0172 629.727,-28.6357"/>
</g>
<!-- Node5 -->
<g id="node9" class="node"><title>Node5</title>
<polygon fill="white" stroke="#bfbfbf" points="660,-0.5 660,-21.5 700,-21.5 700,-0.5 660,-0.5"/>
<text text-anchor="middle" x="680" y="-8.5" font-family="Helvetica,sans-Serif" font-size="10.00">utility</text>
</g>
<!-- Node2&#45;&gt;Node5 -->
<g id="edge8" class="edge"><title>Node2&#45;&gt;Node5</title>
<path fill="none" stroke="midnightblue" d="M653.869,-58.3619C658.155,-50.5949 664.087,-39.8426 669.216,-30.5458"/>
<polygon fill="midnightblue" stroke="midnightblue" points="672.402,-32.0172 674.168,-21.5707 666.273,-28.6357 672.402,-32.0172"/>
</g>
<!-- Node6 -->
<g id="node11" class="node"><title>Node6</title>
<polygon fill="white" stroke="#bfbfbf" points="718,-0.5 718,-21.5 764,-21.5 764,-0.5 718,-0.5"/>
<text text-anchor="middle" x="741" y="-8.5" font-family="Helvetica,sans-Serif" font-size="10.00">cstdint</text>
</g>
<!-- Node2&#45;&gt;Node6 -->
<g id="edge10" class="edge"><title>Node2&#45;&gt;Node6</title>
<path fill="none" stroke="midnightblue" d="M665.058,-58.3619C679.085,-49.6138 699.184,-37.0786 715.182,-27.1015"/>
<polygon fill="midnightblue" stroke="midnightblue" points="717.418,-29.8323 724.051,-21.5707 713.713,-23.8927 717.418,-29.8323"/>
</g>
<!-- Node7&#45;&gt;Node2 -->
<g id="edge14" class="edge"><title>Node7&#45;&gt;Node2</title>
<path fill="none" stroke="midnightblue" d="M465.939,-404.878C473.225,-378.066 486,-324.434 486,-278 486,-278 486,-278 486,-206 486,-142.939 558.455,-102.951 606.454,-83.3789"/>
<polygon fill="midnightblue" stroke="midnightblue" points="607.971,-86.5431 615.994,-79.6237 605.407,-80.0296 607.971,-86.5431"/>
</g>
<!-- Node8 -->
<g id="node16" class="node"><title>Node8</title>
<a xlink:href="../../dc/d3f/memory_8hh.html" target="_top" xlink:title="harpoon/memory/memory.hh">
<polygon fill="white" stroke="black" points="255.5,-339.5 255.5,-360.5 396.5,-360.5 396.5,-339.5 255.5,-339.5"/>
<text text-anchor="middle" x="326" y="-347.5" font-family="Helvetica,sans-Serif" font-size="10.00">harpoon/memory/memory.hh</text>
</a>
</g>
<!-- Node7&#45;&gt;Node8 -->
<g id="edge16" class="edge"><title>Node7&#45;&gt;Node8</title>
<path fill="none" stroke="midnightblue" d="M429.007,-404.937C406.593,-392.983 376.878,-377.135 355.125,-365.533"/>
<polygon fill="midnightblue" stroke="midnightblue" points="356.511,-362.306 346.04,-360.688 353.217,-368.482 356.511,-362.306"/>
</g>
<!-- Node19 -->
<g id="node45" class="node"><title>Node19</title>
<polygon fill="white" stroke="#bfbfbf" points="414,-339.5 414,-360.5 458,-360.5 458,-339.5 414,-339.5"/>
<text text-anchor="middle" x="436" y="-347.5" font-family="Helvetica,sans-Serif" font-size="10.00">vector</text>
</g>
<!-- Node7&#45;&gt;Node19 -->
<g id="edge52" class="edge"><title>Node7&#45;&gt;Node19</title>
<path fill="none" stroke="midnightblue" d="M455.075,-404.937C451.486,-394.601 446.886,-381.352 443.103,-370.456"/>
<polygon fill="midnightblue" stroke="midnightblue" points="446.372,-369.2 439.785,-360.901 439.759,-371.496 446.372,-369.2"/>
</g>
<!-- Node8&#45;&gt;Node2 -->
<g id="edge18" class="edge"><title>Node8&#45;&gt;Node2</title>
<path fill="none" stroke="midnightblue" d="M361.297,-339.398C383.307,-331.026 410.491,-317.166 427,-296 477.715,-230.977 414.158,-174.773 472,-116 488.104,-99.6362 542.554,-86.7159 586.673,-78.5967"/>
<polygon fill="midnightblue" stroke="midnightblue" points="587.546,-81.9961 596.772,-76.7874 586.311,-75.1058 587.546,-81.9961"/>
</g>
<!-- Node9 -->
<g id="node19" class="node"><title>Node9</title>
<a xlink:href="../../d5/d09/hardware__component_8hh.html" target="_top" xlink:title="Hardware component. ">
<polygon fill="white" stroke="black" points="109.5,-267.5 109.5,-288.5 270.5,-288.5 270.5,-267.5 109.5,-267.5"/>
<text text-anchor="middle" x="190" y="-275.5" font-family="Helvetica,sans-Serif" font-size="10.00">harpoon/hardware_component.hh</text>
</a>
</g>
<!-- Node8&#45;&gt;Node9 -->
<g id="edge20" class="edge"><title>Node8&#45;&gt;Node9</title>
<path fill="none" stroke="midnightblue" d="M305.933,-339.376C283.032,-327.252 245.374,-307.316 219.217,-293.468"/>
<polygon fill="midnightblue" stroke="midnightblue" points="220.625,-290.253 210.15,-288.667 217.35,-296.44 220.625,-290.253"/>
</g>
<!-- Node13 -->
<g id="node30" class="node"><title>Node13</title>
<polygon fill="white" stroke="#bfbfbf" points="17.5,-195.5 17.5,-216.5 46.5,-216.5 46.5,-195.5 17.5,-195.5"/>
<text text-anchor="middle" x="32" y="-203.5" font-family="Helvetica,sans-Serif" font-size="10.00">list</text>
</g>
<!-- Node8&#45;&gt;Node13 -->
<g id="edge50" class="edge"><title>Node8&#45;&gt;Node13</title>
<path fill="none" stroke="midnightblue" d="M261.58,-339.483C204.83,-329.336 127.234,-313.043 101,-296 73.919,-278.407 53.2148,-246.412 41.8331,-225.692"/>
<polygon fill="midnightblue" stroke="midnightblue" points="44.902,-224.008 37.1388,-216.798 38.7114,-227.275 44.902,-224.008"/>
</g>
<!-- Node16 -->
<g id="node36" class="node"><title>Node16</title>
<a xlink:href="../../d3/d22/address__range_8hh.html" target="_top" xlink:title="harpoon/memory/address\l_range.hh">
<polygon fill="white" stroke="black" points="291.5,-261 291.5,-295 418.5,-295 418.5,-261 291.5,-261"/>
<text text-anchor="start" x="299.5" y="-282" font-family="Helvetica,sans-Serif" font-size="10.00">harpoon/memory/address</text>
<text text-anchor="middle" x="355" y="-269" font-family="Helvetica,sans-Serif" font-size="10.00">_range.hh</text>
</a>
</g>
<!-- Node8&#45;&gt;Node16 -->
<g id="edge40" class="edge"><title>Node8&#45;&gt;Node16</title>
<path fill="none" stroke="midnightblue" d="M330.279,-339.376C333.947,-330.269 339.391,-316.754 344.237,-304.723"/>
<polygon fill="midnightblue" stroke="midnightblue" points="347.625,-305.678 348.115,-295.094 341.132,-303.063 347.625,-305.678"/>
</g>
<!-- Node9&#45;&gt;Node2 -->
<g id="edge22" class="edge"><title>Node9&#45;&gt;Node2</title>
<path fill="none" stroke="midnightblue" d="M188.955,-267.498C187.727,-249.193 187.883,-211.189 207,-188 255.196,-129.539 477.148,-92.0501 586.611,-76.7972"/>
<polygon fill="midnightblue" stroke="midnightblue" points="587.413,-80.2199 596.843,-75.3905 586.459,-73.2851 587.413,-80.2199"/>
</g>
<!-- Node10 -->
<g id="node22" class="node"><title>Node10</title>
<a xlink:href="../../d3/de3/log_8hh.html" target="_top" xlink:title="harpoon/log/log.hh">
<polygon fill="white" stroke="black" points="64,-195.5 64,-216.5 160,-216.5 160,-195.5 64,-195.5"/>
<text text-anchor="middle" x="112" y="-203.5" font-family="Helvetica,sans-Serif" font-size="10.00">harpoon/log/log.hh</text>
</a>
</g>
<!-- Node9&#45;&gt;Node10 -->
<g id="edge24" class="edge"><title>Node9&#45;&gt;Node10</title>
<path fill="none" stroke="midnightblue" d="M178.491,-267.376C166.048,-255.89 146.009,-237.393 131.178,-223.703"/>
<polygon fill="midnightblue" stroke="midnightblue" points="133.278,-220.878 123.556,-216.667 128.53,-226.022 133.278,-220.878"/>
</g>
<!-- Node9&#45;&gt;Node13 -->
<g id="edge34" class="edge"><title>Node9&#45;&gt;Node13</title>
<path fill="none" stroke="midnightblue" d="M156.047,-267.418C127.982,-257.978 87.5978,-242.763 55,-224 54.1925,-223.535 53.3824,-223.044 52.5743,-222.534"/>
<polygon fill="midnightblue" stroke="midnightblue" points="54.3759,-219.52 44.197,-216.58 50.3209,-225.226 54.3759,-219.52"/>
</g>
<!-- Node14 -->
<g id="node32" class="node"><title>Node14</title>
<polygon fill="white" stroke="#bfbfbf" points="216,-195.5 216,-216.5 262,-216.5 262,-195.5 216,-195.5"/>
<text text-anchor="middle" x="239" y="-203.5" font-family="Helvetica,sans-Serif" font-size="10.00">atomic</text>
</g>
<!-- Node9&#45;&gt;Node14 -->
<g id="edge36" class="edge"><title>Node9&#45;&gt;Node14</title>
<path fill="none" stroke="midnightblue" d="M197.23,-267.376C204.757,-256.316 216.71,-238.753 225.904,-225.243"/>
<polygon fill="midnightblue" stroke="midnightblue" points="229.007,-226.904 231.74,-216.667 223.22,-222.965 229.007,-226.904"/>
</g>
<!-- Node15 -->
<g id="node34" class="node"><title>Node15</title>
<polygon fill="white" stroke="#bfbfbf" points="280,-195.5 280,-216.5 324,-216.5 324,-195.5 280,-195.5"/>
<text text-anchor="middle" x="302" y="-203.5" font-family="Helvetica,sans-Serif" font-size="10.00">mutex</text>
</g>
<!-- Node9&#45;&gt;Node15 -->
<g id="edge38" class="edge"><title>Node9&#45;&gt;Node15</title>
<path fill="none" stroke="midnightblue" d="M206.526,-267.376C225.055,-255.465 255.313,-236.013 276.796,-222.202"/>
<polygon fill="midnightblue" stroke="midnightblue" points="278.887,-225.019 285.406,-216.667 275.102,-219.131 278.887,-225.019"/>
</g>
<!-- Node10&#45;&gt;Node2 -->
<g id="edge26" class="edge"><title>Node10&#45;&gt;Node2</title>
<path fill="none" stroke="midnightblue" d="M115.805,-195.409C123.439,-175.883 142.627,-134.517 174,-116 208.773,-95.4765 466.378,-78.9123 586.57,-72.2119"/>
<polygon fill="midnightblue" stroke="midnightblue" points="586.928,-75.6975 596.72,-71.6513 586.542,-68.7082 586.928,-75.6975"/>
</g>
<!-- Node11 -->
<g id="node25" class="node"><title>Node11</title>
<a xlink:href="../../d9/d74/message_8hh.html" target="_top" xlink:title="harpoon/log/message.hh">
<polygon fill="white" stroke="black" points="-0.5,-123.5 -0.5,-144.5 122.5,-144.5 122.5,-123.5 -0.5,-123.5"/>
<text text-anchor="middle" x="61" y="-131.5" font-family="Helvetica,sans-Serif" font-size="10.00">harpoon/log/message.hh</text>
</a>
</g>
<!-- Node10&#45;&gt;Node11 -->
<g id="edge28" class="edge"><title>Node10&#45;&gt;Node11</title>
<path fill="none" stroke="midnightblue" d="M104.475,-195.376C96.565,-184.209 83.9606,-166.415 74.3554,-152.855"/>
<polygon fill="midnightblue" stroke="midnightblue" points="77.1924,-150.805 68.5561,-144.667 71.4802,-154.851 77.1924,-150.805"/>
</g>
<!-- Node11&#45;&gt;Node2 -->
<g id="edge30" class="edge"><title>Node11&#45;&gt;Node2</title>
<path fill="none" stroke="midnightblue" d="M100.097,-123.491C111.594,-120.707 124.241,-117.94 136,-116 297.453,-89.3576 490.224,-76.7709 586.668,-71.7716"/>
<polygon fill="midnightblue" stroke="midnightblue" points="587.012,-75.2587 596.821,-71.255 586.656,-68.2678 587.012,-75.2587"/>
</g>
<!-- Node12 -->
<g id="node28" class="node"><title>Node12</title>
<polygon fill="white" stroke="#bfbfbf" points="35,-58.5 35,-79.5 87,-79.5 87,-58.5 35,-58.5"/>
<text text-anchor="middle" x="61" y="-66.5" font-family="Helvetica,sans-Serif" font-size="10.00">sstream</text>
</g>
<!-- Node11&#45;&gt;Node12 -->
<g id="edge32" class="edge"><title>Node11&#45;&gt;Node12</title>
<path fill="none" stroke="midnightblue" d="M61,-123.267C61,-114.18 61,-100.892 61,-89.7395"/>
<polygon fill="midnightblue" stroke="midnightblue" points="64.5001,-89.5337 61,-79.5337 57.5001,-89.5337 64.5001,-89.5337"/>
</g>
<!-- Node16&#45;&gt;Node2 -->
<g id="edge42" class="edge"><title>Node16&#45;&gt;Node2</title>
<path fill="none" stroke="midnightblue" d="M355.334,-260.918C356.3,-242.172 359.672,-211.608 371,-188 389.395,-149.664 397.401,-137.645 434,-116 459.453,-100.947 532.925,-86.842 586.7,-78.086"/>
<polygon fill="midnightblue" stroke="midnightblue" points="587.514,-81.5003 596.834,-76.4609 586.406,-74.5886 587.514,-81.5003"/>
</g>
<!-- Node17 -->
<g id="node39" class="node"><title>Node17</title>
<a xlink:href="../../db/db3/address_8hh.html" target="_top" xlink:title="harpoon/memory/address.hh">
<polygon fill="white" stroke="black" points="514,-195.5 514,-216.5 654,-216.5 654,-195.5 514,-195.5"/>
<text text-anchor="middle" x="584" y="-203.5" font-family="Helvetica,sans-Serif" font-size="10.00">harpoon/memory/address.hh</text>
</a>
</g>
<!-- Node16&#45;&gt;Node17 -->
<g id="edge44" class="edge"><title>Node16&#45;&gt;Node17</title>
<path fill="none" stroke="midnightblue" d="M409.27,-260.937C449.457,-248.302 503.484,-231.315 540.77,-219.592"/>
<polygon fill="midnightblue" stroke="midnightblue" points="541.853,-222.92 550.343,-216.582 539.754,-216.243 541.853,-222.92"/>
</g>
<!-- Node18 -->
<g id="node42" class="node"><title>Node18</title>
<polygon fill="white" stroke="#bfbfbf" points="380,-195.5 380,-216.5 420,-216.5 420,-195.5 380,-195.5"/>
<text text-anchor="middle" x="400" y="-203.5" font-family="Helvetica,sans-Serif" font-size="10.00">limits</text>
</g>
<!-- Node16&#45;&gt;Node18 -->
<g id="edge48" class="edge"><title>Node16&#45;&gt;Node18</title>
<path fill="none" stroke="midnightblue" d="M365.664,-260.937C372.324,-250.281 380.919,-236.53 387.843,-225.452"/>
<polygon fill="midnightblue" stroke="midnightblue" points="390.855,-227.236 393.187,-216.901 384.919,-223.526 390.855,-227.236"/>
</g>
<!-- Node17&#45;&gt;Node2 -->
<g id="edge46" class="edge"><title>Node17&#45;&gt;Node2</title>
<path fill="none" stroke="midnightblue" d="M589.022,-195.25C599.724,-172.341 624.919,-118.409 638.661,-88.9919"/>
<polygon fill="midnightblue" stroke="midnightblue" points="641.94,-90.2418 643.001,-79.7002 635.598,-87.279 641.94,-90.2418"/>
</g>
<!-- Node20&#45;&gt;Node2 -->
<g id="edge56" class="edge"><title>Node20&#45;&gt;Node2</title>
<path fill="none" stroke="midnightblue" d="M841.069,-476.819C885.803,-454.622 952,-411.401 952,-350 952,-350 952,-350 952,-206 952,-157.427 930.637,-142.607 890,-116 860.83,-96.9014 770.765,-83.0753 709.134,-75.5465"/>
<polygon fill="midnightblue" stroke="midnightblue" points="709.466,-72.0613 699.12,-74.3479 708.634,-79.0117 709.466,-72.0613"/>
</g>
<!-- Node20&#45;&gt;Node17 -->
<g id="edge58" class="edge"><title>Node20&#45;&gt;Node17</title>
<path fill="none" stroke="midnightblue" d="M771.121,-476.95C736.458,-455.703 679.874,-416.245 647,-368 615.839,-322.269 596.994,-258.929 588.81,-226.673"/>
<polygon fill="midnightblue" stroke="midnightblue" points="592.132,-225.523 586.357,-216.64 585.332,-227.185 592.132,-225.523"/>
</g>
<!-- Node21 -->
<g id="node51" class="node"><title>Node21</title>
<a xlink:href="../../de/da3/write__access__violation_8hh.html" target="_top" xlink:title="harpoon/memory/exception\l/write_access_violation.hh">
<polygon fill="white" stroke="black" points="734,-405 734,-439 868,-439 868,-405 734,-405"/>
<text text-anchor="start" x="742" y="-426" font-family="Helvetica,sans-Serif" font-size="10.00">harpoon/memory/exception</text>
<text text-anchor="middle" x="801" y="-413" font-family="Helvetica,sans-Serif" font-size="10.00">/write_access_violation.hh</text>
</a>
</g>
<!-- Node20&#45;&gt;Node21 -->
<g id="edge60" class="edge"><title>Node20&#45;&gt;Node21</title>
<path fill="none" stroke="midnightblue" d="M801,-476.937C801,-468.807 801,-458.876 801,-449.705"/>
<polygon fill="midnightblue" stroke="midnightblue" points="804.5,-449.441 801,-439.441 797.5,-449.441 804.5,-449.441"/>
</g>
<!-- Node21&#45;&gt;Node2 -->
<g id="edge62" class="edge"><title>Node21&#45;&gt;Node2</title>
<path fill="none" stroke="midnightblue" d="M827.208,-404.987C860.59,-381.019 914,-333.93 914,-278 914,-278 914,-278 914,-206 914,-114.527 788.139,-84.0734 709.569,-73.9742"/>
<polygon fill="midnightblue" stroke="midnightblue" points="709.635,-70.4569 699.287,-72.7334 708.796,-77.4065 709.635,-70.4569"/>
</g>
<!-- Node22 -->
<g id="node54" class="node"><title>Node22</title>
<a xlink:href="../../d2/d41/access__violation_8hh.html" target="_top" xlink:title="harpoon/memory/exception\l/access_violation.hh">
<polygon fill="white" stroke="black" points="656,-333 656,-367 790,-367 790,-333 656,-333"/>
<text text-anchor="start" x="664" y="-354" font-family="Helvetica,sans-Serif" font-size="10.00">harpoon/memory/exception</text>
<text text-anchor="middle" x="723" y="-341" font-family="Helvetica,sans-Serif" font-size="10.00">/access_violation.hh</text>
</a>
</g>
<!-- Node21&#45;&gt;Node22 -->
<g id="edge64" class="edge"><title>Node21&#45;&gt;Node22</title>
<path fill="none" stroke="midnightblue" d="M782.515,-404.937C772.582,-395.768 760.167,-384.308 749.25,-374.231"/>
<polygon fill="midnightblue" stroke="midnightblue" points="751.345,-371.401 741.623,-367.19 746.597,-376.545 751.345,-371.401"/>
</g>
<!-- Node22&#45;&gt;Node2 -->
<g id="edge66" class="edge"><title>Node22&#45;&gt;Node2</title>
<path fill="none" stroke="midnightblue" d="M715.158,-332.746C710.602,-322.27 704.991,-308.54 701,-296 677.217,-221.271 659.071,-129.608 651.656,-89.4659"/>
<polygon fill="midnightblue" stroke="midnightblue" points="655.088,-88.778 649.853,-79.5669 648.201,-90.0322 655.088,-88.778"/>
</g>
<!-- Node22&#45;&gt;Node17 -->
<g id="edge82" class="edge"><title>Node22&#45;&gt;Node17</title>
<path fill="none" stroke="midnightblue" d="M704.97,-332.685C694.138,-322.186 680.144,-308.455 668,-296 644.192,-271.582 617.429,-242.639 600.644,-224.298"/>
<polygon fill="midnightblue" stroke="midnightblue" points="603.008,-221.696 593.681,-216.671 597.839,-226.416 603.008,-221.696"/>
</g>
<!-- Node23 -->
<g id="node57" class="node"><title>Node23</title>
<a xlink:href="../../df/d8d/memory__exception_8hh.html" target="_top" xlink:title="harpoon/memory/exception\l/memory_exception.hh">
<polygon fill="white" stroke="black" points="710,-261 710,-295 844,-295 844,-261 710,-261"/>
<text text-anchor="start" x="718" y="-282" font-family="Helvetica,sans-Serif" font-size="10.00">harpoon/memory/exception</text>
<text text-anchor="middle" x="777" y="-269" font-family="Helvetica,sans-Serif" font-size="10.00">/memory_exception.hh</text>
</a>
</g>
<!-- Node22&#45;&gt;Node23 -->
<g id="edge68" class="edge"><title>Node22&#45;&gt;Node23</title>
<path fill="none" stroke="midnightblue" d="M735.797,-332.937C742.359,-324.189 750.484,-313.354 757.781,-303.626"/>
<polygon fill="midnightblue" stroke="midnightblue" points="760.719,-305.541 763.919,-295.441 755.119,-301.341 760.719,-305.541"/>
</g>
<!-- Node23&#45;&gt;Node2 -->
<g id="edge70" class="edge"><title>Node23&#45;&gt;Node2</title>
<path fill="none" stroke="midnightblue" d="M763.238,-260.679C755.484,-250.405 745.984,-236.905 739,-224 714.41,-178.563 724.633,-159.004 696,-116 688.701,-105.038 678.502,-94.6014 669.381,-86.3602"/>
<polygon fill="midnightblue" stroke="midnightblue" points="671.588,-83.6412 661.744,-79.7249 666.997,-88.9255 671.588,-83.6412"/>
</g>
<!-- Node24 -->
<g id="node60" class="node"><title>Node24</title>
<a xlink:href="../../df/d18/hardware__component__exception_8hh.html" target="_top" xlink:title="harpoon/exception/hardware\l_component_exception.hh">
<polygon fill="white" stroke="black" points="747.5,-189 747.5,-223 886.5,-223 886.5,-189 747.5,-189"/>
<text text-anchor="start" x="755.5" y="-210" font-family="Helvetica,sans-Serif" font-size="10.00">harpoon/exception/hardware</text>
<text text-anchor="middle" x="817" y="-197" font-family="Helvetica,sans-Serif" font-size="10.00">_component_exception.hh</text>
</a>
</g>
<!-- Node23&#45;&gt;Node24 -->
<g id="edge72" class="edge"><title>Node23&#45;&gt;Node24</title>
<path fill="none" stroke="midnightblue" d="M786.479,-260.937C791.241,-252.365 797.116,-241.791 802.435,-232.217"/>
<polygon fill="midnightblue" stroke="midnightblue" points="805.514,-233.882 807.311,-223.441 799.395,-230.482 805.514,-233.882"/>
</g>
<!-- Node24&#45;&gt;Node2 -->
<g id="edge74" class="edge"><title>Node24&#45;&gt;Node2</title>
<path fill="none" stroke="midnightblue" d="M804.024,-188.852C788.773,-169.49 761.976,-137.847 734,-116 717.97,-103.481 698.158,-92.406 681.593,-84.1555"/>
<polygon fill="midnightblue" stroke="midnightblue" points="682.792,-80.8475 672.267,-79.6346 679.739,-87.1464 682.792,-80.8475"/>
</g>
<!-- Node25 -->
<g id="node63" class="node"><title>Node25</title>
<a xlink:href="../../d5/d38/harpoon__exception_8hh.html" target="_top" xlink:title="harpoon/exception/harpoon\l_exception.hh">
<polygon fill="white" stroke="black" points="1018,-117 1018,-151 1152,-151 1152,-117 1018,-117"/>
<text text-anchor="start" x="1026" y="-138" font-family="Helvetica,sans-Serif" font-size="10.00">harpoon/exception/harpoon</text>
<text text-anchor="middle" x="1085" y="-125" font-family="Helvetica,sans-Serif" font-size="10.00">_exception.hh</text>
</a>
</g>
<!-- Node24&#45;&gt;Node25 -->
<g id="edge76" class="edge"><title>Node24&#45;&gt;Node25</title>
<path fill="none" stroke="midnightblue" d="M880.512,-188.937C919.92,-178.35 970.697,-164.708 1011.79,-153.667"/>
<polygon fill="midnightblue" stroke="midnightblue" points="1012.73,-157.04 1021.48,-151.065 1010.91,-150.28 1012.73,-157.04"/>
</g>
<!-- Node25&#45;&gt;Node2 -->
<g id="edge78" class="edge"><title>Node25&#45;&gt;Node2</title>
<path fill="none" stroke="midnightblue" d="M1017.91,-118.617C1013.21,-117.686 1008.54,-116.802 1004,-116 901.164,-97.8214 780.482,-83.3091 709.339,-75.4486"/>
<polygon fill="midnightblue" stroke="midnightblue" points="709.532,-71.9488 699.21,-74.3374 708.768,-78.9071 709.532,-71.9488"/>
</g>
<!-- Node26 -->
<g id="node66" class="node"><title>Node26</title>
<polygon fill="white" stroke="#bfbfbf" points="1055.5,-58.5 1055.5,-79.5 1114.5,-79.5 1114.5,-58.5 1055.5,-58.5"/>
<text text-anchor="middle" x="1085" y="-66.5" font-family="Helvetica,sans-Serif" font-size="10.00">stdexcept</text>
</g>
<!-- Node25&#45;&gt;Node26 -->
<g id="edge80" class="edge"><title>Node25&#45;&gt;Node26</title>
<path fill="none" stroke="midnightblue" d="M1085,-116.922C1085,-108.67 1085,-98.6922 1085,-89.9818"/>
<polygon fill="midnightblue" stroke="midnightblue" points="1088.5,-89.8521 1085,-79.8521 1081.5,-89.8521 1088.5,-89.8521"/>
</g>
</g>
</svg>
        <g id="navigator" transform="translate(0 0)" fill="#404254">
                <rect fill="#f2f5e9" fill-opacity="0.5" stroke="#606060" stroke-width=".5" x="0" y="0" width="60" height="60"/>
                <use id="zoomplus" xlink:href="#zoomPlus" x="17" y="9" onmousedown="handleZoom(evt,'in')"/>
                <use id="zoomminus" xlink:href="#zoomMin" x="42" y="9" onmousedown="handleZoom(evt,'out')"/>
                <use id="reset" xlink:href="#resetDef" x="30" y="36" onmousedown="handleReset()"/>
                <g id="arrowUp" xlink:href="#dirArrow" transform="translate(30 24)" onmousedown="handlePan(0,-1)">
                  <use xlink:href="#rim" fill="#404040">
                        <set attributeName="fill" to="#808080" begin="arrowUp.mouseover" end="arrowUp.mouseout"/>
                  </use>
                  <path fill="none" stroke="white" stroke-width="1.5" d="M0,-3.0v7 M-2.5,-0.5L0,-3.0L2.5,-0.5"/>
                </g>
                <g id="arrowRight" xlink:href="#dirArrow" transform="rotate(90) translate(36 -43)" onmousedown="handlePan(1,0)">
                  <use xlink:href="#rim" fill="#404040">
                        <set attributeName="fill" to="#808080" begin="arrowRight.mouseover" end="arrowRight.mouseout"/>
                  </use>
                  <path fill="none" stroke="white" stroke-width="1.5" d="M0,-3.0v7 M-2.5,-0.5L0,-3.0L2.5,-0.5"/>
                </g>
                <g id="arrowDown" xlink:href="#dirArrow" transform="rotate(180) translate(-30 -48)" onmousedown="handlePan(0,1)">
                  <use xlink:href="#rim" fill="#404040">
                        <set attributeName="fill" to="#808080" begin="arrowDown.mouseover" end="arrowDown.mouseout"/>
                  </use>
                  <path fill="none" stroke="white" stroke-width="1.5" d="M0,-3.0v7 M-2.5,-0.5L0,-3.0L2.5,-0.5"/>
                </g>
                <g id="arrowLeft" xlink:href="#dirArrow" transform="rotate(270) translate(-36 17)" onmousedown="handlePan(-1,0)">
                  <use xlink:href="#rim" fill="#404040">
                        <set attributeName="fill" to="#808080" begin="arrowLeft.mouseover" end="arrowLeft.mouseout"/>
                  </use>
                  <path fill="none" stroke="white" stroke-width="1.5" d="M0,-3.0v7 M-2.5,-0.5L0,-3.0L2.5,-0.5"/>
                </g>
        </g>
        <svg viewBox="0 0 15 15" width="100%" height="30px" preserveAspectRatio="xMaxYMin meet">
         <g id="arrow_out" transform="scale(0.3 0.3)">
          <a xlink:href="chunked__read__only__memory_8hh__incl_org.svg" target="_base">
           <rect id="button" ry="5" rx="5" y="6" x="6" height="38" width="38"
                fill="#f2f5e9" fill-opacity="0.5" stroke="#606060" stroke-width="1.0"/>
           <path id="arrow"
             d="M 11.500037,31.436501 C 11.940474,20.09759 22.043105,11.32322 32.158766,21.979434 L 37.068811,17.246167 C 37.068811,17.246167 37.088388,32 37.088388,32 L 22.160133,31.978069 C 22.160133,31.978069 26.997745,27.140456 26.997745,27.140456 C 18.528582,18.264221 13.291696,25.230495 11.500037,31.436501 z"
             style="fill:#404040;"/>
          </a>
         </g>
        </svg>
</svg>
