<?xml version="1.0" encoding="UTF-8" standalone="no"?>
<!DOCTYPE svg PUBLIC "-//W3C//DTD SVG 1.1//EN"
 "http://www.w3.org/Graphics/SVG/1.1/DTD/svg11.dtd">
<!-- Generated by graphviz version 2.26.3 (20100126.1600)
 -->
<!-- Title: harpoon/memory/chunked_read_only_memory.hh Pages: 1 -->
<svg width="1166pt" height="592pt"
 viewBox="0.00 0.00 1166.00 592.00" xmlns="http://www.w3.org/2000/svg" xmlns:xlink="http://www.w3.org/1999/xlink">
<g id="graph1" class="graph" transform="scale(1 1) rotate(0) translate(4 588)">
<title>harpoon/memory/chunked_read_only_memory.hh</title>
<polygon fill="white" stroke="white" points="-4,5 -4,-588 1163,-588 1163,5 -4,5"/>
<!-- Node1 -->
<g id="node1" class="node"><title>Node1</title>
<polygon fill="#bfbfbf" stroke="black" points="758.5,-549 758.5,-583 887.5,-583 887.5,-549 758.5,-549"/>
<text text-anchor="start" x="766.5" y="-570" font-family="Helvetica,sans-Serif" font-size="10.00">harpoon/memory/chunked</text>
<text text-anchor="middle" x="823" y="-557" font-family="Helvetica,sans-Serif" font-size="10.00">_read_only_memory.hh</text>
</g>
<!-- Node2 -->
<g id="node3" class="node"><title>Node2</title>
<a xlink:href="../../d5/d08/harpoon_8hh.html" target="_top" xlink:title="Harpoon library common header file. ">
<polygon fill="white" stroke="black" points="603,-58.5 603,-79.5 705,-79.5 705,-58.5 603,-58.5"/>
<text text-anchor="middle" x="654" y="-66.5" font-family="Helvetica,sans-Serif" font-size="10.00">harpoon/harpoon.hh</text>
</a>
</g>
<!-- Node1&#45;&gt;Node2 -->
<g id="edge2" class="edge"><title>Node1&#45;&gt;Node2</title>
<path fill="none" stroke="midnightblue" d="M872.575,-548.983C923.696,-527.91 996,-486.674 996,-422 996,-422 996,-422 996,-206 996,-156.918 973.584,-142.075 932,-116 896.772,-93.9106 785.862,-80.4402 715.238,-73.8776"/>
<polygon fill="midnightblue" stroke="midnightblue" points="715.4,-70.378 705.125,-72.9593 714.767,-77.3493 715.4,-70.378"/>
</g>
<!-- Node6 -->
<g id="node11" class="node"><title>Node6</title>
<a xlink:href="../../dc/d1d/chunked__memory_8hh.html" target="_top" xlink:title="harpoon/memory/chunked\l_memory.hh">
<polygon fill="white" stroke="black" points="402.5,-405 402.5,-439 531.5,-439 531.5,-405 402.5,-405"/>
<text text-anchor="start" x="410.5" y="-426" font-family="Helvetica,sans-Serif" font-size="10.00">harpoon/memory/chunked</text>
<text text-anchor="middle" x="467" y="-413" font-family="Helvetica,sans-Serif" font-size="10.00">_memory.hh</text>
</a>
</g>
<!-- Node1&#45;&gt;Node6 -->
<g id="edge10" class="edge"><title>Node1&#45;&gt;Node6</title>
<path fill="none" stroke="midnightblue" d="M780.764,-548.916C715.327,-522.447 589.619,-471.599 518.798,-442.952"/>
<polygon fill="midnightblue" stroke="midnightblue" points="519.764,-439.567 509.181,-439.062 517.139,-446.056 519.764,-439.567"/>
</g>
<!-- Node18 -->
<g id="node43" class="node"><title>Node18</title>
<a xlink:href="../../d9/d5e/read__only__memory_8hh.html" target="_top" xlink:title="harpoon/memory/read\l_only_memory.hh">
<polygon fill="white" stroke="black" points="767.5,-477 767.5,-511 878.5,-511 878.5,-477 767.5,-477"/>
<text text-anchor="start" x="775.5" y="-498" font-family="Helvetica,sans-Serif" font-size="10.00">harpoon/memory/read</text>
<text text-anchor="middle" x="823" y="-485" font-family="Helvetica,sans-Serif" font-size="10.00">_only_memory.hh</text>
</a>
</g>
<!-- Node1&#45;&gt;Node18 -->
<g id="edge50" class="edge"><title>Node1&#45;&gt;Node18</title>
<path fill="none" stroke="midnightblue" d="M823,-548.937C823,-540.807 823,-530.876 823,-521.705"/>
<polygon fill="midnightblue" stroke="midnightblue" points="826.5,-521.441 823,-511.441 819.5,-521.441 826.5,-521.441"/>
</g>
<!-- Node3 -->
<g id="node5" class="node"><title>Node3</title>
<polygon fill="white" stroke="#bfbfbf" points="569.5,-0.5 569.5,-21.5 610.5,-21.5 610.5,-0.5 569.5,-0.5"/>
<text text-anchor="middle" x="590" y="-8.5" font-family="Helvetica,sans-Serif" font-size="10.00">string</text>
</g>
<!-- Node2&#45;&gt;Node3 -->
<g id="edge4" class="edge"><title>Node2&#45;&gt;Node3</title>
<path fill="none" stroke="midnightblue" d="M642.261,-58.3619C633.059,-50.0226 620.06,-38.2418 609.328,-28.5162"/>
<polygon fill="midnightblue" stroke="midnightblue" points="611.424,-25.6924 601.664,-21.5707 606.724,-30.8793 611.424,-25.6924"/>
</g>
<!-- Node4 -->
<g id="node7" class="node"><title>Node4</title>
<polygon fill="white" stroke="#bfbfbf" points="628,-0.5 628,-21.5 680,-21.5 680,-0.5 628,-0.5"/>
<text text-anchor="middle" x="654" y="-8.5" font-family="Helvetica,sans-Serif" font-size="10.00">memory</text>
</g>
<!-- Node2&#45;&gt;Node4 -->
<g id="edge6" class="edge"><title>Node2&#45;&gt;Node4</title>
<path fill="none" stroke="midnightblue" d="M654,-58.3619C654,-50.9219 654,-40.7427 654,-31.7276"/>
<polygon fill="midnightblue" stroke="midnightblue" points="657.5,-31.5706 654,-21.5707 650.5,-31.5707 657.5,-31.5706"/>
</g>
<!-- Node5 -->
<g id="node9" class="node"><title>Node5</title>
<polygon fill="white" stroke="#bfbfbf" points="698,-0.5 698,-21.5 738,-21.5 738,-0.5 698,-0.5"/>
<text text-anchor="middle" x="718" y="-8.5" font-family="Helvetica,sans-Serif" font-size="10.00">utility</text>
</g>
<!-- Node2&#45;&gt;Node5 -->
<g id="edge8" class="edge"><title>Node2&#45;&gt;Node5</title>
<path fill="none" stroke="midnightblue" d="M665.739,-58.3619C674.941,-50.0226 687.94,-38.2418 698.672,-28.5162"/>
<polygon fill="midnightblue" stroke="midnightblue" points="701.276,-30.8793 706.336,-21.5707 696.576,-25.6924 701.276,-30.8793"/>
</g>
<!-- Node6&#45;&gt;Node2 -->
<g id="edge12" class="edge"><title>Node6&#45;&gt;Node2</title>
<path fill="none" stroke="midnightblue" d="M471.939,-404.878C479.225,-378.066 492,-324.434 492,-278 492,-278 492,-278 492,-206 492,-142.939 564.455,-102.951 612.454,-83.3789"/>
<polygon fill="midnightblue" stroke="midnightblue" points="613.971,-86.5431 621.994,-79.6237 611.407,-80.0296 613.971,-86.5431"/>
</g>
<!-- Node7 -->
<g id="node14" class="node"><title>Node7</title>
<a xlink:href="../../dc/d3f/memory_8hh.html" target="_top" xlink:title="harpoon/memory/memory.hh">
<polygon fill="white" stroke="black" points="261.5,-339.5 261.5,-360.5 402.5,-360.5 402.5,-339.5 261.5,-339.5"/>
<text text-anchor="middle" x="332" y="-347.5" font-family="Helvetica,sans-Serif" font-size="10.00">harpoon/memory/memory.hh</text>
</a>
</g>
<!-- Node6&#45;&gt;Node7 -->
<g id="edge14" class="edge"><title>Node6&#45;&gt;Node7</title>
<path fill="none" stroke="midnightblue" d="M435.007,-404.937C412.593,-392.983 382.878,-377.135 361.125,-365.533"/>
<polygon fill="midnightblue" stroke="midnightblue" points="362.511,-362.306 352.04,-360.688 359.217,-368.482 362.511,-362.306"/>
</g>
<!-- Node17 -->
<g id="node41" class="node"><title>Node17</title>
<polygon fill="white" stroke="#bfbfbf" points="420,-339.5 420,-360.5 464,-360.5 464,-339.5 420,-339.5"/>
<text text-anchor="middle" x="442" y="-347.5" font-family="Helvetica,sans-Serif" font-size="10.00">vector</text>
</g>
<!-- Node6&#45;&gt;Node17 -->
<g id="edge48" class="edge"><title>Node6&#45;&gt;Node17</title>
<path fill="none" stroke="midnightblue" d="M461.075,-404.937C457.486,-394.601 452.886,-381.352 449.103,-370.456"/>
<polygon fill="midnightblue" stroke="midnightblue" points="452.372,-369.2 445.785,-360.901 445.759,-371.496 452.372,-369.2"/>
</g>
<!-- Node7&#45;&gt;Node2 -->
<g id="edge16" class="edge"><title>Node7&#45;&gt;Node2</title>
<path fill="none" stroke="midnightblue" d="M368.562,-339.446C390.944,-331.148 418.386,-317.353 435,-296 485.508,-231.083 420.614,-174.925 478,-116 494.018,-99.552 548.479,-86.643 592.625,-78.5494"/>
<polygon fill="midnightblue" stroke="midnightblue" points="593.5,-81.9485 602.73,-76.7463 592.271,-75.0573 593.5,-81.9485"/>
</g>
<!-- Node8 -->
<g id="node17" class="node"><title>Node8</title>
<a xlink:href="../../d5/d09/hardware__component_8hh.html" target="_top" xlink:title="Hardware component. ">
<polygon fill="white" stroke="black" points="83.5,-267.5 83.5,-288.5 244.5,-288.5 244.5,-267.5 83.5,-267.5"/>
<text text-anchor="middle" x="164" y="-275.5" font-family="Helvetica,sans-Serif" font-size="10.00">harpoon/hardware_component.hh</text>
</a>
</g>
<!-- Node7&#45;&gt;Node8 -->
<g id="edge18" class="edge"><title>Node7&#45;&gt;Node8</title>
<path fill="none" stroke="midnightblue" d="M307.211,-339.376C278.343,-327.004 230.491,-306.496 198.126,-292.625"/>
<polygon fill="midnightblue" stroke="midnightblue" points="199.187,-289.272 188.617,-288.55 196.43,-295.706 199.187,-289.272"/>
</g>
<!-- Node12 -->
<g id="node28" class="node"><title>Node12</title>
<polygon fill="white" stroke="#bfbfbf" points="279.5,-195.5 279.5,-216.5 308.5,-216.5 308.5,-195.5 279.5,-195.5"/>
<text text-anchor="middle" x="294" y="-203.5" font-family="Helvetica,sans-Serif" font-size="10.00">list</text>
</g>
<!-- Node7&#45;&gt;Node12 -->
<g id="edge46" class="edge"><title>Node7&#45;&gt;Node12</title>
<path fill="none" stroke="midnightblue" d="M320.414,-339.296C310.445,-329.232 296.783,-313.18 291,-296 283.323,-273.193 285.962,-245.275 289.288,-226.637"/>
<polygon fill="midnightblue" stroke="midnightblue" points="292.766,-227.097 291.307,-216.603 285.903,-225.716 292.766,-227.097"/>
</g>
<!-- Node14 -->
<g id="node32" class="node"><title>Node14</title>
<a xlink:href="../../d3/d22/address__range_8hh.html" target="_top" xlink:title="harpoon/memory/address\l_range.hh">
<polygon fill="white" stroke="black" points="299.5,-261 299.5,-295 426.5,-295 426.5,-261 299.5,-261"/>
<text text-anchor="start" x="307.5" y="-282" font-family="Helvetica,sans-Serif" font-size="10.00">harpoon/memory/address</text>
<text text-anchor="middle" x="363" y="-269" font-family="Helvetica,sans-Serif" font-size="10.00">_range.hh</text>
</a>
</g>
<!-- Node7&#45;&gt;Node14 -->
<g id="edge36" class="edge"><title>Node7&#45;&gt;Node14</title>
<path fill="none" stroke="midnightblue" d="M336.574,-339.376C340.534,-330.178 346.431,-316.483 351.65,-304.362"/>
<polygon fill="midnightblue" stroke="midnightblue" points="354.9,-305.663 355.64,-295.094 348.471,-302.895 354.9,-305.663"/>
</g>
<!-- Node8&#45;&gt;Node2 -->
<g id="edge20" class="edge"><title>Node8&#45;&gt;Node2</title>
<path fill="none" stroke="midnightblue" d="M166.357,-267.299C170.985,-248.686 182.971,-210.221 207,-188 272.387,-127.535 308.244,-140.028 394,-116 460.807,-97.2813 539.431,-84.275 592.588,-76.7653"/>
<polygon fill="midnightblue" stroke="midnightblue" points="593.116,-80.2257 602.539,-75.3818 592.152,-73.2924 593.116,-80.2257"/>
</g>
<!-- Node9 -->
<g id="node20" class="node"><title>Node9</title>
<a xlink:href="../../d3/de3/log_8hh.html" target="_top" xlink:title="harpoon/log/log.hh">
<polygon fill="white" stroke="black" points="64,-195.5 64,-216.5 160,-216.5 160,-195.5 64,-195.5"/>
<text text-anchor="middle" x="112" y="-203.5" font-family="Helvetica,sans-Serif" font-size="10.00">harpoon/log/log.hh</text>
</a>
</g>
<!-- Node8&#45;&gt;Node9 -->
<g id="edge22" class="edge"><title>Node8&#45;&gt;Node9</title>
<path fill="none" stroke="midnightblue" d="M156.327,-267.376C148.262,-256.209 135.411,-238.415 125.617,-224.855"/>
<polygon fill="midnightblue" stroke="midnightblue" points="128.397,-222.725 119.704,-216.667 122.722,-226.823 128.397,-222.725"/>
</g>
<!-- Node8&#45;&gt;Node12 -->
<g id="edge32" class="edge"><title>Node8&#45;&gt;Node12</title>
<path fill="none" stroke="midnightblue" d="M188.109,-267.489C210.29,-257.437 243.772,-241.288 271,-224 271.642,-223.592 272.288,-223.171 272.935,-222.738"/>
<polygon fill="midnightblue" stroke="midnightblue" points="275.156,-225.451 281.19,-216.742 271.042,-219.787 275.156,-225.451"/>
</g>
<!-- Node13 -->
<g id="node30" class="node"><title>Node13</title>
<polygon fill="white" stroke="#bfbfbf" points="216,-195.5 216,-216.5 262,-216.5 262,-195.5 216,-195.5"/>
<text text-anchor="middle" x="239" y="-203.5" font-family="Helvetica,sans-Serif" font-size="10.00">atomic</text>
</g>
<!-- Node8&#45;&gt;Node13 -->
<g id="edge34" class="edge"><title>Node8&#45;&gt;Node13</title>
<path fill="none" stroke="midnightblue" d="M175.067,-267.376C187.031,-255.89 206.299,-237.393 220.559,-223.703"/>
<polygon fill="midnightblue" stroke="midnightblue" points="223.098,-226.118 227.888,-216.667 218.25,-221.068 223.098,-226.118"/>
</g>
<!-- Node9&#45;&gt;Node2 -->
<g id="edge24" class="edge"><title>Node9&#45;&gt;Node2</title>
<path fill="none" stroke="midnightblue" d="M115.803,-195.406C123.433,-175.874 142.616,-134.498 174,-116 209.309,-95.1891 471.382,-78.7188 592.699,-72.1228"/>
<polygon fill="midnightblue" stroke="midnightblue" points="593.142,-75.6042 602.939,-71.5714 592.765,-68.6143 593.142,-75.6042"/>
</g>
<!-- Node10 -->
<g id="node23" class="node"><title>Node10</title>
<a xlink:href="../../d9/d74/message_8hh.html" target="_top" xlink:title="harpoon/log/message.hh">
<polygon fill="white" stroke="black" points="-0.5,-123.5 -0.5,-144.5 122.5,-144.5 122.5,-123.5 -0.5,-123.5"/>
<text text-anchor="middle" x="61" y="-131.5" font-family="Helvetica,sans-Serif" font-size="10.00">harpoon/log/message.hh</text>
</a>
</g>
<!-- Node9&#45;&gt;Node10 -->
<g id="edge26" class="edge"><title>Node9&#45;&gt;Node10</title>
<path fill="none" stroke="midnightblue" d="M104.475,-195.376C96.565,-184.209 83.9606,-166.415 74.3554,-152.855"/>
<polygon fill="midnightblue" stroke="midnightblue" points="77.1924,-150.805 68.5561,-144.667 71.4802,-154.851 77.1924,-150.805"/>
</g>
<!-- Node10&#45;&gt;Node2 -->
<g id="edge28" class="edge"><title>Node10&#45;&gt;Node2</title>
<path fill="none" stroke="midnightblue" d="M100.095,-123.483C111.593,-120.699 124.24,-117.934 136,-116 299.773,-89.0634 495.401,-76.5784 592.717,-71.6788"/>
<polygon fill="midnightblue" stroke="midnightblue" points="593.142,-75.1622 602.957,-71.1731 592.797,-68.1707 593.142,-75.1622"/>
</g>
<!-- Node11 -->
<g id="node26" class="node"><title>Node11</title>
<polygon fill="white" stroke="#bfbfbf" points="35,-58.5 35,-79.5 87,-79.5 87,-58.5 35,-58.5"/>
<text text-anchor="middle" x="61" y="-66.5" font-family="Helvetica,sans-Serif" font-size="10.00">sstream</text>
</g>
<!-- Node10&#45;&gt;Node11 -->
<g id="edge30" class="edge"><title>Node10&#45;&gt;Node11</title>
<path fill="none" stroke="midnightblue" d="M61,-123.267C61,-114.18 61,-100.892 61,-89.7395"/>
<polygon fill="midnightblue" stroke="midnightblue" points="64.5001,-89.5337 61,-79.5337 57.5001,-89.5337 64.5001,-89.5337"/>
</g>
<!-- Node14&#45;&gt;Node2 -->
<g id="edge38" class="edge"><title>Node14&#45;&gt;Node2</title>
<path fill="none" stroke="midnightblue" d="M362.867,-260.931C363.341,-242.197 365.968,-211.644 377,-188 394.979,-149.468 403.401,-137.645 440,-116 465.453,-100.947 538.925,-86.842 592.7,-78.086"/>
<polygon fill="midnightblue" stroke="midnightblue" points="593.514,-81.5003 602.834,-76.4609 592.406,-74.5886 593.514,-81.5003"/>
</g>
<!-- Node15 -->
<g id="node35" class="node"><title>Node15</title>
<a xlink:href="../../db/db3/address_8hh.html" target="_top" xlink:title="harpoon/memory/address.hh">
<polygon fill="white" stroke="black" points="520,-195.5 520,-216.5 660,-216.5 660,-195.5 520,-195.5"/>
<text text-anchor="middle" x="590" y="-203.5" font-family="Helvetica,sans-Serif" font-size="10.00">harpoon/memory/address.hh</text>
</a>
</g>
<!-- Node14&#45;&gt;Node15 -->
<g id="edge40" class="edge"><title>Node14&#45;&gt;Node15</title>
<path fill="none" stroke="midnightblue" d="M416.796,-260.937C456.463,-248.355 509.731,-231.46 546.675,-219.742"/>
<polygon fill="midnightblue" stroke="midnightblue" points="548.163,-222.942 556.637,-216.582 546.047,-216.269 548.163,-222.942"/>
</g>
<!-- Node16 -->
<g id="node38" class="node"><title>Node16</title>
<polygon fill="white" stroke="#bfbfbf" points="386,-195.5 386,-216.5 426,-216.5 426,-195.5 386,-195.5"/>
<text text-anchor="middle" x="406" y="-203.5" font-family="Helvetica,sans-Serif" font-size="10.00">limits</text>
</g>
<!-- Node14&#45;&gt;Node16 -->
<g id="edge44" class="edge"><title>Node14&#45;&gt;Node16</title>
<path fill="none" stroke="midnightblue" d="M373.19,-260.937C379.491,-250.387 387.603,-236.805 394.184,-225.785"/>
<polygon fill="midnightblue" stroke="midnightblue" points="397.367,-227.281 399.49,-216.901 391.357,-223.692 397.367,-227.281"/>
</g>
<!-- Node15&#45;&gt;Node2 -->
<g id="edge42" class="edge"><title>Node15&#45;&gt;Node2</title>
<path fill="none" stroke="midnightblue" d="M595.022,-195.25C605.724,-172.341 630.919,-118.409 644.661,-88.9919"/>
<polygon fill="midnightblue" stroke="midnightblue" points="647.94,-90.2418 649.001,-79.7002 641.598,-87.279 647.94,-90.2418"/>
</g>
<!-- Node18&#45;&gt;Node2 -->
<g id="edge52" class="edge"><title>Node18&#45;&gt;Node2</title>
<path fill="none" stroke="midnightblue" d="M856.718,-476.901C896.704,-453.944 958,-409.113 958,-350 958,-350 958,-350 958,-206 958,-157.427 936.637,-142.607 896,-116 866.83,-96.9014 776.765,-83.0753 715.134,-75.5465"/>
<polygon fill="midnightblue" stroke="midnightblue" points="715.466,-72.0613 705.12,-74.3479 714.634,-79.0117 715.466,-72.0613"/>
</g>
<!-- Node18&#45;&gt;Node15 -->
<g id="edge54" class="edge"><title>Node18&#45;&gt;Node15</title>
<path fill="none" stroke="midnightblue" d="M792.104,-476.926C756.154,-455.656 697.125,-416.175 661,-368 627.07,-322.751 605.211,-258.758 595.617,-226.413"/>
<polygon fill="midnightblue" stroke="midnightblue" points="598.961,-225.374 592.834,-216.73 592.233,-227.308 598.961,-225.374"/>
</g>
<!-- Node19 -->
<g id="node47" class="node"><title>Node19</title>
<a xlink:href="../../de/da3/write__access__violation_8hh.html" target="_top" xlink:title="harpoon/memory/exception\l/write_access_violation.hh">
<polygon fill="white" stroke="black" points="756,-405 756,-439 890,-439 890,-405 756,-405"/>
<text text-anchor="start" x="764" y="-426" font-family="Helvetica,sans-Serif" font-size="10.00">harpoon/memory/exception</text>
<text text-anchor="middle" x="823" y="-413" font-family="Helvetica,sans-Serif" font-size="10.00">/write_access_violation.hh</text>
</a>
</g>
<!-- Node18&#45;&gt;Node19 -->
<g id="edge56" class="edge"><title>Node18&#45;&gt;Node19</title>
<path fill="none" stroke="midnightblue" d="M823,-476.937C823,-468.807 823,-458.876 823,-449.705"/>
<polygon fill="midnightblue" stroke="midnightblue" points="826.5,-449.441 823,-439.441 819.5,-449.441 826.5,-449.441"/>
</g>
<!-- Node19&#45;&gt;Node2 -->
<g id="edge58" class="edge"><title>Node19&#45;&gt;Node2</title>
<path fill="none" stroke="midnightblue" d="M844.527,-404.985C873.104,-380.314 920,-331.654 920,-278 920,-278 920,-278 920,-206 920,-114.527 794.139,-84.0734 715.569,-73.9742"/>
<polygon fill="midnightblue" stroke="midnightblue" points="715.635,-70.4569 705.287,-72.7334 714.796,-77.4065 715.635,-70.4569"/>
</g>
<!-- Node20 -->
<g id="node50" class="node"><title>Node20</title>
<a xlink:href="../../d2/d41/access__violation_8hh.html" target="_top" xlink:title="harpoon/memory/exception\l/access_violation.hh">
<polygon fill="white" stroke="black" points="670,-333 670,-367 804,-367 804,-333 670,-333"/>
<text text-anchor="start" x="678" y="-354" font-family="Helvetica,sans-Serif" font-size="10.00">harpoon/memory/exception</text>
<text text-anchor="middle" x="737" y="-341" font-family="Helvetica,sans-Serif" font-size="10.00">/access_violation.hh</text>
</a>
</g>
<!-- Node19&#45;&gt;Node20 -->
<g id="edge60" class="edge"><title>Node19&#45;&gt;Node20</title>
<path fill="none" stroke="midnightblue" d="M802.619,-404.937C791.455,-395.59 777.447,-383.863 765.243,-373.646"/>
<polygon fill="midnightblue" stroke="midnightblue" points="767.447,-370.926 757.533,-367.19 762.953,-376.293 767.447,-370.926"/>
</g>
<!-- Node20&#45;&gt;Node2 -->
<g id="edge62" class="edge"><title>Node20&#45;&gt;Node2</title>
<path fill="none" stroke="midnightblue" d="M725.706,-332.605C719.441,-322.307 711.941,-308.807 707,-296 678.77,-222.835 662.91,-130.368 656.868,-89.743"/>
<polygon fill="midnightblue" stroke="midnightblue" points="660.314,-89.1164 655.422,-79.7185 653.385,-90.1158 660.314,-89.1164"/>
</g>
<!-- Node20&#45;&gt;Node15 -->
<g id="edge78" class="edge"><title>Node20&#45;&gt;Node15</title>
<path fill="none" stroke="midnightblue" d="M715.774,-332.811C703.307,-322.471 687.415,-308.859 674,-296 649.247,-272.272 622.529,-242.939 606.03,-224.344"/>
<polygon fill="midnightblue" stroke="midnightblue" points="608.453,-221.799 599.213,-216.614 603.203,-226.429 608.453,-221.799"/>
</g>
<!-- Node21 -->
<g id="node53" class="node"><title>Node21</title>
<a xlink:href="../../df/d8d/memory__exception_8hh.html" target="_top" xlink:title="harpoon/memory/exception\l/memory_exception.hh">
<polygon fill="white" stroke="black" points="716,-261 716,-295 850,-295 850,-261 716,-261"/>
<text text-anchor="start" x="724" y="-282" font-family="Helvetica,sans-Serif" font-size="10.00">harpoon/memory/exception</text>
<text text-anchor="middle" x="783" y="-269" font-family="Helvetica,sans-Serif" font-size="10.00">/memory_exception.hh</text>
</a>
</g>
<!-- Node20&#45;&gt;Node21 -->
<g id="edge64" class="edge"><title>Node20&#45;&gt;Node21</title>
<path fill="none" stroke="midnightblue" d="M747.901,-332.937C753.434,-324.277 760.273,-313.573 766.44,-303.921"/>
<polygon fill="midnightblue" stroke="midnightblue" points="769.423,-305.752 771.857,-295.441 763.524,-301.983 769.423,-305.752"/>
</g>
<!-- Node21&#45;&gt;Node2 -->
<g id="edge66" class="edge"><title>Node21&#45;&gt;Node2</title>
<path fill="none" stroke="midnightblue" d="M769.238,-260.679C761.484,-250.405 751.984,-236.905 745,-224 720.41,-178.563 730.633,-159.004 702,-116 694.701,-105.038 684.502,-94.6014 675.381,-86.3602"/>
<polygon fill="midnightblue" stroke="midnightblue" points="677.588,-83.6412 667.744,-79.7249 672.997,-88.9255 677.588,-83.6412"/>
</g>
<!-- Node22 -->
<g id="node56" class="node"><title>Node22</title>
<a xlink:href="../../df/d18/hardware__component__exception_8hh.html" target="_top" xlink:title="harpoon/exception/hardware\l_component_exception.hh">
<polygon fill="white" stroke="black" points="753.5,-189 753.5,-223 892.5,-223 892.5,-189 753.5,-189"/>
<text text-anchor="start" x="761.5" y="-210" font-family="Helvetica,sans-Serif" font-size="10.00">harpoon/exception/hardware</text>
<text text-anchor="middle" x="823" y="-197" font-family="Helvetica,sans-Serif" font-size="10.00">_component_exception.hh</text>
</a>
</g>
<!-- Node21&#45;&gt;Node22 -->
<g id="edge68" class="edge"><title>Node21&#45;&gt;Node22</title>
<path fill="none" stroke="midnightblue" d="M792.479,-260.937C797.241,-252.365 803.116,-241.791 808.435,-232.217"/>
<polygon fill="midnightblue" stroke="midnightblue" points="811.514,-233.882 813.311,-223.441 805.395,-230.482 811.514,-233.882"/>
</g>
<!-- Node22&#45;&gt;Node2 -->
<g id="edge70" class="edge"><title>Node22&#45;&gt;Node2</title>
<path fill="none" stroke="midnightblue" d="M810.024,-188.852C794.773,-169.49 767.976,-137.847 740,-116 723.97,-103.481 704.158,-92.406 687.593,-84.1555"/>
<polygon fill="midnightblue" stroke="midnightblue" points="688.792,-80.8475 678.267,-79.6346 685.739,-87.1464 688.792,-80.8475"/>
</g>
<!-- Node23 -->
<g id="node59" class="node"><title>Node23</title>
<a xlink:href="../../d5/d38/harpoon__exception_8hh.html" target="_top" xlink:title="harpoon/exception/harpoon\l_exception.hh">
<polygon fill="white" stroke="black" points="1024,-117 1024,-151 1158,-151 1158,-117 1024,-117"/>
<text text-anchor="start" x="1032" y="-138" font-family="Helvetica,sans-Serif" font-size="10.00">harpoon/exception/harpoon</text>
<text text-anchor="middle" x="1091" y="-125" font-family="Helvetica,sans-Serif" font-size="10.00">_exception.hh</text>
</a>
</g>
<!-- Node22&#45;&gt;Node23 -->
<g id="edge72" class="edge"><title>Node22&#45;&gt;Node23</title>
<path fill="none" stroke="midnightblue" d="M886.512,-188.937C925.92,-178.35 976.697,-164.708 1017.79,-153.667"/>
<polygon fill="midnightblue" stroke="midnightblue" points="1018.73,-157.04 1027.48,-151.065 1016.91,-150.28 1018.73,-157.04"/>
</g>
<!-- Node23&#45;&gt;Node2 -->
<g id="edge74" class="edge"><title>Node23&#45;&gt;Node2</title>
<path fill="none" stroke="midnightblue" d="M1023.91,-118.617C1019.21,-117.686 1014.54,-116.802 1010,-116 907.164,-97.8214 786.482,-83.3091 715.339,-75.4486"/>
<polygon fill="midnightblue" stroke="midnightblue" points="715.532,-71.9488 705.21,-74.3374 714.768,-78.9071 715.532,-71.9488"/>
</g>
<!-- Node24 -->
<g id="node62" class="node"><title>Node24</title>
<polygon fill="white" stroke="#bfbfbf" points="1061.5,-58.5 1061.5,-79.5 1120.5,-79.5 1120.5,-58.5 1061.5,-58.5"/>
<text text-anchor="middle" x="1091" y="-66.5" font-family="Helvetica,sans-Serif" font-size="10.00">stdexcept</text>
</g>
<!-- Node23&#45;&gt;Node24 -->
<g id="edge76" class="edge"><title>Node23&#45;&gt;Node24</title>
<path fill="none" stroke="midnightblue" d="M1091,-116.922C1091,-108.67 1091,-98.6922 1091,-89.9818"/>
<polygon fill="midnightblue" stroke="midnightblue" points="1094.5,-89.8521 1091,-79.8521 1087.5,-89.8521 1094.5,-89.8521"/>
</g>
</g>
</svg>
