<?xml version="1.0" encoding="UTF-8" standalone="no"?>
<!DOCTYPE svg PUBLIC "-//W3C//DTD SVG 1.1//EN"
 "http://www.w3.org/Graphics/SVG/1.1/DTD/svg11.dtd">
<!-- Generated by graphviz version 2.26.3 (20100126.1600)
 -->
<!-- Title: harpoon/memory/read_only_memory.hh Pages: 1 -->
<svg width="404pt" height="520pt"
 viewBox="0.00 0.00 404.00 520.00" xmlns="http://www.w3.org/2000/svg" xmlns:xlink="http://www.w3.org/1999/xlink">
<g id="graph1" class="graph" transform="scale(1 1) rotate(0) translate(4 516)">
<title>harpoon/memory/read_only_memory.hh</title>
<polygon fill="white" stroke="white" points="-4,5 -4,-516 401,-516 401,5 -4,5"/>
<!-- Node1 -->
<g id="node1" class="node"><title>Node1</title>
<polygon fill="#bfbfbf" stroke="black" points="216.5,-477 216.5,-511 327.5,-511 327.5,-477 216.5,-477"/>
<text text-anchor="start" x="224.5" y="-498" font-family="Helvetica,sans-Serif" font-size="10.00">harpoon/memory/read</text>
<text text-anchor="middle" x="272" y="-485" font-family="Helvetica,sans-Serif" font-size="10.00">_only_memory.hh</text>
</g>
<!-- Node2 -->
<g id="node3" class="node"><title>Node2</title>
<a xlink:href="../../d5/d08/harpoon_8hh.html" target="_top" xlink:title="Harpoon library common header file. ">
<polygon fill="white" stroke="black" points="231,-58.5 231,-79.5 333,-79.5 333,-58.5 231,-58.5"/>
<text text-anchor="middle" x="282" y="-66.5" font-family="Helvetica,sans-Serif" font-size="10.00">harpoon/harpoon.hh</text>
</a>
</g>
<!-- Node1&#45;&gt;Node2 -->
<g id="edge2" class="edge"><title>Node1&#45;&gt;Node2</title>
<path fill="none" stroke="midnightblue" d="M302.017,-476.811C338.715,-453.3 396,-407.405 396,-350 396,-350 396,-350 396,-206 396,-151.748 342.525,-107.546 308.825,-85.0762"/>
<polygon fill="midnightblue" stroke="midnightblue" points="310.615,-82.0662 300.316,-79.5812 306.818,-87.9465 310.615,-82.0662"/>
</g>
<!-- Node6 -->
<g id="node11" class="node"><title>Node6</title>
<a xlink:href="../../db/db3/address_8hh.html" target="_top" xlink:title="harpoon/memory/address.hh">
<polygon fill="white" stroke="black" points="0,-267.5 0,-288.5 140,-288.5 140,-267.5 0,-267.5"/>
<text text-anchor="middle" x="70" y="-275.5" font-family="Helvetica,sans-Serif" font-size="10.00">harpoon/memory/address.hh</text>
</a>
</g>
<!-- Node1&#45;&gt;Node6 -->
<g id="edge10" class="edge"><title>Node1&#45;&gt;Node6</title>
<path fill="none" stroke="midnightblue" d="M243.781,-476.807C228.78,-466.985 210.496,-453.882 196,-440 147.985,-394.02 103.029,-329.009 82.1782,-297.133"/>
<polygon fill="midnightblue" stroke="midnightblue" points="85.1,-295.205 76.7285,-288.712 79.2232,-299.009 85.1,-295.205"/>
</g>
<!-- Node7 -->
<g id="node14" class="node"><title>Node7</title>
<a xlink:href="../../de/da3/write__access__violation_8hh.html" target="_top" xlink:title="harpoon/memory/exception\l/write_access_violation.hh">
<polygon fill="white" stroke="black" points="205,-405 205,-439 339,-439 339,-405 205,-405"/>
<text text-anchor="start" x="213" y="-426" font-family="Helvetica,sans-Serif" font-size="10.00">harpoon/memory/exception</text>
<text text-anchor="middle" x="272" y="-413" font-family="Helvetica,sans-Serif" font-size="10.00">/write_access_violation.hh</text>
</a>
</g>
<!-- Node1&#45;&gt;Node7 -->
<g id="edge14" class="edge"><title>Node1&#45;&gt;Node7</title>
<path fill="none" stroke="midnightblue" d="M272,-476.937C272,-468.807 272,-458.876 272,-449.705"/>
<polygon fill="midnightblue" stroke="midnightblue" points="275.5,-449.441 272,-439.441 268.5,-449.441 275.5,-449.441"/>
</g>
<!-- Node3 -->
<g id="node5" class="node"><title>Node3</title>
<polygon fill="white" stroke="#bfbfbf" points="197.5,-0.5 197.5,-21.5 238.5,-21.5 238.5,-0.5 197.5,-0.5"/>
<text text-anchor="middle" x="218" y="-8.5" font-family="Helvetica,sans-Serif" font-size="10.00">string</text>
</g>
<!-- Node2&#45;&gt;Node3 -->
<g id="edge4" class="edge"><title>Node2&#45;&gt;Node3</title>
<path fill="none" stroke="midnightblue" d="M270.261,-58.3619C261.059,-50.0226 248.06,-38.2418 237.328,-28.5162"/>
<polygon fill="midnightblue" stroke="midnightblue" points="239.424,-25.6924 229.664,-21.5707 234.724,-30.8793 239.424,-25.6924"/>
</g>
<!-- Node4 -->
<g id="node7" class="node"><title>Node4</title>
<polygon fill="white" stroke="#bfbfbf" points="256,-0.5 256,-21.5 308,-21.5 308,-0.5 256,-0.5"/>
<text text-anchor="middle" x="282" y="-8.5" font-family="Helvetica,sans-Serif" font-size="10.00">memory</text>
</g>
<!-- Node2&#45;&gt;Node4 -->
<g id="edge6" class="edge"><title>Node2&#45;&gt;Node4</title>
<path fill="none" stroke="midnightblue" d="M282,-58.3619C282,-50.9219 282,-40.7427 282,-31.7276"/>
<polygon fill="midnightblue" stroke="midnightblue" points="285.5,-31.5706 282,-21.5707 278.5,-31.5707 285.5,-31.5706"/>
</g>
<!-- Node5 -->
<g id="node9" class="node"><title>Node5</title>
<polygon fill="white" stroke="#bfbfbf" points="326,-0.5 326,-21.5 366,-21.5 366,-0.5 326,-0.5"/>
<text text-anchor="middle" x="346" y="-8.5" font-family="Helvetica,sans-Serif" font-size="10.00">utility</text>
</g>
<!-- Node2&#45;&gt;Node5 -->
<g id="edge8" class="edge"><title>Node2&#45;&gt;Node5</title>
<path fill="none" stroke="midnightblue" d="M293.739,-58.3619C302.941,-50.0226 315.94,-38.2418 326.672,-28.5162"/>
<polygon fill="midnightblue" stroke="midnightblue" points="329.276,-30.8793 334.336,-21.5707 324.576,-25.6924 329.276,-30.8793"/>
</g>
<!-- Node6&#45;&gt;Node2 -->
<g id="edge12" class="edge"><title>Node6&#45;&gt;Node2</title>
<path fill="none" stroke="midnightblue" d="M66.2433,-267.427C56.9521,-239.195 36.2028,-161.128 73,-116 82.4701,-104.386 162.86,-88.7659 221.116,-78.7879"/>
<polygon fill="midnightblue" stroke="midnightblue" points="221.711,-82.2369 230.986,-77.1146 220.541,-75.3353 221.711,-82.2369"/>
</g>
<!-- Node7&#45;&gt;Node2 -->
<g id="edge16" class="edge"><title>Node7&#45;&gt;Node2</title>
<path fill="none" stroke="midnightblue" d="M290.661,-404.901C315.954,-379.758 358,-330.123 358,-278 358,-278 358,-278 358,-206 358,-158.348 322.406,-111.755 299.936,-87.0887"/>
<polygon fill="midnightblue" stroke="midnightblue" points="302.289,-84.4821 292.889,-79.5945 297.189,-89.2773 302.289,-84.4821"/>
</g>
<!-- Node8 -->
<g id="node17" class="node"><title>Node8</title>
<a xlink:href="../../d2/d41/access__violation_8hh.html" target="_top" xlink:title="harpoon/memory/exception\l/access_violation.hh">
<polygon fill="white" stroke="black" points="177,-333 177,-367 311,-367 311,-333 177,-333"/>
<text text-anchor="start" x="185" y="-354" font-family="Helvetica,sans-Serif" font-size="10.00">harpoon/memory/exception</text>
<text text-anchor="middle" x="244" y="-341" font-family="Helvetica,sans-Serif" font-size="10.00">/access_violation.hh</text>
</a>
</g>
<!-- Node7&#45;&gt;Node8 -->
<g id="edge18" class="edge"><title>Node7&#45;&gt;Node8</title>
<path fill="none" stroke="midnightblue" d="M265.364,-404.937C262.1,-396.542 258.088,-386.227 254.426,-376.81"/>
<polygon fill="midnightblue" stroke="midnightblue" points="257.669,-375.492 250.782,-367.441 251.145,-378.029 257.669,-375.492"/>
</g>
<!-- Node8&#45;&gt;Node2 -->
<g id="edge20" class="edge"><title>Node8&#45;&gt;Node2</title>
<path fill="none" stroke="midnightblue" d="M269.994,-332.96C281.823,-323.618 294.59,-310.901 301,-296 331.554,-224.966 304.351,-130.018 289.795,-89.1247"/>
<polygon fill="midnightblue" stroke="midnightblue" points="292.992,-87.6809 286.245,-79.5123 286.426,-90.1056 292.992,-87.6809"/>
</g>
<!-- Node8&#45;&gt;Node6 -->
<g id="edge36" class="edge"><title>Node8&#45;&gt;Node6</title>
<path fill="none" stroke="midnightblue" d="M202.764,-332.937C173.008,-320.624 133.268,-304.18 105.042,-292.5"/>
<polygon fill="midnightblue" stroke="midnightblue" points="106.152,-289.172 95.5735,-288.582 103.475,-295.64 106.152,-289.172"/>
</g>
<!-- Node9 -->
<g id="node20" class="node"><title>Node9</title>
<a xlink:href="../../df/d8d/memory__exception_8hh.html" target="_top" xlink:title="harpoon/memory/exception\l/memory_exception.hh">
<polygon fill="white" stroke="black" points="158,-261 158,-295 292,-295 292,-261 158,-261"/>
<text text-anchor="start" x="166" y="-282" font-family="Helvetica,sans-Serif" font-size="10.00">harpoon/memory/exception</text>
<text text-anchor="middle" x="225" y="-269" font-family="Helvetica,sans-Serif" font-size="10.00">/memory_exception.hh</text>
</a>
</g>
<!-- Node8&#45;&gt;Node9 -->
<g id="edge22" class="edge"><title>Node8&#45;&gt;Node9</title>
<path fill="none" stroke="midnightblue" d="M239.497,-332.937C237.329,-324.719 234.674,-314.66 232.232,-305.406"/>
<polygon fill="midnightblue" stroke="midnightblue" points="235.538,-304.217 229.602,-295.441 228.77,-306.003 235.538,-304.217"/>
</g>
<!-- Node9&#45;&gt;Node2 -->
<g id="edge24" class="edge"><title>Node9&#45;&gt;Node2</title>
<path fill="none" stroke="midnightblue" d="M240.43,-260.795C248.523,-250.771 257.809,-237.479 263,-224 280.538,-178.459 282.806,-120.328 282.607,-89.8285"/>
<polygon fill="midnightblue" stroke="midnightblue" points="286.103,-89.5164 282.437,-79.5759 279.104,-89.6327 286.103,-89.5164"/>
</g>
<!-- Node10 -->
<g id="node23" class="node"><title>Node10</title>
<a xlink:href="../../df/d18/hardware__component__exception_8hh.html" target="_top" xlink:title="harpoon/exception/hardware\l_component_exception.hh">
<polygon fill="white" stroke="black" points="115.5,-189 115.5,-223 254.5,-223 254.5,-189 115.5,-189"/>
<text text-anchor="start" x="123.5" y="-210" font-family="Helvetica,sans-Serif" font-size="10.00">harpoon/exception/hardware</text>
<text text-anchor="middle" x="185" y="-197" font-family="Helvetica,sans-Serif" font-size="10.00">_component_exception.hh</text>
</a>
</g>
<!-- Node9&#45;&gt;Node10 -->
<g id="edge26" class="edge"><title>Node9&#45;&gt;Node10</title>
<path fill="none" stroke="midnightblue" d="M215.521,-260.937C210.759,-252.365 204.884,-241.791 199.565,-232.217"/>
<polygon fill="midnightblue" stroke="midnightblue" points="202.605,-230.482 194.689,-223.441 196.486,-233.882 202.605,-230.482"/>
</g>
<!-- Node10&#45;&gt;Node2 -->
<g id="edge28" class="edge"><title>Node10&#45;&gt;Node2</title>
<path fill="none" stroke="midnightblue" d="M198.13,-188.606C206.014,-178.079 216.192,-164.347 225,-152 240.504,-130.267 257.795,-104.926 269.224,-88.0161"/>
<polygon fill="midnightblue" stroke="midnightblue" points="272.233,-89.8136 274.921,-79.5654 266.429,-85.9004 272.233,-89.8136"/>
</g>
<!-- Node11 -->
<g id="node26" class="node"><title>Node11</title>
<a xlink:href="../../d5/d38/harpoon__exception_8hh.html" target="_top" xlink:title="harpoon/exception/harpoon\l_exception.hh">
<polygon fill="white" stroke="black" points="82,-117 82,-151 216,-151 216,-117 82,-117"/>
<text text-anchor="start" x="90" y="-138" font-family="Helvetica,sans-Serif" font-size="10.00">harpoon/exception/harpoon</text>
<text text-anchor="middle" x="149" y="-125" font-family="Helvetica,sans-Serif" font-size="10.00">_exception.hh</text>
</a>
</g>
<!-- Node10&#45;&gt;Node11 -->
<g id="edge30" class="edge"><title>Node10&#45;&gt;Node11</title>
<path fill="none" stroke="midnightblue" d="M176.469,-188.937C172.227,-180.454 167.005,-170.009 162.256,-160.513"/>
<polygon fill="midnightblue" stroke="midnightblue" points="165.323,-158.82 157.72,-151.441 159.062,-161.95 165.323,-158.82"/>
</g>
<!-- Node11&#45;&gt;Node2 -->
<g id="edge32" class="edge"><title>Node11&#45;&gt;Node2</title>
<path fill="none" stroke="midnightblue" d="M183.944,-116.922C204.807,-106.726 231.064,-93.8936 251.155,-84.0744"/>
<polygon fill="midnightblue" stroke="midnightblue" points="252.744,-87.1939 260.191,-79.6584 249.67,-80.9048 252.744,-87.1939"/>
</g>
<!-- Node12 -->
<g id="node29" class="node"><title>Node12</title>
<polygon fill="white" stroke="#bfbfbf" points="119.5,-58.5 119.5,-79.5 178.5,-79.5 178.5,-58.5 119.5,-58.5"/>
<text text-anchor="middle" x="149" y="-66.5" font-family="Helvetica,sans-Serif" font-size="10.00">stdexcept</text>
</g>
<!-- Node11&#45;&gt;Node12 -->
<g id="edge34" class="edge"><title>Node11&#45;&gt;Node12</title>
<path fill="none" stroke="midnightblue" d="M149,-116.922C149,-108.67 149,-98.6922 149,-89.9818"/>
<polygon fill="midnightblue" stroke="midnightblue" points="152.5,-89.8521 149,-79.8521 145.5,-89.8521 152.5,-89.8521"/>
</g>
</g>
</svg>
