<?xml version="1.0" encoding="UTF-8" standalone="no"?>
<!DOCTYPE svg PUBLIC "-//W3C//DTD SVG 1.1//EN"
 "http://www.w3.org/Graphics/SVG/1.1/DTD/svg11.dtd">
<!-- Generated by graphviz version 2.26.3 (20100126.1600)
 -->
<!-- Title: harpoon/clock/generator/dummy_generator.hh Pages: 1 -->
<svg width="330pt" height="290pt"
 viewBox="0.00 0.00 330.00 290.00" xmlns="http://www.w3.org/2000/svg" xmlns:xlink="http://www.w3.org/1999/xlink">
<g id="graph1" class="graph" transform="scale(1 1) rotate(0) translate(4 286)">
<title>harpoon/clock/generator/dummy_generator.hh</title>
<polygon fill="white" stroke="white" points="-4,5 -4,-286 327,-286 327,5 -4,5"/>
<!-- Node1 -->
<g id="node1" class="node"><title>Node1</title>
<polygon fill="#bfbfbf" stroke="black" points="45.5,-247 45.5,-281 166.5,-281 166.5,-247 45.5,-247"/>
<text text-anchor="start" x="53.5" y="-268" font-family="Helvetica,sans-Serif" font-size="10.00">harpoon/clock/generator</text>
<text text-anchor="middle" x="106" y="-255" font-family="Helvetica,sans-Serif" font-size="10.00">/dummy_generator.hh</text>
</g>
<!-- Node2 -->
<g id="node3" class="node"><title>Node2</title>
<a xlink:href="../../d5/d08/harpoon_8hh.html" target="_top" xlink:title="Harpoon library common header file. ">
<polygon fill="white" stroke="black" points="33,-58.5 33,-79.5 135,-79.5 135,-58.5 33,-58.5"/>
<text text-anchor="middle" x="84" y="-66.5" font-family="Helvetica,sans-Serif" font-size="10.00">harpoon/harpoon.hh</text>
</a>
</g>
<!-- Node1&#45;&gt;Node2 -->
<g id="edge2" class="edge"><title>Node1&#45;&gt;Node2</title>
<path fill="none" stroke="midnightblue" d="M103.319,-246.998C101.684,-236.376 99.6077,-222.406 98,-210 93.8623,-178.07 93.1726,-170.04 90,-138 88.4079,-121.921 86.834,-103.711 85.6979,-90.0367"/>
<polygon fill="midnightblue" stroke="midnightblue" points="89.1612,-89.4445 84.8558,-79.7639 82.1846,-90.0165 89.1612,-89.4445"/>
</g>
<!-- Node6 -->
<g id="node11" class="node"><title>Node6</title>
<a xlink:href="../../d8/d45/generator_8hh.html" target="_top" xlink:title="harpoon/clock/generator\l/generator.hh">
<polygon fill="white" stroke="black" points="106.5,-175 106.5,-209 227.5,-209 227.5,-175 106.5,-175"/>
<text text-anchor="start" x="114.5" y="-196" font-family="Helvetica,sans-Serif" font-size="10.00">harpoon/clock/generator</text>
<text text-anchor="middle" x="167" y="-183" font-family="Helvetica,sans-Serif" font-size="10.00">/generator.hh</text>
</a>
</g>
<!-- Node1&#45;&gt;Node6 -->
<g id="edge10" class="edge"><title>Node1&#45;&gt;Node6</title>
<path fill="none" stroke="midnightblue" d="M120.456,-246.937C127.943,-238.1 137.233,-227.135 145.539,-217.331"/>
<polygon fill="midnightblue" stroke="midnightblue" points="148.43,-219.333 152.224,-209.441 143.089,-214.808 148.43,-219.333"/>
</g>
<!-- Node3 -->
<g id="node5" class="node"><title>Node3</title>
<polygon fill="white" stroke="#bfbfbf" points="-0.5,-0.5 -0.5,-21.5 40.5,-21.5 40.5,-0.5 -0.5,-0.5"/>
<text text-anchor="middle" x="20" y="-8.5" font-family="Helvetica,sans-Serif" font-size="10.00">string</text>
</g>
<!-- Node2&#45;&gt;Node3 -->
<g id="edge4" class="edge"><title>Node2&#45;&gt;Node3</title>
<path fill="none" stroke="midnightblue" d="M72.2614,-58.3619C63.0594,-50.0226 50.0599,-38.2418 39.3283,-28.5162"/>
<polygon fill="midnightblue" stroke="midnightblue" points="41.4244,-25.6924 31.6642,-21.5707 36.7237,-30.8793 41.4244,-25.6924"/>
</g>
<!-- Node4 -->
<g id="node7" class="node"><title>Node4</title>
<polygon fill="white" stroke="#bfbfbf" points="58,-0.5 58,-21.5 110,-21.5 110,-0.5 58,-0.5"/>
<text text-anchor="middle" x="84" y="-8.5" font-family="Helvetica,sans-Serif" font-size="10.00">memory</text>
</g>
<!-- Node2&#45;&gt;Node4 -->
<g id="edge6" class="edge"><title>Node2&#45;&gt;Node4</title>
<path fill="none" stroke="midnightblue" d="M84,-58.3619C84,-50.9219 84,-40.7427 84,-31.7276"/>
<polygon fill="midnightblue" stroke="midnightblue" points="87.5001,-31.5706 84,-21.5707 80.5001,-31.5707 87.5001,-31.5706"/>
</g>
<!-- Node5 -->
<g id="node9" class="node"><title>Node5</title>
<polygon fill="white" stroke="#bfbfbf" points="128,-0.5 128,-21.5 168,-21.5 168,-0.5 128,-0.5"/>
<text text-anchor="middle" x="148" y="-8.5" font-family="Helvetica,sans-Serif" font-size="10.00">utility</text>
</g>
<!-- Node2&#45;&gt;Node5 -->
<g id="edge8" class="edge"><title>Node2&#45;&gt;Node5</title>
<path fill="none" stroke="midnightblue" d="M95.7386,-58.3619C104.941,-50.0226 117.94,-38.2418 128.672,-28.5162"/>
<polygon fill="midnightblue" stroke="midnightblue" points="131.276,-30.8793 136.336,-21.5707 126.576,-25.6924 131.276,-30.8793"/>
</g>
<!-- Node6&#45;&gt;Node2 -->
<g id="edge12" class="edge"><title>Node6&#45;&gt;Node2</title>
<path fill="none" stroke="midnightblue" d="M139.966,-174.913C127.054,-165.477 112.404,-152.694 103,-138 93.6063,-123.323 88.8026,-104.018 86.3791,-89.5606"/>
<polygon fill="midnightblue" stroke="midnightblue" points="89.836,-89.0099 84.9532,-79.6073 82.9067,-90.0026 89.836,-89.0099"/>
</g>
<!-- Node7 -->
<g id="node14" class="node"><title>Node7</title>
<a xlink:href="../../d3/dce/tick_8hh.html" target="_top" xlink:title="harpoon/clock/tick.hh">
<polygon fill="white" stroke="black" points="112,-116.5 112,-137.5 222,-137.5 222,-116.5 112,-116.5"/>
<text text-anchor="middle" x="167" y="-124.5" font-family="Helvetica,sans-Serif" font-size="10.00">harpoon/clock/tick.hh</text>
</a>
</g>
<!-- Node6&#45;&gt;Node7 -->
<g id="edge14" class="edge"><title>Node6&#45;&gt;Node7</title>
<path fill="none" stroke="midnightblue" d="M167,-174.922C167,-166.67 167,-156.692 167,-147.982"/>
<polygon fill="midnightblue" stroke="midnightblue" points="170.5,-147.852 167,-137.852 163.5,-147.852 170.5,-147.852"/>
</g>
<!-- Node8 -->
<g id="node17" class="node"><title>Node8</title>
<polygon fill="white" stroke="#bfbfbf" points="190,-58.5 190,-79.5 236,-79.5 236,-58.5 190,-58.5"/>
<text text-anchor="middle" x="213" y="-66.5" font-family="Helvetica,sans-Serif" font-size="10.00">atomic</text>
</g>
<!-- Node6&#45;&gt;Node8 -->
<g id="edge20" class="edge"><title>Node6&#45;&gt;Node8</title>
<path fill="none" stroke="midnightblue" d="M197.111,-174.936C210.087,-165.815 223.894,-153.294 231,-138 238.375,-122.127 232.115,-102.743 225.03,-88.5657"/>
<polygon fill="midnightblue" stroke="midnightblue" points="228.036,-86.7672 220.151,-79.69 221.901,-90.1393 228.036,-86.7672"/>
</g>
<!-- Node9 -->
<g id="node20" class="node"><title>Node9</title>
<polygon fill="white" stroke="#bfbfbf" points="278,-116.5 278,-137.5 322,-137.5 322,-116.5 278,-116.5"/>
<text text-anchor="middle" x="300" y="-124.5" font-family="Helvetica,sans-Serif" font-size="10.00">thread</text>
</g>
<!-- Node6&#45;&gt;Node9 -->
<g id="edge22" class="edge"><title>Node6&#45;&gt;Node9</title>
<path fill="none" stroke="midnightblue" d="M201.944,-174.922C222.807,-164.726 249.064,-151.894 269.155,-142.074"/>
<polygon fill="midnightblue" stroke="midnightblue" points="270.744,-145.194 278.191,-137.658 267.67,-138.905 270.744,-145.194"/>
</g>
<!-- Node7&#45;&gt;Node2 -->
<g id="edge16" class="edge"><title>Node7&#45;&gt;Node2</title>
<path fill="none" stroke="midnightblue" d="M151.777,-116.362C139.375,-107.696 121.654,-95.3126 107.443,-85.3819"/>
<polygon fill="midnightblue" stroke="midnightblue" points="109.329,-82.4297 99.127,-79.5707 105.319,-88.1676 109.329,-82.4297"/>
</g>
<!-- Node7&#45;&gt;Node8 -->
<g id="edge18" class="edge"><title>Node7&#45;&gt;Node8</title>
<path fill="none" stroke="midnightblue" d="M175.437,-116.362C181.792,-108.35 190.666,-97.1605 198.193,-87.6696"/>
<polygon fill="midnightblue" stroke="midnightblue" points="201.145,-89.5805 204.616,-79.5707 195.66,-85.2308 201.145,-89.5805"/>
</g>
</g>
</svg>
