<?xml version="1.0" encoding="UTF-8" standalone="no"?>
<!DOCTYPE svg PUBLIC "-//W3C//DTD SVG 1.1//EN"
 "http://www.w3.org/Graphics/SVG/1.1/DTD/svg11.dtd">
<!-- Generated by graphviz version 2.26.3 (20100126.1600)
 -->
<!-- Title: harpoon/clock/generator/dummy_generator.hh Pages: 1 -->
<svg width="362pt" height="290pt"
 viewBox="0.00 0.00 362.00 290.00" xmlns="http://www.w3.org/2000/svg" xmlns:xlink="http://www.w3.org/1999/xlink">
<g id="graph1" class="graph" transform="scale(1 1) rotate(0) translate(4 286)">
<title>harpoon/clock/generator/dummy_generator.hh</title>
<polygon fill="white" stroke="white" points="-4,5 -4,-286 359,-286 359,5 -4,5"/>
<!-- Node1 -->
<g id="node1" class="node"><title>Node1</title>
<polygon fill="#bfbfbf" stroke="black" points="77.5,-247 77.5,-281 198.5,-281 198.5,-247 77.5,-247"/>
<text text-anchor="start" x="85.5" y="-268" font-family="Helvetica,sans-Serif" font-size="10.00">harpoon/clock/generator</text>
<text text-anchor="middle" x="138" y="-255" font-family="Helvetica,sans-Serif" font-size="10.00">/dummy_generator.hh</text>
</g>
<!-- Node2 -->
<g id="node3" class="node"><title>Node2</title>
<a xlink:href="../../d5/d08/harpoon_8hh.html" target="_top" xlink:title="Harpoon library common header file. ">
<polygon fill="white" stroke="black" points="65,-58.5 65,-79.5 167,-79.5 167,-58.5 65,-58.5"/>
<text text-anchor="middle" x="116" y="-66.5" font-family="Helvetica,sans-Serif" font-size="10.00">harpoon/harpoon.hh</text>
</a>
</g>
<!-- Node1&#45;&gt;Node2 -->
<g id="edge2" class="edge"><title>Node1&#45;&gt;Node2</title>
<path fill="none" stroke="midnightblue" d="M135.319,-246.998C133.684,-236.376 131.608,-222.406 130,-210 125.862,-178.07 125.173,-170.04 122,-138 120.408,-121.921 118.834,-103.711 117.698,-90.0367"/>
<polygon fill="midnightblue" stroke="midnightblue" points="121.161,-89.4445 116.856,-79.7639 114.185,-90.0165 121.161,-89.4445"/>
</g>
<!-- Node7 -->
<g id="node13" class="node"><title>Node7</title>
<a xlink:href="../../d8/d45/generator_8hh.html" target="_top" xlink:title="harpoon/clock/generator\l/generator.hh">
<polygon fill="white" stroke="black" points="138.5,-175 138.5,-209 259.5,-209 259.5,-175 138.5,-175"/>
<text text-anchor="start" x="146.5" y="-196" font-family="Helvetica,sans-Serif" font-size="10.00">harpoon/clock/generator</text>
<text text-anchor="middle" x="199" y="-183" font-family="Helvetica,sans-Serif" font-size="10.00">/generator.hh</text>
</a>
</g>
<!-- Node1&#45;&gt;Node7 -->
<g id="edge12" class="edge"><title>Node1&#45;&gt;Node7</title>
<path fill="none" stroke="midnightblue" d="M152.456,-246.937C159.943,-238.1 169.233,-227.135 177.539,-217.331"/>
<polygon fill="midnightblue" stroke="midnightblue" points="180.43,-219.333 184.224,-209.441 175.089,-214.808 180.43,-219.333"/>
</g>
<!-- Node3 -->
<g id="node5" class="node"><title>Node3</title>
<polygon fill="white" stroke="#bfbfbf" points="-0.5,-0.5 -0.5,-21.5 40.5,-21.5 40.5,-0.5 -0.5,-0.5"/>
<text text-anchor="middle" x="20" y="-8.5" font-family="Helvetica,sans-Serif" font-size="10.00">string</text>
</g>
<!-- Node2&#45;&gt;Node3 -->
<g id="edge4" class="edge"><title>Node2&#45;&gt;Node3</title>
<path fill="none" stroke="midnightblue" d="M98.3921,-58.3619C83.7771,-49.532 62.7762,-36.844 46.1888,-26.8224"/>
<polygon fill="midnightblue" stroke="midnightblue" points="47.8653,-23.7461 37.4963,-21.5707 44.2455,-29.7376 47.8653,-23.7461"/>
</g>
<!-- Node4 -->
<g id="node7" class="node"><title>Node4</title>
<polygon fill="white" stroke="#bfbfbf" points="58,-0.5 58,-21.5 110,-21.5 110,-0.5 58,-0.5"/>
<text text-anchor="middle" x="84" y="-8.5" font-family="Helvetica,sans-Serif" font-size="10.00">memory</text>
</g>
<!-- Node2&#45;&gt;Node4 -->
<g id="edge6" class="edge"><title>Node2&#45;&gt;Node4</title>
<path fill="none" stroke="midnightblue" d="M110.131,-58.3619C105.845,-50.5949 99.9131,-39.8426 94.7839,-30.5458"/>
<polygon fill="midnightblue" stroke="midnightblue" points="97.7274,-28.6357 89.8321,-21.5707 91.5984,-32.0172 97.7274,-28.6357"/>
</g>
<!-- Node5 -->
<g id="node9" class="node"><title>Node5</title>
<polygon fill="white" stroke="#bfbfbf" points="128,-0.5 128,-21.5 168,-21.5 168,-0.5 128,-0.5"/>
<text text-anchor="middle" x="148" y="-8.5" font-family="Helvetica,sans-Serif" font-size="10.00">utility</text>
</g>
<!-- Node2&#45;&gt;Node5 -->
<g id="edge8" class="edge"><title>Node2&#45;&gt;Node5</title>
<path fill="none" stroke="midnightblue" d="M121.869,-58.3619C126.155,-50.5949 132.087,-39.8426 137.216,-30.5458"/>
<polygon fill="midnightblue" stroke="midnightblue" points="140.402,-32.0172 142.168,-21.5707 134.273,-28.6357 140.402,-32.0172"/>
</g>
<!-- Node6 -->
<g id="node11" class="node"><title>Node6</title>
<polygon fill="white" stroke="#bfbfbf" points="186,-0.5 186,-21.5 232,-21.5 232,-0.5 186,-0.5"/>
<text text-anchor="middle" x="209" y="-8.5" font-family="Helvetica,sans-Serif" font-size="10.00">cstdint</text>
</g>
<!-- Node2&#45;&gt;Node6 -->
<g id="edge10" class="edge"><title>Node2&#45;&gt;Node6</title>
<path fill="none" stroke="midnightblue" d="M133.058,-58.3619C147.085,-49.6138 167.184,-37.0786 183.182,-27.1015"/>
<polygon fill="midnightblue" stroke="midnightblue" points="185.418,-29.8323 192.051,-21.5707 181.713,-23.8927 185.418,-29.8323"/>
</g>
<!-- Node7&#45;&gt;Node2 -->
<g id="edge14" class="edge"><title>Node7&#45;&gt;Node2</title>
<path fill="none" stroke="midnightblue" d="M171.966,-174.913C159.054,-165.477 144.404,-152.694 135,-138 125.606,-123.323 120.803,-104.018 118.379,-89.5606"/>
<polygon fill="midnightblue" stroke="midnightblue" points="121.836,-89.0099 116.953,-79.6073 114.907,-90.0026 121.836,-89.0099"/>
</g>
<!-- Node8 -->
<g id="node16" class="node"><title>Node8</title>
<a xlink:href="../../d3/dce/tick_8hh.html" target="_top" xlink:title="harpoon/clock/tick.hh">
<polygon fill="white" stroke="black" points="144,-116.5 144,-137.5 254,-137.5 254,-116.5 144,-116.5"/>
<text text-anchor="middle" x="199" y="-124.5" font-family="Helvetica,sans-Serif" font-size="10.00">harpoon/clock/tick.hh</text>
</a>
</g>
<!-- Node7&#45;&gt;Node8 -->
<g id="edge16" class="edge"><title>Node7&#45;&gt;Node8</title>
<path fill="none" stroke="midnightblue" d="M199,-174.922C199,-166.67 199,-156.692 199,-147.982"/>
<polygon fill="midnightblue" stroke="midnightblue" points="202.5,-147.852 199,-137.852 195.5,-147.852 202.5,-147.852"/>
</g>
<!-- Node9 -->
<g id="node19" class="node"><title>Node9</title>
<polygon fill="white" stroke="#bfbfbf" points="222,-58.5 222,-79.5 268,-79.5 268,-58.5 222,-58.5"/>
<text text-anchor="middle" x="245" y="-66.5" font-family="Helvetica,sans-Serif" font-size="10.00">atomic</text>
</g>
<!-- Node7&#45;&gt;Node9 -->
<g id="edge22" class="edge"><title>Node7&#45;&gt;Node9</title>
<path fill="none" stroke="midnightblue" d="M229.111,-174.936C242.087,-165.815 255.894,-153.294 263,-138 270.375,-122.127 264.115,-102.743 257.03,-88.5657"/>
<polygon fill="midnightblue" stroke="midnightblue" points="260.036,-86.7672 252.151,-79.69 253.901,-90.1393 260.036,-86.7672"/>
</g>
<!-- Node10 -->
<g id="node22" class="node"><title>Node10</title>
<polygon fill="white" stroke="#bfbfbf" points="310,-116.5 310,-137.5 354,-137.5 354,-116.5 310,-116.5"/>
<text text-anchor="middle" x="332" y="-124.5" font-family="Helvetica,sans-Serif" font-size="10.00">thread</text>
</g>
<!-- Node7&#45;&gt;Node10 -->
<g id="edge24" class="edge"><title>Node7&#45;&gt;Node10</title>
<path fill="none" stroke="midnightblue" d="M233.944,-174.922C254.807,-164.726 281.064,-151.894 301.155,-142.074"/>
<polygon fill="midnightblue" stroke="midnightblue" points="302.744,-145.194 310.191,-137.658 299.67,-138.905 302.744,-145.194"/>
</g>
<!-- Node8&#45;&gt;Node2 -->
<g id="edge18" class="edge"><title>Node8&#45;&gt;Node2</title>
<path fill="none" stroke="midnightblue" d="M183.777,-116.362C171.375,-107.696 153.654,-95.3126 139.443,-85.3819"/>
<polygon fill="midnightblue" stroke="midnightblue" points="141.329,-82.4297 131.127,-79.5707 137.319,-88.1676 141.329,-82.4297"/>
</g>
<!-- Node8&#45;&gt;Node9 -->
<g id="edge20" class="edge"><title>Node8&#45;&gt;Node9</title>
<path fill="none" stroke="midnightblue" d="M207.437,-116.362C213.792,-108.35 222.666,-97.1605 230.193,-87.6696"/>
<polygon fill="midnightblue" stroke="midnightblue" points="233.145,-89.5805 236.616,-79.5707 227.66,-85.2308 233.145,-89.5805"/>
</g>
</g>
</svg>
