<?xml version="1.0" encoding="UTF-8" standalone="no"?>
<!DOCTYPE svg PUBLIC "-//W3C//DTD SVG 1.1//EN"
 "http://www.w3.org/Graphics/SVG/1.1/DTD/svg11.dtd">
<!-- Generated by graphviz version 2.26.3 (20100126.1600)
 -->
<!-- Title: harpoon::memory::linear_memory Pages: 1 -->
<!--zoomable 1068 -->
<svg id="main" version="1.1" xmlns="http://www.w3.org/2000/svg" xmlns:xlink="http://www.w3.org/1999/xlink" xml:space="preserve" onload="init(evt)">
<style type="text/css"><![CDATA[
.edge:hover path { stroke: red; }
.edge:hover polygon { stroke: red; fill: red; }
]]></style>
<script type="text/javascript"><![CDATA[
var edges = document.getElementsByTagName('g');
if (edges && edges.length) {
  for (var i=0;i<edges.length;i++) {
    if (edges[i].id.substr(0,4)=='edge') {
      edges[i].setAttribute('class','edge');
    }
  }
}
]]></script>
        <defs>
                <circle id="rim" cx="0" cy="0" r="7"/>
                <circle id="rim2" cx="0" cy="0" r="3.5"/>
                <g id="zoomPlus">
                        <use xlink:href="#rim" fill="#404040">
                                <set attributeName="fill" to="#808080" begin="zoomplus.mouseover" end="zoomplus.mouseout"/>
                        </use>
                        <path d="M-4,0h8M0,-4v8" fill="none" stroke="white" stroke-width="1.5" pointer-events="none"/>
                </g>
                <g id="zoomMin">
                        <use xlink:href="#rim" fill="#404040">
                                <set attributeName="fill" to="#808080" begin="zoomminus.mouseover" end="zoomminus.mouseout"/>
                        </use>
                        <path d="M-4,0h8" fill="none" stroke="white" stroke-width="1.5" pointer-events="none"/>
                </g>
                <g id="dirArrow">
                        <path fill="none" stroke="white" stroke-width="1.5" d="M0,-3.0v7 M-2.5,-0.5L0,-3.0L2.5,-0.5"/>
                </g>
               <g id="resetDef">
                       <use xlink:href="#rim2" fill="#404040">
                               <set attributeName="fill" to="#808080" begin="reset.mouseover" end="reset.mouseout"/>
                       </use>
               </g>
        </defs>

<script type="text/javascript">
var viewWidth = 311;
var viewHeight = 1068;
var sectionId = 'dynsection-0';
</script>
<script xlink:href="../../svgpan.js"/>
<svg id="graph" class="graph">
<g id="viewport">
<title>harpoon::memory::linear_memory</title>
<polygon fill="white" stroke="white" points="-4,5 -4,-1064 308,-1064 308,5 -4,5"/>
<!-- Node1 -->
<g id="node1" class="node"><title>Node1</title>
<polygon fill="#bfbfbf" stroke="black" points="87,-266.5 87,-433.5 209,-433.5 209,-266.5 87,-266.5"/>
<text text-anchor="start" x="95" y="-420.5" font-family="Helvetica,sans-Serif" font-size="10.00">harpoon::memory::linear</text>
<text text-anchor="middle" x="148" y="-407.5" font-family="Helvetica,sans-Serif" font-size="10.00">_memory</text>
<polyline fill="none" stroke="black" points="87,-399.5 209,-399.5 "/>
<text text-anchor="middle" x="148" y="-386.5" font-family="Helvetica,sans-Serif" font-size="10.00"> </text>
<polyline fill="none" stroke="black" points="87,-378.5 209,-378.5 "/>
<text text-anchor="start" x="95" y="-365.5" font-family="Helvetica,sans-Serif" font-size="10.00">+ linear_memory()</text>
<text text-anchor="start" x="95" y="-352.5" font-family="Helvetica,sans-Serif" font-size="10.00">+ linear_memory()</text>
<text text-anchor="start" x="95" y="-339.5" font-family="Helvetica,sans-Serif" font-size="10.00">+ operator=()</text>
<text text-anchor="start" x="95" y="-326.5" font-family="Helvetica,sans-Serif" font-size="10.00">+ prepare()</text>
<text text-anchor="start" x="95" y="-313.5" font-family="Helvetica,sans-Serif" font-size="10.00">+ cleanup()</text>
<text text-anchor="start" x="95" y="-300.5" font-family="Helvetica,sans-Serif" font-size="10.00">+ get()</text>
<text text-anchor="start" x="95" y="-287.5" font-family="Helvetica,sans-Serif" font-size="10.00">+ set()</text>
<text text-anchor="start" x="95" y="-274.5" font-family="Helvetica,sans-Serif" font-size="10.00">+ ~linear_memory()</text>
</g>
<!-- Node5 -->
<g id="node9" class="node"><title>Node5</title>
<a xlink:href="../../dc/d01/classharpoon_1_1memory_1_1random__access__memory.html" target="_top" xlink:title="{harpoon::memory::random\l_access_memory\&lt; linear\l_memory \&gt;\n||+ ~random_access_memory()\l}">
<polygon fill="white" stroke="black" points="-0.5,-133.5 -0.5,-222.5 146.5,-222.5 146.5,-133.5 -0.5,-133.5"/>
<text text-anchor="start" x="7.5" y="-209.5" font-family="Helvetica,sans-Serif" font-size="10.00">harpoon::memory::random</text>
<text text-anchor="start" x="7.5" y="-196.5" font-family="Helvetica,sans-Serif" font-size="10.00">_access_memory&lt; linear</text>
<text text-anchor="middle" x="73" y="-183.5" font-family="Helvetica,sans-Serif" font-size="10.00">_memory &gt;</text>
<polyline fill="none" stroke="black" points="-0.5,-175.5 146.5,-175.5 "/>
<text text-anchor="middle" x="73" y="-162.5" font-family="Helvetica,sans-Serif" font-size="10.00"> </text>
<polyline fill="none" stroke="black" points="-0.5,-154.5 146.5,-154.5 "/>
<text text-anchor="start" x="7.5" y="-141.5" font-family="Helvetica,sans-Serif" font-size="10.00">+ ~random_access_memory()</text>
</a>
</g>
<!-- Node1&#45;&gt;Node5 -->
<g id="edge8" class="edge"><title>Node1&#45;&gt;Node5</title>
<path fill="none" stroke="midnightblue" d="M107.342,-256.757C102.183,-244.926 97.1044,-233.279 92.5004,-222.721"/>
<polygon fill="none" stroke="midnightblue" points="104.283,-258.5 111.489,-266.267 110.7,-255.702 104.283,-258.5"/>
</g>
<!-- Node7 -->
<g id="node13" class="node"><title>Node7</title>
<a xlink:href="../../db/dd3/classharpoon_1_1memory_1_1read__only__memory.html" target="_top" xlink:title="{harpoon::memory::read\l_only_memory\&lt; linear\l_memory \&gt;\n||+ set()\l+ ~read_only_memory()\l}">
<polygon fill="white" stroke="black" points="167,-127 167,-229 287,-229 287,-127 167,-127"/>
<text text-anchor="start" x="175" y="-216" font-family="Helvetica,sans-Serif" font-size="10.00">harpoon::memory::read</text>
<text text-anchor="start" x="175" y="-203" font-family="Helvetica,sans-Serif" font-size="10.00">_only_memory&lt; linear</text>
<text text-anchor="middle" x="227" y="-190" font-family="Helvetica,sans-Serif" font-size="10.00">_memory &gt;</text>
<polyline fill="none" stroke="black" points="167,-182 287,-182 "/>
<text text-anchor="middle" x="227" y="-169" font-family="Helvetica,sans-Serif" font-size="10.00"> </text>
<polyline fill="none" stroke="black" points="167,-161 287,-161 "/>
<text text-anchor="start" x="175" y="-148" font-family="Helvetica,sans-Serif" font-size="10.00">+ set()</text>
<text text-anchor="start" x="175" y="-135" font-family="Helvetica,sans-Serif" font-size="10.00">+ ~read_only_memory()</text>
</a>
</g>
<!-- Node1&#45;&gt;Node7 -->
<g id="edge12" class="edge"><title>Node1&#45;&gt;Node7</title>
<path fill="none" stroke="midnightblue" d="M190.676,-257.085C195.066,-247.527 199.403,-238.084 203.469,-229.233"/>
<polygon fill="none" stroke="midnightblue" points="187.452,-255.719 186.459,-266.267 193.813,-258.641 187.452,-255.719"/>
</g>
<!-- Node2 -->
<g id="node2" class="node"><title>Node2</title>
<a xlink:href="../../db/d2f/classharpoon_1_1memory_1_1memory.html" target="_top" xlink:title="{harpoon::memory::memory\n||+ memory()\l+ get_address_range()\l+ get_address_range()\l+ set_address_range()\l+ has_address()\l+ get()\l+ set()\l+ get()\l+ set()\l+ get()\l+ set()\l+ get()\l+ set()\l+ ~memory()\l}">
<polygon fill="white" stroke="black" points="81,-471 81,-703 215,-703 215,-471 81,-471"/>
<text text-anchor="middle" x="148" y="-690" font-family="Helvetica,sans-Serif" font-size="10.00">harpoon::memory::memory</text>
<polyline fill="none" stroke="black" points="81,-682 215,-682 "/>
<text text-anchor="middle" x="148" y="-669" font-family="Helvetica,sans-Serif" font-size="10.00"> </text>
<polyline fill="none" stroke="black" points="81,-661 215,-661 "/>
<text text-anchor="start" x="89" y="-648" font-family="Helvetica,sans-Serif" font-size="10.00">+ memory()</text>
<text text-anchor="start" x="89" y="-635" font-family="Helvetica,sans-Serif" font-size="10.00">+ get_address_range()</text>
<text text-anchor="start" x="89" y="-622" font-family="Helvetica,sans-Serif" font-size="10.00">+ get_address_range()</text>
<text text-anchor="start" x="89" y="-609" font-family="Helvetica,sans-Serif" font-size="10.00">+ set_address_range()</text>
<text text-anchor="start" x="89" y="-596" font-family="Helvetica,sans-Serif" font-size="10.00">+ has_address()</text>
<text text-anchor="start" x="89" y="-583" font-family="Helvetica,sans-Serif" font-size="10.00">+ get()</text>
<text text-anchor="start" x="89" y="-570" font-family="Helvetica,sans-Serif" font-size="10.00">+ set()</text>
<text text-anchor="start" x="89" y="-557" font-family="Helvetica,sans-Serif" font-size="10.00">+ get()</text>
<text text-anchor="start" x="89" y="-544" font-family="Helvetica,sans-Serif" font-size="10.00">+ set()</text>
<text text-anchor="start" x="89" y="-531" font-family="Helvetica,sans-Serif" font-size="10.00">+ get()</text>
<text text-anchor="start" x="89" y="-518" font-family="Helvetica,sans-Serif" font-size="10.00">+ set()</text>
<text text-anchor="start" x="89" y="-505" font-family="Helvetica,sans-Serif" font-size="10.00">+ get()</text>
<text text-anchor="start" x="89" y="-492" font-family="Helvetica,sans-Serif" font-size="10.00">+ set()</text>
<text text-anchor="start" x="89" y="-479" font-family="Helvetica,sans-Serif" font-size="10.00">+ ~memory()</text>
</a>
</g>
<!-- Node2&#45;&gt;Node1 -->
<g id="edge2" class="edge"><title>Node2&#45;&gt;Node1</title>
<path fill="none" stroke="midnightblue" d="M148,-460.639C148,-451.537 148,-442.498 148,-433.736"/>
<polygon fill="none" stroke="midnightblue" points="144.5,-460.93 148,-470.93 151.5,-460.93 144.5,-460.93"/>
</g>
<!-- Node3 -->
<g id="node4" class="node"><title>Node3</title>
<a xlink:href="../../df/d54/classharpoon_1_1hardware__component.html" target="_top" xlink:title="Base class for all hardware components of computer system (i.e. CPU, memory). All components should d...">
<polygon fill="white" stroke="black" points="73,-740.5 73,-933.5 223,-933.5 223,-740.5 73,-740.5"/>
<text text-anchor="middle" x="148" y="-920.5" font-family="Helvetica,sans-Serif" font-size="10.00">harpoon::hardware_component</text>
<polyline fill="none" stroke="black" points="73,-912.5 223,-912.5 "/>
<text text-anchor="middle" x="148" y="-899.5" font-family="Helvetica,sans-Serif" font-size="10.00"> </text>
<polyline fill="none" stroke="black" points="73,-891.5 223,-891.5 "/>
<text text-anchor="start" x="81" y="-878.5" font-family="Helvetica,sans-Serif" font-size="10.00">+ hardware_component()</text>
<text text-anchor="start" x="81" y="-865.5" font-family="Helvetica,sans-Serif" font-size="10.00">+ hardware_component()</text>
<text text-anchor="start" x="81" y="-852.5" font-family="Helvetica,sans-Serif" font-size="10.00">+ operator=()</text>
<text text-anchor="start" x="81" y="-839.5" font-family="Helvetica,sans-Serif" font-size="10.00">+ ~hardware_component()</text>
<text text-anchor="start" x="81" y="-826.5" font-family="Helvetica,sans-Serif" font-size="10.00">+ add_component()</text>
<text text-anchor="start" x="81" y="-813.5" font-family="Helvetica,sans-Serif" font-size="10.00">+ remove_component()</text>
<text text-anchor="start" x="81" y="-800.5" font-family="Helvetica,sans-Serif" font-size="10.00">+ replace_component()</text>
<text text-anchor="start" x="81" y="-787.5" font-family="Helvetica,sans-Serif" font-size="10.00">+ prepare()</text>
<text text-anchor="start" x="81" y="-774.5" font-family="Helvetica,sans-Serif" font-size="10.00">+ cleanup()</text>
<text text-anchor="start" x="81" y="-761.5" font-family="Helvetica,sans-Serif" font-size="10.00">+ boot()</text>
<text text-anchor="start" x="81" y="-748.5" font-family="Helvetica,sans-Serif" font-size="10.00">and 10 more...</text>
</a>
</g>
<!-- Node3&#45;&gt;Node2 -->
<g id="edge4" class="edge"><title>Node3&#45;&gt;Node2</title>
<path fill="none" stroke="midnightblue" d="M148,-730.237C148,-721.227 148,-712.088 148,-703.013"/>
<polygon fill="none" stroke="midnightblue" points="144.5,-730.343 148,-740.343 151.5,-730.344 144.5,-730.343"/>
</g>
<!-- Node4 -->
<g id="node6" class="node"><title>Node4</title>
<polygon fill="white" stroke="#bfbfbf" points="92.5,-970.5 92.5,-1059.5 203.5,-1059.5 203.5,-970.5 92.5,-970.5"/>
<text text-anchor="start" x="100.5" y="-1046.5" font-family="Helvetica,sans-Serif" font-size="10.00">std::enable_shared</text>
<text text-anchor="start" x="100.5" y="-1033.5" font-family="Helvetica,sans-Serif" font-size="10.00">_from_this&lt; hardware</text>
<text text-anchor="middle" x="148" y="-1020.5" font-family="Helvetica,sans-Serif" font-size="10.00">_component &gt;</text>
<polyline fill="none" stroke="#bfbfbf" points="92.5,-1012.5 203.5,-1012.5 "/>
<text text-anchor="middle" x="148" y="-999.5" font-family="Helvetica,sans-Serif" font-size="10.00"> </text>
<polyline fill="none" stroke="#bfbfbf" points="92.5,-991.5 203.5,-991.5 "/>
<text text-anchor="middle" x="148" y="-978.5" font-family="Helvetica,sans-Serif" font-size="10.00"> </text>
</g>
<!-- Node4&#45;&gt;Node3 -->
<g id="edge6" class="edge"><title>Node4&#45;&gt;Node3</title>
<path fill="none" stroke="midnightblue" d="M148,-960.059C148,-951.626 148,-942.712 148,-933.692"/>
<polygon fill="none" stroke="midnightblue" points="144.5,-960.083 148,-970.083 151.5,-960.083 144.5,-960.083"/>
</g>
<!-- Node6 -->
<g id="node11" class="node"><title>Node6</title>
<a xlink:href="../../df/d20/classharpoon_1_1memory_1_1linear__random__access__memory.html" target="_top" xlink:title="{harpoon::memory::linear\l_random_access_memory\n||+ ~linear_random_access\l_memory()\l}">
<polygon fill="white" stroke="black" points="6.5,-0.5 6.5,-89.5 137.5,-89.5 137.5,-0.5 6.5,-0.5"/>
<text text-anchor="start" x="14.5" y="-76.5" font-family="Helvetica,sans-Serif" font-size="10.00">harpoon::memory::linear</text>
<text text-anchor="middle" x="72" y="-63.5" font-family="Helvetica,sans-Serif" font-size="10.00">_random_access_memory</text>
<polyline fill="none" stroke="black" points="6.5,-55.5 137.5,-55.5 "/>
<text text-anchor="middle" x="72" y="-42.5" font-family="Helvetica,sans-Serif" font-size="10.00"> </text>
<polyline fill="none" stroke="black" points="6.5,-34.5 137.5,-34.5 "/>
<text text-anchor="start" x="14.5" y="-21.5" font-family="Helvetica,sans-Serif" font-size="10.00">+ ~linear_random_access</text>
<text text-anchor="start" x="14.5" y="-8.5" font-family="Helvetica,sans-Serif" font-size="10.00">_memory()</text>
</a>
</g>
<!-- Node5&#45;&gt;Node6 -->
<g id="edge10" class="edge"><title>Node5&#45;&gt;Node6</title>
<path fill="none" stroke="midnightblue" d="M72.5885,-123.27C72.5047,-112.122 72.4174,-100.518 72.3366,-89.7656"/>
<polygon fill="none" stroke="midnightblue" points="69.089,-123.37 72.6642,-133.343 76.0888,-123.317 69.089,-123.37"/>
</g>
<!-- Node8 -->
<g id="node15" class="node"><title>Node8</title>
<a xlink:href="../../de/dd2/classharpoon_1_1memory_1_1linear__read__only__memory.html" target="_top" xlink:title="{harpoon::memory::linear\l_read_only_memory\n||+ ~linear_read_only_memory()\l}">
<polygon fill="white" stroke="black" points="154.5,-7 154.5,-83 303.5,-83 303.5,-7 154.5,-7"/>
<text text-anchor="start" x="162.5" y="-70" font-family="Helvetica,sans-Serif" font-size="10.00">harpoon::memory::linear</text>
<text text-anchor="middle" x="229" y="-57" font-family="Helvetica,sans-Serif" font-size="10.00">_read_only_memory</text>
<polyline fill="none" stroke="black" points="154.5,-49 303.5,-49 "/>
<text text-anchor="middle" x="229" y="-36" font-family="Helvetica,sans-Serif" font-size="10.00"> </text>
<polyline fill="none" stroke="black" points="154.5,-28 303.5,-28 "/>
<text text-anchor="start" x="162.5" y="-15" font-family="Helvetica,sans-Serif" font-size="10.00">+ ~linear_read_only_memory()</text>
</a>
</g>
<!-- Node7&#45;&gt;Node8 -->
<g id="edge14" class="edge"><title>Node7&#45;&gt;Node8</title>
<path fill="none" stroke="midnightblue" d="M227.923,-116.628C228.094,-105.275 228.267,-93.7216 228.424,-83.3018"/>
<polygon fill="none" stroke="midnightblue" points="224.418,-116.908 227.768,-126.959 231.418,-117.013 224.418,-116.908"/>
</g>
</g>
</svg>
        <g id="navigator" transform="translate(0 0)" fill="#404254">
                <rect fill="#f2f5e9" fill-opacity="0.5" stroke="#606060" stroke-width=".5" x="0" y="0" width="60" height="60"/>
                <use id="zoomplus" xlink:href="#zoomPlus" x="17" y="9" onmousedown="handleZoom(evt,'in')"/>
                <use id="zoomminus" xlink:href="#zoomMin" x="42" y="9" onmousedown="handleZoom(evt,'out')"/>
                <use id="reset" xlink:href="#resetDef" x="30" y="36" onmousedown="handleReset()"/>
                <g id="arrowUp" xlink:href="#dirArrow" transform="translate(30 24)" onmousedown="handlePan(0,-1)">
                  <use xlink:href="#rim" fill="#404040">
                        <set attributeName="fill" to="#808080" begin="arrowUp.mouseover" end="arrowUp.mouseout"/>
                  </use>
                  <path fill="none" stroke="white" stroke-width="1.5" d="M0,-3.0v7 M-2.5,-0.5L0,-3.0L2.5,-0.5"/>
                </g>
                <g id="arrowRight" xlink:href="#dirArrow" transform="rotate(90) translate(36 -43)" onmousedown="handlePan(1,0)">
                  <use xlink:href="#rim" fill="#404040">
                        <set attributeName="fill" to="#808080" begin="arrowRight.mouseover" end="arrowRight.mouseout"/>
                  </use>
                  <path fill="none" stroke="white" stroke-width="1.5" d="M0,-3.0v7 M-2.5,-0.5L0,-3.0L2.5,-0.5"/>
                </g>
                <g id="arrowDown" xlink:href="#dirArrow" transform="rotate(180) translate(-30 -48)" onmousedown="handlePan(0,1)">
                  <use xlink:href="#rim" fill="#404040">
                        <set attributeName="fill" to="#808080" begin="arrowDown.mouseover" end="arrowDown.mouseout"/>
                  </use>
                  <path fill="none" stroke="white" stroke-width="1.5" d="M0,-3.0v7 M-2.5,-0.5L0,-3.0L2.5,-0.5"/>
                </g>
                <g id="arrowLeft" xlink:href="#dirArrow" transform="rotate(270) translate(-36 17)" onmousedown="handlePan(-1,0)">
                  <use xlink:href="#rim" fill="#404040">
                        <set attributeName="fill" to="#808080" begin="arrowLeft.mouseover" end="arrowLeft.mouseout"/>
                  </use>
                  <path fill="none" stroke="white" stroke-width="1.5" d="M0,-3.0v7 M-2.5,-0.5L0,-3.0L2.5,-0.5"/>
                </g>
        </g>
        <svg viewBox="0 0 15 15" width="100%" height="30px" preserveAspectRatio="xMaxYMin meet">
         <g id="arrow_out" transform="scale(0.3 0.3)">
          <a xlink:href="classharpoon_1_1memory_1_1linear__memory__inherit__graph_org.svg" target="_base">
           <rect id="button" ry="5" rx="5" y="6" x="6" height="38" width="38"
                fill="#f2f5e9" fill-opacity="0.5" stroke="#606060" stroke-width="1.0"/>
           <path id="arrow"
             d="M 11.500037,31.436501 C 11.940474,20.09759 22.043105,11.32322 32.158766,21.979434 L 37.068811,17.246167 C 37.068811,17.246167 37.088388,32 37.088388,32 L 22.160133,31.978069 C 22.160133,31.978069 26.997745,27.140456 26.997745,27.140456 C 18.528582,18.264221 13.291696,25.230495 11.500037,31.436501 z"
             style="fill:#404040;"/>
          </a>
         </g>
        </svg>
</svg>
