<?xml version="1.0" encoding="UTF-8" standalone="no"?>
<!DOCTYPE svg PUBLIC "-//W3C//DTD SVG 1.1//EN"
 "http://www.w3.org/Graphics/SVG/1.1/DTD/svg11.dtd">
<!-- Generated by graphviz version 2.26.3 (20100126.1600)
 -->
<!-- Title: harpoon::memory::linear_memory Pages: 1 -->
<svg width="311pt" height="1054pt"
 viewBox="0.00 0.00 311.00 1054.00" xmlns="http://www.w3.org/2000/svg" xmlns:xlink="http://www.w3.org/1999/xlink">
<g id="graph1" class="graph" transform="scale(1 1) rotate(0) translate(4 1050)">
<title>harpoon::memory::linear_memory</title>
<polygon fill="white" stroke="white" points="-4,5 -4,-1050 308,-1050 308,5 -4,5"/>
<!-- Node1 -->
<g id="node1" class="node"><title>Node1</title>
<polygon fill="#bfbfbf" stroke="black" points="87,-266.5 87,-459.5 209,-459.5 209,-266.5 87,-266.5"/>
<text text-anchor="start" x="95" y="-446.5" font-family="Helvetica,sans-Serif" font-size="10.00">harpoon::memory::linear</text>
<text text-anchor="middle" x="148" y="-433.5" font-family="Helvetica,sans-Serif" font-size="10.00">_memory</text>
<polyline fill="none" stroke="black" points="87,-425.5 209,-425.5 "/>
<text text-anchor="middle" x="148" y="-412.5" font-family="Helvetica,sans-Serif" font-size="10.00"> </text>
<polyline fill="none" stroke="black" points="87,-404.5 209,-404.5 "/>
<text text-anchor="start" x="95" y="-391.5" font-family="Helvetica,sans-Serif" font-size="10.00">+ linear_memory()</text>
<text text-anchor="start" x="95" y="-378.5" font-family="Helvetica,sans-Serif" font-size="10.00">+ linear_memory()</text>
<text text-anchor="start" x="95" y="-365.5" font-family="Helvetica,sans-Serif" font-size="10.00">+ operator=()</text>
<text text-anchor="start" x="95" y="-352.5" font-family="Helvetica,sans-Serif" font-size="10.00">+ prepare()</text>
<text text-anchor="start" x="95" y="-339.5" font-family="Helvetica,sans-Serif" font-size="10.00">+ cleanup()</text>
<text text-anchor="start" x="95" y="-326.5" font-family="Helvetica,sans-Serif" font-size="10.00">+ get()</text>
<text text-anchor="start" x="95" y="-313.5" font-family="Helvetica,sans-Serif" font-size="10.00">+ set()</text>
<text text-anchor="start" x="95" y="-300.5" font-family="Helvetica,sans-Serif" font-size="10.00">+ serialize()</text>
<text text-anchor="start" x="95" y="-287.5" font-family="Helvetica,sans-Serif" font-size="10.00">+ deserialize()</text>
<text text-anchor="start" x="95" y="-274.5" font-family="Helvetica,sans-Serif" font-size="10.00">+ ~linear_memory()</text>
</g>
<!-- Node5 -->
<g id="node9" class="node"><title>Node5</title>
<a xlink:href="../../dc/d01/classharpoon_1_1memory_1_1random__access__memory.html" target="_top" xlink:title="{harpoon::memory::random\l_access_memory\&lt; linear\l_memory \&gt;\n||+ ~random_access_memory()\l}">
<polygon fill="white" stroke="black" points="-0.5,-133.5 -0.5,-222.5 146.5,-222.5 146.5,-133.5 -0.5,-133.5"/>
<text text-anchor="start" x="7.5" y="-209.5" font-family="Helvetica,sans-Serif" font-size="10.00">harpoon::memory::random</text>
<text text-anchor="start" x="7.5" y="-196.5" font-family="Helvetica,sans-Serif" font-size="10.00">_access_memory&lt; linear</text>
<text text-anchor="middle" x="73" y="-183.5" font-family="Helvetica,sans-Serif" font-size="10.00">_memory &gt;</text>
<polyline fill="none" stroke="black" points="-0.5,-175.5 146.5,-175.5 "/>
<text text-anchor="middle" x="73" y="-162.5" font-family="Helvetica,sans-Serif" font-size="10.00"> </text>
<polyline fill="none" stroke="black" points="-0.5,-154.5 146.5,-154.5 "/>
<text text-anchor="start" x="7.5" y="-141.5" font-family="Helvetica,sans-Serif" font-size="10.00">+ ~random_access_memory()</text>
</a>
</g>
<!-- Node1&#45;&gt;Node5 -->
<g id="edge8" class="edge"><title>Node1&#45;&gt;Node5</title>
<path fill="none" stroke="midnightblue" d="M104.956,-256.825C100.123,-244.904 95.4157,-233.292 91.1648,-222.806"/>
<polygon fill="none" stroke="midnightblue" points="101.852,-258.484 108.853,-266.436 108.339,-255.854 101.852,-258.484"/>
</g>
<!-- Node7 -->
<g id="node13" class="node"><title>Node7</title>
<a xlink:href="../../db/dd3/classharpoon_1_1memory_1_1read__only__memory.html" target="_top" xlink:title="{harpoon::memory::read\l_only_memory\&lt; linear\l_memory \&gt;\n||+ set()\l+ ~read_only_memory()\l}">
<polygon fill="white" stroke="black" points="167,-127 167,-229 287,-229 287,-127 167,-127"/>
<text text-anchor="start" x="175" y="-216" font-family="Helvetica,sans-Serif" font-size="10.00">harpoon::memory::read</text>
<text text-anchor="start" x="175" y="-203" font-family="Helvetica,sans-Serif" font-size="10.00">_only_memory&lt; linear</text>
<text text-anchor="middle" x="227" y="-190" font-family="Helvetica,sans-Serif" font-size="10.00">_memory &gt;</text>
<polyline fill="none" stroke="black" points="167,-182 287,-182 "/>
<text text-anchor="middle" x="227" y="-169" font-family="Helvetica,sans-Serif" font-size="10.00"> </text>
<polyline fill="none" stroke="black" points="167,-161 287,-161 "/>
<text text-anchor="start" x="175" y="-148" font-family="Helvetica,sans-Serif" font-size="10.00">+ set()</text>
<text text-anchor="start" x="175" y="-135" font-family="Helvetica,sans-Serif" font-size="10.00">+ ~read_only_memory()</text>
</a>
</g>
<!-- Node1&#45;&gt;Node7 -->
<g id="edge12" class="edge"><title>Node1&#45;&gt;Node7</title>
<path fill="none" stroke="midnightblue" d="M193.19,-257.175C197.295,-247.563 201.315,-238.148 205.07,-229.355"/>
<polygon fill="none" stroke="midnightblue" points="189.944,-255.865 189.235,-266.436 196.381,-258.614 189.944,-255.865"/>
</g>
<!-- Node2 -->
<g id="node2" class="node"><title>Node2</title>
<a xlink:href="../../db/d2f/classharpoon_1_1memory_1_1memory.html" target="_top" xlink:title="{harpoon::memory::memory\n||+ memory()\l+ get_address_range()\l+ get_address_range()\l+ set_address_range()\l+ has_address()\l+ get_offset()\l+ get()\l+ set()\l+ get()\l+ set()\land 7 more...\l}">
<polygon fill="white" stroke="black" points="81,-496.5 81,-689.5 215,-689.5 215,-496.5 81,-496.5"/>
<text text-anchor="middle" x="148" y="-676.5" font-family="Helvetica,sans-Serif" font-size="10.00">harpoon::memory::memory</text>
<polyline fill="none" stroke="black" points="81,-668.5 215,-668.5 "/>
<text text-anchor="middle" x="148" y="-655.5" font-family="Helvetica,sans-Serif" font-size="10.00"> </text>
<polyline fill="none" stroke="black" points="81,-647.5 215,-647.5 "/>
<text text-anchor="start" x="89" y="-634.5" font-family="Helvetica,sans-Serif" font-size="10.00">+ memory()</text>
<text text-anchor="start" x="89" y="-621.5" font-family="Helvetica,sans-Serif" font-size="10.00">+ get_address_range()</text>
<text text-anchor="start" x="89" y="-608.5" font-family="Helvetica,sans-Serif" font-size="10.00">+ get_address_range()</text>
<text text-anchor="start" x="89" y="-595.5" font-family="Helvetica,sans-Serif" font-size="10.00">+ set_address_range()</text>
<text text-anchor="start" x="89" y="-582.5" font-family="Helvetica,sans-Serif" font-size="10.00">+ has_address()</text>
<text text-anchor="start" x="89" y="-569.5" font-family="Helvetica,sans-Serif" font-size="10.00">+ get_offset()</text>
<text text-anchor="start" x="89" y="-556.5" font-family="Helvetica,sans-Serif" font-size="10.00">+ get()</text>
<text text-anchor="start" x="89" y="-543.5" font-family="Helvetica,sans-Serif" font-size="10.00">+ set()</text>
<text text-anchor="start" x="89" y="-530.5" font-family="Helvetica,sans-Serif" font-size="10.00">+ get()</text>
<text text-anchor="start" x="89" y="-517.5" font-family="Helvetica,sans-Serif" font-size="10.00">+ set()</text>
<text text-anchor="start" x="89" y="-504.5" font-family="Helvetica,sans-Serif" font-size="10.00">and 7 more...</text>
</a>
</g>
<!-- Node2&#45;&gt;Node1 -->
<g id="edge2" class="edge"><title>Node2&#45;&gt;Node1</title>
<path fill="none" stroke="midnightblue" d="M148,-486.423C148,-477.499 148,-468.507 148,-459.663"/>
<polygon fill="none" stroke="midnightblue" points="144.5,-486.459 148,-496.459 151.5,-486.459 144.5,-486.459"/>
</g>
<!-- Node3 -->
<g id="node4" class="node"><title>Node3</title>
<a xlink:href="../../df/d54/classharpoon_1_1hardware__component.html" target="_top" xlink:title="Base class for all hardware components of computer system (i.e. CPU, memory). All components should d...">
<polygon fill="white" stroke="black" points="73,-726.5 73,-919.5 223,-919.5 223,-726.5 73,-726.5"/>
<text text-anchor="middle" x="148" y="-906.5" font-family="Helvetica,sans-Serif" font-size="10.00">harpoon::hardware_component</text>
<polyline fill="none" stroke="black" points="73,-898.5 223,-898.5 "/>
<text text-anchor="middle" x="148" y="-885.5" font-family="Helvetica,sans-Serif" font-size="10.00"> </text>
<polyline fill="none" stroke="black" points="73,-877.5 223,-877.5 "/>
<text text-anchor="start" x="81" y="-864.5" font-family="Helvetica,sans-Serif" font-size="10.00">+ hardware_component()</text>
<text text-anchor="start" x="81" y="-851.5" font-family="Helvetica,sans-Serif" font-size="10.00">+ hardware_component()</text>
<text text-anchor="start" x="81" y="-838.5" font-family="Helvetica,sans-Serif" font-size="10.00">+ operator=()</text>
<text text-anchor="start" x="81" y="-825.5" font-family="Helvetica,sans-Serif" font-size="10.00">+ ~hardware_component()</text>
<text text-anchor="start" x="81" y="-812.5" font-family="Helvetica,sans-Serif" font-size="10.00">+ add_component()</text>
<text text-anchor="start" x="81" y="-799.5" font-family="Helvetica,sans-Serif" font-size="10.00">+ remove_component()</text>
<text text-anchor="start" x="81" y="-786.5" font-family="Helvetica,sans-Serif" font-size="10.00">+ replace_component()</text>
<text text-anchor="start" x="81" y="-773.5" font-family="Helvetica,sans-Serif" font-size="10.00">+ prepare()</text>
<text text-anchor="start" x="81" y="-760.5" font-family="Helvetica,sans-Serif" font-size="10.00">+ cleanup()</text>
<text text-anchor="start" x="81" y="-747.5" font-family="Helvetica,sans-Serif" font-size="10.00">+ boot()</text>
<text text-anchor="start" x="81" y="-734.5" font-family="Helvetica,sans-Serif" font-size="10.00">and 10 more...</text>
</a>
</g>
<!-- Node3&#45;&gt;Node2 -->
<g id="edge4" class="edge"><title>Node3&#45;&gt;Node2</title>
<path fill="none" stroke="midnightblue" d="M148,-716.423C148,-707.499 148,-698.507 148,-689.663"/>
<polygon fill="none" stroke="midnightblue" points="144.5,-716.459 148,-726.459 151.5,-716.459 144.5,-716.459"/>
</g>
<!-- Node4 -->
<g id="node6" class="node"><title>Node4</title>
<polygon fill="white" stroke="#bfbfbf" points="92.5,-956.5 92.5,-1045.5 203.5,-1045.5 203.5,-956.5 92.5,-956.5"/>
<text text-anchor="start" x="100.5" y="-1032.5" font-family="Helvetica,sans-Serif" font-size="10.00">std::enable_shared</text>
<text text-anchor="start" x="100.5" y="-1019.5" font-family="Helvetica,sans-Serif" font-size="10.00">_from_this&lt; hardware</text>
<text text-anchor="middle" x="148" y="-1006.5" font-family="Helvetica,sans-Serif" font-size="10.00">_component &gt;</text>
<polyline fill="none" stroke="#bfbfbf" points="92.5,-998.5 203.5,-998.5 "/>
<text text-anchor="middle" x="148" y="-985.5" font-family="Helvetica,sans-Serif" font-size="10.00"> </text>
<polyline fill="none" stroke="#bfbfbf" points="92.5,-977.5 203.5,-977.5 "/>
<text text-anchor="middle" x="148" y="-964.5" font-family="Helvetica,sans-Serif" font-size="10.00"> </text>
</g>
<!-- Node4&#45;&gt;Node3 -->
<g id="edge6" class="edge"><title>Node4&#45;&gt;Node3</title>
<path fill="none" stroke="midnightblue" d="M148,-946.059C148,-937.626 148,-928.712 148,-919.692"/>
<polygon fill="none" stroke="midnightblue" points="144.5,-946.083 148,-956.083 151.5,-946.083 144.5,-946.083"/>
</g>
<!-- Node6 -->
<g id="node11" class="node"><title>Node6</title>
<a xlink:href="../../df/d20/classharpoon_1_1memory_1_1linear__random__access__memory.html" target="_top" xlink:title="{harpoon::memory::linear\l_random_access_memory\n||+ ~linear_random_access\l_memory()\l}">
<polygon fill="white" stroke="black" points="6.5,-0.5 6.5,-89.5 137.5,-89.5 137.5,-0.5 6.5,-0.5"/>
<text text-anchor="start" x="14.5" y="-76.5" font-family="Helvetica,sans-Serif" font-size="10.00">harpoon::memory::linear</text>
<text text-anchor="middle" x="72" y="-63.5" font-family="Helvetica,sans-Serif" font-size="10.00">_random_access_memory</text>
<polyline fill="none" stroke="black" points="6.5,-55.5 137.5,-55.5 "/>
<text text-anchor="middle" x="72" y="-42.5" font-family="Helvetica,sans-Serif" font-size="10.00"> </text>
<polyline fill="none" stroke="black" points="6.5,-34.5 137.5,-34.5 "/>
<text text-anchor="start" x="14.5" y="-21.5" font-family="Helvetica,sans-Serif" font-size="10.00">+ ~linear_random_access</text>
<text text-anchor="start" x="14.5" y="-8.5" font-family="Helvetica,sans-Serif" font-size="10.00">_memory()</text>
</a>
</g>
<!-- Node5&#45;&gt;Node6 -->
<g id="edge10" class="edge"><title>Node5&#45;&gt;Node6</title>
<path fill="none" stroke="midnightblue" d="M72.5885,-123.27C72.5047,-112.122 72.4174,-100.518 72.3366,-89.7656"/>
<polygon fill="none" stroke="midnightblue" points="69.089,-123.37 72.6642,-133.343 76.0888,-123.317 69.089,-123.37"/>
</g>
<!-- Node8 -->
<g id="node15" class="node"><title>Node8</title>
<a xlink:href="../../de/dd2/classharpoon_1_1memory_1_1linear__read__only__memory.html" target="_top" xlink:title="{harpoon::memory::linear\l_read_only_memory\n||+ ~linear_read_only_memory()\l}">
<polygon fill="white" stroke="black" points="154.5,-7 154.5,-83 303.5,-83 303.5,-7 154.5,-7"/>
<text text-anchor="start" x="162.5" y="-70" font-family="Helvetica,sans-Serif" font-size="10.00">harpoon::memory::linear</text>
<text text-anchor="middle" x="229" y="-57" font-family="Helvetica,sans-Serif" font-size="10.00">_read_only_memory</text>
<polyline fill="none" stroke="black" points="154.5,-49 303.5,-49 "/>
<text text-anchor="middle" x="229" y="-36" font-family="Helvetica,sans-Serif" font-size="10.00"> </text>
<polyline fill="none" stroke="black" points="154.5,-28 303.5,-28 "/>
<text text-anchor="start" x="162.5" y="-15" font-family="Helvetica,sans-Serif" font-size="10.00">+ ~linear_read_only_memory()</text>
</a>
</g>
<!-- Node7&#45;&gt;Node8 -->
<g id="edge14" class="edge"><title>Node7&#45;&gt;Node8</title>
<path fill="none" stroke="midnightblue" d="M227.923,-116.628C228.094,-105.275 228.267,-93.7216 228.424,-83.3018"/>
<polygon fill="none" stroke="midnightblue" points="224.418,-116.908 227.768,-126.959 231.418,-117.013 224.418,-116.908"/>
</g>
</g>
</svg>
