<?xml version="1.0" encoding="UTF-8" standalone="no"?>
<!DOCTYPE svg PUBLIC "-//W3C//DTD SVG 1.1//EN"
 "http://www.w3.org/Graphics/SVG/1.1/DTD/svg11.dtd">
<!-- Generated by graphviz version 2.26.3 (20100126.1600)
 -->
<!-- Title: harpoon::memory::chunked_read_only_memory Pages: 1 -->
<!--zoomable 1142 -->
<svg id="main" version="1.1" xmlns="http://www.w3.org/2000/svg" xmlns:xlink="http://www.w3.org/1999/xlink" xml:space="preserve" onload="init(evt)">
<style type="text/css"><![CDATA[
.edge:hover path { stroke: red; }
.edge:hover polygon { stroke: red; fill: red; }
]]></style>
<script type="text/javascript"><![CDATA[
var edges = document.getElementsByTagName('g');
if (edges && edges.length) {
  for (var i=0;i<edges.length;i++) {
    if (edges[i].id.substr(0,4)=='edge') {
      edges[i].setAttribute('class','edge');
    }
  }
}
]]></script>
        <defs>
                <circle id="rim" cx="0" cy="0" r="7"/>
                <circle id="rim2" cx="0" cy="0" r="3.5"/>
                <g id="zoomPlus">
                        <use xlink:href="#rim" fill="#404040">
                                <set attributeName="fill" to="#808080" begin="zoomplus.mouseover" end="zoomplus.mouseout"/>
                        </use>
                        <path d="M-4,0h8M0,-4v8" fill="none" stroke="white" stroke-width="1.5" pointer-events="none"/>
                </g>
                <g id="zoomMin">
                        <use xlink:href="#rim" fill="#404040">
                                <set attributeName="fill" to="#808080" begin="zoomminus.mouseover" end="zoomminus.mouseout"/>
                        </use>
                        <path d="M-4,0h8" fill="none" stroke="white" stroke-width="1.5" pointer-events="none"/>
                </g>
                <g id="dirArrow">
                        <path fill="none" stroke="white" stroke-width="1.5" d="M0,-3.0v7 M-2.5,-0.5L0,-3.0L2.5,-0.5"/>
                </g>
               <g id="resetDef">
                       <use xlink:href="#rim2" fill="#404040">
                               <set attributeName="fill" to="#808080" begin="reset.mouseover" end="reset.mouseout"/>
                       </use>
               </g>
        </defs>

<script type="text/javascript">
var viewWidth = 368;
var viewHeight = 1142;
var sectionId = 'dynsection-1';
</script>
<script xlink:href="../../svgpan.js"/>
<svg id="graph" class="graph">
<g id="viewport">
<title>harpoon::memory::chunked_read_only_memory</title>
<polygon fill="white" stroke="white" points="-4,5 -4,-1138 365,-1138 365,5 -4,5"/>
<!-- Node1 -->
<g id="node1" class="node"><title>Node1</title>
<polygon fill="#bfbfbf" stroke="black" points="118.5,-0.5 118.5,-89.5 253.5,-89.5 253.5,-0.5 118.5,-0.5"/>
<text text-anchor="start" x="126.5" y="-76.5" font-family="Helvetica,sans-Serif" font-size="10.00">harpoon::memory::chunked</text>
<text text-anchor="middle" x="186" y="-63.5" font-family="Helvetica,sans-Serif" font-size="10.00">_read_only_memory</text>
<polyline fill="none" stroke="black" points="118.5,-55.5 253.5,-55.5 "/>
<text text-anchor="middle" x="186" y="-42.5" font-family="Helvetica,sans-Serif" font-size="10.00"> </text>
<polyline fill="none" stroke="black" points="118.5,-34.5 253.5,-34.5 "/>
<text text-anchor="start" x="126.5" y="-21.5" font-family="Helvetica,sans-Serif" font-size="10.00">+ ~chunked_read_only</text>
<text text-anchor="start" x="126.5" y="-8.5" font-family="Helvetica,sans-Serif" font-size="10.00">_memory()</text>
</g>
<!-- Node2 -->
<g id="node2" class="node"><title>Node2</title>
<a xlink:href="../../db/dd3/classharpoon_1_1memory_1_1read__only__memory.html" target="_top" xlink:title="{harpoon::memory::read\l_only_memory\&lt; chunked\l_memory \&gt;\n||+ set()\l+ ~read_only_memory()\l}">
<polygon fill="white" stroke="black" points="123,-129 123,-231 249,-231 249,-129 123,-129"/>
<text text-anchor="start" x="131" y="-218" font-family="Helvetica,sans-Serif" font-size="10.00">harpoon::memory::read</text>
<text text-anchor="start" x="131" y="-205" font-family="Helvetica,sans-Serif" font-size="10.00">_only_memory&lt; chunked</text>
<text text-anchor="middle" x="186" y="-192" font-family="Helvetica,sans-Serif" font-size="10.00">_memory &gt;</text>
<polyline fill="none" stroke="black" points="123,-184 249,-184 "/>
<text text-anchor="middle" x="186" y="-171" font-family="Helvetica,sans-Serif" font-size="10.00"> </text>
<polyline fill="none" stroke="black" points="123,-163 249,-163 "/>
<text text-anchor="start" x="131" y="-150" font-family="Helvetica,sans-Serif" font-size="10.00">+ set()</text>
<text text-anchor="start" x="131" y="-137" font-family="Helvetica,sans-Serif" font-size="10.00">+ ~read_only_memory()</text>
</a>
</g>
<!-- Node2&#45;&gt;Node1 -->
<g id="edge2" class="edge"><title>Node2&#45;&gt;Node1</title>
<path fill="none" stroke="midnightblue" d="M186,-118.895C186,-109.139 186,-99.2027 186,-89.912"/>
<polygon fill="none" stroke="midnightblue" points="182.5,-118.962 186,-128.962 189.5,-118.962 182.5,-118.962"/>
</g>
<!-- Node3 -->
<g id="node4" class="node"><title>Node3</title>
<a xlink:href="../../da/d84/classharpoon_1_1memory_1_1chunked__memory.html" target="_top" xlink:title="{harpoon::memory::chunked\l_memory\n||+ chunked_memory()\l+ chunked_memory()\l+ operator=()\l+ prepare()\l+ cleanup()\l+ get()\l+ set()\l+ serialize()\l+ deserialize()\l+ ~chunked_memory()\l# get_chunk_index()\l# get_chunk_offset()\l# get_chunk()\l# get_chunk()\l# allocate_chunk()\l}">
<polygon fill="white" stroke="black" points="7.5,-283 7.5,-541 142.5,-541 142.5,-283 7.5,-283"/>
<text text-anchor="start" x="15.5" y="-528" font-family="Helvetica,sans-Serif" font-size="10.00">harpoon::memory::chunked</text>
<text text-anchor="middle" x="75" y="-515" font-family="Helvetica,sans-Serif" font-size="10.00">_memory</text>
<polyline fill="none" stroke="black" points="7.5,-507 142.5,-507 "/>
<text text-anchor="middle" x="75" y="-494" font-family="Helvetica,sans-Serif" font-size="10.00"> </text>
<polyline fill="none" stroke="black" points="7.5,-486 142.5,-486 "/>
<text text-anchor="start" x="15.5" y="-473" font-family="Helvetica,sans-Serif" font-size="10.00">+ chunked_memory()</text>
<text text-anchor="start" x="15.5" y="-460" font-family="Helvetica,sans-Serif" font-size="10.00">+ chunked_memory()</text>
<text text-anchor="start" x="15.5" y="-447" font-family="Helvetica,sans-Serif" font-size="10.00">+ operator=()</text>
<text text-anchor="start" x="15.5" y="-434" font-family="Helvetica,sans-Serif" font-size="10.00">+ prepare()</text>
<text text-anchor="start" x="15.5" y="-421" font-family="Helvetica,sans-Serif" font-size="10.00">+ cleanup()</text>
<text text-anchor="start" x="15.5" y="-408" font-family="Helvetica,sans-Serif" font-size="10.00">+ get()</text>
<text text-anchor="start" x="15.5" y="-395" font-family="Helvetica,sans-Serif" font-size="10.00">+ set()</text>
<text text-anchor="start" x="15.5" y="-382" font-family="Helvetica,sans-Serif" font-size="10.00">+ serialize()</text>
<text text-anchor="start" x="15.5" y="-369" font-family="Helvetica,sans-Serif" font-size="10.00">+ deserialize()</text>
<text text-anchor="start" x="15.5" y="-356" font-family="Helvetica,sans-Serif" font-size="10.00">+ ~chunked_memory()</text>
<text text-anchor="start" x="15.5" y="-343" font-family="Helvetica,sans-Serif" font-size="10.00"># get_chunk_index()</text>
<text text-anchor="start" x="15.5" y="-330" font-family="Helvetica,sans-Serif" font-size="10.00"># get_chunk_offset()</text>
<text text-anchor="start" x="15.5" y="-317" font-family="Helvetica,sans-Serif" font-size="10.00"># get_chunk()</text>
<text text-anchor="start" x="15.5" y="-304" font-family="Helvetica,sans-Serif" font-size="10.00"># get_chunk()</text>
<text text-anchor="start" x="15.5" y="-291" font-family="Helvetica,sans-Serif" font-size="10.00"># allocate_chunk()</text>
</a>
</g>
<!-- Node3&#45;&gt;Node2 -->
<g id="edge4" class="edge"><title>Node3&#45;&gt;Node2</title>
<path fill="none" stroke="midnightblue" d="M141.323,-273.379C148.496,-258.386 155.418,-243.918 161.585,-231.03"/>
<polygon fill="none" stroke="midnightblue" points="137.988,-272.24 136.829,-282.772 144.302,-275.262 137.988,-272.24"/>
</g>
<!-- Node4 -->
<g id="node6" class="node"><title>Node4</title>
<a xlink:href="../../db/d2f/classharpoon_1_1memory_1_1memory.html" target="_top" xlink:title="{harpoon::memory::memory\n||+ memory()\l+ get_address_range()\l+ get_address_range()\l+ set_address_range()\l+ has_address()\l+ get_offset()\l+ get()\l+ set()\l+ get()\l+ set()\land 7 more...\l}">
<polygon fill="white" stroke="black" points="8,-580.5 8,-773.5 142,-773.5 142,-580.5 8,-580.5"/>
<text text-anchor="middle" x="75" y="-760.5" font-family="Helvetica,sans-Serif" font-size="10.00">harpoon::memory::memory</text>
<polyline fill="none" stroke="black" points="8,-752.5 142,-752.5 "/>
<text text-anchor="middle" x="75" y="-739.5" font-family="Helvetica,sans-Serif" font-size="10.00"> </text>
<polyline fill="none" stroke="black" points="8,-731.5 142,-731.5 "/>
<text text-anchor="start" x="16" y="-718.5" font-family="Helvetica,sans-Serif" font-size="10.00">+ memory()</text>
<text text-anchor="start" x="16" y="-705.5" font-family="Helvetica,sans-Serif" font-size="10.00">+ get_address_range()</text>
<text text-anchor="start" x="16" y="-692.5" font-family="Helvetica,sans-Serif" font-size="10.00">+ get_address_range()</text>
<text text-anchor="start" x="16" y="-679.5" font-family="Helvetica,sans-Serif" font-size="10.00">+ set_address_range()</text>
<text text-anchor="start" x="16" y="-666.5" font-family="Helvetica,sans-Serif" font-size="10.00">+ has_address()</text>
<text text-anchor="start" x="16" y="-653.5" font-family="Helvetica,sans-Serif" font-size="10.00">+ get_offset()</text>
<text text-anchor="start" x="16" y="-640.5" font-family="Helvetica,sans-Serif" font-size="10.00">+ get()</text>
<text text-anchor="start" x="16" y="-627.5" font-family="Helvetica,sans-Serif" font-size="10.00">+ set()</text>
<text text-anchor="start" x="16" y="-614.5" font-family="Helvetica,sans-Serif" font-size="10.00">+ get()</text>
<text text-anchor="start" x="16" y="-601.5" font-family="Helvetica,sans-Serif" font-size="10.00">+ set()</text>
<text text-anchor="start" x="16" y="-588.5" font-family="Helvetica,sans-Serif" font-size="10.00">and 7 more...</text>
</a>
</g>
<!-- Node4&#45;&gt;Node3 -->
<g id="edge6" class="edge"><title>Node4&#45;&gt;Node3</title>
<path fill="none" stroke="midnightblue" d="M75,-569.981C75,-560.485 75,-550.807 75,-541.154"/>
<polygon fill="none" stroke="midnightblue" points="71.5001,-570.204 75,-580.204 78.5001,-570.204 71.5001,-570.204"/>
</g>
<!-- Node5 -->
<g id="node8" class="node"><title>Node5</title>
<a xlink:href="../../df/d54/classharpoon_1_1hardware__component.html" target="_top" xlink:title="Base class for all hardware components of computer system (i.e. CPU, memory). All components should d...">
<polygon fill="white" stroke="black" points="0,-812.5 0,-1005.5 150,-1005.5 150,-812.5 0,-812.5"/>
<text text-anchor="middle" x="75" y="-992.5" font-family="Helvetica,sans-Serif" font-size="10.00">harpoon::hardware_component</text>
<polyline fill="none" stroke="black" points="0,-984.5 150,-984.5 "/>
<text text-anchor="middle" x="75" y="-971.5" font-family="Helvetica,sans-Serif" font-size="10.00"> </text>
<polyline fill="none" stroke="black" points="0,-963.5 150,-963.5 "/>
<text text-anchor="start" x="8" y="-950.5" font-family="Helvetica,sans-Serif" font-size="10.00">+ hardware_component()</text>
<text text-anchor="start" x="8" y="-937.5" font-family="Helvetica,sans-Serif" font-size="10.00">+ hardware_component()</text>
<text text-anchor="start" x="8" y="-924.5" font-family="Helvetica,sans-Serif" font-size="10.00">+ operator=()</text>
<text text-anchor="start" x="8" y="-911.5" font-family="Helvetica,sans-Serif" font-size="10.00">+ ~hardware_component()</text>
<text text-anchor="start" x="8" y="-898.5" font-family="Helvetica,sans-Serif" font-size="10.00">+ add_component()</text>
<text text-anchor="start" x="8" y="-885.5" font-family="Helvetica,sans-Serif" font-size="10.00">+ remove_component()</text>
<text text-anchor="start" x="8" y="-872.5" font-family="Helvetica,sans-Serif" font-size="10.00">+ replace_component()</text>
<text text-anchor="start" x="8" y="-859.5" font-family="Helvetica,sans-Serif" font-size="10.00">+ prepare()</text>
<text text-anchor="start" x="8" y="-846.5" font-family="Helvetica,sans-Serif" font-size="10.00">+ cleanup()</text>
<text text-anchor="start" x="8" y="-833.5" font-family="Helvetica,sans-Serif" font-size="10.00">+ boot()</text>
<text text-anchor="start" x="8" y="-820.5" font-family="Helvetica,sans-Serif" font-size="10.00">and 10 more...</text>
</a>
</g>
<!-- Node5&#45;&gt;Node4 -->
<g id="edge8" class="edge"><title>Node5&#45;&gt;Node4</title>
<path fill="none" stroke="midnightblue" d="M75,-802.03C75,-792.533 75,-782.955 75,-773.552"/>
<polygon fill="none" stroke="midnightblue" points="71.5001,-802.291 75,-812.291 78.5001,-802.291 71.5001,-802.291"/>
</g>
<!-- Node6 -->
<g id="node10" class="node"><title>Node6</title>
<polygon fill="white" stroke="#bfbfbf" points="19.5,-1044.5 19.5,-1133.5 130.5,-1133.5 130.5,-1044.5 19.5,-1044.5"/>
<text text-anchor="start" x="27.5" y="-1120.5" font-family="Helvetica,sans-Serif" font-size="10.00">std::enable_shared</text>
<text text-anchor="start" x="27.5" y="-1107.5" font-family="Helvetica,sans-Serif" font-size="10.00">_from_this&lt; hardware</text>
<text text-anchor="middle" x="75" y="-1094.5" font-family="Helvetica,sans-Serif" font-size="10.00">_component &gt;</text>
<polyline fill="none" stroke="#bfbfbf" points="19.5,-1086.5 130.5,-1086.5 "/>
<text text-anchor="middle" x="75" y="-1073.5" font-family="Helvetica,sans-Serif" font-size="10.00"> </text>
<polyline fill="none" stroke="#bfbfbf" points="19.5,-1065.5 130.5,-1065.5 "/>
<text text-anchor="middle" x="75" y="-1052.5" font-family="Helvetica,sans-Serif" font-size="10.00"> </text>
</g>
<!-- Node6&#45;&gt;Node5 -->
<g id="edge10" class="edge"><title>Node6&#45;&gt;Node5</title>
<path fill="none" stroke="midnightblue" d="M75,-1033.81C75,-1024.86 75,-1015.37 75,-1005.77"/>
<polygon fill="none" stroke="midnightblue" points="71.5001,-1034.04 75,-1044.04 78.5001,-1034.04 71.5001,-1034.04"/>
</g>
<!-- Node7 -->
<g id="node12" class="node"><title>Node7</title>
<a xlink:href="../../db/dd3/classharpoon_1_1memory_1_1read__only__memory.html" target="_top" xlink:title="{harpoon::memory::read\l_only_memory\&lt; MemoryImplementation \&gt;\n||+ set()\l+ ~read_only_memory()\l}">
<polygon fill="white" stroke="black" points="160,-367.5 160,-456.5 360,-456.5 360,-367.5 160,-367.5"/>
<text text-anchor="start" x="168" y="-443.5" font-family="Helvetica,sans-Serif" font-size="10.00">harpoon::memory::read</text>
<text text-anchor="middle" x="260" y="-430.5" font-family="Helvetica,sans-Serif" font-size="10.00">_only_memory&lt; MemoryImplementation &gt;</text>
<polyline fill="none" stroke="black" points="160,-422.5 360,-422.5 "/>
<text text-anchor="middle" x="260" y="-409.5" font-family="Helvetica,sans-Serif" font-size="10.00"> </text>
<polyline fill="none" stroke="black" points="160,-401.5 360,-401.5 "/>
<text text-anchor="start" x="168" y="-388.5" font-family="Helvetica,sans-Serif" font-size="10.00">+ set()</text>
<text text-anchor="start" x="168" y="-375.5" font-family="Helvetica,sans-Serif" font-size="10.00">+ ~read_only_memory()</text>
</a>
</g>
<!-- Node7&#45;&gt;Node2 -->
<g id="edge12" class="edge"><title>Node7&#45;&gt;Node2</title>
<path fill="none" stroke="orange" d="M242.566,-357.341C230.377,-319.129 214.213,-268.451 202.285,-231.057"/>
<polygon fill="orange" stroke="orange" points="239.359,-358.805 245.732,-367.268 246.028,-356.677 239.359,-358.805"/>
<text text-anchor="middle" x="262.5" y="-254.5" font-family="Helvetica,sans-Serif" font-size="10.00"> &lt; chunked_memory &gt;</text>
</g>
<!-- Node8 -->
<g id="node14" class="node"><title>Node8</title>
<polygon fill="white" stroke="#bfbfbf" points="200.5,-645.5 200.5,-708.5 319.5,-708.5 319.5,-645.5 200.5,-645.5"/>
<text text-anchor="middle" x="260" y="-695.5" font-family="Helvetica,sans-Serif" font-size="10.00">MemoryImplementation</text>
<polyline fill="none" stroke="#bfbfbf" points="200.5,-687.5 319.5,-687.5 "/>
<text text-anchor="middle" x="260" y="-674.5" font-family="Helvetica,sans-Serif" font-size="10.00"> </text>
<polyline fill="none" stroke="#bfbfbf" points="200.5,-666.5 319.5,-666.5 "/>
<text text-anchor="middle" x="260" y="-653.5" font-family="Helvetica,sans-Serif" font-size="10.00"> </text>
</g>
<!-- Node8&#45;&gt;Node7 -->
<g id="edge14" class="edge"><title>Node8&#45;&gt;Node7</title>
<path fill="none" stroke="midnightblue" d="M260,-635.108C260,-586.403 260,-506.349 260,-456.541"/>
<polygon fill="none" stroke="midnightblue" points="256.5,-635.298 260,-645.298 263.5,-635.298 256.5,-635.298"/>
</g>
</g>
</svg>
        <g id="navigator" transform="translate(0 0)" fill="#404254">
                <rect fill="#f2f5e9" fill-opacity="0.5" stroke="#606060" stroke-width=".5" x="0" y="0" width="60" height="60"/>
                <use id="zoomplus" xlink:href="#zoomPlus" x="17" y="9" onmousedown="handleZoom(evt,'in')"/>
                <use id="zoomminus" xlink:href="#zoomMin" x="42" y="9" onmousedown="handleZoom(evt,'out')"/>
                <use id="reset" xlink:href="#resetDef" x="30" y="36" onmousedown="handleReset()"/>
                <g id="arrowUp" xlink:href="#dirArrow" transform="translate(30 24)" onmousedown="handlePan(0,-1)">
                  <use xlink:href="#rim" fill="#404040">
                        <set attributeName="fill" to="#808080" begin="arrowUp.mouseover" end="arrowUp.mouseout"/>
                  </use>
                  <path fill="none" stroke="white" stroke-width="1.5" d="M0,-3.0v7 M-2.5,-0.5L0,-3.0L2.5,-0.5"/>
                </g>
                <g id="arrowRight" xlink:href="#dirArrow" transform="rotate(90) translate(36 -43)" onmousedown="handlePan(1,0)">
                  <use xlink:href="#rim" fill="#404040">
                        <set attributeName="fill" to="#808080" begin="arrowRight.mouseover" end="arrowRight.mouseout"/>
                  </use>
                  <path fill="none" stroke="white" stroke-width="1.5" d="M0,-3.0v7 M-2.5,-0.5L0,-3.0L2.5,-0.5"/>
                </g>
                <g id="arrowDown" xlink:href="#dirArrow" transform="rotate(180) translate(-30 -48)" onmousedown="handlePan(0,1)">
                  <use xlink:href="#rim" fill="#404040">
                        <set attributeName="fill" to="#808080" begin="arrowDown.mouseover" end="arrowDown.mouseout"/>
                  </use>
                  <path fill="none" stroke="white" stroke-width="1.5" d="M0,-3.0v7 M-2.5,-0.5L0,-3.0L2.5,-0.5"/>
                </g>
                <g id="arrowLeft" xlink:href="#dirArrow" transform="rotate(270) translate(-36 17)" onmousedown="handlePan(-1,0)">
                  <use xlink:href="#rim" fill="#404040">
                        <set attributeName="fill" to="#808080" begin="arrowLeft.mouseover" end="arrowLeft.mouseout"/>
                  </use>
                  <path fill="none" stroke="white" stroke-width="1.5" d="M0,-3.0v7 M-2.5,-0.5L0,-3.0L2.5,-0.5"/>
                </g>
        </g>
        <svg viewBox="0 0 15 15" width="100%" height="30px" preserveAspectRatio="xMaxYMin meet">
         <g id="arrow_out" transform="scale(0.3 0.3)">
          <a xlink:href="classharpoon_1_1memory_1_1chunked__read__only__memory__coll__graph_org.svg" target="_base">
           <rect id="button" ry="5" rx="5" y="6" x="6" height="38" width="38"
                fill="#f2f5e9" fill-opacity="0.5" stroke="#606060" stroke-width="1.0"/>
           <path id="arrow"
             d="M 11.500037,31.436501 C 11.940474,20.09759 22.043105,11.32322 32.158766,21.979434 L 37.068811,17.246167 C 37.068811,17.246167 37.088388,32 37.088388,32 L 22.160133,31.978069 C 22.160133,31.978069 26.997745,27.140456 26.997745,27.140456 C 18.528582,18.264221 13.291696,25.230495 11.500037,31.436501 z"
             style="fill:#404040;"/>
          </a>
         </g>
        </svg>
</svg>
