<?xml version="1.0" encoding="UTF-8" standalone="no"?>
<!DOCTYPE svg PUBLIC "-//W3C//DTD SVG 1.1//EN"
 "http://www.w3.org/Graphics/SVG/1.1/DTD/svg11.dtd">
<!-- Generated by graphviz version 2.26.3 (20100126.1600)
 -->
<!-- Title: harpoon/clock/generator/generator.hh Pages: 1 -->
<svg width="312pt" height="218pt"
 viewBox="0.00 0.00 312.00 218.00" xmlns="http://www.w3.org/2000/svg" xmlns:xlink="http://www.w3.org/1999/xlink">
<g id="graph1" class="graph" transform="scale(1 1) rotate(0) translate(4 214)">
<title>harpoon/clock/generator/generator.hh</title>
<polygon fill="white" stroke="white" points="-4,5 -4,-214 309,-214 309,5 -4,5"/>
<!-- Node1 -->
<g id="node1" class="node"><title>Node1</title>
<polygon fill="#bfbfbf" stroke="black" points="129.5,-175 129.5,-209 250.5,-209 250.5,-175 129.5,-175"/>
<text text-anchor="start" x="137.5" y="-196" font-family="Helvetica,sans-Serif" font-size="10.00">harpoon/clock/generator</text>
<text text-anchor="middle" x="190" y="-183" font-family="Helvetica,sans-Serif" font-size="10.00">/generator.hh</text>
</g>
<!-- Node2 -->
<g id="node3" class="node"><title>Node2</title>
<a xlink:href="../../d5/d08/harpoon_8hh.html" target="_top" xlink:title="Harpoon library common header file. ">
<polygon fill="white" stroke="black" points="33,-58.5 33,-79.5 135,-79.5 135,-58.5 33,-58.5"/>
<text text-anchor="middle" x="84" y="-66.5" font-family="Helvetica,sans-Serif" font-size="10.00">harpoon/harpoon.hh</text>
</a>
</g>
<!-- Node1&#45;&gt;Node2 -->
<g id="edge2" class="edge"><title>Node1&#45;&gt;Node2</title>
<path fill="none" stroke="midnightblue" d="M130.929,-174.938C113.093,-166.743 95.4799,-154.898 85,-138 76.144,-123.721 76.6914,-104.378 78.9969,-89.8048"/>
<polygon fill="midnightblue" stroke="midnightblue" points="82.4781,-90.2415 80.9761,-79.7537 75.61,-88.8891 82.4781,-90.2415"/>
</g>
<!-- Node6 -->
<g id="node11" class="node"><title>Node6</title>
<a xlink:href="../../d3/dce/tick_8hh.html" target="_top" xlink:title="harpoon/clock/tick.hh">
<polygon fill="white" stroke="black" points="94,-116.5 94,-137.5 204,-137.5 204,-116.5 94,-116.5"/>
<text text-anchor="middle" x="149" y="-124.5" font-family="Helvetica,sans-Serif" font-size="10.00">harpoon/clock/tick.hh</text>
</a>
</g>
<!-- Node1&#45;&gt;Node6 -->
<g id="edge10" class="edge"><title>Node1&#45;&gt;Node6</title>
<path fill="none" stroke="midnightblue" d="M179.228,-174.922C173.734,-166.212 167.026,-155.578 161.327,-146.542"/>
<polygon fill="midnightblue" stroke="midnightblue" points="164.141,-144.443 155.845,-137.852 158.22,-148.177 164.141,-144.443"/>
</g>
<!-- Node7 -->
<g id="node14" class="node"><title>Node7</title>
<polygon fill="white" stroke="#bfbfbf" points="190,-58.5 190,-79.5 236,-79.5 236,-58.5 190,-58.5"/>
<text text-anchor="middle" x="213" y="-66.5" font-family="Helvetica,sans-Serif" font-size="10.00">atomic</text>
</g>
<!-- Node1&#45;&gt;Node7 -->
<g id="edge16" class="edge"><title>Node1&#45;&gt;Node7</title>
<path fill="none" stroke="midnightblue" d="M199.544,-174.585C204.642,-164.28 210.392,-150.78 213,-138 216.219,-122.228 216.059,-104.003 215.18,-90.2448"/>
<polygon fill="midnightblue" stroke="midnightblue" points="218.636,-89.5715 214.331,-79.8909 211.66,-90.1435 218.636,-89.5715"/>
</g>
<!-- Node8 -->
<g id="node17" class="node"><title>Node8</title>
<polygon fill="white" stroke="#bfbfbf" points="260,-116.5 260,-137.5 304,-137.5 304,-116.5 260,-116.5"/>
<text text-anchor="middle" x="282" y="-124.5" font-family="Helvetica,sans-Serif" font-size="10.00">thread</text>
</g>
<!-- Node1&#45;&gt;Node8 -->
<g id="edge18" class="edge"><title>Node1&#45;&gt;Node8</title>
<path fill="none" stroke="midnightblue" d="M214.172,-174.922C227.885,-165.233 244.967,-153.165 258.558,-143.562"/>
<polygon fill="midnightblue" stroke="midnightblue" points="260.767,-146.287 266.914,-137.658 256.727,-140.57 260.767,-146.287"/>
</g>
<!-- Node3 -->
<g id="node5" class="node"><title>Node3</title>
<polygon fill="white" stroke="#bfbfbf" points="-0.5,-0.5 -0.5,-21.5 40.5,-21.5 40.5,-0.5 -0.5,-0.5"/>
<text text-anchor="middle" x="20" y="-8.5" font-family="Helvetica,sans-Serif" font-size="10.00">string</text>
</g>
<!-- Node2&#45;&gt;Node3 -->
<g id="edge4" class="edge"><title>Node2&#45;&gt;Node3</title>
<path fill="none" stroke="midnightblue" d="M72.2614,-58.3619C63.0594,-50.0226 50.0599,-38.2418 39.3283,-28.5162"/>
<polygon fill="midnightblue" stroke="midnightblue" points="41.4244,-25.6924 31.6642,-21.5707 36.7237,-30.8793 41.4244,-25.6924"/>
</g>
<!-- Node4 -->
<g id="node7" class="node"><title>Node4</title>
<polygon fill="white" stroke="#bfbfbf" points="58,-0.5 58,-21.5 110,-21.5 110,-0.5 58,-0.5"/>
<text text-anchor="middle" x="84" y="-8.5" font-family="Helvetica,sans-Serif" font-size="10.00">memory</text>
</g>
<!-- Node2&#45;&gt;Node4 -->
<g id="edge6" class="edge"><title>Node2&#45;&gt;Node4</title>
<path fill="none" stroke="midnightblue" d="M84,-58.3619C84,-50.9219 84,-40.7427 84,-31.7276"/>
<polygon fill="midnightblue" stroke="midnightblue" points="87.5001,-31.5706 84,-21.5707 80.5001,-31.5707 87.5001,-31.5706"/>
</g>
<!-- Node5 -->
<g id="node9" class="node"><title>Node5</title>
<polygon fill="white" stroke="#bfbfbf" points="128,-0.5 128,-21.5 168,-21.5 168,-0.5 128,-0.5"/>
<text text-anchor="middle" x="148" y="-8.5" font-family="Helvetica,sans-Serif" font-size="10.00">utility</text>
</g>
<!-- Node2&#45;&gt;Node5 -->
<g id="edge8" class="edge"><title>Node2&#45;&gt;Node5</title>
<path fill="none" stroke="midnightblue" d="M95.7386,-58.3619C104.941,-50.0226 117.94,-38.2418 128.672,-28.5162"/>
<polygon fill="midnightblue" stroke="midnightblue" points="131.276,-30.8793 136.336,-21.5707 126.576,-25.6924 131.276,-30.8793"/>
</g>
<!-- Node6&#45;&gt;Node2 -->
<g id="edge12" class="edge"><title>Node6&#45;&gt;Node2</title>
<path fill="none" stroke="midnightblue" d="M137.078,-116.362C127.641,-107.941 114.27,-96.0105 103.31,-86.2308"/>
<polygon fill="midnightblue" stroke="midnightblue" points="105.638,-83.6171 95.8464,-79.5707 100.978,-88.8401 105.638,-83.6171"/>
</g>
<!-- Node6&#45;&gt;Node7 -->
<g id="edge14" class="edge"><title>Node6&#45;&gt;Node7</title>
<path fill="none" stroke="midnightblue" d="M160.739,-116.362C169.941,-108.023 182.94,-96.2418 193.672,-86.5162"/>
<polygon fill="midnightblue" stroke="midnightblue" points="196.276,-88.8793 201.336,-79.5707 191.576,-83.6924 196.276,-88.8793"/>
</g>
</g>
</svg>
