<?xml version="1.0" encoding="UTF-8" standalone="no"?>
<!DOCTYPE svg PUBLIC "-//W3C//DTD SVG 1.1//EN"
 "http://www.w3.org/Graphics/SVG/1.1/DTD/svg11.dtd">
<!-- Generated by graphviz version 2.26.3 (20100126.1600)
 -->
<!-- Title: harpoon::hardware_component Pages: 1 -->
<svg width="872pt" height="1120pt"
 viewBox="0.00 0.00 872.00 1120.00" xmlns="http://www.w3.org/2000/svg" xmlns:xlink="http://www.w3.org/1999/xlink">
<g id="graph1" class="graph" transform="scale(1 1) rotate(0) translate(4 1116)">
<title>harpoon::hardware_component</title>
<polygon fill="white" stroke="white" points="-4,5 -4,-1116 869,-1116 869,5 -4,5"/>
<!-- Node1 -->
<g id="node1" class="node"><title>Node1</title>
<polygon fill="#bfbfbf" stroke="black" points="261,-792.5 261,-985.5 411,-985.5 411,-792.5 261,-792.5"/>
<text text-anchor="middle" x="336" y="-972.5" font-family="Helvetica,sans-Serif" font-size="10.00">harpoon::hardware_component</text>
<polyline fill="none" stroke="black" points="261,-964.5 411,-964.5 "/>
<text text-anchor="middle" x="336" y="-951.5" font-family="Helvetica,sans-Serif" font-size="10.00"> </text>
<polyline fill="none" stroke="black" points="261,-943.5 411,-943.5 "/>
<text text-anchor="start" x="269" y="-930.5" font-family="Helvetica,sans-Serif" font-size="10.00">+ hardware_component()</text>
<text text-anchor="start" x="269" y="-917.5" font-family="Helvetica,sans-Serif" font-size="10.00">+ hardware_component()</text>
<text text-anchor="start" x="269" y="-904.5" font-family="Helvetica,sans-Serif" font-size="10.00">+ operator=()</text>
<text text-anchor="start" x="269" y="-891.5" font-family="Helvetica,sans-Serif" font-size="10.00">+ ~hardware_component()</text>
<text text-anchor="start" x="269" y="-878.5" font-family="Helvetica,sans-Serif" font-size="10.00">+ add_component()</text>
<text text-anchor="start" x="269" y="-865.5" font-family="Helvetica,sans-Serif" font-size="10.00">+ remove_component()</text>
<text text-anchor="start" x="269" y="-852.5" font-family="Helvetica,sans-Serif" font-size="10.00">+ replace_component()</text>
<text text-anchor="start" x="269" y="-839.5" font-family="Helvetica,sans-Serif" font-size="10.00">+ prepare()</text>
<text text-anchor="start" x="269" y="-826.5" font-family="Helvetica,sans-Serif" font-size="10.00">+ cleanup()</text>
<text text-anchor="start" x="269" y="-813.5" font-family="Helvetica,sans-Serif" font-size="10.00">+ boot()</text>
<text text-anchor="start" x="269" y="-800.5" font-family="Helvetica,sans-Serif" font-size="10.00">and 8 more...</text>
</g>
<!-- Node3 -->
<g id="node5" class="node"><title>Node3</title>
<a xlink:href="../../d5/d84/classharpoon_1_1clock_1_1clock.html" target="_top" xlink:title="{harpoon::clock::clock\n||+ clock()\l+ set_generator()\l+ get_tick()\l+ wait_for_tick()\l+ wait_tick()\l+ is_running()\l+ boot()\l+ shutdown()\l+ ~clock()\l}">
<polygon fill="white" stroke="black" points="0,-555.5 0,-722.5 110,-722.5 110,-555.5 0,-555.5"/>
<text text-anchor="middle" x="55" y="-709.5" font-family="Helvetica,sans-Serif" font-size="10.00">harpoon::clock::clock</text>
<polyline fill="none" stroke="black" points="0,-701.5 110,-701.5 "/>
<text text-anchor="middle" x="55" y="-688.5" font-family="Helvetica,sans-Serif" font-size="10.00"> </text>
<polyline fill="none" stroke="black" points="0,-680.5 110,-680.5 "/>
<text text-anchor="start" x="8" y="-667.5" font-family="Helvetica,sans-Serif" font-size="10.00">+ clock()</text>
<text text-anchor="start" x="8" y="-654.5" font-family="Helvetica,sans-Serif" font-size="10.00">+ set_generator()</text>
<text text-anchor="start" x="8" y="-641.5" font-family="Helvetica,sans-Serif" font-size="10.00">+ get_tick()</text>
<text text-anchor="start" x="8" y="-628.5" font-family="Helvetica,sans-Serif" font-size="10.00">+ wait_for_tick()</text>
<text text-anchor="start" x="8" y="-615.5" font-family="Helvetica,sans-Serif" font-size="10.00">+ wait_tick()</text>
<text text-anchor="start" x="8" y="-602.5" font-family="Helvetica,sans-Serif" font-size="10.00">+ is_running()</text>
<text text-anchor="start" x="8" y="-589.5" font-family="Helvetica,sans-Serif" font-size="10.00">+ boot()</text>
<text text-anchor="start" x="8" y="-576.5" font-family="Helvetica,sans-Serif" font-size="10.00">+ shutdown()</text>
<text text-anchor="start" x="8" y="-563.5" font-family="Helvetica,sans-Serif" font-size="10.00">+ ~clock()</text>
</a>
</g>
<!-- Node1&#45;&gt;Node3 -->
<g id="edge4" class="edge"><title>Node1&#45;&gt;Node3</title>
<path fill="none" stroke="midnightblue" d="M251.737,-850.613C208.227,-827.73 156.543,-795.442 119,-756 109.582,-746.106 101.105,-734.557 93.637,-722.643"/>
<polygon fill="none" stroke="midnightblue" points="250.4,-853.862 260.889,-855.352 253.618,-847.646 250.4,-853.862"/>
</g>
<!-- Node4 -->
<g id="node7" class="node"><title>Node4</title>
<a xlink:href="../../dd/d91/classharpoon_1_1computer__system.html" target="_top" xlink:title="{harpoon::computer_system\n||+ ~computer_system()\l+ set_main_execution_unit()\l+ get_main_execution_unit()\l+ set_main_memory()\l+ get_main_memory()\l+ run()\l}">
<polygon fill="white" stroke="black" points="128,-575 128,-703 268,-703 268,-575 128,-575"/>
<text text-anchor="middle" x="198" y="-690" font-family="Helvetica,sans-Serif" font-size="10.00">harpoon::computer_system</text>
<polyline fill="none" stroke="black" points="128,-682 268,-682 "/>
<text text-anchor="middle" x="198" y="-669" font-family="Helvetica,sans-Serif" font-size="10.00"> </text>
<polyline fill="none" stroke="black" points="128,-661 268,-661 "/>
<text text-anchor="start" x="136" y="-648" font-family="Helvetica,sans-Serif" font-size="10.00">+ ~computer_system()</text>
<text text-anchor="start" x="136" y="-635" font-family="Helvetica,sans-Serif" font-size="10.00">+ set_main_execution_unit()</text>
<text text-anchor="start" x="136" y="-622" font-family="Helvetica,sans-Serif" font-size="10.00">+ get_main_execution_unit()</text>
<text text-anchor="start" x="136" y="-609" font-family="Helvetica,sans-Serif" font-size="10.00">+ set_main_memory()</text>
<text text-anchor="start" x="136" y="-596" font-family="Helvetica,sans-Serif" font-size="10.00">+ get_main_memory()</text>
<text text-anchor="start" x="136" y="-583" font-family="Helvetica,sans-Serif" font-size="10.00">+ run()</text>
</a>
</g>
<!-- Node1&#45;&gt;Node4 -->
<g id="edge6" class="edge"><title>Node1&#45;&gt;Node4</title>
<path fill="none" stroke="midnightblue" d="M277.792,-783.55C262.754,-756.308 247.015,-727.795 233.528,-703.362"/>
<polygon fill="none" stroke="midnightblue" points="274.749,-785.28 282.646,-792.343 280.877,-781.897 274.749,-785.28"/>
</g>
<!-- Node5 -->
<g id="node9" class="node"><title>Node5</title>
<a xlink:href="../../d6/d5c/classharpoon_1_1execution_1_1execution__unit.html" target="_top" xlink:title="{harpoon::execution\l::execution_unit\n||+ set_clock()\l+ get_clock()\l+ ~execution_unit()\l}">
<polygon fill="white" stroke="black" points="285.5,-588 285.5,-690 386.5,-690 386.5,-588 285.5,-588"/>
<text text-anchor="start" x="293.5" y="-677" font-family="Helvetica,sans-Serif" font-size="10.00">harpoon::execution</text>
<text text-anchor="middle" x="336" y="-664" font-family="Helvetica,sans-Serif" font-size="10.00">::execution_unit</text>
<polyline fill="none" stroke="black" points="285.5,-656 386.5,-656 "/>
<text text-anchor="middle" x="336" y="-643" font-family="Helvetica,sans-Serif" font-size="10.00"> </text>
<polyline fill="none" stroke="black" points="285.5,-635 386.5,-635 "/>
<text text-anchor="start" x="293.5" y="-622" font-family="Helvetica,sans-Serif" font-size="10.00">+ set_clock()</text>
<text text-anchor="start" x="293.5" y="-609" font-family="Helvetica,sans-Serif" font-size="10.00">+ get_clock()</text>
<text text-anchor="start" x="293.5" y="-596" font-family="Helvetica,sans-Serif" font-size="10.00">+ ~execution_unit()</text>
</a>
</g>
<!-- Node1&#45;&gt;Node5 -->
<g id="edge8" class="edge"><title>Node1&#45;&gt;Node5</title>
<path fill="none" stroke="midnightblue" d="M336,-782.081C336,-750.269 336,-716.86 336,-690.333"/>
<polygon fill="none" stroke="midnightblue" points="332.5,-782.343 336,-792.343 339.5,-782.344 332.5,-782.343"/>
</g>
<!-- Node7 -->
<g id="node13" class="node"><title>Node7</title>
<a xlink:href="../../d9/d00/classharpoon_1_1execution_1_1processing__unit.html" target="_top" xlink:title="{harpoon::execution\l::processing_unit\n||+ prepare()\l+ boot()\l+ shutdown()\l+ run()\l+ wait_for_cycle()\l+ wait_for_next_cycle()\l+ fetch()\l+ execute()\l+ is_running()\l+ get_execution_unit()\l+ get_cycle()\l+ get_executed_instructions()\l+ ~processing_unit()\l}">
<polygon fill="white" stroke="black" points="404,-523 404,-755 550,-755 550,-523 404,-523"/>
<text text-anchor="start" x="412" y="-742" font-family="Helvetica,sans-Serif" font-size="10.00">harpoon::execution</text>
<text text-anchor="middle" x="477" y="-729" font-family="Helvetica,sans-Serif" font-size="10.00">::processing_unit</text>
<polyline fill="none" stroke="black" points="404,-721 550,-721 "/>
<text text-anchor="middle" x="477" y="-708" font-family="Helvetica,sans-Serif" font-size="10.00"> </text>
<polyline fill="none" stroke="black" points="404,-700 550,-700 "/>
<text text-anchor="start" x="412" y="-687" font-family="Helvetica,sans-Serif" font-size="10.00">+ prepare()</text>
<text text-anchor="start" x="412" y="-674" font-family="Helvetica,sans-Serif" font-size="10.00">+ boot()</text>
<text text-anchor="start" x="412" y="-661" font-family="Helvetica,sans-Serif" font-size="10.00">+ shutdown()</text>
<text text-anchor="start" x="412" y="-648" font-family="Helvetica,sans-Serif" font-size="10.00">+ run()</text>
<text text-anchor="start" x="412" y="-635" font-family="Helvetica,sans-Serif" font-size="10.00">+ wait_for_cycle()</text>
<text text-anchor="start" x="412" y="-622" font-family="Helvetica,sans-Serif" font-size="10.00">+ wait_for_next_cycle()</text>
<text text-anchor="start" x="412" y="-609" font-family="Helvetica,sans-Serif" font-size="10.00">+ fetch()</text>
<text text-anchor="start" x="412" y="-596" font-family="Helvetica,sans-Serif" font-size="10.00">+ execute()</text>
<text text-anchor="start" x="412" y="-583" font-family="Helvetica,sans-Serif" font-size="10.00">+ is_running()</text>
<text text-anchor="start" x="412" y="-570" font-family="Helvetica,sans-Serif" font-size="10.00">+ get_execution_unit()</text>
<text text-anchor="start" x="412" y="-557" font-family="Helvetica,sans-Serif" font-size="10.00">+ get_cycle()</text>
<text text-anchor="start" x="412" y="-544" font-family="Helvetica,sans-Serif" font-size="10.00">+ get_executed_instructions()</text>
<text text-anchor="start" x="412" y="-531" font-family="Helvetica,sans-Serif" font-size="10.00">+ ~processing_unit()</text>
</a>
</g>
<!-- Node1&#45;&gt;Node7 -->
<g id="edge12" class="edge"><title>Node1&#45;&gt;Node7</title>
<path fill="none" stroke="midnightblue" d="M395.559,-783.398C400.852,-774.013 406.23,-764.479 411.569,-755.013"/>
<polygon fill="none" stroke="midnightblue" points="392.378,-781.914 390.514,-792.343 398.475,-785.353 392.378,-781.914"/>
</g>
<!-- Node8 -->
<g id="node15" class="node"><title>Node8</title>
<a xlink:href="../../db/d2f/classharpoon_1_1memory_1_1memory.html" target="_top" xlink:title="{harpoon::memory::memory\n||+ memory()\l+ get_address_range()\l+ get_address_range()\l+ set_address_range()\l+ has_address()\l+ get()\l+ set()\l+ ~memory()\l}">
<polygon fill="white" stroke="black" points="568,-562 568,-716 702,-716 702,-562 568,-562"/>
<text text-anchor="middle" x="635" y="-703" font-family="Helvetica,sans-Serif" font-size="10.00">harpoon::memory::memory</text>
<polyline fill="none" stroke="black" points="568,-695 702,-695 "/>
<text text-anchor="middle" x="635" y="-682" font-family="Helvetica,sans-Serif" font-size="10.00"> </text>
<polyline fill="none" stroke="black" points="568,-674 702,-674 "/>
<text text-anchor="start" x="576" y="-661" font-family="Helvetica,sans-Serif" font-size="10.00">+ memory()</text>
<text text-anchor="start" x="576" y="-648" font-family="Helvetica,sans-Serif" font-size="10.00">+ get_address_range()</text>
<text text-anchor="start" x="576" y="-635" font-family="Helvetica,sans-Serif" font-size="10.00">+ get_address_range()</text>
<text text-anchor="start" x="576" y="-622" font-family="Helvetica,sans-Serif" font-size="10.00">+ set_address_range()</text>
<text text-anchor="start" x="576" y="-609" font-family="Helvetica,sans-Serif" font-size="10.00">+ has_address()</text>
<text text-anchor="start" x="576" y="-596" font-family="Helvetica,sans-Serif" font-size="10.00">+ get()</text>
<text text-anchor="start" x="576" y="-583" font-family="Helvetica,sans-Serif" font-size="10.00">+ set()</text>
<text text-anchor="start" x="576" y="-570" font-family="Helvetica,sans-Serif" font-size="10.00">+ ~memory()</text>
</a>
</g>
<!-- Node1&#45;&gt;Node8 -->
<g id="edge14" class="edge"><title>Node1&#45;&gt;Node8</title>
<path fill="none" stroke="midnightblue" d="M420.141,-850.539C464.777,-827.4 518.586,-794.895 559,-756 571.129,-744.327 582.274,-730.368 592.075,-716.226"/>
<polygon fill="none" stroke="midnightblue" points="418.363,-847.517 411.053,-855.187 421.55,-853.749 418.363,-847.517"/>
</g>
<!-- Node2 -->
<g id="node2" class="node"><title>Node2</title>
<polygon fill="white" stroke="#bfbfbf" points="280.5,-1022.5 280.5,-1111.5 391.5,-1111.5 391.5,-1022.5 280.5,-1022.5"/>
<text text-anchor="start" x="288.5" y="-1098.5" font-family="Helvetica,sans-Serif" font-size="10.00">std::enable_shared</text>
<text text-anchor="start" x="288.5" y="-1085.5" font-family="Helvetica,sans-Serif" font-size="10.00">_from_this&lt; hardware</text>
<text text-anchor="middle" x="336" y="-1072.5" font-family="Helvetica,sans-Serif" font-size="10.00">_component &gt;</text>
<polyline fill="none" stroke="#bfbfbf" points="280.5,-1064.5 391.5,-1064.5 "/>
<text text-anchor="middle" x="336" y="-1051.5" font-family="Helvetica,sans-Serif" font-size="10.00"> </text>
<polyline fill="none" stroke="#bfbfbf" points="280.5,-1043.5 391.5,-1043.5 "/>
<text text-anchor="middle" x="336" y="-1030.5" font-family="Helvetica,sans-Serif" font-size="10.00"> </text>
</g>
<!-- Node2&#45;&gt;Node1 -->
<g id="edge2" class="edge"><title>Node2&#45;&gt;Node1</title>
<path fill="none" stroke="midnightblue" d="M336,-1012.06C336,-1003.63 336,-994.712 336,-985.692"/>
<polygon fill="none" stroke="midnightblue" points="332.5,-1012.08 336,-1022.08 339.5,-1012.08 332.5,-1012.08"/>
</g>
<!-- Node6 -->
<g id="node11" class="node"><title>Node6</title>
<a xlink:href="../../d7/dcf/classharpoon_1_1execution_1_1up__execution__unit.html" target="_top" xlink:title="{harpoon::execution\l::up_execution_unit\n||+ ~up_execution_unit()\l+ set_processing_unit()\l+ get_processing_unit()\l}">
<polygon fill="white" stroke="black" points="276.5,-325 276.5,-427 395.5,-427 395.5,-325 276.5,-325"/>
<text text-anchor="start" x="284.5" y="-414" font-family="Helvetica,sans-Serif" font-size="10.00">harpoon::execution</text>
<text text-anchor="middle" x="336" y="-401" font-family="Helvetica,sans-Serif" font-size="10.00">::up_execution_unit</text>
<polyline fill="none" stroke="black" points="276.5,-393 395.5,-393 "/>
<text text-anchor="middle" x="336" y="-380" font-family="Helvetica,sans-Serif" font-size="10.00"> </text>
<polyline fill="none" stroke="black" points="276.5,-372 395.5,-372 "/>
<text text-anchor="start" x="284.5" y="-359" font-family="Helvetica,sans-Serif" font-size="10.00">+ ~up_execution_unit()</text>
<text text-anchor="start" x="284.5" y="-346" font-family="Helvetica,sans-Serif" font-size="10.00">+ set_processing_unit()</text>
<text text-anchor="start" x="284.5" y="-333" font-family="Helvetica,sans-Serif" font-size="10.00">+ get_processing_unit()</text>
</a>
</g>
<!-- Node5&#45;&gt;Node6 -->
<g id="edge10" class="edge"><title>Node5&#45;&gt;Node6</title>
<path fill="none" stroke="midnightblue" d="M336,-577.905C336,-532.224 336,-470.467 336,-427.327"/>
<polygon fill="none" stroke="midnightblue" points="332.5,-577.979 336,-587.979 339.5,-577.979 332.5,-577.979"/>
</g>
<!-- Node9 -->
<g id="node17" class="node"><title>Node9</title>
<a xlink:href="../../da/d84/classharpoon_1_1memory_1_1chunked__memory.html" target="_top" xlink:title="{harpoon::memory::chunked\l_memory\n||+ chunked_memory()\l+ chunked_memory()\l+ operator=()\l+ prepare()\l+ cleanup()\l+ get()\l+ set()\l+ ~chunked_memory()\l# get_chunk_index()\l# get_chunk_offset()\l# get_chunk()\l# get_chunk()\l}">
<polygon fill="white" stroke="black" points="413.5,-266.5 413.5,-485.5 548.5,-485.5 548.5,-266.5 413.5,-266.5"/>
<text text-anchor="start" x="421.5" y="-472.5" font-family="Helvetica,sans-Serif" font-size="10.00">harpoon::memory::chunked</text>
<text text-anchor="middle" x="481" y="-459.5" font-family="Helvetica,sans-Serif" font-size="10.00">_memory</text>
<polyline fill="none" stroke="black" points="413.5,-451.5 548.5,-451.5 "/>
<text text-anchor="middle" x="481" y="-438.5" font-family="Helvetica,sans-Serif" font-size="10.00"> </text>
<polyline fill="none" stroke="black" points="413.5,-430.5 548.5,-430.5 "/>
<text text-anchor="start" x="421.5" y="-417.5" font-family="Helvetica,sans-Serif" font-size="10.00">+ chunked_memory()</text>
<text text-anchor="start" x="421.5" y="-404.5" font-family="Helvetica,sans-Serif" font-size="10.00">+ chunked_memory()</text>
<text text-anchor="start" x="421.5" y="-391.5" font-family="Helvetica,sans-Serif" font-size="10.00">+ operator=()</text>
<text text-anchor="start" x="421.5" y="-378.5" font-family="Helvetica,sans-Serif" font-size="10.00">+ prepare()</text>
<text text-anchor="start" x="421.5" y="-365.5" font-family="Helvetica,sans-Serif" font-size="10.00">+ cleanup()</text>
<text text-anchor="start" x="421.5" y="-352.5" font-family="Helvetica,sans-Serif" font-size="10.00">+ get()</text>
<text text-anchor="start" x="421.5" y="-339.5" font-family="Helvetica,sans-Serif" font-size="10.00">+ set()</text>
<text text-anchor="start" x="421.5" y="-326.5" font-family="Helvetica,sans-Serif" font-size="10.00">+ ~chunked_memory()</text>
<text text-anchor="start" x="421.5" y="-313.5" font-family="Helvetica,sans-Serif" font-size="10.00"># get_chunk_index()</text>
<text text-anchor="start" x="421.5" y="-300.5" font-family="Helvetica,sans-Serif" font-size="10.00"># get_chunk_offset()</text>
<text text-anchor="start" x="421.5" y="-287.5" font-family="Helvetica,sans-Serif" font-size="10.00"># get_chunk()</text>
<text text-anchor="start" x="421.5" y="-274.5" font-family="Helvetica,sans-Serif" font-size="10.00"># get_chunk()</text>
</a>
</g>
<!-- Node8&#45;&gt;Node9 -->
<g id="edge16" class="edge"><title>Node8&#45;&gt;Node9</title>
<path fill="none" stroke="midnightblue" d="M584.703,-553.104C572.128,-531.627 558.467,-508.298 545.314,-485.836"/>
<polygon fill="none" stroke="midnightblue" points="581.762,-555.007 589.835,-561.868 587.803,-551.47 581.762,-555.007"/>
</g>
<!-- Node14 -->
<g id="node27" class="node"><title>Node14</title>
<a xlink:href="../../da/df3/classharpoon_1_1memory_1_1linear__memory.html" target="_top" xlink:title="{harpoon::memory::linear\l_memory\n||+ linear_memory()\l+ linear_memory()\l+ operator=()\l+ prepare()\l+ cleanup()\l+ get()\l+ set()\l+ ~linear_memory()\l}">
<polygon fill="white" stroke="black" points="574,-292.5 574,-459.5 696,-459.5 696,-292.5 574,-292.5"/>
<text text-anchor="start" x="582" y="-446.5" font-family="Helvetica,sans-Serif" font-size="10.00">harpoon::memory::linear</text>
<text text-anchor="middle" x="635" y="-433.5" font-family="Helvetica,sans-Serif" font-size="10.00">_memory</text>
<polyline fill="none" stroke="black" points="574,-425.5 696,-425.5 "/>
<text text-anchor="middle" x="635" y="-412.5" font-family="Helvetica,sans-Serif" font-size="10.00"> </text>
<polyline fill="none" stroke="black" points="574,-404.5 696,-404.5 "/>
<text text-anchor="start" x="582" y="-391.5" font-family="Helvetica,sans-Serif" font-size="10.00">+ linear_memory()</text>
<text text-anchor="start" x="582" y="-378.5" font-family="Helvetica,sans-Serif" font-size="10.00">+ linear_memory()</text>
<text text-anchor="start" x="582" y="-365.5" font-family="Helvetica,sans-Serif" font-size="10.00">+ operator=()</text>
<text text-anchor="start" x="582" y="-352.5" font-family="Helvetica,sans-Serif" font-size="10.00">+ prepare()</text>
<text text-anchor="start" x="582" y="-339.5" font-family="Helvetica,sans-Serif" font-size="10.00">+ cleanup()</text>
<text text-anchor="start" x="582" y="-326.5" font-family="Helvetica,sans-Serif" font-size="10.00">+ get()</text>
<text text-anchor="start" x="582" y="-313.5" font-family="Helvetica,sans-Serif" font-size="10.00">+ set()</text>
<text text-anchor="start" x="582" y="-300.5" font-family="Helvetica,sans-Serif" font-size="10.00">+ ~linear_memory()</text>
</a>
</g>
<!-- Node8&#45;&gt;Node14 -->
<g id="edge26" class="edge"><title>Node8&#45;&gt;Node14</title>
<path fill="none" stroke="midnightblue" d="M635,-551.537C635,-521.9 635,-488.888 635,-459.562"/>
<polygon fill="none" stroke="midnightblue" points="631.5,-551.868 635,-561.868 638.5,-551.868 631.5,-551.868"/>
</g>
<!-- Node19 -->
<g id="node37" class="node"><title>Node19</title>
<a xlink:href="../../d8/d1f/classharpoon_1_1memory_1_1main__memory.html" target="_top" xlink:title="{harpoon::memory::main\l_memory\n||+ main_memory()\l+ main_memory()\l+ operator=()\l+ add_memory()\l+ get()\l+ set()\l+ ~main_memory()\l}">
<polygon fill="white" stroke="black" points="713.5,-299 713.5,-453 832.5,-453 832.5,-299 713.5,-299"/>
<text text-anchor="start" x="721.5" y="-440" font-family="Helvetica,sans-Serif" font-size="10.00">harpoon::memory::main</text>
<text text-anchor="middle" x="773" y="-427" font-family="Helvetica,sans-Serif" font-size="10.00">_memory</text>
<polyline fill="none" stroke="black" points="713.5,-419 832.5,-419 "/>
<text text-anchor="middle" x="773" y="-406" font-family="Helvetica,sans-Serif" font-size="10.00"> </text>
<polyline fill="none" stroke="black" points="713.5,-398 832.5,-398 "/>
<text text-anchor="start" x="721.5" y="-385" font-family="Helvetica,sans-Serif" font-size="10.00">+ main_memory()</text>
<text text-anchor="start" x="721.5" y="-372" font-family="Helvetica,sans-Serif" font-size="10.00">+ main_memory()</text>
<text text-anchor="start" x="721.5" y="-359" font-family="Helvetica,sans-Serif" font-size="10.00">+ operator=()</text>
<text text-anchor="start" x="721.5" y="-346" font-family="Helvetica,sans-Serif" font-size="10.00">+ add_memory()</text>
<text text-anchor="start" x="721.5" y="-333" font-family="Helvetica,sans-Serif" font-size="10.00">+ get()</text>
<text text-anchor="start" x="721.5" y="-320" font-family="Helvetica,sans-Serif" font-size="10.00">+ set()</text>
<text text-anchor="start" x="721.5" y="-307" font-family="Helvetica,sans-Serif" font-size="10.00">+ ~main_memory()</text>
</a>
</g>
<!-- Node8&#45;&gt;Node19 -->
<g id="edge36" class="edge"><title>Node8&#45;&gt;Node19</title>
<path fill="none" stroke="midnightblue" d="M680.172,-552.912C697.051,-520.743 716.099,-484.441 732.529,-453.13"/>
<polygon fill="none" stroke="midnightblue" points="677.019,-551.387 675.472,-561.868 683.218,-554.64 677.019,-551.387"/>
</g>
<!-- Node10 -->
<g id="node19" class="node"><title>Node10</title>
<a xlink:href="../../dc/d01/classharpoon_1_1memory_1_1random__access__memory.html" target="_top" xlink:title="{harpoon::memory::random\l_access_memory\&lt; chunked\l_memory \&gt;\n||+ ~random_access_memory()\l}">
<polygon fill="white" stroke="black" points="252.5,-133.5 252.5,-222.5 399.5,-222.5 399.5,-133.5 252.5,-133.5"/>
<text text-anchor="start" x="260.5" y="-209.5" font-family="Helvetica,sans-Serif" font-size="10.00">harpoon::memory::random</text>
<text text-anchor="start" x="260.5" y="-196.5" font-family="Helvetica,sans-Serif" font-size="10.00">_access_memory&lt; chunked</text>
<text text-anchor="middle" x="326" y="-183.5" font-family="Helvetica,sans-Serif" font-size="10.00">_memory &gt;</text>
<polyline fill="none" stroke="black" points="252.5,-175.5 399.5,-175.5 "/>
<text text-anchor="middle" x="326" y="-162.5" font-family="Helvetica,sans-Serif" font-size="10.00"> </text>
<polyline fill="none" stroke="black" points="252.5,-154.5 399.5,-154.5 "/>
<text text-anchor="start" x="260.5" y="-141.5" font-family="Helvetica,sans-Serif" font-size="10.00">+ ~random_access_memory()</text>
</a>
</g>
<!-- Node9&#45;&gt;Node10 -->
<g id="edge18" class="edge"><title>Node9&#45;&gt;Node10</title>
<path fill="none" stroke="midnightblue" d="M407.208,-270.097C406.137,-268.719 405.067,-267.353 404,-266 392.619,-251.575 379.6,-236.416 367.501,-222.822"/>
<polygon fill="none" stroke="midnightblue" points="404.487,-272.3 413.353,-278.102 410.04,-268.038 404.487,-272.3"/>
</g>
<!-- Node12 -->
<g id="node23" class="node"><title>Node12</title>
<a xlink:href="../../db/dd3/classharpoon_1_1memory_1_1read__only__memory.html" target="_top" xlink:title="{harpoon::memory::read\l_only_memory\&lt; chunked\l_memory \&gt;\n||+ set()\l+ ~read_only_memory()\l}">
<polygon fill="white" stroke="black" points="418,-127 418,-229 544,-229 544,-127 418,-127"/>
<text text-anchor="start" x="426" y="-216" font-family="Helvetica,sans-Serif" font-size="10.00">harpoon::memory::read</text>
<text text-anchor="start" x="426" y="-203" font-family="Helvetica,sans-Serif" font-size="10.00">_only_memory&lt; chunked</text>
<text text-anchor="middle" x="481" y="-190" font-family="Helvetica,sans-Serif" font-size="10.00">_memory &gt;</text>
<polyline fill="none" stroke="black" points="418,-182 544,-182 "/>
<text text-anchor="middle" x="481" y="-169" font-family="Helvetica,sans-Serif" font-size="10.00"> </text>
<polyline fill="none" stroke="black" points="418,-161 544,-161 "/>
<text text-anchor="start" x="426" y="-148" font-family="Helvetica,sans-Serif" font-size="10.00">+ set()</text>
<text text-anchor="start" x="426" y="-135" font-family="Helvetica,sans-Serif" font-size="10.00">+ ~read_only_memory()</text>
</a>
</g>
<!-- Node9&#45;&gt;Node12 -->
<g id="edge22" class="edge"><title>Node9&#45;&gt;Node12</title>
<path fill="none" stroke="midnightblue" d="M481,-256.117C481,-246.822 481,-237.784 481,-229.352"/>
<polygon fill="none" stroke="midnightblue" points="477.5,-256.287 481,-266.287 484.5,-256.287 477.5,-256.287"/>
</g>
<!-- Node11 -->
<g id="node21" class="node"><title>Node11</title>
<a xlink:href="../../de/d86/classharpoon_1_1memory_1_1chunked__random__access__memory.html" target="_top" xlink:title="{harpoon::memory::chunked\l_random_access_memory\n||+ ~chunked_random_access\l_memory()\l}">
<polygon fill="white" stroke="black" points="254.5,-0.5 254.5,-89.5 397.5,-89.5 397.5,-0.5 254.5,-0.5"/>
<text text-anchor="start" x="262.5" y="-76.5" font-family="Helvetica,sans-Serif" font-size="10.00">harpoon::memory::chunked</text>
<text text-anchor="middle" x="326" y="-63.5" font-family="Helvetica,sans-Serif" font-size="10.00">_random_access_memory</text>
<polyline fill="none" stroke="black" points="254.5,-55.5 397.5,-55.5 "/>
<text text-anchor="middle" x="326" y="-42.5" font-family="Helvetica,sans-Serif" font-size="10.00"> </text>
<polyline fill="none" stroke="black" points="254.5,-34.5 397.5,-34.5 "/>
<text text-anchor="start" x="262.5" y="-21.5" font-family="Helvetica,sans-Serif" font-size="10.00">+ ~chunked_random_access</text>
<text text-anchor="start" x="262.5" y="-8.5" font-family="Helvetica,sans-Serif" font-size="10.00">_memory()</text>
</a>
</g>
<!-- Node10&#45;&gt;Node11 -->
<g id="edge20" class="edge"><title>Node10&#45;&gt;Node11</title>
<path fill="none" stroke="midnightblue" d="M326,-123.27C326,-112.122 326,-100.518 326,-89.7656"/>
<polygon fill="none" stroke="midnightblue" points="322.5,-123.343 326,-133.343 329.5,-123.343 322.5,-123.343"/>
</g>
<!-- Node13 -->
<g id="node25" class="node"><title>Node13</title>
<a xlink:href="../../d5/d6c/classharpoon_1_1memory_1_1chunked__read__only__memory.html" target="_top" xlink:title="{harpoon::memory::chunked\l_read_only_memory\n||+ ~chunked_read_only\l_memory()\l}">
<polygon fill="white" stroke="black" points="414.5,-0.5 414.5,-89.5 549.5,-89.5 549.5,-0.5 414.5,-0.5"/>
<text text-anchor="start" x="422.5" y="-76.5" font-family="Helvetica,sans-Serif" font-size="10.00">harpoon::memory::chunked</text>
<text text-anchor="middle" x="482" y="-63.5" font-family="Helvetica,sans-Serif" font-size="10.00">_read_only_memory</text>
<polyline fill="none" stroke="black" points="414.5,-55.5 549.5,-55.5 "/>
<text text-anchor="middle" x="482" y="-42.5" font-family="Helvetica,sans-Serif" font-size="10.00"> </text>
<polyline fill="none" stroke="black" points="414.5,-34.5 549.5,-34.5 "/>
<text text-anchor="start" x="422.5" y="-21.5" font-family="Helvetica,sans-Serif" font-size="10.00">+ ~chunked_read_only</text>
<text text-anchor="start" x="422.5" y="-8.5" font-family="Helvetica,sans-Serif" font-size="10.00">_memory()</text>
</a>
</g>
<!-- Node12&#45;&gt;Node13 -->
<g id="edge24" class="edge"><title>Node12&#45;&gt;Node13</title>
<path fill="none" stroke="midnightblue" d="M481.461,-116.733C481.529,-107.593 481.599,-98.3199 481.665,-89.6108"/>
<polygon fill="none" stroke="midnightblue" points="477.959,-116.933 481.384,-126.959 484.959,-116.986 477.959,-116.933"/>
</g>
<!-- Node15 -->
<g id="node29" class="node"><title>Node15</title>
<a xlink:href="../../dc/d01/classharpoon_1_1memory_1_1random__access__memory.html" target="_top" xlink:title="{harpoon::memory::random\l_access_memory\&lt; linear\l_memory \&gt;\n||+ ~random_access_memory()\l}">
<polygon fill="white" stroke="black" points="561.5,-133.5 561.5,-222.5 708.5,-222.5 708.5,-133.5 561.5,-133.5"/>
<text text-anchor="start" x="569.5" y="-209.5" font-family="Helvetica,sans-Serif" font-size="10.00">harpoon::memory::random</text>
<text text-anchor="start" x="569.5" y="-196.5" font-family="Helvetica,sans-Serif" font-size="10.00">_access_memory&lt; linear</text>
<text text-anchor="middle" x="635" y="-183.5" font-family="Helvetica,sans-Serif" font-size="10.00">_memory &gt;</text>
<polyline fill="none" stroke="black" points="561.5,-175.5 708.5,-175.5 "/>
<text text-anchor="middle" x="635" y="-162.5" font-family="Helvetica,sans-Serif" font-size="10.00"> </text>
<polyline fill="none" stroke="black" points="561.5,-154.5 708.5,-154.5 "/>
<text text-anchor="start" x="569.5" y="-141.5" font-family="Helvetica,sans-Serif" font-size="10.00">+ ~random_access_memory()</text>
</a>
</g>
<!-- Node14&#45;&gt;Node15 -->
<g id="edge28" class="edge"><title>Node14&#45;&gt;Node15</title>
<path fill="none" stroke="midnightblue" d="M635,-282.153C635,-261.366 635,-240.275 635,-222.559"/>
<polygon fill="none" stroke="midnightblue" points="631.5,-282.317 635,-292.317 638.5,-282.317 631.5,-282.317"/>
</g>
<!-- Node17 -->
<g id="node33" class="node"><title>Node17</title>
<a xlink:href="../../db/dd3/classharpoon_1_1memory_1_1read__only__memory.html" target="_top" xlink:title="{harpoon::memory::read\l_only_memory\&lt; linear\l_memory \&gt;\n||+ set()\l+ ~read_only_memory()\l}">
<polygon fill="white" stroke="black" points="728,-127 728,-229 848,-229 848,-127 728,-127"/>
<text text-anchor="start" x="736" y="-216" font-family="Helvetica,sans-Serif" font-size="10.00">harpoon::memory::read</text>
<text text-anchor="start" x="736" y="-203" font-family="Helvetica,sans-Serif" font-size="10.00">_only_memory&lt; linear</text>
<text text-anchor="middle" x="788" y="-190" font-family="Helvetica,sans-Serif" font-size="10.00">_memory &gt;</text>
<polyline fill="none" stroke="black" points="728,-182 848,-182 "/>
<text text-anchor="middle" x="788" y="-169" font-family="Helvetica,sans-Serif" font-size="10.00"> </text>
<polyline fill="none" stroke="black" points="728,-161 848,-161 "/>
<text text-anchor="start" x="736" y="-148" font-family="Helvetica,sans-Serif" font-size="10.00">+ set()</text>
<text text-anchor="start" x="736" y="-135" font-family="Helvetica,sans-Serif" font-size="10.00">+ ~read_only_memory()</text>
</a>
</g>
<!-- Node14&#45;&gt;Node17 -->
<g id="edge32" class="edge"><title>Node14&#45;&gt;Node17</title>
<path fill="none" stroke="midnightblue" d="M691.785,-283.837C696.128,-277.71 700.555,-271.71 705,-266 714.675,-253.571 725.805,-240.871 736.707,-229.127"/>
<polygon fill="none" stroke="midnightblue" points="688.764,-282.051 685.92,-292.257 694.508,-286.052 688.764,-282.051"/>
</g>
<!-- Node16 -->
<g id="node31" class="node"><title>Node16</title>
<a xlink:href="../../df/d20/classharpoon_1_1memory_1_1linear__random__access__memory.html" target="_top" xlink:title="{harpoon::memory::linear\l_random_access_memory\n||+ ~linear_random_access\l_memory()\l}">
<polygon fill="white" stroke="black" points="567.5,-0.5 567.5,-89.5 698.5,-89.5 698.5,-0.5 567.5,-0.5"/>
<text text-anchor="start" x="575.5" y="-76.5" font-family="Helvetica,sans-Serif" font-size="10.00">harpoon::memory::linear</text>
<text text-anchor="middle" x="633" y="-63.5" font-family="Helvetica,sans-Serif" font-size="10.00">_random_access_memory</text>
<polyline fill="none" stroke="black" points="567.5,-55.5 698.5,-55.5 "/>
<text text-anchor="middle" x="633" y="-42.5" font-family="Helvetica,sans-Serif" font-size="10.00"> </text>
<polyline fill="none" stroke="black" points="567.5,-34.5 698.5,-34.5 "/>
<text text-anchor="start" x="575.5" y="-21.5" font-family="Helvetica,sans-Serif" font-size="10.00">+ ~linear_random_access</text>
<text text-anchor="start" x="575.5" y="-8.5" font-family="Helvetica,sans-Serif" font-size="10.00">_memory()</text>
</a>
</g>
<!-- Node15&#45;&gt;Node16 -->
<g id="edge30" class="edge"><title>Node15&#45;&gt;Node16</title>
<path fill="none" stroke="midnightblue" d="M634.177,-123.27C634.009,-112.122 633.835,-100.518 633.673,-89.7656"/>
<polygon fill="none" stroke="midnightblue" points="630.678,-123.397 634.328,-133.343 637.678,-123.291 630.678,-123.397"/>
</g>
<!-- Node18 -->
<g id="node35" class="node"><title>Node18</title>
<a xlink:href="../../de/dd2/classharpoon_1_1memory_1_1linear__read__only__memory.html" target="_top" xlink:title="{harpoon::memory::linear\l_read_only_memory\n||+ ~linear_read_only_memory()\l}">
<polygon fill="white" stroke="black" points="715.5,-7 715.5,-83 864.5,-83 864.5,-7 715.5,-7"/>
<text text-anchor="start" x="723.5" y="-70" font-family="Helvetica,sans-Serif" font-size="10.00">harpoon::memory::linear</text>
<text text-anchor="middle" x="790" y="-57" font-family="Helvetica,sans-Serif" font-size="10.00">_read_only_memory</text>
<polyline fill="none" stroke="black" points="715.5,-49 864.5,-49 "/>
<text text-anchor="middle" x="790" y="-36" font-family="Helvetica,sans-Serif" font-size="10.00"> </text>
<polyline fill="none" stroke="black" points="715.5,-28 864.5,-28 "/>
<text text-anchor="start" x="723.5" y="-15" font-family="Helvetica,sans-Serif" font-size="10.00">+ ~linear_read_only_memory()</text>
</a>
</g>
<!-- Node17&#45;&gt;Node18 -->
<g id="edge34" class="edge"><title>Node17&#45;&gt;Node18</title>
<path fill="none" stroke="midnightblue" d="M788.923,-116.628C789.094,-105.275 789.267,-93.7216 789.424,-83.3018"/>
<polygon fill="none" stroke="midnightblue" points="785.418,-116.908 788.768,-126.959 792.418,-117.013 785.418,-116.908"/>
</g>
</g>
</svg>
