<?xml version="1.0" encoding="UTF-8" standalone="no"?>
<!DOCTYPE svg PUBLIC "-//W3C//DTD SVG 1.1//EN"
 "http://www.w3.org/Graphics/SVG/1.1/DTD/svg11.dtd">
<!-- Generated by graphviz version 2.26.3 (20100126.1600)
 -->
<!-- Title: harpoon::hardware_component Pages: 1 -->
<svg width="862pt" height="1134pt"
 viewBox="0.00 0.00 862.00 1134.00" xmlns="http://www.w3.org/2000/svg" xmlns:xlink="http://www.w3.org/1999/xlink">
<g id="graph1" class="graph" transform="scale(1 1) rotate(0) translate(4 1130)">
<title>harpoon::hardware_component</title>
<polygon fill="white" stroke="white" points="-4,5 -4,-1130 859,-1130 859,5 -4,5"/>
<!-- Node1 -->
<g id="node1" class="node"><title>Node1</title>
<polygon fill="#bfbfbf" stroke="black" points="261,-806.5 261,-999.5 411,-999.5 411,-806.5 261,-806.5"/>
<text text-anchor="middle" x="336" y="-986.5" font-family="Helvetica,sans-Serif" font-size="10.00">harpoon::hardware_component</text>
<polyline fill="none" stroke="black" points="261,-978.5 411,-978.5 "/>
<text text-anchor="middle" x="336" y="-965.5" font-family="Helvetica,sans-Serif" font-size="10.00"> </text>
<polyline fill="none" stroke="black" points="261,-957.5 411,-957.5 "/>
<text text-anchor="start" x="269" y="-944.5" font-family="Helvetica,sans-Serif" font-size="10.00">+ hardware_component()</text>
<text text-anchor="start" x="269" y="-931.5" font-family="Helvetica,sans-Serif" font-size="10.00">+ hardware_component()</text>
<text text-anchor="start" x="269" y="-918.5" font-family="Helvetica,sans-Serif" font-size="10.00">+ operator=()</text>
<text text-anchor="start" x="269" y="-905.5" font-family="Helvetica,sans-Serif" font-size="10.00">+ ~hardware_component()</text>
<text text-anchor="start" x="269" y="-892.5" font-family="Helvetica,sans-Serif" font-size="10.00">+ add_component()</text>
<text text-anchor="start" x="269" y="-879.5" font-family="Helvetica,sans-Serif" font-size="10.00">+ remove_component()</text>
<text text-anchor="start" x="269" y="-866.5" font-family="Helvetica,sans-Serif" font-size="10.00">+ replace_component()</text>
<text text-anchor="start" x="269" y="-853.5" font-family="Helvetica,sans-Serif" font-size="10.00">+ prepare()</text>
<text text-anchor="start" x="269" y="-840.5" font-family="Helvetica,sans-Serif" font-size="10.00">+ cleanup()</text>
<text text-anchor="start" x="269" y="-827.5" font-family="Helvetica,sans-Serif" font-size="10.00">+ boot()</text>
<text text-anchor="start" x="269" y="-814.5" font-family="Helvetica,sans-Serif" font-size="10.00">and 10 more...</text>
</g>
<!-- Node3 -->
<g id="node5" class="node"><title>Node3</title>
<a xlink:href="../../d5/d84/classharpoon_1_1clock_1_1clock.html" target="_top" xlink:title="{harpoon::clock::clock\n||+ clock()\l+ set_generator()\l+ get_tick()\l+ wait_for_tick()\l+ wait_tick()\l+ is_running()\l+ boot()\l+ shutdown()\l+ ~clock()\l}">
<polygon fill="white" stroke="black" points="0,-582.5 0,-749.5 110,-749.5 110,-582.5 0,-582.5"/>
<text text-anchor="middle" x="55" y="-736.5" font-family="Helvetica,sans-Serif" font-size="10.00">harpoon::clock::clock</text>
<polyline fill="none" stroke="black" points="0,-728.5 110,-728.5 "/>
<text text-anchor="middle" x="55" y="-715.5" font-family="Helvetica,sans-Serif" font-size="10.00"> </text>
<polyline fill="none" stroke="black" points="0,-707.5 110,-707.5 "/>
<text text-anchor="start" x="8" y="-694.5" font-family="Helvetica,sans-Serif" font-size="10.00">+ clock()</text>
<text text-anchor="start" x="8" y="-681.5" font-family="Helvetica,sans-Serif" font-size="10.00">+ set_generator()</text>
<text text-anchor="start" x="8" y="-668.5" font-family="Helvetica,sans-Serif" font-size="10.00">+ get_tick()</text>
<text text-anchor="start" x="8" y="-655.5" font-family="Helvetica,sans-Serif" font-size="10.00">+ wait_for_tick()</text>
<text text-anchor="start" x="8" y="-642.5" font-family="Helvetica,sans-Serif" font-size="10.00">+ wait_tick()</text>
<text text-anchor="start" x="8" y="-629.5" font-family="Helvetica,sans-Serif" font-size="10.00">+ is_running()</text>
<text text-anchor="start" x="8" y="-616.5" font-family="Helvetica,sans-Serif" font-size="10.00">+ boot()</text>
<text text-anchor="start" x="8" y="-603.5" font-family="Helvetica,sans-Serif" font-size="10.00">+ shutdown()</text>
<text text-anchor="start" x="8" y="-590.5" font-family="Helvetica,sans-Serif" font-size="10.00">+ ~clock()</text>
</a>
</g>
<!-- Node1&#45;&gt;Node3 -->
<g id="edge4" class="edge"><title>Node1&#45;&gt;Node3</title>
<path fill="none" stroke="midnightblue" d="M251.801,-863.434C208.672,-840.355 157.32,-808.251 119,-770 112.773,-763.784 106.883,-756.851 101.385,-749.596"/>
<polygon fill="none" stroke="midnightblue" points="250.395,-866.649 260.872,-868.22 253.662,-860.458 250.395,-866.649"/>
</g>
<!-- Node4 -->
<g id="node7" class="node"><title>Node4</title>
<a xlink:href="../../dd/d91/classharpoon_1_1computer__system.html" target="_top" xlink:title="{harpoon::computer_system\n||+ ~computer_system()\l+ set_main_execution_unit()\l+ get_main_execution_unit()\l+ set_main_memory()\l+ get_main_memory()\l+ run()\l}">
<polygon fill="white" stroke="black" points="128,-602 128,-730 268,-730 268,-602 128,-602"/>
<text text-anchor="middle" x="198" y="-717" font-family="Helvetica,sans-Serif" font-size="10.00">harpoon::computer_system</text>
<polyline fill="none" stroke="black" points="128,-709 268,-709 "/>
<text text-anchor="middle" x="198" y="-696" font-family="Helvetica,sans-Serif" font-size="10.00"> </text>
<polyline fill="none" stroke="black" points="128,-688 268,-688 "/>
<text text-anchor="start" x="136" y="-675" font-family="Helvetica,sans-Serif" font-size="10.00">+ ~computer_system()</text>
<text text-anchor="start" x="136" y="-662" font-family="Helvetica,sans-Serif" font-size="10.00">+ set_main_execution_unit()</text>
<text text-anchor="start" x="136" y="-649" font-family="Helvetica,sans-Serif" font-size="10.00">+ get_main_execution_unit()</text>
<text text-anchor="start" x="136" y="-636" font-family="Helvetica,sans-Serif" font-size="10.00">+ set_main_memory()</text>
<text text-anchor="start" x="136" y="-623" font-family="Helvetica,sans-Serif" font-size="10.00">+ get_main_memory()</text>
<text text-anchor="start" x="136" y="-610" font-family="Helvetica,sans-Serif" font-size="10.00">+ run()</text>
</a>
</g>
<!-- Node1&#45;&gt;Node4 -->
<g id="edge6" class="edge"><title>Node1&#45;&gt;Node4</title>
<path fill="none" stroke="midnightblue" d="M274.578,-797.515C261.23,-774.591 247.499,-751.009 235.416,-730.258"/>
<polygon fill="none" stroke="midnightblue" points="271.615,-799.381 279.671,-806.261 277.664,-795.858 271.615,-799.381"/>
</g>
<!-- Node5 -->
<g id="node9" class="node"><title>Node5</title>
<a xlink:href="../../d6/d5c/classharpoon_1_1execution_1_1execution__unit.html" target="_top" xlink:title="{harpoon::execution\l::execution_unit\n||+ set_clock()\l+ get_clock()\l+ ~execution_unit()\l}">
<polygon fill="white" stroke="black" points="285.5,-615 285.5,-717 386.5,-717 386.5,-615 285.5,-615"/>
<text text-anchor="start" x="293.5" y="-704" font-family="Helvetica,sans-Serif" font-size="10.00">harpoon::execution</text>
<text text-anchor="middle" x="336" y="-691" font-family="Helvetica,sans-Serif" font-size="10.00">::execution_unit</text>
<polyline fill="none" stroke="black" points="285.5,-683 386.5,-683 "/>
<text text-anchor="middle" x="336" y="-670" font-family="Helvetica,sans-Serif" font-size="10.00"> </text>
<polyline fill="none" stroke="black" points="285.5,-662 386.5,-662 "/>
<text text-anchor="start" x="293.5" y="-649" font-family="Helvetica,sans-Serif" font-size="10.00">+ set_clock()</text>
<text text-anchor="start" x="293.5" y="-636" font-family="Helvetica,sans-Serif" font-size="10.00">+ get_clock()</text>
<text text-anchor="start" x="293.5" y="-623" font-family="Helvetica,sans-Serif" font-size="10.00">+ ~execution_unit()</text>
</a>
</g>
<!-- Node1&#45;&gt;Node5 -->
<g id="edge8" class="edge"><title>Node1&#45;&gt;Node5</title>
<path fill="none" stroke="midnightblue" d="M336,-796.163C336,-768.619 336,-740.226 336,-717.015"/>
<polygon fill="none" stroke="midnightblue" points="332.5,-796.261 336,-806.261 339.5,-796.261 332.5,-796.261"/>
</g>
<!-- Node7 -->
<g id="node13" class="node"><title>Node7</title>
<a xlink:href="../../d9/d00/classharpoon_1_1execution_1_1processing__unit.html" target="_top" xlink:title="{harpoon::execution\l::processing_unit\n||+ prepare()\l+ boot()\l+ shutdown()\l+ run()\l+ wait_for_cycle()\l+ wait_for_next_cycle()\l+ begin_execution()\l+ fetch_decode()\l+ execute()\l+ is_running()\land 9 more...\l}">
<polygon fill="white" stroke="black" points="403.5,-563 403.5,-769 522.5,-769 522.5,-563 403.5,-563"/>
<text text-anchor="start" x="411.5" y="-756" font-family="Helvetica,sans-Serif" font-size="10.00">harpoon::execution</text>
<text text-anchor="middle" x="463" y="-743" font-family="Helvetica,sans-Serif" font-size="10.00">::processing_unit</text>
<polyline fill="none" stroke="black" points="403.5,-735 522.5,-735 "/>
<text text-anchor="middle" x="463" y="-722" font-family="Helvetica,sans-Serif" font-size="10.00"> </text>
<polyline fill="none" stroke="black" points="403.5,-714 522.5,-714 "/>
<text text-anchor="start" x="411.5" y="-701" font-family="Helvetica,sans-Serif" font-size="10.00">+ prepare()</text>
<text text-anchor="start" x="411.5" y="-688" font-family="Helvetica,sans-Serif" font-size="10.00">+ boot()</text>
<text text-anchor="start" x="411.5" y="-675" font-family="Helvetica,sans-Serif" font-size="10.00">+ shutdown()</text>
<text text-anchor="start" x="411.5" y="-662" font-family="Helvetica,sans-Serif" font-size="10.00">+ run()</text>
<text text-anchor="start" x="411.5" y="-649" font-family="Helvetica,sans-Serif" font-size="10.00">+ wait_for_cycle()</text>
<text text-anchor="start" x="411.5" y="-636" font-family="Helvetica,sans-Serif" font-size="10.00">+ wait_for_next_cycle()</text>
<text text-anchor="start" x="411.5" y="-623" font-family="Helvetica,sans-Serif" font-size="10.00">+ begin_execution()</text>
<text text-anchor="start" x="411.5" y="-610" font-family="Helvetica,sans-Serif" font-size="10.00">+ fetch_decode()</text>
<text text-anchor="start" x="411.5" y="-597" font-family="Helvetica,sans-Serif" font-size="10.00">+ execute()</text>
<text text-anchor="start" x="411.5" y="-584" font-family="Helvetica,sans-Serif" font-size="10.00">+ is_running()</text>
<text text-anchor="start" x="411.5" y="-571" font-family="Helvetica,sans-Serif" font-size="10.00">and 9 more...</text>
</a>
</g>
<!-- Node1&#45;&gt;Node7 -->
<g id="edge12" class="edge"><title>Node1&#45;&gt;Node7</title>
<path fill="none" stroke="midnightblue" d="M392.599,-797.379C397.586,-788.072 402.631,-778.657 407.608,-769.369"/>
<polygon fill="none" stroke="midnightblue" points="389.477,-795.794 387.839,-806.261 395.647,-799.1 389.477,-795.794"/>
</g>
<!-- Node8 -->
<g id="node15" class="node"><title>Node8</title>
<a xlink:href="../../db/d2f/classharpoon_1_1memory_1_1memory.html" target="_top" xlink:title="{harpoon::memory::memory\n||+ memory()\l+ get_address_range()\l+ get_address_range()\l+ set_address_range()\l+ has_address()\l+ get_offset()\l+ get()\l+ set()\l+ get()\l+ set()\land 7 more...\l}">
<polygon fill="white" stroke="black" points="549,-569.5 549,-762.5 683,-762.5 683,-569.5 549,-569.5"/>
<text text-anchor="middle" x="616" y="-749.5" font-family="Helvetica,sans-Serif" font-size="10.00">harpoon::memory::memory</text>
<polyline fill="none" stroke="black" points="549,-741.5 683,-741.5 "/>
<text text-anchor="middle" x="616" y="-728.5" font-family="Helvetica,sans-Serif" font-size="10.00"> </text>
<polyline fill="none" stroke="black" points="549,-720.5 683,-720.5 "/>
<text text-anchor="start" x="557" y="-707.5" font-family="Helvetica,sans-Serif" font-size="10.00">+ memory()</text>
<text text-anchor="start" x="557" y="-694.5" font-family="Helvetica,sans-Serif" font-size="10.00">+ get_address_range()</text>
<text text-anchor="start" x="557" y="-681.5" font-family="Helvetica,sans-Serif" font-size="10.00">+ get_address_range()</text>
<text text-anchor="start" x="557" y="-668.5" font-family="Helvetica,sans-Serif" font-size="10.00">+ set_address_range()</text>
<text text-anchor="start" x="557" y="-655.5" font-family="Helvetica,sans-Serif" font-size="10.00">+ has_address()</text>
<text text-anchor="start" x="557" y="-642.5" font-family="Helvetica,sans-Serif" font-size="10.00">+ get_offset()</text>
<text text-anchor="start" x="557" y="-629.5" font-family="Helvetica,sans-Serif" font-size="10.00">+ get()</text>
<text text-anchor="start" x="557" y="-616.5" font-family="Helvetica,sans-Serif" font-size="10.00">+ set()</text>
<text text-anchor="start" x="557" y="-603.5" font-family="Helvetica,sans-Serif" font-size="10.00">+ get()</text>
<text text-anchor="start" x="557" y="-590.5" font-family="Helvetica,sans-Serif" font-size="10.00">+ set()</text>
<text text-anchor="start" x="557" y="-577.5" font-family="Helvetica,sans-Serif" font-size="10.00">and 7 more...</text>
</a>
</g>
<!-- Node1&#45;&gt;Node8 -->
<g id="edge14" class="edge"><title>Node1&#45;&gt;Node8</title>
<path fill="none" stroke="midnightblue" d="M419.557,-853.551C455.604,-830.362 497.166,-801.023 531,-770 537.016,-764.484 542.975,-758.533 548.782,-752.368"/>
<polygon fill="none" stroke="midnightblue" points="417.55,-850.68 411,-859.007 421.314,-856.582 417.55,-850.68"/>
</g>
<!-- Node2 -->
<g id="node2" class="node"><title>Node2</title>
<polygon fill="white" stroke="#bfbfbf" points="280.5,-1036.5 280.5,-1125.5 391.5,-1125.5 391.5,-1036.5 280.5,-1036.5"/>
<text text-anchor="start" x="288.5" y="-1112.5" font-family="Helvetica,sans-Serif" font-size="10.00">std::enable_shared</text>
<text text-anchor="start" x="288.5" y="-1099.5" font-family="Helvetica,sans-Serif" font-size="10.00">_from_this&lt; hardware</text>
<text text-anchor="middle" x="336" y="-1086.5" font-family="Helvetica,sans-Serif" font-size="10.00">_component &gt;</text>
<polyline fill="none" stroke="#bfbfbf" points="280.5,-1078.5 391.5,-1078.5 "/>
<text text-anchor="middle" x="336" y="-1065.5" font-family="Helvetica,sans-Serif" font-size="10.00"> </text>
<polyline fill="none" stroke="#bfbfbf" points="280.5,-1057.5 391.5,-1057.5 "/>
<text text-anchor="middle" x="336" y="-1044.5" font-family="Helvetica,sans-Serif" font-size="10.00"> </text>
</g>
<!-- Node2&#45;&gt;Node1 -->
<g id="edge2" class="edge"><title>Node2&#45;&gt;Node1</title>
<path fill="none" stroke="midnightblue" d="M336,-1026.06C336,-1017.63 336,-1008.71 336,-999.692"/>
<polygon fill="none" stroke="midnightblue" points="332.5,-1026.08 336,-1036.08 339.5,-1026.08 332.5,-1026.08"/>
</g>
<!-- Node6 -->
<g id="node11" class="node"><title>Node6</title>
<a xlink:href="../../d7/dcf/classharpoon_1_1execution_1_1up__execution__unit.html" target="_top" xlink:title="{harpoon::execution\l::up_execution_unit\n||+ ~up_execution_unit()\l+ set_processing_unit()\l+ get_processing_unit()\l}">
<polygon fill="white" stroke="black" points="269.5,-345 269.5,-447 388.5,-447 388.5,-345 269.5,-345"/>
<text text-anchor="start" x="277.5" y="-434" font-family="Helvetica,sans-Serif" font-size="10.00">harpoon::execution</text>
<text text-anchor="middle" x="329" y="-421" font-family="Helvetica,sans-Serif" font-size="10.00">::up_execution_unit</text>
<polyline fill="none" stroke="black" points="269.5,-413 388.5,-413 "/>
<text text-anchor="middle" x="329" y="-400" font-family="Helvetica,sans-Serif" font-size="10.00"> </text>
<polyline fill="none" stroke="black" points="269.5,-392 388.5,-392 "/>
<text text-anchor="start" x="277.5" y="-379" font-family="Helvetica,sans-Serif" font-size="10.00">+ ~up_execution_unit()</text>
<text text-anchor="start" x="277.5" y="-366" font-family="Helvetica,sans-Serif" font-size="10.00">+ set_processing_unit()</text>
<text text-anchor="start" x="277.5" y="-353" font-family="Helvetica,sans-Serif" font-size="10.00">+ get_processing_unit()</text>
</a>
</g>
<!-- Node5&#45;&gt;Node6 -->
<g id="edge10" class="edge"><title>Node5&#45;&gt;Node6</title>
<path fill="none" stroke="midnightblue" d="M334.412,-604.739C333.18,-557.233 331.493,-492.151 330.331,-447.352"/>
<polygon fill="none" stroke="midnightblue" points="330.917,-604.992 334.675,-614.898 337.915,-604.81 330.917,-604.992"/>
</g>
<!-- Node9 -->
<g id="node17" class="node"><title>Node9</title>
<a xlink:href="../../da/d84/classharpoon_1_1memory_1_1chunked__memory.html" target="_top" xlink:title="{harpoon::memory::chunked\l_memory\n||+ chunked_memory()\l+ chunked_memory()\l+ operator=()\l+ prepare()\l+ cleanup()\l+ get()\l+ set()\l+ serialize()\l+ deserialize()\l+ ~chunked_memory()\l# get_chunk_index()\l# get_chunk_offset()\l# get_chunk()\l# get_chunk()\l# allocate_chunk()\l}">
<polygon fill="white" stroke="black" points="405.5,-267 405.5,-525 540.5,-525 540.5,-267 405.5,-267"/>
<text text-anchor="start" x="413.5" y="-512" font-family="Helvetica,sans-Serif" font-size="10.00">harpoon::memory::chunked</text>
<text text-anchor="middle" x="473" y="-499" font-family="Helvetica,sans-Serif" font-size="10.00">_memory</text>
<polyline fill="none" stroke="black" points="405.5,-491 540.5,-491 "/>
<text text-anchor="middle" x="473" y="-478" font-family="Helvetica,sans-Serif" font-size="10.00"> </text>
<polyline fill="none" stroke="black" points="405.5,-470 540.5,-470 "/>
<text text-anchor="start" x="413.5" y="-457" font-family="Helvetica,sans-Serif" font-size="10.00">+ chunked_memory()</text>
<text text-anchor="start" x="413.5" y="-444" font-family="Helvetica,sans-Serif" font-size="10.00">+ chunked_memory()</text>
<text text-anchor="start" x="413.5" y="-431" font-family="Helvetica,sans-Serif" font-size="10.00">+ operator=()</text>
<text text-anchor="start" x="413.5" y="-418" font-family="Helvetica,sans-Serif" font-size="10.00">+ prepare()</text>
<text text-anchor="start" x="413.5" y="-405" font-family="Helvetica,sans-Serif" font-size="10.00">+ cleanup()</text>
<text text-anchor="start" x="413.5" y="-392" font-family="Helvetica,sans-Serif" font-size="10.00">+ get()</text>
<text text-anchor="start" x="413.5" y="-379" font-family="Helvetica,sans-Serif" font-size="10.00">+ set()</text>
<text text-anchor="start" x="413.5" y="-366" font-family="Helvetica,sans-Serif" font-size="10.00">+ serialize()</text>
<text text-anchor="start" x="413.5" y="-353" font-family="Helvetica,sans-Serif" font-size="10.00">+ deserialize()</text>
<text text-anchor="start" x="413.5" y="-340" font-family="Helvetica,sans-Serif" font-size="10.00">+ ~chunked_memory()</text>
<text text-anchor="start" x="413.5" y="-327" font-family="Helvetica,sans-Serif" font-size="10.00"># get_chunk_index()</text>
<text text-anchor="start" x="413.5" y="-314" font-family="Helvetica,sans-Serif" font-size="10.00"># get_chunk_offset()</text>
<text text-anchor="start" x="413.5" y="-301" font-family="Helvetica,sans-Serif" font-size="10.00"># get_chunk()</text>
<text text-anchor="start" x="413.5" y="-288" font-family="Helvetica,sans-Serif" font-size="10.00"># get_chunk()</text>
<text text-anchor="start" x="413.5" y="-275" font-family="Helvetica,sans-Serif" font-size="10.00"># allocate_chunk()</text>
</a>
</g>
<!-- Node8&#45;&gt;Node9 -->
<g id="edge16" class="edge"><title>Node8&#45;&gt;Node9</title>
<path fill="none" stroke="midnightblue" d="M559.951,-560.174C553.591,-548.166 547.06,-535.834 540.573,-523.584"/>
<polygon fill="none" stroke="midnightblue" points="557.004,-562.087 564.778,-569.286 563.19,-558.811 557.004,-562.087"/>
</g>
<!-- Node14 -->
<g id="node27" class="node"><title>Node14</title>
<a xlink:href="../../da/df3/classharpoon_1_1memory_1_1linear__memory.html" target="_top" xlink:title="{harpoon::memory::linear\l_memory\n||+ linear_memory()\l+ linear_memory()\l+ operator=()\l+ prepare()\l+ cleanup()\l+ get()\l+ set()\l+ serialize()\l+ deserialize()\l+ ~linear_memory()\l}">
<polygon fill="white" stroke="black" points="562,-299.5 562,-492.5 684,-492.5 684,-299.5 562,-299.5"/>
<text text-anchor="start" x="570" y="-479.5" font-family="Helvetica,sans-Serif" font-size="10.00">harpoon::memory::linear</text>
<text text-anchor="middle" x="623" y="-466.5" font-family="Helvetica,sans-Serif" font-size="10.00">_memory</text>
<polyline fill="none" stroke="black" points="562,-458.5 684,-458.5 "/>
<text text-anchor="middle" x="623" y="-445.5" font-family="Helvetica,sans-Serif" font-size="10.00"> </text>
<polyline fill="none" stroke="black" points="562,-437.5 684,-437.5 "/>
<text text-anchor="start" x="570" y="-424.5" font-family="Helvetica,sans-Serif" font-size="10.00">+ linear_memory()</text>
<text text-anchor="start" x="570" y="-411.5" font-family="Helvetica,sans-Serif" font-size="10.00">+ linear_memory()</text>
<text text-anchor="start" x="570" y="-398.5" font-family="Helvetica,sans-Serif" font-size="10.00">+ operator=()</text>
<text text-anchor="start" x="570" y="-385.5" font-family="Helvetica,sans-Serif" font-size="10.00">+ prepare()</text>
<text text-anchor="start" x="570" y="-372.5" font-family="Helvetica,sans-Serif" font-size="10.00">+ cleanup()</text>
<text text-anchor="start" x="570" y="-359.5" font-family="Helvetica,sans-Serif" font-size="10.00">+ get()</text>
<text text-anchor="start" x="570" y="-346.5" font-family="Helvetica,sans-Serif" font-size="10.00">+ set()</text>
<text text-anchor="start" x="570" y="-333.5" font-family="Helvetica,sans-Serif" font-size="10.00">+ serialize()</text>
<text text-anchor="start" x="570" y="-320.5" font-family="Helvetica,sans-Serif" font-size="10.00">+ deserialize()</text>
<text text-anchor="start" x="570" y="-307.5" font-family="Helvetica,sans-Serif" font-size="10.00">+ ~linear_memory()</text>
</a>
</g>
<!-- Node8&#45;&gt;Node14 -->
<g id="edge26" class="edge"><title>Node8&#45;&gt;Node14</title>
<path fill="none" stroke="midnightblue" d="M618.774,-559.012C619.339,-537.206 619.931,-514.379 620.487,-492.946"/>
<polygon fill="none" stroke="midnightblue" points="615.268,-559.199 618.507,-569.286 622.265,-559.381 615.268,-559.199"/>
</g>
<!-- Node19 -->
<g id="node37" class="node"><title>Node19</title>
<a xlink:href="../../d8/d1f/classharpoon_1_1memory_1_1main__memory.html" target="_top" xlink:title="{harpoon::memory::main\l_memory\n||+ main_memory()\l+ main_memory()\l+ operator=()\l+ add_memory()\l+ get()\l+ set()\l+ ~main_memory()\l}">
<polygon fill="white" stroke="black" points="701.5,-319 701.5,-473 820.5,-473 820.5,-319 701.5,-319"/>
<text text-anchor="start" x="709.5" y="-460" font-family="Helvetica,sans-Serif" font-size="10.00">harpoon::memory::main</text>
<text text-anchor="middle" x="761" y="-447" font-family="Helvetica,sans-Serif" font-size="10.00">_memory</text>
<polyline fill="none" stroke="black" points="701.5,-439 820.5,-439 "/>
<text text-anchor="middle" x="761" y="-426" font-family="Helvetica,sans-Serif" font-size="10.00"> </text>
<polyline fill="none" stroke="black" points="701.5,-418 820.5,-418 "/>
<text text-anchor="start" x="709.5" y="-405" font-family="Helvetica,sans-Serif" font-size="10.00">+ main_memory()</text>
<text text-anchor="start" x="709.5" y="-392" font-family="Helvetica,sans-Serif" font-size="10.00">+ main_memory()</text>
<text text-anchor="start" x="709.5" y="-379" font-family="Helvetica,sans-Serif" font-size="10.00">+ operator=()</text>
<text text-anchor="start" x="709.5" y="-366" font-family="Helvetica,sans-Serif" font-size="10.00">+ add_memory()</text>
<text text-anchor="start" x="709.5" y="-353" font-family="Helvetica,sans-Serif" font-size="10.00">+ get()</text>
<text text-anchor="start" x="709.5" y="-340" font-family="Helvetica,sans-Serif" font-size="10.00">+ set()</text>
<text text-anchor="start" x="709.5" y="-327" font-family="Helvetica,sans-Serif" font-size="10.00">+ ~main_memory()</text>
</a>
</g>
<!-- Node8&#45;&gt;Node19 -->
<g id="edge36" class="edge"><title>Node8&#45;&gt;Node19</title>
<path fill="none" stroke="midnightblue" d="M674.332,-560.499C680.667,-548.876 686.991,-537.2 693,-526 702.151,-508.942 711.862,-490.555 720.993,-473.131"/>
<polygon fill="none" stroke="midnightblue" points="671.21,-558.913 669.491,-569.367 677.355,-562.267 671.21,-558.913"/>
</g>
<!-- Node10 -->
<g id="node19" class="node"><title>Node10</title>
<a xlink:href="../../dc/d01/classharpoon_1_1memory_1_1random__access__memory.html" target="_top" xlink:title="{harpoon::memory::random\l_access_memory\&lt; chunked\l_memory \&gt;\n||+ ~random_access_memory()\l}">
<polygon fill="white" stroke="black" points="242.5,-133.5 242.5,-222.5 389.5,-222.5 389.5,-133.5 242.5,-133.5"/>
<text text-anchor="start" x="250.5" y="-209.5" font-family="Helvetica,sans-Serif" font-size="10.00">harpoon::memory::random</text>
<text text-anchor="start" x="250.5" y="-196.5" font-family="Helvetica,sans-Serif" font-size="10.00">_access_memory&lt; chunked</text>
<text text-anchor="middle" x="316" y="-183.5" font-family="Helvetica,sans-Serif" font-size="10.00">_memory &gt;</text>
<polyline fill="none" stroke="black" points="242.5,-175.5 389.5,-175.5 "/>
<text text-anchor="middle" x="316" y="-162.5" font-family="Helvetica,sans-Serif" font-size="10.00"> </text>
<polyline fill="none" stroke="black" points="242.5,-154.5 389.5,-154.5 "/>
<text text-anchor="start" x="250.5" y="-141.5" font-family="Helvetica,sans-Serif" font-size="10.00">+ ~random_access_memory()</text>
</a>
</g>
<!-- Node9&#45;&gt;Node10 -->
<g id="edge18" class="edge"><title>Node9&#45;&gt;Node10</title>
<path fill="none" stroke="midnightblue" d="M399.356,-269.218C398.572,-268.137 397.787,-267.064 397,-266 386.015,-251.139 372.878,-235.974 360.413,-222.514"/>
<polygon fill="none" stroke="midnightblue" points="396.691,-271.512 405.327,-277.65 402.404,-267.467 396.691,-271.512"/>
</g>
<!-- Node12 -->
<g id="node23" class="node"><title>Node12</title>
<a xlink:href="../../db/dd3/classharpoon_1_1memory_1_1read__only__memory.html" target="_top" xlink:title="{harpoon::memory::read\l_only_memory\&lt; chunked\l_memory \&gt;\n||+ set()\l+ ~read_only_memory()\l}">
<polygon fill="white" stroke="black" points="408,-127 408,-229 534,-229 534,-127 408,-127"/>
<text text-anchor="start" x="416" y="-216" font-family="Helvetica,sans-Serif" font-size="10.00">harpoon::memory::read</text>
<text text-anchor="start" x="416" y="-203" font-family="Helvetica,sans-Serif" font-size="10.00">_only_memory&lt; chunked</text>
<text text-anchor="middle" x="471" y="-190" font-family="Helvetica,sans-Serif" font-size="10.00">_memory &gt;</text>
<polyline fill="none" stroke="black" points="408,-182 534,-182 "/>
<text text-anchor="middle" x="471" y="-169" font-family="Helvetica,sans-Serif" font-size="10.00"> </text>
<polyline fill="none" stroke="black" points="408,-161 534,-161 "/>
<text text-anchor="start" x="416" y="-148" font-family="Helvetica,sans-Serif" font-size="10.00">+ set()</text>
<text text-anchor="start" x="416" y="-135" font-family="Helvetica,sans-Serif" font-size="10.00">+ ~read_only_memory()</text>
</a>
</g>
<!-- Node9&#45;&gt;Node12 -->
<g id="edge22" class="edge"><title>Node9&#45;&gt;Node12</title>
<path fill="none" stroke="midnightblue" d="M471.723,-256.84C471.635,-247.211 471.55,-237.922 471.471,-229.309"/>
<polygon fill="none" stroke="midnightblue" points="468.225,-257.016 471.816,-266.983 475.224,-256.952 468.225,-257.016"/>
</g>
<!-- Node11 -->
<g id="node21" class="node"><title>Node11</title>
<a xlink:href="../../de/d86/classharpoon_1_1memory_1_1chunked__random__access__memory.html" target="_top" xlink:title="{harpoon::memory::chunked\l_random_access_memory\n||+ ~chunked_random_access\l_memory()\l}">
<polygon fill="white" stroke="black" points="244.5,-0.5 244.5,-89.5 387.5,-89.5 387.5,-0.5 244.5,-0.5"/>
<text text-anchor="start" x="252.5" y="-76.5" font-family="Helvetica,sans-Serif" font-size="10.00">harpoon::memory::chunked</text>
<text text-anchor="middle" x="316" y="-63.5" font-family="Helvetica,sans-Serif" font-size="10.00">_random_access_memory</text>
<polyline fill="none" stroke="black" points="244.5,-55.5 387.5,-55.5 "/>
<text text-anchor="middle" x="316" y="-42.5" font-family="Helvetica,sans-Serif" font-size="10.00"> </text>
<polyline fill="none" stroke="black" points="244.5,-34.5 387.5,-34.5 "/>
<text text-anchor="start" x="252.5" y="-21.5" font-family="Helvetica,sans-Serif" font-size="10.00">+ ~chunked_random_access</text>
<text text-anchor="start" x="252.5" y="-8.5" font-family="Helvetica,sans-Serif" font-size="10.00">_memory()</text>
</a>
</g>
<!-- Node10&#45;&gt;Node11 -->
<g id="edge20" class="edge"><title>Node10&#45;&gt;Node11</title>
<path fill="none" stroke="midnightblue" d="M316,-123.27C316,-112.122 316,-100.518 316,-89.7656"/>
<polygon fill="none" stroke="midnightblue" points="312.5,-123.343 316,-133.343 319.5,-123.343 312.5,-123.343"/>
</g>
<!-- Node13 -->
<g id="node25" class="node"><title>Node13</title>
<a xlink:href="../../d5/d6c/classharpoon_1_1memory_1_1chunked__read__only__memory.html" target="_top" xlink:title="{harpoon::memory::chunked\l_read_only_memory\n||+ ~chunked_read_only\l_memory()\l}">
<polygon fill="white" stroke="black" points="404.5,-0.5 404.5,-89.5 539.5,-89.5 539.5,-0.5 404.5,-0.5"/>
<text text-anchor="start" x="412.5" y="-76.5" font-family="Helvetica,sans-Serif" font-size="10.00">harpoon::memory::chunked</text>
<text text-anchor="middle" x="472" y="-63.5" font-family="Helvetica,sans-Serif" font-size="10.00">_read_only_memory</text>
<polyline fill="none" stroke="black" points="404.5,-55.5 539.5,-55.5 "/>
<text text-anchor="middle" x="472" y="-42.5" font-family="Helvetica,sans-Serif" font-size="10.00"> </text>
<polyline fill="none" stroke="black" points="404.5,-34.5 539.5,-34.5 "/>
<text text-anchor="start" x="412.5" y="-21.5" font-family="Helvetica,sans-Serif" font-size="10.00">+ ~chunked_read_only</text>
<text text-anchor="start" x="412.5" y="-8.5" font-family="Helvetica,sans-Serif" font-size="10.00">_memory()</text>
</a>
</g>
<!-- Node12&#45;&gt;Node13 -->
<g id="edge24" class="edge"><title>Node12&#45;&gt;Node13</title>
<path fill="none" stroke="midnightblue" d="M471.461,-116.733C471.529,-107.593 471.599,-98.3199 471.665,-89.6108"/>
<polygon fill="none" stroke="midnightblue" points="467.959,-116.933 471.384,-126.959 474.959,-116.986 467.959,-116.933"/>
</g>
<!-- Node15 -->
<g id="node29" class="node"><title>Node15</title>
<a xlink:href="../../dc/d01/classharpoon_1_1memory_1_1random__access__memory.html" target="_top" xlink:title="{harpoon::memory::random\l_access_memory\&lt; linear\l_memory \&gt;\n||+ ~random_access_memory()\l}">
<polygon fill="white" stroke="black" points="551.5,-133.5 551.5,-222.5 698.5,-222.5 698.5,-133.5 551.5,-133.5"/>
<text text-anchor="start" x="559.5" y="-209.5" font-family="Helvetica,sans-Serif" font-size="10.00">harpoon::memory::random</text>
<text text-anchor="start" x="559.5" y="-196.5" font-family="Helvetica,sans-Serif" font-size="10.00">_access_memory&lt; linear</text>
<text text-anchor="middle" x="625" y="-183.5" font-family="Helvetica,sans-Serif" font-size="10.00">_memory &gt;</text>
<polyline fill="none" stroke="black" points="551.5,-175.5 698.5,-175.5 "/>
<text text-anchor="middle" x="625" y="-162.5" font-family="Helvetica,sans-Serif" font-size="10.00"> </text>
<polyline fill="none" stroke="black" points="551.5,-154.5 698.5,-154.5 "/>
<text text-anchor="start" x="559.5" y="-141.5" font-family="Helvetica,sans-Serif" font-size="10.00">+ ~random_access_memory()</text>
</a>
</g>
<!-- Node14&#45;&gt;Node15 -->
<g id="edge28" class="edge"><title>Node14&#45;&gt;Node15</title>
<path fill="none" stroke="midnightblue" d="M623.978,-289.359C624.194,-265.809 624.412,-242.112 624.59,-222.668"/>
<polygon fill="none" stroke="midnightblue" points="620.478,-289.398 623.886,-299.43 627.478,-289.463 620.478,-289.398"/>
</g>
<!-- Node17 -->
<g id="node33" class="node"><title>Node17</title>
<a xlink:href="../../db/dd3/classharpoon_1_1memory_1_1read__only__memory.html" target="_top" xlink:title="{harpoon::memory::read\l_only_memory\&lt; linear\l_memory \&gt;\n||+ set()\l+ ~read_only_memory()\l}">
<polygon fill="white" stroke="black" points="718,-127 718,-229 838,-229 838,-127 718,-127"/>
<text text-anchor="start" x="726" y="-216" font-family="Helvetica,sans-Serif" font-size="10.00">harpoon::memory::read</text>
<text text-anchor="start" x="726" y="-203" font-family="Helvetica,sans-Serif" font-size="10.00">_only_memory&lt; linear</text>
<text text-anchor="middle" x="778" y="-190" font-family="Helvetica,sans-Serif" font-size="10.00">_memory &gt;</text>
<polyline fill="none" stroke="black" points="718,-182 838,-182 "/>
<text text-anchor="middle" x="778" y="-169" font-family="Helvetica,sans-Serif" font-size="10.00"> </text>
<polyline fill="none" stroke="black" points="718,-161 838,-161 "/>
<text text-anchor="start" x="726" y="-148" font-family="Helvetica,sans-Serif" font-size="10.00">+ set()</text>
<text text-anchor="start" x="726" y="-135" font-family="Helvetica,sans-Serif" font-size="10.00">+ ~read_only_memory()</text>
</a>
</g>
<!-- Node14&#45;&gt;Node17 -->
<g id="edge32" class="edge"><title>Node14&#45;&gt;Node17</title>
<path fill="none" stroke="midnightblue" d="M676.382,-290.768C681.707,-282.204 687.272,-273.839 693,-266 702.148,-253.48 712.99,-240.945 723.817,-229.421"/>
<polygon fill="none" stroke="midnightblue" points="673.347,-289.024 671.14,-299.386 679.327,-292.662 673.347,-289.024"/>
</g>
<!-- Node16 -->
<g id="node31" class="node"><title>Node16</title>
<a xlink:href="../../df/d20/classharpoon_1_1memory_1_1linear__random__access__memory.html" target="_top" xlink:title="{harpoon::memory::linear\l_random_access_memory\n||+ ~linear_random_access\l_memory()\l}">
<polygon fill="white" stroke="black" points="557.5,-0.5 557.5,-89.5 688.5,-89.5 688.5,-0.5 557.5,-0.5"/>
<text text-anchor="start" x="565.5" y="-76.5" font-family="Helvetica,sans-Serif" font-size="10.00">harpoon::memory::linear</text>
<text text-anchor="middle" x="623" y="-63.5" font-family="Helvetica,sans-Serif" font-size="10.00">_random_access_memory</text>
<polyline fill="none" stroke="black" points="557.5,-55.5 688.5,-55.5 "/>
<text text-anchor="middle" x="623" y="-42.5" font-family="Helvetica,sans-Serif" font-size="10.00"> </text>
<polyline fill="none" stroke="black" points="557.5,-34.5 688.5,-34.5 "/>
<text text-anchor="start" x="565.5" y="-21.5" font-family="Helvetica,sans-Serif" font-size="10.00">+ ~linear_random_access</text>
<text text-anchor="start" x="565.5" y="-8.5" font-family="Helvetica,sans-Serif" font-size="10.00">_memory()</text>
</a>
</g>
<!-- Node15&#45;&gt;Node16 -->
<g id="edge30" class="edge"><title>Node15&#45;&gt;Node16</title>
<path fill="none" stroke="midnightblue" d="M624.177,-123.27C624.009,-112.122 623.835,-100.518 623.673,-89.7656"/>
<polygon fill="none" stroke="midnightblue" points="620.678,-123.397 624.328,-133.343 627.678,-123.291 620.678,-123.397"/>
</g>
<!-- Node18 -->
<g id="node35" class="node"><title>Node18</title>
<a xlink:href="../../de/dd2/classharpoon_1_1memory_1_1linear__read__only__memory.html" target="_top" xlink:title="{harpoon::memory::linear\l_read_only_memory\n||+ ~linear_read_only_memory()\l}">
<polygon fill="white" stroke="black" points="705.5,-7 705.5,-83 854.5,-83 854.5,-7 705.5,-7"/>
<text text-anchor="start" x="713.5" y="-70" font-family="Helvetica,sans-Serif" font-size="10.00">harpoon::memory::linear</text>
<text text-anchor="middle" x="780" y="-57" font-family="Helvetica,sans-Serif" font-size="10.00">_read_only_memory</text>
<polyline fill="none" stroke="black" points="705.5,-49 854.5,-49 "/>
<text text-anchor="middle" x="780" y="-36" font-family="Helvetica,sans-Serif" font-size="10.00"> </text>
<polyline fill="none" stroke="black" points="705.5,-28 854.5,-28 "/>
<text text-anchor="start" x="713.5" y="-15" font-family="Helvetica,sans-Serif" font-size="10.00">+ ~linear_read_only_memory()</text>
</a>
</g>
<!-- Node17&#45;&gt;Node18 -->
<g id="edge34" class="edge"><title>Node17&#45;&gt;Node18</title>
<path fill="none" stroke="midnightblue" d="M778.923,-116.628C779.094,-105.275 779.267,-93.7216 779.424,-83.3018"/>
<polygon fill="none" stroke="midnightblue" points="775.418,-116.908 778.768,-126.959 782.418,-117.013 775.418,-116.908"/>
</g>
</g>
</svg>
