<?xml version="1.0" encoding="UTF-8" standalone="no"?>
<!DOCTYPE svg PUBLIC "-//W3C//DTD SVG 1.1//EN"
 "http://www.w3.org/Graphics/SVG/1.1/DTD/svg11.dtd">
<!-- Generated by graphviz version 2.26.3 (20100126.1600)
 -->
<!-- Title: harpoon::hardware_component Pages: 1 -->
<!--zoomable 1120 -->
<svg id="main" version="1.1" xmlns="http://www.w3.org/2000/svg" xmlns:xlink="http://www.w3.org/1999/xlink" xml:space="preserve" onload="init(evt)">
<style type="text/css"><![CDATA[
.edge:hover path { stroke: red; }
.edge:hover polygon { stroke: red; fill: red; }
]]></style>
<script type="text/javascript"><![CDATA[
var edges = document.getElementsByTagName('g');
if (edges && edges.length) {
  for (var i=0;i<edges.length;i++) {
    if (edges[i].id.substr(0,4)=='edge') {
      edges[i].setAttribute('class','edge');
    }
  }
}
]]></script>
        <defs>
                <circle id="rim" cx="0" cy="0" r="7"/>
                <circle id="rim2" cx="0" cy="0" r="3.5"/>
                <g id="zoomPlus">
                        <use xlink:href="#rim" fill="#404040">
                                <set attributeName="fill" to="#808080" begin="zoomplus.mouseover" end="zoomplus.mouseout"/>
                        </use>
                        <path d="M-4,0h8M0,-4v8" fill="none" stroke="white" stroke-width="1.5" pointer-events="none"/>
                </g>
                <g id="zoomMin">
                        <use xlink:href="#rim" fill="#404040">
                                <set attributeName="fill" to="#808080" begin="zoomminus.mouseover" end="zoomminus.mouseout"/>
                        </use>
                        <path d="M-4,0h8" fill="none" stroke="white" stroke-width="1.5" pointer-events="none"/>
                </g>
                <g id="dirArrow">
                        <path fill="none" stroke="white" stroke-width="1.5" d="M0,-3.0v7 M-2.5,-0.5L0,-3.0L2.5,-0.5"/>
                </g>
               <g id="resetDef">
                       <use xlink:href="#rim2" fill="#404040">
                               <set attributeName="fill" to="#808080" begin="reset.mouseover" end="reset.mouseout"/>
                       </use>
               </g>
        </defs>

<script type="text/javascript">
var viewWidth = 862;
var viewHeight = 1120;
var sectionId = 'dynsection-0';
</script>
<script xlink:href="../../svgpan.js"/>
<svg id="graph" class="graph">
<g id="viewport">
<title>harpoon::hardware_component</title>
<polygon fill="white" stroke="white" points="-4,5 -4,-1116 859,-1116 859,5 -4,5"/>
<!-- Node1 -->
<g id="node1" class="node"><title>Node1</title>
<polygon fill="#bfbfbf" stroke="black" points="261,-792.5 261,-985.5 411,-985.5 411,-792.5 261,-792.5"/>
<text text-anchor="middle" x="336" y="-972.5" font-family="Helvetica,sans-Serif" font-size="10.00">harpoon::hardware_component</text>
<polyline fill="none" stroke="black" points="261,-964.5 411,-964.5 "/>
<text text-anchor="middle" x="336" y="-951.5" font-family="Helvetica,sans-Serif" font-size="10.00"> </text>
<polyline fill="none" stroke="black" points="261,-943.5 411,-943.5 "/>
<text text-anchor="start" x="269" y="-930.5" font-family="Helvetica,sans-Serif" font-size="10.00">+ hardware_component()</text>
<text text-anchor="start" x="269" y="-917.5" font-family="Helvetica,sans-Serif" font-size="10.00">+ hardware_component()</text>
<text text-anchor="start" x="269" y="-904.5" font-family="Helvetica,sans-Serif" font-size="10.00">+ operator=()</text>
<text text-anchor="start" x="269" y="-891.5" font-family="Helvetica,sans-Serif" font-size="10.00">+ ~hardware_component()</text>
<text text-anchor="start" x="269" y="-878.5" font-family="Helvetica,sans-Serif" font-size="10.00">+ add_component()</text>
<text text-anchor="start" x="269" y="-865.5" font-family="Helvetica,sans-Serif" font-size="10.00">+ remove_component()</text>
<text text-anchor="start" x="269" y="-852.5" font-family="Helvetica,sans-Serif" font-size="10.00">+ replace_component()</text>
<text text-anchor="start" x="269" y="-839.5" font-family="Helvetica,sans-Serif" font-size="10.00">+ prepare()</text>
<text text-anchor="start" x="269" y="-826.5" font-family="Helvetica,sans-Serif" font-size="10.00">+ cleanup()</text>
<text text-anchor="start" x="269" y="-813.5" font-family="Helvetica,sans-Serif" font-size="10.00">+ boot()</text>
<text text-anchor="start" x="269" y="-800.5" font-family="Helvetica,sans-Serif" font-size="10.00">and 10 more...</text>
</g>
<!-- Node3 -->
<g id="node5" class="node"><title>Node3</title>
<a xlink:href="../../d5/d84/classharpoon_1_1clock_1_1clock.html" target="_top" xlink:title="{harpoon::clock::clock\n||+ clock()\l+ set_generator()\l+ get_tick()\l+ wait_for_tick()\l+ wait_tick()\l+ is_running()\l+ boot()\l+ shutdown()\l+ ~clock()\l}">
<polygon fill="white" stroke="black" points="0,-555.5 0,-722.5 110,-722.5 110,-555.5 0,-555.5"/>
<text text-anchor="middle" x="55" y="-709.5" font-family="Helvetica,sans-Serif" font-size="10.00">harpoon::clock::clock</text>
<polyline fill="none" stroke="black" points="0,-701.5 110,-701.5 "/>
<text text-anchor="middle" x="55" y="-688.5" font-family="Helvetica,sans-Serif" font-size="10.00"> </text>
<polyline fill="none" stroke="black" points="0,-680.5 110,-680.5 "/>
<text text-anchor="start" x="8" y="-667.5" font-family="Helvetica,sans-Serif" font-size="10.00">+ clock()</text>
<text text-anchor="start" x="8" y="-654.5" font-family="Helvetica,sans-Serif" font-size="10.00">+ set_generator()</text>
<text text-anchor="start" x="8" y="-641.5" font-family="Helvetica,sans-Serif" font-size="10.00">+ get_tick()</text>
<text text-anchor="start" x="8" y="-628.5" font-family="Helvetica,sans-Serif" font-size="10.00">+ wait_for_tick()</text>
<text text-anchor="start" x="8" y="-615.5" font-family="Helvetica,sans-Serif" font-size="10.00">+ wait_tick()</text>
<text text-anchor="start" x="8" y="-602.5" font-family="Helvetica,sans-Serif" font-size="10.00">+ is_running()</text>
<text text-anchor="start" x="8" y="-589.5" font-family="Helvetica,sans-Serif" font-size="10.00">+ boot()</text>
<text text-anchor="start" x="8" y="-576.5" font-family="Helvetica,sans-Serif" font-size="10.00">+ shutdown()</text>
<text text-anchor="start" x="8" y="-563.5" font-family="Helvetica,sans-Serif" font-size="10.00">+ ~clock()</text>
</a>
</g>
<!-- Node1&#45;&gt;Node3 -->
<g id="edge4" class="edge"><title>Node1&#45;&gt;Node3</title>
<path fill="none" stroke="midnightblue" d="M251.737,-850.613C208.227,-827.73 156.543,-795.442 119,-756 109.582,-746.106 101.105,-734.557 93.637,-722.643"/>
<polygon fill="none" stroke="midnightblue" points="250.4,-853.862 260.889,-855.352 253.618,-847.646 250.4,-853.862"/>
</g>
<!-- Node4 -->
<g id="node7" class="node"><title>Node4</title>
<a xlink:href="../../dd/d91/classharpoon_1_1computer__system.html" target="_top" xlink:title="{harpoon::computer_system\n||+ ~computer_system()\l+ set_main_execution_unit()\l+ get_main_execution_unit()\l+ set_main_memory()\l+ get_main_memory()\l+ run()\l}">
<polygon fill="white" stroke="black" points="128,-575 128,-703 268,-703 268,-575 128,-575"/>
<text text-anchor="middle" x="198" y="-690" font-family="Helvetica,sans-Serif" font-size="10.00">harpoon::computer_system</text>
<polyline fill="none" stroke="black" points="128,-682 268,-682 "/>
<text text-anchor="middle" x="198" y="-669" font-family="Helvetica,sans-Serif" font-size="10.00"> </text>
<polyline fill="none" stroke="black" points="128,-661 268,-661 "/>
<text text-anchor="start" x="136" y="-648" font-family="Helvetica,sans-Serif" font-size="10.00">+ ~computer_system()</text>
<text text-anchor="start" x="136" y="-635" font-family="Helvetica,sans-Serif" font-size="10.00">+ set_main_execution_unit()</text>
<text text-anchor="start" x="136" y="-622" font-family="Helvetica,sans-Serif" font-size="10.00">+ get_main_execution_unit()</text>
<text text-anchor="start" x="136" y="-609" font-family="Helvetica,sans-Serif" font-size="10.00">+ set_main_memory()</text>
<text text-anchor="start" x="136" y="-596" font-family="Helvetica,sans-Serif" font-size="10.00">+ get_main_memory()</text>
<text text-anchor="start" x="136" y="-583" font-family="Helvetica,sans-Serif" font-size="10.00">+ run()</text>
</a>
</g>
<!-- Node1&#45;&gt;Node4 -->
<g id="edge6" class="edge"><title>Node1&#45;&gt;Node4</title>
<path fill="none" stroke="midnightblue" d="M277.792,-783.55C262.754,-756.308 247.015,-727.795 233.528,-703.362"/>
<polygon fill="none" stroke="midnightblue" points="274.749,-785.28 282.646,-792.343 280.877,-781.897 274.749,-785.28"/>
</g>
<!-- Node5 -->
<g id="node9" class="node"><title>Node5</title>
<a xlink:href="../../d6/d5c/classharpoon_1_1execution_1_1execution__unit.html" target="_top" xlink:title="{harpoon::execution\l::execution_unit\n||+ set_clock()\l+ get_clock()\l+ ~execution_unit()\l}">
<polygon fill="white" stroke="black" points="285.5,-588 285.5,-690 386.5,-690 386.5,-588 285.5,-588"/>
<text text-anchor="start" x="293.5" y="-677" font-family="Helvetica,sans-Serif" font-size="10.00">harpoon::execution</text>
<text text-anchor="middle" x="336" y="-664" font-family="Helvetica,sans-Serif" font-size="10.00">::execution_unit</text>
<polyline fill="none" stroke="black" points="285.5,-656 386.5,-656 "/>
<text text-anchor="middle" x="336" y="-643" font-family="Helvetica,sans-Serif" font-size="10.00"> </text>
<polyline fill="none" stroke="black" points="285.5,-635 386.5,-635 "/>
<text text-anchor="start" x="293.5" y="-622" font-family="Helvetica,sans-Serif" font-size="10.00">+ set_clock()</text>
<text text-anchor="start" x="293.5" y="-609" font-family="Helvetica,sans-Serif" font-size="10.00">+ get_clock()</text>
<text text-anchor="start" x="293.5" y="-596" font-family="Helvetica,sans-Serif" font-size="10.00">+ ~execution_unit()</text>
</a>
</g>
<!-- Node1&#45;&gt;Node5 -->
<g id="edge8" class="edge"><title>Node1&#45;&gt;Node5</title>
<path fill="none" stroke="midnightblue" d="M336,-782.081C336,-750.269 336,-716.86 336,-690.333"/>
<polygon fill="none" stroke="midnightblue" points="332.5,-782.343 336,-792.343 339.5,-782.344 332.5,-782.343"/>
</g>
<!-- Node7 -->
<g id="node13" class="node"><title>Node7</title>
<a xlink:href="../../d9/d00/classharpoon_1_1execution_1_1processing__unit.html" target="_top" xlink:title="{harpoon::execution\l::processing_unit\n||+ prepare()\l+ boot()\l+ shutdown()\l+ run()\l+ wait_for_cycle()\l+ wait_for_next_cycle()\l+ begin_execution()\l+ fetch_decode()\l+ execute()\l+ is_running()\land 6 more...\l}">
<polygon fill="white" stroke="black" points="403.5,-536 403.5,-742 522.5,-742 522.5,-536 403.5,-536"/>
<text text-anchor="start" x="411.5" y="-729" font-family="Helvetica,sans-Serif" font-size="10.00">harpoon::execution</text>
<text text-anchor="middle" x="463" y="-716" font-family="Helvetica,sans-Serif" font-size="10.00">::processing_unit</text>
<polyline fill="none" stroke="black" points="403.5,-708 522.5,-708 "/>
<text text-anchor="middle" x="463" y="-695" font-family="Helvetica,sans-Serif" font-size="10.00"> </text>
<polyline fill="none" stroke="black" points="403.5,-687 522.5,-687 "/>
<text text-anchor="start" x="411.5" y="-674" font-family="Helvetica,sans-Serif" font-size="10.00">+ prepare()</text>
<text text-anchor="start" x="411.5" y="-661" font-family="Helvetica,sans-Serif" font-size="10.00">+ boot()</text>
<text text-anchor="start" x="411.5" y="-648" font-family="Helvetica,sans-Serif" font-size="10.00">+ shutdown()</text>
<text text-anchor="start" x="411.5" y="-635" font-family="Helvetica,sans-Serif" font-size="10.00">+ run()</text>
<text text-anchor="start" x="411.5" y="-622" font-family="Helvetica,sans-Serif" font-size="10.00">+ wait_for_cycle()</text>
<text text-anchor="start" x="411.5" y="-609" font-family="Helvetica,sans-Serif" font-size="10.00">+ wait_for_next_cycle()</text>
<text text-anchor="start" x="411.5" y="-596" font-family="Helvetica,sans-Serif" font-size="10.00">+ begin_execution()</text>
<text text-anchor="start" x="411.5" y="-583" font-family="Helvetica,sans-Serif" font-size="10.00">+ fetch_decode()</text>
<text text-anchor="start" x="411.5" y="-570" font-family="Helvetica,sans-Serif" font-size="10.00">+ execute()</text>
<text text-anchor="start" x="411.5" y="-557" font-family="Helvetica,sans-Serif" font-size="10.00">+ is_running()</text>
<text text-anchor="start" x="411.5" y="-544" font-family="Helvetica,sans-Serif" font-size="10.00">and 6 more...</text>
</a>
</g>
<!-- Node1&#45;&gt;Node7 -->
<g id="edge12" class="edge"><title>Node1&#45;&gt;Node7</title>
<path fill="none" stroke="midnightblue" d="M389.647,-783.395C396.606,-769.697 403.726,-755.681 410.663,-742.026"/>
<polygon fill="none" stroke="midnightblue" points="386.51,-781.843 385.102,-792.343 392.751,-785.013 386.51,-781.843"/>
</g>
<!-- Node8 -->
<g id="node15" class="node"><title>Node8</title>
<a xlink:href="../../db/d2f/classharpoon_1_1memory_1_1memory.html" target="_top" xlink:title="{harpoon::memory::memory\n||+ memory()\l+ get_address_range()\l+ get_address_range()\l+ set_address_range()\l+ has_address()\l+ get()\l+ set()\l+ get()\l+ set()\l+ get()\l+ set()\l+ get()\l+ set()\l+ ~memory()\l}">
<polygon fill="white" stroke="black" points="549,-523 549,-755 683,-755 683,-523 549,-523"/>
<text text-anchor="middle" x="616" y="-742" font-family="Helvetica,sans-Serif" font-size="10.00">harpoon::memory::memory</text>
<polyline fill="none" stroke="black" points="549,-734 683,-734 "/>
<text text-anchor="middle" x="616" y="-721" font-family="Helvetica,sans-Serif" font-size="10.00"> </text>
<polyline fill="none" stroke="black" points="549,-713 683,-713 "/>
<text text-anchor="start" x="557" y="-700" font-family="Helvetica,sans-Serif" font-size="10.00">+ memory()</text>
<text text-anchor="start" x="557" y="-687" font-family="Helvetica,sans-Serif" font-size="10.00">+ get_address_range()</text>
<text text-anchor="start" x="557" y="-674" font-family="Helvetica,sans-Serif" font-size="10.00">+ get_address_range()</text>
<text text-anchor="start" x="557" y="-661" font-family="Helvetica,sans-Serif" font-size="10.00">+ set_address_range()</text>
<text text-anchor="start" x="557" y="-648" font-family="Helvetica,sans-Serif" font-size="10.00">+ has_address()</text>
<text text-anchor="start" x="557" y="-635" font-family="Helvetica,sans-Serif" font-size="10.00">+ get()</text>
<text text-anchor="start" x="557" y="-622" font-family="Helvetica,sans-Serif" font-size="10.00">+ set()</text>
<text text-anchor="start" x="557" y="-609" font-family="Helvetica,sans-Serif" font-size="10.00">+ get()</text>
<text text-anchor="start" x="557" y="-596" font-family="Helvetica,sans-Serif" font-size="10.00">+ set()</text>
<text text-anchor="start" x="557" y="-583" font-family="Helvetica,sans-Serif" font-size="10.00">+ get()</text>
<text text-anchor="start" x="557" y="-570" font-family="Helvetica,sans-Serif" font-size="10.00">+ set()</text>
<text text-anchor="start" x="557" y="-557" font-family="Helvetica,sans-Serif" font-size="10.00">+ get()</text>
<text text-anchor="start" x="557" y="-544" font-family="Helvetica,sans-Serif" font-size="10.00">+ set()</text>
<text text-anchor="start" x="557" y="-531" font-family="Helvetica,sans-Serif" font-size="10.00">+ ~memory()</text>
</a>
</g>
<!-- Node1&#45;&gt;Node8 -->
<g id="edge14" class="edge"><title>Node1&#45;&gt;Node8</title>
<path fill="none" stroke="midnightblue" d="M419.959,-840.738C456.27,-817.675 497.926,-788.106 531,-756 537.125,-750.054 543.123,-743.624 548.918,-736.943"/>
<polygon fill="none" stroke="midnightblue" points="417.94,-837.873 411.336,-846.157 421.665,-843.799 417.94,-837.873"/>
</g>
<!-- Node2 -->
<g id="node2" class="node"><title>Node2</title>
<polygon fill="white" stroke="#bfbfbf" points="280.5,-1022.5 280.5,-1111.5 391.5,-1111.5 391.5,-1022.5 280.5,-1022.5"/>
<text text-anchor="start" x="288.5" y="-1098.5" font-family="Helvetica,sans-Serif" font-size="10.00">std::enable_shared</text>
<text text-anchor="start" x="288.5" y="-1085.5" font-family="Helvetica,sans-Serif" font-size="10.00">_from_this&lt; hardware</text>
<text text-anchor="middle" x="336" y="-1072.5" font-family="Helvetica,sans-Serif" font-size="10.00">_component &gt;</text>
<polyline fill="none" stroke="#bfbfbf" points="280.5,-1064.5 391.5,-1064.5 "/>
<text text-anchor="middle" x="336" y="-1051.5" font-family="Helvetica,sans-Serif" font-size="10.00"> </text>
<polyline fill="none" stroke="#bfbfbf" points="280.5,-1043.5 391.5,-1043.5 "/>
<text text-anchor="middle" x="336" y="-1030.5" font-family="Helvetica,sans-Serif" font-size="10.00"> </text>
</g>
<!-- Node2&#45;&gt;Node1 -->
<g id="edge2" class="edge"><title>Node2&#45;&gt;Node1</title>
<path fill="none" stroke="midnightblue" d="M336,-1012.06C336,-1003.63 336,-994.712 336,-985.692"/>
<polygon fill="none" stroke="midnightblue" points="332.5,-1012.08 336,-1022.08 339.5,-1012.08 332.5,-1012.08"/>
</g>
<!-- Node6 -->
<g id="node11" class="node"><title>Node6</title>
<a xlink:href="../../d7/dcf/classharpoon_1_1execution_1_1up__execution__unit.html" target="_top" xlink:title="{harpoon::execution\l::up_execution_unit\n||+ ~up_execution_unit()\l+ set_processing_unit()\l+ get_processing_unit()\l}">
<polygon fill="white" stroke="black" points="269.5,-325 269.5,-427 388.5,-427 388.5,-325 269.5,-325"/>
<text text-anchor="start" x="277.5" y="-414" font-family="Helvetica,sans-Serif" font-size="10.00">harpoon::execution</text>
<text text-anchor="middle" x="329" y="-401" font-family="Helvetica,sans-Serif" font-size="10.00">::up_execution_unit</text>
<polyline fill="none" stroke="black" points="269.5,-393 388.5,-393 "/>
<text text-anchor="middle" x="329" y="-380" font-family="Helvetica,sans-Serif" font-size="10.00"> </text>
<polyline fill="none" stroke="black" points="269.5,-372 388.5,-372 "/>
<text text-anchor="start" x="277.5" y="-359" font-family="Helvetica,sans-Serif" font-size="10.00">+ ~up_execution_unit()</text>
<text text-anchor="start" x="277.5" y="-346" font-family="Helvetica,sans-Serif" font-size="10.00">+ set_processing_unit()</text>
<text text-anchor="start" x="277.5" y="-333" font-family="Helvetica,sans-Serif" font-size="10.00">+ get_processing_unit()</text>
</a>
</g>
<!-- Node5&#45;&gt;Node6 -->
<g id="edge10" class="edge"><title>Node5&#45;&gt;Node6</title>
<path fill="none" stroke="midnightblue" d="M334.374,-577.905C333.158,-532.224 331.514,-470.467 330.366,-427.327"/>
<polygon fill="none" stroke="midnightblue" points="330.877,-578.076 334.642,-587.979 337.875,-577.889 330.877,-578.076"/>
</g>
<!-- Node9 -->
<g id="node17" class="node"><title>Node9</title>
<a xlink:href="../../da/d84/classharpoon_1_1memory_1_1chunked__memory.html" target="_top" xlink:title="{harpoon::memory::chunked\l_memory\n||+ chunked_memory()\l+ chunked_memory()\l+ operator=()\l+ prepare()\l+ cleanup()\l+ get()\l+ set()\l+ ~chunked_memory()\l# get_chunk_index()\l# get_chunk_offset()\l# get_chunk()\l# get_chunk()\l}">
<polygon fill="white" stroke="black" points="405.5,-266.5 405.5,-485.5 540.5,-485.5 540.5,-266.5 405.5,-266.5"/>
<text text-anchor="start" x="413.5" y="-472.5" font-family="Helvetica,sans-Serif" font-size="10.00">harpoon::memory::chunked</text>
<text text-anchor="middle" x="473" y="-459.5" font-family="Helvetica,sans-Serif" font-size="10.00">_memory</text>
<polyline fill="none" stroke="black" points="405.5,-451.5 540.5,-451.5 "/>
<text text-anchor="middle" x="473" y="-438.5" font-family="Helvetica,sans-Serif" font-size="10.00"> </text>
<polyline fill="none" stroke="black" points="405.5,-430.5 540.5,-430.5 "/>
<text text-anchor="start" x="413.5" y="-417.5" font-family="Helvetica,sans-Serif" font-size="10.00">+ chunked_memory()</text>
<text text-anchor="start" x="413.5" y="-404.5" font-family="Helvetica,sans-Serif" font-size="10.00">+ chunked_memory()</text>
<text text-anchor="start" x="413.5" y="-391.5" font-family="Helvetica,sans-Serif" font-size="10.00">+ operator=()</text>
<text text-anchor="start" x="413.5" y="-378.5" font-family="Helvetica,sans-Serif" font-size="10.00">+ prepare()</text>
<text text-anchor="start" x="413.5" y="-365.5" font-family="Helvetica,sans-Serif" font-size="10.00">+ cleanup()</text>
<text text-anchor="start" x="413.5" y="-352.5" font-family="Helvetica,sans-Serif" font-size="10.00">+ get()</text>
<text text-anchor="start" x="413.5" y="-339.5" font-family="Helvetica,sans-Serif" font-size="10.00">+ set()</text>
<text text-anchor="start" x="413.5" y="-326.5" font-family="Helvetica,sans-Serif" font-size="10.00">+ ~chunked_memory()</text>
<text text-anchor="start" x="413.5" y="-313.5" font-family="Helvetica,sans-Serif" font-size="10.00"># get_chunk_index()</text>
<text text-anchor="start" x="413.5" y="-300.5" font-family="Helvetica,sans-Serif" font-size="10.00"># get_chunk_offset()</text>
<text text-anchor="start" x="413.5" y="-287.5" font-family="Helvetica,sans-Serif" font-size="10.00"># get_chunk()</text>
<text text-anchor="start" x="413.5" y="-274.5" font-family="Helvetica,sans-Serif" font-size="10.00"># get_chunk()</text>
</a>
</g>
<!-- Node8&#45;&gt;Node9 -->
<g id="edge16" class="edge"><title>Node8&#45;&gt;Node9</title>
<path fill="none" stroke="midnightblue" d="M547.955,-513.855C542.826,-504.422 537.673,-494.945 532.603,-485.619"/>
<polygon fill="none" stroke="midnightblue" points="545.01,-515.765 552.862,-522.879 551.16,-512.422 545.01,-515.765"/>
</g>
<!-- Node14 -->
<g id="node27" class="node"><title>Node14</title>
<a xlink:href="../../da/df3/classharpoon_1_1memory_1_1linear__memory.html" target="_top" xlink:title="{harpoon::memory::linear\l_memory\n||+ linear_memory()\l+ linear_memory()\l+ operator=()\l+ prepare()\l+ cleanup()\l+ get()\l+ set()\l+ ~linear_memory()\l}">
<polygon fill="white" stroke="black" points="562,-292.5 562,-459.5 684,-459.5 684,-292.5 562,-292.5"/>
<text text-anchor="start" x="570" y="-446.5" font-family="Helvetica,sans-Serif" font-size="10.00">harpoon::memory::linear</text>
<text text-anchor="middle" x="623" y="-433.5" font-family="Helvetica,sans-Serif" font-size="10.00">_memory</text>
<polyline fill="none" stroke="black" points="562,-425.5 684,-425.5 "/>
<text text-anchor="middle" x="623" y="-412.5" font-family="Helvetica,sans-Serif" font-size="10.00"> </text>
<polyline fill="none" stroke="black" points="562,-404.5 684,-404.5 "/>
<text text-anchor="start" x="570" y="-391.5" font-family="Helvetica,sans-Serif" font-size="10.00">+ linear_memory()</text>
<text text-anchor="start" x="570" y="-378.5" font-family="Helvetica,sans-Serif" font-size="10.00">+ linear_memory()</text>
<text text-anchor="start" x="570" y="-365.5" font-family="Helvetica,sans-Serif" font-size="10.00">+ operator=()</text>
<text text-anchor="start" x="570" y="-352.5" font-family="Helvetica,sans-Serif" font-size="10.00">+ prepare()</text>
<text text-anchor="start" x="570" y="-339.5" font-family="Helvetica,sans-Serif" font-size="10.00">+ cleanup()</text>
<text text-anchor="start" x="570" y="-326.5" font-family="Helvetica,sans-Serif" font-size="10.00">+ get()</text>
<text text-anchor="start" x="570" y="-313.5" font-family="Helvetica,sans-Serif" font-size="10.00">+ set()</text>
<text text-anchor="start" x="570" y="-300.5" font-family="Helvetica,sans-Serif" font-size="10.00">+ ~linear_memory()</text>
</a>
</g>
<!-- Node8&#45;&gt;Node14 -->
<g id="edge26" class="edge"><title>Node8&#45;&gt;Node14</title>
<path fill="none" stroke="midnightblue" d="M619.358,-512.85C619.839,-494.756 620.324,-476.527 620.777,-459.537"/>
<polygon fill="none" stroke="midnightblue" points="615.858,-512.789 619.091,-522.879 622.856,-512.976 615.858,-512.789"/>
</g>
<!-- Node19 -->
<g id="node37" class="node"><title>Node19</title>
<a xlink:href="../../d8/d1f/classharpoon_1_1memory_1_1main__memory.html" target="_top" xlink:title="{harpoon::memory::main\l_memory\n||+ main_memory()\l+ main_memory()\l+ operator=()\l+ add_memory()\l+ get()\l+ set()\l+ ~main_memory()\l}">
<polygon fill="white" stroke="black" points="701.5,-299 701.5,-453 820.5,-453 820.5,-299 701.5,-299"/>
<text text-anchor="start" x="709.5" y="-440" font-family="Helvetica,sans-Serif" font-size="10.00">harpoon::memory::main</text>
<text text-anchor="middle" x="761" y="-427" font-family="Helvetica,sans-Serif" font-size="10.00">_memory</text>
<polyline fill="none" stroke="black" points="701.5,-419 820.5,-419 "/>
<text text-anchor="middle" x="761" y="-406" font-family="Helvetica,sans-Serif" font-size="10.00"> </text>
<polyline fill="none" stroke="black" points="701.5,-398 820.5,-398 "/>
<text text-anchor="start" x="709.5" y="-385" font-family="Helvetica,sans-Serif" font-size="10.00">+ main_memory()</text>
<text text-anchor="start" x="709.5" y="-372" font-family="Helvetica,sans-Serif" font-size="10.00">+ main_memory()</text>
<text text-anchor="start" x="709.5" y="-359" font-family="Helvetica,sans-Serif" font-size="10.00">+ operator=()</text>
<text text-anchor="start" x="709.5" y="-346" font-family="Helvetica,sans-Serif" font-size="10.00">+ add_memory()</text>
<text text-anchor="start" x="709.5" y="-333" font-family="Helvetica,sans-Serif" font-size="10.00">+ get()</text>
<text text-anchor="start" x="709.5" y="-320" font-family="Helvetica,sans-Serif" font-size="10.00">+ set()</text>
<text text-anchor="start" x="709.5" y="-307" font-family="Helvetica,sans-Serif" font-size="10.00">+ ~main_memory()</text>
</a>
</g>
<!-- Node8&#45;&gt;Node19 -->
<g id="edge36" class="edge"><title>Node8&#45;&gt;Node19</title>
<path fill="none" stroke="midnightblue" d="M684.9,-514.03C696.309,-493.337 707.837,-472.428 718.35,-453.359"/>
<polygon fill="none" stroke="midnightblue" points="681.784,-512.432 680.021,-522.879 687.914,-515.811 681.784,-512.432"/>
</g>
<!-- Node10 -->
<g id="node19" class="node"><title>Node10</title>
<a xlink:href="../../dc/d01/classharpoon_1_1memory_1_1random__access__memory.html" target="_top" xlink:title="{harpoon::memory::random\l_access_memory\&lt; chunked\l_memory \&gt;\n||+ ~random_access_memory()\l}">
<polygon fill="white" stroke="black" points="242.5,-133.5 242.5,-222.5 389.5,-222.5 389.5,-133.5 242.5,-133.5"/>
<text text-anchor="start" x="250.5" y="-209.5" font-family="Helvetica,sans-Serif" font-size="10.00">harpoon::memory::random</text>
<text text-anchor="start" x="250.5" y="-196.5" font-family="Helvetica,sans-Serif" font-size="10.00">_access_memory&lt; chunked</text>
<text text-anchor="middle" x="316" y="-183.5" font-family="Helvetica,sans-Serif" font-size="10.00">_memory &gt;</text>
<polyline fill="none" stroke="black" points="242.5,-175.5 389.5,-175.5 "/>
<text text-anchor="middle" x="316" y="-162.5" font-family="Helvetica,sans-Serif" font-size="10.00"> </text>
<polyline fill="none" stroke="black" points="242.5,-154.5 389.5,-154.5 "/>
<text text-anchor="start" x="250.5" y="-141.5" font-family="Helvetica,sans-Serif" font-size="10.00">+ ~random_access_memory()</text>
</a>
</g>
<!-- Node9&#45;&gt;Node10 -->
<g id="edge18" class="edge"><title>Node9&#45;&gt;Node10</title>
<path fill="none" stroke="midnightblue" d="M399.121,-268.67C398.414,-267.774 397.707,-266.884 397,-266 385.332,-251.402 371.857,-236.192 359.287,-222.604"/>
<polygon fill="none" stroke="midnightblue" points="396.593,-271.12 405.491,-276.87 402.121,-266.826 396.593,-271.12"/>
</g>
<!-- Node12 -->
<g id="node23" class="node"><title>Node12</title>
<a xlink:href="../../db/dd3/classharpoon_1_1memory_1_1read__only__memory.html" target="_top" xlink:title="{harpoon::memory::read\l_only_memory\&lt; chunked\l_memory \&gt;\n||+ set()\l+ ~read_only_memory()\l}">
<polygon fill="white" stroke="black" points="408,-127 408,-229 534,-229 534,-127 408,-127"/>
<text text-anchor="start" x="416" y="-216" font-family="Helvetica,sans-Serif" font-size="10.00">harpoon::memory::read</text>
<text text-anchor="start" x="416" y="-203" font-family="Helvetica,sans-Serif" font-size="10.00">_only_memory&lt; chunked</text>
<text text-anchor="middle" x="471" y="-190" font-family="Helvetica,sans-Serif" font-size="10.00">_memory &gt;</text>
<polyline fill="none" stroke="black" points="408,-182 534,-182 "/>
<text text-anchor="middle" x="471" y="-169" font-family="Helvetica,sans-Serif" font-size="10.00"> </text>
<polyline fill="none" stroke="black" points="408,-161 534,-161 "/>
<text text-anchor="start" x="416" y="-148" font-family="Helvetica,sans-Serif" font-size="10.00">+ set()</text>
<text text-anchor="start" x="416" y="-135" font-family="Helvetica,sans-Serif" font-size="10.00">+ ~read_only_memory()</text>
</a>
</g>
<!-- Node9&#45;&gt;Node12 -->
<g id="edge22" class="edge"><title>Node9&#45;&gt;Node12</title>
<path fill="none" stroke="midnightblue" d="M471.789,-256.117C471.695,-246.822 471.604,-237.784 471.519,-229.352"/>
<polygon fill="none" stroke="midnightblue" points="468.291,-256.323 471.892,-266.287 475.291,-256.252 468.291,-256.323"/>
</g>
<!-- Node11 -->
<g id="node21" class="node"><title>Node11</title>
<a xlink:href="../../de/d86/classharpoon_1_1memory_1_1chunked__random__access__memory.html" target="_top" xlink:title="{harpoon::memory::chunked\l_random_access_memory\n||+ ~chunked_random_access\l_memory()\l}">
<polygon fill="white" stroke="black" points="244.5,-0.5 244.5,-89.5 387.5,-89.5 387.5,-0.5 244.5,-0.5"/>
<text text-anchor="start" x="252.5" y="-76.5" font-family="Helvetica,sans-Serif" font-size="10.00">harpoon::memory::chunked</text>
<text text-anchor="middle" x="316" y="-63.5" font-family="Helvetica,sans-Serif" font-size="10.00">_random_access_memory</text>
<polyline fill="none" stroke="black" points="244.5,-55.5 387.5,-55.5 "/>
<text text-anchor="middle" x="316" y="-42.5" font-family="Helvetica,sans-Serif" font-size="10.00"> </text>
<polyline fill="none" stroke="black" points="244.5,-34.5 387.5,-34.5 "/>
<text text-anchor="start" x="252.5" y="-21.5" font-family="Helvetica,sans-Serif" font-size="10.00">+ ~chunked_random_access</text>
<text text-anchor="start" x="252.5" y="-8.5" font-family="Helvetica,sans-Serif" font-size="10.00">_memory()</text>
</a>
</g>
<!-- Node10&#45;&gt;Node11 -->
<g id="edge20" class="edge"><title>Node10&#45;&gt;Node11</title>
<path fill="none" stroke="midnightblue" d="M316,-123.27C316,-112.122 316,-100.518 316,-89.7656"/>
<polygon fill="none" stroke="midnightblue" points="312.5,-123.343 316,-133.343 319.5,-123.343 312.5,-123.343"/>
</g>
<!-- Node13 -->
<g id="node25" class="node"><title>Node13</title>
<a xlink:href="../../d5/d6c/classharpoon_1_1memory_1_1chunked__read__only__memory.html" target="_top" xlink:title="{harpoon::memory::chunked\l_read_only_memory\n||+ ~chunked_read_only\l_memory()\l}">
<polygon fill="white" stroke="black" points="404.5,-0.5 404.5,-89.5 539.5,-89.5 539.5,-0.5 404.5,-0.5"/>
<text text-anchor="start" x="412.5" y="-76.5" font-family="Helvetica,sans-Serif" font-size="10.00">harpoon::memory::chunked</text>
<text text-anchor="middle" x="472" y="-63.5" font-family="Helvetica,sans-Serif" font-size="10.00">_read_only_memory</text>
<polyline fill="none" stroke="black" points="404.5,-55.5 539.5,-55.5 "/>
<text text-anchor="middle" x="472" y="-42.5" font-family="Helvetica,sans-Serif" font-size="10.00"> </text>
<polyline fill="none" stroke="black" points="404.5,-34.5 539.5,-34.5 "/>
<text text-anchor="start" x="412.5" y="-21.5" font-family="Helvetica,sans-Serif" font-size="10.00">+ ~chunked_read_only</text>
<text text-anchor="start" x="412.5" y="-8.5" font-family="Helvetica,sans-Serif" font-size="10.00">_memory()</text>
</a>
</g>
<!-- Node12&#45;&gt;Node13 -->
<g id="edge24" class="edge"><title>Node12&#45;&gt;Node13</title>
<path fill="none" stroke="midnightblue" d="M471.461,-116.733C471.529,-107.593 471.599,-98.3199 471.665,-89.6108"/>
<polygon fill="none" stroke="midnightblue" points="467.959,-116.933 471.384,-126.959 474.959,-116.986 467.959,-116.933"/>
</g>
<!-- Node15 -->
<g id="node29" class="node"><title>Node15</title>
<a xlink:href="../../dc/d01/classharpoon_1_1memory_1_1random__access__memory.html" target="_top" xlink:title="{harpoon::memory::random\l_access_memory\&lt; linear\l_memory \&gt;\n||+ ~random_access_memory()\l}">
<polygon fill="white" stroke="black" points="551.5,-133.5 551.5,-222.5 698.5,-222.5 698.5,-133.5 551.5,-133.5"/>
<text text-anchor="start" x="559.5" y="-209.5" font-family="Helvetica,sans-Serif" font-size="10.00">harpoon::memory::random</text>
<text text-anchor="start" x="559.5" y="-196.5" font-family="Helvetica,sans-Serif" font-size="10.00">_access_memory&lt; linear</text>
<text text-anchor="middle" x="625" y="-183.5" font-family="Helvetica,sans-Serif" font-size="10.00">_memory &gt;</text>
<polyline fill="none" stroke="black" points="551.5,-175.5 698.5,-175.5 "/>
<text text-anchor="middle" x="625" y="-162.5" font-family="Helvetica,sans-Serif" font-size="10.00"> </text>
<polyline fill="none" stroke="black" points="551.5,-154.5 698.5,-154.5 "/>
<text text-anchor="start" x="559.5" y="-141.5" font-family="Helvetica,sans-Serif" font-size="10.00">+ ~random_access_memory()</text>
</a>
</g>
<!-- Node14&#45;&gt;Node15 -->
<g id="edge28" class="edge"><title>Node14&#45;&gt;Node15</title>
<path fill="none" stroke="midnightblue" d="M623.948,-282.153C624.158,-261.366 624.371,-240.275 624.55,-222.559"/>
<polygon fill="none" stroke="midnightblue" points="620.447,-282.282 623.845,-292.317 627.446,-282.353 620.447,-282.282"/>
</g>
<!-- Node17 -->
<g id="node33" class="node"><title>Node17</title>
<a xlink:href="../../db/dd3/classharpoon_1_1memory_1_1read__only__memory.html" target="_top" xlink:title="{harpoon::memory::read\l_only_memory\&lt; linear\l_memory \&gt;\n||+ set()\l+ ~read_only_memory()\l}">
<polygon fill="white" stroke="black" points="718,-127 718,-229 838,-229 838,-127 718,-127"/>
<text text-anchor="start" x="726" y="-216" font-family="Helvetica,sans-Serif" font-size="10.00">harpoon::memory::read</text>
<text text-anchor="start" x="726" y="-203" font-family="Helvetica,sans-Serif" font-size="10.00">_only_memory&lt; linear</text>
<text text-anchor="middle" x="778" y="-190" font-family="Helvetica,sans-Serif" font-size="10.00">_memory &gt;</text>
<polyline fill="none" stroke="black" points="718,-182 838,-182 "/>
<text text-anchor="middle" x="778" y="-169" font-family="Helvetica,sans-Serif" font-size="10.00"> </text>
<polyline fill="none" stroke="black" points="718,-161 838,-161 "/>
<text text-anchor="start" x="726" y="-148" font-family="Helvetica,sans-Serif" font-size="10.00">+ set()</text>
<text text-anchor="start" x="726" y="-135" font-family="Helvetica,sans-Serif" font-size="10.00">+ ~read_only_memory()</text>
</a>
</g>
<!-- Node14&#45;&gt;Node17 -->
<g id="edge32" class="edge"><title>Node14&#45;&gt;Node17</title>
<path fill="none" stroke="midnightblue" d="M679.567,-283.974C683.973,-277.792 688.473,-271.745 693,-266 702.86,-253.487 714.239,-240.753 725.399,-229.001"/>
<polygon fill="none" stroke="midnightblue" points="676.487,-282.271 673.621,-292.471 682.222,-286.284 676.487,-282.271"/>
</g>
<!-- Node16 -->
<g id="node31" class="node"><title>Node16</title>
<a xlink:href="../../df/d20/classharpoon_1_1memory_1_1linear__random__access__memory.html" target="_top" xlink:title="{harpoon::memory::linear\l_random_access_memory\n||+ ~linear_random_access\l_memory()\l}">
<polygon fill="white" stroke="black" points="557.5,-0.5 557.5,-89.5 688.5,-89.5 688.5,-0.5 557.5,-0.5"/>
<text text-anchor="start" x="565.5" y="-76.5" font-family="Helvetica,sans-Serif" font-size="10.00">harpoon::memory::linear</text>
<text text-anchor="middle" x="623" y="-63.5" font-family="Helvetica,sans-Serif" font-size="10.00">_random_access_memory</text>
<polyline fill="none" stroke="black" points="557.5,-55.5 688.5,-55.5 "/>
<text text-anchor="middle" x="623" y="-42.5" font-family="Helvetica,sans-Serif" font-size="10.00"> </text>
<polyline fill="none" stroke="black" points="557.5,-34.5 688.5,-34.5 "/>
<text text-anchor="start" x="565.5" y="-21.5" font-family="Helvetica,sans-Serif" font-size="10.00">+ ~linear_random_access</text>
<text text-anchor="start" x="565.5" y="-8.5" font-family="Helvetica,sans-Serif" font-size="10.00">_memory()</text>
</a>
</g>
<!-- Node15&#45;&gt;Node16 -->
<g id="edge30" class="edge"><title>Node15&#45;&gt;Node16</title>
<path fill="none" stroke="midnightblue" d="M624.177,-123.27C624.009,-112.122 623.835,-100.518 623.673,-89.7656"/>
<polygon fill="none" stroke="midnightblue" points="620.678,-123.397 624.328,-133.343 627.678,-123.291 620.678,-123.397"/>
</g>
<!-- Node18 -->
<g id="node35" class="node"><title>Node18</title>
<a xlink:href="../../de/dd2/classharpoon_1_1memory_1_1linear__read__only__memory.html" target="_top" xlink:title="{harpoon::memory::linear\l_read_only_memory\n||+ ~linear_read_only_memory()\l}">
<polygon fill="white" stroke="black" points="705.5,-7 705.5,-83 854.5,-83 854.5,-7 705.5,-7"/>
<text text-anchor="start" x="713.5" y="-70" font-family="Helvetica,sans-Serif" font-size="10.00">harpoon::memory::linear</text>
<text text-anchor="middle" x="780" y="-57" font-family="Helvetica,sans-Serif" font-size="10.00">_read_only_memory</text>
<polyline fill="none" stroke="black" points="705.5,-49 854.5,-49 "/>
<text text-anchor="middle" x="780" y="-36" font-family="Helvetica,sans-Serif" font-size="10.00"> </text>
<polyline fill="none" stroke="black" points="705.5,-28 854.5,-28 "/>
<text text-anchor="start" x="713.5" y="-15" font-family="Helvetica,sans-Serif" font-size="10.00">+ ~linear_read_only_memory()</text>
</a>
</g>
<!-- Node17&#45;&gt;Node18 -->
<g id="edge34" class="edge"><title>Node17&#45;&gt;Node18</title>
<path fill="none" stroke="midnightblue" d="M778.923,-116.628C779.094,-105.275 779.267,-93.7216 779.424,-83.3018"/>
<polygon fill="none" stroke="midnightblue" points="775.418,-116.908 778.768,-126.959 782.418,-117.013 775.418,-116.908"/>
</g>
</g>
</svg>
        <g id="navigator" transform="translate(0 0)" fill="#404254">
                <rect fill="#f2f5e9" fill-opacity="0.5" stroke="#606060" stroke-width=".5" x="0" y="0" width="60" height="60"/>
                <use id="zoomplus" xlink:href="#zoomPlus" x="17" y="9" onmousedown="handleZoom(evt,'in')"/>
                <use id="zoomminus" xlink:href="#zoomMin" x="42" y="9" onmousedown="handleZoom(evt,'out')"/>
                <use id="reset" xlink:href="#resetDef" x="30" y="36" onmousedown="handleReset()"/>
                <g id="arrowUp" xlink:href="#dirArrow" transform="translate(30 24)" onmousedown="handlePan(0,-1)">
                  <use xlink:href="#rim" fill="#404040">
                        <set attributeName="fill" to="#808080" begin="arrowUp.mouseover" end="arrowUp.mouseout"/>
                  </use>
                  <path fill="none" stroke="white" stroke-width="1.5" d="M0,-3.0v7 M-2.5,-0.5L0,-3.0L2.5,-0.5"/>
                </g>
                <g id="arrowRight" xlink:href="#dirArrow" transform="rotate(90) translate(36 -43)" onmousedown="handlePan(1,0)">
                  <use xlink:href="#rim" fill="#404040">
                        <set attributeName="fill" to="#808080" begin="arrowRight.mouseover" end="arrowRight.mouseout"/>
                  </use>
                  <path fill="none" stroke="white" stroke-width="1.5" d="M0,-3.0v7 M-2.5,-0.5L0,-3.0L2.5,-0.5"/>
                </g>
                <g id="arrowDown" xlink:href="#dirArrow" transform="rotate(180) translate(-30 -48)" onmousedown="handlePan(0,1)">
                  <use xlink:href="#rim" fill="#404040">
                        <set attributeName="fill" to="#808080" begin="arrowDown.mouseover" end="arrowDown.mouseout"/>
                  </use>
                  <path fill="none" stroke="white" stroke-width="1.5" d="M0,-3.0v7 M-2.5,-0.5L0,-3.0L2.5,-0.5"/>
                </g>
                <g id="arrowLeft" xlink:href="#dirArrow" transform="rotate(270) translate(-36 17)" onmousedown="handlePan(-1,0)">
                  <use xlink:href="#rim" fill="#404040">
                        <set attributeName="fill" to="#808080" begin="arrowLeft.mouseover" end="arrowLeft.mouseout"/>
                  </use>
                  <path fill="none" stroke="white" stroke-width="1.5" d="M0,-3.0v7 M-2.5,-0.5L0,-3.0L2.5,-0.5"/>
                </g>
        </g>
        <svg viewBox="0 0 15 15" width="100%" height="30px" preserveAspectRatio="xMaxYMin meet">
         <g id="arrow_out" transform="scale(0.3 0.3)">
          <a xlink:href="classharpoon_1_1hardware__component__inherit__graph_org.svg" target="_base">
           <rect id="button" ry="5" rx="5" y="6" x="6" height="38" width="38"
                fill="#f2f5e9" fill-opacity="0.5" stroke="#606060" stroke-width="1.0"/>
           <path id="arrow"
             d="M 11.500037,31.436501 C 11.940474,20.09759 22.043105,11.32322 32.158766,21.979434 L 37.068811,17.246167 C 37.068811,17.246167 37.088388,32 37.088388,32 L 22.160133,31.978069 C 22.160133,31.978069 26.997745,27.140456 26.997745,27.140456 C 18.528582,18.264221 13.291696,25.230495 11.500037,31.436501 z"
             style="fill:#404040;"/>
          </a>
         </g>
        </svg>
</svg>
