<?xml version="1.0" encoding="UTF-8" standalone="no"?>
<!DOCTYPE svg PUBLIC "-//W3C//DTD SVG 1.1//EN"
 "http://www.w3.org/Graphics/SVG/1.1/DTD/svg11.dtd">
<!-- Generated by graphviz version 2.26.3 (20100126.1600)
 -->
<!-- Title: harpoon::execution::exception::execution_exception Pages: 1 -->
<!--zoomable 634 -->
<svg id="main" version="1.1" xmlns="http://www.w3.org/2000/svg" xmlns:xlink="http://www.w3.org/1999/xlink" xml:space="preserve" onload="init(evt)">
<style type="text/css"><![CDATA[
.edge:hover path { stroke: red; }
.edge:hover polygon { stroke: red; fill: red; }
]]></style>
<script type="text/javascript"><![CDATA[
var edges = document.getElementsByTagName('g');
if (edges && edges.length) {
  for (var i=0;i<edges.length;i++) {
    if (edges[i].id.substr(0,4)=='edge') {
      edges[i].setAttribute('class','edge');
    }
  }
}
]]></script>
        <defs>
                <circle id="rim" cx="0" cy="0" r="7"/>
                <circle id="rim2" cx="0" cy="0" r="3.5"/>
                <g id="zoomPlus">
                        <use xlink:href="#rim" fill="#404040">
                                <set attributeName="fill" to="#808080" begin="zoomplus.mouseover" end="zoomplus.mouseout"/>
                        </use>
                        <path d="M-4,0h8M0,-4v8" fill="none" stroke="white" stroke-width="1.5" pointer-events="none"/>
                </g>
                <g id="zoomMin">
                        <use xlink:href="#rim" fill="#404040">
                                <set attributeName="fill" to="#808080" begin="zoomminus.mouseover" end="zoomminus.mouseout"/>
                        </use>
                        <path d="M-4,0h8" fill="none" stroke="white" stroke-width="1.5" pointer-events="none"/>
                </g>
                <g id="dirArrow">
                        <path fill="none" stroke="white" stroke-width="1.5" d="M0,-3.0v7 M-2.5,-0.5L0,-3.0L2.5,-0.5"/>
                </g>
               <g id="resetDef">
                       <use xlink:href="#rim2" fill="#404040">
                               <set attributeName="fill" to="#808080" begin="reset.mouseover" end="reset.mouseout"/>
                       </use>
               </g>
        </defs>

<script type="text/javascript">
var viewWidth = 134;
var viewHeight = 634;
var sectionId = 'dynsection-1';
</script>
<script xlink:href="../../svgpan.js"/>
<svg id="graph" class="graph">
<g id="viewport">
<title>harpoon::execution::exception::execution_exception</title>
<polygon fill="white" stroke="white" points="-4,5 -4,-630 131,-630 131,5 -4,5"/>
<!-- Node1 -->
<g id="node1" class="node"><title>Node1</title>
<polygon fill="#bfbfbf" stroke="black" points="-0.5,-0.5 -0.5,-115.5 126.5,-115.5 126.5,-0.5 -0.5,-0.5"/>
<text text-anchor="start" x="7.5" y="-102.5" font-family="Helvetica,sans-Serif" font-size="10.00">harpoon::execution</text>
<text text-anchor="start" x="7.5" y="-89.5" font-family="Helvetica,sans-Serif" font-size="10.00">::exception::execution</text>
<text text-anchor="middle" x="63" y="-76.5" font-family="Helvetica,sans-Serif" font-size="10.00">_exception</text>
<polyline fill="none" stroke="black" points="-0.5,-68.5 126.5,-68.5 "/>
<text text-anchor="middle" x="63" y="-55.5" font-family="Helvetica,sans-Serif" font-size="10.00"> </text>
<polyline fill="none" stroke="black" points="-0.5,-47.5 126.5,-47.5 "/>
<text text-anchor="start" x="7.5" y="-34.5" font-family="Helvetica,sans-Serif" font-size="10.00">+ execution_exception()</text>
<text text-anchor="start" x="7.5" y="-21.5" font-family="Helvetica,sans-Serif" font-size="10.00">+ operator=()</text>
<text text-anchor="start" x="7.5" y="-8.5" font-family="Helvetica,sans-Serif" font-size="10.00">+ ~execution_exception()</text>
</g>
<!-- Node2 -->
<g id="node2" class="node"><title>Node2</title>
<a xlink:href="../../d7/df5/classharpoon_1_1exception_1_1hardware__component__exception.html" target="_top" xlink:title="{harpoon::exception\l::hardware_component\l_exception\n||+ hardware_component\l_exception()\l+ hardware_component\l_exception()\l+ operator=()\l+ get_component()\l+ ~hardware_component\l_exception()\l}">
<polygon fill="white" stroke="black" points="0.5,-153 0.5,-333 125.5,-333 125.5,-153 0.5,-153"/>
<text text-anchor="start" x="8.5" y="-320" font-family="Helvetica,sans-Serif" font-size="10.00">harpoon::exception</text>
<text text-anchor="start" x="8.5" y="-307" font-family="Helvetica,sans-Serif" font-size="10.00">::hardware_component</text>
<text text-anchor="middle" x="63" y="-294" font-family="Helvetica,sans-Serif" font-size="10.00">_exception</text>
<polyline fill="none" stroke="black" points="0.5,-286 125.5,-286 "/>
<text text-anchor="middle" x="63" y="-273" font-family="Helvetica,sans-Serif" font-size="10.00"> </text>
<polyline fill="none" stroke="black" points="0.5,-265 125.5,-265 "/>
<text text-anchor="start" x="8.5" y="-252" font-family="Helvetica,sans-Serif" font-size="10.00">+ hardware_component</text>
<text text-anchor="start" x="8.5" y="-239" font-family="Helvetica,sans-Serif" font-size="10.00">_exception()</text>
<text text-anchor="start" x="8.5" y="-226" font-family="Helvetica,sans-Serif" font-size="10.00">+ hardware_component</text>
<text text-anchor="start" x="8.5" y="-213" font-family="Helvetica,sans-Serif" font-size="10.00">_exception()</text>
<text text-anchor="start" x="8.5" y="-200" font-family="Helvetica,sans-Serif" font-size="10.00">+ operator=()</text>
<text text-anchor="start" x="8.5" y="-187" font-family="Helvetica,sans-Serif" font-size="10.00">+ get_component()</text>
<text text-anchor="start" x="8.5" y="-174" font-family="Helvetica,sans-Serif" font-size="10.00">+ ~hardware_component</text>
<text text-anchor="start" x="8.5" y="-161" font-family="Helvetica,sans-Serif" font-size="10.00">_exception()</text>
</a>
</g>
<!-- Node2&#45;&gt;Node1 -->
<g id="edge2" class="edge"><title>Node2&#45;&gt;Node1</title>
<path fill="none" stroke="midnightblue" d="M63,-142.838C63,-133.551 63,-124.368 63,-115.666"/>
<polygon fill="none" stroke="midnightblue" points="59.5001,-142.939 63,-152.939 66.5001,-142.939 59.5001,-142.939"/>
</g>
<!-- Node3 -->
<g id="node4" class="node"><title>Node3</title>
<a xlink:href="../../d0/d5b/classharpoon_1_1exception_1_1harpoon__exception.html" target="_top" xlink:title="{harpoon::exception\l::harpoon_exception\n||+ harpoon_exception()\l+ harpoon_exception()\l+ operator=()\l+ set_what()\l+ get_what()\l+ what()\l+ ~harpoon_exception()\l}">
<polygon fill="white" stroke="black" points="3.5,-371 3.5,-525 122.5,-525 122.5,-371 3.5,-371"/>
<text text-anchor="start" x="11.5" y="-512" font-family="Helvetica,sans-Serif" font-size="10.00">harpoon::exception</text>
<text text-anchor="middle" x="63" y="-499" font-family="Helvetica,sans-Serif" font-size="10.00">::harpoon_exception</text>
<polyline fill="none" stroke="black" points="3.5,-491 122.5,-491 "/>
<text text-anchor="middle" x="63" y="-478" font-family="Helvetica,sans-Serif" font-size="10.00"> </text>
<polyline fill="none" stroke="black" points="3.5,-470 122.5,-470 "/>
<text text-anchor="start" x="11.5" y="-457" font-family="Helvetica,sans-Serif" font-size="10.00">+ harpoon_exception()</text>
<text text-anchor="start" x="11.5" y="-444" font-family="Helvetica,sans-Serif" font-size="10.00">+ harpoon_exception()</text>
<text text-anchor="start" x="11.5" y="-431" font-family="Helvetica,sans-Serif" font-size="10.00">+ operator=()</text>
<text text-anchor="start" x="11.5" y="-418" font-family="Helvetica,sans-Serif" font-size="10.00">+ set_what()</text>
<text text-anchor="start" x="11.5" y="-405" font-family="Helvetica,sans-Serif" font-size="10.00">+ get_what()</text>
<text text-anchor="start" x="11.5" y="-392" font-family="Helvetica,sans-Serif" font-size="10.00">+ what()</text>
<text text-anchor="start" x="11.5" y="-379" font-family="Helvetica,sans-Serif" font-size="10.00">+ ~harpoon_exception()</text>
</a>
</g>
<!-- Node3&#45;&gt;Node2 -->
<g id="edge4" class="edge"><title>Node3&#45;&gt;Node2</title>
<path fill="none" stroke="midnightblue" d="M63,-360.635C63,-351.566 63,-342.335 63,-333.235"/>
<polygon fill="none" stroke="midnightblue" points="59.5001,-360.79 63,-370.79 66.5001,-360.79 59.5001,-360.79"/>
</g>
<!-- Node4 -->
<g id="node6" class="node"><title>Node4</title>
<polygon fill="white" stroke="#bfbfbf" points="16.5,-562.5 16.5,-625.5 109.5,-625.5 109.5,-562.5 16.5,-562.5"/>
<text text-anchor="middle" x="63" y="-612.5" font-family="Helvetica,sans-Serif" font-size="10.00">std::runtime_error</text>
<polyline fill="none" stroke="#bfbfbf" points="16.5,-604.5 109.5,-604.5 "/>
<text text-anchor="middle" x="63" y="-591.5" font-family="Helvetica,sans-Serif" font-size="10.00"> </text>
<polyline fill="none" stroke="#bfbfbf" points="16.5,-583.5 109.5,-583.5 "/>
<text text-anchor="middle" x="63" y="-570.5" font-family="Helvetica,sans-Serif" font-size="10.00"> </text>
</g>
<!-- Node4&#45;&gt;Node3 -->
<g id="edge6" class="edge"><title>Node4&#45;&gt;Node3</title>
<path fill="none" stroke="midnightblue" d="M63,-552.288C63,-543.742 63,-534.491 63,-525.148"/>
<polygon fill="none" stroke="midnightblue" points="59.5001,-552.32 63,-562.32 66.5001,-552.32 59.5001,-552.32"/>
</g>
</g>
</svg>
        <g id="navigator" transform="translate(0 0)" fill="#404254">
                <rect fill="#f2f5e9" fill-opacity="0.5" stroke="#606060" stroke-width=".5" x="0" y="0" width="60" height="60"/>
                <use id="zoomplus" xlink:href="#zoomPlus" x="17" y="9" onmousedown="handleZoom(evt,'in')"/>
                <use id="zoomminus" xlink:href="#zoomMin" x="42" y="9" onmousedown="handleZoom(evt,'out')"/>
                <use id="reset" xlink:href="#resetDef" x="30" y="36" onmousedown="handleReset()"/>
                <g id="arrowUp" xlink:href="#dirArrow" transform="translate(30 24)" onmousedown="handlePan(0,-1)">
                  <use xlink:href="#rim" fill="#404040">
                        <set attributeName="fill" to="#808080" begin="arrowUp.mouseover" end="arrowUp.mouseout"/>
                  </use>
                  <path fill="none" stroke="white" stroke-width="1.5" d="M0,-3.0v7 M-2.5,-0.5L0,-3.0L2.5,-0.5"/>
                </g>
                <g id="arrowRight" xlink:href="#dirArrow" transform="rotate(90) translate(36 -43)" onmousedown="handlePan(1,0)">
                  <use xlink:href="#rim" fill="#404040">
                        <set attributeName="fill" to="#808080" begin="arrowRight.mouseover" end="arrowRight.mouseout"/>
                  </use>
                  <path fill="none" stroke="white" stroke-width="1.5" d="M0,-3.0v7 M-2.5,-0.5L0,-3.0L2.5,-0.5"/>
                </g>
                <g id="arrowDown" xlink:href="#dirArrow" transform="rotate(180) translate(-30 -48)" onmousedown="handlePan(0,1)">
                  <use xlink:href="#rim" fill="#404040">
                        <set attributeName="fill" to="#808080" begin="arrowDown.mouseover" end="arrowDown.mouseout"/>
                  </use>
                  <path fill="none" stroke="white" stroke-width="1.5" d="M0,-3.0v7 M-2.5,-0.5L0,-3.0L2.5,-0.5"/>
                </g>
                <g id="arrowLeft" xlink:href="#dirArrow" transform="rotate(270) translate(-36 17)" onmousedown="handlePan(-1,0)">
                  <use xlink:href="#rim" fill="#404040">
                        <set attributeName="fill" to="#808080" begin="arrowLeft.mouseover" end="arrowLeft.mouseout"/>
                  </use>
                  <path fill="none" stroke="white" stroke-width="1.5" d="M0,-3.0v7 M-2.5,-0.5L0,-3.0L2.5,-0.5"/>
                </g>
        </g>
        <svg viewBox="0 0 15 15" width="100%" height="30px" preserveAspectRatio="xMaxYMin meet">
         <g id="arrow_out" transform="scale(0.3 0.3)">
          <a xlink:href="classharpoon_1_1execution_1_1exception_1_1execution__exception__coll__graph_org.svg" target="_base">
           <rect id="button" ry="5" rx="5" y="6" x="6" height="38" width="38"
                fill="#f2f5e9" fill-opacity="0.5" stroke="#606060" stroke-width="1.0"/>
           <path id="arrow"
             d="M 11.500037,31.436501 C 11.940474,20.09759 22.043105,11.32322 32.158766,21.979434 L 37.068811,17.246167 C 37.068811,17.246167 37.088388,32 37.088388,32 L 22.160133,31.978069 C 22.160133,31.978069 26.997745,27.140456 26.997745,27.140456 C 18.528582,18.264221 13.291696,25.230495 11.500037,31.436501 z"
             style="fill:#404040;"/>
          </a>
         </g>
        </svg>
</svg>
