<?xml version="1.0" encoding="UTF-8" standalone="no"?>
<!DOCTYPE svg PUBLIC "-//W3C//DTD SVG 1.1//EN"
 "http://www.w3.org/Graphics/SVG/1.1/DTD/svg11.dtd">
<!-- Generated by graphviz version 2.26.3 (20100126.1600)
 -->
<!-- Title: harpoon/execution/instruction_decoder.hh Pages: 1 -->
<svg width="372pt" height="232pt"
 viewBox="0.00 0.00 372.00 232.00" xmlns="http://www.w3.org/2000/svg" xmlns:xlink="http://www.w3.org/1999/xlink">
<g id="graph1" class="graph" transform="scale(1 1) rotate(0) translate(4 228)">
<title>harpoon/execution/instruction_decoder.hh</title>
<polygon fill="white" stroke="white" points="-4,5 -4,-228 369,-228 369,5 -4,5"/>
<!-- Node1 -->
<g id="node1" class="node"><title>Node1</title>
<polygon fill="#bfbfbf" stroke="black" points="44,-189 44,-223 188,-223 188,-189 44,-189"/>
<text text-anchor="start" x="52" y="-210" font-family="Helvetica,sans-Serif" font-size="10.00">harpoon/execution/instruction</text>
<text text-anchor="middle" x="116" y="-197" font-family="Helvetica,sans-Serif" font-size="10.00">_decoder.hh</text>
</g>
<!-- Node2 -->
<g id="node3" class="node"><title>Node2</title>
<a xlink:href="../../d5/d08/harpoon_8hh.html" target="_top" xlink:title="Harpoon library common header file. ">
<polygon fill="white" stroke="black" points="65,-58.5 65,-79.5 167,-79.5 167,-58.5 65,-58.5"/>
<text text-anchor="middle" x="116" y="-66.5" font-family="Helvetica,sans-Serif" font-size="10.00">harpoon/harpoon.hh</text>
</a>
</g>
<!-- Node1&#45;&gt;Node2 -->
<g id="edge2" class="edge"><title>Node1&#45;&gt;Node2</title>
<path fill="none" stroke="midnightblue" d="M74.7211,-188.86C59.3749,-180.219 43.6129,-168.093 35,-152 27.4503,-137.893 27.015,-129.865 35,-116 43.2534,-101.669 57.7361,-91.3061 72.1948,-84.0207"/>
<polygon fill="midnightblue" stroke="midnightblue" points="74.0146,-87.0356 81.6271,-79.6667 71.0808,-80.6801 74.0146,-87.0356"/>
</g>
<!-- Node7 -->
<g id="node13" class="node"><title>Node7</title>
<a xlink:href="../../d4/d15/instruction_8hh.html" target="_top" xlink:title="harpoon/execution/instruction.hh">
<polygon fill="white" stroke="black" points="206,-123.5 206,-144.5 364,-144.5 364,-123.5 206,-123.5"/>
<text text-anchor="middle" x="285" y="-131.5" font-family="Helvetica,sans-Serif" font-size="10.00">harpoon/execution/instruction.hh</text>
</a>
</g>
<!-- Node1&#45;&gt;Node7 -->
<g id="edge12" class="edge"><title>Node1&#45;&gt;Node7</title>
<path fill="none" stroke="midnightblue" d="M156.051,-188.937C184.738,-176.715 222.982,-160.422 250.357,-148.759"/>
<polygon fill="midnightblue" stroke="midnightblue" points="252.085,-151.828 259.913,-144.688 249.341,-145.388 252.085,-151.828"/>
</g>
<!-- Node9 -->
<g id="node18" class="node"><title>Node9</title>
<a xlink:href="../../da/d16/instruction__invoker_8hh.html" target="_top" xlink:title="harpoon/execution/instruction\l_invoker.hh">
<polygon fill="white" stroke="black" points="44,-117 44,-151 188,-151 188,-117 44,-117"/>
<text text-anchor="start" x="52" y="-138" font-family="Helvetica,sans-Serif" font-size="10.00">harpoon/execution/instruction</text>
<text text-anchor="middle" x="116" y="-125" font-family="Helvetica,sans-Serif" font-size="10.00">_invoker.hh</text>
</a>
</g>
<!-- Node1&#45;&gt;Node9 -->
<g id="edge18" class="edge"><title>Node1&#45;&gt;Node9</title>
<path fill="none" stroke="midnightblue" d="M116,-188.937C116,-180.807 116,-170.876 116,-161.705"/>
<polygon fill="midnightblue" stroke="midnightblue" points="119.5,-161.441 116,-151.441 112.5,-161.441 119.5,-161.441"/>
</g>
<!-- Node3 -->
<g id="node5" class="node"><title>Node3</title>
<polygon fill="white" stroke="#bfbfbf" points="-0.5,-0.5 -0.5,-21.5 40.5,-21.5 40.5,-0.5 -0.5,-0.5"/>
<text text-anchor="middle" x="20" y="-8.5" font-family="Helvetica,sans-Serif" font-size="10.00">string</text>
</g>
<!-- Node2&#45;&gt;Node3 -->
<g id="edge4" class="edge"><title>Node2&#45;&gt;Node3</title>
<path fill="none" stroke="midnightblue" d="M98.3921,-58.3619C83.7771,-49.532 62.7762,-36.844 46.1888,-26.8224"/>
<polygon fill="midnightblue" stroke="midnightblue" points="47.8653,-23.7461 37.4963,-21.5707 44.2455,-29.7376 47.8653,-23.7461"/>
</g>
<!-- Node4 -->
<g id="node7" class="node"><title>Node4</title>
<polygon fill="white" stroke="#bfbfbf" points="58,-0.5 58,-21.5 110,-21.5 110,-0.5 58,-0.5"/>
<text text-anchor="middle" x="84" y="-8.5" font-family="Helvetica,sans-Serif" font-size="10.00">memory</text>
</g>
<!-- Node2&#45;&gt;Node4 -->
<g id="edge6" class="edge"><title>Node2&#45;&gt;Node4</title>
<path fill="none" stroke="midnightblue" d="M110.131,-58.3619C105.845,-50.5949 99.9131,-39.8426 94.7839,-30.5458"/>
<polygon fill="midnightblue" stroke="midnightblue" points="97.7274,-28.6357 89.8321,-21.5707 91.5984,-32.0172 97.7274,-28.6357"/>
</g>
<!-- Node5 -->
<g id="node9" class="node"><title>Node5</title>
<polygon fill="white" stroke="#bfbfbf" points="128,-0.5 128,-21.5 168,-21.5 168,-0.5 128,-0.5"/>
<text text-anchor="middle" x="148" y="-8.5" font-family="Helvetica,sans-Serif" font-size="10.00">utility</text>
</g>
<!-- Node2&#45;&gt;Node5 -->
<g id="edge8" class="edge"><title>Node2&#45;&gt;Node5</title>
<path fill="none" stroke="midnightblue" d="M121.869,-58.3619C126.155,-50.5949 132.087,-39.8426 137.216,-30.5458"/>
<polygon fill="midnightblue" stroke="midnightblue" points="140.402,-32.0172 142.168,-21.5707 134.273,-28.6357 140.402,-32.0172"/>
</g>
<!-- Node6 -->
<g id="node11" class="node"><title>Node6</title>
<polygon fill="white" stroke="#bfbfbf" points="186,-0.5 186,-21.5 232,-21.5 232,-0.5 186,-0.5"/>
<text text-anchor="middle" x="209" y="-8.5" font-family="Helvetica,sans-Serif" font-size="10.00">cstdint</text>
</g>
<!-- Node2&#45;&gt;Node6 -->
<g id="edge10" class="edge"><title>Node2&#45;&gt;Node6</title>
<path fill="none" stroke="midnightblue" d="M133.058,-58.3619C147.085,-49.6138 167.184,-37.0786 183.182,-27.1015"/>
<polygon fill="midnightblue" stroke="midnightblue" points="185.418,-29.8323 192.051,-21.5707 181.713,-23.8927 185.418,-29.8323"/>
</g>
<!-- Node7&#45;&gt;Node2 -->
<g id="edge14" class="edge"><title>Node7&#45;&gt;Node2</title>
<path fill="none" stroke="midnightblue" d="M257.471,-123.412C229.114,-112.505 184.733,-95.4357 153.249,-83.3266"/>
<polygon fill="midnightblue" stroke="midnightblue" points="154.107,-79.9066 143.517,-79.5835 151.594,-86.4401 154.107,-79.9066"/>
</g>
<!-- Node8 -->
<g id="node16" class="node"><title>Node8</title>
<polygon fill="white" stroke="#bfbfbf" points="255.5,-58.5 255.5,-79.5 314.5,-79.5 314.5,-58.5 255.5,-58.5"/>
<text text-anchor="middle" x="285" y="-66.5" font-family="Helvetica,sans-Serif" font-size="10.00">functional</text>
</g>
<!-- Node7&#45;&gt;Node8 -->
<g id="edge16" class="edge"><title>Node7&#45;&gt;Node8</title>
<path fill="none" stroke="midnightblue" d="M285,-123.267C285,-114.18 285,-100.892 285,-89.7395"/>
<polygon fill="midnightblue" stroke="midnightblue" points="288.5,-89.5337 285,-79.5337 281.5,-89.5337 288.5,-89.5337"/>
</g>
<!-- Node9&#45;&gt;Node2 -->
<g id="edge20" class="edge"><title>Node9&#45;&gt;Node2</title>
<path fill="none" stroke="midnightblue" d="M116,-116.922C116,-108.67 116,-98.6922 116,-89.9818"/>
<polygon fill="midnightblue" stroke="midnightblue" points="119.5,-89.8521 116,-79.8521 112.5,-89.8521 119.5,-89.8521"/>
</g>
</g>
</svg>
