<?xml version="1.0" encoding="UTF-8" standalone="no"?>
<!DOCTYPE svg PUBLIC "-//W3C//DTD SVG 1.1//EN"
 "http://www.w3.org/Graphics/SVG/1.1/DTD/svg11.dtd">
<!-- Generated by graphviz version 2.26.3 (20100126.1600)
 -->
<!-- Title: harpoon/execution/instruction_decoder.hh Pages: 1 -->
<svg width="507pt" height="232pt"
 viewBox="0.00 0.00 506.89 232.00" xmlns="http://www.w3.org/2000/svg" xmlns:xlink="http://www.w3.org/1999/xlink">
<g id="graph1" class="graph" transform="scale(1 1) rotate(0) translate(4 228)">
<title>harpoon/execution/instruction_decoder.hh</title>
<polygon fill="white" stroke="white" points="-4,5 -4,-228 503.892,-228 503.892,5 -4,5"/>
<!-- Node1 -->
<g id="node1" class="node"><title>Node1</title>
<polygon fill="#bfbfbf" stroke="black" points="97.8919,-189 97.8919,-223 241.892,-223 241.892,-189 97.8919,-189"/>
<text text-anchor="start" x="105.892" y="-210" font-family="Helvetica,sans-Serif" font-size="10.00">harpoon/execution/instruction</text>
<text text-anchor="middle" x="169.892" y="-197" font-family="Helvetica,sans-Serif" font-size="10.00">_decoder.hh</text>
</g>
<!-- Node2 -->
<g id="node3" class="node"><title>Node2</title>
<a xlink:href="../../d5/d08/harpoon_8hh.html" target="_top" xlink:title="Harpoon library common header file. ">
<polygon fill="white" stroke="black" points="118.892,-58.5 118.892,-79.5 220.892,-79.5 220.892,-58.5 118.892,-58.5"/>
<text text-anchor="middle" x="169.892" y="-66.5" font-family="Helvetica,sans-Serif" font-size="10.00">harpoon/harpoon.hh</text>
</a>
</g>
<!-- Node1&#45;&gt;Node2 -->
<g id="edge2" class="edge"><title>Node1&#45;&gt;Node2</title>
<path fill="none" stroke="midnightblue" d="M97.6888,-193.065C41.76,-179.74 -21.6233,-155.295 7.89194,-116 20.3215,-99.4517 68.4112,-86.8492 108.994,-78.88"/>
<polygon fill="midnightblue" stroke="midnightblue" points="109.685,-82.3113 118.855,-77.0036 108.377,-75.4347 109.685,-82.3113"/>
</g>
<!-- Node7 -->
<g id="node13" class="node"><title>Node7</title>
<a xlink:href="../../d4/d15/instruction_8hh.html" target="_top" xlink:title="harpoon/execution/instruction.hh">
<polygon fill="white" stroke="black" points="340.892,-123.5 340.892,-144.5 498.892,-144.5 498.892,-123.5 340.892,-123.5"/>
<text text-anchor="middle" x="419.892" y="-131.5" font-family="Helvetica,sans-Serif" font-size="10.00">harpoon/execution/instruction.hh</text>
</a>
</g>
<!-- Node1&#45;&gt;Node7 -->
<g id="edge12" class="edge"><title>Node1&#45;&gt;Node7</title>
<path fill="none" stroke="midnightblue" d="M229.138,-188.937C273.291,-176.221 332.746,-159.098 373.475,-147.368"/>
<polygon fill="midnightblue" stroke="midnightblue" points="374.508,-150.713 383.148,-144.582 372.57,-143.986 374.508,-150.713"/>
</g>
<!-- Node9 -->
<g id="node18" class="node"><title>Node9</title>
<a xlink:href="../../da/d16/instruction__invoker_8hh.html" target="_top" xlink:title="harpoon/execution/instruction\l_invoker.hh">
<polygon fill="white" stroke="black" points="16.8919,-117 16.8919,-151 160.892,-151 160.892,-117 16.8919,-117"/>
<text text-anchor="start" x="24.8919" y="-138" font-family="Helvetica,sans-Serif" font-size="10.00">harpoon/execution/instruction</text>
<text text-anchor="middle" x="88.8919" y="-125" font-family="Helvetica,sans-Serif" font-size="10.00">_invoker.hh</text>
</a>
</g>
<!-- Node1&#45;&gt;Node9 -->
<g id="edge18" class="edge"><title>Node1&#45;&gt;Node9</title>
<path fill="none" stroke="midnightblue" d="M150.696,-188.937C140.281,-179.679 127.238,-168.086 115.822,-157.938"/>
<polygon fill="midnightblue" stroke="midnightblue" points="118.03,-155.218 108.231,-151.19 113.38,-160.45 118.03,-155.218"/>
</g>
<!-- Node10 -->
<g id="node21" class="node"><title>Node10</title>
<a xlink:href="../../d9/dbf/instruction__disassembler_8hh.html" target="_top" xlink:title="harpoon/execution/instruction\l_disassembler.hh">
<polygon fill="white" stroke="black" points="178.892,-117 178.892,-151 322.892,-151 322.892,-117 178.892,-117"/>
<text text-anchor="start" x="186.892" y="-138" font-family="Helvetica,sans-Serif" font-size="10.00">harpoon/execution/instruction</text>
<text text-anchor="middle" x="250.892" y="-125" font-family="Helvetica,sans-Serif" font-size="10.00">_disassembler.hh</text>
</a>
</g>
<!-- Node1&#45;&gt;Node10 -->
<g id="edge22" class="edge"><title>Node1&#45;&gt;Node10</title>
<path fill="none" stroke="midnightblue" d="M189.088,-188.937C199.503,-179.679 212.546,-168.086 223.962,-157.938"/>
<polygon fill="midnightblue" stroke="midnightblue" points="226.404,-160.45 231.553,-151.19 221.754,-155.218 226.404,-160.45"/>
</g>
<!-- Node3 -->
<g id="node5" class="node"><title>Node3</title>
<polygon fill="white" stroke="#bfbfbf" points="53.3919,-0.5 53.3919,-21.5 94.3919,-21.5 94.3919,-0.5 53.3919,-0.5"/>
<text text-anchor="middle" x="73.8919" y="-8.5" font-family="Helvetica,sans-Serif" font-size="10.00">string</text>
</g>
<!-- Node2&#45;&gt;Node3 -->
<g id="edge4" class="edge"><title>Node2&#45;&gt;Node3</title>
<path fill="none" stroke="midnightblue" d="M152.284,-58.3619C137.669,-49.532 116.668,-36.844 100.081,-26.8224"/>
<polygon fill="midnightblue" stroke="midnightblue" points="101.757,-23.7461 91.3882,-21.5707 98.1374,-29.7376 101.757,-23.7461"/>
</g>
<!-- Node4 -->
<g id="node7" class="node"><title>Node4</title>
<polygon fill="white" stroke="#bfbfbf" points="111.892,-0.5 111.892,-21.5 163.892,-21.5 163.892,-0.5 111.892,-0.5"/>
<text text-anchor="middle" x="137.892" y="-8.5" font-family="Helvetica,sans-Serif" font-size="10.00">memory</text>
</g>
<!-- Node2&#45;&gt;Node4 -->
<g id="edge6" class="edge"><title>Node2&#45;&gt;Node4</title>
<path fill="none" stroke="midnightblue" d="M164.023,-58.3619C159.737,-50.5949 153.805,-39.8426 148.676,-30.5458"/>
<polygon fill="midnightblue" stroke="midnightblue" points="151.619,-28.6357 143.724,-21.5707 145.49,-32.0172 151.619,-28.6357"/>
</g>
<!-- Node5 -->
<g id="node9" class="node"><title>Node5</title>
<polygon fill="white" stroke="#bfbfbf" points="181.892,-0.5 181.892,-21.5 221.892,-21.5 221.892,-0.5 181.892,-0.5"/>
<text text-anchor="middle" x="201.892" y="-8.5" font-family="Helvetica,sans-Serif" font-size="10.00">utility</text>
</g>
<!-- Node2&#45;&gt;Node5 -->
<g id="edge8" class="edge"><title>Node2&#45;&gt;Node5</title>
<path fill="none" stroke="midnightblue" d="M175.761,-58.3619C180.046,-50.5949 185.979,-39.8426 191.108,-30.5458"/>
<polygon fill="midnightblue" stroke="midnightblue" points="194.294,-32.0172 196.06,-21.5707 188.165,-28.6357 194.294,-32.0172"/>
</g>
<!-- Node6 -->
<g id="node11" class="node"><title>Node6</title>
<polygon fill="white" stroke="#bfbfbf" points="239.892,-0.5 239.892,-21.5 285.892,-21.5 285.892,-0.5 239.892,-0.5"/>
<text text-anchor="middle" x="262.892" y="-8.5" font-family="Helvetica,sans-Serif" font-size="10.00">cstdint</text>
</g>
<!-- Node2&#45;&gt;Node6 -->
<g id="edge10" class="edge"><title>Node2&#45;&gt;Node6</title>
<path fill="none" stroke="midnightblue" d="M186.95,-58.3619C200.977,-49.6138 221.076,-37.0786 237.074,-27.1015"/>
<polygon fill="midnightblue" stroke="midnightblue" points="239.309,-29.8323 245.942,-21.5707 235.605,-23.8927 239.309,-29.8323"/>
</g>
<!-- Node7&#45;&gt;Node2 -->
<g id="edge14" class="edge"><title>Node7&#45;&gt;Node2</title>
<path fill="none" stroke="midnightblue" d="M379.447,-123.484C336.059,-112.204 267.085,-94.2702 220.219,-82.085"/>
<polygon fill="midnightblue" stroke="midnightblue" points="220.837,-78.6295 210.278,-79.5005 219.076,-85.4043 220.837,-78.6295"/>
</g>
<!-- Node8 -->
<g id="node16" class="node"><title>Node8</title>
<polygon fill="white" stroke="#bfbfbf" points="390.392,-58.5 390.392,-79.5 449.392,-79.5 449.392,-58.5 390.392,-58.5"/>
<text text-anchor="middle" x="419.892" y="-66.5" font-family="Helvetica,sans-Serif" font-size="10.00">functional</text>
</g>
<!-- Node7&#45;&gt;Node8 -->
<g id="edge16" class="edge"><title>Node7&#45;&gt;Node8</title>
<path fill="none" stroke="midnightblue" d="M419.892,-123.267C419.892,-114.18 419.892,-100.892 419.892,-89.7395"/>
<polygon fill="midnightblue" stroke="midnightblue" points="423.392,-89.5337 419.892,-79.5337 416.392,-89.5337 423.392,-89.5337"/>
</g>
<!-- Node9&#45;&gt;Node2 -->
<g id="edge20" class="edge"><title>Node9&#45;&gt;Node2</title>
<path fill="none" stroke="midnightblue" d="M110.174,-116.922C121.942,-107.479 136.528,-95.7736 148.339,-86.2957"/>
<polygon fill="midnightblue" stroke="midnightblue" points="150.76,-88.8406 156.369,-79.8521 146.379,-83.3811 150.76,-88.8406"/>
</g>
<!-- Node10&#45;&gt;Node2 -->
<g id="edge24" class="edge"><title>Node10&#45;&gt;Node2</title>
<path fill="none" stroke="midnightblue" d="M229.61,-116.922C217.842,-107.479 203.256,-95.7736 191.445,-86.2957"/>
<polygon fill="midnightblue" stroke="midnightblue" points="193.405,-83.3811 183.415,-79.8521 189.024,-88.8406 193.405,-83.3811"/>
</g>
</g>
</svg>
