<?xml version="1.0" encoding="UTF-8" standalone="no"?>
<!DOCTYPE svg PUBLIC "-//W3C//DTD SVG 1.1//EN"
 "http://www.w3.org/Graphics/SVG/1.1/DTD/svg11.dtd">
<!-- Generated by graphviz version 2.26.3 (20100126.1600)
 -->
<!-- Title: harpoon/memory/linear_read_only_memory.hh Pages: 1 -->
<!--zoomable 592 -->
<svg id="main" version="1.1" xmlns="http://www.w3.org/2000/svg" xmlns:xlink="http://www.w3.org/1999/xlink" xml:space="preserve" onload="init(evt)">
<style type="text/css"><![CDATA[
.edge:hover path { stroke: red; }
.edge:hover polygon { stroke: red; fill: red; }
]]></style>
<script type="text/javascript"><![CDATA[
var edges = document.getElementsByTagName('g');
if (edges && edges.length) {
  for (var i=0;i<edges.length;i++) {
    if (edges[i].id.substr(0,4)=='edge') {
      edges[i].setAttribute('class','edge');
    }
  }
}
]]></script>
        <defs>
                <circle id="rim" cx="0" cy="0" r="7"/>
                <circle id="rim2" cx="0" cy="0" r="3.5"/>
                <g id="zoomPlus">
                        <use xlink:href="#rim" fill="#404040">
                                <set attributeName="fill" to="#808080" begin="zoomplus.mouseover" end="zoomplus.mouseout"/>
                        </use>
                        <path d="M-4,0h8M0,-4v8" fill="none" stroke="white" stroke-width="1.5" pointer-events="none"/>
                </g>
                <g id="zoomMin">
                        <use xlink:href="#rim" fill="#404040">
                                <set attributeName="fill" to="#808080" begin="zoomminus.mouseover" end="zoomminus.mouseout"/>
                        </use>
                        <path d="M-4,0h8" fill="none" stroke="white" stroke-width="1.5" pointer-events="none"/>
                </g>
                <g id="dirArrow">
                        <path fill="none" stroke="white" stroke-width="1.5" d="M0,-3.0v7 M-2.5,-0.5L0,-3.0L2.5,-0.5"/>
                </g>
               <g id="resetDef">
                       <use xlink:href="#rim2" fill="#404040">
                               <set attributeName="fill" to="#808080" begin="reset.mouseover" end="reset.mouseout"/>
                       </use>
               </g>
        </defs>

<script type="text/javascript">
var viewWidth = 1063;
var viewHeight = 592;
var sectionId = 'dynsection-0';
</script>
<script xlink:href="../../svgpan.js"/>
<svg id="graph" class="graph">
<g id="viewport">
<title>harpoon/memory/linear_read_only_memory.hh</title>
<polygon fill="white" stroke="white" points="-4,5 -4,-588 1059.84,-588 1059.84,5 -4,5"/>
<!-- Node1 -->
<g id="node1" class="node"><title>Node1</title>
<polygon fill="#bfbfbf" stroke="black" points="573,-549 573,-583 691,-583 691,-549 573,-549"/>
<text text-anchor="start" x="581" y="-570" font-family="Helvetica,sans-Serif" font-size="10.00">harpoon/memory/linear</text>
<text text-anchor="middle" x="632" y="-557" font-family="Helvetica,sans-Serif" font-size="10.00">_read_only_memory.hh</text>
</g>
<!-- Node2 -->
<g id="node3" class="node"><title>Node2</title>
<a xlink:href="../../d5/d08/harpoon_8hh.html" target="_top" xlink:title="Harpoon library common header file. ">
<polygon fill="white" stroke="black" points="535,-58.5 535,-79.5 637,-79.5 637,-58.5 535,-58.5"/>
<text text-anchor="middle" x="586" y="-66.5" font-family="Helvetica,sans-Serif" font-size="10.00">harpoon/harpoon.hh</text>
</a>
</g>
<!-- Node1&#45;&gt;Node2 -->
<g id="edge2" class="edge"><title>Node1&#45;&gt;Node2</title>
<path fill="none" stroke="midnightblue" d="M691.285,-558.299C807.058,-541.594 1052,-497.349 1052,-422 1052,-422 1052,-422 1052,-206 1052,-165.118 1063.36,-143.377 1033,-116 1004.91,-90.6697 762.938,-76.7477 647.193,-71.4837"/>
<polygon fill="midnightblue" stroke="midnightblue" points="647.214,-67.9813 637.068,-71.0307 646.901,-74.9743 647.214,-67.9813"/>
</g>
<!-- Node7 -->
<g id="node13" class="node"><title>Node7</title>
<a xlink:href="../../d1/d70/linear__memory_8hh.html" target="_top" xlink:title="harpoon/memory/linear\l_memory.hh">
<polygon fill="white" stroke="black" points="408,-405 408,-439 524,-439 524,-405 408,-405"/>
<text text-anchor="start" x="416" y="-426" font-family="Helvetica,sans-Serif" font-size="10.00">harpoon/memory/linear</text>
<text text-anchor="middle" x="466" y="-413" font-family="Helvetica,sans-Serif" font-size="10.00">_memory.hh</text>
</a>
</g>
<!-- Node1&#45;&gt;Node7 -->
<g id="edge12" class="edge"><title>Node1&#45;&gt;Node7</title>
<path fill="none" stroke="midnightblue" d="M611.438,-548.848C598.84,-538.29 582.419,-524.442 568,-512 542.271,-489.799 513.239,-464.12 492.746,-445.888"/>
<polygon fill="midnightblue" stroke="midnightblue" points="494.86,-443.084 485.064,-439.046 490.204,-448.311 494.86,-443.084"/>
</g>
<!-- Node19 -->
<g id="node45" class="node"><title>Node19</title>
<a xlink:href="../../d9/d5e/read__only__memory_8hh.html" target="_top" xlink:title="harpoon/memory/read\l_only_memory.hh">
<polygon fill="white" stroke="black" points="576.5,-477 576.5,-511 687.5,-511 687.5,-477 576.5,-477"/>
<text text-anchor="start" x="584.5" y="-498" font-family="Helvetica,sans-Serif" font-size="10.00">harpoon/memory/read</text>
<text text-anchor="middle" x="632" y="-485" font-family="Helvetica,sans-Serif" font-size="10.00">_only_memory.hh</text>
</a>
</g>
<!-- Node1&#45;&gt;Node19 -->
<g id="edge52" class="edge"><title>Node1&#45;&gt;Node19</title>
<path fill="none" stroke="midnightblue" d="M632,-548.937C632,-540.807 632,-530.876 632,-521.705"/>
<polygon fill="midnightblue" stroke="midnightblue" points="635.5,-521.441 632,-511.441 628.5,-521.441 635.5,-521.441"/>
</g>
<!-- Node3 -->
<g id="node5" class="node"><title>Node3</title>
<polygon fill="white" stroke="#bfbfbf" points="469.5,-0.5 469.5,-21.5 510.5,-21.5 510.5,-0.5 469.5,-0.5"/>
<text text-anchor="middle" x="490" y="-8.5" font-family="Helvetica,sans-Serif" font-size="10.00">string</text>
</g>
<!-- Node2&#45;&gt;Node3 -->
<g id="edge4" class="edge"><title>Node2&#45;&gt;Node3</title>
<path fill="none" stroke="midnightblue" d="M568.392,-58.3619C553.777,-49.532 532.776,-36.844 516.189,-26.8224"/>
<polygon fill="midnightblue" stroke="midnightblue" points="517.865,-23.7461 507.496,-21.5707 514.246,-29.7376 517.865,-23.7461"/>
</g>
<!-- Node4 -->
<g id="node7" class="node"><title>Node4</title>
<polygon fill="white" stroke="#bfbfbf" points="528,-0.5 528,-21.5 580,-21.5 580,-0.5 528,-0.5"/>
<text text-anchor="middle" x="554" y="-8.5" font-family="Helvetica,sans-Serif" font-size="10.00">memory</text>
</g>
<!-- Node2&#45;&gt;Node4 -->
<g id="edge6" class="edge"><title>Node2&#45;&gt;Node4</title>
<path fill="none" stroke="midnightblue" d="M580.131,-58.3619C575.845,-50.5949 569.913,-39.8426 564.784,-30.5458"/>
<polygon fill="midnightblue" stroke="midnightblue" points="567.727,-28.6357 559.832,-21.5707 561.598,-32.0172 567.727,-28.6357"/>
</g>
<!-- Node5 -->
<g id="node9" class="node"><title>Node5</title>
<polygon fill="white" stroke="#bfbfbf" points="598,-0.5 598,-21.5 638,-21.5 638,-0.5 598,-0.5"/>
<text text-anchor="middle" x="618" y="-8.5" font-family="Helvetica,sans-Serif" font-size="10.00">utility</text>
</g>
<!-- Node2&#45;&gt;Node5 -->
<g id="edge8" class="edge"><title>Node2&#45;&gt;Node5</title>
<path fill="none" stroke="midnightblue" d="M591.869,-58.3619C596.155,-50.5949 602.087,-39.8426 607.216,-30.5458"/>
<polygon fill="midnightblue" stroke="midnightblue" points="610.402,-32.0172 612.168,-21.5707 604.273,-28.6357 610.402,-32.0172"/>
</g>
<!-- Node6 -->
<g id="node11" class="node"><title>Node6</title>
<polygon fill="white" stroke="#bfbfbf" points="656,-0.5 656,-21.5 702,-21.5 702,-0.5 656,-0.5"/>
<text text-anchor="middle" x="679" y="-8.5" font-family="Helvetica,sans-Serif" font-size="10.00">cstdint</text>
</g>
<!-- Node2&#45;&gt;Node6 -->
<g id="edge10" class="edge"><title>Node2&#45;&gt;Node6</title>
<path fill="none" stroke="midnightblue" d="M603.058,-58.3619C617.085,-49.6138 637.184,-37.0786 653.182,-27.1015"/>
<polygon fill="midnightblue" stroke="midnightblue" points="655.418,-29.8323 662.051,-21.5707 651.713,-23.8927 655.418,-29.8323"/>
</g>
<!-- Node7&#45;&gt;Node2 -->
<g id="edge14" class="edge"><title>Node7&#45;&gt;Node2</title>
<path fill="none" stroke="midnightblue" d="M475.714,-404.882C489.739,-378.51 514,-325.961 514,-278 514,-278 514,-278 514,-206 514,-164.602 517.134,-151.755 538,-116 544.547,-104.781 554.483,-94.4279 563.619,-86.3107"/>
<polygon fill="midnightblue" stroke="midnightblue" points="565.959,-88.9158 571.337,-79.7875 561.441,-83.5695 565.959,-88.9158"/>
</g>
<!-- Node8 -->
<g id="node16" class="node"><title>Node8</title>
<a xlink:href="../../dc/d3f/memory_8hh.html" target="_top" xlink:title="harpoon/memory/memory.hh">
<polygon fill="white" stroke="black" points="261.5,-339.5 261.5,-360.5 402.5,-360.5 402.5,-339.5 261.5,-339.5"/>
<text text-anchor="middle" x="332" y="-347.5" font-family="Helvetica,sans-Serif" font-size="10.00">harpoon/memory/memory.hh</text>
</a>
</g>
<!-- Node7&#45;&gt;Node8 -->
<g id="edge16" class="edge"><title>Node7&#45;&gt;Node8</title>
<path fill="none" stroke="midnightblue" d="M434.244,-404.937C411.996,-392.983 382.501,-377.135 360.909,-365.533"/>
<polygon fill="midnightblue" stroke="midnightblue" points="362.357,-362.338 351.892,-360.688 359.044,-368.504 362.357,-362.338"/>
</g>
<!-- Node8&#45;&gt;Node2 -->
<g id="edge18" class="edge"><title>Node8&#45;&gt;Node2</title>
<path fill="none" stroke="midnightblue" d="M332.814,-339.306C334.444,-321.985 339.041,-287.014 351,-260 382.958,-187.812 391.909,-163.456 455,-116 475.613,-100.495 501.814,-89.7487 525.358,-82.4881"/>
<polygon fill="midnightblue" stroke="midnightblue" points="526.649,-85.757 535.262,-79.5862 524.681,-79.0394 526.649,-85.757"/>
</g>
<!-- Node9 -->
<g id="node19" class="node"><title>Node9</title>
<a xlink:href="../../d5/d09/hardware__component_8hh.html" target="_top" xlink:title="Hardware component. ">
<polygon fill="white" stroke="black" points="105.5,-267.5 105.5,-288.5 266.5,-288.5 266.5,-267.5 105.5,-267.5"/>
<text text-anchor="middle" x="186" y="-275.5" font-family="Helvetica,sans-Serif" font-size="10.00">harpoon/hardware_component.hh</text>
</a>
</g>
<!-- Node8&#45;&gt;Node9 -->
<g id="edge20" class="edge"><title>Node8&#45;&gt;Node9</title>
<path fill="none" stroke="midnightblue" d="M310.457,-339.376C285.657,-327.146 244.735,-306.965 216.63,-293.105"/>
<polygon fill="midnightblue" stroke="midnightblue" points="218.148,-289.951 207.631,-288.667 215.052,-296.229 218.148,-289.951"/>
</g>
<!-- Node13 -->
<g id="node30" class="node"><title>Node13</title>
<polygon fill="white" stroke="#bfbfbf" points="277.5,-195.5 277.5,-216.5 306.5,-216.5 306.5,-195.5 277.5,-195.5"/>
<text text-anchor="middle" x="292" y="-203.5" font-family="Helvetica,sans-Serif" font-size="10.00">list</text>
</g>
<!-- Node8&#45;&gt;Node13 -->
<g id="edge50" class="edge"><title>Node8&#45;&gt;Node13</title>
<path fill="none" stroke="midnightblue" d="M328.993,-339.177C322.33,-315.188 306.231,-257.231 297.633,-226.279"/>
<polygon fill="midnightblue" stroke="midnightblue" points="300.982,-225.256 294.933,-216.558 294.237,-227.13 300.982,-225.256"/>
</g>
<!-- Node16 -->
<g id="node36" class="node"><title>Node16</title>
<a xlink:href="../../d3/d22/address__range_8hh.html" target="_top" xlink:title="harpoon/memory/address\l_range.hh">
<polygon fill="white" stroke="black" points="359.5,-261 359.5,-295 486.5,-295 486.5,-261 359.5,-261"/>
<text text-anchor="start" x="367.5" y="-282" font-family="Helvetica,sans-Serif" font-size="10.00">harpoon/memory/address</text>
<text text-anchor="middle" x="423" y="-269" font-family="Helvetica,sans-Serif" font-size="10.00">_range.hh</text>
</a>
</g>
<!-- Node8&#45;&gt;Node16 -->
<g id="edge40" class="edge"><title>Node8&#45;&gt;Node16</title>
<path fill="none" stroke="midnightblue" d="M345.427,-339.376C357.973,-329.45 377.139,-314.286 393.28,-301.514"/>
<polygon fill="midnightblue" stroke="midnightblue" points="395.724,-304.044 401.395,-295.094 391.381,-298.554 395.724,-304.044"/>
</g>
<!-- Node9&#45;&gt;Node2 -->
<g id="edge22" class="edge"><title>Node9&#45;&gt;Node2</title>
<path fill="none" stroke="midnightblue" d="M194.982,-267.257C204.078,-256.369 218.541,-239.034 231,-224 270.687,-176.109 266.279,-147.348 320,-116 353.903,-96.2166 457.214,-82.2087 524.659,-74.8827"/>
<polygon fill="midnightblue" stroke="midnightblue" points="525.175,-78.3476 534.748,-73.8074 524.434,-71.387 525.175,-78.3476"/>
</g>
<!-- Node10 -->
<g id="node22" class="node"><title>Node10</title>
<a xlink:href="../../d3/de3/log_8hh.html" target="_top" xlink:title="harpoon/log/log.hh">
<polygon fill="white" stroke="black" points="0,-195.5 0,-216.5 96,-216.5 96,-195.5 0,-195.5"/>
<text text-anchor="middle" x="48" y="-203.5" font-family="Helvetica,sans-Serif" font-size="10.00">harpoon/log/log.hh</text>
</a>
</g>
<!-- Node9&#45;&gt;Node10 -->
<g id="edge24" class="edge"><title>Node9&#45;&gt;Node10</title>
<path fill="none" stroke="midnightblue" d="M165.638,-267.376C142.4,-255.252 104.188,-235.316 77.647,-221.468"/>
<polygon fill="midnightblue" stroke="midnightblue" points="78.9308,-218.19 68.4459,-216.667 75.6928,-224.396 78.9308,-218.19"/>
</g>
<!-- Node9&#45;&gt;Node13 -->
<g id="edge34" class="edge"><title>Node9&#45;&gt;Node13</title>
<path fill="none" stroke="midnightblue" d="M201.641,-267.376C219.399,-255.314 248.544,-235.518 268.917,-221.679"/>
<polygon fill="midnightblue" stroke="midnightblue" points="271.015,-224.485 277.32,-215.971 267.082,-218.695 271.015,-224.485"/>
</g>
<!-- Node14 -->
<g id="node32" class="node"><title>Node14</title>
<polygon fill="white" stroke="#bfbfbf" points="114,-195.5 114,-216.5 160,-216.5 160,-195.5 114,-195.5"/>
<text text-anchor="middle" x="137" y="-203.5" font-family="Helvetica,sans-Serif" font-size="10.00">atomic</text>
</g>
<!-- Node9&#45;&gt;Node14 -->
<g id="edge36" class="edge"><title>Node9&#45;&gt;Node14</title>
<path fill="none" stroke="midnightblue" d="M178.77,-267.376C171.243,-256.316 159.29,-238.753 150.096,-225.243"/>
<polygon fill="midnightblue" stroke="midnightblue" points="152.78,-222.965 144.26,-216.667 146.993,-226.904 152.78,-222.965"/>
</g>
<!-- Node15 -->
<g id="node34" class="node"><title>Node15</title>
<polygon fill="white" stroke="#bfbfbf" points="178,-195.5 178,-216.5 222,-216.5 222,-195.5 178,-195.5"/>
<text text-anchor="middle" x="200" y="-203.5" font-family="Helvetica,sans-Serif" font-size="10.00">mutex</text>
</g>
<!-- Node9&#45;&gt;Node15 -->
<g id="edge38" class="edge"><title>Node9&#45;&gt;Node15</title>
<path fill="none" stroke="midnightblue" d="M188.066,-267.376C190.134,-256.741 193.37,-240.095 195.952,-226.82"/>
<polygon fill="midnightblue" stroke="midnightblue" points="199.453,-227.152 197.926,-216.667 192.581,-225.816 199.453,-227.152"/>
</g>
<!-- Node10&#45;&gt;Node2 -->
<g id="edge26" class="edge"><title>Node10&#45;&gt;Node2</title>
<path fill="none" stroke="midnightblue" d="M65.3963,-195.362C97.7163,-176.135 169.77,-135.763 236,-116 334.412,-86.6341 453.891,-75.5752 524.731,-71.4386"/>
<polygon fill="midnightblue" stroke="midnightblue" points="525.031,-74.9274 534.821,-70.8772 524.642,-67.9382 525.031,-74.9274"/>
</g>
<!-- Node11 -->
<g id="node25" class="node"><title>Node11</title>
<a xlink:href="../../d9/d74/message_8hh.html" target="_top" xlink:title="harpoon/log/message.hh">
<polygon fill="white" stroke="black" points="5.5,-123.5 5.5,-144.5 128.5,-144.5 128.5,-123.5 5.5,-123.5"/>
<text text-anchor="middle" x="67" y="-131.5" font-family="Helvetica,sans-Serif" font-size="10.00">harpoon/log/message.hh</text>
</a>
</g>
<!-- Node10&#45;&gt;Node11 -->
<g id="edge28" class="edge"><title>Node10&#45;&gt;Node11</title>
<path fill="none" stroke="midnightblue" d="M50.8035,-195.376C53.638,-184.635 58.0908,-167.761 61.6108,-154.422"/>
<polygon fill="midnightblue" stroke="midnightblue" points="65.0175,-155.23 64.185,-144.667 58.2492,-153.443 65.0175,-155.23"/>
</g>
<!-- Node11&#45;&gt;Node2 -->
<g id="edge30" class="edge"><title>Node11&#45;&gt;Node2</title>
<path fill="none" stroke="midnightblue" d="M128.545,-123.605C144.921,-120.977 162.612,-118.262 179,-116 301.223,-99.1298 444.676,-83.5429 524.473,-75.2456"/>
<polygon fill="midnightblue" stroke="midnightblue" points="525.243,-78.6847 534.829,-74.1727 524.521,-71.722 525.243,-78.6847"/>
</g>
<!-- Node12 -->
<g id="node28" class="node"><title>Node12</title>
<polygon fill="white" stroke="#bfbfbf" points="41,-58.5 41,-79.5 93,-79.5 93,-58.5 41,-58.5"/>
<text text-anchor="middle" x="67" y="-66.5" font-family="Helvetica,sans-Serif" font-size="10.00">sstream</text>
</g>
<!-- Node11&#45;&gt;Node12 -->
<g id="edge32" class="edge"><title>Node11&#45;&gt;Node12</title>
<path fill="none" stroke="midnightblue" d="M67,-123.267C67,-114.18 67,-100.892 67,-89.7395"/>
<polygon fill="midnightblue" stroke="midnightblue" points="70.5001,-89.5337 67,-79.5337 63.5001,-89.5337 70.5001,-89.5337"/>
</g>
<!-- Node16&#45;&gt;Node2 -->
<g id="edge42" class="edge"><title>Node16&#45;&gt;Node2</title>
<path fill="none" stroke="midnightblue" d="M422.867,-260.931C423.341,-242.197 425.968,-211.644 437,-188 454.979,-149.468 466.832,-142.606 500,-116 515.755,-103.362 535.389,-92.3391 551.918,-84.1505"/>
<polygon fill="midnightblue" stroke="midnightblue" points="553.745,-87.1557 561.239,-79.6659 550.71,-80.8479 553.745,-87.1557"/>
</g>
<!-- Node17 -->
<g id="node39" class="node"><title>Node17</title>
<a xlink:href="../../db/db3/address_8hh.html" target="_top" xlink:title="harpoon/memory/address.hh">
<polygon fill="white" stroke="black" points="580,-195.5 580,-216.5 720,-216.5 720,-195.5 580,-195.5"/>
<text text-anchor="middle" x="650" y="-203.5" font-family="Helvetica,sans-Serif" font-size="10.00">harpoon/memory/address.hh</text>
</a>
</g>
<!-- Node16&#45;&gt;Node17 -->
<g id="edge44" class="edge"><title>Node16&#45;&gt;Node17</title>
<path fill="none" stroke="midnightblue" d="M476.796,-260.937C516.463,-248.355 569.731,-231.46 606.675,-219.742"/>
<polygon fill="midnightblue" stroke="midnightblue" points="608.163,-222.942 616.637,-216.582 606.047,-216.269 608.163,-222.942"/>
</g>
<!-- Node18 -->
<g id="node42" class="node"><title>Node18</title>
<polygon fill="white" stroke="#bfbfbf" points="446,-195.5 446,-216.5 486,-216.5 486,-195.5 446,-195.5"/>
<text text-anchor="middle" x="466" y="-203.5" font-family="Helvetica,sans-Serif" font-size="10.00">limits</text>
</g>
<!-- Node16&#45;&gt;Node18 -->
<g id="edge48" class="edge"><title>Node16&#45;&gt;Node18</title>
<path fill="none" stroke="midnightblue" d="M433.19,-260.937C439.491,-250.387 447.603,-236.805 454.184,-225.785"/>
<polygon fill="midnightblue" stroke="midnightblue" points="457.367,-227.281 459.49,-216.901 451.357,-223.692 457.367,-227.281"/>
</g>
<!-- Node17&#45;&gt;Node2 -->
<g id="edge46" class="edge"><title>Node17&#45;&gt;Node2</title>
<path fill="none" stroke="midnightblue" d="M644.978,-195.25C634.276,-172.341 609.081,-118.409 595.339,-88.9919"/>
<polygon fill="midnightblue" stroke="midnightblue" points="598.402,-87.279 590.999,-79.7002 592.06,-90.2418 598.402,-87.279"/>
</g>
<!-- Node19&#45;&gt;Node2 -->
<g id="edge54" class="edge"><title>Node19&#45;&gt;Node2</title>
<path fill="none" stroke="midnightblue" d="M614.641,-476.648C591.113,-451.198 552,-401.192 552,-350 552,-350 552,-350 552,-206 552,-163.569 567.553,-115.864 577.621,-89.4293"/>
<polygon fill="midnightblue" stroke="midnightblue" points="581.011,-90.3707 581.415,-79.7836 574.497,-87.8085 581.011,-90.3707"/>
</g>
<!-- Node19&#45;&gt;Node17 -->
<g id="edge56" class="edge"><title>Node19&#45;&gt;Node17</title>
<path fill="none" stroke="midnightblue" d="M633.072,-476.847C636.202,-426.764 645.321,-280.864 648.711,-226.624"/>
<polygon fill="midnightblue" stroke="midnightblue" points="652.213,-226.707 649.343,-216.508 645.226,-226.271 652.213,-226.707"/>
</g>
<!-- Node20 -->
<g id="node49" class="node"><title>Node20</title>
<a xlink:href="../../de/da3/write__access__violation_8hh.html" target="_top" xlink:title="harpoon/memory/exception\l/write_access_violation.hh">
<polygon fill="white" stroke="black" points="660,-405 660,-439 794,-439 794,-405 660,-405"/>
<text text-anchor="start" x="668" y="-426" font-family="Helvetica,sans-Serif" font-size="10.00">harpoon/memory/exception</text>
<text text-anchor="middle" x="727" y="-413" font-family="Helvetica,sans-Serif" font-size="10.00">/write_access_violation.hh</text>
</a>
</g>
<!-- Node19&#45;&gt;Node20 -->
<g id="edge58" class="edge"><title>Node19&#45;&gt;Node20</title>
<path fill="none" stroke="midnightblue" d="M654.514,-476.937C666.964,-467.501 682.615,-455.639 696.186,-445.354"/>
<polygon fill="midnightblue" stroke="midnightblue" points="698.463,-448.02 704.319,-439.19 694.235,-442.441 698.463,-448.02"/>
</g>
<!-- Node20&#45;&gt;Node2 -->
<g id="edge60" class="edge"><title>Node20&#45;&gt;Node2</title>
<path fill="none" stroke="midnightblue" d="M727.345,-404.826C728.387,-351.638 731.296,-192.897 729,-188 706.13,-139.216 652.345,-103.48 617.646,-84.5024"/>
<polygon fill="midnightblue" stroke="midnightblue" points="618.881,-81.1951 608.407,-79.5971 615.598,-87.3778 618.881,-81.1951"/>
</g>
<!-- Node21 -->
<g id="node52" class="node"><title>Node21</title>
<a xlink:href="../../d2/d41/access__violation_8hh.html" target="_top" xlink:title="harpoon/memory/exception\l/access_violation.hh">
<polygon fill="white" stroke="black" points="738,-333 738,-367 872,-367 872,-333 738,-333"/>
<text text-anchor="start" x="746" y="-354" font-family="Helvetica,sans-Serif" font-size="10.00">harpoon/memory/exception</text>
<text text-anchor="middle" x="805" y="-341" font-family="Helvetica,sans-Serif" font-size="10.00">/access_violation.hh</text>
</a>
</g>
<!-- Node20&#45;&gt;Node21 -->
<g id="edge62" class="edge"><title>Node20&#45;&gt;Node21</title>
<path fill="none" stroke="midnightblue" d="M745.485,-404.937C755.418,-395.768 767.833,-384.308 778.75,-374.231"/>
<polygon fill="midnightblue" stroke="midnightblue" points="781.403,-376.545 786.377,-367.19 776.655,-371.401 781.403,-376.545"/>
</g>
<!-- Node21&#45;&gt;Node2 -->
<g id="edge64" class="edge"><title>Node21&#45;&gt;Node2</title>
<path fill="none" stroke="midnightblue" d="M804.165,-332.789C801.463,-284.258 791.359,-147.782 762,-116 746.338,-99.0457 691.322,-86.1459 646.918,-78.1887"/>
<polygon fill="midnightblue" stroke="midnightblue" points="647.5,-74.7373 637.047,-76.4684 646.298,-81.6334 647.5,-74.7373"/>
</g>
<!-- Node21&#45;&gt;Node17 -->
<g id="edge80" class="edge"><title>Node21&#45;&gt;Node17</title>
<path fill="none" stroke="midnightblue" d="M786.611,-332.916C756.998,-305.404 699.036,-251.556 669.024,-223.674"/>
<polygon fill="midnightblue" stroke="midnightblue" points="671.055,-220.783 661.346,-216.541 666.291,-225.912 671.055,-220.783"/>
</g>
<!-- Node22 -->
<g id="node55" class="node"><title>Node22</title>
<a xlink:href="../../df/d8d/memory__exception_8hh.html" target="_top" xlink:title="harpoon/memory/exception\l/memory_exception.hh">
<polygon fill="white" stroke="black" points="814,-261 814,-295 948,-295 948,-261 814,-261"/>
<text text-anchor="start" x="822" y="-282" font-family="Helvetica,sans-Serif" font-size="10.00">harpoon/memory/exception</text>
<text text-anchor="middle" x="881" y="-269" font-family="Helvetica,sans-Serif" font-size="10.00">/memory_exception.hh</text>
</a>
</g>
<!-- Node21&#45;&gt;Node22 -->
<g id="edge66" class="edge"><title>Node21&#45;&gt;Node22</title>
<path fill="none" stroke="midnightblue" d="M823.011,-332.937C832.689,-323.768 844.786,-312.308 855.423,-302.231"/>
<polygon fill="midnightblue" stroke="midnightblue" points="858.003,-304.608 862.855,-295.19 853.188,-299.527 858.003,-304.608"/>
</g>
<!-- Node22&#45;&gt;Node2 -->
<g id="edge68" class="edge"><title>Node22&#45;&gt;Node2</title>
<path fill="none" stroke="midnightblue" d="M867.238,-260.679C859.484,-250.405 849.984,-236.905 843,-224 818.41,-178.563 839.38,-149.443 800,-116 777.277,-96.703 702.153,-83.4166 647.316,-76.0147"/>
<polygon fill="midnightblue" stroke="midnightblue" points="647.701,-72.5353 637.33,-74.701 646.788,-79.4755 647.701,-72.5353"/>
</g>
<!-- Node23 -->
<g id="node58" class="node"><title>Node23</title>
<a xlink:href="../../df/d18/hardware__component__exception_8hh.html" target="_top" xlink:title="harpoon/exception/hardware\l_component_exception.hh">
<polygon fill="white" stroke="black" points="851.5,-189 851.5,-223 990.5,-223 990.5,-189 851.5,-189"/>
<text text-anchor="start" x="859.5" y="-210" font-family="Helvetica,sans-Serif" font-size="10.00">harpoon/exception/hardware</text>
<text text-anchor="middle" x="921" y="-197" font-family="Helvetica,sans-Serif" font-size="10.00">_component_exception.hh</text>
</a>
</g>
<!-- Node22&#45;&gt;Node23 -->
<g id="edge70" class="edge"><title>Node22&#45;&gt;Node23</title>
<path fill="none" stroke="midnightblue" d="M890.479,-260.937C895.241,-252.365 901.116,-241.791 906.435,-232.217"/>
<polygon fill="midnightblue" stroke="midnightblue" points="909.514,-233.882 911.311,-223.441 903.395,-230.482 909.514,-233.882"/>
</g>
<!-- Node23&#45;&gt;Node2 -->
<g id="edge72" class="edge"><title>Node23&#45;&gt;Node2</title>
<path fill="none" stroke="midnightblue" d="M907.509,-188.97C888.594,-165.539 854.648,-125.206 838,-116 805.929,-98.2662 710.83,-83.898 647.069,-75.9044"/>
<polygon fill="midnightblue" stroke="midnightblue" points="647.473,-72.4278 637.12,-74.6767 646.616,-79.3751 647.473,-72.4278"/>
</g>
<!-- Node24 -->
<g id="node61" class="node"><title>Node24</title>
<a xlink:href="../../d5/d38/harpoon__exception_8hh.html" target="_top" xlink:title="harpoon/exception/harpoon\l_exception.hh">
<polygon fill="white" stroke="black" points="890,-117 890,-151 1024,-151 1024,-117 890,-117"/>
<text text-anchor="start" x="898" y="-138" font-family="Helvetica,sans-Serif" font-size="10.00">harpoon/exception/harpoon</text>
<text text-anchor="middle" x="957" y="-125" font-family="Helvetica,sans-Serif" font-size="10.00">_exception.hh</text>
</a>
</g>
<!-- Node23&#45;&gt;Node24 -->
<g id="edge74" class="edge"><title>Node23&#45;&gt;Node24</title>
<path fill="none" stroke="midnightblue" d="M929.531,-188.937C933.773,-180.454 938.995,-170.009 943.744,-160.513"/>
<polygon fill="midnightblue" stroke="midnightblue" points="946.938,-161.95 948.28,-151.441 940.677,-158.82 946.938,-161.95"/>
</g>
<!-- Node24&#45;&gt;Node2 -->
<g id="edge76" class="edge"><title>Node24&#45;&gt;Node2</title>
<path fill="none" stroke="midnightblue" d="M889.879,-118.77C885.188,-117.802 880.527,-116.869 876,-116 797.443,-100.919 706.297,-86.6761 647.471,-77.9048"/>
<polygon fill="midnightblue" stroke="midnightblue" points="647.639,-74.3916 637.234,-76.385 646.611,-81.3157 647.639,-74.3916"/>
</g>
<!-- Node25 -->
<g id="node64" class="node"><title>Node25</title>
<polygon fill="white" stroke="#bfbfbf" points="927.5,-58.5 927.5,-79.5 986.5,-79.5 986.5,-58.5 927.5,-58.5"/>
<text text-anchor="middle" x="957" y="-66.5" font-family="Helvetica,sans-Serif" font-size="10.00">stdexcept</text>
</g>
<!-- Node24&#45;&gt;Node25 -->
<g id="edge78" class="edge"><title>Node24&#45;&gt;Node25</title>
<path fill="none" stroke="midnightblue" d="M957,-116.922C957,-108.67 957,-98.6922 957,-89.9818"/>
<polygon fill="midnightblue" stroke="midnightblue" points="960.5,-89.8521 957,-79.8521 953.5,-89.8521 960.5,-89.8521"/>
</g>
</g>
</svg>
        <g id="navigator" transform="translate(0 0)" fill="#404254">
                <rect fill="#f2f5e9" fill-opacity="0.5" stroke="#606060" stroke-width=".5" x="0" y="0" width="60" height="60"/>
                <use id="zoomplus" xlink:href="#zoomPlus" x="17" y="9" onmousedown="handleZoom(evt,'in')"/>
                <use id="zoomminus" xlink:href="#zoomMin" x="42" y="9" onmousedown="handleZoom(evt,'out')"/>
                <use id="reset" xlink:href="#resetDef" x="30" y="36" onmousedown="handleReset()"/>
                <g id="arrowUp" xlink:href="#dirArrow" transform="translate(30 24)" onmousedown="handlePan(0,-1)">
                  <use xlink:href="#rim" fill="#404040">
                        <set attributeName="fill" to="#808080" begin="arrowUp.mouseover" end="arrowUp.mouseout"/>
                  </use>
                  <path fill="none" stroke="white" stroke-width="1.5" d="M0,-3.0v7 M-2.5,-0.5L0,-3.0L2.5,-0.5"/>
                </g>
                <g id="arrowRight" xlink:href="#dirArrow" transform="rotate(90) translate(36 -43)" onmousedown="handlePan(1,0)">
                  <use xlink:href="#rim" fill="#404040">
                        <set attributeName="fill" to="#808080" begin="arrowRight.mouseover" end="arrowRight.mouseout"/>
                  </use>
                  <path fill="none" stroke="white" stroke-width="1.5" d="M0,-3.0v7 M-2.5,-0.5L0,-3.0L2.5,-0.5"/>
                </g>
                <g id="arrowDown" xlink:href="#dirArrow" transform="rotate(180) translate(-30 -48)" onmousedown="handlePan(0,1)">
                  <use xlink:href="#rim" fill="#404040">
                        <set attributeName="fill" to="#808080" begin="arrowDown.mouseover" end="arrowDown.mouseout"/>
                  </use>
                  <path fill="none" stroke="white" stroke-width="1.5" d="M0,-3.0v7 M-2.5,-0.5L0,-3.0L2.5,-0.5"/>
                </g>
                <g id="arrowLeft" xlink:href="#dirArrow" transform="rotate(270) translate(-36 17)" onmousedown="handlePan(-1,0)">
                  <use xlink:href="#rim" fill="#404040">
                        <set attributeName="fill" to="#808080" begin="arrowLeft.mouseover" end="arrowLeft.mouseout"/>
                  </use>
                  <path fill="none" stroke="white" stroke-width="1.5" d="M0,-3.0v7 M-2.5,-0.5L0,-3.0L2.5,-0.5"/>
                </g>
        </g>
        <svg viewBox="0 0 15 15" width="100%" height="30px" preserveAspectRatio="xMaxYMin meet">
         <g id="arrow_out" transform="scale(0.3 0.3)">
          <a xlink:href="linear__read__only__memory_8hh__incl_org.svg" target="_base">
           <rect id="button" ry="5" rx="5" y="6" x="6" height="38" width="38"
                fill="#f2f5e9" fill-opacity="0.5" stroke="#606060" stroke-width="1.0"/>
           <path id="arrow"
             d="M 11.500037,31.436501 C 11.940474,20.09759 22.043105,11.32322 32.158766,21.979434 L 37.068811,17.246167 C 37.068811,17.246167 37.088388,32 37.088388,32 L 22.160133,31.978069 C 22.160133,31.978069 26.997745,27.140456 26.997745,27.140456 C 18.528582,18.264221 13.291696,25.230495 11.500037,31.436501 z"
             style="fill:#404040;"/>
          </a>
         </g>
        </svg>
</svg>
