<?xml version="1.0" encoding="UTF-8" standalone="no"?>
<!DOCTYPE svg PUBLIC "-//W3C//DTD SVG 1.1//EN"
 "http://www.w3.org/Graphics/SVG/1.1/DTD/svg11.dtd">
<!-- Generated by graphviz version 2.26.3 (20100126.1600)
 -->
<!-- Title: harpoon/memory/chunked_memory.hh Pages: 1 -->
<!--zoomable 406 -->
<svg id="main" version="1.1" xmlns="http://www.w3.org/2000/svg" xmlns:xlink="http://www.w3.org/1999/xlink" xml:space="preserve" onload="init(evt)">
<style type="text/css"><![CDATA[
.edge:hover path { stroke: red; }
.edge:hover polygon { stroke: red; fill: red; }
]]></style>
<script type="text/javascript"><![CDATA[
var edges = document.getElementsByTagName('g');
if (edges && edges.length) {
  for (var i=0;i<edges.length;i++) {
    if (edges[i].id.substr(0,4)=='edge') {
      edges[i].setAttribute('class','edge');
    }
  }
}
]]></script>
        <defs>
                <circle id="rim" cx="0" cy="0" r="7"/>
                <circle id="rim2" cx="0" cy="0" r="3.5"/>
                <g id="zoomPlus">
                        <use xlink:href="#rim" fill="#404040">
                                <set attributeName="fill" to="#808080" begin="zoomplus.mouseover" end="zoomplus.mouseout"/>
                        </use>
                        <path d="M-4,0h8M0,-4v8" fill="none" stroke="white" stroke-width="1.5" pointer-events="none"/>
                </g>
                <g id="zoomMin">
                        <use xlink:href="#rim" fill="#404040">
                                <set attributeName="fill" to="#808080" begin="zoomminus.mouseover" end="zoomminus.mouseout"/>
                        </use>
                        <path d="M-4,0h8" fill="none" stroke="white" stroke-width="1.5" pointer-events="none"/>
                </g>
                <g id="dirArrow">
                        <path fill="none" stroke="white" stroke-width="1.5" d="M0,-3.0v7 M-2.5,-0.5L0,-3.0L2.5,-0.5"/>
                </g>
               <g id="resetDef">
                       <use xlink:href="#rim2" fill="#404040">
                               <set attributeName="fill" to="#808080" begin="reset.mouseover" end="reset.mouseout"/>
                       </use>
               </g>
        </defs>

<script type="text/javascript">
var viewWidth = 608;
var viewHeight = 406;
var sectionId = 'dynsection-0';
</script>
<script xlink:href="../../svgpan.js"/>
<svg id="graph" class="graph">
<g id="viewport">
<title>harpoon/memory/chunked_memory.hh</title>
<polygon fill="white" stroke="white" points="-4,5 -4,-402 605,-402 605,5 -4,5"/>
<!-- Node1 -->
<g id="node1" class="node"><title>Node1</title>
<polygon fill="#bfbfbf" stroke="black" points="463.5,-363 463.5,-397 592.5,-397 592.5,-363 463.5,-363"/>
<text text-anchor="start" x="471.5" y="-384" font-family="Helvetica,sans-Serif" font-size="10.00">harpoon/memory/chunked</text>
<text text-anchor="middle" x="528" y="-371" font-family="Helvetica,sans-Serif" font-size="10.00">_memory.hh</text>
</g>
<!-- Node2 -->
<g id="node3" class="node"><title>Node2</title>
<a xlink:href="../../d5/d08/harpoon_8hh.html" target="_top" xlink:title="Harpoon library common header file. ">
<polygon fill="white" stroke="black" points="185,-58.5 185,-79.5 287,-79.5 287,-58.5 185,-58.5"/>
<text text-anchor="middle" x="236" y="-66.5" font-family="Helvetica,sans-Serif" font-size="10.00">harpoon/harpoon.hh</text>
</a>
</g>
<!-- Node1&#45;&gt;Node2 -->
<g id="edge2" class="edge"><title>Node1&#45;&gt;Node2</title>
<path fill="none" stroke="midnightblue" d="M528,-362.888C528,-339.127 528,-294.797 528,-257 528,-257 528,-257 528,-192 528,-157.183 534.519,-139.686 509,-116 479.014,-88.1687 368.309,-76.5713 297.417,-71.9225"/>
<polygon fill="midnightblue" stroke="midnightblue" points="297.461,-68.4185 287.261,-71.286 297.023,-75.4048 297.461,-68.4185"/>
</g>
<!-- Node6 -->
<g id="node11" class="node"><title>Node6</title>
<a xlink:href="../../dc/d3f/memory_8hh.html" target="_top" xlink:title="harpoon/memory/memory.hh">
<polygon fill="white" stroke="black" points="211.5,-304.5 211.5,-325.5 352.5,-325.5 352.5,-304.5 211.5,-304.5"/>
<text text-anchor="middle" x="282" y="-312.5" font-family="Helvetica,sans-Serif" font-size="10.00">harpoon/memory/memory.hh</text>
</a>
</g>
<!-- Node1&#45;&gt;Node6 -->
<g id="edge10" class="edge"><title>Node1&#45;&gt;Node6</title>
<path fill="none" stroke="midnightblue" d="M463.366,-362.922C422.203,-352.046 369.686,-338.169 331.77,-328.151"/>
<polygon fill="midnightblue" stroke="midnightblue" points="332.535,-324.733 321.973,-325.562 330.747,-331.501 332.535,-324.733"/>
</g>
<!-- Node16 -->
<g id="node38" class="node"><title>Node16</title>
<polygon fill="white" stroke="#bfbfbf" points="556,-304.5 556,-325.5 600,-325.5 600,-304.5 556,-304.5"/>
<text text-anchor="middle" x="578" y="-312.5" font-family="Helvetica,sans-Serif" font-size="10.00">vector</text>
</g>
<!-- Node1&#45;&gt;Node16 -->
<g id="edge44" class="edge"><title>Node1&#45;&gt;Node16</title>
<path fill="none" stroke="midnightblue" d="M541.137,-362.922C547.978,-354.029 556.362,-343.13 563.405,-333.974"/>
<polygon fill="midnightblue" stroke="midnightblue" points="566.329,-335.912 569.652,-325.852 560.781,-331.644 566.329,-335.912"/>
</g>
<!-- Node3 -->
<g id="node5" class="node"><title>Node3</title>
<polygon fill="white" stroke="#bfbfbf" points="151.5,-0.5 151.5,-21.5 192.5,-21.5 192.5,-0.5 151.5,-0.5"/>
<text text-anchor="middle" x="172" y="-8.5" font-family="Helvetica,sans-Serif" font-size="10.00">string</text>
</g>
<!-- Node2&#45;&gt;Node3 -->
<g id="edge4" class="edge"><title>Node2&#45;&gt;Node3</title>
<path fill="none" stroke="midnightblue" d="M224.261,-58.3619C215.059,-50.0226 202.06,-38.2418 191.328,-28.5162"/>
<polygon fill="midnightblue" stroke="midnightblue" points="193.424,-25.6924 183.664,-21.5707 188.724,-30.8793 193.424,-25.6924"/>
</g>
<!-- Node4 -->
<g id="node7" class="node"><title>Node4</title>
<polygon fill="white" stroke="#bfbfbf" points="210,-0.5 210,-21.5 262,-21.5 262,-0.5 210,-0.5"/>
<text text-anchor="middle" x="236" y="-8.5" font-family="Helvetica,sans-Serif" font-size="10.00">memory</text>
</g>
<!-- Node2&#45;&gt;Node4 -->
<g id="edge6" class="edge"><title>Node2&#45;&gt;Node4</title>
<path fill="none" stroke="midnightblue" d="M236,-58.3619C236,-50.9219 236,-40.7427 236,-31.7276"/>
<polygon fill="midnightblue" stroke="midnightblue" points="239.5,-31.5706 236,-21.5707 232.5,-31.5707 239.5,-31.5706"/>
</g>
<!-- Node5 -->
<g id="node9" class="node"><title>Node5</title>
<polygon fill="white" stroke="#bfbfbf" points="280,-0.5 280,-21.5 320,-21.5 320,-0.5 280,-0.5"/>
<text text-anchor="middle" x="300" y="-8.5" font-family="Helvetica,sans-Serif" font-size="10.00">utility</text>
</g>
<!-- Node2&#45;&gt;Node5 -->
<g id="edge8" class="edge"><title>Node2&#45;&gt;Node5</title>
<path fill="none" stroke="midnightblue" d="M247.739,-58.3619C256.941,-50.0226 269.94,-38.2418 280.672,-28.5162"/>
<polygon fill="midnightblue" stroke="midnightblue" points="283.276,-30.8793 288.336,-21.5707 278.576,-25.6924 283.276,-30.8793"/>
</g>
<!-- Node6&#45;&gt;Node2 -->
<g id="edge12" class="edge"><title>Node6&#45;&gt;Node2</title>
<path fill="none" stroke="midnightblue" d="M280.995,-304.317C278.675,-280.684 272.419,-222.243 263,-174 257.195,-144.268 248.017,-110.419 242.002,-89.3811"/>
<polygon fill="midnightblue" stroke="midnightblue" points="245.324,-88.2684 239.179,-79.6372 238.6,-90.2162 245.324,-88.2684"/>
</g>
<!-- Node7 -->
<g id="node14" class="node"><title>Node7</title>
<a xlink:href="../../d5/d09/hardware__component_8hh.html" target="_top" xlink:title="Hardware component. ">
<polygon fill="white" stroke="black" points="55.5,-246.5 55.5,-267.5 216.5,-267.5 216.5,-246.5 55.5,-246.5"/>
<text text-anchor="middle" x="136" y="-254.5" font-family="Helvetica,sans-Serif" font-size="10.00">harpoon/hardware_component.hh</text>
</a>
</g>
<!-- Node6&#45;&gt;Node7 -->
<g id="edge14" class="edge"><title>Node6&#45;&gt;Node7</title>
<path fill="none" stroke="midnightblue" d="M255.561,-304.497C232.244,-295.234 198.05,-281.65 172.196,-271.379"/>
<polygon fill="midnightblue" stroke="midnightblue" points="173.322,-268.06 162.736,-267.621 170.737,-274.566 173.322,-268.06"/>
</g>
<!-- Node11 -->
<g id="node25" class="node"><title>Node11</title>
<polygon fill="white" stroke="#bfbfbf" points="225.5,-181.5 225.5,-202.5 254.5,-202.5 254.5,-181.5 225.5,-181.5"/>
<text text-anchor="middle" x="240" y="-189.5" font-family="Helvetica,sans-Serif" font-size="10.00">list</text>
</g>
<!-- Node6&#45;&gt;Node11 -->
<g id="edge42" class="edge"><title>Node6&#45;&gt;Node11</title>
<path fill="none" stroke="midnightblue" d="M278.273,-304.085C271.25,-283.518 255.958,-238.735 246.975,-212.426"/>
<polygon fill="midnightblue" stroke="midnightblue" points="250.203,-211.048 243.659,-202.715 243.578,-213.31 250.203,-211.048"/>
</g>
<!-- Node13 -->
<g id="node29" class="node"><title>Node13</title>
<a xlink:href="../../d3/d22/address__range_8hh.html" target="_top" xlink:title="harpoon/memory/address\l_range.hh">
<polygon fill="white" stroke="black" points="339.5,-175 339.5,-209 466.5,-209 466.5,-175 339.5,-175"/>
<text text-anchor="start" x="347.5" y="-196" font-family="Helvetica,sans-Serif" font-size="10.00">harpoon/memory/address</text>
<text text-anchor="middle" x="403" y="-183" font-family="Helvetica,sans-Serif" font-size="10.00">_range.hh</text>
</a>
</g>
<!-- Node6&#45;&gt;Node13 -->
<g id="edge32" class="edge"><title>Node6&#45;&gt;Node13</title>
<path fill="none" stroke="midnightblue" d="M292.738,-304.085C311.9,-284.606 352.429,-243.406 378.651,-216.751"/>
<polygon fill="midnightblue" stroke="midnightblue" points="381.446,-218.901 385.964,-209.317 376.456,-213.992 381.446,-218.901"/>
</g>
<!-- Node7&#45;&gt;Node2 -->
<g id="edge16" class="edge"><title>Node7&#45;&gt;Node2</title>
<path fill="none" stroke="midnightblue" d="M147.841,-246.356C157.262,-237.391 170.27,-223.845 179,-210 203.989,-170.368 221.722,-117.934 230.252,-89.4865"/>
<polygon fill="midnightblue" stroke="midnightblue" points="233.721,-90.0917 233.157,-79.5119 227,-88.1339 233.721,-90.0917"/>
</g>
<!-- Node8 -->
<g id="node17" class="node"><title>Node8</title>
<a xlink:href="../../d3/de3/log_8hh.html" target="_top" xlink:title="harpoon/log/log.hh">
<polygon fill="white" stroke="black" points="10,-181.5 10,-202.5 106,-202.5 106,-181.5 10,-181.5"/>
<text text-anchor="middle" x="58" y="-189.5" font-family="Helvetica,sans-Serif" font-size="10.00">harpoon/log/log.hh</text>
</a>
</g>
<!-- Node7&#45;&gt;Node8 -->
<g id="edge18" class="edge"><title>Node7&#45;&gt;Node8</title>
<path fill="none" stroke="midnightblue" d="M123.12,-246.267C110.966,-236.139 92.5499,-220.792 78.3995,-209"/>
<polygon fill="midnightblue" stroke="midnightblue" points="80.5633,-206.247 70.6404,-202.534 76.082,-211.624 80.5633,-206.247"/>
</g>
<!-- Node7&#45;&gt;Node11 -->
<g id="edge28" class="edge"><title>Node7&#45;&gt;Node11</title>
<path fill="none" stroke="midnightblue" d="M153.258,-246.446C168.697,-236.976 191.922,-222.66 212,-210 213.65,-208.96 215.351,-207.881 217.062,-206.792"/>
<polygon fill="midnightblue" stroke="midnightblue" points="218.963,-209.73 225.498,-201.391 215.189,-203.835 218.963,-209.73"/>
</g>
<!-- Node12 -->
<g id="node27" class="node"><title>Node12</title>
<polygon fill="white" stroke="#bfbfbf" points="124,-181.5 124,-202.5 170,-202.5 170,-181.5 124,-181.5"/>
<text text-anchor="middle" x="147" y="-189.5" font-family="Helvetica,sans-Serif" font-size="10.00">atomic</text>
</g>
<!-- Node7&#45;&gt;Node12 -->
<g id="edge30" class="edge"><title>Node7&#45;&gt;Node12</title>
<path fill="none" stroke="midnightblue" d="M137.816,-246.267C139.354,-237.18 141.603,-223.892 143.49,-212.74"/>
<polygon fill="midnightblue" stroke="midnightblue" points="147,-212.978 145.217,-202.534 140.098,-211.809 147,-212.978"/>
</g>
<!-- Node8&#45;&gt;Node2 -->
<g id="edge20" class="edge"><title>Node8&#45;&gt;Node2</title>
<path fill="none" stroke="midnightblue" d="M73.4849,-181.3C104.597,-159.801 174.883,-111.232 212,-85.5843"/>
<polygon fill="midnightblue" stroke="midnightblue" points="214.44,-88.1523 220.678,-79.588 210.461,-82.3935 214.44,-88.1523"/>
</g>
<!-- Node9 -->
<g id="node20" class="node"><title>Node9</title>
<a xlink:href="../../d9/d74/message_8hh.html" target="_top" xlink:title="harpoon/log/message.hh">
<polygon fill="white" stroke="black" points="-0.5,-116.5 -0.5,-137.5 122.5,-137.5 122.5,-116.5 -0.5,-116.5"/>
<text text-anchor="middle" x="61" y="-124.5" font-family="Helvetica,sans-Serif" font-size="10.00">harpoon/log/message.hh</text>
</a>
</g>
<!-- Node8&#45;&gt;Node9 -->
<g id="edge22" class="edge"><title>Node8&#45;&gt;Node9</title>
<path fill="none" stroke="midnightblue" d="M58.4954,-181.267C58.9148,-172.18 59.5281,-158.892 60.0428,-147.74"/>
<polygon fill="midnightblue" stroke="midnightblue" points="63.549,-147.684 60.5138,-137.534 56.5564,-147.362 63.549,-147.684"/>
</g>
<!-- Node9&#45;&gt;Node2 -->
<g id="edge24" class="edge"><title>Node9&#45;&gt;Node2</title>
<path fill="none" stroke="midnightblue" d="M92.6912,-116.497C121.221,-107.041 163.336,-93.0829 194.535,-82.7428"/>
<polygon fill="midnightblue" stroke="midnightblue" points="195.858,-85.9914 204.249,-79.5231 193.656,-79.3468 195.858,-85.9914"/>
</g>
<!-- Node10 -->
<g id="node23" class="node"><title>Node10</title>
<polygon fill="white" stroke="#bfbfbf" points="35,-58.5 35,-79.5 87,-79.5 87,-58.5 35,-58.5"/>
<text text-anchor="middle" x="61" y="-66.5" font-family="Helvetica,sans-Serif" font-size="10.00">sstream</text>
</g>
<!-- Node9&#45;&gt;Node10 -->
<g id="edge26" class="edge"><title>Node9&#45;&gt;Node10</title>
<path fill="none" stroke="midnightblue" d="M61,-116.362C61,-108.922 61,-98.7427 61,-89.7276"/>
<polygon fill="midnightblue" stroke="midnightblue" points="64.5001,-89.5706 61,-79.5707 57.5001,-89.5707 64.5001,-89.5706"/>
</g>
<!-- Node13&#45;&gt;Node2 -->
<g id="edge34" class="edge"><title>Node13&#45;&gt;Node2</title>
<path fill="none" stroke="midnightblue" d="M411.775,-174.759C418.918,-158.028 425.9,-132.773 413,-116 398.764,-97.4902 342.59,-84.7478 297.292,-77.2484"/>
<polygon fill="midnightblue" stroke="midnightblue" points="297.652,-73.7614 287.224,-75.6365 296.545,-80.6734 297.652,-73.7614"/>
</g>
<!-- Node14 -->
<g id="node32" class="node"><title>Node14</title>
<a xlink:href="../../db/db3/address_8hh.html" target="_top" xlink:title="harpoon/memory/address.hh">
<polygon fill="white" stroke="black" points="264,-116.5 264,-137.5 404,-137.5 404,-116.5 264,-116.5"/>
<text text-anchor="middle" x="334" y="-124.5" font-family="Helvetica,sans-Serif" font-size="10.00">harpoon/memory/address.hh</text>
</a>
</g>
<!-- Node13&#45;&gt;Node14 -->
<g id="edge36" class="edge"><title>Node13&#45;&gt;Node14</title>
<path fill="none" stroke="midnightblue" d="M384.871,-174.922C375.041,-165.662 362.903,-154.227 352.949,-144.85"/>
<polygon fill="midnightblue" stroke="midnightblue" points="355.199,-142.161 345.52,-137.852 350.399,-147.257 355.199,-142.161"/>
</g>
<!-- Node15 -->
<g id="node35" class="node"><title>Node15</title>
<polygon fill="white" stroke="#bfbfbf" points="460,-116.5 460,-137.5 500,-137.5 500,-116.5 460,-116.5"/>
<text text-anchor="middle" x="480" y="-124.5" font-family="Helvetica,sans-Serif" font-size="10.00">limits</text>
</g>
<!-- Node13&#45;&gt;Node15 -->
<g id="edge40" class="edge"><title>Node13&#45;&gt;Node15</title>
<path fill="none" stroke="midnightblue" d="M423.231,-174.922C434.309,-165.57 448.015,-154.001 459.184,-144.572"/>
<polygon fill="midnightblue" stroke="midnightblue" points="461.761,-146.977 467.144,-137.852 457.245,-141.628 461.761,-146.977"/>
</g>
<!-- Node14&#45;&gt;Node2 -->
<g id="edge38" class="edge"><title>Node14&#45;&gt;Node2</title>
<path fill="none" stroke="midnightblue" d="M316.025,-116.362C301.106,-107.532 279.667,-94.844 262.734,-84.8224"/>
<polygon fill="midnightblue" stroke="midnightblue" points="264.249,-81.6519 253.861,-79.5707 260.684,-87.6759 264.249,-81.6519"/>
</g>
</g>
</svg>
        <g id="navigator" transform="translate(0 0)" fill="#404254">
                <rect fill="#f2f5e9" fill-opacity="0.5" stroke="#606060" stroke-width=".5" x="0" y="0" width="60" height="60"/>
                <use id="zoomplus" xlink:href="#zoomPlus" x="17" y="9" onmousedown="handleZoom(evt,'in')"/>
                <use id="zoomminus" xlink:href="#zoomMin" x="42" y="9" onmousedown="handleZoom(evt,'out')"/>
                <use id="reset" xlink:href="#resetDef" x="30" y="36" onmousedown="handleReset()"/>
                <g id="arrowUp" xlink:href="#dirArrow" transform="translate(30 24)" onmousedown="handlePan(0,-1)">
                  <use xlink:href="#rim" fill="#404040">
                        <set attributeName="fill" to="#808080" begin="arrowUp.mouseover" end="arrowUp.mouseout"/>
                  </use>
                  <path fill="none" stroke="white" stroke-width="1.5" d="M0,-3.0v7 M-2.5,-0.5L0,-3.0L2.5,-0.5"/>
                </g>
                <g id="arrowRight" xlink:href="#dirArrow" transform="rotate(90) translate(36 -43)" onmousedown="handlePan(1,0)">
                  <use xlink:href="#rim" fill="#404040">
                        <set attributeName="fill" to="#808080" begin="arrowRight.mouseover" end="arrowRight.mouseout"/>
                  </use>
                  <path fill="none" stroke="white" stroke-width="1.5" d="M0,-3.0v7 M-2.5,-0.5L0,-3.0L2.5,-0.5"/>
                </g>
                <g id="arrowDown" xlink:href="#dirArrow" transform="rotate(180) translate(-30 -48)" onmousedown="handlePan(0,1)">
                  <use xlink:href="#rim" fill="#404040">
                        <set attributeName="fill" to="#808080" begin="arrowDown.mouseover" end="arrowDown.mouseout"/>
                  </use>
                  <path fill="none" stroke="white" stroke-width="1.5" d="M0,-3.0v7 M-2.5,-0.5L0,-3.0L2.5,-0.5"/>
                </g>
                <g id="arrowLeft" xlink:href="#dirArrow" transform="rotate(270) translate(-36 17)" onmousedown="handlePan(-1,0)">
                  <use xlink:href="#rim" fill="#404040">
                        <set attributeName="fill" to="#808080" begin="arrowLeft.mouseover" end="arrowLeft.mouseout"/>
                  </use>
                  <path fill="none" stroke="white" stroke-width="1.5" d="M0,-3.0v7 M-2.5,-0.5L0,-3.0L2.5,-0.5"/>
                </g>
        </g>
        <svg viewBox="0 0 15 15" width="100%" height="30px" preserveAspectRatio="xMaxYMin meet">
         <g id="arrow_out" transform="scale(0.3 0.3)">
          <a xlink:href="chunked__memory_8hh__incl_org.svg" target="_base">
           <rect id="button" ry="5" rx="5" y="6" x="6" height="38" width="38"
                fill="#f2f5e9" fill-opacity="0.5" stroke="#606060" stroke-width="1.0"/>
           <path id="arrow"
             d="M 11.500037,31.436501 C 11.940474,20.09759 22.043105,11.32322 32.158766,21.979434 L 37.068811,17.246167 C 37.068811,17.246167 37.088388,32 37.088388,32 L 22.160133,31.978069 C 22.160133,31.978069 26.997745,27.140456 26.997745,27.140456 C 18.528582,18.264221 13.291696,25.230495 11.500037,31.436501 z"
             style="fill:#404040;"/>
          </a>
         </g>
        </svg>
</svg>
