<?xml version="1.0" encoding="UTF-8" standalone="no"?>
<!DOCTYPE svg PUBLIC "-//W3C//DTD SVG 1.1//EN"
 "http://www.w3.org/Graphics/SVG/1.1/DTD/svg11.dtd">
<!-- Generated by graphviz version 2.26.3 (20100126.1600)
 -->
<!-- Title: harpoon/execution/execution_unit.hh Pages: 1 -->
<!--zoomable 406 -->
<svg id="main" version="1.1" xmlns="http://www.w3.org/2000/svg" xmlns:xlink="http://www.w3.org/1999/xlink" xml:space="preserve" onload="init(evt)">
<style type="text/css"><![CDATA[
.edge:hover path { stroke: red; }
.edge:hover polygon { stroke: red; fill: red; }
]]></style>
<script type="text/javascript"><![CDATA[
var edges = document.getElementsByTagName('g');
if (edges && edges.length) {
  for (var i=0;i<edges.length;i++) {
    if (edges[i].id.substr(0,4)=='edge') {
      edges[i].setAttribute('class','edge');
    }
  }
}
]]></script>
        <defs>
                <circle id="rim" cx="0" cy="0" r="7"/>
                <circle id="rim2" cx="0" cy="0" r="3.5"/>
                <g id="zoomPlus">
                        <use xlink:href="#rim" fill="#404040">
                                <set attributeName="fill" to="#808080" begin="zoomplus.mouseover" end="zoomplus.mouseout"/>
                        </use>
                        <path d="M-4,0h8M0,-4v8" fill="none" stroke="white" stroke-width="1.5" pointer-events="none"/>
                </g>
                <g id="zoomMin">
                        <use xlink:href="#rim" fill="#404040">
                                <set attributeName="fill" to="#808080" begin="zoomminus.mouseover" end="zoomminus.mouseout"/>
                        </use>
                        <path d="M-4,0h8" fill="none" stroke="white" stroke-width="1.5" pointer-events="none"/>
                </g>
                <g id="dirArrow">
                        <path fill="none" stroke="white" stroke-width="1.5" d="M0,-3.0v7 M-2.5,-0.5L0,-3.0L2.5,-0.5"/>
                </g>
               <g id="resetDef">
                       <use xlink:href="#rim2" fill="#404040">
                               <set attributeName="fill" to="#808080" begin="reset.mouseover" end="reset.mouseout"/>
                       </use>
               </g>
        </defs>

<script type="text/javascript">
var viewWidth = 622;
var viewHeight = 406;
var sectionId = 'dynsection-0';
</script>
<script xlink:href="../../svgpan.js"/>
<svg id="graph" class="graph">
<g id="viewport">
<title>harpoon/execution/execution_unit.hh</title>
<polygon fill="white" stroke="white" points="-4,5 -4,-402 619,-402 619,5 -4,5"/>
<!-- Node1 -->
<g id="node1" class="node"><title>Node1</title>
<polygon fill="#bfbfbf" stroke="black" points="131.5,-363 131.5,-397 272.5,-397 272.5,-363 131.5,-363"/>
<text text-anchor="start" x="139.5" y="-384" font-family="Helvetica,sans-Serif" font-size="10.00">harpoon/execution/execution</text>
<text text-anchor="middle" x="202" y="-371" font-family="Helvetica,sans-Serif" font-size="10.00">_unit.hh</text>
</g>
<!-- Node2 -->
<g id="node3" class="node"><title>Node2</title>
<a xlink:href="../../d5/d08/harpoon_8hh.html" target="_top" xlink:title="Harpoon library common header file. ">
<polygon fill="white" stroke="black" points="183,-58.5 183,-79.5 285,-79.5 285,-58.5 183,-58.5"/>
<text text-anchor="middle" x="234" y="-66.5" font-family="Helvetica,sans-Serif" font-size="10.00">harpoon/harpoon.hh</text>
</a>
</g>
<!-- Node1&#45;&gt;Node2 -->
<g id="edge2" class="edge"><title>Node1&#45;&gt;Node2</title>
<path fill="none" stroke="midnightblue" d="M131.35,-365.12C73.0992,-348.223 0,-314.225 0,-250 0,-250 0,-250 0,-185 0,-143.944 117.096,-102.926 185.622,-82.4372"/>
<polygon fill="midnightblue" stroke="midnightblue" points="186.758,-85.7512 195.36,-79.5657 184.778,-79.037 186.758,-85.7512"/>
</g>
<!-- Node6 -->
<g id="node11" class="node"><title>Node6</title>
<a xlink:href="../../d5/d09/hardware__component_8hh.html" target="_top" xlink:title="Hardware component. ">
<polygon fill="white" stroke="black" points="294.5,-239.5 294.5,-260.5 455.5,-260.5 455.5,-239.5 294.5,-239.5"/>
<text text-anchor="middle" x="375" y="-247.5" font-family="Helvetica,sans-Serif" font-size="10.00">harpoon/hardware_component.hh</text>
</a>
</g>
<!-- Node1&#45;&gt;Node6 -->
<g id="edge10" class="edge"><title>Node1&#45;&gt;Node6</title>
<path fill="none" stroke="midnightblue" d="M224.973,-362.737C258.385,-337.63 319.979,-291.345 352.895,-266.611"/>
<polygon fill="midnightblue" stroke="midnightblue" points="355.1,-269.332 360.992,-260.527 350.894,-263.736 355.1,-269.332"/>
</g>
<!-- Node12 -->
<g id="node26" class="node"><title>Node12</title>
<a xlink:href="../../d7/d55/clock_8hh.html" target="_top" xlink:title="harpoon/clock/clock.hh">
<polygon fill="white" stroke="black" points="143.5,-304.5 143.5,-325.5 260.5,-325.5 260.5,-304.5 143.5,-304.5"/>
<text text-anchor="middle" x="202" y="-312.5" font-family="Helvetica,sans-Serif" font-size="10.00">harpoon/clock/clock.hh</text>
</a>
</g>
<!-- Node1&#45;&gt;Node12 -->
<g id="edge28" class="edge"><title>Node1&#45;&gt;Node12</title>
<path fill="none" stroke="midnightblue" d="M202,-362.922C202,-354.67 202,-344.692 202,-335.982"/>
<polygon fill="midnightblue" stroke="midnightblue" points="205.5,-335.852 202,-325.852 198.5,-335.852 205.5,-335.852"/>
</g>
<!-- Node3 -->
<g id="node5" class="node"><title>Node3</title>
<polygon fill="white" stroke="#bfbfbf" points="149.5,-0.5 149.5,-21.5 190.5,-21.5 190.5,-0.5 149.5,-0.5"/>
<text text-anchor="middle" x="170" y="-8.5" font-family="Helvetica,sans-Serif" font-size="10.00">string</text>
</g>
<!-- Node2&#45;&gt;Node3 -->
<g id="edge4" class="edge"><title>Node2&#45;&gt;Node3</title>
<path fill="none" stroke="midnightblue" d="M222.261,-58.3619C213.059,-50.0226 200.06,-38.2418 189.328,-28.5162"/>
<polygon fill="midnightblue" stroke="midnightblue" points="191.424,-25.6924 181.664,-21.5707 186.724,-30.8793 191.424,-25.6924"/>
</g>
<!-- Node4 -->
<g id="node7" class="node"><title>Node4</title>
<polygon fill="white" stroke="#bfbfbf" points="208,-0.5 208,-21.5 260,-21.5 260,-0.5 208,-0.5"/>
<text text-anchor="middle" x="234" y="-8.5" font-family="Helvetica,sans-Serif" font-size="10.00">memory</text>
</g>
<!-- Node2&#45;&gt;Node4 -->
<g id="edge6" class="edge"><title>Node2&#45;&gt;Node4</title>
<path fill="none" stroke="midnightblue" d="M234,-58.3619C234,-50.9219 234,-40.7427 234,-31.7276"/>
<polygon fill="midnightblue" stroke="midnightblue" points="237.5,-31.5706 234,-21.5707 230.5,-31.5707 237.5,-31.5706"/>
</g>
<!-- Node5 -->
<g id="node9" class="node"><title>Node5</title>
<polygon fill="white" stroke="#bfbfbf" points="278,-0.5 278,-21.5 318,-21.5 318,-0.5 278,-0.5"/>
<text text-anchor="middle" x="298" y="-8.5" font-family="Helvetica,sans-Serif" font-size="10.00">utility</text>
</g>
<!-- Node2&#45;&gt;Node5 -->
<g id="edge8" class="edge"><title>Node2&#45;&gt;Node5</title>
<path fill="none" stroke="midnightblue" d="M245.739,-58.3619C254.941,-50.0226 267.94,-38.2418 278.672,-28.5162"/>
<polygon fill="midnightblue" stroke="midnightblue" points="281.276,-30.8793 286.336,-21.5707 276.576,-25.6924 281.276,-30.8793"/>
</g>
<!-- Node6&#45;&gt;Node2 -->
<g id="edge12" class="edge"><title>Node6&#45;&gt;Node2</title>
<path fill="none" stroke="midnightblue" d="M385.499,-239.364C398.963,-224.377 419.199,-196.374 407,-174 380.998,-126.309 323.304,-97.9254 281.682,-82.9228"/>
<polygon fill="midnightblue" stroke="midnightblue" points="282.601,-79.5371 272.006,-79.5696 280.309,-86.1512 282.601,-79.5371"/>
</g>
<!-- Node7 -->
<g id="node14" class="node"><title>Node7</title>
<a xlink:href="../../d3/de3/log_8hh.html" target="_top" xlink:title="harpoon/log/log.hh">
<polygon fill="white" stroke="black" points="454,-174.5 454,-195.5 550,-195.5 550,-174.5 454,-174.5"/>
<text text-anchor="middle" x="502" y="-182.5" font-family="Helvetica,sans-Serif" font-size="10.00">harpoon/log/log.hh</text>
</a>
</g>
<!-- Node6&#45;&gt;Node7 -->
<g id="edge14" class="edge"><title>Node6&#45;&gt;Node7</title>
<path fill="none" stroke="midnightblue" d="M395.687,-239.412C416.444,-228.788 448.624,-212.318 472.145,-200.28"/>
<polygon fill="midnightblue" stroke="midnightblue" points="474.014,-203.255 481.321,-195.584 470.825,-197.024 474.014,-203.255"/>
</g>
<!-- Node10 -->
<g id="node22" class="node"><title>Node10</title>
<polygon fill="white" stroke="#bfbfbf" points="369.5,-174.5 369.5,-195.5 398.5,-195.5 398.5,-174.5 369.5,-174.5"/>
<text text-anchor="middle" x="384" y="-182.5" font-family="Helvetica,sans-Serif" font-size="10.00">list</text>
</g>
<!-- Node6&#45;&gt;Node10 -->
<g id="edge24" class="edge"><title>Node6&#45;&gt;Node10</title>
<path fill="none" stroke="midnightblue" d="M376.486,-239.267C377.744,-230.18 379.584,-216.892 381.128,-205.74"/>
<polygon fill="midnightblue" stroke="midnightblue" points="384.637,-205.919 382.541,-195.534 377.703,-204.959 384.637,-205.919"/>
</g>
<!-- Node11 -->
<g id="node24" class="node"><title>Node11</title>
<polygon fill="white" stroke="#bfbfbf" points="262,-116.5 262,-137.5 308,-137.5 308,-116.5 262,-116.5"/>
<text text-anchor="middle" x="285" y="-124.5" font-family="Helvetica,sans-Serif" font-size="10.00">atomic</text>
</g>
<!-- Node6&#45;&gt;Node11 -->
<g id="edge26" class="edge"><title>Node6&#45;&gt;Node11</title>
<path fill="none" stroke="midnightblue" d="M368.192,-239.49C358.496,-224.652 339.994,-196.826 323,-174 315.856,-164.405 307.54,-154.035 300.511,-145.484"/>
<polygon fill="midnightblue" stroke="midnightblue" points="303.08,-143.098 294.003,-137.634 297.691,-147.566 303.08,-143.098"/>
</g>
<!-- Node7&#45;&gt;Node2 -->
<g id="edge16" class="edge"><title>Node7&#45;&gt;Node2</title>
<path fill="none" stroke="midnightblue" d="M495.459,-174.252C485.489,-158.837 464.989,-130.693 440,-116 415.765,-101.75 346.699,-87.7146 295.176,-78.7456"/>
<polygon fill="midnightblue" stroke="midnightblue" points="295.572,-75.2624 285.124,-77.0208 294.388,-82.1616 295.572,-75.2624"/>
</g>
<!-- Node8 -->
<g id="node17" class="node"><title>Node8</title>
<a xlink:href="../../d9/d74/message_8hh.html" target="_top" xlink:title="harpoon/log/message.hh">
<polygon fill="white" stroke="black" points="491.5,-116.5 491.5,-137.5 614.5,-137.5 614.5,-116.5 491.5,-116.5"/>
<text text-anchor="middle" x="553" y="-124.5" font-family="Helvetica,sans-Serif" font-size="10.00">harpoon/log/message.hh</text>
</a>
</g>
<!-- Node7&#45;&gt;Node8 -->
<g id="edge18" class="edge"><title>Node7&#45;&gt;Node8</title>
<path fill="none" stroke="midnightblue" d="M511.354,-174.362C518.543,-166.186 528.641,-154.702 537.093,-145.091"/>
<polygon fill="midnightblue" stroke="midnightblue" points="539.73,-147.392 543.705,-137.571 534.473,-142.769 539.73,-147.392"/>
</g>
<!-- Node8&#45;&gt;Node2 -->
<g id="edge20" class="edge"><title>Node8&#45;&gt;Node2</title>
<path fill="none" stroke="midnightblue" d="M495.232,-116.497C438.66,-106.211 352.785,-90.5973 295.097,-80.1086"/>
<polygon fill="midnightblue" stroke="midnightblue" points="295.488,-76.6224 285.023,-78.277 294.236,-83.5095 295.488,-76.6224"/>
</g>
<!-- Node9 -->
<g id="node20" class="node"><title>Node9</title>
<polygon fill="white" stroke="#bfbfbf" points="527,-58.5 527,-79.5 579,-79.5 579,-58.5 527,-58.5"/>
<text text-anchor="middle" x="553" y="-66.5" font-family="Helvetica,sans-Serif" font-size="10.00">sstream</text>
</g>
<!-- Node8&#45;&gt;Node9 -->
<g id="edge22" class="edge"><title>Node8&#45;&gt;Node9</title>
<path fill="none" stroke="midnightblue" d="M553,-116.362C553,-108.922 553,-98.7427 553,-89.7276"/>
<polygon fill="midnightblue" stroke="midnightblue" points="556.5,-89.5706 553,-79.5707 549.5,-89.5707 556.5,-89.5706"/>
</g>
<!-- Node12&#45;&gt;Node2 -->
<g id="edge30" class="edge"><title>Node12&#45;&gt;Node2</title>
<path fill="none" stroke="midnightblue" d="M158.787,-304.499C138.622,-297.431 116.028,-286.009 102,-268 76.0447,-234.677 77.7373,-214.973 88,-174 95.1017,-145.647 97.2969,-135.578 119,-116 135.936,-100.722 158.504,-90.0463 179.161,-82.7775"/>
<polygon fill="midnightblue" stroke="midnightblue" points="180.415,-86.0492 188.802,-79.5755 178.208,-79.406 180.415,-86.0492"/>
</g>
<!-- Node12&#45;&gt;Node6 -->
<g id="edge32" class="edge"><title>Node12&#45;&gt;Node6</title>
<path fill="none" stroke="midnightblue" d="M230.18,-304.412C259.335,-293.458 305.034,-276.288 337.287,-264.17"/>
<polygon fill="midnightblue" stroke="midnightblue" points="338.702,-267.377 346.832,-260.584 336.239,-260.824 338.702,-267.377"/>
</g>
<!-- Node13 -->
<g id="node30" class="node"><title>Node13</title>
<a xlink:href="../../d3/dce/tick_8hh.html" target="_top" xlink:title="harpoon/clock/tick.hh">
<polygon fill="white" stroke="black" points="204,-174.5 204,-195.5 314,-195.5 314,-174.5 204,-174.5"/>
<text text-anchor="middle" x="259" y="-182.5" font-family="Helvetica,sans-Serif" font-size="10.00">harpoon/clock/tick.hh</text>
</a>
</g>
<!-- Node12&#45;&gt;Node13 -->
<g id="edge34" class="edge"><title>Node12&#45;&gt;Node13</title>
<path fill="none" stroke="midnightblue" d="M212.958,-304.42C221.571,-295.493 233.211,-281.967 240,-268 249.649,-248.151 254.505,-223.224 256.878,-205.893"/>
<polygon fill="midnightblue" stroke="midnightblue" points="260.381,-206.078 258.104,-195.731 253.431,-205.24 260.381,-206.078"/>
</g>
<!-- Node14 -->
<g id="node34" class="node"><title>Node14</title>
<a xlink:href="../../d8/d45/generator_8hh.html" target="_top" xlink:title="harpoon/clock/generator\l/generator.hh">
<polygon fill="white" stroke="black" points="110.5,-233 110.5,-267 231.5,-267 231.5,-233 110.5,-233"/>
<text text-anchor="start" x="118.5" y="-254" font-family="Helvetica,sans-Serif" font-size="10.00">harpoon/clock/generator</text>
<text text-anchor="middle" x="171" y="-241" font-family="Helvetica,sans-Serif" font-size="10.00">/generator.hh</text>
</a>
</g>
<!-- Node12&#45;&gt;Node14 -->
<g id="edge40" class="edge"><title>Node12&#45;&gt;Node14</title>
<path fill="none" stroke="midnightblue" d="M196.881,-304.267C193.232,-296.615 188.162,-285.986 183.476,-276.16"/>
<polygon fill="midnightblue" stroke="midnightblue" points="186.624,-274.629 179.16,-267.11 180.306,-277.643 186.624,-274.629"/>
</g>
<!-- Node13&#45;&gt;Node2 -->
<g id="edge36" class="edge"><title>Node13&#45;&gt;Node2</title>
<path fill="none" stroke="midnightblue" d="M256.693,-174.295C252.544,-155.045 243.761,-114.289 238.42,-89.5091"/>
<polygon fill="midnightblue" stroke="midnightblue" points="241.83,-88.7174 236.302,-79.6792 234.987,-90.1922 241.83,-88.7174"/>
</g>
<!-- Node13&#45;&gt;Node11 -->
<g id="edge38" class="edge"><title>Node13&#45;&gt;Node11</title>
<path fill="none" stroke="midnightblue" d="M263.769,-174.362C267.214,-166.677 271.969,-156.069 276.106,-146.84"/>
<polygon fill="midnightblue" stroke="midnightblue" points="279.365,-148.127 280.261,-137.571 272.977,-145.264 279.365,-148.127"/>
</g>
<!-- Node14&#45;&gt;Node2 -->
<g id="edge42" class="edge"><title>Node14&#45;&gt;Node2</title>
<path fill="none" stroke="midnightblue" d="M133.211,-232.9C108.569,-219.094 83.0248,-198.054 95,-174 116.622,-130.569 165.727,-100.338 199.381,-83.8186"/>
<polygon fill="midnightblue" stroke="midnightblue" points="200.895,-86.974 208.428,-79.5231 197.893,-80.6506 200.895,-86.974"/>
</g>
<!-- Node14&#45;&gt;Node11 -->
<g id="edge46" class="edge"><title>Node14&#45;&gt;Node11</title>
<path fill="none" stroke="midnightblue" d="M172.638,-232.796C175.031,-216.094 180.866,-190.859 195,-174 209.851,-156.285 233.105,-144.386 252.255,-136.993"/>
<polygon fill="midnightblue" stroke="midnightblue" points="253.615,-140.223 261.828,-133.531 251.234,-133.64 253.615,-140.223"/>
</g>
<!-- Node14&#45;&gt;Node13 -->
<g id="edge44" class="edge"><title>Node14&#45;&gt;Node13</title>
<path fill="none" stroke="midnightblue" d="M194.121,-232.922C207.113,-223.326 223.266,-211.394 236.205,-201.837"/>
<polygon fill="midnightblue" stroke="midnightblue" points="238.606,-204.415 244.57,-195.658 234.447,-198.784 238.606,-204.415"/>
</g>
<!-- Node15 -->
<g id="node39" class="node"><title>Node15</title>
<polygon fill="white" stroke="#bfbfbf" points="104,-174.5 104,-195.5 148,-195.5 148,-174.5 104,-174.5"/>
<text text-anchor="middle" x="126" y="-182.5" font-family="Helvetica,sans-Serif" font-size="10.00">thread</text>
</g>
<!-- Node14&#45;&gt;Node15 -->
<g id="edge48" class="edge"><title>Node14&#45;&gt;Node15</title>
<path fill="none" stroke="midnightblue" d="M159.177,-232.922C153.083,-224.12 145.63,-213.354 139.332,-204.258"/>
<polygon fill="midnightblue" stroke="midnightblue" points="142.083,-202.082 133.513,-195.852 136.327,-206.066 142.083,-202.082"/>
</g>
</g>
</svg>
        <g id="navigator" transform="translate(0 0)" fill="#404254">
                <rect fill="#f2f5e9" fill-opacity="0.5" stroke="#606060" stroke-width=".5" x="0" y="0" width="60" height="60"/>
                <use id="zoomplus" xlink:href="#zoomPlus" x="17" y="9" onmousedown="handleZoom(evt,'in')"/>
                <use id="zoomminus" xlink:href="#zoomMin" x="42" y="9" onmousedown="handleZoom(evt,'out')"/>
                <use id="reset" xlink:href="#resetDef" x="30" y="36" onmousedown="handleReset()"/>
                <g id="arrowUp" xlink:href="#dirArrow" transform="translate(30 24)" onmousedown="handlePan(0,-1)">
                  <use xlink:href="#rim" fill="#404040">
                        <set attributeName="fill" to="#808080" begin="arrowUp.mouseover" end="arrowUp.mouseout"/>
                  </use>
                  <path fill="none" stroke="white" stroke-width="1.5" d="M0,-3.0v7 M-2.5,-0.5L0,-3.0L2.5,-0.5"/>
                </g>
                <g id="arrowRight" xlink:href="#dirArrow" transform="rotate(90) translate(36 -43)" onmousedown="handlePan(1,0)">
                  <use xlink:href="#rim" fill="#404040">
                        <set attributeName="fill" to="#808080" begin="arrowRight.mouseover" end="arrowRight.mouseout"/>
                  </use>
                  <path fill="none" stroke="white" stroke-width="1.5" d="M0,-3.0v7 M-2.5,-0.5L0,-3.0L2.5,-0.5"/>
                </g>
                <g id="arrowDown" xlink:href="#dirArrow" transform="rotate(180) translate(-30 -48)" onmousedown="handlePan(0,1)">
                  <use xlink:href="#rim" fill="#404040">
                        <set attributeName="fill" to="#808080" begin="arrowDown.mouseover" end="arrowDown.mouseout"/>
                  </use>
                  <path fill="none" stroke="white" stroke-width="1.5" d="M0,-3.0v7 M-2.5,-0.5L0,-3.0L2.5,-0.5"/>
                </g>
                <g id="arrowLeft" xlink:href="#dirArrow" transform="rotate(270) translate(-36 17)" onmousedown="handlePan(-1,0)">
                  <use xlink:href="#rim" fill="#404040">
                        <set attributeName="fill" to="#808080" begin="arrowLeft.mouseover" end="arrowLeft.mouseout"/>
                  </use>
                  <path fill="none" stroke="white" stroke-width="1.5" d="M0,-3.0v7 M-2.5,-0.5L0,-3.0L2.5,-0.5"/>
                </g>
        </g>
        <svg viewBox="0 0 15 15" width="100%" height="30px" preserveAspectRatio="xMaxYMin meet">
         <g id="arrow_out" transform="scale(0.3 0.3)">
          <a xlink:href="execution__unit_8hh__incl_org.svg" target="_base">
           <rect id="button" ry="5" rx="5" y="6" x="6" height="38" width="38"
                fill="#f2f5e9" fill-opacity="0.5" stroke="#606060" stroke-width="1.0"/>
           <path id="arrow"
             d="M 11.500037,31.436501 C 11.940474,20.09759 22.043105,11.32322 32.158766,21.979434 L 37.068811,17.246167 C 37.068811,17.246167 37.088388,32 37.088388,32 L 22.160133,31.978069 C 22.160133,31.978069 26.997745,27.140456 26.997745,27.140456 C 18.528582,18.264221 13.291696,25.230495 11.500037,31.436501 z"
             style="fill:#404040;"/>
          </a>
         </g>
        </svg>
</svg>
