<?xml version="1.0" encoding="UTF-8" standalone="no"?>
<!DOCTYPE svg PUBLIC "-//W3C//DTD SVG 1.1//EN"
 "http://www.w3.org/Graphics/SVG/1.1/DTD/svg11.dtd">
<!-- Generated by graphviz version 2.26.3 (20100126.1600)
 -->
<!-- Title: harpoon/execution/execution_unit.hh Pages: 1 -->
<!--zoomable 406 -->
<svg id="main" version="1.1" xmlns="http://www.w3.org/2000/svg" xmlns:xlink="http://www.w3.org/1999/xlink" xml:space="preserve" onload="init(evt)">
<style type="text/css"><![CDATA[
.edge:hover path { stroke: red; }
.edge:hover polygon { stroke: red; fill: red; }
]]></style>
<script type="text/javascript"><![CDATA[
var edges = document.getElementsByTagName('g');
if (edges && edges.length) {
  for (var i=0;i<edges.length;i++) {
    if (edges[i].id.substr(0,4)=='edge') {
      edges[i].setAttribute('class','edge');
    }
  }
}
]]></script>
        <defs>
                <circle id="rim" cx="0" cy="0" r="7"/>
                <circle id="rim2" cx="0" cy="0" r="3.5"/>
                <g id="zoomPlus">
                        <use xlink:href="#rim" fill="#404040">
                                <set attributeName="fill" to="#808080" begin="zoomplus.mouseover" end="zoomplus.mouseout"/>
                        </use>
                        <path d="M-4,0h8M0,-4v8" fill="none" stroke="white" stroke-width="1.5" pointer-events="none"/>
                </g>
                <g id="zoomMin">
                        <use xlink:href="#rim" fill="#404040">
                                <set attributeName="fill" to="#808080" begin="zoomminus.mouseover" end="zoomminus.mouseout"/>
                        </use>
                        <path d="M-4,0h8" fill="none" stroke="white" stroke-width="1.5" pointer-events="none"/>
                </g>
                <g id="dirArrow">
                        <path fill="none" stroke="white" stroke-width="1.5" d="M0,-3.0v7 M-2.5,-0.5L0,-3.0L2.5,-0.5"/>
                </g>
               <g id="resetDef">
                       <use xlink:href="#rim2" fill="#404040">
                               <set attributeName="fill" to="#808080" begin="reset.mouseover" end="reset.mouseout"/>
                       </use>
               </g>
        </defs>

<script type="text/javascript">
var viewWidth = 684;
var viewHeight = 406;
var sectionId = 'dynsection-0';
</script>
<script xlink:href="../../svgpan.js"/>
<svg id="graph" class="graph">
<g id="viewport">
<title>harpoon/execution/execution_unit.hh</title>
<polygon fill="white" stroke="white" points="-4,5 -4,-402 681,-402 681,5 -4,5"/>
<!-- Node1 -->
<g id="node1" class="node"><title>Node1</title>
<polygon fill="#bfbfbf" stroke="black" points="440.5,-363 440.5,-397 581.5,-397 581.5,-363 440.5,-363"/>
<text text-anchor="start" x="448.5" y="-384" font-family="Helvetica,sans-Serif" font-size="10.00">harpoon/execution/execution</text>
<text text-anchor="middle" x="511" y="-371" font-family="Helvetica,sans-Serif" font-size="10.00">_unit.hh</text>
</g>
<!-- Node2 -->
<g id="node3" class="node"><title>Node2</title>
<a xlink:href="../../d5/d08/harpoon_8hh.html" target="_top" xlink:title="Harpoon library common header file. ">
<polygon fill="white" stroke="black" points="283,-58.5 283,-79.5 385,-79.5 385,-58.5 283,-58.5"/>
<text text-anchor="middle" x="334" y="-66.5" font-family="Helvetica,sans-Serif" font-size="10.00">harpoon/harpoon.hh</text>
</a>
</g>
<!-- Node1&#45;&gt;Node2 -->
<g id="edge2" class="edge"><title>Node1&#45;&gt;Node2</title>
<path fill="none" stroke="midnightblue" d="M564.571,-362.946C612.75,-343.863 676,-307.803 676,-250 676,-250 676,-250 676,-185 676,-126.414 493.736,-91.5457 395.322,-76.9889"/>
<polygon fill="midnightblue" stroke="midnightblue" points="395.6,-73.4926 385.201,-75.5196 394.594,-80.4199 395.6,-73.4926"/>
</g>
<!-- Node7 -->
<g id="node13" class="node"><title>Node7</title>
<a xlink:href="../../d5/d09/hardware__component_8hh.html" target="_top" xlink:title="Hardware component. ">
<polygon fill="white" stroke="black" points="203.5,-239.5 203.5,-260.5 364.5,-260.5 364.5,-239.5 203.5,-239.5"/>
<text text-anchor="middle" x="284" y="-247.5" font-family="Helvetica,sans-Serif" font-size="10.00">harpoon/hardware_component.hh</text>
</a>
</g>
<!-- Node1&#45;&gt;Node7 -->
<g id="edge12" class="edge"><title>Node1&#45;&gt;Node7</title>
<path fill="none" stroke="midnightblue" d="M480.856,-362.737C436.362,-337.256 353.779,-289.962 311.1,-265.52"/>
<polygon fill="midnightblue" stroke="midnightblue" points="312.798,-262.459 302.381,-260.527 309.319,-268.533 312.798,-262.459"/>
</g>
<!-- Node14 -->
<g id="node30" class="node"><title>Node14</title>
<a xlink:href="../../d7/d55/clock_8hh.html" target="_top" xlink:title="harpoon/clock/clock.hh">
<polygon fill="white" stroke="black" points="452.5,-304.5 452.5,-325.5 569.5,-325.5 569.5,-304.5 452.5,-304.5"/>
<text text-anchor="middle" x="511" y="-312.5" font-family="Helvetica,sans-Serif" font-size="10.00">harpoon/clock/clock.hh</text>
</a>
</g>
<!-- Node1&#45;&gt;Node14 -->
<g id="edge32" class="edge"><title>Node1&#45;&gt;Node14</title>
<path fill="none" stroke="midnightblue" d="M511,-362.922C511,-354.67 511,-344.692 511,-335.982"/>
<polygon fill="midnightblue" stroke="midnightblue" points="514.5,-335.852 511,-325.852 507.5,-335.852 514.5,-335.852"/>
</g>
<!-- Node3 -->
<g id="node5" class="node"><title>Node3</title>
<polygon fill="white" stroke="#bfbfbf" points="217.5,-0.5 217.5,-21.5 258.5,-21.5 258.5,-0.5 217.5,-0.5"/>
<text text-anchor="middle" x="238" y="-8.5" font-family="Helvetica,sans-Serif" font-size="10.00">string</text>
</g>
<!-- Node2&#45;&gt;Node3 -->
<g id="edge4" class="edge"><title>Node2&#45;&gt;Node3</title>
<path fill="none" stroke="midnightblue" d="M316.392,-58.3619C301.777,-49.532 280.776,-36.844 264.189,-26.8224"/>
<polygon fill="midnightblue" stroke="midnightblue" points="265.865,-23.7461 255.496,-21.5707 262.246,-29.7376 265.865,-23.7461"/>
</g>
<!-- Node4 -->
<g id="node7" class="node"><title>Node4</title>
<polygon fill="white" stroke="#bfbfbf" points="276,-0.5 276,-21.5 328,-21.5 328,-0.5 276,-0.5"/>
<text text-anchor="middle" x="302" y="-8.5" font-family="Helvetica,sans-Serif" font-size="10.00">memory</text>
</g>
<!-- Node2&#45;&gt;Node4 -->
<g id="edge6" class="edge"><title>Node2&#45;&gt;Node4</title>
<path fill="none" stroke="midnightblue" d="M328.131,-58.3619C323.845,-50.5949 317.913,-39.8426 312.784,-30.5458"/>
<polygon fill="midnightblue" stroke="midnightblue" points="315.727,-28.6357 307.832,-21.5707 309.598,-32.0172 315.727,-28.6357"/>
</g>
<!-- Node5 -->
<g id="node9" class="node"><title>Node5</title>
<polygon fill="white" stroke="#bfbfbf" points="346,-0.5 346,-21.5 386,-21.5 386,-0.5 346,-0.5"/>
<text text-anchor="middle" x="366" y="-8.5" font-family="Helvetica,sans-Serif" font-size="10.00">utility</text>
</g>
<!-- Node2&#45;&gt;Node5 -->
<g id="edge8" class="edge"><title>Node2&#45;&gt;Node5</title>
<path fill="none" stroke="midnightblue" d="M339.869,-58.3619C344.155,-50.5949 350.087,-39.8426 355.216,-30.5458"/>
<polygon fill="midnightblue" stroke="midnightblue" points="358.402,-32.0172 360.168,-21.5707 352.273,-28.6357 358.402,-32.0172"/>
</g>
<!-- Node6 -->
<g id="node11" class="node"><title>Node6</title>
<polygon fill="white" stroke="#bfbfbf" points="404,-0.5 404,-21.5 450,-21.5 450,-0.5 404,-0.5"/>
<text text-anchor="middle" x="427" y="-8.5" font-family="Helvetica,sans-Serif" font-size="10.00">cstdint</text>
</g>
<!-- Node2&#45;&gt;Node6 -->
<g id="edge10" class="edge"><title>Node2&#45;&gt;Node6</title>
<path fill="none" stroke="midnightblue" d="M351.058,-58.3619C365.085,-49.6138 385.184,-37.0786 401.182,-27.1015"/>
<polygon fill="midnightblue" stroke="midnightblue" points="403.418,-29.8323 410.051,-21.5707 399.713,-23.8927 403.418,-29.8323"/>
</g>
<!-- Node7&#45;&gt;Node2 -->
<g id="edge14" class="edge"><title>Node7&#45;&gt;Node2</title>
<path fill="none" stroke="midnightblue" d="M258.195,-239.353C230.921,-226.359 193.56,-202.55 207,-174 226.6,-132.363 271.712,-101.595 302.536,-84.4755"/>
<polygon fill="midnightblue" stroke="midnightblue" points="304.448,-87.4213 311.6,-79.6039 301.134,-81.2556 304.448,-87.4213"/>
</g>
<!-- Node8 -->
<g id="node16" class="node"><title>Node8</title>
<a xlink:href="../../d3/de3/log_8hh.html" target="_top" xlink:title="harpoon/log/log.hh">
<polygon fill="white" stroke="black" points="64,-174.5 64,-195.5 160,-195.5 160,-174.5 64,-174.5"/>
<text text-anchor="middle" x="112" y="-182.5" font-family="Helvetica,sans-Serif" font-size="10.00">harpoon/log/log.hh</text>
</a>
</g>
<!-- Node7&#45;&gt;Node8 -->
<g id="edge16" class="edge"><title>Node7&#45;&gt;Node8</title>
<path fill="none" stroke="midnightblue" d="M255.982,-239.412C226.996,-228.458 181.561,-211.288 149.495,-199.17"/>
<polygon fill="midnightblue" stroke="midnightblue" points="150.597,-195.845 140.006,-195.584 148.123,-202.393 150.597,-195.845"/>
</g>
<!-- Node11 -->
<g id="node24" class="node"><title>Node11</title>
<polygon fill="white" stroke="#bfbfbf" points="215.5,-174.5 215.5,-195.5 244.5,-195.5 244.5,-174.5 215.5,-174.5"/>
<text text-anchor="middle" x="230" y="-182.5" font-family="Helvetica,sans-Serif" font-size="10.00">list</text>
</g>
<!-- Node7&#45;&gt;Node11 -->
<g id="edge26" class="edge"><title>Node7&#45;&gt;Node11</title>
<path fill="none" stroke="midnightblue" d="M275.083,-239.267C266.984,-229.517 254.866,-214.932 245.233,-203.336"/>
<polygon fill="midnightblue" stroke="midnightblue" points="247.833,-200.989 238.751,-195.534 242.449,-205.462 247.833,-200.989"/>
</g>
<!-- Node12 -->
<g id="node26" class="node"><title>Node12</title>
<polygon fill="white" stroke="#bfbfbf" points="449,-116.5 449,-137.5 495,-137.5 495,-116.5 449,-116.5"/>
<text text-anchor="middle" x="472" y="-124.5" font-family="Helvetica,sans-Serif" font-size="10.00">atomic</text>
</g>
<!-- Node7&#45;&gt;Node12 -->
<g id="edge28" class="edge"><title>Node7&#45;&gt;Node12</title>
<path fill="none" stroke="midnightblue" d="M297.908,-239.498C318.053,-224.432 356.699,-196.067 391,-174 408.259,-162.896 428.191,-151.316 443.964,-142.428"/>
<polygon fill="midnightblue" stroke="midnightblue" points="445.7,-145.468 452.719,-137.531 442.283,-139.359 445.7,-145.468"/>
</g>
<!-- Node13 -->
<g id="node28" class="node"><title>Node13</title>
<polygon fill="white" stroke="#bfbfbf" points="262,-174.5 262,-195.5 306,-195.5 306,-174.5 262,-174.5"/>
<text text-anchor="middle" x="284" y="-182.5" font-family="Helvetica,sans-Serif" font-size="10.00">mutex</text>
</g>
<!-- Node7&#45;&gt;Node13 -->
<g id="edge30" class="edge"><title>Node7&#45;&gt;Node13</title>
<path fill="none" stroke="midnightblue" d="M284,-239.267C284,-230.18 284,-216.892 284,-205.74"/>
<polygon fill="midnightblue" stroke="midnightblue" points="287.5,-205.534 284,-195.534 280.5,-205.534 287.5,-205.534"/>
</g>
<!-- Node8&#45;&gt;Node2 -->
<g id="edge18" class="edge"><title>Node8&#45;&gt;Node2</title>
<path fill="none" stroke="midnightblue" d="M118.664,-174.453C128.786,-159.288 149.474,-131.453 174,-116 203.838,-97.1992 241.509,-85.6488 272.801,-78.7057"/>
<polygon fill="midnightblue" stroke="midnightblue" points="273.658,-82.1019 282.718,-76.61 272.211,-75.2531 273.658,-82.1019"/>
</g>
<!-- Node9 -->
<g id="node19" class="node"><title>Node9</title>
<a xlink:href="../../d9/d74/message_8hh.html" target="_top" xlink:title="harpoon/log/message.hh">
<polygon fill="white" stroke="black" points="-0.5,-116.5 -0.5,-137.5 122.5,-137.5 122.5,-116.5 -0.5,-116.5"/>
<text text-anchor="middle" x="61" y="-124.5" font-family="Helvetica,sans-Serif" font-size="10.00">harpoon/log/message.hh</text>
</a>
</g>
<!-- Node8&#45;&gt;Node9 -->
<g id="edge20" class="edge"><title>Node8&#45;&gt;Node9</title>
<path fill="none" stroke="midnightblue" d="M102.646,-174.362C95.4567,-166.186 85.3591,-154.702 76.9073,-145.091"/>
<polygon fill="midnightblue" stroke="midnightblue" points="79.5267,-142.769 70.2949,-137.571 74.2699,-147.392 79.5267,-142.769"/>
</g>
<!-- Node9&#45;&gt;Node2 -->
<g id="edge22" class="edge"><title>Node9&#45;&gt;Node2</title>
<path fill="none" stroke="midnightblue" d="M110.438,-116.497C156.582,-106.693 225.508,-92.0496 274.616,-81.6165"/>
<polygon fill="midnightblue" stroke="midnightblue" points="275.415,-85.0249 284.469,-79.5231 273.96,-78.1777 275.415,-85.0249"/>
</g>
<!-- Node10 -->
<g id="node22" class="node"><title>Node10</title>
<polygon fill="white" stroke="#bfbfbf" points="35,-58.5 35,-79.5 87,-79.5 87,-58.5 35,-58.5"/>
<text text-anchor="middle" x="61" y="-66.5" font-family="Helvetica,sans-Serif" font-size="10.00">sstream</text>
</g>
<!-- Node9&#45;&gt;Node10 -->
<g id="edge24" class="edge"><title>Node9&#45;&gt;Node10</title>
<path fill="none" stroke="midnightblue" d="M61,-116.362C61,-108.922 61,-98.7427 61,-89.7276"/>
<polygon fill="midnightblue" stroke="midnightblue" points="64.5001,-89.5706 61,-79.5707 57.5001,-89.5707 64.5001,-89.5706"/>
</g>
<!-- Node14&#45;&gt;Node2 -->
<g id="edge34" class="edge"><title>Node14&#45;&gt;Node2</title>
<path fill="none" stroke="midnightblue" d="M530.22,-304.471C568.51,-282.047 648.212,-227.26 619,-174 595.936,-131.949 572.127,-134.79 528,-116 485.414,-97.8659 434.456,-85.8604 395.456,-78.5248"/>
<polygon fill="midnightblue" stroke="midnightblue" points="395.767,-75.0238 385.301,-76.669 394.509,-81.9098 395.767,-75.0238"/>
</g>
<!-- Node14&#45;&gt;Node7 -->
<g id="edge36" class="edge"><title>Node14&#45;&gt;Node7</title>
<path fill="none" stroke="midnightblue" d="M474.276,-304.484C435.128,-293.274 373.038,-275.496 330.502,-263.316"/>
<polygon fill="midnightblue" stroke="midnightblue" points="331.248,-259.889 320.671,-260.501 329.321,-266.618 331.248,-259.889"/>
</g>
<!-- Node15 -->
<g id="node34" class="node"><title>Node15</title>
<a xlink:href="../../d3/dce/tick_8hh.html" target="_top" xlink:title="harpoon/clock/tick.hh">
<polygon fill="white" stroke="black" points="500,-174.5 500,-195.5 610,-195.5 610,-174.5 500,-174.5"/>
<text text-anchor="middle" x="555" y="-182.5" font-family="Helvetica,sans-Serif" font-size="10.00">harpoon/clock/tick.hh</text>
</a>
</g>
<!-- Node14&#45;&gt;Node15 -->
<g id="edge38" class="edge"><title>Node14&#45;&gt;Node15</title>
<path fill="none" stroke="midnightblue" d="M517.818,-304.18C523.405,-294.893 531.156,-280.99 536,-268 543.669,-247.435 548.834,-222.805 551.819,-205.743"/>
<polygon fill="midnightblue" stroke="midnightblue" points="555.294,-206.179 553.47,-195.742 548.388,-205.038 555.294,-206.179"/>
</g>
<!-- Node16 -->
<g id="node38" class="node"><title>Node16</title>
<a xlink:href="../../d8/d45/generator_8hh.html" target="_top" xlink:title="harpoon/clock/generator\l/generator.hh">
<polygon fill="white" stroke="black" points="406.5,-233 406.5,-267 527.5,-267 527.5,-233 406.5,-233"/>
<text text-anchor="start" x="414.5" y="-254" font-family="Helvetica,sans-Serif" font-size="10.00">harpoon/clock/generator</text>
<text text-anchor="middle" x="467" y="-241" font-family="Helvetica,sans-Serif" font-size="10.00">/generator.hh</text>
</a>
</g>
<!-- Node14&#45;&gt;Node16 -->
<g id="edge44" class="edge"><title>Node14&#45;&gt;Node16</title>
<path fill="none" stroke="midnightblue" d="M503.734,-304.267C498.448,-296.458 491.062,-285.546 484.298,-275.554"/>
<polygon fill="midnightblue" stroke="midnightblue" points="487.086,-273.429 478.582,-267.11 481.289,-277.353 487.086,-273.429"/>
</g>
<!-- Node15&#45;&gt;Node2 -->
<g id="edge40" class="edge"><title>Node15&#45;&gt;Node2</title>
<path fill="none" stroke="midnightblue" d="M550.027,-174.382C542.335,-159.128 526.099,-131.184 504,-116 471.841,-93.9041 429.579,-82.1602 395.239,-75.9373"/>
<polygon fill="midnightblue" stroke="midnightblue" points="395.763,-72.4763 385.318,-74.2511 394.59,-79.3773 395.763,-72.4763"/>
</g>
<!-- Node15&#45;&gt;Node12 -->
<g id="edge42" class="edge"><title>Node15&#45;&gt;Node12</title>
<path fill="none" stroke="midnightblue" d="M539.777,-174.362C527.375,-165.696 509.654,-153.313 495.443,-143.382"/>
<polygon fill="midnightblue" stroke="midnightblue" points="497.329,-140.43 487.127,-137.571 493.319,-146.168 497.329,-140.43"/>
</g>
<!-- Node16&#45;&gt;Node2 -->
<g id="edge46" class="edge"><title>Node16&#45;&gt;Node2</title>
<path fill="none" stroke="midnightblue" d="M435.5,-232.947C420.504,-223.601 403.223,-210.886 391,-196 364.177,-163.331 347.399,-116.021 339.461,-89.3248"/>
<polygon fill="midnightblue" stroke="midnightblue" points="342.784,-88.216 336.68,-79.5565 336.052,-90.1327 342.784,-88.216"/>
</g>
<!-- Node16&#45;&gt;Node12 -->
<g id="edge50" class="edge"><title>Node16&#45;&gt;Node12</title>
<path fill="none" stroke="midnightblue" d="M467.695,-232.897C468.599,-210.673 470.175,-171.886 471.149,-147.929"/>
<polygon fill="midnightblue" stroke="midnightblue" points="474.652,-147.921 471.561,-137.787 467.658,-147.637 474.652,-147.921"/>
</g>
<!-- Node16&#45;&gt;Node15 -->
<g id="edge48" class="edge"><title>Node16&#45;&gt;Node15</title>
<path fill="none" stroke="midnightblue" d="M490.121,-232.922C503.113,-223.326 519.266,-211.394 532.205,-201.837"/>
<polygon fill="midnightblue" stroke="midnightblue" points="534.606,-204.415 540.57,-195.658 530.447,-198.784 534.606,-204.415"/>
</g>
<!-- Node17 -->
<g id="node43" class="node"><title>Node17</title>
<polygon fill="white" stroke="#bfbfbf" points="400,-174.5 400,-195.5 444,-195.5 444,-174.5 400,-174.5"/>
<text text-anchor="middle" x="422" y="-182.5" font-family="Helvetica,sans-Serif" font-size="10.00">thread</text>
</g>
<!-- Node16&#45;&gt;Node17 -->
<g id="edge52" class="edge"><title>Node16&#45;&gt;Node17</title>
<path fill="none" stroke="midnightblue" d="M455.177,-232.922C449.083,-224.12 441.63,-213.354 435.332,-204.258"/>
<polygon fill="midnightblue" stroke="midnightblue" points="438.083,-202.082 429.513,-195.852 432.327,-206.066 438.083,-202.082"/>
</g>
</g>
</svg>
        <g id="navigator" transform="translate(0 0)" fill="#404254">
                <rect fill="#f2f5e9" fill-opacity="0.5" stroke="#606060" stroke-width=".5" x="0" y="0" width="60" height="60"/>
                <use id="zoomplus" xlink:href="#zoomPlus" x="17" y="9" onmousedown="handleZoom(evt,'in')"/>
                <use id="zoomminus" xlink:href="#zoomMin" x="42" y="9" onmousedown="handleZoom(evt,'out')"/>
                <use id="reset" xlink:href="#resetDef" x="30" y="36" onmousedown="handleReset()"/>
                <g id="arrowUp" xlink:href="#dirArrow" transform="translate(30 24)" onmousedown="handlePan(0,-1)">
                  <use xlink:href="#rim" fill="#404040">
                        <set attributeName="fill" to="#808080" begin="arrowUp.mouseover" end="arrowUp.mouseout"/>
                  </use>
                  <path fill="none" stroke="white" stroke-width="1.5" d="M0,-3.0v7 M-2.5,-0.5L0,-3.0L2.5,-0.5"/>
                </g>
                <g id="arrowRight" xlink:href="#dirArrow" transform="rotate(90) translate(36 -43)" onmousedown="handlePan(1,0)">
                  <use xlink:href="#rim" fill="#404040">
                        <set attributeName="fill" to="#808080" begin="arrowRight.mouseover" end="arrowRight.mouseout"/>
                  </use>
                  <path fill="none" stroke="white" stroke-width="1.5" d="M0,-3.0v7 M-2.5,-0.5L0,-3.0L2.5,-0.5"/>
                </g>
                <g id="arrowDown" xlink:href="#dirArrow" transform="rotate(180) translate(-30 -48)" onmousedown="handlePan(0,1)">
                  <use xlink:href="#rim" fill="#404040">
                        <set attributeName="fill" to="#808080" begin="arrowDown.mouseover" end="arrowDown.mouseout"/>
                  </use>
                  <path fill="none" stroke="white" stroke-width="1.5" d="M0,-3.0v7 M-2.5,-0.5L0,-3.0L2.5,-0.5"/>
                </g>
                <g id="arrowLeft" xlink:href="#dirArrow" transform="rotate(270) translate(-36 17)" onmousedown="handlePan(-1,0)">
                  <use xlink:href="#rim" fill="#404040">
                        <set attributeName="fill" to="#808080" begin="arrowLeft.mouseover" end="arrowLeft.mouseout"/>
                  </use>
                  <path fill="none" stroke="white" stroke-width="1.5" d="M0,-3.0v7 M-2.5,-0.5L0,-3.0L2.5,-0.5"/>
                </g>
        </g>
        <svg viewBox="0 0 15 15" width="100%" height="30px" preserveAspectRatio="xMaxYMin meet">
         <g id="arrow_out" transform="scale(0.3 0.3)">
          <a xlink:href="execution__unit_8hh__incl_org.svg" target="_base">
           <rect id="button" ry="5" rx="5" y="6" x="6" height="38" width="38"
                fill="#f2f5e9" fill-opacity="0.5" stroke="#606060" stroke-width="1.0"/>
           <path id="arrow"
             d="M 11.500037,31.436501 C 11.940474,20.09759 22.043105,11.32322 32.158766,21.979434 L 37.068811,17.246167 C 37.068811,17.246167 37.088388,32 37.088388,32 L 22.160133,31.978069 C 22.160133,31.978069 26.997745,27.140456 26.997745,27.140456 C 18.528582,18.264221 13.291696,25.230495 11.500037,31.436501 z"
             style="fill:#404040;"/>
          </a>
         </g>
        </svg>
</svg>
