<?xml version="1.0" encoding="UTF-8" standalone="no"?>
<!DOCTYPE svg PUBLIC "-//W3C//DTD SVG 1.1//EN"
 "http://www.w3.org/Graphics/SVG/1.1/DTD/svg11.dtd">
<!-- Generated by graphviz version 2.26.3 (20100126.1600)
 -->
<!-- Title: harpoon::memory::linear_memory Pages: 1 -->
<!--zoomable 724 -->
<svg id="main" version="1.1" xmlns="http://www.w3.org/2000/svg" xmlns:xlink="http://www.w3.org/1999/xlink" xml:space="preserve" onload="init(evt)">
<style type="text/css"><![CDATA[
.edge:hover path { stroke: red; }
.edge:hover polygon { stroke: red; fill: red; }
]]></style>
<script type="text/javascript"><![CDATA[
var edges = document.getElementsByTagName('g');
if (edges && edges.length) {
  for (var i=0;i<edges.length;i++) {
    if (edges[i].id.substr(0,4)=='edge') {
      edges[i].setAttribute('class','edge');
    }
  }
}
]]></script>
        <defs>
                <circle id="rim" cx="0" cy="0" r="7"/>
                <circle id="rim2" cx="0" cy="0" r="3.5"/>
                <g id="zoomPlus">
                        <use xlink:href="#rim" fill="#404040">
                                <set attributeName="fill" to="#808080" begin="zoomplus.mouseover" end="zoomplus.mouseout"/>
                        </use>
                        <path d="M-4,0h8M0,-4v8" fill="none" stroke="white" stroke-width="1.5" pointer-events="none"/>
                </g>
                <g id="zoomMin">
                        <use xlink:href="#rim" fill="#404040">
                                <set attributeName="fill" to="#808080" begin="zoomminus.mouseover" end="zoomminus.mouseout"/>
                        </use>
                        <path d="M-4,0h8" fill="none" stroke="white" stroke-width="1.5" pointer-events="none"/>
                </g>
                <g id="dirArrow">
                        <path fill="none" stroke="white" stroke-width="1.5" d="M0,-3.0v7 M-2.5,-0.5L0,-3.0L2.5,-0.5"/>
                </g>
               <g id="resetDef">
                       <use xlink:href="#rim2" fill="#404040">
                               <set attributeName="fill" to="#808080" begin="reset.mouseover" end="reset.mouseout"/>
                       </use>
               </g>
        </defs>

<script type="text/javascript">
var viewWidth = 158;
var viewHeight = 724;
var sectionId = 'dynsection-1';
</script>
<script xlink:href="../../svgpan.js"/>
<svg id="graph" class="graph">
<g id="viewport">
<title>harpoon::memory::linear_memory</title>
<polygon fill="white" stroke="white" points="-4,5 -4,-720 155,-720 155,5 -4,5"/>
<!-- Node1 -->
<g id="node1" class="node"><title>Node1</title>
<polygon fill="#bfbfbf" stroke="black" points="14,-0.5 14,-167.5 136,-167.5 136,-0.5 14,-0.5"/>
<text text-anchor="start" x="22" y="-154.5" font-family="Helvetica,sans-Serif" font-size="10.00">harpoon::memory::linear</text>
<text text-anchor="middle" x="75" y="-141.5" font-family="Helvetica,sans-Serif" font-size="10.00">_memory</text>
<polyline fill="none" stroke="black" points="14,-133.5 136,-133.5 "/>
<text text-anchor="middle" x="75" y="-120.5" font-family="Helvetica,sans-Serif" font-size="10.00"> </text>
<polyline fill="none" stroke="black" points="14,-112.5 136,-112.5 "/>
<text text-anchor="start" x="22" y="-99.5" font-family="Helvetica,sans-Serif" font-size="10.00">+ linear_memory()</text>
<text text-anchor="start" x="22" y="-86.5" font-family="Helvetica,sans-Serif" font-size="10.00">+ linear_memory()</text>
<text text-anchor="start" x="22" y="-73.5" font-family="Helvetica,sans-Serif" font-size="10.00">+ operator=()</text>
<text text-anchor="start" x="22" y="-60.5" font-family="Helvetica,sans-Serif" font-size="10.00">+ prepare()</text>
<text text-anchor="start" x="22" y="-47.5" font-family="Helvetica,sans-Serif" font-size="10.00">+ cleanup()</text>
<text text-anchor="start" x="22" y="-34.5" font-family="Helvetica,sans-Serif" font-size="10.00">+ get()</text>
<text text-anchor="start" x="22" y="-21.5" font-family="Helvetica,sans-Serif" font-size="10.00">+ set()</text>
<text text-anchor="start" x="22" y="-8.5" font-family="Helvetica,sans-Serif" font-size="10.00">+ ~linear_memory()</text>
</g>
<!-- Node2 -->
<g id="node2" class="node"><title>Node2</title>
<a xlink:href="../../db/d2f/classharpoon_1_1memory_1_1memory.html" target="_top" xlink:title="{harpoon::memory::memory\n||+ memory()\l+ get_address_range()\l+ get_address_range()\l+ set_address_range()\l+ has_address()\l+ get()\l+ set()\l+ ~memory()\l}">
<polygon fill="white" stroke="black" points="8,-205 8,-359 142,-359 142,-205 8,-205"/>
<text text-anchor="middle" x="75" y="-346" font-family="Helvetica,sans-Serif" font-size="10.00">harpoon::memory::memory</text>
<polyline fill="none" stroke="black" points="8,-338 142,-338 "/>
<text text-anchor="middle" x="75" y="-325" font-family="Helvetica,sans-Serif" font-size="10.00"> </text>
<polyline fill="none" stroke="black" points="8,-317 142,-317 "/>
<text text-anchor="start" x="16" y="-304" font-family="Helvetica,sans-Serif" font-size="10.00">+ memory()</text>
<text text-anchor="start" x="16" y="-291" font-family="Helvetica,sans-Serif" font-size="10.00">+ get_address_range()</text>
<text text-anchor="start" x="16" y="-278" font-family="Helvetica,sans-Serif" font-size="10.00">+ get_address_range()</text>
<text text-anchor="start" x="16" y="-265" font-family="Helvetica,sans-Serif" font-size="10.00">+ set_address_range()</text>
<text text-anchor="start" x="16" y="-252" font-family="Helvetica,sans-Serif" font-size="10.00">+ has_address()</text>
<text text-anchor="start" x="16" y="-239" font-family="Helvetica,sans-Serif" font-size="10.00">+ get()</text>
<text text-anchor="start" x="16" y="-226" font-family="Helvetica,sans-Serif" font-size="10.00">+ set()</text>
<text text-anchor="start" x="16" y="-213" font-family="Helvetica,sans-Serif" font-size="10.00">+ ~memory()</text>
</a>
</g>
<!-- Node2&#45;&gt;Node1 -->
<g id="edge2" class="edge"><title>Node2&#45;&gt;Node1</title>
<path fill="none" stroke="midnightblue" d="M75,-194.817C75,-185.839 75,-176.73 75,-167.79"/>
<polygon fill="none" stroke="midnightblue" points="71.5001,-194.881 75,-204.881 78.5001,-194.881 71.5001,-194.881"/>
</g>
<!-- Node3 -->
<g id="node4" class="node"><title>Node3</title>
<a xlink:href="../../df/d54/classharpoon_1_1hardware__component.html" target="_top" xlink:title="Base class for all hardware components of computer system (i.e. CPU, memory). All components should d...">
<polygon fill="white" stroke="black" points="0,-396.5 0,-589.5 150,-589.5 150,-396.5 0,-396.5"/>
<text text-anchor="middle" x="75" y="-576.5" font-family="Helvetica,sans-Serif" font-size="10.00">harpoon::hardware_component</text>
<polyline fill="none" stroke="black" points="0,-568.5 150,-568.5 "/>
<text text-anchor="middle" x="75" y="-555.5" font-family="Helvetica,sans-Serif" font-size="10.00"> </text>
<polyline fill="none" stroke="black" points="0,-547.5 150,-547.5 "/>
<text text-anchor="start" x="8" y="-534.5" font-family="Helvetica,sans-Serif" font-size="10.00">+ hardware_component()</text>
<text text-anchor="start" x="8" y="-521.5" font-family="Helvetica,sans-Serif" font-size="10.00">+ hardware_component()</text>
<text text-anchor="start" x="8" y="-508.5" font-family="Helvetica,sans-Serif" font-size="10.00">+ operator=()</text>
<text text-anchor="start" x="8" y="-495.5" font-family="Helvetica,sans-Serif" font-size="10.00">+ ~hardware_component()</text>
<text text-anchor="start" x="8" y="-482.5" font-family="Helvetica,sans-Serif" font-size="10.00">+ add_component()</text>
<text text-anchor="start" x="8" y="-469.5" font-family="Helvetica,sans-Serif" font-size="10.00">+ remove_component()</text>
<text text-anchor="start" x="8" y="-456.5" font-family="Helvetica,sans-Serif" font-size="10.00">+ replace_component()</text>
<text text-anchor="start" x="8" y="-443.5" font-family="Helvetica,sans-Serif" font-size="10.00">+ prepare()</text>
<text text-anchor="start" x="8" y="-430.5" font-family="Helvetica,sans-Serif" font-size="10.00">+ cleanup()</text>
<text text-anchor="start" x="8" y="-417.5" font-family="Helvetica,sans-Serif" font-size="10.00">+ boot()</text>
<text text-anchor="start" x="8" y="-404.5" font-family="Helvetica,sans-Serif" font-size="10.00">and 10 more...</text>
</a>
</g>
<!-- Node3&#45;&gt;Node2 -->
<g id="edge4" class="edge"><title>Node3&#45;&gt;Node2</title>
<path fill="none" stroke="midnightblue" d="M75,-386.194C75,-377.098 75,-368.016 75,-359.217"/>
<polygon fill="none" stroke="midnightblue" points="71.5001,-386.454 75,-396.454 78.5001,-386.454 71.5001,-386.454"/>
</g>
<!-- Node4 -->
<g id="node6" class="node"><title>Node4</title>
<polygon fill="white" stroke="#bfbfbf" points="19.5,-626.5 19.5,-715.5 130.5,-715.5 130.5,-626.5 19.5,-626.5"/>
<text text-anchor="start" x="27.5" y="-702.5" font-family="Helvetica,sans-Serif" font-size="10.00">std::enable_shared</text>
<text text-anchor="start" x="27.5" y="-689.5" font-family="Helvetica,sans-Serif" font-size="10.00">_from_this&lt; hardware</text>
<text text-anchor="middle" x="75" y="-676.5" font-family="Helvetica,sans-Serif" font-size="10.00">_component &gt;</text>
<polyline fill="none" stroke="#bfbfbf" points="19.5,-668.5 130.5,-668.5 "/>
<text text-anchor="middle" x="75" y="-655.5" font-family="Helvetica,sans-Serif" font-size="10.00"> </text>
<polyline fill="none" stroke="#bfbfbf" points="19.5,-647.5 130.5,-647.5 "/>
<text text-anchor="middle" x="75" y="-634.5" font-family="Helvetica,sans-Serif" font-size="10.00"> </text>
</g>
<!-- Node4&#45;&gt;Node3 -->
<g id="edge6" class="edge"><title>Node4&#45;&gt;Node3</title>
<path fill="none" stroke="midnightblue" d="M75,-616.059C75,-607.626 75,-598.712 75,-589.692"/>
<polygon fill="none" stroke="midnightblue" points="71.5001,-616.083 75,-626.083 78.5001,-616.083 71.5001,-616.083"/>
</g>
</g>
</svg>
        <g id="navigator" transform="translate(0 0)" fill="#404254">
                <rect fill="#f2f5e9" fill-opacity="0.5" stroke="#606060" stroke-width=".5" x="0" y="0" width="60" height="60"/>
                <use id="zoomplus" xlink:href="#zoomPlus" x="17" y="9" onmousedown="handleZoom(evt,'in')"/>
                <use id="zoomminus" xlink:href="#zoomMin" x="42" y="9" onmousedown="handleZoom(evt,'out')"/>
                <use id="reset" xlink:href="#resetDef" x="30" y="36" onmousedown="handleReset()"/>
                <g id="arrowUp" xlink:href="#dirArrow" transform="translate(30 24)" onmousedown="handlePan(0,-1)">
                  <use xlink:href="#rim" fill="#404040">
                        <set attributeName="fill" to="#808080" begin="arrowUp.mouseover" end="arrowUp.mouseout"/>
                  </use>
                  <path fill="none" stroke="white" stroke-width="1.5" d="M0,-3.0v7 M-2.5,-0.5L0,-3.0L2.5,-0.5"/>
                </g>
                <g id="arrowRight" xlink:href="#dirArrow" transform="rotate(90) translate(36 -43)" onmousedown="handlePan(1,0)">
                  <use xlink:href="#rim" fill="#404040">
                        <set attributeName="fill" to="#808080" begin="arrowRight.mouseover" end="arrowRight.mouseout"/>
                  </use>
                  <path fill="none" stroke="white" stroke-width="1.5" d="M0,-3.0v7 M-2.5,-0.5L0,-3.0L2.5,-0.5"/>
                </g>
                <g id="arrowDown" xlink:href="#dirArrow" transform="rotate(180) translate(-30 -48)" onmousedown="handlePan(0,1)">
                  <use xlink:href="#rim" fill="#404040">
                        <set attributeName="fill" to="#808080" begin="arrowDown.mouseover" end="arrowDown.mouseout"/>
                  </use>
                  <path fill="none" stroke="white" stroke-width="1.5" d="M0,-3.0v7 M-2.5,-0.5L0,-3.0L2.5,-0.5"/>
                </g>
                <g id="arrowLeft" xlink:href="#dirArrow" transform="rotate(270) translate(-36 17)" onmousedown="handlePan(-1,0)">
                  <use xlink:href="#rim" fill="#404040">
                        <set attributeName="fill" to="#808080" begin="arrowLeft.mouseover" end="arrowLeft.mouseout"/>
                  </use>
                  <path fill="none" stroke="white" stroke-width="1.5" d="M0,-3.0v7 M-2.5,-0.5L0,-3.0L2.5,-0.5"/>
                </g>
        </g>
        <svg viewBox="0 0 15 15" width="100%" height="30px" preserveAspectRatio="xMaxYMin meet">
         <g id="arrow_out" transform="scale(0.3 0.3)">
          <a xlink:href="classharpoon_1_1memory_1_1linear__memory__coll__graph_org.svg" target="_base">
           <rect id="button" ry="5" rx="5" y="6" x="6" height="38" width="38"
                fill="#f2f5e9" fill-opacity="0.5" stroke="#606060" stroke-width="1.0"/>
           <path id="arrow"
             d="M 11.500037,31.436501 C 11.940474,20.09759 22.043105,11.32322 32.158766,21.979434 L 37.068811,17.246167 C 37.068811,17.246167 37.088388,32 37.088388,32 L 22.160133,31.978069 C 22.160133,31.978069 26.997745,27.140456 26.997745,27.140456 C 18.528582,18.264221 13.291696,25.230495 11.500037,31.436501 z"
             style="fill:#404040;"/>
          </a>
         </g>
        </svg>
</svg>
