<?xml version="1.0" encoding="UTF-8" standalone="no"?>
<!DOCTYPE svg PUBLIC "-//W3C//DTD SVG 1.1//EN"
 "http://www.w3.org/Graphics/SVG/1.1/DTD/svg11.dtd">
<!-- Generated by graphviz version 2.26.3 (20100126.1600)
 -->
<!-- Title: harpoon::exception::hardware_component_exception Pages: 1 -->
<!--zoomable 952 -->
<svg id="main" version="1.1" xmlns="http://www.w3.org/2000/svg" xmlns:xlink="http://www.w3.org/1999/xlink" xml:space="preserve" onload="init(evt)">
<style type="text/css"><![CDATA[
.edge:hover path { stroke: red; }
.edge:hover polygon { stroke: red; fill: red; }
]]></style>
<script type="text/javascript"><![CDATA[
var edges = document.getElementsByTagName('g');
if (edges && edges.length) {
  for (var i=0;i<edges.length;i++) {
    if (edges[i].id.substr(0,4)=='edge') {
      edges[i].setAttribute('class','edge');
    }
  }
}
]]></script>
        <defs>
                <circle id="rim" cx="0" cy="0" r="7"/>
                <circle id="rim2" cx="0" cy="0" r="3.5"/>
                <g id="zoomPlus">
                        <use xlink:href="#rim" fill="#404040">
                                <set attributeName="fill" to="#808080" begin="zoomplus.mouseover" end="zoomplus.mouseout"/>
                        </use>
                        <path d="M-4,0h8M0,-4v8" fill="none" stroke="white" stroke-width="1.5" pointer-events="none"/>
                </g>
                <g id="zoomMin">
                        <use xlink:href="#rim" fill="#404040">
                                <set attributeName="fill" to="#808080" begin="zoomminus.mouseover" end="zoomminus.mouseout"/>
                        </use>
                        <path d="M-4,0h8" fill="none" stroke="white" stroke-width="1.5" pointer-events="none"/>
                </g>
                <g id="dirArrow">
                        <path fill="none" stroke="white" stroke-width="1.5" d="M0,-3.0v7 M-2.5,-0.5L0,-3.0L2.5,-0.5"/>
                </g>
               <g id="resetDef">
                       <use xlink:href="#rim2" fill="#404040">
                               <set attributeName="fill" to="#808080" begin="reset.mouseover" end="reset.mouseout"/>
                       </use>
               </g>
        </defs>

<script type="text/javascript">
var viewWidth = 371;
var viewHeight = 952;
var sectionId = 'dynsection-0';
</script>
<script xlink:href="../../svgpan.js"/>
<svg id="graph" class="graph">
<g id="viewport">
<title>harpoon::exception::hardware_component_exception</title>
<polygon fill="white" stroke="white" points="-4,5 -4,-948 368,-948 368,5 -4,5"/>
<!-- Node1 -->
<g id="node1" class="node"><title>Node1</title>
<polygon fill="#bfbfbf" stroke="black" points="75.5,-471 75.5,-651 200.5,-651 200.5,-471 75.5,-471"/>
<text text-anchor="start" x="83.5" y="-638" font-family="Helvetica,sans-Serif" font-size="10.00">harpoon::exception</text>
<text text-anchor="start" x="83.5" y="-625" font-family="Helvetica,sans-Serif" font-size="10.00">::hardware_component</text>
<text text-anchor="middle" x="138" y="-612" font-family="Helvetica,sans-Serif" font-size="10.00">_exception</text>
<polyline fill="none" stroke="black" points="75.5,-604 200.5,-604 "/>
<text text-anchor="middle" x="138" y="-591" font-family="Helvetica,sans-Serif" font-size="10.00"> </text>
<polyline fill="none" stroke="black" points="75.5,-583 200.5,-583 "/>
<text text-anchor="start" x="83.5" y="-570" font-family="Helvetica,sans-Serif" font-size="10.00">+ hardware_component</text>
<text text-anchor="start" x="83.5" y="-557" font-family="Helvetica,sans-Serif" font-size="10.00">_exception()</text>
<text text-anchor="start" x="83.5" y="-544" font-family="Helvetica,sans-Serif" font-size="10.00">+ hardware_component</text>
<text text-anchor="start" x="83.5" y="-531" font-family="Helvetica,sans-Serif" font-size="10.00">_exception()</text>
<text text-anchor="start" x="83.5" y="-518" font-family="Helvetica,sans-Serif" font-size="10.00">+ operator=()</text>
<text text-anchor="start" x="83.5" y="-505" font-family="Helvetica,sans-Serif" font-size="10.00">+ get_component()</text>
<text text-anchor="start" x="83.5" y="-492" font-family="Helvetica,sans-Serif" font-size="10.00">+ ~hardware_component</text>
<text text-anchor="start" x="83.5" y="-479" font-family="Helvetica,sans-Serif" font-size="10.00">_exception()</text>
</g>
<!-- Node4 -->
<g id="node7" class="node"><title>Node4</title>
<a xlink:href="../../db/da5/classharpoon_1_1execution_1_1exception_1_1execution__exception.html" target="_top" xlink:title="{harpoon::execution\l::exception::execution\l_exception\n||+ execution_exception()\l+ operator=()\l+ ~execution_exception()\l}">
<polygon fill="white" stroke="black" points="-0.5,-318.5 -0.5,-433.5 126.5,-433.5 126.5,-318.5 -0.5,-318.5"/>
<text text-anchor="start" x="7.5" y="-420.5" font-family="Helvetica,sans-Serif" font-size="10.00">harpoon::execution</text>
<text text-anchor="start" x="7.5" y="-407.5" font-family="Helvetica,sans-Serif" font-size="10.00">::exception::execution</text>
<text text-anchor="middle" x="63" y="-394.5" font-family="Helvetica,sans-Serif" font-size="10.00">_exception</text>
<polyline fill="none" stroke="black" points="-0.5,-386.5 126.5,-386.5 "/>
<text text-anchor="middle" x="63" y="-373.5" font-family="Helvetica,sans-Serif" font-size="10.00"> </text>
<polyline fill="none" stroke="black" points="-0.5,-365.5 126.5,-365.5 "/>
<text text-anchor="start" x="7.5" y="-352.5" font-family="Helvetica,sans-Serif" font-size="10.00">+ execution_exception()</text>
<text text-anchor="start" x="7.5" y="-339.5" font-family="Helvetica,sans-Serif" font-size="10.00">+ operator=()</text>
<text text-anchor="start" x="7.5" y="-326.5" font-family="Helvetica,sans-Serif" font-size="10.00">+ ~execution_exception()</text>
</a>
</g>
<!-- Node1&#45;&gt;Node4 -->
<g id="edge6" class="edge"><title>Node1&#45;&gt;Node4</title>
<path fill="none" stroke="midnightblue" d="M97.6343,-461.431C93.7875,-451.942 89.981,-442.553 86.3783,-433.666"/>
<polygon fill="none" stroke="midnightblue" points="94.488,-462.986 101.489,-470.939 100.975,-460.356 94.488,-462.986"/>
</g>
<!-- Node6 -->
<g id="node11" class="node"><title>Node6</title>
<a xlink:href="../../dd/de3/classharpoon_1_1memory_1_1exception_1_1memory__exception.html" target="_top" xlink:title="{harpoon::memory::exception\l::memory_exception\n||+ memory_exception()\l+ operator=()\l+ ~memory_exception()\l}">
<polygon fill="white" stroke="black" points="144,-325 144,-427 284,-427 284,-325 144,-325"/>
<text text-anchor="start" x="152" y="-414" font-family="Helvetica,sans-Serif" font-size="10.00">harpoon::memory::exception</text>
<text text-anchor="middle" x="214" y="-401" font-family="Helvetica,sans-Serif" font-size="10.00">::memory_exception</text>
<polyline fill="none" stroke="black" points="144,-393 284,-393 "/>
<text text-anchor="middle" x="214" y="-380" font-family="Helvetica,sans-Serif" font-size="10.00"> </text>
<polyline fill="none" stroke="black" points="144,-372 284,-372 "/>
<text text-anchor="start" x="152" y="-359" font-family="Helvetica,sans-Serif" font-size="10.00">+ memory_exception()</text>
<text text-anchor="start" x="152" y="-346" font-family="Helvetica,sans-Serif" font-size="10.00">+ operator=()</text>
<text text-anchor="start" x="152" y="-333" font-family="Helvetica,sans-Serif" font-size="10.00">+ ~memory_exception()</text>
</a>
</g>
<!-- Node1&#45;&gt;Node6 -->
<g id="edge10" class="edge"><title>Node1&#45;&gt;Node6</title>
<path fill="none" stroke="midnightblue" d="M178.914,-461.406C183.788,-449.542 188.598,-437.834 193.02,-427.071"/>
<polygon fill="none" stroke="midnightblue" points="175.561,-460.359 174.998,-470.939 182.036,-463.019 175.561,-460.359"/>
</g>
<!-- Node2 -->
<g id="node2" class="node"><title>Node2</title>
<a xlink:href="../../d0/d5b/classharpoon_1_1exception_1_1harpoon__exception.html" target="_top" xlink:title="{harpoon::exception\l::harpoon_exception\n||+ harpoon_exception()\l+ harpoon_exception()\l+ operator=()\l+ set_what()\l+ get_what()\l+ what()\l+ ~harpoon_exception()\l}">
<polygon fill="white" stroke="black" points="78.5,-689 78.5,-843 197.5,-843 197.5,-689 78.5,-689"/>
<text text-anchor="start" x="86.5" y="-830" font-family="Helvetica,sans-Serif" font-size="10.00">harpoon::exception</text>
<text text-anchor="middle" x="138" y="-817" font-family="Helvetica,sans-Serif" font-size="10.00">::harpoon_exception</text>
<polyline fill="none" stroke="black" points="78.5,-809 197.5,-809 "/>
<text text-anchor="middle" x="138" y="-796" font-family="Helvetica,sans-Serif" font-size="10.00"> </text>
<polyline fill="none" stroke="black" points="78.5,-788 197.5,-788 "/>
<text text-anchor="start" x="86.5" y="-775" font-family="Helvetica,sans-Serif" font-size="10.00">+ harpoon_exception()</text>
<text text-anchor="start" x="86.5" y="-762" font-family="Helvetica,sans-Serif" font-size="10.00">+ harpoon_exception()</text>
<text text-anchor="start" x="86.5" y="-749" font-family="Helvetica,sans-Serif" font-size="10.00">+ operator=()</text>
<text text-anchor="start" x="86.5" y="-736" font-family="Helvetica,sans-Serif" font-size="10.00">+ set_what()</text>
<text text-anchor="start" x="86.5" y="-723" font-family="Helvetica,sans-Serif" font-size="10.00">+ get_what()</text>
<text text-anchor="start" x="86.5" y="-710" font-family="Helvetica,sans-Serif" font-size="10.00">+ what()</text>
<text text-anchor="start" x="86.5" y="-697" font-family="Helvetica,sans-Serif" font-size="10.00">+ ~harpoon_exception()</text>
</a>
</g>
<!-- Node2&#45;&gt;Node1 -->
<g id="edge2" class="edge"><title>Node2&#45;&gt;Node1</title>
<path fill="none" stroke="midnightblue" d="M138,-678.635C138,-669.566 138,-660.335 138,-651.235"/>
<polygon fill="none" stroke="midnightblue" points="134.5,-678.79 138,-688.79 141.5,-678.79 134.5,-678.79"/>
</g>
<!-- Node3 -->
<g id="node4" class="node"><title>Node3</title>
<polygon fill="white" stroke="#bfbfbf" points="91.5,-880.5 91.5,-943.5 184.5,-943.5 184.5,-880.5 91.5,-880.5"/>
<text text-anchor="middle" x="138" y="-930.5" font-family="Helvetica,sans-Serif" font-size="10.00">std::runtime_error</text>
<polyline fill="none" stroke="#bfbfbf" points="91.5,-922.5 184.5,-922.5 "/>
<text text-anchor="middle" x="138" y="-909.5" font-family="Helvetica,sans-Serif" font-size="10.00"> </text>
<polyline fill="none" stroke="#bfbfbf" points="91.5,-901.5 184.5,-901.5 "/>
<text text-anchor="middle" x="138" y="-888.5" font-family="Helvetica,sans-Serif" font-size="10.00"> </text>
</g>
<!-- Node3&#45;&gt;Node2 -->
<g id="edge4" class="edge"><title>Node3&#45;&gt;Node2</title>
<path fill="none" stroke="midnightblue" d="M138,-870.288C138,-861.742 138,-852.491 138,-843.148"/>
<polygon fill="none" stroke="midnightblue" points="134.5,-870.32 138,-880.32 141.5,-870.32 134.5,-870.32"/>
</g>
<!-- Node5 -->
<g id="node9" class="node"><title>Node5</title>
<a xlink:href="../../dd/d45/classharpoon_1_1execution_1_1exception_1_1invalid__instruction.html" target="_top" xlink:title="{harpoon::execution\l::exception::invalid\l_instruction\n||+ invalid_instruction()\l+ invalid_instruction()\l+ operator=()\l+ ~invalid_instruction()\l}">
<polygon fill="white" stroke="black" points="5,-153 5,-281 121,-281 121,-153 5,-153"/>
<text text-anchor="start" x="13" y="-268" font-family="Helvetica,sans-Serif" font-size="10.00">harpoon::execution</text>
<text text-anchor="start" x="13" y="-255" font-family="Helvetica,sans-Serif" font-size="10.00">::exception::invalid</text>
<text text-anchor="middle" x="63" y="-242" font-family="Helvetica,sans-Serif" font-size="10.00">_instruction</text>
<polyline fill="none" stroke="black" points="5,-234 121,-234 "/>
<text text-anchor="middle" x="63" y="-221" font-family="Helvetica,sans-Serif" font-size="10.00"> </text>
<polyline fill="none" stroke="black" points="5,-213 121,-213 "/>
<text text-anchor="start" x="13" y="-200" font-family="Helvetica,sans-Serif" font-size="10.00">+ invalid_instruction()</text>
<text text-anchor="start" x="13" y="-187" font-family="Helvetica,sans-Serif" font-size="10.00">+ invalid_instruction()</text>
<text text-anchor="start" x="13" y="-174" font-family="Helvetica,sans-Serif" font-size="10.00">+ operator=()</text>
<text text-anchor="start" x="13" y="-161" font-family="Helvetica,sans-Serif" font-size="10.00">+ ~invalid_instruction()</text>
</a>
</g>
<!-- Node4&#45;&gt;Node5 -->
<g id="edge8" class="edge"><title>Node4&#45;&gt;Node5</title>
<path fill="none" stroke="midnightblue" d="M63,-307.892C63,-299.057 63,-290.031 63,-281.262"/>
<polygon fill="none" stroke="midnightblue" points="59.5001,-308.148 63,-318.148 66.5001,-308.148 59.5001,-308.148"/>
</g>
<!-- Node7 -->
<g id="node13" class="node"><title>Node7</title>
<a xlink:href="../../d2/dc6/classharpoon_1_1memory_1_1exception_1_1access__violation.html" target="_top" xlink:title="{harpoon::memory::exception\l::access_violation\n||+ access_violation()\l+ access_violation()\l+ operator=()\l+ get_address()\l+ ~access_violation()\l}">
<polygon fill="white" stroke="black" points="144,-153 144,-281 284,-281 284,-153 144,-153"/>
<text text-anchor="start" x="152" y="-268" font-family="Helvetica,sans-Serif" font-size="10.00">harpoon::memory::exception</text>
<text text-anchor="middle" x="214" y="-255" font-family="Helvetica,sans-Serif" font-size="10.00">::access_violation</text>
<polyline fill="none" stroke="black" points="144,-247 284,-247 "/>
<text text-anchor="middle" x="214" y="-234" font-family="Helvetica,sans-Serif" font-size="10.00"> </text>
<polyline fill="none" stroke="black" points="144,-226 284,-226 "/>
<text text-anchor="start" x="152" y="-213" font-family="Helvetica,sans-Serif" font-size="10.00">+ access_violation()</text>
<text text-anchor="start" x="152" y="-200" font-family="Helvetica,sans-Serif" font-size="10.00">+ access_violation()</text>
<text text-anchor="start" x="152" y="-187" font-family="Helvetica,sans-Serif" font-size="10.00">+ operator=()</text>
<text text-anchor="start" x="152" y="-174" font-family="Helvetica,sans-Serif" font-size="10.00">+ get_address()</text>
<text text-anchor="start" x="152" y="-161" font-family="Helvetica,sans-Serif" font-size="10.00">+ ~access_violation()</text>
</a>
</g>
<!-- Node6&#45;&gt;Node7 -->
<g id="edge12" class="edge"><title>Node6&#45;&gt;Node7</title>
<path fill="none" stroke="midnightblue" d="M214,-314.52C214,-303.598 214,-292.196 214,-281.201"/>
<polygon fill="none" stroke="midnightblue" points="210.5,-314.816 214,-324.816 217.5,-314.816 210.5,-314.816"/>
</g>
<!-- Node8 -->
<g id="node15" class="node"><title>Node8</title>
<a xlink:href="../../de/db7/classharpoon_1_1memory_1_1exception_1_1read__access__violation.html" target="_top" xlink:title="{harpoon::memory::exception\l::read_access_violation\n||+ read_access_violation()\l+ read_access_violation()\l+ operator=()\l+ ~read_access_violation()\l}">
<polygon fill="white" stroke="black" points="65,-0.5 65,-115.5 205,-115.5 205,-0.5 65,-0.5"/>
<text text-anchor="start" x="73" y="-102.5" font-family="Helvetica,sans-Serif" font-size="10.00">harpoon::memory::exception</text>
<text text-anchor="middle" x="135" y="-89.5" font-family="Helvetica,sans-Serif" font-size="10.00">::read_access_violation</text>
<polyline fill="none" stroke="black" points="65,-81.5 205,-81.5 "/>
<text text-anchor="middle" x="135" y="-68.5" font-family="Helvetica,sans-Serif" font-size="10.00"> </text>
<polyline fill="none" stroke="black" points="65,-60.5 205,-60.5 "/>
<text text-anchor="start" x="73" y="-47.5" font-family="Helvetica,sans-Serif" font-size="10.00">+ read_access_violation()</text>
<text text-anchor="start" x="73" y="-34.5" font-family="Helvetica,sans-Serif" font-size="10.00">+ read_access_violation()</text>
<text text-anchor="start" x="73" y="-21.5" font-family="Helvetica,sans-Serif" font-size="10.00">+ operator=()</text>
<text text-anchor="start" x="73" y="-8.5" font-family="Helvetica,sans-Serif" font-size="10.00">+ ~read_access_violation()</text>
</a>
</g>
<!-- Node7&#45;&gt;Node8 -->
<g id="edge14" class="edge"><title>Node7&#45;&gt;Node8</title>
<path fill="none" stroke="midnightblue" d="M177.61,-143.76C172.904,-134.289 168.139,-124.698 163.584,-115.53"/>
<polygon fill="none" stroke="midnightblue" points="174.511,-145.389 182.095,-152.787 180.78,-142.274 174.511,-145.389"/>
</g>
<!-- Node9 -->
<g id="node17" class="node"><title>Node9</title>
<a xlink:href="../../da/d66/classharpoon_1_1memory_1_1exception_1_1write__access__violation.html" target="_top" xlink:title="{harpoon::memory::exception\l::write_access_violation\n||+ write_access_violation()\l+ write_access_violation()\l+ operator=()\l+ ~write_access_violation()\l}">
<polygon fill="white" stroke="black" points="223,-0.5 223,-115.5 363,-115.5 363,-0.5 223,-0.5"/>
<text text-anchor="start" x="231" y="-102.5" font-family="Helvetica,sans-Serif" font-size="10.00">harpoon::memory::exception</text>
<text text-anchor="middle" x="293" y="-89.5" font-family="Helvetica,sans-Serif" font-size="10.00">::write_access_violation</text>
<polyline fill="none" stroke="black" points="223,-81.5 363,-81.5 "/>
<text text-anchor="middle" x="293" y="-68.5" font-family="Helvetica,sans-Serif" font-size="10.00"> </text>
<polyline fill="none" stroke="black" points="223,-60.5 363,-60.5 "/>
<text text-anchor="start" x="231" y="-47.5" font-family="Helvetica,sans-Serif" font-size="10.00">+ write_access_violation()</text>
<text text-anchor="start" x="231" y="-34.5" font-family="Helvetica,sans-Serif" font-size="10.00">+ write_access_violation()</text>
<text text-anchor="start" x="231" y="-21.5" font-family="Helvetica,sans-Serif" font-size="10.00">+ operator=()</text>
<text text-anchor="start" x="231" y="-8.5" font-family="Helvetica,sans-Serif" font-size="10.00">+ ~write_access_violation()</text>
</a>
</g>
<!-- Node7&#45;&gt;Node9 -->
<g id="edge16" class="edge"><title>Node7&#45;&gt;Node9</title>
<path fill="none" stroke="midnightblue" d="M250.39,-143.76C255.096,-134.289 259.861,-124.698 264.416,-115.53"/>
<polygon fill="none" stroke="midnightblue" points="247.22,-142.274 245.905,-152.787 253.489,-145.389 247.22,-142.274"/>
</g>
</g>
</svg>
        <g id="navigator" transform="translate(0 0)" fill="#404254">
                <rect fill="#f2f5e9" fill-opacity="0.5" stroke="#606060" stroke-width=".5" x="0" y="0" width="60" height="60"/>
                <use id="zoomplus" xlink:href="#zoomPlus" x="17" y="9" onmousedown="handleZoom(evt,'in')"/>
                <use id="zoomminus" xlink:href="#zoomMin" x="42" y="9" onmousedown="handleZoom(evt,'out')"/>
                <use id="reset" xlink:href="#resetDef" x="30" y="36" onmousedown="handleReset()"/>
                <g id="arrowUp" xlink:href="#dirArrow" transform="translate(30 24)" onmousedown="handlePan(0,-1)">
                  <use xlink:href="#rim" fill="#404040">
                        <set attributeName="fill" to="#808080" begin="arrowUp.mouseover" end="arrowUp.mouseout"/>
                  </use>
                  <path fill="none" stroke="white" stroke-width="1.5" d="M0,-3.0v7 M-2.5,-0.5L0,-3.0L2.5,-0.5"/>
                </g>
                <g id="arrowRight" xlink:href="#dirArrow" transform="rotate(90) translate(36 -43)" onmousedown="handlePan(1,0)">
                  <use xlink:href="#rim" fill="#404040">
                        <set attributeName="fill" to="#808080" begin="arrowRight.mouseover" end="arrowRight.mouseout"/>
                  </use>
                  <path fill="none" stroke="white" stroke-width="1.5" d="M0,-3.0v7 M-2.5,-0.5L0,-3.0L2.5,-0.5"/>
                </g>
                <g id="arrowDown" xlink:href="#dirArrow" transform="rotate(180) translate(-30 -48)" onmousedown="handlePan(0,1)">
                  <use xlink:href="#rim" fill="#404040">
                        <set attributeName="fill" to="#808080" begin="arrowDown.mouseover" end="arrowDown.mouseout"/>
                  </use>
                  <path fill="none" stroke="white" stroke-width="1.5" d="M0,-3.0v7 M-2.5,-0.5L0,-3.0L2.5,-0.5"/>
                </g>
                <g id="arrowLeft" xlink:href="#dirArrow" transform="rotate(270) translate(-36 17)" onmousedown="handlePan(-1,0)">
                  <use xlink:href="#rim" fill="#404040">
                        <set attributeName="fill" to="#808080" begin="arrowLeft.mouseover" end="arrowLeft.mouseout"/>
                  </use>
                  <path fill="none" stroke="white" stroke-width="1.5" d="M0,-3.0v7 M-2.5,-0.5L0,-3.0L2.5,-0.5"/>
                </g>
        </g>
        <svg viewBox="0 0 15 15" width="100%" height="30px" preserveAspectRatio="xMaxYMin meet">
         <g id="arrow_out" transform="scale(0.3 0.3)">
          <a xlink:href="classharpoon_1_1exception_1_1hardware__component__exception__inherit__graph_org.svg" target="_base">
           <rect id="button" ry="5" rx="5" y="6" x="6" height="38" width="38"
                fill="#f2f5e9" fill-opacity="0.5" stroke="#606060" stroke-width="1.0"/>
           <path id="arrow"
             d="M 11.500037,31.436501 C 11.940474,20.09759 22.043105,11.32322 32.158766,21.979434 L 37.068811,17.246167 C 37.068811,17.246167 37.088388,32 37.088388,32 L 22.160133,31.978069 C 22.160133,31.978069 26.997745,27.140456 26.997745,27.140456 C 18.528582,18.264221 13.291696,25.230495 11.500037,31.436501 z"
             style="fill:#404040;"/>
          </a>
         </g>
        </svg>
</svg>
