<?xml version="1.0" encoding="UTF-8" standalone="no"?>
<!DOCTYPE svg PUBLIC "-//W3C//DTD SVG 1.1//EN"
 "http://www.w3.org/Graphics/SVG/1.1/DTD/svg11.dtd">
<!-- Generated by graphviz version 2.26.3 (20100126.1600)
 -->
<!-- Title: harpoon/memory/exception/access_violation.hh Pages: 1 -->
<svg width="412pt" height="376pt"
 viewBox="0.00 0.00 412.00 376.00" xmlns="http://www.w3.org/2000/svg" xmlns:xlink="http://www.w3.org/1999/xlink">
<g id="graph1" class="graph" transform="scale(1 1) rotate(0) translate(4 372)">
<title>harpoon/memory/exception/access_violation.hh</title>
<polygon fill="white" stroke="white" points="-4,5 -4,-372 409,-372 409,5 -4,5"/>
<!-- Node1 -->
<g id="node1" class="node"><title>Node1</title>
<polygon fill="#bfbfbf" stroke="black" points="90,-333 90,-367 224,-367 224,-333 90,-333"/>
<text text-anchor="start" x="98" y="-354" font-family="Helvetica,sans-Serif" font-size="10.00">harpoon/memory/exception</text>
<text text-anchor="middle" x="157" y="-341" font-family="Helvetica,sans-Serif" font-size="10.00">/access_violation.hh</text>
</g>
<!-- Node2 -->
<g id="node3" class="node"><title>Node2</title>
<a xlink:href="../../d5/d08/harpoon_8hh.html" target="_top" xlink:title="Harpoon library common header file. ">
<polygon fill="white" stroke="black" points="65,-58.5 65,-79.5 167,-79.5 167,-58.5 65,-58.5"/>
<text text-anchor="middle" x="116" y="-66.5" font-family="Helvetica,sans-Serif" font-size="10.00">harpoon/harpoon.hh</text>
</a>
</g>
<!-- Node1&#45;&gt;Node2 -->
<g id="edge2" class="edge"><title>Node1&#45;&gt;Node2</title>
<path fill="none" stroke="midnightblue" d="M119.006,-332.78C104.347,-324.016 89.1667,-311.821 81,-296 67.9571,-270.733 45.8772,-255.662 88,-116 90.9492,-106.222 96.361,-96.3656 101.646,-88.2222"/>
<polygon fill="midnightblue" stroke="midnightblue" points="104.624,-90.0699 107.422,-79.8512 98.862,-86.0946 104.624,-90.0699"/>
</g>
<!-- Node7 -->
<g id="node13" class="node"><title>Node7</title>
<a xlink:href="../../df/d8d/memory__exception_8hh.html" target="_top" xlink:title="harpoon/memory/exception\l/memory_exception.hh">
<polygon fill="white" stroke="black" points="90,-261 90,-295 224,-295 224,-261 90,-261"/>
<text text-anchor="start" x="98" y="-282" font-family="Helvetica,sans-Serif" font-size="10.00">harpoon/memory/exception</text>
<text text-anchor="middle" x="157" y="-269" font-family="Helvetica,sans-Serif" font-size="10.00">/memory_exception.hh</text>
</a>
</g>
<!-- Node1&#45;&gt;Node7 -->
<g id="edge12" class="edge"><title>Node1&#45;&gt;Node7</title>
<path fill="none" stroke="midnightblue" d="M157,-332.937C157,-324.807 157,-314.876 157,-305.705"/>
<polygon fill="midnightblue" stroke="midnightblue" points="160.5,-305.441 157,-295.441 153.5,-305.441 160.5,-305.441"/>
</g>
<!-- Node11 -->
<g id="node24" class="node"><title>Node11</title>
<a xlink:href="../../db/db3/address_8hh.html" target="_top" xlink:title="harpoon/memory/address.hh">
<polygon fill="white" stroke="black" points="264,-195.5 264,-216.5 404,-216.5 404,-195.5 264,-195.5"/>
<text text-anchor="middle" x="334" y="-203.5" font-family="Helvetica,sans-Serif" font-size="10.00">harpoon/memory/address.hh</text>
</a>
</g>
<!-- Node1&#45;&gt;Node11 -->
<g id="edge26" class="edge"><title>Node1&#45;&gt;Node11</title>
<path fill="none" stroke="midnightblue" d="M182.498,-332.924C197.5,-322.622 216.67,-309.012 233,-296 262.866,-272.202 295.538,-242.327 315.403,-223.695"/>
<polygon fill="midnightblue" stroke="midnightblue" points="317.969,-226.087 322.844,-216.68 313.167,-220.993 317.969,-226.087"/>
</g>
<!-- Node3 -->
<g id="node5" class="node"><title>Node3</title>
<polygon fill="white" stroke="#bfbfbf" points="-0.5,-0.5 -0.5,-21.5 40.5,-21.5 40.5,-0.5 -0.5,-0.5"/>
<text text-anchor="middle" x="20" y="-8.5" font-family="Helvetica,sans-Serif" font-size="10.00">string</text>
</g>
<!-- Node2&#45;&gt;Node3 -->
<g id="edge4" class="edge"><title>Node2&#45;&gt;Node3</title>
<path fill="none" stroke="midnightblue" d="M98.3921,-58.3619C83.7771,-49.532 62.7762,-36.844 46.1888,-26.8224"/>
<polygon fill="midnightblue" stroke="midnightblue" points="47.8653,-23.7461 37.4963,-21.5707 44.2455,-29.7376 47.8653,-23.7461"/>
</g>
<!-- Node4 -->
<g id="node7" class="node"><title>Node4</title>
<polygon fill="white" stroke="#bfbfbf" points="58,-0.5 58,-21.5 110,-21.5 110,-0.5 58,-0.5"/>
<text text-anchor="middle" x="84" y="-8.5" font-family="Helvetica,sans-Serif" font-size="10.00">memory</text>
</g>
<!-- Node2&#45;&gt;Node4 -->
<g id="edge6" class="edge"><title>Node2&#45;&gt;Node4</title>
<path fill="none" stroke="midnightblue" d="M110.131,-58.3619C105.845,-50.5949 99.9131,-39.8426 94.7839,-30.5458"/>
<polygon fill="midnightblue" stroke="midnightblue" points="97.7274,-28.6357 89.8321,-21.5707 91.5984,-32.0172 97.7274,-28.6357"/>
</g>
<!-- Node5 -->
<g id="node9" class="node"><title>Node5</title>
<polygon fill="white" stroke="#bfbfbf" points="128,-0.5 128,-21.5 168,-21.5 168,-0.5 128,-0.5"/>
<text text-anchor="middle" x="148" y="-8.5" font-family="Helvetica,sans-Serif" font-size="10.00">utility</text>
</g>
<!-- Node2&#45;&gt;Node5 -->
<g id="edge8" class="edge"><title>Node2&#45;&gt;Node5</title>
<path fill="none" stroke="midnightblue" d="M121.869,-58.3619C126.155,-50.5949 132.087,-39.8426 137.216,-30.5458"/>
<polygon fill="midnightblue" stroke="midnightblue" points="140.402,-32.0172 142.168,-21.5707 134.273,-28.6357 140.402,-32.0172"/>
</g>
<!-- Node6 -->
<g id="node11" class="node"><title>Node6</title>
<polygon fill="white" stroke="#bfbfbf" points="186,-0.5 186,-21.5 232,-21.5 232,-0.5 186,-0.5"/>
<text text-anchor="middle" x="209" y="-8.5" font-family="Helvetica,sans-Serif" font-size="10.00">cstdint</text>
</g>
<!-- Node2&#45;&gt;Node6 -->
<g id="edge10" class="edge"><title>Node2&#45;&gt;Node6</title>
<path fill="none" stroke="midnightblue" d="M133.058,-58.3619C147.085,-49.6138 167.184,-37.0786 183.182,-27.1015"/>
<polygon fill="midnightblue" stroke="midnightblue" points="185.418,-29.8323 192.051,-21.5707 181.713,-23.8927 185.418,-29.8323"/>
</g>
<!-- Node7&#45;&gt;Node2 -->
<g id="edge14" class="edge"><title>Node7&#45;&gt;Node2</title>
<path fill="none" stroke="midnightblue" d="M130.257,-260.819C118.308,-251.521 105.479,-238.885 99,-224 79.3803,-178.927 96.1482,-119.808 107.553,-89.2491"/>
<polygon fill="midnightblue" stroke="midnightblue" points="110.905,-90.2884 111.295,-79.7008 104.388,-87.7342 110.905,-90.2884"/>
</g>
<!-- Node8 -->
<g id="node16" class="node"><title>Node8</title>
<a xlink:href="../../df/d18/hardware__component__exception_8hh.html" target="_top" xlink:title="harpoon/exception/hardware\l_component_exception.hh">
<polygon fill="white" stroke="black" points="107.5,-189 107.5,-223 246.5,-223 246.5,-189 107.5,-189"/>
<text text-anchor="start" x="115.5" y="-210" font-family="Helvetica,sans-Serif" font-size="10.00">harpoon/exception/hardware</text>
<text text-anchor="middle" x="177" y="-197" font-family="Helvetica,sans-Serif" font-size="10.00">_component_exception.hh</text>
</a>
</g>
<!-- Node7&#45;&gt;Node8 -->
<g id="edge16" class="edge"><title>Node7&#45;&gt;Node8</title>
<path fill="none" stroke="midnightblue" d="M161.74,-260.937C164.047,-252.63 166.877,-242.444 169.47,-233.108"/>
<polygon fill="midnightblue" stroke="midnightblue" points="172.851,-234.013 172.155,-223.441 166.107,-232.139 172.851,-234.013"/>
</g>
<!-- Node8&#45;&gt;Node2 -->
<g id="edge18" class="edge"><title>Node8&#45;&gt;Node2</title>
<path fill="none" stroke="midnightblue" d="M161.403,-188.643C153.085,-178.572 143.297,-165.283 137,-152 127.494,-131.948 121.933,-107.055 118.949,-89.7874"/>
<polygon fill="midnightblue" stroke="midnightblue" points="122.368,-88.9972 117.345,-79.6688 115.454,-90.0935 122.368,-88.9972"/>
</g>
<!-- Node9 -->
<g id="node19" class="node"><title>Node9</title>
<a xlink:href="../../d5/d38/harpoon__exception_8hh.html" target="_top" xlink:title="harpoon/exception/harpoon\l_exception.hh">
<polygon fill="white" stroke="black" points="146,-117 146,-151 280,-151 280,-117 146,-117"/>
<text text-anchor="start" x="154" y="-138" font-family="Helvetica,sans-Serif" font-size="10.00">harpoon/exception/harpoon</text>
<text text-anchor="middle" x="213" y="-125" font-family="Helvetica,sans-Serif" font-size="10.00">_exception.hh</text>
</a>
</g>
<!-- Node8&#45;&gt;Node9 -->
<g id="edge20" class="edge"><title>Node8&#45;&gt;Node9</title>
<path fill="none" stroke="midnightblue" d="M185.531,-188.937C189.773,-180.454 194.995,-170.009 199.744,-160.513"/>
<polygon fill="midnightblue" stroke="midnightblue" points="202.938,-161.95 204.28,-151.441 196.677,-158.82 202.938,-161.95"/>
</g>
<!-- Node9&#45;&gt;Node2 -->
<g id="edge22" class="edge"><title>Node9&#45;&gt;Node2</title>
<path fill="none" stroke="midnightblue" d="M187.514,-116.922C172.918,-107.141 154.702,-94.9344 140.308,-85.2887"/>
<polygon fill="midnightblue" stroke="midnightblue" points="142.161,-82.3176 131.906,-79.6584 138.265,-88.1327 142.161,-82.3176"/>
</g>
<!-- Node10 -->
<g id="node22" class="node"><title>Node10</title>
<polygon fill="white" stroke="#bfbfbf" points="184.5,-58.5 184.5,-79.5 243.5,-79.5 243.5,-58.5 184.5,-58.5"/>
<text text-anchor="middle" x="214" y="-66.5" font-family="Helvetica,sans-Serif" font-size="10.00">stdexcept</text>
</g>
<!-- Node9&#45;&gt;Node10 -->
<g id="edge24" class="edge"><title>Node9&#45;&gt;Node10</title>
<path fill="none" stroke="midnightblue" d="M213.263,-116.922C213.39,-108.67 213.543,-98.6922 213.677,-89.9818"/>
<polygon fill="midnightblue" stroke="midnightblue" points="217.179,-89.9048 213.833,-79.8521 210.18,-89.797 217.179,-89.9048"/>
</g>
<!-- Node11&#45;&gt;Node2 -->
<g id="edge28" class="edge"><title>Node11&#45;&gt;Node2</title>
<path fill="none" stroke="midnightblue" d="M331.69,-195.332C327.029,-176.42 314.679,-137.031 289,-116 279.727,-108.406 218.974,-92.9331 172.053,-81.8132"/>
<polygon fill="midnightblue" stroke="midnightblue" points="172.81,-78.3957 162.274,-79.5108 171.205,-85.2094 172.81,-78.3957"/>
</g>
</g>
</svg>
