<?xml version="1.0" encoding="UTF-8" standalone="no"?>
<!DOCTYPE svg PUBLIC "-//W3C//DTD SVG 1.1//EN"
 "http://www.w3.org/Graphics/SVG/1.1/DTD/svg11.dtd">
<!-- Generated by graphviz version 2.26.3 (20100126.1600)
 -->
<!-- Title: harpoon/memory/exception/access_violation.hh Pages: 1 -->
<svg width="380pt" height="376pt"
 viewBox="0.00 0.00 380.00 376.00" xmlns="http://www.w3.org/2000/svg" xmlns:xlink="http://www.w3.org/1999/xlink">
<g id="graph1" class="graph" transform="scale(1 1) rotate(0) translate(4 372)">
<title>harpoon/memory/exception/access_violation.hh</title>
<polygon fill="white" stroke="white" points="-4,5 -4,-372 377,-372 377,5 -4,5"/>
<!-- Node1 -->
<g id="node1" class="node"><title>Node1</title>
<polygon fill="#bfbfbf" stroke="black" points="58,-333 58,-367 192,-367 192,-333 58,-333"/>
<text text-anchor="start" x="66" y="-354" font-family="Helvetica,sans-Serif" font-size="10.00">harpoon/memory/exception</text>
<text text-anchor="middle" x="125" y="-341" font-family="Helvetica,sans-Serif" font-size="10.00">/access_violation.hh</text>
</g>
<!-- Node2 -->
<g id="node3" class="node"><title>Node2</title>
<a xlink:href="../../d5/d08/harpoon_8hh.html" target="_top" xlink:title="Harpoon library common header file. ">
<polygon fill="white" stroke="black" points="33,-58.5 33,-79.5 135,-79.5 135,-58.5 33,-58.5"/>
<text text-anchor="middle" x="84" y="-66.5" font-family="Helvetica,sans-Serif" font-size="10.00">harpoon/harpoon.hh</text>
</a>
</g>
<!-- Node1&#45;&gt;Node2 -->
<g id="edge2" class="edge"><title>Node1&#45;&gt;Node2</title>
<path fill="none" stroke="midnightblue" d="M87.0061,-332.78C72.3472,-324.016 57.1667,-311.821 49,-296 35.9571,-270.733 13.8772,-255.662 56,-116 58.9492,-106.222 64.361,-96.3656 69.6463,-88.2222"/>
<polygon fill="midnightblue" stroke="midnightblue" points="72.6237,-90.0699 75.4218,-79.8512 66.862,-86.0946 72.6237,-90.0699"/>
</g>
<!-- Node6 -->
<g id="node11" class="node"><title>Node6</title>
<a xlink:href="../../df/d8d/memory__exception_8hh.html" target="_top" xlink:title="harpoon/memory/exception\l/memory_exception.hh">
<polygon fill="white" stroke="black" points="58,-261 58,-295 192,-295 192,-261 58,-261"/>
<text text-anchor="start" x="66" y="-282" font-family="Helvetica,sans-Serif" font-size="10.00">harpoon/memory/exception</text>
<text text-anchor="middle" x="125" y="-269" font-family="Helvetica,sans-Serif" font-size="10.00">/memory_exception.hh</text>
</a>
</g>
<!-- Node1&#45;&gt;Node6 -->
<g id="edge10" class="edge"><title>Node1&#45;&gt;Node6</title>
<path fill="none" stroke="midnightblue" d="M125,-332.937C125,-324.807 125,-314.876 125,-305.705"/>
<polygon fill="midnightblue" stroke="midnightblue" points="128.5,-305.441 125,-295.441 121.5,-305.441 128.5,-305.441"/>
</g>
<!-- Node10 -->
<g id="node22" class="node"><title>Node10</title>
<a xlink:href="../../db/db3/address_8hh.html" target="_top" xlink:title="harpoon/memory/address.hh">
<polygon fill="white" stroke="black" points="232,-195.5 232,-216.5 372,-216.5 372,-195.5 232,-195.5"/>
<text text-anchor="middle" x="302" y="-203.5" font-family="Helvetica,sans-Serif" font-size="10.00">harpoon/memory/address.hh</text>
</a>
</g>
<!-- Node1&#45;&gt;Node10 -->
<g id="edge24" class="edge"><title>Node1&#45;&gt;Node10</title>
<path fill="none" stroke="midnightblue" d="M150.498,-332.924C165.5,-322.622 184.67,-309.012 201,-296 230.866,-272.202 263.538,-242.327 283.403,-223.695"/>
<polygon fill="midnightblue" stroke="midnightblue" points="285.969,-226.087 290.844,-216.68 281.167,-220.993 285.969,-226.087"/>
</g>
<!-- Node3 -->
<g id="node5" class="node"><title>Node3</title>
<polygon fill="white" stroke="#bfbfbf" points="-0.5,-0.5 -0.5,-21.5 40.5,-21.5 40.5,-0.5 -0.5,-0.5"/>
<text text-anchor="middle" x="20" y="-8.5" font-family="Helvetica,sans-Serif" font-size="10.00">string</text>
</g>
<!-- Node2&#45;&gt;Node3 -->
<g id="edge4" class="edge"><title>Node2&#45;&gt;Node3</title>
<path fill="none" stroke="midnightblue" d="M72.2614,-58.3619C63.0594,-50.0226 50.0599,-38.2418 39.3283,-28.5162"/>
<polygon fill="midnightblue" stroke="midnightblue" points="41.4244,-25.6924 31.6642,-21.5707 36.7237,-30.8793 41.4244,-25.6924"/>
</g>
<!-- Node4 -->
<g id="node7" class="node"><title>Node4</title>
<polygon fill="white" stroke="#bfbfbf" points="58,-0.5 58,-21.5 110,-21.5 110,-0.5 58,-0.5"/>
<text text-anchor="middle" x="84" y="-8.5" font-family="Helvetica,sans-Serif" font-size="10.00">memory</text>
</g>
<!-- Node2&#45;&gt;Node4 -->
<g id="edge6" class="edge"><title>Node2&#45;&gt;Node4</title>
<path fill="none" stroke="midnightblue" d="M84,-58.3619C84,-50.9219 84,-40.7427 84,-31.7276"/>
<polygon fill="midnightblue" stroke="midnightblue" points="87.5001,-31.5706 84,-21.5707 80.5001,-31.5707 87.5001,-31.5706"/>
</g>
<!-- Node5 -->
<g id="node9" class="node"><title>Node5</title>
<polygon fill="white" stroke="#bfbfbf" points="128,-0.5 128,-21.5 168,-21.5 168,-0.5 128,-0.5"/>
<text text-anchor="middle" x="148" y="-8.5" font-family="Helvetica,sans-Serif" font-size="10.00">utility</text>
</g>
<!-- Node2&#45;&gt;Node5 -->
<g id="edge8" class="edge"><title>Node2&#45;&gt;Node5</title>
<path fill="none" stroke="midnightblue" d="M95.7386,-58.3619C104.941,-50.0226 117.94,-38.2418 128.672,-28.5162"/>
<polygon fill="midnightblue" stroke="midnightblue" points="131.276,-30.8793 136.336,-21.5707 126.576,-25.6924 131.276,-30.8793"/>
</g>
<!-- Node6&#45;&gt;Node2 -->
<g id="edge12" class="edge"><title>Node6&#45;&gt;Node2</title>
<path fill="none" stroke="midnightblue" d="M98.257,-260.819C86.3085,-251.521 73.4794,-238.885 67,-224 47.3803,-178.927 64.1482,-119.808 75.5534,-89.2491"/>
<polygon fill="midnightblue" stroke="midnightblue" points="78.9052,-90.2884 79.2955,-79.7008 72.3878,-87.7342 78.9052,-90.2884"/>
</g>
<!-- Node7 -->
<g id="node14" class="node"><title>Node7</title>
<a xlink:href="../../df/d18/hardware__component__exception_8hh.html" target="_top" xlink:title="harpoon/exception/hardware\l_component_exception.hh">
<polygon fill="white" stroke="black" points="75.5,-189 75.5,-223 214.5,-223 214.5,-189 75.5,-189"/>
<text text-anchor="start" x="83.5" y="-210" font-family="Helvetica,sans-Serif" font-size="10.00">harpoon/exception/hardware</text>
<text text-anchor="middle" x="145" y="-197" font-family="Helvetica,sans-Serif" font-size="10.00">_component_exception.hh</text>
</a>
</g>
<!-- Node6&#45;&gt;Node7 -->
<g id="edge14" class="edge"><title>Node6&#45;&gt;Node7</title>
<path fill="none" stroke="midnightblue" d="M129.74,-260.937C132.047,-252.63 134.877,-242.444 137.47,-233.108"/>
<polygon fill="midnightblue" stroke="midnightblue" points="140.851,-234.013 140.155,-223.441 134.107,-232.139 140.851,-234.013"/>
</g>
<!-- Node7&#45;&gt;Node2 -->
<g id="edge16" class="edge"><title>Node7&#45;&gt;Node2</title>
<path fill="none" stroke="midnightblue" d="M129.403,-188.643C121.085,-178.572 111.297,-165.283 105,-152 95.4941,-131.948 89.9334,-107.055 86.9493,-89.7874"/>
<polygon fill="midnightblue" stroke="midnightblue" points="90.3678,-88.9972 85.3449,-79.6688 83.4542,-90.0935 90.3678,-88.9972"/>
</g>
<!-- Node8 -->
<g id="node17" class="node"><title>Node8</title>
<a xlink:href="../../d5/d38/harpoon__exception_8hh.html" target="_top" xlink:title="harpoon/exception/harpoon\l_exception.hh">
<polygon fill="white" stroke="black" points="114,-117 114,-151 248,-151 248,-117 114,-117"/>
<text text-anchor="start" x="122" y="-138" font-family="Helvetica,sans-Serif" font-size="10.00">harpoon/exception/harpoon</text>
<text text-anchor="middle" x="181" y="-125" font-family="Helvetica,sans-Serif" font-size="10.00">_exception.hh</text>
</a>
</g>
<!-- Node7&#45;&gt;Node8 -->
<g id="edge18" class="edge"><title>Node7&#45;&gt;Node8</title>
<path fill="none" stroke="midnightblue" d="M153.531,-188.937C157.773,-180.454 162.995,-170.009 167.744,-160.513"/>
<polygon fill="midnightblue" stroke="midnightblue" points="170.938,-161.95 172.28,-151.441 164.677,-158.82 170.938,-161.95"/>
</g>
<!-- Node8&#45;&gt;Node2 -->
<g id="edge20" class="edge"><title>Node8&#45;&gt;Node2</title>
<path fill="none" stroke="midnightblue" d="M155.514,-116.922C140.918,-107.141 122.702,-94.9344 108.308,-85.2887"/>
<polygon fill="midnightblue" stroke="midnightblue" points="110.161,-82.3176 99.9056,-79.6584 106.265,-88.1327 110.161,-82.3176"/>
</g>
<!-- Node9 -->
<g id="node20" class="node"><title>Node9</title>
<polygon fill="white" stroke="#bfbfbf" points="152.5,-58.5 152.5,-79.5 211.5,-79.5 211.5,-58.5 152.5,-58.5"/>
<text text-anchor="middle" x="182" y="-66.5" font-family="Helvetica,sans-Serif" font-size="10.00">stdexcept</text>
</g>
<!-- Node8&#45;&gt;Node9 -->
<g id="edge22" class="edge"><title>Node8&#45;&gt;Node9</title>
<path fill="none" stroke="midnightblue" d="M181.263,-116.922C181.39,-108.67 181.543,-98.6922 181.677,-89.9818"/>
<polygon fill="midnightblue" stroke="midnightblue" points="185.179,-89.9048 181.833,-79.8521 178.18,-89.797 185.179,-89.9048"/>
</g>
<!-- Node10&#45;&gt;Node2 -->
<g id="edge26" class="edge"><title>Node10&#45;&gt;Node2</title>
<path fill="none" stroke="midnightblue" d="M299.69,-195.332C295.029,-176.42 282.679,-137.031 257,-116 247.727,-108.406 186.974,-92.9331 140.053,-81.8132"/>
<polygon fill="midnightblue" stroke="midnightblue" points="140.81,-78.3957 130.274,-79.5108 139.205,-85.2094 140.81,-78.3957"/>
</g>
</g>
</svg>
