<?xml version="1.0" encoding="UTF-8" standalone="no"?>
<!DOCTYPE svg PUBLIC "-//W3C//DTD SVG 1.1//EN"
 "http://www.w3.org/Graphics/SVG/1.1/DTD/svg11.dtd">
<!-- Generated by graphviz version 2.26.3 (20100126.1600)
 -->
<!-- Title: harpoon::memory::read_only_memory&lt; MemoryImplementation &gt; Pages: 1 -->
<!--zoomable 482 -->
<svg id="main" version="1.1" xmlns="http://www.w3.org/2000/svg" xmlns:xlink="http://www.w3.org/1999/xlink" xml:space="preserve" onload="init(evt)">
<style type="text/css"><![CDATA[
.edge:hover path { stroke: red; }
.edge:hover polygon { stroke: red; fill: red; }
]]></style>
<script type="text/javascript"><![CDATA[
var edges = document.getElementsByTagName('g');
if (edges && edges.length) {
  for (var i=0;i<edges.length;i++) {
    if (edges[i].id.substr(0,4)=='edge') {
      edges[i].setAttribute('class','edge');
    }
  }
}
]]></script>
        <defs>
                <circle id="rim" cx="0" cy="0" r="7"/>
                <circle id="rim2" cx="0" cy="0" r="3.5"/>
                <g id="zoomPlus">
                        <use xlink:href="#rim" fill="#404040">
                                <set attributeName="fill" to="#808080" begin="zoomplus.mouseover" end="zoomplus.mouseout"/>
                        </use>
                        <path d="M-4,0h8M0,-4v8" fill="none" stroke="white" stroke-width="1.5" pointer-events="none"/>
                </g>
                <g id="zoomMin">
                        <use xlink:href="#rim" fill="#404040">
                                <set attributeName="fill" to="#808080" begin="zoomminus.mouseover" end="zoomminus.mouseout"/>
                        </use>
                        <path d="M-4,0h8" fill="none" stroke="white" stroke-width="1.5" pointer-events="none"/>
                </g>
                <g id="dirArrow">
                        <path fill="none" stroke="white" stroke-width="1.5" d="M0,-3.0v7 M-2.5,-0.5L0,-3.0L2.5,-0.5"/>
                </g>
               <g id="resetDef">
                       <use xlink:href="#rim2" fill="#404040">
                               <set attributeName="fill" to="#808080" begin="reset.mouseover" end="reset.mouseout"/>
                       </use>
               </g>
        </defs>

<script type="text/javascript">
var viewWidth = 308;
var viewHeight = 482;
var sectionId = 'dynsection-0';
</script>
<script xlink:href="../../svgpan.js"/>
<svg id="graph" class="graph">
<g id="viewport">
<title>harpoon::memory::read_only_memory&lt; MemoryImplementation &gt;</title>
<polygon fill="white" stroke="white" points="-4,5 -4,-478 305,-478 305,5 -4,5"/>
<!-- Node1 -->
<g id="node1" class="node"><title>Node1</title>
<polygon fill="#bfbfbf" stroke="black" points="42,-282.5 42,-371.5 242,-371.5 242,-282.5 42,-282.5"/>
<text text-anchor="start" x="50" y="-358.5" font-family="Helvetica,sans-Serif" font-size="10.00">harpoon::memory::read</text>
<text text-anchor="middle" x="142" y="-345.5" font-family="Helvetica,sans-Serif" font-size="10.00">_only_memory&lt; MemoryImplementation &gt;</text>
<polyline fill="none" stroke="black" points="42,-337.5 242,-337.5 "/>
<text text-anchor="middle" x="142" y="-324.5" font-family="Helvetica,sans-Serif" font-size="10.00"> </text>
<polyline fill="none" stroke="black" points="42,-316.5 242,-316.5 "/>
<text text-anchor="start" x="50" y="-303.5" font-family="Helvetica,sans-Serif" font-size="10.00">+ set()</text>
<text text-anchor="start" x="50" y="-290.5" font-family="Helvetica,sans-Serif" font-size="10.00">+ ~read_only_memory()</text>
</g>
<!-- Node3 -->
<g id="node5" class="node"><title>Node3</title>
<a xlink:href="../../db/dd3/classharpoon_1_1memory_1_1read__only__memory.html" target="_top" xlink:title="{harpoon::memory::read\l_only_memory\&lt; chunked\l_memory \&gt;\n||+ set()\l+ ~read_only_memory()\l}">
<polygon fill="white" stroke="black" points="9,-129 9,-231 135,-231 135,-129 9,-129"/>
<text text-anchor="start" x="17" y="-218" font-family="Helvetica,sans-Serif" font-size="10.00">harpoon::memory::read</text>
<text text-anchor="start" x="17" y="-205" font-family="Helvetica,sans-Serif" font-size="10.00">_only_memory&lt; chunked</text>
<text text-anchor="middle" x="72" y="-192" font-family="Helvetica,sans-Serif" font-size="10.00">_memory &gt;</text>
<polyline fill="none" stroke="black" points="9,-184 135,-184 "/>
<text text-anchor="middle" x="72" y="-171" font-family="Helvetica,sans-Serif" font-size="10.00"> </text>
<polyline fill="none" stroke="black" points="9,-163 135,-163 "/>
<text text-anchor="start" x="17" y="-150" font-family="Helvetica,sans-Serif" font-size="10.00">+ set()</text>
<text text-anchor="start" x="17" y="-137" font-family="Helvetica,sans-Serif" font-size="10.00">+ ~read_only_memory()</text>
</a>
</g>
<!-- Node1&#45;&gt;Node3 -->
<g id="edge4" class="edge"><title>Node1&#45;&gt;Node3</title>
<path fill="none" stroke="orange" d="M105.009,-273.542C103.233,-270.36 101.549,-267.166 100,-264 94.9347,-253.643 90.434,-242.145 86.602,-231.063"/>
<polygon fill="orange" stroke="orange" points="102.145,-275.577 110.216,-282.44 108.186,-272.041 102.145,-275.577"/>
<text text-anchor="middle" x="149.5" y="-254.5" font-family="Helvetica,sans-Serif" font-size="10.00"> &lt; chunked_memory &gt;</text>
</g>
<!-- Node5 -->
<g id="node9" class="node"><title>Node5</title>
<a xlink:href="../../db/dd3/classharpoon_1_1memory_1_1read__only__memory.html" target="_top" xlink:title="{harpoon::memory::read\l_only_memory\&lt; linear\l_memory \&gt;\n||+ set()\l+ ~read_only_memory()\l}">
<polygon fill="white" stroke="black" points="164,-129 164,-231 284,-231 284,-129 164,-129"/>
<text text-anchor="start" x="172" y="-218" font-family="Helvetica,sans-Serif" font-size="10.00">harpoon::memory::read</text>
<text text-anchor="start" x="172" y="-205" font-family="Helvetica,sans-Serif" font-size="10.00">_only_memory&lt; linear</text>
<text text-anchor="middle" x="224" y="-192" font-family="Helvetica,sans-Serif" font-size="10.00">_memory &gt;</text>
<polyline fill="none" stroke="black" points="164,-184 284,-184 "/>
<text text-anchor="middle" x="224" y="-171" font-family="Helvetica,sans-Serif" font-size="10.00"> </text>
<polyline fill="none" stroke="black" points="164,-163 284,-163 "/>
<text text-anchor="start" x="172" y="-150" font-family="Helvetica,sans-Serif" font-size="10.00">+ set()</text>
<text text-anchor="start" x="172" y="-137" font-family="Helvetica,sans-Serif" font-size="10.00">+ ~read_only_memory()</text>
</a>
</g>
<!-- Node1&#45;&gt;Node5 -->
<g id="edge8" class="edge"><title>Node1&#45;&gt;Node5</title>
<path fill="none" stroke="orange" d="M192.597,-274.211C194.906,-270.859 197.062,-267.445 199,-264 204.669,-253.921 209.175,-242.423 212.71,-231.237"/>
<polygon fill="orange" stroke="orange" points="189.684,-272.265 186.585,-282.397 195.326,-276.409 189.684,-272.265"/>
<text text-anchor="middle" x="247.5" y="-254.5" font-family="Helvetica,sans-Serif" font-size="10.00"> &lt; linear_memory &gt;</text>
</g>
<!-- Node2 -->
<g id="node2" class="node"><title>Node2</title>
<polygon fill="white" stroke="#bfbfbf" points="82.5,-410.5 82.5,-473.5 201.5,-473.5 201.5,-410.5 82.5,-410.5"/>
<text text-anchor="middle" x="142" y="-460.5" font-family="Helvetica,sans-Serif" font-size="10.00">MemoryImplementation</text>
<polyline fill="none" stroke="#bfbfbf" points="82.5,-452.5 201.5,-452.5 "/>
<text text-anchor="middle" x="142" y="-439.5" font-family="Helvetica,sans-Serif" font-size="10.00"> </text>
<polyline fill="none" stroke="#bfbfbf" points="82.5,-431.5 201.5,-431.5 "/>
<text text-anchor="middle" x="142" y="-418.5" font-family="Helvetica,sans-Serif" font-size="10.00"> </text>
</g>
<!-- Node2&#45;&gt;Node1 -->
<g id="edge2" class="edge"><title>Node2&#45;&gt;Node1</title>
<path fill="none" stroke="midnightblue" d="M142,-400.091C142,-390.802 142,-380.926 142,-371.537"/>
<polygon fill="none" stroke="midnightblue" points="138.5,-400.271 142,-410.271 145.5,-400.271 138.5,-400.271"/>
</g>
<!-- Node4 -->
<g id="node7" class="node"><title>Node4</title>
<a xlink:href="../../d5/d6c/classharpoon_1_1memory_1_1chunked__read__only__memory.html" target="_top" xlink:title="{harpoon::memory::chunked\l_read_only_memory\n||+ ~chunked_read_only\l_memory()\l}">
<polygon fill="white" stroke="black" points="-0.5,-0.5 -0.5,-89.5 134.5,-89.5 134.5,-0.5 -0.5,-0.5"/>
<text text-anchor="start" x="7.5" y="-76.5" font-family="Helvetica,sans-Serif" font-size="10.00">harpoon::memory::chunked</text>
<text text-anchor="middle" x="67" y="-63.5" font-family="Helvetica,sans-Serif" font-size="10.00">_read_only_memory</text>
<polyline fill="none" stroke="black" points="-0.5,-55.5 134.5,-55.5 "/>
<text text-anchor="middle" x="67" y="-42.5" font-family="Helvetica,sans-Serif" font-size="10.00"> </text>
<polyline fill="none" stroke="black" points="-0.5,-34.5 134.5,-34.5 "/>
<text text-anchor="start" x="7.5" y="-21.5" font-family="Helvetica,sans-Serif" font-size="10.00">+ ~chunked_read_only</text>
<text text-anchor="start" x="7.5" y="-8.5" font-family="Helvetica,sans-Serif" font-size="10.00">_memory()</text>
</a>
</g>
<!-- Node3&#45;&gt;Node4 -->
<g id="edge6" class="edge"><title>Node3&#45;&gt;Node4</title>
<path fill="none" stroke="midnightblue" d="M69.7369,-118.895C69.3755,-109.139 69.0075,-99.2027 68.6634,-89.912"/>
<polygon fill="none" stroke="midnightblue" points="66.2419,-119.099 70.1097,-128.962 73.2371,-118.84 66.2419,-119.099"/>
</g>
<!-- Node6 -->
<g id="node11" class="node"><title>Node6</title>
<a xlink:href="../../de/dd2/classharpoon_1_1memory_1_1linear__read__only__memory.html" target="_top" xlink:title="{harpoon::memory::linear\l_read_only_memory\n||+ ~linear_read_only_memory()\l}">
<polygon fill="white" stroke="black" points="151.5,-7 151.5,-83 300.5,-83 300.5,-7 151.5,-7"/>
<text text-anchor="start" x="159.5" y="-70" font-family="Helvetica,sans-Serif" font-size="10.00">harpoon::memory::linear</text>
<text text-anchor="middle" x="226" y="-57" font-family="Helvetica,sans-Serif" font-size="10.00">_read_only_memory</text>
<polyline fill="none" stroke="black" points="151.5,-49 300.5,-49 "/>
<text text-anchor="middle" x="226" y="-36" font-family="Helvetica,sans-Serif" font-size="10.00"> </text>
<polyline fill="none" stroke="black" points="151.5,-28 300.5,-28 "/>
<text text-anchor="start" x="159.5" y="-15" font-family="Helvetica,sans-Serif" font-size="10.00">+ ~linear_read_only_memory()</text>
</a>
</g>
<!-- Node5&#45;&gt;Node6 -->
<g id="edge10" class="edge"><title>Node5&#45;&gt;Node6</title>
<path fill="none" stroke="midnightblue" d="M224.906,-118.83C225.087,-106.649 225.271,-94.1904 225.436,-83.0599"/>
<polygon fill="none" stroke="midnightblue" points="221.405,-118.912 224.756,-128.962 228.404,-119.015 221.405,-118.912"/>
</g>
</g>
</svg>
        <g id="navigator" transform="translate(0 0)" fill="#404254">
                <rect fill="#f2f5e9" fill-opacity="0.5" stroke="#606060" stroke-width=".5" x="0" y="0" width="60" height="60"/>
                <use id="zoomplus" xlink:href="#zoomPlus" x="17" y="9" onmousedown="handleZoom(evt,'in')"/>
                <use id="zoomminus" xlink:href="#zoomMin" x="42" y="9" onmousedown="handleZoom(evt,'out')"/>
                <use id="reset" xlink:href="#resetDef" x="30" y="36" onmousedown="handleReset()"/>
                <g id="arrowUp" xlink:href="#dirArrow" transform="translate(30 24)" onmousedown="handlePan(0,-1)">
                  <use xlink:href="#rim" fill="#404040">
                        <set attributeName="fill" to="#808080" begin="arrowUp.mouseover" end="arrowUp.mouseout"/>
                  </use>
                  <path fill="none" stroke="white" stroke-width="1.5" d="M0,-3.0v7 M-2.5,-0.5L0,-3.0L2.5,-0.5"/>
                </g>
                <g id="arrowRight" xlink:href="#dirArrow" transform="rotate(90) translate(36 -43)" onmousedown="handlePan(1,0)">
                  <use xlink:href="#rim" fill="#404040">
                        <set attributeName="fill" to="#808080" begin="arrowRight.mouseover" end="arrowRight.mouseout"/>
                  </use>
                  <path fill="none" stroke="white" stroke-width="1.5" d="M0,-3.0v7 M-2.5,-0.5L0,-3.0L2.5,-0.5"/>
                </g>
                <g id="arrowDown" xlink:href="#dirArrow" transform="rotate(180) translate(-30 -48)" onmousedown="handlePan(0,1)">
                  <use xlink:href="#rim" fill="#404040">
                        <set attributeName="fill" to="#808080" begin="arrowDown.mouseover" end="arrowDown.mouseout"/>
                  </use>
                  <path fill="none" stroke="white" stroke-width="1.5" d="M0,-3.0v7 M-2.5,-0.5L0,-3.0L2.5,-0.5"/>
                </g>
                <g id="arrowLeft" xlink:href="#dirArrow" transform="rotate(270) translate(-36 17)" onmousedown="handlePan(-1,0)">
                  <use xlink:href="#rim" fill="#404040">
                        <set attributeName="fill" to="#808080" begin="arrowLeft.mouseover" end="arrowLeft.mouseout"/>
                  </use>
                  <path fill="none" stroke="white" stroke-width="1.5" d="M0,-3.0v7 M-2.5,-0.5L0,-3.0L2.5,-0.5"/>
                </g>
        </g>
        <svg viewBox="0 0 15 15" width="100%" height="30px" preserveAspectRatio="xMaxYMin meet">
         <g id="arrow_out" transform="scale(0.3 0.3)">
          <a xlink:href="classharpoon_1_1memory_1_1read__only__memory__inherit__graph_org.svg" target="_base">
           <rect id="button" ry="5" rx="5" y="6" x="6" height="38" width="38"
                fill="#f2f5e9" fill-opacity="0.5" stroke="#606060" stroke-width="1.0"/>
           <path id="arrow"
             d="M 11.500037,31.436501 C 11.940474,20.09759 22.043105,11.32322 32.158766,21.979434 L 37.068811,17.246167 C 37.068811,17.246167 37.088388,32 37.088388,32 L 22.160133,31.978069 C 22.160133,31.978069 26.997745,27.140456 26.997745,27.140456 C 18.528582,18.264221 13.291696,25.230495 11.500037,31.436501 z"
             style="fill:#404040;"/>
          </a>
         </g>
        </svg>
</svg>
