<?xml version="1.0" encoding="UTF-8" standalone="no"?>
<!DOCTYPE svg PUBLIC "-//W3C//DTD SVG 1.1//EN"
 "http://www.w3.org/Graphics/SVG/1.1/DTD/svg11.dtd">
<!-- Generated by graphviz version 2.26.3 (20100126.1600)
 -->
<!-- Title: harpoon::memory::linear_random_access_memory Pages: 1 -->
<svg width="376pt" height="998pt"
 viewBox="0.00 0.00 376.00 998.00" xmlns="http://www.w3.org/2000/svg" xmlns:xlink="http://www.w3.org/1999/xlink">
<g id="graph1" class="graph" transform="scale(1 1) rotate(0) translate(4 994)">
<title>harpoon::memory::linear_random_access_memory</title>
<polygon fill="white" stroke="white" points="-4,5 -4,-994 373,-994 373,5 -4,5"/>
<!-- Node1 -->
<g id="node1" class="node"><title>Node1</title>
<polygon fill="#bfbfbf" stroke="black" points="120.5,-0.5 120.5,-89.5 251.5,-89.5 251.5,-0.5 120.5,-0.5"/>
<text text-anchor="start" x="128.5" y="-76.5" font-family="Helvetica,sans-Serif" font-size="10.00">harpoon::memory::linear</text>
<text text-anchor="middle" x="186" y="-63.5" font-family="Helvetica,sans-Serif" font-size="10.00">_random_access_memory</text>
<polyline fill="none" stroke="black" points="120.5,-55.5 251.5,-55.5 "/>
<text text-anchor="middle" x="186" y="-42.5" font-family="Helvetica,sans-Serif" font-size="10.00"> </text>
<polyline fill="none" stroke="black" points="120.5,-34.5 251.5,-34.5 "/>
<text text-anchor="start" x="128.5" y="-21.5" font-family="Helvetica,sans-Serif" font-size="10.00">+ ~linear_random_access</text>
<text text-anchor="start" x="128.5" y="-8.5" font-family="Helvetica,sans-Serif" font-size="10.00">_memory()</text>
</g>
<!-- Node2 -->
<g id="node2" class="node"><title>Node2</title>
<a xlink:href="../../dc/d01/classharpoon_1_1memory_1_1random__access__memory.html" target="_top" xlink:title="{harpoon::memory::random\l_access_memory\&lt; linear\l_memory \&gt;\n||+ ~random_access_memory()\l}">
<polygon fill="white" stroke="black" points="112.5,-128.5 112.5,-217.5 259.5,-217.5 259.5,-128.5 112.5,-128.5"/>
<text text-anchor="start" x="120.5" y="-204.5" font-family="Helvetica,sans-Serif" font-size="10.00">harpoon::memory::random</text>
<text text-anchor="start" x="120.5" y="-191.5" font-family="Helvetica,sans-Serif" font-size="10.00">_access_memory&lt; linear</text>
<text text-anchor="middle" x="186" y="-178.5" font-family="Helvetica,sans-Serif" font-size="10.00">_memory &gt;</text>
<polyline fill="none" stroke="black" points="112.5,-170.5 259.5,-170.5 "/>
<text text-anchor="middle" x="186" y="-157.5" font-family="Helvetica,sans-Serif" font-size="10.00"> </text>
<polyline fill="none" stroke="black" points="112.5,-149.5 259.5,-149.5 "/>
<text text-anchor="start" x="120.5" y="-136.5" font-family="Helvetica,sans-Serif" font-size="10.00">+ ~random_access_memory()</text>
</a>
</g>
<!-- Node2&#45;&gt;Node1 -->
<g id="edge2" class="edge"><title>Node2&#45;&gt;Node1</title>
<path fill="none" stroke="midnightblue" d="M186,-118.047C186,-108.524 186,-98.7286 186,-89.5268"/>
<polygon fill="none" stroke="midnightblue" points="182.5,-118.232 186,-128.232 189.5,-118.232 182.5,-118.232"/>
</g>
<!-- Node3 -->
<g id="node4" class="node"><title>Node3</title>
<a xlink:href="../../da/df3/classharpoon_1_1memory_1_1linear__memory.html" target="_top" xlink:title="{harpoon::memory::linear\l_memory\n||+ linear_memory()\l+ linear_memory()\l+ operator=()\l+ prepare()\l+ cleanup()\l+ get()\l+ set()\l+ ~linear_memory()\l}">
<polygon fill="white" stroke="black" points="14,-268.5 14,-435.5 136,-435.5 136,-268.5 14,-268.5"/>
<text text-anchor="start" x="22" y="-422.5" font-family="Helvetica,sans-Serif" font-size="10.00">harpoon::memory::linear</text>
<text text-anchor="middle" x="75" y="-409.5" font-family="Helvetica,sans-Serif" font-size="10.00">_memory</text>
<polyline fill="none" stroke="black" points="14,-401.5 136,-401.5 "/>
<text text-anchor="middle" x="75" y="-388.5" font-family="Helvetica,sans-Serif" font-size="10.00"> </text>
<polyline fill="none" stroke="black" points="14,-380.5 136,-380.5 "/>
<text text-anchor="start" x="22" y="-367.5" font-family="Helvetica,sans-Serif" font-size="10.00">+ linear_memory()</text>
<text text-anchor="start" x="22" y="-354.5" font-family="Helvetica,sans-Serif" font-size="10.00">+ linear_memory()</text>
<text text-anchor="start" x="22" y="-341.5" font-family="Helvetica,sans-Serif" font-size="10.00">+ operator=()</text>
<text text-anchor="start" x="22" y="-328.5" font-family="Helvetica,sans-Serif" font-size="10.00">+ prepare()</text>
<text text-anchor="start" x="22" y="-315.5" font-family="Helvetica,sans-Serif" font-size="10.00">+ cleanup()</text>
<text text-anchor="start" x="22" y="-302.5" font-family="Helvetica,sans-Serif" font-size="10.00">+ get()</text>
<text text-anchor="start" x="22" y="-289.5" font-family="Helvetica,sans-Serif" font-size="10.00">+ set()</text>
<text text-anchor="start" x="22" y="-276.5" font-family="Helvetica,sans-Serif" font-size="10.00">+ ~linear_memory()</text>
</a>
</g>
<!-- Node3&#45;&gt;Node2 -->
<g id="edge4" class="edge"><title>Node3&#45;&gt;Node2</title>
<path fill="none" stroke="midnightblue" d="M132.264,-259.655C141.333,-245.03 150.339,-230.507 158.312,-217.65"/>
<polygon fill="none" stroke="midnightblue" points="129.221,-257.922 126.925,-268.265 135.17,-261.611 129.221,-257.922"/>
</g>
<!-- Node4 -->
<g id="node6" class="node"><title>Node4</title>
<a xlink:href="../../db/d2f/classharpoon_1_1memory_1_1memory.html" target="_top" xlink:title="{harpoon::memory::memory\n||+ memory()\l+ get_address_range()\l+ get_address_range()\l+ set_address_range()\l+ has_address()\l+ get()\l+ set()\l+ ~memory()\l}">
<polygon fill="white" stroke="black" points="8,-475 8,-629 142,-629 142,-475 8,-475"/>
<text text-anchor="middle" x="75" y="-616" font-family="Helvetica,sans-Serif" font-size="10.00">harpoon::memory::memory</text>
<polyline fill="none" stroke="black" points="8,-608 142,-608 "/>
<text text-anchor="middle" x="75" y="-595" font-family="Helvetica,sans-Serif" font-size="10.00"> </text>
<polyline fill="none" stroke="black" points="8,-587 142,-587 "/>
<text text-anchor="start" x="16" y="-574" font-family="Helvetica,sans-Serif" font-size="10.00">+ memory()</text>
<text text-anchor="start" x="16" y="-561" font-family="Helvetica,sans-Serif" font-size="10.00">+ get_address_range()</text>
<text text-anchor="start" x="16" y="-548" font-family="Helvetica,sans-Serif" font-size="10.00">+ get_address_range()</text>
<text text-anchor="start" x="16" y="-535" font-family="Helvetica,sans-Serif" font-size="10.00">+ set_address_range()</text>
<text text-anchor="start" x="16" y="-522" font-family="Helvetica,sans-Serif" font-size="10.00">+ has_address()</text>
<text text-anchor="start" x="16" y="-509" font-family="Helvetica,sans-Serif" font-size="10.00">+ get()</text>
<text text-anchor="start" x="16" y="-496" font-family="Helvetica,sans-Serif" font-size="10.00">+ set()</text>
<text text-anchor="start" x="16" y="-483" font-family="Helvetica,sans-Serif" font-size="10.00">+ ~memory()</text>
</a>
</g>
<!-- Node4&#45;&gt;Node3 -->
<g id="edge6" class="edge"><title>Node4&#45;&gt;Node3</title>
<path fill="none" stroke="midnightblue" d="M75,-464.912C75,-455.196 75,-445.315 75,-435.644"/>
<polygon fill="none" stroke="midnightblue" points="71.5001,-464.961 75,-474.961 78.5001,-464.961 71.5001,-464.961"/>
</g>
<!-- Node5 -->
<g id="node8" class="node"><title>Node5</title>
<a xlink:href="../../df/d54/classharpoon_1_1hardware__component.html" target="_top" xlink:title="Base class for all hardware components of computer system (i.e. CPU, memory). All components should d...">
<polygon fill="white" stroke="black" points="0,-668.5 0,-861.5 150,-861.5 150,-668.5 0,-668.5"/>
<text text-anchor="middle" x="75" y="-848.5" font-family="Helvetica,sans-Serif" font-size="10.00">harpoon::hardware_component</text>
<polyline fill="none" stroke="black" points="0,-840.5 150,-840.5 "/>
<text text-anchor="middle" x="75" y="-827.5" font-family="Helvetica,sans-Serif" font-size="10.00"> </text>
<polyline fill="none" stroke="black" points="0,-819.5 150,-819.5 "/>
<text text-anchor="start" x="8" y="-806.5" font-family="Helvetica,sans-Serif" font-size="10.00">+ hardware_component()</text>
<text text-anchor="start" x="8" y="-793.5" font-family="Helvetica,sans-Serif" font-size="10.00">+ hardware_component()</text>
<text text-anchor="start" x="8" y="-780.5" font-family="Helvetica,sans-Serif" font-size="10.00">+ operator=()</text>
<text text-anchor="start" x="8" y="-767.5" font-family="Helvetica,sans-Serif" font-size="10.00">+ ~hardware_component()</text>
<text text-anchor="start" x="8" y="-754.5" font-family="Helvetica,sans-Serif" font-size="10.00">+ add_component()</text>
<text text-anchor="start" x="8" y="-741.5" font-family="Helvetica,sans-Serif" font-size="10.00">+ remove_component()</text>
<text text-anchor="start" x="8" y="-728.5" font-family="Helvetica,sans-Serif" font-size="10.00">+ replace_component()</text>
<text text-anchor="start" x="8" y="-715.5" font-family="Helvetica,sans-Serif" font-size="10.00">+ prepare()</text>
<text text-anchor="start" x="8" y="-702.5" font-family="Helvetica,sans-Serif" font-size="10.00">+ cleanup()</text>
<text text-anchor="start" x="8" y="-689.5" font-family="Helvetica,sans-Serif" font-size="10.00">+ boot()</text>
<text text-anchor="start" x="8" y="-676.5" font-family="Helvetica,sans-Serif" font-size="10.00">and 8 more...</text>
</a>
</g>
<!-- Node5&#45;&gt;Node4 -->
<g id="edge8" class="edge"><title>Node5&#45;&gt;Node4</title>
<path fill="none" stroke="midnightblue" d="M75,-658.228C75,-648.386 75,-638.548 75,-629.048"/>
<polygon fill="none" stroke="midnightblue" points="71.5001,-658.471 75,-668.471 78.5001,-658.471 71.5001,-658.471"/>
</g>
<!-- Node6 -->
<g id="node10" class="node"><title>Node6</title>
<polygon fill="white" stroke="#bfbfbf" points="19.5,-900.5 19.5,-989.5 130.5,-989.5 130.5,-900.5 19.5,-900.5"/>
<text text-anchor="start" x="27.5" y="-976.5" font-family="Helvetica,sans-Serif" font-size="10.00">std::enable_shared</text>
<text text-anchor="start" x="27.5" y="-963.5" font-family="Helvetica,sans-Serif" font-size="10.00">_from_this&lt; hardware</text>
<text text-anchor="middle" x="75" y="-950.5" font-family="Helvetica,sans-Serif" font-size="10.00">_component &gt;</text>
<polyline fill="none" stroke="#bfbfbf" points="19.5,-942.5 130.5,-942.5 "/>
<text text-anchor="middle" x="75" y="-929.5" font-family="Helvetica,sans-Serif" font-size="10.00"> </text>
<polyline fill="none" stroke="#bfbfbf" points="19.5,-921.5 130.5,-921.5 "/>
<text text-anchor="middle" x="75" y="-908.5" font-family="Helvetica,sans-Serif" font-size="10.00"> </text>
</g>
<!-- Node6&#45;&gt;Node5 -->
<g id="edge10" class="edge"><title>Node6&#45;&gt;Node5</title>
<path fill="none" stroke="midnightblue" d="M75,-889.812C75,-880.863 75,-871.37 75,-861.775"/>
<polygon fill="none" stroke="midnightblue" points="71.5001,-890.043 75,-900.043 78.5001,-890.043 71.5001,-890.043"/>
</g>
<!-- Node7 -->
<g id="node12" class="node"><title>Node7</title>
<a xlink:href="../../dc/d01/classharpoon_1_1memory_1_1random__access__memory.html" target="_top" xlink:title="{harpoon::memory::random\l_access_memory\&lt; MemoryImplementation \&gt;\n||+ ~random_access_memory()\l}">
<polygon fill="white" stroke="black" points="154,-314 154,-390 368,-390 368,-314 154,-314"/>
<text text-anchor="start" x="162" y="-377" font-family="Helvetica,sans-Serif" font-size="10.00">harpoon::memory::random</text>
<text text-anchor="middle" x="261" y="-364" font-family="Helvetica,sans-Serif" font-size="10.00">_access_memory&lt; MemoryImplementation &gt;</text>
<polyline fill="none" stroke="black" points="154,-356 368,-356 "/>
<text text-anchor="middle" x="261" y="-343" font-family="Helvetica,sans-Serif" font-size="10.00"> </text>
<polyline fill="none" stroke="black" points="154,-335 368,-335 "/>
<text text-anchor="start" x="162" y="-322" font-family="Helvetica,sans-Serif" font-size="10.00">+ ~random_access_memory()</text>
</a>
</g>
<!-- Node7&#45;&gt;Node2 -->
<g id="edge12" class="edge"><title>Node7&#45;&gt;Node2</title>
<path fill="none" stroke="orange" d="M240.899,-304.025C229.652,-277.182 215.722,-243.937 204.709,-217.652"/>
<polygon fill="orange" stroke="orange" points="237.818,-305.729 244.911,-313.6 244.274,-303.024 237.818,-305.729"/>
<text text-anchor="middle" x="259.5" y="-240.5" font-family="Helvetica,sans-Serif" font-size="10.00"> &lt; linear_memory &gt;</text>
</g>
<!-- Node8 -->
<g id="node14" class="node"><title>Node8</title>
<polygon fill="white" stroke="#bfbfbf" points="201.5,-520.5 201.5,-583.5 320.5,-583.5 320.5,-520.5 201.5,-520.5"/>
<text text-anchor="middle" x="261" y="-570.5" font-family="Helvetica,sans-Serif" font-size="10.00">MemoryImplementation</text>
<polyline fill="none" stroke="#bfbfbf" points="201.5,-562.5 320.5,-562.5 "/>
<text text-anchor="middle" x="261" y="-549.5" font-family="Helvetica,sans-Serif" font-size="10.00"> </text>
<polyline fill="none" stroke="#bfbfbf" points="201.5,-541.5 320.5,-541.5 "/>
<text text-anchor="middle" x="261" y="-528.5" font-family="Helvetica,sans-Serif" font-size="10.00"> </text>
</g>
<!-- Node8&#45;&gt;Node7 -->
<g id="edge14" class="edge"><title>Node8&#45;&gt;Node7</title>
<path fill="none" stroke="midnightblue" d="M261,-510.281C261,-474.835 261,-424.382 261,-390.031"/>
<polygon fill="none" stroke="midnightblue" points="257.5,-510.309 261,-520.309 264.5,-510.309 257.5,-510.309"/>
</g>
</g>
</svg>
