<?xml version="1.0" encoding="UTF-8" standalone="no"?>
<!DOCTYPE svg PUBLIC "-//W3C//DTD SVG 1.1//EN"
 "http://www.w3.org/Graphics/SVG/1.1/DTD/svg11.dtd">
<!-- Generated by graphviz version 2.26.3 (20100126.1600)
 -->
<!-- Title: harpoon::execution::exception::invalid_instruction Pages: 1 -->
<!--zoomable 800 -->
<svg id="main" version="1.1" xmlns="http://www.w3.org/2000/svg" xmlns:xlink="http://www.w3.org/1999/xlink" xml:space="preserve" onload="init(evt)">
<style type="text/css"><![CDATA[
.edge:hover path { stroke: red; }
.edge:hover polygon { stroke: red; fill: red; }
]]></style>
<script type="text/javascript"><![CDATA[
var edges = document.getElementsByTagName('g');
if (edges && edges.length) {
  for (var i=0;i<edges.length;i++) {
    if (edges[i].id.substr(0,4)=='edge') {
      edges[i].setAttribute('class','edge');
    }
  }
}
]]></script>
        <defs>
                <circle id="rim" cx="0" cy="0" r="7"/>
                <circle id="rim2" cx="0" cy="0" r="3.5"/>
                <g id="zoomPlus">
                        <use xlink:href="#rim" fill="#404040">
                                <set attributeName="fill" to="#808080" begin="zoomplus.mouseover" end="zoomplus.mouseout"/>
                        </use>
                        <path d="M-4,0h8M0,-4v8" fill="none" stroke="white" stroke-width="1.5" pointer-events="none"/>
                </g>
                <g id="zoomMin">
                        <use xlink:href="#rim" fill="#404040">
                                <set attributeName="fill" to="#808080" begin="zoomminus.mouseover" end="zoomminus.mouseout"/>
                        </use>
                        <path d="M-4,0h8" fill="none" stroke="white" stroke-width="1.5" pointer-events="none"/>
                </g>
                <g id="dirArrow">
                        <path fill="none" stroke="white" stroke-width="1.5" d="M0,-3.0v7 M-2.5,-0.5L0,-3.0L2.5,-0.5"/>
                </g>
               <g id="resetDef">
                       <use xlink:href="#rim2" fill="#404040">
                               <set attributeName="fill" to="#808080" begin="reset.mouseover" end="reset.mouseout"/>
                       </use>
               </g>
        </defs>

<script type="text/javascript">
var viewWidth = 134;
var viewHeight = 800;
var sectionId = 'dynsection-0';
</script>
<script xlink:href="../../svgpan.js"/>
<svg id="graph" class="graph">
<g id="viewport">
<title>harpoon::execution::exception::invalid_instruction</title>
<polygon fill="white" stroke="white" points="-4,5 -4,-796 131,-796 131,5 -4,5"/>
<!-- Node1 -->
<g id="node1" class="node"><title>Node1</title>
<polygon fill="#bfbfbf" stroke="black" points="5,-1 5,-129 121,-129 121,-1 5,-1"/>
<text text-anchor="start" x="13" y="-116" font-family="Helvetica,sans-Serif" font-size="10.00">harpoon::execution</text>
<text text-anchor="start" x="13" y="-103" font-family="Helvetica,sans-Serif" font-size="10.00">::exception::invalid</text>
<text text-anchor="middle" x="63" y="-90" font-family="Helvetica,sans-Serif" font-size="10.00">_instruction</text>
<polyline fill="none" stroke="black" points="5,-82 121,-82 "/>
<text text-anchor="middle" x="63" y="-69" font-family="Helvetica,sans-Serif" font-size="10.00"> </text>
<polyline fill="none" stroke="black" points="5,-61 121,-61 "/>
<text text-anchor="start" x="13" y="-48" font-family="Helvetica,sans-Serif" font-size="10.00">+ invalid_instruction()</text>
<text text-anchor="start" x="13" y="-35" font-family="Helvetica,sans-Serif" font-size="10.00">+ invalid_instruction()</text>
<text text-anchor="start" x="13" y="-22" font-family="Helvetica,sans-Serif" font-size="10.00">+ operator=()</text>
<text text-anchor="start" x="13" y="-9" font-family="Helvetica,sans-Serif" font-size="10.00">+ ~invalid_instruction()</text>
</g>
<!-- Node2 -->
<g id="node2" class="node"><title>Node2</title>
<a xlink:href="../../db/da5/classharpoon_1_1execution_1_1exception_1_1execution__exception.html" target="_top" xlink:title="{harpoon::execution\l::exception::execution\l_exception\n||+ execution_exception()\l+ operator=()\l+ ~execution_exception()\l}">
<polygon fill="white" stroke="black" points="-0.5,-166.5 -0.5,-281.5 126.5,-281.5 126.5,-166.5 -0.5,-166.5"/>
<text text-anchor="start" x="7.5" y="-268.5" font-family="Helvetica,sans-Serif" font-size="10.00">harpoon::execution</text>
<text text-anchor="start" x="7.5" y="-255.5" font-family="Helvetica,sans-Serif" font-size="10.00">::exception::execution</text>
<text text-anchor="middle" x="63" y="-242.5" font-family="Helvetica,sans-Serif" font-size="10.00">_exception</text>
<polyline fill="none" stroke="black" points="-0.5,-234.5 126.5,-234.5 "/>
<text text-anchor="middle" x="63" y="-221.5" font-family="Helvetica,sans-Serif" font-size="10.00"> </text>
<polyline fill="none" stroke="black" points="-0.5,-213.5 126.5,-213.5 "/>
<text text-anchor="start" x="7.5" y="-200.5" font-family="Helvetica,sans-Serif" font-size="10.00">+ execution_exception()</text>
<text text-anchor="start" x="7.5" y="-187.5" font-family="Helvetica,sans-Serif" font-size="10.00">+ operator=()</text>
<text text-anchor="start" x="7.5" y="-174.5" font-family="Helvetica,sans-Serif" font-size="10.00">+ ~execution_exception()</text>
</a>
</g>
<!-- Node2&#45;&gt;Node1 -->
<g id="edge2" class="edge"><title>Node2&#45;&gt;Node1</title>
<path fill="none" stroke="midnightblue" d="M63,-155.892C63,-147.057 63,-138.031 63,-129.262"/>
<polygon fill="none" stroke="midnightblue" points="59.5001,-156.148 63,-166.148 66.5001,-156.148 59.5001,-156.148"/>
</g>
<!-- Node3 -->
<g id="node4" class="node"><title>Node3</title>
<a xlink:href="../../d7/df5/classharpoon_1_1exception_1_1hardware__component__exception.html" target="_top" xlink:title="{harpoon::exception\l::hardware_component\l_exception\n||+ hardware_component\l_exception()\l+ hardware_component\l_exception()\l+ operator=()\l+ get_component()\l+ ~hardware_component\l_exception()\l}">
<polygon fill="white" stroke="black" points="0.5,-319 0.5,-499 125.5,-499 125.5,-319 0.5,-319"/>
<text text-anchor="start" x="8.5" y="-486" font-family="Helvetica,sans-Serif" font-size="10.00">harpoon::exception</text>
<text text-anchor="start" x="8.5" y="-473" font-family="Helvetica,sans-Serif" font-size="10.00">::hardware_component</text>
<text text-anchor="middle" x="63" y="-460" font-family="Helvetica,sans-Serif" font-size="10.00">_exception</text>
<polyline fill="none" stroke="black" points="0.5,-452 125.5,-452 "/>
<text text-anchor="middle" x="63" y="-439" font-family="Helvetica,sans-Serif" font-size="10.00"> </text>
<polyline fill="none" stroke="black" points="0.5,-431 125.5,-431 "/>
<text text-anchor="start" x="8.5" y="-418" font-family="Helvetica,sans-Serif" font-size="10.00">+ hardware_component</text>
<text text-anchor="start" x="8.5" y="-405" font-family="Helvetica,sans-Serif" font-size="10.00">_exception()</text>
<text text-anchor="start" x="8.5" y="-392" font-family="Helvetica,sans-Serif" font-size="10.00">+ hardware_component</text>
<text text-anchor="start" x="8.5" y="-379" font-family="Helvetica,sans-Serif" font-size="10.00">_exception()</text>
<text text-anchor="start" x="8.5" y="-366" font-family="Helvetica,sans-Serif" font-size="10.00">+ operator=()</text>
<text text-anchor="start" x="8.5" y="-353" font-family="Helvetica,sans-Serif" font-size="10.00">+ get_component()</text>
<text text-anchor="start" x="8.5" y="-340" font-family="Helvetica,sans-Serif" font-size="10.00">+ ~hardware_component</text>
<text text-anchor="start" x="8.5" y="-327" font-family="Helvetica,sans-Serif" font-size="10.00">_exception()</text>
</a>
</g>
<!-- Node3&#45;&gt;Node2 -->
<g id="edge4" class="edge"><title>Node3&#45;&gt;Node2</title>
<path fill="none" stroke="midnightblue" d="M63,-308.838C63,-299.551 63,-290.368 63,-281.666"/>
<polygon fill="none" stroke="midnightblue" points="59.5001,-308.939 63,-318.939 66.5001,-308.939 59.5001,-308.939"/>
</g>
<!-- Node4 -->
<g id="node6" class="node"><title>Node4</title>
<a xlink:href="../../d0/d5b/classharpoon_1_1exception_1_1harpoon__exception.html" target="_top" xlink:title="{harpoon::exception\l::harpoon_exception\n||+ harpoon_exception()\l+ harpoon_exception()\l+ operator=()\l+ set_what()\l+ get_what()\l+ what()\l+ ~harpoon_exception()\l}">
<polygon fill="white" stroke="black" points="3.5,-537 3.5,-691 122.5,-691 122.5,-537 3.5,-537"/>
<text text-anchor="start" x="11.5" y="-678" font-family="Helvetica,sans-Serif" font-size="10.00">harpoon::exception</text>
<text text-anchor="middle" x="63" y="-665" font-family="Helvetica,sans-Serif" font-size="10.00">::harpoon_exception</text>
<polyline fill="none" stroke="black" points="3.5,-657 122.5,-657 "/>
<text text-anchor="middle" x="63" y="-644" font-family="Helvetica,sans-Serif" font-size="10.00"> </text>
<polyline fill="none" stroke="black" points="3.5,-636 122.5,-636 "/>
<text text-anchor="start" x="11.5" y="-623" font-family="Helvetica,sans-Serif" font-size="10.00">+ harpoon_exception()</text>
<text text-anchor="start" x="11.5" y="-610" font-family="Helvetica,sans-Serif" font-size="10.00">+ harpoon_exception()</text>
<text text-anchor="start" x="11.5" y="-597" font-family="Helvetica,sans-Serif" font-size="10.00">+ operator=()</text>
<text text-anchor="start" x="11.5" y="-584" font-family="Helvetica,sans-Serif" font-size="10.00">+ set_what()</text>
<text text-anchor="start" x="11.5" y="-571" font-family="Helvetica,sans-Serif" font-size="10.00">+ get_what()</text>
<text text-anchor="start" x="11.5" y="-558" font-family="Helvetica,sans-Serif" font-size="10.00">+ what()</text>
<text text-anchor="start" x="11.5" y="-545" font-family="Helvetica,sans-Serif" font-size="10.00">+ ~harpoon_exception()</text>
</a>
</g>
<!-- Node4&#45;&gt;Node3 -->
<g id="edge6" class="edge"><title>Node4&#45;&gt;Node3</title>
<path fill="none" stroke="midnightblue" d="M63,-526.635C63,-517.566 63,-508.335 63,-499.235"/>
<polygon fill="none" stroke="midnightblue" points="59.5001,-526.79 63,-536.79 66.5001,-526.79 59.5001,-526.79"/>
</g>
<!-- Node5 -->
<g id="node8" class="node"><title>Node5</title>
<polygon fill="white" stroke="#bfbfbf" points="16.5,-728.5 16.5,-791.5 109.5,-791.5 109.5,-728.5 16.5,-728.5"/>
<text text-anchor="middle" x="63" y="-778.5" font-family="Helvetica,sans-Serif" font-size="10.00">std::runtime_error</text>
<polyline fill="none" stroke="#bfbfbf" points="16.5,-770.5 109.5,-770.5 "/>
<text text-anchor="middle" x="63" y="-757.5" font-family="Helvetica,sans-Serif" font-size="10.00"> </text>
<polyline fill="none" stroke="#bfbfbf" points="16.5,-749.5 109.5,-749.5 "/>
<text text-anchor="middle" x="63" y="-736.5" font-family="Helvetica,sans-Serif" font-size="10.00"> </text>
</g>
<!-- Node5&#45;&gt;Node4 -->
<g id="edge8" class="edge"><title>Node5&#45;&gt;Node4</title>
<path fill="none" stroke="midnightblue" d="M63,-718.288C63,-709.742 63,-700.491 63,-691.148"/>
<polygon fill="none" stroke="midnightblue" points="59.5001,-718.32 63,-728.32 66.5001,-718.32 59.5001,-718.32"/>
</g>
</g>
</svg>
        <g id="navigator" transform="translate(0 0)" fill="#404254">
                <rect fill="#f2f5e9" fill-opacity="0.5" stroke="#606060" stroke-width=".5" x="0" y="0" width="60" height="60"/>
                <use id="zoomplus" xlink:href="#zoomPlus" x="17" y="9" onmousedown="handleZoom(evt,'in')"/>
                <use id="zoomminus" xlink:href="#zoomMin" x="42" y="9" onmousedown="handleZoom(evt,'out')"/>
                <use id="reset" xlink:href="#resetDef" x="30" y="36" onmousedown="handleReset()"/>
                <g id="arrowUp" xlink:href="#dirArrow" transform="translate(30 24)" onmousedown="handlePan(0,-1)">
                  <use xlink:href="#rim" fill="#404040">
                        <set attributeName="fill" to="#808080" begin="arrowUp.mouseover" end="arrowUp.mouseout"/>
                  </use>
                  <path fill="none" stroke="white" stroke-width="1.5" d="M0,-3.0v7 M-2.5,-0.5L0,-3.0L2.5,-0.5"/>
                </g>
                <g id="arrowRight" xlink:href="#dirArrow" transform="rotate(90) translate(36 -43)" onmousedown="handlePan(1,0)">
                  <use xlink:href="#rim" fill="#404040">
                        <set attributeName="fill" to="#808080" begin="arrowRight.mouseover" end="arrowRight.mouseout"/>
                  </use>
                  <path fill="none" stroke="white" stroke-width="1.5" d="M0,-3.0v7 M-2.5,-0.5L0,-3.0L2.5,-0.5"/>
                </g>
                <g id="arrowDown" xlink:href="#dirArrow" transform="rotate(180) translate(-30 -48)" onmousedown="handlePan(0,1)">
                  <use xlink:href="#rim" fill="#404040">
                        <set attributeName="fill" to="#808080" begin="arrowDown.mouseover" end="arrowDown.mouseout"/>
                  </use>
                  <path fill="none" stroke="white" stroke-width="1.5" d="M0,-3.0v7 M-2.5,-0.5L0,-3.0L2.5,-0.5"/>
                </g>
                <g id="arrowLeft" xlink:href="#dirArrow" transform="rotate(270) translate(-36 17)" onmousedown="handlePan(-1,0)">
                  <use xlink:href="#rim" fill="#404040">
                        <set attributeName="fill" to="#808080" begin="arrowLeft.mouseover" end="arrowLeft.mouseout"/>
                  </use>
                  <path fill="none" stroke="white" stroke-width="1.5" d="M0,-3.0v7 M-2.5,-0.5L0,-3.0L2.5,-0.5"/>
                </g>
        </g>
        <svg viewBox="0 0 15 15" width="100%" height="30px" preserveAspectRatio="xMaxYMin meet">
         <g id="arrow_out" transform="scale(0.3 0.3)">
          <a xlink:href="classharpoon_1_1execution_1_1exception_1_1invalid__instruction__inherit__graph_org.svg" target="_base">
           <rect id="button" ry="5" rx="5" y="6" x="6" height="38" width="38"
                fill="#f2f5e9" fill-opacity="0.5" stroke="#606060" stroke-width="1.0"/>
           <path id="arrow"
             d="M 11.500037,31.436501 C 11.940474,20.09759 22.043105,11.32322 32.158766,21.979434 L 37.068811,17.246167 C 37.068811,17.246167 37.088388,32 37.088388,32 L 22.160133,31.978069 C 22.160133,31.978069 26.997745,27.140456 26.997745,27.140456 C 18.528582,18.264221 13.291696,25.230495 11.500037,31.436501 z"
             style="fill:#404040;"/>
          </a>
         </g>
        </svg>
</svg>
