<?xml version="1.0" encoding="UTF-8" standalone="no"?>
<!DOCTYPE svg PUBLIC "-//W3C//DTD SVG 1.1//EN"
 "http://www.w3.org/Graphics/SVG/1.1/DTD/svg11.dtd">
<!-- Generated by graphviz version 2.26.3 (20100126.1600)
 -->
<!-- Title: harpoon::memory::main_memory Pages: 1 -->
<svg width="158pt" height="776pt"
 viewBox="0.00 0.00 158.00 776.00" xmlns="http://www.w3.org/2000/svg" xmlns:xlink="http://www.w3.org/1999/xlink">
<g id="graph1" class="graph" transform="scale(1 1) rotate(0) translate(4 772)">
<title>harpoon::memory::main_memory</title>
<polygon fill="white" stroke="white" points="-4,5 -4,-772 155,-772 155,5 -4,5"/>
<!-- Node1 -->
<g id="node1" class="node"><title>Node1</title>
<polygon fill="#bfbfbf" stroke="black" points="15.5,-1 15.5,-181 134.5,-181 134.5,-1 15.5,-1"/>
<text text-anchor="start" x="23.5" y="-168" font-family="Helvetica,sans-Serif" font-size="10.00">harpoon::memory::main</text>
<text text-anchor="middle" x="75" y="-155" font-family="Helvetica,sans-Serif" font-size="10.00">_memory</text>
<polyline fill="none" stroke="black" points="15.5,-147 134.5,-147 "/>
<text text-anchor="middle" x="75" y="-134" font-family="Helvetica,sans-Serif" font-size="10.00"> </text>
<polyline fill="none" stroke="black" points="15.5,-126 134.5,-126 "/>
<text text-anchor="start" x="23.5" y="-113" font-family="Helvetica,sans-Serif" font-size="10.00">+ main_memory()</text>
<text text-anchor="start" x="23.5" y="-100" font-family="Helvetica,sans-Serif" font-size="10.00">+ main_memory()</text>
<text text-anchor="start" x="23.5" y="-87" font-family="Helvetica,sans-Serif" font-size="10.00">+ operator=()</text>
<text text-anchor="start" x="23.5" y="-74" font-family="Helvetica,sans-Serif" font-size="10.00">+ add_memory()</text>
<text text-anchor="start" x="23.5" y="-61" font-family="Helvetica,sans-Serif" font-size="10.00">+ remove_memory()</text>
<text text-anchor="start" x="23.5" y="-48" font-family="Helvetica,sans-Serif" font-size="10.00">+ replace_memory()</text>
<text text-anchor="start" x="23.5" y="-35" font-family="Helvetica,sans-Serif" font-size="10.00">+ get()</text>
<text text-anchor="start" x="23.5" y="-22" font-family="Helvetica,sans-Serif" font-size="10.00">+ set()</text>
<text text-anchor="start" x="23.5" y="-9" font-family="Helvetica,sans-Serif" font-size="10.00">+ ~main_memory()</text>
</g>
<!-- Node2 -->
<g id="node2" class="node"><title>Node2</title>
<a xlink:href="../../db/d2f/classharpoon_1_1memory_1_1memory.html" target="_top" xlink:title="{harpoon::memory::memory\n||+ memory()\l+ get_address_range()\l+ get_address_range()\l+ set_address_range()\l+ has_address()\l+ get_offset()\l+ get()\l+ set()\l+ get()\l+ set()\land 7 more...\l}">
<polygon fill="white" stroke="black" points="8,-218.5 8,-411.5 142,-411.5 142,-218.5 8,-218.5"/>
<text text-anchor="middle" x="75" y="-398.5" font-family="Helvetica,sans-Serif" font-size="10.00">harpoon::memory::memory</text>
<polyline fill="none" stroke="black" points="8,-390.5 142,-390.5 "/>
<text text-anchor="middle" x="75" y="-377.5" font-family="Helvetica,sans-Serif" font-size="10.00"> </text>
<polyline fill="none" stroke="black" points="8,-369.5 142,-369.5 "/>
<text text-anchor="start" x="16" y="-356.5" font-family="Helvetica,sans-Serif" font-size="10.00">+ memory()</text>
<text text-anchor="start" x="16" y="-343.5" font-family="Helvetica,sans-Serif" font-size="10.00">+ get_address_range()</text>
<text text-anchor="start" x="16" y="-330.5" font-family="Helvetica,sans-Serif" font-size="10.00">+ get_address_range()</text>
<text text-anchor="start" x="16" y="-317.5" font-family="Helvetica,sans-Serif" font-size="10.00">+ set_address_range()</text>
<text text-anchor="start" x="16" y="-304.5" font-family="Helvetica,sans-Serif" font-size="10.00">+ has_address()</text>
<text text-anchor="start" x="16" y="-291.5" font-family="Helvetica,sans-Serif" font-size="10.00">+ get_offset()</text>
<text text-anchor="start" x="16" y="-278.5" font-family="Helvetica,sans-Serif" font-size="10.00">+ get()</text>
<text text-anchor="start" x="16" y="-265.5" font-family="Helvetica,sans-Serif" font-size="10.00">+ set()</text>
<text text-anchor="start" x="16" y="-252.5" font-family="Helvetica,sans-Serif" font-size="10.00">+ get()</text>
<text text-anchor="start" x="16" y="-239.5" font-family="Helvetica,sans-Serif" font-size="10.00">+ set()</text>
<text text-anchor="start" x="16" y="-226.5" font-family="Helvetica,sans-Serif" font-size="10.00">and 7 more...</text>
</a>
</g>
<!-- Node2&#45;&gt;Node1 -->
<g id="edge2" class="edge"><title>Node2&#45;&gt;Node1</title>
<path fill="none" stroke="midnightblue" d="M75,-208.233C75,-199.218 75,-190.158 75,-181.287"/>
<polygon fill="none" stroke="midnightblue" points="71.5001,-208.379 75,-218.379 78.5001,-208.379 71.5001,-208.379"/>
</g>
<!-- Node3 -->
<g id="node4" class="node"><title>Node3</title>
<a xlink:href="../../df/d54/classharpoon_1_1hardware__component.html" target="_top" xlink:title="Base class for all hardware components of computer system (i.e. CPU, memory). All components should d...">
<polygon fill="white" stroke="black" points="0,-448.5 0,-641.5 150,-641.5 150,-448.5 0,-448.5"/>
<text text-anchor="middle" x="75" y="-628.5" font-family="Helvetica,sans-Serif" font-size="10.00">harpoon::hardware_component</text>
<polyline fill="none" stroke="black" points="0,-620.5 150,-620.5 "/>
<text text-anchor="middle" x="75" y="-607.5" font-family="Helvetica,sans-Serif" font-size="10.00"> </text>
<polyline fill="none" stroke="black" points="0,-599.5 150,-599.5 "/>
<text text-anchor="start" x="8" y="-586.5" font-family="Helvetica,sans-Serif" font-size="10.00">+ hardware_component()</text>
<text text-anchor="start" x="8" y="-573.5" font-family="Helvetica,sans-Serif" font-size="10.00">+ hardware_component()</text>
<text text-anchor="start" x="8" y="-560.5" font-family="Helvetica,sans-Serif" font-size="10.00">+ operator=()</text>
<text text-anchor="start" x="8" y="-547.5" font-family="Helvetica,sans-Serif" font-size="10.00">+ ~hardware_component()</text>
<text text-anchor="start" x="8" y="-534.5" font-family="Helvetica,sans-Serif" font-size="10.00">+ add_component()</text>
<text text-anchor="start" x="8" y="-521.5" font-family="Helvetica,sans-Serif" font-size="10.00">+ remove_component()</text>
<text text-anchor="start" x="8" y="-508.5" font-family="Helvetica,sans-Serif" font-size="10.00">+ replace_component()</text>
<text text-anchor="start" x="8" y="-495.5" font-family="Helvetica,sans-Serif" font-size="10.00">+ prepare()</text>
<text text-anchor="start" x="8" y="-482.5" font-family="Helvetica,sans-Serif" font-size="10.00">+ cleanup()</text>
<text text-anchor="start" x="8" y="-469.5" font-family="Helvetica,sans-Serif" font-size="10.00">+ boot()</text>
<text text-anchor="start" x="8" y="-456.5" font-family="Helvetica,sans-Serif" font-size="10.00">and 10 more...</text>
</a>
</g>
<!-- Node3&#45;&gt;Node2 -->
<g id="edge4" class="edge"><title>Node3&#45;&gt;Node2</title>
<path fill="none" stroke="midnightblue" d="M75,-438.423C75,-429.499 75,-420.507 75,-411.663"/>
<polygon fill="none" stroke="midnightblue" points="71.5001,-438.459 75,-448.459 78.5001,-438.459 71.5001,-438.459"/>
</g>
<!-- Node4 -->
<g id="node6" class="node"><title>Node4</title>
<polygon fill="white" stroke="#bfbfbf" points="19.5,-678.5 19.5,-767.5 130.5,-767.5 130.5,-678.5 19.5,-678.5"/>
<text text-anchor="start" x="27.5" y="-754.5" font-family="Helvetica,sans-Serif" font-size="10.00">std::enable_shared</text>
<text text-anchor="start" x="27.5" y="-741.5" font-family="Helvetica,sans-Serif" font-size="10.00">_from_this&lt; hardware</text>
<text text-anchor="middle" x="75" y="-728.5" font-family="Helvetica,sans-Serif" font-size="10.00">_component &gt;</text>
<polyline fill="none" stroke="#bfbfbf" points="19.5,-720.5 130.5,-720.5 "/>
<text text-anchor="middle" x="75" y="-707.5" font-family="Helvetica,sans-Serif" font-size="10.00"> </text>
<polyline fill="none" stroke="#bfbfbf" points="19.5,-699.5 130.5,-699.5 "/>
<text text-anchor="middle" x="75" y="-686.5" font-family="Helvetica,sans-Serif" font-size="10.00"> </text>
</g>
<!-- Node4&#45;&gt;Node3 -->
<g id="edge6" class="edge"><title>Node4&#45;&gt;Node3</title>
<path fill="none" stroke="midnightblue" d="M75,-668.059C75,-659.626 75,-650.712 75,-641.692"/>
<polygon fill="none" stroke="midnightblue" points="71.5001,-668.083 75,-678.083 78.5001,-668.083 71.5001,-668.083"/>
</g>
</g>
</svg>
