<?xml version="1.0" encoding="UTF-8" standalone="no"?>
<!DOCTYPE svg PUBLIC "-//W3C//DTD SVG 1.1//EN"
 "http://www.w3.org/Graphics/SVG/1.1/DTD/svg11.dtd">
<!-- Generated by graphviz version 2.26.3 (20100126.1600)
 -->
<!-- Title: harpoon::memory::main_memory Pages: 1 -->
<svg width="158pt" height="712pt"
 viewBox="0.00 0.00 158.00 712.00" xmlns="http://www.w3.org/2000/svg" xmlns:xlink="http://www.w3.org/1999/xlink">
<g id="graph1" class="graph" transform="scale(1 1) rotate(0) translate(4 708)">
<title>harpoon::memory::main_memory</title>
<polygon fill="white" stroke="white" points="-4,5 -4,-708 155,-708 155,5 -4,5"/>
<!-- Node1 -->
<g id="node1" class="node"><title>Node1</title>
<polygon fill="#bfbfbf" stroke="black" points="15.5,-1 15.5,-155 134.5,-155 134.5,-1 15.5,-1"/>
<text text-anchor="start" x="23.5" y="-142" font-family="Helvetica,sans-Serif" font-size="10.00">harpoon::memory::main</text>
<text text-anchor="middle" x="75" y="-129" font-family="Helvetica,sans-Serif" font-size="10.00">_memory</text>
<polyline fill="none" stroke="black" points="15.5,-121 134.5,-121 "/>
<text text-anchor="middle" x="75" y="-108" font-family="Helvetica,sans-Serif" font-size="10.00"> </text>
<polyline fill="none" stroke="black" points="15.5,-100 134.5,-100 "/>
<text text-anchor="start" x="23.5" y="-87" font-family="Helvetica,sans-Serif" font-size="10.00">+ main_memory()</text>
<text text-anchor="start" x="23.5" y="-74" font-family="Helvetica,sans-Serif" font-size="10.00">+ main_memory()</text>
<text text-anchor="start" x="23.5" y="-61" font-family="Helvetica,sans-Serif" font-size="10.00">+ operator=()</text>
<text text-anchor="start" x="23.5" y="-48" font-family="Helvetica,sans-Serif" font-size="10.00">+ add_memory()</text>
<text text-anchor="start" x="23.5" y="-35" font-family="Helvetica,sans-Serif" font-size="10.00">+ get()</text>
<text text-anchor="start" x="23.5" y="-22" font-family="Helvetica,sans-Serif" font-size="10.00">+ set()</text>
<text text-anchor="start" x="23.5" y="-9" font-family="Helvetica,sans-Serif" font-size="10.00">+ ~main_memory()</text>
</g>
<!-- Node2 -->
<g id="node2" class="node"><title>Node2</title>
<a xlink:href="../../db/d2f/classharpoon_1_1memory_1_1memory.html" target="_top" xlink:title="{harpoon::memory::memory\n||+ memory()\l+ get_address_range()\l+ get_address_range()\l+ set_address_range()\l+ has_address()\l+ get()\l+ set()\l+ ~memory()\l}">
<polygon fill="white" stroke="black" points="8,-193 8,-347 142,-347 142,-193 8,-193"/>
<text text-anchor="middle" x="75" y="-334" font-family="Helvetica,sans-Serif" font-size="10.00">harpoon::memory::memory</text>
<polyline fill="none" stroke="black" points="8,-326 142,-326 "/>
<text text-anchor="middle" x="75" y="-313" font-family="Helvetica,sans-Serif" font-size="10.00"> </text>
<polyline fill="none" stroke="black" points="8,-305 142,-305 "/>
<text text-anchor="start" x="16" y="-292" font-family="Helvetica,sans-Serif" font-size="10.00">+ memory()</text>
<text text-anchor="start" x="16" y="-279" font-family="Helvetica,sans-Serif" font-size="10.00">+ get_address_range()</text>
<text text-anchor="start" x="16" y="-266" font-family="Helvetica,sans-Serif" font-size="10.00">+ get_address_range()</text>
<text text-anchor="start" x="16" y="-253" font-family="Helvetica,sans-Serif" font-size="10.00">+ set_address_range()</text>
<text text-anchor="start" x="16" y="-240" font-family="Helvetica,sans-Serif" font-size="10.00">+ has_address()</text>
<text text-anchor="start" x="16" y="-227" font-family="Helvetica,sans-Serif" font-size="10.00">+ get()</text>
<text text-anchor="start" x="16" y="-214" font-family="Helvetica,sans-Serif" font-size="10.00">+ set()</text>
<text text-anchor="start" x="16" y="-201" font-family="Helvetica,sans-Serif" font-size="10.00">+ ~memory()</text>
</a>
</g>
<!-- Node2&#45;&gt;Node1 -->
<g id="edge2" class="edge"><title>Node2&#45;&gt;Node1</title>
<path fill="none" stroke="midnightblue" d="M75,-182.485C75,-173.35 75,-164.112 75,-155.106"/>
<polygon fill="none" stroke="midnightblue" points="71.5001,-182.736 75,-192.736 78.5001,-182.736 71.5001,-182.736"/>
</g>
<!-- Node3 -->
<g id="node4" class="node"><title>Node3</title>
<a xlink:href="../../df/d54/classharpoon_1_1hardware__component.html" target="_top" xlink:title="Base class for all hardware components of computer system (i.e. CPU, memory). All components should d...">
<polygon fill="white" stroke="black" points="0,-384.5 0,-577.5 150,-577.5 150,-384.5 0,-384.5"/>
<text text-anchor="middle" x="75" y="-564.5" font-family="Helvetica,sans-Serif" font-size="10.00">harpoon::hardware_component</text>
<polyline fill="none" stroke="black" points="0,-556.5 150,-556.5 "/>
<text text-anchor="middle" x="75" y="-543.5" font-family="Helvetica,sans-Serif" font-size="10.00"> </text>
<polyline fill="none" stroke="black" points="0,-535.5 150,-535.5 "/>
<text text-anchor="start" x="8" y="-522.5" font-family="Helvetica,sans-Serif" font-size="10.00">+ hardware_component()</text>
<text text-anchor="start" x="8" y="-509.5" font-family="Helvetica,sans-Serif" font-size="10.00">+ hardware_component()</text>
<text text-anchor="start" x="8" y="-496.5" font-family="Helvetica,sans-Serif" font-size="10.00">+ operator=()</text>
<text text-anchor="start" x="8" y="-483.5" font-family="Helvetica,sans-Serif" font-size="10.00">+ ~hardware_component()</text>
<text text-anchor="start" x="8" y="-470.5" font-family="Helvetica,sans-Serif" font-size="10.00">+ add_component()</text>
<text text-anchor="start" x="8" y="-457.5" font-family="Helvetica,sans-Serif" font-size="10.00">+ remove_component()</text>
<text text-anchor="start" x="8" y="-444.5" font-family="Helvetica,sans-Serif" font-size="10.00">+ replace_component()</text>
<text text-anchor="start" x="8" y="-431.5" font-family="Helvetica,sans-Serif" font-size="10.00">+ prepare()</text>
<text text-anchor="start" x="8" y="-418.5" font-family="Helvetica,sans-Serif" font-size="10.00">+ cleanup()</text>
<text text-anchor="start" x="8" y="-405.5" font-family="Helvetica,sans-Serif" font-size="10.00">+ boot()</text>
<text text-anchor="start" x="8" y="-392.5" font-family="Helvetica,sans-Serif" font-size="10.00">and 8 more...</text>
</a>
</g>
<!-- Node3&#45;&gt;Node2 -->
<g id="edge4" class="edge"><title>Node3&#45;&gt;Node2</title>
<path fill="none" stroke="midnightblue" d="M75,-374.194C75,-365.098 75,-356.016 75,-347.217"/>
<polygon fill="none" stroke="midnightblue" points="71.5001,-374.454 75,-384.454 78.5001,-374.454 71.5001,-374.454"/>
</g>
<!-- Node4 -->
<g id="node6" class="node"><title>Node4</title>
<polygon fill="white" stroke="#bfbfbf" points="19.5,-614.5 19.5,-703.5 130.5,-703.5 130.5,-614.5 19.5,-614.5"/>
<text text-anchor="start" x="27.5" y="-690.5" font-family="Helvetica,sans-Serif" font-size="10.00">std::enable_shared</text>
<text text-anchor="start" x="27.5" y="-677.5" font-family="Helvetica,sans-Serif" font-size="10.00">_from_this&lt; hardware</text>
<text text-anchor="middle" x="75" y="-664.5" font-family="Helvetica,sans-Serif" font-size="10.00">_component &gt;</text>
<polyline fill="none" stroke="#bfbfbf" points="19.5,-656.5 130.5,-656.5 "/>
<text text-anchor="middle" x="75" y="-643.5" font-family="Helvetica,sans-Serif" font-size="10.00"> </text>
<polyline fill="none" stroke="#bfbfbf" points="19.5,-635.5 130.5,-635.5 "/>
<text text-anchor="middle" x="75" y="-622.5" font-family="Helvetica,sans-Serif" font-size="10.00"> </text>
</g>
<!-- Node4&#45;&gt;Node3 -->
<g id="edge6" class="edge"><title>Node4&#45;&gt;Node3</title>
<path fill="none" stroke="midnightblue" d="M75,-604.059C75,-595.626 75,-586.712 75,-577.692"/>
<polygon fill="none" stroke="midnightblue" points="71.5001,-604.083 75,-614.083 78.5001,-604.083 71.5001,-604.083"/>
</g>
</g>
</svg>
