<?xml version="1.0" encoding="UTF-8" standalone="no"?>
<!DOCTYPE svg PUBLIC "-//W3C//DTD SVG 1.1//EN"
 "http://www.w3.org/Graphics/SVG/1.1/DTD/svg11.dtd">
<!-- Generated by graphviz version 2.26.3 (20100126.1600)
 -->
<!-- Title: harpoon/hardware_component.hh Pages: 1 -->
<!--zoomable 304 -->
<svg id="main" version="1.1" xmlns="http://www.w3.org/2000/svg" xmlns:xlink="http://www.w3.org/1999/xlink" xml:space="preserve" onload="init(evt)">
<style type="text/css"><![CDATA[
.edge:hover path { stroke: red; }
.edge:hover polygon { stroke: red; fill: red; }
]]></style>
<script type="text/javascript"><![CDATA[
var edges = document.getElementsByTagName('g');
if (edges && edges.length) {
  for (var i=0;i<edges.length;i++) {
    if (edges[i].id.substr(0,4)=='edge') {
      edges[i].setAttribute('class','edge');
    }
  }
}
]]></script>
        <defs>
                <circle id="rim" cx="0" cy="0" r="7"/>
                <circle id="rim2" cx="0" cy="0" r="3.5"/>
                <g id="zoomPlus">
                        <use xlink:href="#rim" fill="#404040">
                                <set attributeName="fill" to="#808080" begin="zoomplus.mouseover" end="zoomplus.mouseout"/>
                        </use>
                        <path d="M-4,0h8M0,-4v8" fill="none" stroke="white" stroke-width="1.5" pointer-events="none"/>
                </g>
                <g id="zoomMin">
                        <use xlink:href="#rim" fill="#404040">
                                <set attributeName="fill" to="#808080" begin="zoomminus.mouseover" end="zoomminus.mouseout"/>
                        </use>
                        <path d="M-4,0h8" fill="none" stroke="white" stroke-width="1.5" pointer-events="none"/>
                </g>
                <g id="dirArrow">
                        <path fill="none" stroke="white" stroke-width="1.5" d="M0,-3.0v7 M-2.5,-0.5L0,-3.0L2.5,-0.5"/>
                </g>
               <g id="resetDef">
                       <use xlink:href="#rim2" fill="#404040">
                               <set attributeName="fill" to="#808080" begin="reset.mouseover" end="reset.mouseout"/>
                       </use>
               </g>
        </defs>

<script type="text/javascript">
var viewWidth = 964;
var viewHeight = 304;
var sectionId = 'dynsection-1';
</script>
<script xlink:href="../../svgpan.js"/>
<svg id="graph" class="graph">
<g id="viewport">
<title>harpoon/hardware_component.hh</title>
<polygon fill="white" stroke="white" points="-4,5 -4,-300 961,-300 961,5 -4,5"/>
<!-- Node1 -->
<g id="node1" class="node"><title>Node1</title>
<polygon fill="#bfbfbf" stroke="black" points="112.5,-274.5 112.5,-295.5 273.5,-295.5 273.5,-274.5 112.5,-274.5"/>
<text text-anchor="middle" x="193" y="-282.5" font-family="Helvetica,sans-Serif" font-size="10.00">harpoon/hardware_component.hh</text>
</g>
<!-- Node2 -->
<g id="node3" class="node"><title>Node2</title>
<a xlink:href="../../d7/d55/clock_8hh.html" target="_top" xlink:title="harpoon/clock/clock.hh">
<polygon fill="white" stroke="black" points="134.5,-216.5 134.5,-237.5 251.5,-237.5 251.5,-216.5 134.5,-216.5"/>
<text text-anchor="middle" x="193" y="-224.5" font-family="Helvetica,sans-Serif" font-size="10.00">harpoon/clock/clock.hh</text>
</a>
</g>
<!-- Node1&#45;&gt;Node2 -->
<g id="edge2" class="edge"><title>Node1&#45;&gt;Node2</title>
<path fill="none" stroke="midnightblue" d="M193,-264.191C193,-255.168 193,-244.994 193,-237.571"/>
<polygon fill="midnightblue" stroke="midnightblue" points="189.5,-264.362 193,-274.362 196.5,-264.362 189.5,-264.362"/>
</g>
<!-- Node3 -->
<g id="node5" class="node"><title>Node3</title>
<a xlink:href="../../d9/d3e/execution__unit_8hh.html" target="_top" xlink:title="harpoon/execution/execution\l_unit.hh">
<polygon fill="white" stroke="black" points="103.5,-145 103.5,-179 244.5,-179 244.5,-145 103.5,-145"/>
<text text-anchor="start" x="111.5" y="-166" font-family="Helvetica,sans-Serif" font-size="10.00">harpoon/execution/execution</text>
<text text-anchor="middle" x="174" y="-153" font-family="Helvetica,sans-Serif" font-size="10.00">_unit.hh</text>
</a>
</g>
<!-- Node1&#45;&gt;Node3 -->
<g id="edge16" class="edge"><title>Node1&#45;&gt;Node3</title>
<path fill="none" stroke="midnightblue" d="M158.467,-269.482C145.875,-261.917 133.016,-251.491 126,-238 115.056,-216.955 134.03,-194.108 151.252,-179.018"/>
<polygon fill="midnightblue" stroke="midnightblue" points="157.057,-272.702 167.5,-274.488 160.45,-266.579 157.057,-272.702"/>
</g>
<!-- Node4 -->
<g id="node7" class="node"><title>Node4</title>
<a xlink:href="../../d5/d22/computer__system_8hh.html" target="_top" xlink:title="harpoon/computer_system.hh">
<polygon fill="white" stroke="black" points="204,-79.5 204,-100.5 350,-100.5 350,-79.5 204,-79.5"/>
<text text-anchor="middle" x="277" y="-87.5" font-family="Helvetica,sans-Serif" font-size="10.00">harpoon/computer_system.hh</text>
</a>
</g>
<!-- Node1&#45;&gt;Node4 -->
<g id="edge14" class="edge"><title>Node1&#45;&gt;Node4</title>
<path fill="none" stroke="midnightblue" d="M226.199,-269.394C238.849,-261.735 252.108,-251.265 260,-238 286.846,-192.88 281.805,-126.255 278.568,-100.602"/>
<polygon fill="midnightblue" stroke="midnightblue" points="224.176,-266.516 217.181,-274.474 227.612,-272.615 224.176,-266.516"/>
</g>
<!-- Node5 -->
<g id="node9" class="node"><title>Node5</title>
<a xlink:href="../../dd/dba/processing__unit_8hh.html" target="_top" xlink:title="harpoon/execution/processing\l_unit.hh">
<polygon fill="white" stroke="black" points="0,-73 0,-107 146,-107 146,-73 0,-73"/>
<text text-anchor="start" x="8" y="-94" font-family="Helvetica,sans-Serif" font-size="10.00">harpoon/execution/processing</text>
<text text-anchor="middle" x="73" y="-81" font-family="Helvetica,sans-Serif" font-size="10.00">_unit.hh</text>
</a>
</g>
<!-- Node1&#45;&gt;Node5 -->
<g id="edge18" class="edge"><title>Node1&#45;&gt;Node5</title>
<path fill="none" stroke="midnightblue" d="M159.103,-269.751C144.851,-261.949 129.049,-251.272 118,-238 85.5242,-198.992 76.4733,-136.913 73.9602,-107.09"/>
<polygon fill="midnightblue" stroke="midnightblue" points="157.692,-272.962 168.18,-274.462 160.916,-266.749 157.692,-272.962"/>
</g>
<!-- Node7 -->
<g id="node17" class="node"><title>Node7</title>
<a xlink:href="../../dc/d3f/memory_8hh.html" target="_top" xlink:title="harpoon/memory/memory.hh">
<polygon fill="white" stroke="black" points="330.5,-216.5 330.5,-237.5 471.5,-237.5 471.5,-216.5 330.5,-216.5"/>
<text text-anchor="middle" x="401" y="-224.5" font-family="Helvetica,sans-Serif" font-size="10.00">harpoon/memory/memory.hh</text>
</a>
</g>
<!-- Node1&#45;&gt;Node7 -->
<g id="edge20" class="edge"><title>Node1&#45;&gt;Node7</title>
<path fill="none" stroke="midnightblue" d="M240.77,-271.68C277.968,-261.307 328.889,-247.108 363.262,-237.523"/>
<polygon fill="midnightblue" stroke="midnightblue" points="239.36,-268.439 230.667,-274.497 241.24,-275.182 239.36,-268.439"/>
</g>
<!-- Node2&#45;&gt;Node3 -->
<g id="edge4" class="edge"><title>Node2&#45;&gt;Node3</title>
<path fill="none" stroke="midnightblue" d="M186.985,-206.421C184.414,-197.628 181.449,-187.483 179.001,-179.11"/>
<polygon fill="midnightblue" stroke="midnightblue" points="183.697,-207.65 189.863,-216.267 190.416,-205.686 183.697,-207.65"/>
</g>
<!-- Node3&#45;&gt;Node4 -->
<g id="edge6" class="edge"><title>Node3&#45;&gt;Node4</title>
<path fill="none" stroke="midnightblue" d="M207.078,-138.877C225.424,-126.053 247.362,-110.718 261.71,-100.688"/>
<polygon fill="midnightblue" stroke="midnightblue" points="204.6,-136.339 198.41,-144.937 208.611,-142.076 204.6,-136.339"/>
</g>
<!-- Node3&#45;&gt;Node5 -->
<g id="edge8" class="edge"><title>Node3&#45;&gt;Node5</title>
<path fill="none" stroke="midnightblue" d="M141.84,-139.074C127.34,-128.738 110.506,-116.737 97.1138,-107.19"/>
<polygon fill="midnightblue" stroke="midnightblue" points="139.89,-141.982 150.064,-144.937 143.953,-136.282 139.89,-141.982"/>
</g>
<!-- Node6 -->
<g id="node11" class="node"><title>Node6</title>
<a xlink:href="../../d9/d67/up__execution__unit_8hh.html" target="_top" xlink:title="harpoon/execution/up\l_execution_unit.hh">
<polygon fill="white" stroke="black" points="68,-1 68,-35 178,-35 178,-1 68,-1"/>
<text text-anchor="start" x="76" y="-22" font-family="Helvetica,sans-Serif" font-size="10.00">harpoon/execution/up</text>
<text text-anchor="middle" x="123" y="-9" font-family="Helvetica,sans-Serif" font-size="10.00">_execution_unit.hh</text>
</a>
</g>
<!-- Node3&#45;&gt;Node6 -->
<g id="edge12" class="edge"><title>Node3&#45;&gt;Node6</title>
<path fill="none" stroke="midnightblue" d="M170.655,-134.99C167.832,-116.761 162.948,-92.3995 155,-72 149.936,-59.0028 141.936,-45.5028 135.202,-35.2521"/>
<polygon fill="midnightblue" stroke="midnightblue" points="167.197,-135.539 172.086,-144.939 174.126,-134.542 167.197,-135.539"/>
</g>
<!-- Node5&#45;&gt;Node6 -->
<g id="edge10" class="edge"><title>Node5&#45;&gt;Node6</title>
<path fill="none" stroke="midnightblue" d="M90.7096,-64.4981C97.3911,-54.8768 104.834,-44.1593 110.888,-35.4407"/>
<polygon fill="midnightblue" stroke="midnightblue" points="87.6785,-62.7269 84.8493,-72.937 93.4281,-66.7197 87.6785,-62.7269"/>
</g>
<!-- Node7&#45;&gt;Node4 -->
<g id="edge22" class="edge"><title>Node7&#45;&gt;Node4</title>
<path fill="none" stroke="midnightblue" d="M374.172,-210.83C361.719,-202.552 347.223,-191.749 336,-180 311.867,-154.737 291.509,-118.359 282.289,-100.584"/>
<polygon fill="midnightblue" stroke="midnightblue" points="372.501,-213.917 382.803,-216.389 376.291,-208.032 372.501,-213.917"/>
</g>
<!-- Node8 -->
<g id="node20" class="node"><title>Node8</title>
<a xlink:href="../../dc/d1d/chunked__memory_8hh.html" target="_top" xlink:title="harpoon/memory/chunked\l_memory.hh">
<polygon fill="white" stroke="black" points="474.5,-145 474.5,-179 603.5,-179 603.5,-145 474.5,-145"/>
<text text-anchor="start" x="482.5" y="-166" font-family="Helvetica,sans-Serif" font-size="10.00">harpoon/memory/chunked</text>
<text text-anchor="middle" x="539" y="-153" font-family="Helvetica,sans-Serif" font-size="10.00">_memory.hh</text>
</a>
</g>
<!-- Node7&#45;&gt;Node8 -->
<g id="edge24" class="edge"><title>Node7&#45;&gt;Node8</title>
<path fill="none" stroke="midnightblue" d="M432.581,-212.125C453.493,-202.275 480.98,-189.328 502.779,-179.06"/>
<polygon fill="midnightblue" stroke="midnightblue" points="431.035,-208.984 423.479,-216.412 434.017,-215.317 431.035,-208.984"/>
</g>
<!-- Node11 -->
<g id="node26" class="node"><title>Node11</title>
<a xlink:href="../../d1/d70/linear__memory_8hh.html" target="_top" xlink:title="harpoon/memory/linear\l_memory.hh">
<polygon fill="white" stroke="black" points="677,-145 677,-179 793,-179 793,-145 677,-145"/>
<text text-anchor="start" x="685" y="-166" font-family="Helvetica,sans-Serif" font-size="10.00">harpoon/memory/linear</text>
<text text-anchor="middle" x="735" y="-153" font-family="Helvetica,sans-Serif" font-size="10.00">_memory.hh</text>
</a>
</g>
<!-- Node7&#45;&gt;Node11 -->
<g id="edge30" class="edge"><title>Node7&#45;&gt;Node11</title>
<path fill="none" stroke="midnightblue" d="M464.962,-214.552C526.156,-202.643 617.649,-184.838 676.834,-173.32"/>
<polygon fill="midnightblue" stroke="midnightblue" points="464.181,-211.138 455.034,-216.484 465.519,-218.01 464.181,-211.138"/>
</g>
<!-- Node14 -->
<g id="node32" class="node"><title>Node14</title>
<a xlink:href="../../d4/d85/main__memory_8hh.html" target="_top" xlink:title="harpoon/memory/main\l_memory.hh">
<polygon fill="white" stroke="black" points="344.5,-145 344.5,-179 457.5,-179 457.5,-145 344.5,-145"/>
<text text-anchor="start" x="352.5" y="-166" font-family="Helvetica,sans-Serif" font-size="10.00">harpoon/memory/main</text>
<text text-anchor="middle" x="401" y="-153" font-family="Helvetica,sans-Serif" font-size="10.00">_memory.hh</text>
</a>
</g>
<!-- Node7&#45;&gt;Node14 -->
<g id="edge36" class="edge"><title>Node7&#45;&gt;Node14</title>
<path fill="none" stroke="midnightblue" d="M401,-206.131C401,-197.405 401,-187.391 401,-179.11"/>
<polygon fill="midnightblue" stroke="midnightblue" points="397.5,-206.267 401,-216.267 404.5,-206.267 397.5,-206.267"/>
</g>
<!-- Node9 -->
<g id="node22" class="node"><title>Node9</title>
<a xlink:href="../../d4/d48/chunked__random__access__memory_8hh.html" target="_top" xlink:title="harpoon/memory/chunked\l_random_access_memory.hh">
<polygon fill="white" stroke="black" points="513.5,-73 513.5,-107 658.5,-107 658.5,-73 513.5,-73"/>
<text text-anchor="start" x="521.5" y="-94" font-family="Helvetica,sans-Serif" font-size="10.00">harpoon/memory/chunked</text>
<text text-anchor="middle" x="586" y="-81" font-family="Helvetica,sans-Serif" font-size="10.00">_random_access_memory.hh</text>
</a>
</g>
<!-- Node8&#45;&gt;Node9 -->
<g id="edge26" class="edge"><title>Node8&#45;&gt;Node9</title>
<path fill="none" stroke="midnightblue" d="M555.647,-136.498C561.928,-126.877 568.924,-116.159 574.615,-107.441"/>
<polygon fill="midnightblue" stroke="midnightblue" points="552.674,-134.65 550.138,-144.937 558.535,-138.476 552.674,-134.65"/>
</g>
<!-- Node10 -->
<g id="node24" class="node"><title>Node10</title>
<a xlink:href="../../dd/ddc/chunked__read__only__memory_8hh.html" target="_top" xlink:title="harpoon/memory/chunked\l_read_only_memory.hh">
<polygon fill="white" stroke="black" points="367.5,-73 367.5,-107 496.5,-107 496.5,-73 367.5,-73"/>
<text text-anchor="start" x="375.5" y="-94" font-family="Helvetica,sans-Serif" font-size="10.00">harpoon/memory/chunked</text>
<text text-anchor="middle" x="432" y="-81" font-family="Helvetica,sans-Serif" font-size="10.00">_read_only_memory.hh</text>
</a>
</g>
<!-- Node8&#45;&gt;Node10 -->
<g id="edge28" class="edge"><title>Node8&#45;&gt;Node10</title>
<path fill="none" stroke="midnightblue" d="M504.93,-139.074C489.568,-128.738 471.734,-116.737 457.546,-107.19"/>
<polygon fill="midnightblue" stroke="midnightblue" points="503.392,-142.258 513.642,-144.937 507.3,-136.45 503.392,-142.258"/>
</g>
<!-- Node12 -->
<g id="node28" class="node"><title>Node12</title>
<a xlink:href="../../d0/d9e/linear__random__access__memory_8hh.html" target="_top" xlink:title="harpoon/memory/linear\l_random_access_memory.hh">
<polygon fill="white" stroke="black" points="811.5,-73 811.5,-107 956.5,-107 956.5,-73 811.5,-73"/>
<text text-anchor="start" x="819.5" y="-94" font-family="Helvetica,sans-Serif" font-size="10.00">harpoon/memory/linear</text>
<text text-anchor="middle" x="884" y="-81" font-family="Helvetica,sans-Serif" font-size="10.00">_random_access_memory.hh</text>
</a>
</g>
<!-- Node11&#45;&gt;Node12 -->
<g id="edge32" class="edge"><title>Node11&#45;&gt;Node12</title>
<path fill="none" stroke="midnightblue" d="M779.502,-140.495C801.622,-129.807 827.976,-117.072 848.685,-107.065"/>
<polygon fill="midnightblue" stroke="midnightblue" points="777.792,-137.435 770.311,-144.937 780.838,-143.737 777.792,-137.435"/>
</g>
<!-- Node13 -->
<g id="node30" class="node"><title>Node13</title>
<a xlink:href="../../dd/db0/linear__read__only__memory_8hh.html" target="_top" xlink:title="harpoon/memory/linear\l_read_only_memory.hh">
<polygon fill="white" stroke="black" points="676,-73 676,-107 794,-107 794,-73 676,-73"/>
<text text-anchor="start" x="684" y="-94" font-family="Helvetica,sans-Serif" font-size="10.00">harpoon/memory/linear</text>
<text text-anchor="middle" x="735" y="-81" font-family="Helvetica,sans-Serif" font-size="10.00">_read_only_memory.hh</text>
</a>
</g>
<!-- Node11&#45;&gt;Node13 -->
<g id="edge34" class="edge"><title>Node11&#45;&gt;Node13</title>
<path fill="none" stroke="midnightblue" d="M735,-134.719C735,-125.572 735,-115.625 735,-107.441"/>
<polygon fill="midnightblue" stroke="midnightblue" points="731.5,-134.937 735,-144.937 738.5,-134.937 731.5,-134.937"/>
</g>
</g>
</svg>
        <g id="navigator" transform="translate(0 0)" fill="#404254">
                <rect fill="#f2f5e9" fill-opacity="0.5" stroke="#606060" stroke-width=".5" x="0" y="0" width="60" height="60"/>
                <use id="zoomplus" xlink:href="#zoomPlus" x="17" y="9" onmousedown="handleZoom(evt,'in')"/>
                <use id="zoomminus" xlink:href="#zoomMin" x="42" y="9" onmousedown="handleZoom(evt,'out')"/>
                <use id="reset" xlink:href="#resetDef" x="30" y="36" onmousedown="handleReset()"/>
                <g id="arrowUp" xlink:href="#dirArrow" transform="translate(30 24)" onmousedown="handlePan(0,-1)">
                  <use xlink:href="#rim" fill="#404040">
                        <set attributeName="fill" to="#808080" begin="arrowUp.mouseover" end="arrowUp.mouseout"/>
                  </use>
                  <path fill="none" stroke="white" stroke-width="1.5" d="M0,-3.0v7 M-2.5,-0.5L0,-3.0L2.5,-0.5"/>
                </g>
                <g id="arrowRight" xlink:href="#dirArrow" transform="rotate(90) translate(36 -43)" onmousedown="handlePan(1,0)">
                  <use xlink:href="#rim" fill="#404040">
                        <set attributeName="fill" to="#808080" begin="arrowRight.mouseover" end="arrowRight.mouseout"/>
                  </use>
                  <path fill="none" stroke="white" stroke-width="1.5" d="M0,-3.0v7 M-2.5,-0.5L0,-3.0L2.5,-0.5"/>
                </g>
                <g id="arrowDown" xlink:href="#dirArrow" transform="rotate(180) translate(-30 -48)" onmousedown="handlePan(0,1)">
                  <use xlink:href="#rim" fill="#404040">
                        <set attributeName="fill" to="#808080" begin="arrowDown.mouseover" end="arrowDown.mouseout"/>
                  </use>
                  <path fill="none" stroke="white" stroke-width="1.5" d="M0,-3.0v7 M-2.5,-0.5L0,-3.0L2.5,-0.5"/>
                </g>
                <g id="arrowLeft" xlink:href="#dirArrow" transform="rotate(270) translate(-36 17)" onmousedown="handlePan(-1,0)">
                  <use xlink:href="#rim" fill="#404040">
                        <set attributeName="fill" to="#808080" begin="arrowLeft.mouseover" end="arrowLeft.mouseout"/>
                  </use>
                  <path fill="none" stroke="white" stroke-width="1.5" d="M0,-3.0v7 M-2.5,-0.5L0,-3.0L2.5,-0.5"/>
                </g>
        </g>
        <svg viewBox="0 0 15 15" width="100%" height="30px" preserveAspectRatio="xMaxYMin meet">
         <g id="arrow_out" transform="scale(0.3 0.3)">
          <a xlink:href="hardware__component_8hh__dep__incl_org.svg" target="_base">
           <rect id="button" ry="5" rx="5" y="6" x="6" height="38" width="38"
                fill="#f2f5e9" fill-opacity="0.5" stroke="#606060" stroke-width="1.0"/>
           <path id="arrow"
             d="M 11.500037,31.436501 C 11.940474,20.09759 22.043105,11.32322 32.158766,21.979434 L 37.068811,17.246167 C 37.068811,17.246167 37.088388,32 37.088388,32 L 22.160133,31.978069 C 22.160133,31.978069 26.997745,27.140456 26.997745,27.140456 C 18.528582,18.264221 13.291696,25.230495 11.500037,31.436501 z"
             style="fill:#404040;"/>
          </a>
         </g>
        </svg>
</svg>
