<?xml version="1.0" encoding="UTF-8" standalone="no"?>
<!DOCTYPE svg PUBLIC "-//W3C//DTD SVG 1.1//EN"
 "http://www.w3.org/Graphics/SVG/1.1/DTD/svg11.dtd">
<!-- Generated by graphviz version 2.26.3 (20100126.1600)
 -->
<!-- Title: harpoon/hardware_component.hh Pages: 1 -->
<svg width="1162pt" height="304pt"
 viewBox="0.00 0.00 1162.00 304.00" xmlns="http://www.w3.org/2000/svg" xmlns:xlink="http://www.w3.org/1999/xlink">
<g id="graph1" class="graph" transform="scale(1 1) rotate(0) translate(4 300)">
<title>harpoon/hardware_component.hh</title>
<polygon fill="white" stroke="white" points="-4,5 -4,-300 1159,-300 1159,5 -4,5"/>
<!-- Node1 -->
<g id="node1" class="node"><title>Node1</title>
<polygon fill="#bfbfbf" stroke="black" points="112.5,-274.5 112.5,-295.5 273.5,-295.5 273.5,-274.5 112.5,-274.5"/>
<text text-anchor="middle" x="193" y="-282.5" font-family="Helvetica,sans-Serif" font-size="10.00">harpoon/hardware_component.hh</text>
</g>
<!-- Node2 -->
<g id="node3" class="node"><title>Node2</title>
<a xlink:href="../../d7/d55/clock_8hh.html" target="_top" xlink:title="harpoon/clock/clock.hh">
<polygon fill="white" stroke="black" points="134.5,-216.5 134.5,-237.5 251.5,-237.5 251.5,-216.5 134.5,-216.5"/>
<text text-anchor="middle" x="193" y="-224.5" font-family="Helvetica,sans-Serif" font-size="10.00">harpoon/clock/clock.hh</text>
</a>
</g>
<!-- Node1&#45;&gt;Node2 -->
<g id="edge2" class="edge"><title>Node1&#45;&gt;Node2</title>
<path fill="none" stroke="midnightblue" d="M193,-264.191C193,-255.168 193,-244.994 193,-237.571"/>
<polygon fill="midnightblue" stroke="midnightblue" points="189.5,-264.362 193,-274.362 196.5,-264.362 189.5,-264.362"/>
</g>
<!-- Node3 -->
<g id="node5" class="node"><title>Node3</title>
<a xlink:href="../../d9/d3e/execution__unit_8hh.html" target="_top" xlink:title="harpoon/execution/execution\l_unit.hh">
<polygon fill="white" stroke="black" points="103.5,-145 103.5,-179 244.5,-179 244.5,-145 103.5,-145"/>
<text text-anchor="start" x="111.5" y="-166" font-family="Helvetica,sans-Serif" font-size="10.00">harpoon/execution/execution</text>
<text text-anchor="middle" x="174" y="-153" font-family="Helvetica,sans-Serif" font-size="10.00">_unit.hh</text>
</a>
</g>
<!-- Node1&#45;&gt;Node3 -->
<g id="edge16" class="edge"><title>Node1&#45;&gt;Node3</title>
<path fill="none" stroke="midnightblue" d="M158.467,-269.482C145.875,-261.917 133.016,-251.491 126,-238 115.056,-216.955 134.03,-194.108 151.252,-179.018"/>
<polygon fill="midnightblue" stroke="midnightblue" points="157.057,-272.702 167.5,-274.488 160.45,-266.579 157.057,-272.702"/>
</g>
<!-- Node4 -->
<g id="node7" class="node"><title>Node4</title>
<a xlink:href="../../d5/d22/computer__system_8hh.html" target="_top" xlink:title="harpoon/computer_system.hh">
<polygon fill="white" stroke="black" points="206,-79.5 206,-100.5 352,-100.5 352,-79.5 206,-79.5"/>
<text text-anchor="middle" x="279" y="-87.5" font-family="Helvetica,sans-Serif" font-size="10.00">harpoon/computer_system.hh</text>
</a>
</g>
<!-- Node1&#45;&gt;Node4 -->
<g id="edge14" class="edge"><title>Node1&#45;&gt;Node4</title>
<path fill="none" stroke="midnightblue" d="M226.112,-269.342C238.747,-261.674 252.02,-251.212 260,-238 287.189,-192.986 283.205,-126.299 280.39,-100.616"/>
<polygon fill="midnightblue" stroke="midnightblue" points="224.092,-266.463 217.108,-274.43 227.536,-272.557 224.092,-266.463"/>
</g>
<!-- Node5 -->
<g id="node9" class="node"><title>Node5</title>
<a xlink:href="../../dd/dba/processing__unit_8hh.html" target="_top" xlink:title="harpoon/execution/processing\l_unit.hh">
<polygon fill="white" stroke="black" points="0,-73 0,-107 146,-107 146,-73 0,-73"/>
<text text-anchor="start" x="8" y="-94" font-family="Helvetica,sans-Serif" font-size="10.00">harpoon/execution/processing</text>
<text text-anchor="middle" x="73" y="-81" font-family="Helvetica,sans-Serif" font-size="10.00">_unit.hh</text>
</a>
</g>
<!-- Node1&#45;&gt;Node5 -->
<g id="edge18" class="edge"><title>Node1&#45;&gt;Node5</title>
<path fill="none" stroke="midnightblue" d="M159.103,-269.751C144.851,-261.949 129.049,-251.272 118,-238 85.5242,-198.992 76.4733,-136.913 73.9602,-107.09"/>
<polygon fill="midnightblue" stroke="midnightblue" points="157.692,-272.962 168.18,-274.462 160.916,-266.749 157.692,-272.962"/>
</g>
<!-- Node7 -->
<g id="node17" class="node"><title>Node7</title>
<a xlink:href="../../dc/d3f/memory_8hh.html" target="_top" xlink:title="harpoon/memory/memory.hh">
<polygon fill="white" stroke="black" points="422.5,-216.5 422.5,-237.5 563.5,-237.5 563.5,-216.5 422.5,-216.5"/>
<text text-anchor="middle" x="493" y="-224.5" font-family="Helvetica,sans-Serif" font-size="10.00">harpoon/memory/memory.hh</text>
</a>
</g>
<!-- Node1&#45;&gt;Node7 -->
<g id="edge20" class="edge"><title>Node1&#45;&gt;Node7</title>
<path fill="none" stroke="midnightblue" d="M257.475,-272.535C311.451,-262.099 387.617,-247.374 438.57,-237.523"/>
<polygon fill="midnightblue" stroke="midnightblue" points="256.482,-269.162 247.328,-274.497 257.81,-276.035 256.482,-269.162"/>
</g>
<!-- Node2&#45;&gt;Node3 -->
<g id="edge4" class="edge"><title>Node2&#45;&gt;Node3</title>
<path fill="none" stroke="midnightblue" d="M186.985,-206.421C184.414,-197.628 181.449,-187.483 179.001,-179.11"/>
<polygon fill="midnightblue" stroke="midnightblue" points="183.697,-207.65 189.863,-216.267 190.416,-205.686 183.697,-207.65"/>
</g>
<!-- Node3&#45;&gt;Node4 -->
<g id="edge6" class="edge"><title>Node3&#45;&gt;Node4</title>
<path fill="none" stroke="midnightblue" d="M207.211,-139.227C226.015,-126.332 248.654,-110.809 263.413,-100.688"/>
<polygon fill="midnightblue" stroke="midnightblue" points="205.151,-136.395 198.884,-144.937 209.11,-142.168 205.151,-136.395"/>
</g>
<!-- Node3&#45;&gt;Node5 -->
<g id="edge8" class="edge"><title>Node3&#45;&gt;Node5</title>
<path fill="none" stroke="midnightblue" d="M141.84,-139.074C127.34,-128.738 110.506,-116.737 97.1138,-107.19"/>
<polygon fill="midnightblue" stroke="midnightblue" points="139.89,-141.982 150.064,-144.937 143.953,-136.282 139.89,-141.982"/>
</g>
<!-- Node6 -->
<g id="node11" class="node"><title>Node6</title>
<a xlink:href="../../d9/d67/up__execution__unit_8hh.html" target="_top" xlink:title="harpoon/execution/up\l_execution_unit.hh">
<polygon fill="white" stroke="black" points="68,-1 68,-35 178,-35 178,-1 68,-1"/>
<text text-anchor="start" x="76" y="-22" font-family="Helvetica,sans-Serif" font-size="10.00">harpoon/execution/up</text>
<text text-anchor="middle" x="123" y="-9" font-family="Helvetica,sans-Serif" font-size="10.00">_execution_unit.hh</text>
</a>
</g>
<!-- Node3&#45;&gt;Node6 -->
<g id="edge12" class="edge"><title>Node3&#45;&gt;Node6</title>
<path fill="none" stroke="midnightblue" d="M170.655,-134.99C167.832,-116.761 162.948,-92.3995 155,-72 149.936,-59.0028 141.936,-45.5028 135.202,-35.2521"/>
<polygon fill="midnightblue" stroke="midnightblue" points="167.197,-135.539 172.086,-144.939 174.126,-134.542 167.197,-135.539"/>
</g>
<!-- Node5&#45;&gt;Node6 -->
<g id="edge10" class="edge"><title>Node5&#45;&gt;Node6</title>
<path fill="none" stroke="midnightblue" d="M90.7096,-64.4981C97.3911,-54.8768 104.834,-44.1593 110.888,-35.4407"/>
<polygon fill="midnightblue" stroke="midnightblue" points="87.6785,-62.7269 84.8493,-72.937 93.4281,-66.7197 87.6785,-62.7269"/>
</g>
<!-- Node7&#45;&gt;Node4 -->
<g id="edge22" class="edge"><title>Node7&#45;&gt;Node4</title>
<path fill="none" stroke="midnightblue" d="M482.095,-207.421C470.783,-188.744 451.475,-161.01 428,-144 398.368,-122.528 359.308,-108.791 328.615,-100.548"/>
<polygon fill="midnightblue" stroke="midnightblue" points="479.193,-209.391 487.261,-216.257 485.236,-205.858 479.193,-209.391"/>
</g>
<!-- Node8 -->
<g id="node20" class="node"><title>Node8</title>
<a xlink:href="../../dc/d1d/chunked__memory_8hh.html" target="_top" xlink:title="harpoon/memory/chunked\l_memory.hh">
<polygon fill="white" stroke="black" points="622.5,-145 622.5,-179 751.5,-179 751.5,-145 622.5,-145"/>
<text text-anchor="start" x="630.5" y="-166" font-family="Helvetica,sans-Serif" font-size="10.00">harpoon/memory/chunked</text>
<text text-anchor="middle" x="687" y="-153" font-family="Helvetica,sans-Serif" font-size="10.00">_memory.hh</text>
</a>
</g>
<!-- Node7&#45;&gt;Node8 -->
<g id="edge24" class="edge"><title>Node7&#45;&gt;Node8</title>
<path fill="none" stroke="midnightblue" d="M534.255,-213.177C564,-203.211 604.331,-189.698 636.081,-179.06"/>
<polygon fill="midnightblue" stroke="midnightblue" points="532.971,-209.916 524.601,-216.412 535.195,-216.554 532.971,-209.916"/>
</g>
<!-- Node11 -->
<g id="node26" class="node"><title>Node11</title>
<a xlink:href="../../d1/d70/linear__memory_8hh.html" target="_top" xlink:title="harpoon/memory/linear\l_memory.hh">
<polygon fill="white" stroke="black" points="888,-145 888,-179 1004,-179 1004,-145 888,-145"/>
<text text-anchor="start" x="896" y="-166" font-family="Helvetica,sans-Serif" font-size="10.00">harpoon/memory/linear</text>
<text text-anchor="middle" x="946" y="-153" font-family="Helvetica,sans-Serif" font-size="10.00">_memory.hh</text>
</a>
</g>
<!-- Node7&#45;&gt;Node11 -->
<g id="edge30" class="edge"><title>Node7&#45;&gt;Node11</title>
<path fill="none" stroke="midnightblue" d="M573.704,-215.42C664.007,-202.463 808.08,-181.79 887.937,-170.331"/>
<polygon fill="midnightblue" stroke="midnightblue" points="573.183,-211.959 563.781,-216.844 574.177,-218.888 573.183,-211.959"/>
</g>
<!-- Node14 -->
<g id="node32" class="node"><title>Node14</title>
<a xlink:href="../../d4/d85/main__memory_8hh.html" target="_top" xlink:title="harpoon/memory/main\l_memory.hh">
<polygon fill="white" stroke="black" points="306.5,-145 306.5,-179 419.5,-179 419.5,-145 306.5,-145"/>
<text text-anchor="start" x="314.5" y="-166" font-family="Helvetica,sans-Serif" font-size="10.00">harpoon/memory/main</text>
<text text-anchor="middle" x="363" y="-153" font-family="Helvetica,sans-Serif" font-size="10.00">_memory.hh</text>
</a>
</g>
<!-- Node7&#45;&gt;Node14 -->
<g id="edge36" class="edge"><title>Node7&#45;&gt;Node14</title>
<path fill="none" stroke="midnightblue" d="M462.716,-211.858C443.084,-202.042 417.472,-189.236 397.121,-179.06"/>
<polygon fill="midnightblue" stroke="midnightblue" points="461.314,-215.07 471.824,-216.412 464.445,-208.809 461.314,-215.07"/>
</g>
<!-- Node15 -->
<g id="node34" class="node"><title>Node15</title>
<a xlink:href="../../d0/dcd/serializer_8hh.html" target="_top" xlink:title="harpoon/memory/serializer\l/serializer.hh">
<polygon fill="white" stroke="black" points="474.5,-145 474.5,-179 605.5,-179 605.5,-145 474.5,-145"/>
<text text-anchor="start" x="482.5" y="-166" font-family="Helvetica,sans-Serif" font-size="10.00">harpoon/memory/serializer</text>
<text text-anchor="middle" x="540" y="-153" font-family="Helvetica,sans-Serif" font-size="10.00">/serializer.hh</text>
</a>
</g>
<!-- Node7&#45;&gt;Node15 -->
<g id="edge38" class="edge"><title>Node7&#45;&gt;Node15</title>
<path fill="none" stroke="midnightblue" d="M506.636,-208.142C513.266,-198.973 521.175,-188.035 527.628,-179.11"/>
<polygon fill="midnightblue" stroke="midnightblue" points="503.784,-206.112 500.761,-216.267 509.457,-210.214 503.784,-206.112"/>
</g>
<!-- Node9 -->
<g id="node22" class="node"><title>Node9</title>
<a xlink:href="../../d4/d48/chunked__random__access__memory_8hh.html" target="_top" xlink:title="harpoon/memory/chunked\l_random_access_memory.hh">
<polygon fill="white" stroke="black" points="565.5,-73 565.5,-107 710.5,-107 710.5,-73 565.5,-73"/>
<text text-anchor="start" x="573.5" y="-94" font-family="Helvetica,sans-Serif" font-size="10.00">harpoon/memory/chunked</text>
<text text-anchor="middle" x="638" y="-81" font-family="Helvetica,sans-Serif" font-size="10.00">_random_access_memory.hh</text>
</a>
</g>
<!-- Node8&#45;&gt;Node9 -->
<g id="edge26" class="edge"><title>Node8&#45;&gt;Node9</title>
<path fill="none" stroke="midnightblue" d="M669.645,-136.498C663.097,-126.877 655.803,-116.159 649.869,-107.441"/>
<polygon fill="midnightblue" stroke="midnightblue" points="666.868,-138.639 675.388,-144.937 672.655,-134.701 666.868,-138.639"/>
</g>
<!-- Node10 -->
<g id="node24" class="node"><title>Node10</title>
<a xlink:href="../../dd/ddc/chunked__read__only__memory_8hh.html" target="_top" xlink:title="harpoon/memory/chunked\l_read_only_memory.hh">
<polygon fill="white" stroke="black" points="727.5,-73 727.5,-107 856.5,-107 856.5,-73 727.5,-73"/>
<text text-anchor="start" x="735.5" y="-94" font-family="Helvetica,sans-Serif" font-size="10.00">harpoon/memory/chunked</text>
<text text-anchor="middle" x="792" y="-81" font-family="Helvetica,sans-Serif" font-size="10.00">_read_only_memory.hh</text>
</a>
</g>
<!-- Node8&#45;&gt;Node10 -->
<g id="edge28" class="edge"><title>Node8&#45;&gt;Node10</title>
<path fill="none" stroke="midnightblue" d="M720.433,-139.074C735.508,-128.738 753.009,-116.737 766.931,-107.19"/>
<polygon fill="midnightblue" stroke="midnightblue" points="718.151,-136.395 711.884,-144.937 722.11,-142.168 718.151,-136.395"/>
</g>
<!-- Node12 -->
<g id="node28" class="node"><title>Node12</title>
<a xlink:href="../../d0/d9e/linear__random__access__memory_8hh.html" target="_top" xlink:title="harpoon/memory/linear\l_random_access_memory.hh">
<polygon fill="white" stroke="black" points="873.5,-73 873.5,-107 1018.5,-107 1018.5,-73 873.5,-73"/>
<text text-anchor="start" x="881.5" y="-94" font-family="Helvetica,sans-Serif" font-size="10.00">harpoon/memory/linear</text>
<text text-anchor="middle" x="946" y="-81" font-family="Helvetica,sans-Serif" font-size="10.00">_random_access_memory.hh</text>
</a>
</g>
<!-- Node11&#45;&gt;Node12 -->
<g id="edge32" class="edge"><title>Node11&#45;&gt;Node12</title>
<path fill="none" stroke="midnightblue" d="M946,-134.719C946,-125.572 946,-115.625 946,-107.441"/>
<polygon fill="midnightblue" stroke="midnightblue" points="942.5,-134.937 946,-144.937 949.5,-134.937 942.5,-134.937"/>
</g>
<!-- Node13 -->
<g id="node30" class="node"><title>Node13</title>
<a xlink:href="../../dd/db0/linear__read__only__memory_8hh.html" target="_top" xlink:title="harpoon/memory/linear\l_read_only_memory.hh">
<polygon fill="white" stroke="black" points="1036,-73 1036,-107 1154,-107 1154,-73 1036,-73"/>
<text text-anchor="start" x="1044" y="-94" font-family="Helvetica,sans-Serif" font-size="10.00">harpoon/memory/linear</text>
<text text-anchor="middle" x="1095" y="-81" font-family="Helvetica,sans-Serif" font-size="10.00">_read_only_memory.hh</text>
</a>
</g>
<!-- Node11&#45;&gt;Node13 -->
<g id="edge34" class="edge"><title>Node11&#45;&gt;Node13</title>
<path fill="none" stroke="midnightblue" d="M990.502,-140.495C1012.62,-129.807 1038.98,-117.072 1059.68,-107.065"/>
<polygon fill="midnightblue" stroke="midnightblue" points="988.792,-137.435 981.311,-144.937 991.838,-143.737 988.792,-137.435"/>
</g>
<!-- Node16 -->
<g id="node36" class="node"><title>Node16</title>
<a xlink:href="../../de/d7d/binary__file_8hh.html" target="_top" xlink:title="harpoon/memory/serializer\l/binary_file.hh">
<polygon fill="white" stroke="black" points="417.5,-73 417.5,-107 548.5,-107 548.5,-73 417.5,-73"/>
<text text-anchor="start" x="425.5" y="-94" font-family="Helvetica,sans-Serif" font-size="10.00">harpoon/memory/serializer</text>
<text text-anchor="middle" x="483" y="-81" font-family="Helvetica,sans-Serif" font-size="10.00">/binary_file.hh</text>
</a>
</g>
<!-- Node15&#45;&gt;Node16 -->
<g id="edge40" class="edge"><title>Node15&#45;&gt;Node16</title>
<path fill="none" stroke="midnightblue" d="M520.276,-137.086C512.541,-127.315 503.85,-116.337 496.807,-107.441"/>
<polygon fill="midnightblue" stroke="midnightblue" points="517.541,-139.269 526.492,-144.937 523.029,-134.924 517.541,-139.269"/>
</g>
</g>
</svg>
