<?xml version="1.0" encoding="UTF-8" standalone="no"?>
<!DOCTYPE svg PUBLIC "-//W3C//DTD SVG 1.1//EN"
 "http://www.w3.org/Graphics/SVG/1.1/DTD/svg11.dtd">
<!-- Generated by graphviz version 2.26.3 (20100126.1600)
 -->
<!-- Title: harpoon::memory::random_access_memory&lt; MemoryImplementation &gt; Pages: 1 -->
<svg width="222pt" height="186pt"
 viewBox="0.00 0.00 222.00 186.00" xmlns="http://www.w3.org/2000/svg" xmlns:xlink="http://www.w3.org/1999/xlink">
<g id="graph1" class="graph" transform="scale(1 1) rotate(0) translate(4 182)">
<title>harpoon::memory::random_access_memory&lt; MemoryImplementation &gt;</title>
<polygon fill="white" stroke="white" points="-4,5 -4,-182 219,-182 219,5 -4,5"/>
<!-- Node1 -->
<g id="node1" class="node"><title>Node1</title>
<polygon fill="#bfbfbf" stroke="black" points="0,-1 0,-77 214,-77 214,-1 0,-1"/>
<text text-anchor="start" x="8" y="-64" font-family="Helvetica,sans-Serif" font-size="10.00">harpoon::memory::random</text>
<text text-anchor="middle" x="107" y="-51" font-family="Helvetica,sans-Serif" font-size="10.00">_access_memory&lt; MemoryImplementation &gt;</text>
<polyline fill="none" stroke="black" points="0,-43 214,-43 "/>
<text text-anchor="middle" x="107" y="-30" font-family="Helvetica,sans-Serif" font-size="10.00"> </text>
<polyline fill="none" stroke="black" points="0,-22 214,-22 "/>
<text text-anchor="start" x="8" y="-9" font-family="Helvetica,sans-Serif" font-size="10.00">+ ~random_access_memory()</text>
</g>
<!-- Node2 -->
<g id="node2" class="node"><title>Node2</title>
<polygon fill="white" stroke="#bfbfbf" points="47.5,-114.5 47.5,-177.5 166.5,-177.5 166.5,-114.5 47.5,-114.5"/>
<text text-anchor="middle" x="107" y="-164.5" font-family="Helvetica,sans-Serif" font-size="10.00">MemoryImplementation</text>
<polyline fill="none" stroke="#bfbfbf" points="47.5,-156.5 166.5,-156.5 "/>
<text text-anchor="middle" x="107" y="-143.5" font-family="Helvetica,sans-Serif" font-size="10.00"> </text>
<polyline fill="none" stroke="#bfbfbf" points="47.5,-135.5 166.5,-135.5 "/>
<text text-anchor="middle" x="107" y="-122.5" font-family="Helvetica,sans-Serif" font-size="10.00"> </text>
</g>
<!-- Node2&#45;&gt;Node1 -->
<g id="edge2" class="edge"><title>Node2&#45;&gt;Node1</title>
<path fill="none" stroke="midnightblue" d="M107,-104.253C107,-95.3105 107,-85.907 107,-77.1103"/>
<polygon fill="none" stroke="midnightblue" points="103.5,-104.475 107,-114.475 110.5,-104.475 103.5,-104.475"/>
</g>
</g>
</svg>
