<?xml version="1.0" encoding="UTF-8" standalone="no"?>
<!DOCTYPE svg PUBLIC "-//W3C//DTD SVG 1.1//EN"
 "http://www.w3.org/Graphics/SVG/1.1/DTD/svg11.dtd">
<!-- Generated by graphviz version 2.26.3 (20100126.1600)
 -->
<!-- Title: harpoon/memory/address.hh Pages: 1 -->
<!--zoomable 318 -->
<svg id="main" version="1.1" xmlns="http://www.w3.org/2000/svg" xmlns:xlink="http://www.w3.org/1999/xlink" xml:space="preserve" onload="init(evt)">
<style type="text/css"><![CDATA[
.edge:hover path { stroke: red; }
.edge:hover polygon { stroke: red; fill: red; }
]]></style>
<script type="text/javascript"><![CDATA[
var edges = document.getElementsByTagName('g');
if (edges && edges.length) {
  for (var i=0;i<edges.length;i++) {
    if (edges[i].id.substr(0,4)=='edge') {
      edges[i].setAttribute('class','edge');
    }
  }
}
]]></script>
        <defs>
                <circle id="rim" cx="0" cy="0" r="7"/>
                <circle id="rim2" cx="0" cy="0" r="3.5"/>
                <g id="zoomPlus">
                        <use xlink:href="#rim" fill="#404040">
                                <set attributeName="fill" to="#808080" begin="zoomplus.mouseover" end="zoomplus.mouseout"/>
                        </use>
                        <path d="M-4,0h8M0,-4v8" fill="none" stroke="white" stroke-width="1.5" pointer-events="none"/>
                </g>
                <g id="zoomMin">
                        <use xlink:href="#rim" fill="#404040">
                                <set attributeName="fill" to="#808080" begin="zoomminus.mouseover" end="zoomminus.mouseout"/>
                        </use>
                        <path d="M-4,0h8" fill="none" stroke="white" stroke-width="1.5" pointer-events="none"/>
                </g>
                <g id="dirArrow">
                        <path fill="none" stroke="white" stroke-width="1.5" d="M0,-3.0v7 M-2.5,-0.5L0,-3.0L2.5,-0.5"/>
                </g>
               <g id="resetDef">
                       <use xlink:href="#rim2" fill="#404040">
                               <set attributeName="fill" to="#808080" begin="reset.mouseover" end="reset.mouseout"/>
                       </use>
               </g>
        </defs>

<script type="text/javascript">
var viewWidth = 856;
var viewHeight = 318;
var sectionId = 'dynsection-1';
</script>
<script xlink:href="../../svgpan.js"/>
<svg id="graph" class="graph">
<g id="viewport">
<title>harpoon/memory/address.hh</title>
<polygon fill="white" stroke="white" points="-4,5 -4,-314 853,-314 853,5 -4,5"/>
<!-- Node1 -->
<g id="node1" class="node"><title>Node1</title>
<polygon fill="#bfbfbf" stroke="black" points="464,-288.5 464,-309.5 604,-309.5 604,-288.5 464,-288.5"/>
<text text-anchor="middle" x="534" y="-296.5" font-family="Helvetica,sans-Serif" font-size="10.00">harpoon/memory/address.hh</text>
</g>
<!-- Node2 -->
<g id="node3" class="node"><title>Node2</title>
<a xlink:href="../../d3/d22/address__range_8hh.html" target="_top" xlink:title="harpoon/memory/address\l_range.hh">
<polygon fill="white" stroke="black" points="326.5,-217 326.5,-251 453.5,-251 453.5,-217 326.5,-217"/>
<text text-anchor="start" x="334.5" y="-238" font-family="Helvetica,sans-Serif" font-size="10.00">harpoon/memory/address</text>
<text text-anchor="middle" x="390" y="-225" font-family="Helvetica,sans-Serif" font-size="10.00">_range.hh</text>
</a>
</g>
<!-- Node1&#45;&gt;Node2 -->
<g id="edge2" class="edge"><title>Node1&#45;&gt;Node2</title>
<path fill="none" stroke="midnightblue" d="M501.34,-284.258C479.483,-274.392 450.645,-261.375 427.795,-251.06"/>
<polygon fill="midnightblue" stroke="midnightblue" points="499.989,-287.488 510.543,-288.412 502.869,-281.108 499.989,-287.488"/>
</g>
<!-- Node12 -->
<g id="node23" class="node"><title>Node12</title>
<a xlink:href="../../d2/d41/access__violation_8hh.html" target="_top" xlink:title="harpoon/memory/exception\l/access_violation.hh">
<polygon fill="white" stroke="black" points="562,-217 562,-251 696,-251 696,-217 562,-217"/>
<text text-anchor="start" x="570" y="-238" font-family="Helvetica,sans-Serif" font-size="10.00">harpoon/memory/exception</text>
<text text-anchor="middle" x="629" y="-225" font-family="Helvetica,sans-Serif" font-size="10.00">/access_violation.hh</text>
</a>
</g>
<!-- Node1&#45;&gt;Node12 -->
<g id="edge22" class="edge"><title>Node1&#45;&gt;Node12</title>
<path fill="none" stroke="midnightblue" d="M558.302,-282.372C572.305,-272.791 589.873,-260.771 603.993,-251.11"/>
<polygon fill="midnightblue" stroke="midnightblue" points="555.964,-279.731 549.687,-288.267 559.917,-285.508 555.964,-279.731"/>
</g>
<!-- Node15 -->
<g id="node29" class="node"><title>Node15</title>
<a xlink:href="../../d9/d5e/read__only__memory_8hh.html" target="_top" xlink:title="harpoon/memory/read\l_only_memory.hh">
<polygon fill="white" stroke="black" points="573.5,-73 573.5,-107 684.5,-107 684.5,-73 573.5,-73"/>
<text text-anchor="start" x="581.5" y="-94" font-family="Helvetica,sans-Serif" font-size="10.00">harpoon/memory/read</text>
<text text-anchor="middle" x="629" y="-81" font-family="Helvetica,sans-Serif" font-size="10.00">_only_memory.hh</text>
</a>
</g>
<!-- Node1&#45;&gt;Node15 -->
<g id="edge34" class="edge"><title>Node1&#45;&gt;Node15</title>
<path fill="none" stroke="midnightblue" d="M531.498,-278.096C528.788,-246.638 527.78,-186.312 553,-144 562.364,-128.289 578.27,-115.927 593.117,-107.018"/>
<polygon fill="midnightblue" stroke="midnightblue" points="528.041,-278.695 532.528,-288.293 535.005,-277.992 528.041,-278.695"/>
</g>
<!-- Node3 -->
<g id="node5" class="node"><title>Node3</title>
<a xlink:href="../../dc/d3f/memory_8hh.html" target="_top" xlink:title="harpoon/memory/memory.hh">
<polygon fill="white" stroke="black" points="266.5,-151.5 266.5,-172.5 407.5,-172.5 407.5,-151.5 266.5,-151.5"/>
<text text-anchor="middle" x="337" y="-159.5" font-family="Helvetica,sans-Serif" font-size="10.00">harpoon/memory/memory.hh</text>
</a>
</g>
<!-- Node2&#45;&gt;Node3 -->
<g id="edge4" class="edge"><title>Node2&#45;&gt;Node3</title>
<path fill="none" stroke="midnightblue" d="M371.457,-208.81C362.416,-196.528 352.014,-182.396 345.024,-172.901"/>
<polygon fill="midnightblue" stroke="midnightblue" points="368.693,-210.958 377.44,-216.937 374.33,-206.809 368.693,-210.958"/>
</g>
<!-- Node4 -->
<g id="node7" class="node"><title>Node4</title>
<a xlink:href="../../d5/d22/computer__system_8hh.html" target="_top" xlink:title="harpoon/computer_system.hh">
<polygon fill="white" stroke="black" points="264,-79.5 264,-100.5 410,-100.5 410,-79.5 264,-79.5"/>
<text text-anchor="middle" x="337" y="-87.5" font-family="Helvetica,sans-Serif" font-size="10.00">harpoon/computer_system.hh</text>
</a>
</g>
<!-- Node3&#45;&gt;Node4 -->
<g id="edge6" class="edge"><title>Node3&#45;&gt;Node4</title>
<path fill="none" stroke="midnightblue" d="M337,-141.235C337,-127.969 337,-111.319 337,-100.667"/>
<polygon fill="midnightblue" stroke="midnightblue" points="333.5,-141.376 337,-151.376 340.5,-141.376 333.5,-141.376"/>
</g>
<!-- Node5 -->
<g id="node9" class="node"><title>Node5</title>
<a xlink:href="../../dc/d1d/chunked__memory_8hh.html" target="_top" xlink:title="harpoon/memory/chunked\l_memory.hh">
<polygon fill="white" stroke="black" points="427.5,-73 427.5,-107 556.5,-107 556.5,-73 427.5,-73"/>
<text text-anchor="start" x="435.5" y="-94" font-family="Helvetica,sans-Serif" font-size="10.00">harpoon/memory/chunked</text>
<text text-anchor="middle" x="492" y="-81" font-family="Helvetica,sans-Serif" font-size="10.00">_memory.hh</text>
</a>
</g>
<!-- Node3&#45;&gt;Node5 -->
<g id="edge8" class="edge"><title>Node3&#45;&gt;Node5</title>
<path fill="none" stroke="midnightblue" d="M368.959,-147.155C394.032,-135.508 428.961,-119.283 455.2,-107.094"/>
<polygon fill="midnightblue" stroke="midnightblue" points="367.466,-143.989 359.871,-151.376 370.415,-150.338 367.466,-143.989"/>
</g>
<!-- Node8 -->
<g id="node15" class="node"><title>Node8</title>
<a xlink:href="../../d1/d70/linear__memory_8hh.html" target="_top" xlink:title="harpoon/memory/linear\l_memory.hh">
<polygon fill="white" stroke="black" points="130,-73 130,-107 246,-107 246,-73 130,-73"/>
<text text-anchor="start" x="138" y="-94" font-family="Helvetica,sans-Serif" font-size="10.00">harpoon/memory/linear</text>
<text text-anchor="middle" x="188" y="-81" font-family="Helvetica,sans-Serif" font-size="10.00">_memory.hh</text>
</a>
</g>
<!-- Node3&#45;&gt;Node8 -->
<g id="edge14" class="edge"><title>Node3&#45;&gt;Node8</title>
<path fill="none" stroke="midnightblue" d="M305.959,-147C281.88,-135.365 248.488,-119.229 223.376,-107.094"/>
<polygon fill="midnightblue" stroke="midnightblue" points="304.488,-150.177 315.015,-151.376 307.533,-143.874 304.488,-150.177"/>
</g>
<!-- Node11 -->
<g id="node21" class="node"><title>Node11</title>
<a xlink:href="../../d4/d85/main__memory_8hh.html" target="_top" xlink:title="harpoon/memory/main\l_memory.hh">
<polygon fill="white" stroke="black" points="-0.5,-73 -0.5,-107 112.5,-107 112.5,-73 -0.5,-73"/>
<text text-anchor="start" x="7.5" y="-94" font-family="Helvetica,sans-Serif" font-size="10.00">harpoon/memory/main</text>
<text text-anchor="middle" x="56" y="-81" font-family="Helvetica,sans-Serif" font-size="10.00">_memory.hh</text>
</a>
</g>
<!-- Node3&#45;&gt;Node11 -->
<g id="edge20" class="edge"><title>Node3&#45;&gt;Node11</title>
<path fill="none" stroke="midnightblue" d="M283.621,-149.052C239.848,-138.338 176.311,-122.57 121,-108 118.282,-107.284 115.503,-106.544 112.698,-105.791"/>
<polygon fill="midnightblue" stroke="midnightblue" points="282.932,-152.486 293.477,-151.46 284.594,-145.686 282.932,-152.486"/>
</g>
<!-- Node6 -->
<g id="node11" class="node"><title>Node6</title>
<a xlink:href="../../d4/d48/chunked__random__access__memory_8hh.html" target="_top" xlink:title="harpoon/memory/chunked\l_random_access_memory.hh">
<polygon fill="white" stroke="black" points="407.5,-1 407.5,-35 552.5,-35 552.5,-1 407.5,-1"/>
<text text-anchor="start" x="415.5" y="-22" font-family="Helvetica,sans-Serif" font-size="10.00">harpoon/memory/chunked</text>
<text text-anchor="middle" x="480" y="-9" font-family="Helvetica,sans-Serif" font-size="10.00">_random_access_memory.hh</text>
</a>
</g>
<!-- Node5&#45;&gt;Node6 -->
<g id="edge10" class="edge"><title>Node5&#45;&gt;Node6</title>
<path fill="none" stroke="midnightblue" d="M487.503,-63.0173C485.965,-53.7884 484.286,-43.7144 482.907,-35.4407"/>
<polygon fill="midnightblue" stroke="midnightblue" points="484.06,-63.6485 489.156,-72.937 490.964,-62.4976 484.06,-63.6485"/>
</g>
<!-- Node7 -->
<g id="node13" class="node"><title>Node7</title>
<a xlink:href="../../dd/ddc/chunked__read__only__memory_8hh.html" target="_top" xlink:title="harpoon/memory/chunked\l_read_only_memory.hh">
<polygon fill="white" stroke="black" points="569.5,-1 569.5,-35 698.5,-35 698.5,-1 569.5,-1"/>
<text text-anchor="start" x="577.5" y="-22" font-family="Helvetica,sans-Serif" font-size="10.00">harpoon/memory/chunked</text>
<text text-anchor="middle" x="634" y="-9" font-family="Helvetica,sans-Serif" font-size="10.00">_read_only_memory.hh</text>
</a>
</g>
<!-- Node5&#45;&gt;Node7 -->
<g id="edge12" class="edge"><title>Node5&#45;&gt;Node7</title>
<path fill="none" stroke="midnightblue" d="M534.66,-68.3694C555.601,-57.7514 580.477,-45.1383 600.097,-35.19"/>
<polygon fill="midnightblue" stroke="midnightblue" points="532.988,-65.293 525.652,-72.937 536.154,-71.5363 532.988,-65.293"/>
</g>
<!-- Node9 -->
<g id="node17" class="node"><title>Node9</title>
<a xlink:href="../../d0/d9e/linear__random__access__memory_8hh.html" target="_top" xlink:title="harpoon/memory/linear\l_random_access_memory.hh">
<polygon fill="white" stroke="black" points="109.5,-1 109.5,-35 254.5,-35 254.5,-1 109.5,-1"/>
<text text-anchor="start" x="117.5" y="-22" font-family="Helvetica,sans-Serif" font-size="10.00">harpoon/memory/linear</text>
<text text-anchor="middle" x="182" y="-9" font-family="Helvetica,sans-Serif" font-size="10.00">_random_access_memory.hh</text>
</a>
</g>
<!-- Node8&#45;&gt;Node9 -->
<g id="edge16" class="edge"><title>Node8&#45;&gt;Node9</title>
<path fill="none" stroke="midnightblue" d="M185.727,-62.7193C184.964,-53.572 184.135,-43.6255 183.453,-35.4407"/>
<polygon fill="midnightblue" stroke="midnightblue" points="182.26,-63.2622 186.578,-72.937 189.235,-62.6809 182.26,-63.2622"/>
</g>
<!-- Node10 -->
<g id="node19" class="node"><title>Node10</title>
<a xlink:href="../../dd/db0/linear__read__only__memory_8hh.html" target="_top" xlink:title="harpoon/memory/linear\l_read_only_memory.hh">
<polygon fill="white" stroke="black" points="272,-1 272,-35 390,-35 390,-1 272,-1"/>
<text text-anchor="start" x="280" y="-22" font-family="Helvetica,sans-Serif" font-size="10.00">harpoon/memory/linear</text>
<text text-anchor="middle" x="331" y="-9" font-family="Helvetica,sans-Serif" font-size="10.00">_read_only_memory.hh</text>
</a>
</g>
<!-- Node8&#45;&gt;Node10 -->
<g id="edge18" class="edge"><title>Node8&#45;&gt;Node10</title>
<path fill="none" stroke="midnightblue" d="M230.961,-68.3694C252.049,-57.7514 277.1,-45.1383 296.859,-35.19"/>
<polygon fill="midnightblue" stroke="midnightblue" points="229.247,-65.3137 221.889,-72.937 232.395,-71.566 229.247,-65.3137"/>
</g>
<!-- Node13 -->
<g id="node25" class="node"><title>Node13</title>
<a xlink:href="../../d2/d7f/read__access__violation_8hh.html" target="_top" xlink:title="harpoon/memory/exception\l/read_access_violation.hh">
<polygon fill="white" stroke="black" points="714,-145 714,-179 848,-179 848,-145 714,-145"/>
<text text-anchor="start" x="722" y="-166" font-family="Helvetica,sans-Serif" font-size="10.00">harpoon/memory/exception</text>
<text text-anchor="middle" x="781" y="-153" font-family="Helvetica,sans-Serif" font-size="10.00">/read_access_violation.hh</text>
</a>
</g>
<!-- Node12&#45;&gt;Node13 -->
<g id="edge24" class="edge"><title>Node12&#45;&gt;Node13</title>
<path fill="none" stroke="midnightblue" d="M674.097,-212.638C696.723,-201.921 723.754,-189.117 744.974,-179.065"/>
<polygon fill="midnightblue" stroke="midnightblue" points="672.561,-209.493 665.022,-216.937 675.558,-215.819 672.561,-209.493"/>
</g>
<!-- Node14 -->
<g id="node27" class="node"><title>Node14</title>
<a xlink:href="../../de/da3/write__access__violation_8hh.html" target="_top" xlink:title="harpoon/memory/exception\l/write_access_violation.hh">
<polygon fill="white" stroke="black" points="562,-145 562,-179 696,-179 696,-145 562,-145"/>
<text text-anchor="start" x="570" y="-166" font-family="Helvetica,sans-Serif" font-size="10.00">harpoon/memory/exception</text>
<text text-anchor="middle" x="629" y="-153" font-family="Helvetica,sans-Serif" font-size="10.00">/write_access_violation.hh</text>
</a>
</g>
<!-- Node12&#45;&gt;Node14 -->
<g id="edge26" class="edge"><title>Node12&#45;&gt;Node14</title>
<path fill="none" stroke="midnightblue" d="M629,-206.719C629,-197.572 629,-187.625 629,-179.441"/>
<polygon fill="midnightblue" stroke="midnightblue" points="625.5,-206.937 629,-216.937 632.5,-206.937 625.5,-206.937"/>
</g>
<!-- Node14&#45;&gt;Node15 -->
<g id="edge28" class="edge"><title>Node14&#45;&gt;Node15</title>
<path fill="none" stroke="midnightblue" d="M629,-134.719C629,-125.572 629,-115.625 629,-107.441"/>
<polygon fill="midnightblue" stroke="midnightblue" points="625.5,-134.937 629,-144.937 632.5,-134.937 625.5,-134.937"/>
</g>
<!-- Node15&#45;&gt;Node7 -->
<g id="edge30" class="edge"><title>Node15&#45;&gt;Node7</title>
<path fill="none" stroke="midnightblue" d="M630.894,-62.7193C631.53,-53.572 632.22,-43.6255 632.789,-35.4407"/>
<polygon fill="midnightblue" stroke="midnightblue" points="627.386,-62.7185 630.185,-72.937 634.369,-63.2035 627.386,-62.7185"/>
</g>
<!-- Node15&#45;&gt;Node10 -->
<g id="edge32" class="edge"><title>Node15&#45;&gt;Node10</title>
<path fill="none" stroke="midnightblue" d="M563.487,-71.6919C490.063,-53.7335 469.387,-52.9391 399,-36 396.15,-35.3142 393.238,-34.5988 390.298,-33.8654"/>
<polygon fill="midnightblue" stroke="midnightblue" points="562.658,-75.0922 573.205,-74.0929 564.337,-68.2965 562.658,-75.0922"/>
</g>
</g>
</svg>
        <g id="navigator" transform="translate(0 0)" fill="#404254">
                <rect fill="#f2f5e9" fill-opacity="0.5" stroke="#606060" stroke-width=".5" x="0" y="0" width="60" height="60"/>
                <use id="zoomplus" xlink:href="#zoomPlus" x="17" y="9" onmousedown="handleZoom(evt,'in')"/>
                <use id="zoomminus" xlink:href="#zoomMin" x="42" y="9" onmousedown="handleZoom(evt,'out')"/>
                <use id="reset" xlink:href="#resetDef" x="30" y="36" onmousedown="handleReset()"/>
                <g id="arrowUp" xlink:href="#dirArrow" transform="translate(30 24)" onmousedown="handlePan(0,-1)">
                  <use xlink:href="#rim" fill="#404040">
                        <set attributeName="fill" to="#808080" begin="arrowUp.mouseover" end="arrowUp.mouseout"/>
                  </use>
                  <path fill="none" stroke="white" stroke-width="1.5" d="M0,-3.0v7 M-2.5,-0.5L0,-3.0L2.5,-0.5"/>
                </g>
                <g id="arrowRight" xlink:href="#dirArrow" transform="rotate(90) translate(36 -43)" onmousedown="handlePan(1,0)">
                  <use xlink:href="#rim" fill="#404040">
                        <set attributeName="fill" to="#808080" begin="arrowRight.mouseover" end="arrowRight.mouseout"/>
                  </use>
                  <path fill="none" stroke="white" stroke-width="1.5" d="M0,-3.0v7 M-2.5,-0.5L0,-3.0L2.5,-0.5"/>
                </g>
                <g id="arrowDown" xlink:href="#dirArrow" transform="rotate(180) translate(-30 -48)" onmousedown="handlePan(0,1)">
                  <use xlink:href="#rim" fill="#404040">
                        <set attributeName="fill" to="#808080" begin="arrowDown.mouseover" end="arrowDown.mouseout"/>
                  </use>
                  <path fill="none" stroke="white" stroke-width="1.5" d="M0,-3.0v7 M-2.5,-0.5L0,-3.0L2.5,-0.5"/>
                </g>
                <g id="arrowLeft" xlink:href="#dirArrow" transform="rotate(270) translate(-36 17)" onmousedown="handlePan(-1,0)">
                  <use xlink:href="#rim" fill="#404040">
                        <set attributeName="fill" to="#808080" begin="arrowLeft.mouseover" end="arrowLeft.mouseout"/>
                  </use>
                  <path fill="none" stroke="white" stroke-width="1.5" d="M0,-3.0v7 M-2.5,-0.5L0,-3.0L2.5,-0.5"/>
                </g>
        </g>
        <svg viewBox="0 0 15 15" width="100%" height="30px" preserveAspectRatio="xMaxYMin meet">
         <g id="arrow_out" transform="scale(0.3 0.3)">
          <a xlink:href="address_8hh__dep__incl_org.svg" target="_base">
           <rect id="button" ry="5" rx="5" y="6" x="6" height="38" width="38"
                fill="#f2f5e9" fill-opacity="0.5" stroke="#606060" stroke-width="1.0"/>
           <path id="arrow"
             d="M 11.500037,31.436501 C 11.940474,20.09759 22.043105,11.32322 32.158766,21.979434 L 37.068811,17.246167 C 37.068811,17.246167 37.088388,32 37.088388,32 L 22.160133,31.978069 C 22.160133,31.978069 26.997745,27.140456 26.997745,27.140456 C 18.528582,18.264221 13.291696,25.230495 11.500037,31.436501 z"
             style="fill:#404040;"/>
          </a>
         </g>
        </svg>
</svg>
