<?xml version="1.0" encoding="UTF-8" standalone="no"?>
<!DOCTYPE svg PUBLIC "-//W3C//DTD SVG 1.1//EN"
 "http://www.w3.org/Graphics/SVG/1.1/DTD/svg11.dtd">
<!-- Generated by graphviz version 2.26.3 (20100126.1600)
 -->
<!-- Title: harpoon/memory/address.hh Pages: 1 -->
<svg width="886pt" height="318pt"
 viewBox="0.00 0.00 886.00 318.00" xmlns="http://www.w3.org/2000/svg" xmlns:xlink="http://www.w3.org/1999/xlink">
<g id="graph1" class="graph" transform="scale(1 1) rotate(0) translate(4 314)">
<title>harpoon/memory/address.hh</title>
<polygon fill="white" stroke="white" points="-4,5 -4,-314 883,-314 883,5 -4,5"/>
<!-- Node1 -->
<g id="node1" class="node"><title>Node1</title>
<polygon fill="#bfbfbf" stroke="black" points="373,-288.5 373,-309.5 513,-309.5 513,-288.5 373,-288.5"/>
<text text-anchor="middle" x="443" y="-296.5" font-family="Helvetica,sans-Serif" font-size="10.00">harpoon/memory/address.hh</text>
</g>
<!-- Node2 -->
<g id="node3" class="node"><title>Node2</title>
<a xlink:href="../../d3/d22/address__range_8hh.html" target="_top" xlink:title="harpoon/memory/address\l_range.hh">
<polygon fill="white" stroke="black" points="477.5,-217 477.5,-251 604.5,-251 604.5,-217 477.5,-217"/>
<text text-anchor="start" x="485.5" y="-238" font-family="Helvetica,sans-Serif" font-size="10.00">harpoon/memory/address</text>
<text text-anchor="middle" x="541" y="-225" font-family="Helvetica,sans-Serif" font-size="10.00">_range.hh</text>
</a>
</g>
<!-- Node1&#45;&gt;Node2 -->
<g id="edge2" class="edge"><title>Node1&#45;&gt;Node2</title>
<path fill="none" stroke="midnightblue" d="M467.658,-282.645C482.169,-273.02 500.499,-260.863 515.204,-251.11"/>
<polygon fill="midnightblue" stroke="midnightblue" points="465.582,-279.822 459.183,-288.267 469.451,-285.656 465.582,-279.822"/>
</g>
<!-- Node14 -->
<g id="node28" class="node"><title>Node14</title>
<a xlink:href="../../d2/d41/access__violation_8hh.html" target="_top" xlink:title="harpoon/memory/exception\l/access_violation.hh">
<polygon fill="white" stroke="black" points="281,-217 281,-251 415,-251 415,-217 281,-217"/>
<text text-anchor="start" x="289" y="-238" font-family="Helvetica,sans-Serif" font-size="10.00">harpoon/memory/exception</text>
<text text-anchor="middle" x="348" y="-225" font-family="Helvetica,sans-Serif" font-size="10.00">/access_violation.hh</text>
</a>
</g>
<!-- Node1&#45;&gt;Node14 -->
<g id="edge28" class="edge"><title>Node1&#45;&gt;Node14</title>
<path fill="none" stroke="midnightblue" d="M418.698,-282.372C404.695,-272.791 387.127,-260.771 373.007,-251.11"/>
<polygon fill="midnightblue" stroke="midnightblue" points="417.083,-285.508 427.313,-288.267 421.036,-279.731 417.083,-285.508"/>
</g>
<!-- Node17 -->
<g id="node34" class="node"><title>Node17</title>
<a xlink:href="../../d9/d5e/read__only__memory_8hh.html" target="_top" xlink:title="harpoon/memory/read\l_only_memory.hh">
<polygon fill="white" stroke="black" points="179.5,-73 179.5,-107 290.5,-107 290.5,-73 179.5,-73"/>
<text text-anchor="start" x="187.5" y="-94" font-family="Helvetica,sans-Serif" font-size="10.00">harpoon/memory/read</text>
<text text-anchor="middle" x="235" y="-81" font-family="Helvetica,sans-Serif" font-size="10.00">_only_memory.hh</text>
</a>
</g>
<!-- Node1&#45;&gt;Node17 -->
<g id="edge40" class="edge"><title>Node1&#45;&gt;Node17</title>
<path fill="none" stroke="midnightblue" d="M447.006,-278.259C452.034,-245.592 456.46,-181.977 424,-144 423.433,-143.336 346.262,-121.428 290.718,-105.724"/>
<polygon fill="midnightblue" stroke="midnightblue" points="443.502,-277.982 445.261,-288.43 450.401,-279.165 443.502,-277.982"/>
</g>
<!-- Node3 -->
<g id="node5" class="node"><title>Node3</title>
<a xlink:href="../../dc/d3f/memory_8hh.html" target="_top" xlink:title="harpoon/memory/memory.hh">
<polygon fill="white" stroke="black" points="470.5,-151.5 470.5,-172.5 611.5,-172.5 611.5,-151.5 470.5,-151.5"/>
<text text-anchor="middle" x="541" y="-159.5" font-family="Helvetica,sans-Serif" font-size="10.00">harpoon/memory/memory.hh</text>
</a>
</g>
<!-- Node2&#45;&gt;Node3 -->
<g id="edge4" class="edge"><title>Node2&#45;&gt;Node3</title>
<path fill="none" stroke="midnightblue" d="M541,-206.667C541,-194.913 541,-181.848 541,-172.901"/>
<polygon fill="midnightblue" stroke="midnightblue" points="537.5,-206.937 541,-216.937 544.5,-206.937 537.5,-206.937"/>
</g>
<!-- Node12 -->
<g id="node23" class="node"><title>Node12</title>
<a xlink:href="../../d0/dcd/serializer_8hh.html" target="_top" xlink:title="harpoon/memory/serializer\l/serializer.hh">
<polygon fill="white" stroke="black" points="747.5,-73 747.5,-107 878.5,-107 878.5,-73 747.5,-73"/>
<text text-anchor="start" x="755.5" y="-94" font-family="Helvetica,sans-Serif" font-size="10.00">harpoon/memory/serializer</text>
<text text-anchor="middle" x="813" y="-81" font-family="Helvetica,sans-Serif" font-size="10.00">/serializer.hh</text>
</a>
</g>
<!-- Node2&#45;&gt;Node12 -->
<g id="edge26" class="edge"><title>Node2&#45;&gt;Node12</title>
<path fill="none" stroke="midnightblue" d="M582.295,-212.138C636.715,-183.327 731.311,-133.247 780.772,-107.062"/>
<polygon fill="midnightblue" stroke="midnightblue" points="580.47,-209.144 573.27,-216.916 583.746,-215.33 580.47,-209.144"/>
</g>
<!-- Node4 -->
<g id="node7" class="node"><title>Node4</title>
<a xlink:href="../../d5/d22/computer__system_8hh.html" target="_top" xlink:title="harpoon/computer_system.hh">
<polygon fill="white" stroke="black" points="584,-79.5 584,-100.5 730,-100.5 730,-79.5 584,-79.5"/>
<text text-anchor="middle" x="657" y="-87.5" font-family="Helvetica,sans-Serif" font-size="10.00">harpoon/computer_system.hh</text>
</a>
</g>
<!-- Node3&#45;&gt;Node4 -->
<g id="edge6" class="edge"><title>Node3&#45;&gt;Node4</title>
<path fill="none" stroke="midnightblue" d="M566.725,-146.033C588.97,-132.225 620.508,-112.65 639.814,-100.667"/>
<polygon fill="midnightblue" stroke="midnightblue" points="564.767,-143.129 558.116,-151.376 568.458,-149.076 564.767,-143.129"/>
</g>
<!-- Node5 -->
<g id="node9" class="node"><title>Node5</title>
<a xlink:href="../../dc/d1d/chunked__memory_8hh.html" target="_top" xlink:title="harpoon/memory/chunked\l_memory.hh">
<polygon fill="white" stroke="black" points="437.5,-73 437.5,-107 566.5,-107 566.5,-73 437.5,-73"/>
<text text-anchor="start" x="445.5" y="-94" font-family="Helvetica,sans-Serif" font-size="10.00">harpoon/memory/chunked</text>
<text text-anchor="middle" x="502" y="-81" font-family="Helvetica,sans-Serif" font-size="10.00">_memory.hh</text>
</a>
</g>
<!-- Node3&#45;&gt;Node5 -->
<g id="edge8" class="edge"><title>Node3&#45;&gt;Node5</title>
<path fill="none" stroke="midnightblue" d="M530.429,-142.485C524.44,-131.428 517.018,-117.726 511.259,-107.094"/>
<polygon fill="midnightblue" stroke="midnightblue" points="527.405,-144.25 535.245,-151.376 533.56,-140.916 527.405,-144.25"/>
</g>
<!-- Node8 -->
<g id="node15" class="node"><title>Node8</title>
<a xlink:href="../../d1/d70/linear__memory_8hh.html" target="_top" xlink:title="harpoon/memory/linear\l_memory.hh">
<polygon fill="white" stroke="black" points="46,-73 46,-107 162,-107 162,-73 46,-73"/>
<text text-anchor="start" x="54" y="-94" font-family="Helvetica,sans-Serif" font-size="10.00">harpoon/memory/linear</text>
<text text-anchor="middle" x="104" y="-81" font-family="Helvetica,sans-Serif" font-size="10.00">_memory.hh</text>
</a>
</g>
<!-- Node3&#45;&gt;Node8 -->
<g id="edge14" class="edge"><title>Node3&#45;&gt;Node8</title>
<path fill="none" stroke="midnightblue" d="M463.579,-149.963C450.377,-147.946 436.798,-145.895 424,-144 311.648,-127.365 282.27,-130.776 171,-108 168.05,-107.396 165.037,-106.739 162.002,-106.044"/>
<polygon fill="midnightblue" stroke="midnightblue" points="463.167,-153.441 473.582,-151.495 464.227,-146.521 463.167,-153.441"/>
</g>
<!-- Node11 -->
<g id="node21" class="node"><title>Node11</title>
<a xlink:href="../../d4/d85/main__memory_8hh.html" target="_top" xlink:title="harpoon/memory/main\l_memory.hh">
<polygon fill="white" stroke="black" points="307.5,-73 307.5,-107 420.5,-107 420.5,-73 307.5,-73"/>
<text text-anchor="start" x="315.5" y="-94" font-family="Helvetica,sans-Serif" font-size="10.00">harpoon/memory/main</text>
<text text-anchor="middle" x="364" y="-81" font-family="Helvetica,sans-Serif" font-size="10.00">_memory.hh</text>
</a>
</g>
<!-- Node3&#45;&gt;Node11 -->
<g id="edge20" class="edge"><title>Node3&#45;&gt;Node11</title>
<path fill="none" stroke="midnightblue" d="M505.259,-147.461C476.577,-135.794 436.251,-119.39 406.024,-107.094"/>
<polygon fill="midnightblue" stroke="midnightblue" points="504.301,-150.85 514.883,-151.376 506.939,-144.366 504.301,-150.85"/>
</g>
<!-- Node3&#45;&gt;Node12 -->
<g id="edge22" class="edge"><title>Node3&#45;&gt;Node12</title>
<path fill="none" stroke="midnightblue" d="M590.526,-148.89C634.861,-137.154 700.146,-119.873 748.539,-107.063"/>
<polygon fill="midnightblue" stroke="midnightblue" points="589.614,-145.511 580.842,-151.453 591.405,-152.278 589.614,-145.511"/>
</g>
<!-- Node6 -->
<g id="node11" class="node"><title>Node6</title>
<a xlink:href="../../d4/d48/chunked__random__access__memory_8hh.html" target="_top" xlink:title="harpoon/memory/chunked\l_random_access_memory.hh">
<polygon fill="white" stroke="black" points="443.5,-1 443.5,-35 588.5,-35 588.5,-1 443.5,-1"/>
<text text-anchor="start" x="451.5" y="-22" font-family="Helvetica,sans-Serif" font-size="10.00">harpoon/memory/chunked</text>
<text text-anchor="middle" x="516" y="-9" font-family="Helvetica,sans-Serif" font-size="10.00">_random_access_memory.hh</text>
</a>
</g>
<!-- Node5&#45;&gt;Node6 -->
<g id="edge10" class="edge"><title>Node5&#45;&gt;Node6</title>
<path fill="none" stroke="midnightblue" d="M507.247,-63.0173C509.041,-53.7884 511,-43.7144 512.609,-35.4407"/>
<polygon fill="midnightblue" stroke="midnightblue" points="503.791,-62.4528 505.318,-72.937 510.662,-63.7889 503.791,-62.4528"/>
</g>
<!-- Node7 -->
<g id="node13" class="node"><title>Node7</title>
<a xlink:href="../../dd/ddc/chunked__read__only__memory_8hh.html" target="_top" xlink:title="harpoon/memory/chunked\l_read_only_memory.hh">
<polygon fill="white" stroke="black" points="297.5,-1 297.5,-35 426.5,-35 426.5,-1 297.5,-1"/>
<text text-anchor="start" x="305.5" y="-22" font-family="Helvetica,sans-Serif" font-size="10.00">harpoon/memory/chunked</text>
<text text-anchor="middle" x="362" y="-9" font-family="Helvetica,sans-Serif" font-size="10.00">_read_only_memory.hh</text>
</a>
</g>
<!-- Node5&#45;&gt;Node7 -->
<g id="edge12" class="edge"><title>Node5&#45;&gt;Node7</title>
<path fill="none" stroke="midnightblue" d="M459.662,-68.2264C439.075,-57.6383 414.682,-45.0936 395.425,-35.19"/>
<polygon fill="midnightblue" stroke="midnightblue" points="458.328,-71.476 468.822,-72.937 461.53,-65.251 458.328,-71.476"/>
</g>
<!-- Node9 -->
<g id="node17" class="node"><title>Node9</title>
<a xlink:href="../../d0/d9e/linear__random__access__memory_8hh.html" target="_top" xlink:title="harpoon/memory/linear\l_random_access_memory.hh">
<polygon fill="white" stroke="black" points="-0.5,-1 -0.5,-35 144.5,-35 144.5,-1 -0.5,-1"/>
<text text-anchor="start" x="7.5" y="-22" font-family="Helvetica,sans-Serif" font-size="10.00">harpoon/memory/linear</text>
<text text-anchor="middle" x="72" y="-9" font-family="Helvetica,sans-Serif" font-size="10.00">_random_access_memory.hh</text>
</a>
</g>
<!-- Node8&#45;&gt;Node9 -->
<g id="edge16" class="edge"><title>Node8&#45;&gt;Node9</title>
<path fill="none" stroke="midnightblue" d="M92.2718,-63.6116C88.0989,-54.2225 83.5077,-43.8924 79.7514,-35.4407"/>
<polygon fill="midnightblue" stroke="midnightblue" points="89.1567,-65.2204 96.4164,-72.937 95.5533,-62.3774 89.1567,-65.2204"/>
</g>
<!-- Node10 -->
<g id="node19" class="node"><title>Node10</title>
<a xlink:href="../../dd/db0/linear__read__only__memory_8hh.html" target="_top" xlink:title="harpoon/memory/linear\l_read_only_memory.hh">
<polygon fill="white" stroke="black" points="162,-1 162,-35 280,-35 280,-1 162,-1"/>
<text text-anchor="start" x="170" y="-22" font-family="Helvetica,sans-Serif" font-size="10.00">harpoon/memory/linear</text>
<text text-anchor="middle" x="221" y="-9" font-family="Helvetica,sans-Serif" font-size="10.00">_read_only_memory.hh</text>
</a>
</g>
<!-- Node8&#45;&gt;Node10 -->
<g id="edge18" class="edge"><title>Node8&#45;&gt;Node10</title>
<path fill="none" stroke="midnightblue" d="M140.315,-67.6522C157.321,-57.1871 177.263,-44.9152 193.066,-35.19"/>
<polygon fill="midnightblue" stroke="midnightblue" points="138.41,-64.7152 131.727,-72.937 142.078,-70.6768 138.41,-64.7152"/>
</g>
<!-- Node13 -->
<g id="node25" class="node"><title>Node13</title>
<a xlink:href="../../de/d7d/binary__file_8hh.html" target="_top" xlink:title="harpoon/memory/serializer\l/binary_file.hh">
<polygon fill="white" stroke="black" points="747.5,-1 747.5,-35 878.5,-35 878.5,-1 747.5,-1"/>
<text text-anchor="start" x="755.5" y="-22" font-family="Helvetica,sans-Serif" font-size="10.00">harpoon/memory/serializer</text>
<text text-anchor="middle" x="813" y="-9" font-family="Helvetica,sans-Serif" font-size="10.00">/binary_file.hh</text>
</a>
</g>
<!-- Node12&#45;&gt;Node13 -->
<g id="edge24" class="edge"><title>Node12&#45;&gt;Node13</title>
<path fill="none" stroke="midnightblue" d="M813,-62.7193C813,-53.572 813,-43.6255 813,-35.4407"/>
<polygon fill="midnightblue" stroke="midnightblue" points="809.5,-62.937 813,-72.937 816.5,-62.937 809.5,-62.937"/>
</g>
<!-- Node15 -->
<g id="node30" class="node"><title>Node15</title>
<a xlink:href="../../d2/d7f/read__access__violation_8hh.html" target="_top" xlink:title="harpoon/memory/exception\l/read_access_violation.hh">
<polygon fill="white" stroke="black" points="281,-145 281,-179 415,-179 415,-145 281,-145"/>
<text text-anchor="start" x="289" y="-166" font-family="Helvetica,sans-Serif" font-size="10.00">harpoon/memory/exception</text>
<text text-anchor="middle" x="348" y="-153" font-family="Helvetica,sans-Serif" font-size="10.00">/read_access_violation.hh</text>
</a>
</g>
<!-- Node14&#45;&gt;Node15 -->
<g id="edge30" class="edge"><title>Node14&#45;&gt;Node15</title>
<path fill="none" stroke="midnightblue" d="M348,-206.719C348,-197.572 348,-187.625 348,-179.441"/>
<polygon fill="midnightblue" stroke="midnightblue" points="344.5,-206.937 348,-216.937 351.5,-206.937 344.5,-206.937"/>
</g>
<!-- Node16 -->
<g id="node32" class="node"><title>Node16</title>
<a xlink:href="../../de/da3/write__access__violation_8hh.html" target="_top" xlink:title="harpoon/memory/exception\l/write_access_violation.hh">
<polygon fill="white" stroke="black" points="129,-145 129,-179 263,-179 263,-145 129,-145"/>
<text text-anchor="start" x="137" y="-166" font-family="Helvetica,sans-Serif" font-size="10.00">harpoon/memory/exception</text>
<text text-anchor="middle" x="196" y="-153" font-family="Helvetica,sans-Serif" font-size="10.00">/write_access_violation.hh</text>
</a>
</g>
<!-- Node14&#45;&gt;Node16 -->
<g id="edge32" class="edge"><title>Node14&#45;&gt;Node16</title>
<path fill="none" stroke="midnightblue" d="M302.903,-212.638C280.277,-201.921 253.246,-189.117 232.026,-179.065"/>
<polygon fill="midnightblue" stroke="midnightblue" points="301.442,-215.819 311.978,-216.937 304.439,-209.493 301.442,-215.819"/>
</g>
<!-- Node16&#45;&gt;Node17 -->
<g id="edge34" class="edge"><title>Node16&#45;&gt;Node17</title>
<path fill="none" stroke="midnightblue" d="M210.133,-135.908C215.262,-126.44 220.927,-115.981 225.553,-107.441"/>
<polygon fill="midnightblue" stroke="midnightblue" points="206.928,-134.477 205.242,-144.937 213.083,-137.811 206.928,-134.477"/>
</g>
<!-- Node17&#45;&gt;Node7 -->
<g id="edge36" class="edge"><title>Node17&#45;&gt;Node7</title>
<path fill="none" stroke="midnightblue" d="M273.912,-67.9398C292.481,-57.4125 314.367,-45.0044 331.679,-35.19"/>
<polygon fill="midnightblue" stroke="midnightblue" points="272.07,-64.9604 265.097,-72.937 275.523,-71.0498 272.07,-64.9604"/>
</g>
<!-- Node17&#45;&gt;Node10 -->
<g id="edge38" class="edge"><title>Node17&#45;&gt;Node10</title>
<path fill="none" stroke="midnightblue" d="M229.753,-63.0173C227.959,-53.7884 226,-43.7144 224.391,-35.4407"/>
<polygon fill="midnightblue" stroke="midnightblue" points="226.338,-63.7889 231.682,-72.937 233.209,-62.4528 226.338,-63.7889"/>
</g>
</g>
</svg>
