<?xml version="1.0" encoding="UTF-8" standalone="no"?>
<!DOCTYPE svg PUBLIC "-//W3C//DTD SVG 1.1//EN"
 "http://www.w3.org/Graphics/SVG/1.1/DTD/svg11.dtd">
<!-- Generated by graphviz version 2.26.3 (20100126.1600)
 -->
<!-- Title: harpoon/hardware_component.hh Pages: 1 -->
<svg width="385pt" height="262pt"
 viewBox="0.00 0.00 385.00 262.00" xmlns="http://www.w3.org/2000/svg" xmlns:xlink="http://www.w3.org/1999/xlink">
<g id="graph1" class="graph" transform="scale(1 1) rotate(0) translate(4 258)">
<title>harpoon/hardware_component.hh</title>
<polygon fill="white" stroke="white" points="-4,5 -4,-258 382,-258 382,5 -4,5"/>
<!-- Node1 -->
<g id="node1" class="node"><title>Node1</title>
<polygon fill="#bfbfbf" stroke="black" points="156.5,-232.5 156.5,-253.5 317.5,-253.5 317.5,-232.5 156.5,-232.5"/>
<text text-anchor="middle" x="237" y="-240.5" font-family="Helvetica,sans-Serif" font-size="10.00">harpoon/hardware_component.hh</text>
</g>
<!-- Node2 -->
<g id="node3" class="node"><title>Node2</title>
<a xlink:href="../../d5/d08/harpoon_8hh.html" target="_top" xlink:title="Harpoon library common header file. ">
<polygon fill="white" stroke="black" points="65,-58.5 65,-79.5 167,-79.5 167,-58.5 65,-58.5"/>
<text text-anchor="middle" x="116" y="-66.5" font-family="Helvetica,sans-Serif" font-size="10.00">harpoon/harpoon.hh</text>
</a>
</g>
<!-- Node1&#45;&gt;Node2 -->
<g id="edge2" class="edge"><title>Node1&#45;&gt;Node2</title>
<path fill="none" stroke="midnightblue" d="M187.681,-232.433C152.846,-223.853 110.558,-210.785 100,-196 77.2104,-164.088 93.4397,-115.83 105.725,-88.9211"/>
<polygon fill="midnightblue" stroke="midnightblue" points="108.965,-90.2604 110.151,-79.7321 102.658,-87.2228 108.965,-90.2604"/>
</g>
<!-- Node7 -->
<g id="node13" class="node"><title>Node7</title>
<a xlink:href="../../d3/de3/log_8hh.html" target="_top" xlink:title="harpoon/log/log.hh">
<polygon fill="white" stroke="black" points="109,-174.5 109,-195.5 205,-195.5 205,-174.5 109,-174.5"/>
<text text-anchor="middle" x="157" y="-182.5" font-family="Helvetica,sans-Serif" font-size="10.00">harpoon/log/log.hh</text>
</a>
</g>
<!-- Node1&#45;&gt;Node7 -->
<g id="edge12" class="edge"><title>Node1&#45;&gt;Node7</title>
<path fill="none" stroke="midnightblue" d="M222.327,-232.362C210.486,-223.777 193.615,-211.546 179.984,-201.664"/>
<polygon fill="midnightblue" stroke="midnightblue" points="181.731,-198.607 171.58,-195.571 177.622,-204.274 181.731,-198.607"/>
</g>
<!-- Node10 -->
<g id="node21" class="node"><title>Node10</title>
<polygon fill="white" stroke="#bfbfbf" points="222.5,-174.5 222.5,-195.5 251.5,-195.5 251.5,-174.5 222.5,-174.5"/>
<text text-anchor="middle" x="237" y="-182.5" font-family="Helvetica,sans-Serif" font-size="10.00">list</text>
</g>
<!-- Node1&#45;&gt;Node10 -->
<g id="edge22" class="edge"><title>Node1&#45;&gt;Node10</title>
<path fill="none" stroke="midnightblue" d="M237,-232.362C237,-224.922 237,-214.743 237,-205.728"/>
<polygon fill="midnightblue" stroke="midnightblue" points="240.5,-205.571 237,-195.571 233.5,-205.571 240.5,-205.571"/>
</g>
<!-- Node11 -->
<g id="node23" class="node"><title>Node11</title>
<polygon fill="white" stroke="#bfbfbf" points="269,-174.5 269,-195.5 315,-195.5 315,-174.5 269,-174.5"/>
<text text-anchor="middle" x="292" y="-182.5" font-family="Helvetica,sans-Serif" font-size="10.00">atomic</text>
</g>
<!-- Node1&#45;&gt;Node11 -->
<g id="edge24" class="edge"><title>Node1&#45;&gt;Node11</title>
<path fill="none" stroke="midnightblue" d="M247.088,-232.362C254.841,-224.186 265.73,-212.702 274.845,-203.091"/>
<polygon fill="midnightblue" stroke="midnightblue" points="277.635,-205.235 281.976,-195.571 272.555,-200.419 277.635,-205.235"/>
</g>
<!-- Node12 -->
<g id="node25" class="node"><title>Node12</title>
<polygon fill="white" stroke="#bfbfbf" points="333,-174.5 333,-195.5 377,-195.5 377,-174.5 333,-174.5"/>
<text text-anchor="middle" x="355" y="-182.5" font-family="Helvetica,sans-Serif" font-size="10.00">mutex</text>
</g>
<!-- Node1&#45;&gt;Node12 -->
<g id="edge26" class="edge"><title>Node1&#45;&gt;Node12</title>
<path fill="none" stroke="midnightblue" d="M258.369,-232.497C276.799,-223.438 303.637,-210.246 324.355,-200.063"/>
<polygon fill="midnightblue" stroke="midnightblue" points="325.961,-203.174 333.391,-195.621 322.873,-196.891 325.961,-203.174"/>
</g>
<!-- Node3 -->
<g id="node5" class="node"><title>Node3</title>
<polygon fill="white" stroke="#bfbfbf" points="-0.5,-0.5 -0.5,-21.5 40.5,-21.5 40.5,-0.5 -0.5,-0.5"/>
<text text-anchor="middle" x="20" y="-8.5" font-family="Helvetica,sans-Serif" font-size="10.00">string</text>
</g>
<!-- Node2&#45;&gt;Node3 -->
<g id="edge4" class="edge"><title>Node2&#45;&gt;Node3</title>
<path fill="none" stroke="midnightblue" d="M98.3921,-58.3619C83.7771,-49.532 62.7762,-36.844 46.1888,-26.8224"/>
<polygon fill="midnightblue" stroke="midnightblue" points="47.8653,-23.7461 37.4963,-21.5707 44.2455,-29.7376 47.8653,-23.7461"/>
</g>
<!-- Node4 -->
<g id="node7" class="node"><title>Node4</title>
<polygon fill="white" stroke="#bfbfbf" points="58,-0.5 58,-21.5 110,-21.5 110,-0.5 58,-0.5"/>
<text text-anchor="middle" x="84" y="-8.5" font-family="Helvetica,sans-Serif" font-size="10.00">memory</text>
</g>
<!-- Node2&#45;&gt;Node4 -->
<g id="edge6" class="edge"><title>Node2&#45;&gt;Node4</title>
<path fill="none" stroke="midnightblue" d="M110.131,-58.3619C105.845,-50.5949 99.9131,-39.8426 94.7839,-30.5458"/>
<polygon fill="midnightblue" stroke="midnightblue" points="97.7274,-28.6357 89.8321,-21.5707 91.5984,-32.0172 97.7274,-28.6357"/>
</g>
<!-- Node5 -->
<g id="node9" class="node"><title>Node5</title>
<polygon fill="white" stroke="#bfbfbf" points="128,-0.5 128,-21.5 168,-21.5 168,-0.5 128,-0.5"/>
<text text-anchor="middle" x="148" y="-8.5" font-family="Helvetica,sans-Serif" font-size="10.00">utility</text>
</g>
<!-- Node2&#45;&gt;Node5 -->
<g id="edge8" class="edge"><title>Node2&#45;&gt;Node5</title>
<path fill="none" stroke="midnightblue" d="M121.869,-58.3619C126.155,-50.5949 132.087,-39.8426 137.216,-30.5458"/>
<polygon fill="midnightblue" stroke="midnightblue" points="140.402,-32.0172 142.168,-21.5707 134.273,-28.6357 140.402,-32.0172"/>
</g>
<!-- Node6 -->
<g id="node11" class="node"><title>Node6</title>
<polygon fill="white" stroke="#bfbfbf" points="186,-0.5 186,-21.5 232,-21.5 232,-0.5 186,-0.5"/>
<text text-anchor="middle" x="209" y="-8.5" font-family="Helvetica,sans-Serif" font-size="10.00">cstdint</text>
</g>
<!-- Node2&#45;&gt;Node6 -->
<g id="edge10" class="edge"><title>Node2&#45;&gt;Node6</title>
<path fill="none" stroke="midnightblue" d="M133.058,-58.3619C147.085,-49.6138 167.184,-37.0786 183.182,-27.1015"/>
<polygon fill="midnightblue" stroke="midnightblue" points="185.418,-29.8323 192.051,-21.5707 181.713,-23.8927 185.418,-29.8323"/>
</g>
<!-- Node7&#45;&gt;Node2 -->
<g id="edge14" class="edge"><title>Node7&#45;&gt;Node2</title>
<path fill="none" stroke="midnightblue" d="M152.389,-174.262C148.389,-164.793 142.542,-150.583 138,-138 132.206,-121.949 126.372,-103.524 122.169,-89.7532"/>
<polygon fill="midnightblue" stroke="midnightblue" points="125.418,-88.4048 119.18,-79.8414 118.716,-90.426 125.418,-88.4048"/>
</g>
<!-- Node8 -->
<g id="node16" class="node"><title>Node8</title>
<a xlink:href="../../d9/d74/message_8hh.html" target="_top" xlink:title="harpoon/log/message.hh">
<polygon fill="white" stroke="black" points="146.5,-116.5 146.5,-137.5 269.5,-137.5 269.5,-116.5 146.5,-116.5"/>
<text text-anchor="middle" x="208" y="-124.5" font-family="Helvetica,sans-Serif" font-size="10.00">harpoon/log/message.hh</text>
</a>
</g>
<!-- Node7&#45;&gt;Node8 -->
<g id="edge16" class="edge"><title>Node7&#45;&gt;Node8</title>
<path fill="none" stroke="midnightblue" d="M166.354,-174.362C173.543,-166.186 183.641,-154.702 192.093,-145.091"/>
<polygon fill="midnightblue" stroke="midnightblue" points="194.73,-147.392 198.705,-137.571 189.473,-142.769 194.73,-147.392"/>
</g>
<!-- Node8&#45;&gt;Node2 -->
<g id="edge18" class="edge"><title>Node8&#45;&gt;Node2</title>
<path fill="none" stroke="midnightblue" d="M191.126,-116.362C177.249,-107.614 157.366,-95.0786 141.54,-85.1015"/>
<polygon fill="midnightblue" stroke="midnightblue" points="143.093,-81.943 132.767,-79.5707 139.36,-87.8645 143.093,-81.943"/>
</g>
<!-- Node9 -->
<g id="node19" class="node"><title>Node9</title>
<polygon fill="white" stroke="#bfbfbf" points="185,-58.5 185,-79.5 237,-79.5 237,-58.5 185,-58.5"/>
<text text-anchor="middle" x="211" y="-66.5" font-family="Helvetica,sans-Serif" font-size="10.00">sstream</text>
</g>
<!-- Node8&#45;&gt;Node9 -->
<g id="edge20" class="edge"><title>Node8&#45;&gt;Node9</title>
<path fill="none" stroke="midnightblue" d="M208.55,-116.362C208.935,-108.922 209.462,-98.7427 209.928,-89.7276"/>
<polygon fill="midnightblue" stroke="midnightblue" points="213.432,-89.7381 210.453,-79.5707 206.441,-89.3765 213.432,-89.7381"/>
</g>
</g>
</svg>
