<?xml version="1.0" encoding="UTF-8" standalone="no"?>
<!DOCTYPE svg PUBLIC "-//W3C//DTD SVG 1.1//EN"
 "http://www.w3.org/Graphics/SVG/1.1/DTD/svg11.dtd">
<!-- Generated by graphviz version 2.26.3 (20100126.1600)
 -->
<!-- Title: harpoon::memory::exception::access_violation Pages: 1 -->
<svg width="148pt" height="788pt"
 viewBox="0.00 0.00 148.00 788.00" xmlns="http://www.w3.org/2000/svg" xmlns:xlink="http://www.w3.org/1999/xlink">
<g id="graph1" class="graph" transform="scale(1 1) rotate(0) translate(4 784)">
<title>harpoon::memory::exception::access_violation</title>
<polygon fill="white" stroke="white" points="-4,5 -4,-784 145,-784 145,5 -4,5"/>
<!-- Node1 -->
<g id="node1" class="node"><title>Node1</title>
<polygon fill="#bfbfbf" stroke="black" points="0,-1 0,-129 140,-129 140,-1 0,-1"/>
<text text-anchor="start" x="8" y="-116" font-family="Helvetica,sans-Serif" font-size="10.00">harpoon::memory::exception</text>
<text text-anchor="middle" x="70" y="-103" font-family="Helvetica,sans-Serif" font-size="10.00">::access_violation</text>
<polyline fill="none" stroke="black" points="0,-95 140,-95 "/>
<text text-anchor="middle" x="70" y="-82" font-family="Helvetica,sans-Serif" font-size="10.00"> </text>
<polyline fill="none" stroke="black" points="0,-74 140,-74 "/>
<text text-anchor="start" x="8" y="-61" font-family="Helvetica,sans-Serif" font-size="10.00">+ access_violation()</text>
<text text-anchor="start" x="8" y="-48" font-family="Helvetica,sans-Serif" font-size="10.00">+ access_violation()</text>
<text text-anchor="start" x="8" y="-35" font-family="Helvetica,sans-Serif" font-size="10.00">+ operator=()</text>
<text text-anchor="start" x="8" y="-22" font-family="Helvetica,sans-Serif" font-size="10.00">+ get_address()</text>
<text text-anchor="start" x="8" y="-9" font-family="Helvetica,sans-Serif" font-size="10.00">+ ~access_violation()</text>
</g>
<!-- Node2 -->
<g id="node2" class="node"><title>Node2</title>
<a xlink:href="../../dd/de3/classharpoon_1_1memory_1_1exception_1_1memory__exception.html" target="_top" xlink:title="{harpoon::memory::exception\l::memory_exception\n||+ memory_exception()\l+ operator=()\l+ ~memory_exception()\l}">
<polygon fill="white" stroke="black" points="0,-167 0,-269 140,-269 140,-167 0,-167"/>
<text text-anchor="start" x="8" y="-256" font-family="Helvetica,sans-Serif" font-size="10.00">harpoon::memory::exception</text>
<text text-anchor="middle" x="70" y="-243" font-family="Helvetica,sans-Serif" font-size="10.00">::memory_exception</text>
<polyline fill="none" stroke="black" points="0,-235 140,-235 "/>
<text text-anchor="middle" x="70" y="-222" font-family="Helvetica,sans-Serif" font-size="10.00"> </text>
<polyline fill="none" stroke="black" points="0,-214 140,-214 "/>
<text text-anchor="start" x="8" y="-201" font-family="Helvetica,sans-Serif" font-size="10.00">+ memory_exception()</text>
<text text-anchor="start" x="8" y="-188" font-family="Helvetica,sans-Serif" font-size="10.00">+ operator=()</text>
<text text-anchor="start" x="8" y="-175" font-family="Helvetica,sans-Serif" font-size="10.00">+ ~memory_exception()</text>
</a>
</g>
<!-- Node2&#45;&gt;Node1 -->
<g id="edge2" class="edge"><title>Node2&#45;&gt;Node1</title>
<path fill="none" stroke="midnightblue" d="M70,-156.547C70,-147.483 70,-138.125 70,-129.011"/>
<polygon fill="none" stroke="midnightblue" points="66.5001,-156.628 70,-166.628 73.5001,-156.628 66.5001,-156.628"/>
</g>
<!-- Node3 -->
<g id="node4" class="node"><title>Node3</title>
<a xlink:href="../../d7/df5/classharpoon_1_1exception_1_1hardware__component__exception.html" target="_top" xlink:title="{harpoon::exception\l::hardware_component\l_exception\n||+ hardware_component\l_exception()\l+ hardware_component\l_exception()\l+ operator=()\l+ get_component()\l+ ~hardware_component\l_exception()\l}">
<polygon fill="white" stroke="black" points="7.5,-307 7.5,-487 132.5,-487 132.5,-307 7.5,-307"/>
<text text-anchor="start" x="15.5" y="-474" font-family="Helvetica,sans-Serif" font-size="10.00">harpoon::exception</text>
<text text-anchor="start" x="15.5" y="-461" font-family="Helvetica,sans-Serif" font-size="10.00">::hardware_component</text>
<text text-anchor="middle" x="70" y="-448" font-family="Helvetica,sans-Serif" font-size="10.00">_exception</text>
<polyline fill="none" stroke="black" points="7.5,-440 132.5,-440 "/>
<text text-anchor="middle" x="70" y="-427" font-family="Helvetica,sans-Serif" font-size="10.00"> </text>
<polyline fill="none" stroke="black" points="7.5,-419 132.5,-419 "/>
<text text-anchor="start" x="15.5" y="-406" font-family="Helvetica,sans-Serif" font-size="10.00">+ hardware_component</text>
<text text-anchor="start" x="15.5" y="-393" font-family="Helvetica,sans-Serif" font-size="10.00">_exception()</text>
<text text-anchor="start" x="15.5" y="-380" font-family="Helvetica,sans-Serif" font-size="10.00">+ hardware_component</text>
<text text-anchor="start" x="15.5" y="-367" font-family="Helvetica,sans-Serif" font-size="10.00">_exception()</text>
<text text-anchor="start" x="15.5" y="-354" font-family="Helvetica,sans-Serif" font-size="10.00">+ operator=()</text>
<text text-anchor="start" x="15.5" y="-341" font-family="Helvetica,sans-Serif" font-size="10.00">+ get_component()</text>
<text text-anchor="start" x="15.5" y="-328" font-family="Helvetica,sans-Serif" font-size="10.00">+ ~hardware_component</text>
<text text-anchor="start" x="15.5" y="-315" font-family="Helvetica,sans-Serif" font-size="10.00">_exception()</text>
</a>
</g>
<!-- Node3&#45;&gt;Node2 -->
<g id="edge4" class="edge"><title>Node3&#45;&gt;Node2</title>
<path fill="none" stroke="midnightblue" d="M70,-296.731C70,-287.33 70,-278.089 70,-269.433"/>
<polygon fill="none" stroke="midnightblue" points="66.5001,-296.976 70,-306.976 73.5001,-296.976 66.5001,-296.976"/>
</g>
<!-- Node4 -->
<g id="node6" class="node"><title>Node4</title>
<a xlink:href="../../d0/d5b/classharpoon_1_1exception_1_1harpoon__exception.html" target="_top" xlink:title="{harpoon::exception\l::harpoon_exception\n||+ harpoon_exception()\l+ harpoon_exception()\l+ operator=()\l+ set_what()\l+ get_what()\l+ what()\l+ ~harpoon_exception()\l}">
<polygon fill="white" stroke="black" points="10.5,-525 10.5,-679 129.5,-679 129.5,-525 10.5,-525"/>
<text text-anchor="start" x="18.5" y="-666" font-family="Helvetica,sans-Serif" font-size="10.00">harpoon::exception</text>
<text text-anchor="middle" x="70" y="-653" font-family="Helvetica,sans-Serif" font-size="10.00">::harpoon_exception</text>
<polyline fill="none" stroke="black" points="10.5,-645 129.5,-645 "/>
<text text-anchor="middle" x="70" y="-632" font-family="Helvetica,sans-Serif" font-size="10.00"> </text>
<polyline fill="none" stroke="black" points="10.5,-624 129.5,-624 "/>
<text text-anchor="start" x="18.5" y="-611" font-family="Helvetica,sans-Serif" font-size="10.00">+ harpoon_exception()</text>
<text text-anchor="start" x="18.5" y="-598" font-family="Helvetica,sans-Serif" font-size="10.00">+ harpoon_exception()</text>
<text text-anchor="start" x="18.5" y="-585" font-family="Helvetica,sans-Serif" font-size="10.00">+ operator=()</text>
<text text-anchor="start" x="18.5" y="-572" font-family="Helvetica,sans-Serif" font-size="10.00">+ set_what()</text>
<text text-anchor="start" x="18.5" y="-559" font-family="Helvetica,sans-Serif" font-size="10.00">+ get_what()</text>
<text text-anchor="start" x="18.5" y="-546" font-family="Helvetica,sans-Serif" font-size="10.00">+ what()</text>
<text text-anchor="start" x="18.5" y="-533" font-family="Helvetica,sans-Serif" font-size="10.00">+ ~harpoon_exception()</text>
</a>
</g>
<!-- Node4&#45;&gt;Node3 -->
<g id="edge6" class="edge"><title>Node4&#45;&gt;Node3</title>
<path fill="none" stroke="midnightblue" d="M70,-514.635C70,-505.566 70,-496.335 70,-487.235"/>
<polygon fill="none" stroke="midnightblue" points="66.5001,-514.79 70,-524.79 73.5001,-514.79 66.5001,-514.79"/>
</g>
<!-- Node5 -->
<g id="node8" class="node"><title>Node5</title>
<polygon fill="white" stroke="#bfbfbf" points="23.5,-716.5 23.5,-779.5 116.5,-779.5 116.5,-716.5 23.5,-716.5"/>
<text text-anchor="middle" x="70" y="-766.5" font-family="Helvetica,sans-Serif" font-size="10.00">std::runtime_error</text>
<polyline fill="none" stroke="#bfbfbf" points="23.5,-758.5 116.5,-758.5 "/>
<text text-anchor="middle" x="70" y="-745.5" font-family="Helvetica,sans-Serif" font-size="10.00"> </text>
<polyline fill="none" stroke="#bfbfbf" points="23.5,-737.5 116.5,-737.5 "/>
<text text-anchor="middle" x="70" y="-724.5" font-family="Helvetica,sans-Serif" font-size="10.00"> </text>
</g>
<!-- Node5&#45;&gt;Node4 -->
<g id="edge8" class="edge"><title>Node5&#45;&gt;Node4</title>
<path fill="none" stroke="midnightblue" d="M70,-706.288C70,-697.742 70,-688.491 70,-679.148"/>
<polygon fill="none" stroke="midnightblue" points="66.5001,-706.32 70,-716.32 73.5001,-706.32 66.5001,-706.32"/>
</g>
</g>
</svg>
