<?xml version="1.0" encoding="UTF-8" standalone="no"?>
<!DOCTYPE svg PUBLIC "-//W3C//DTD SVG 1.1//EN"
 "http://www.w3.org/Graphics/SVG/1.1/DTD/svg11.dtd">
<!-- Generated by graphviz version 2.26.3 (20100126.1600)
 -->
<!-- Title: harpoon/execution/execution_unit.hh Pages: 1 -->
<svg width="350pt" height="188pt"
 viewBox="0.00 0.00 350.00 188.00" xmlns="http://www.w3.org/2000/svg" xmlns:xlink="http://www.w3.org/1999/xlink">
<g id="graph1" class="graph" transform="scale(1 1) rotate(0) translate(4 184)">
<title>harpoon/execution/execution_unit.hh</title>
<polygon fill="white" stroke="white" points="-4,5 -4,-184 347,-184 347,5 -4,5"/>
<!-- Node1 -->
<g id="node1" class="node"><title>Node1</title>
<polygon fill="#bfbfbf" stroke="black" points="166.5,-145 166.5,-179 307.5,-179 307.5,-145 166.5,-145"/>
<text text-anchor="start" x="174.5" y="-166" font-family="Helvetica,sans-Serif" font-size="10.00">harpoon/execution/execution</text>
<text text-anchor="middle" x="237" y="-153" font-family="Helvetica,sans-Serif" font-size="10.00">_unit.hh</text>
</g>
<!-- Node2 -->
<g id="node3" class="node"><title>Node2</title>
<a xlink:href="../../d5/d22/computer__system_8hh.html" target="_top" xlink:title="harpoon/computer_system.hh">
<polygon fill="white" stroke="black" points="0,-79.5 0,-100.5 146,-100.5 146,-79.5 0,-79.5"/>
<text text-anchor="middle" x="73" y="-87.5" font-family="Helvetica,sans-Serif" font-size="10.00">harpoon/computer_system.hh</text>
</a>
</g>
<!-- Node1&#45;&gt;Node2 -->
<g id="edge2" class="edge"><title>Node1&#45;&gt;Node2</title>
<path fill="none" stroke="midnightblue" d="M188.668,-140.781C158.644,-127.6 121.333,-111.219 97.345,-100.688"/>
<polygon fill="midnightblue" stroke="midnightblue" points="187.571,-144.122 198.134,-144.937 190.385,-137.712 187.571,-144.122"/>
</g>
<!-- Node3 -->
<g id="node5" class="node"><title>Node3</title>
<a xlink:href="../../dd/dba/processing__unit_8hh.html" target="_top" xlink:title="harpoon/execution/processing\l_unit.hh">
<polygon fill="white" stroke="black" points="164,-73 164,-107 310,-107 310,-73 164,-73"/>
<text text-anchor="start" x="172" y="-94" font-family="Helvetica,sans-Serif" font-size="10.00">harpoon/execution/processing</text>
<text text-anchor="middle" x="237" y="-81" font-family="Helvetica,sans-Serif" font-size="10.00">_unit.hh</text>
</a>
</g>
<!-- Node1&#45;&gt;Node3 -->
<g id="edge4" class="edge"><title>Node1&#45;&gt;Node3</title>
<path fill="none" stroke="midnightblue" d="M237,-134.719C237,-125.572 237,-115.625 237,-107.441"/>
<polygon fill="midnightblue" stroke="midnightblue" points="233.5,-134.937 237,-144.937 240.5,-134.937 233.5,-134.937"/>
</g>
<!-- Node4 -->
<g id="node7" class="node"><title>Node4</title>
<a xlink:href="../../d9/d67/up__execution__unit_8hh.html" target="_top" xlink:title="harpoon/execution/up\l_execution_unit.hh">
<polygon fill="white" stroke="black" points="232,-1 232,-35 342,-35 342,-1 232,-1"/>
<text text-anchor="start" x="240" y="-22" font-family="Helvetica,sans-Serif" font-size="10.00">harpoon/execution/up</text>
<text text-anchor="middle" x="287" y="-9" font-family="Helvetica,sans-Serif" font-size="10.00">_execution_unit.hh</text>
</a>
</g>
<!-- Node1&#45;&gt;Node4 -->
<g id="edge8" class="edge"><title>Node1&#45;&gt;Node4</title>
<path fill="none" stroke="midnightblue" d="M287.507,-139.748C300.039,-131.653 311.905,-121.168 319,-108 331.901,-84.0578 315.139,-53.8555 301.426,-35.2398"/>
<polygon fill="midnightblue" stroke="midnightblue" points="285.559,-136.835 278.775,-144.973 289.153,-142.841 285.559,-136.835"/>
</g>
<!-- Node3&#45;&gt;Node4 -->
<g id="edge6" class="edge"><title>Node3&#45;&gt;Node4</title>
<path fill="none" stroke="midnightblue" d="M254.71,-64.4981C261.391,-54.8768 268.834,-44.1593 274.888,-35.4407"/>
<polygon fill="midnightblue" stroke="midnightblue" points="251.679,-62.7269 248.849,-72.937 257.428,-66.7197 251.679,-62.7269"/>
</g>
</g>
</svg>
