<?xml version="1.0" encoding="UTF-8" standalone="no"?>
<!DOCTYPE svg PUBLIC "-//W3C//DTD SVG 1.1//EN"
 "http://www.w3.org/Graphics/SVG/1.1/DTD/svg11.dtd">
<!-- Generated by graphviz version 2.26.3 (20100126.1600)
 -->
<!-- Title: harpoon/memory/memory.hh Pages: 1 -->
<!--zoomable 334 -->
<svg id="main" version="1.1" xmlns="http://www.w3.org/2000/svg" xmlns:xlink="http://www.w3.org/1999/xlink" xml:space="preserve" onload="init(evt)">
<style type="text/css"><![CDATA[
.edge:hover path { stroke: red; }
.edge:hover polygon { stroke: red; fill: red; }
]]></style>
<script type="text/javascript"><![CDATA[
var edges = document.getElementsByTagName('g');
if (edges && edges.length) {
  for (var i=0;i<edges.length;i++) {
    if (edges[i].id.substr(0,4)=='edge') {
      edges[i].setAttribute('class','edge');
    }
  }
}
]]></script>
        <defs>
                <circle id="rim" cx="0" cy="0" r="7"/>
                <circle id="rim2" cx="0" cy="0" r="3.5"/>
                <g id="zoomPlus">
                        <use xlink:href="#rim" fill="#404040">
                                <set attributeName="fill" to="#808080" begin="zoomplus.mouseover" end="zoomplus.mouseout"/>
                        </use>
                        <path d="M-4,0h8M0,-4v8" fill="none" stroke="white" stroke-width="1.5" pointer-events="none"/>
                </g>
                <g id="zoomMin">
                        <use xlink:href="#rim" fill="#404040">
                                <set attributeName="fill" to="#808080" begin="zoomminus.mouseover" end="zoomminus.mouseout"/>
                        </use>
                        <path d="M-4,0h8" fill="none" stroke="white" stroke-width="1.5" pointer-events="none"/>
                </g>
                <g id="dirArrow">
                        <path fill="none" stroke="white" stroke-width="1.5" d="M0,-3.0v7 M-2.5,-0.5L0,-3.0L2.5,-0.5"/>
                </g>
               <g id="resetDef">
                       <use xlink:href="#rim2" fill="#404040">
                               <set attributeName="fill" to="#808080" begin="reset.mouseover" end="reset.mouseout"/>
                       </use>
               </g>
        </defs>

<script type="text/javascript">
var viewWidth = 530;
var viewHeight = 334;
var sectionId = 'dynsection-0';
</script>
<script xlink:href="../../svgpan.js"/>
<svg id="graph" class="graph">
<g id="viewport">
<title>harpoon/memory/memory.hh</title>
<polygon fill="white" stroke="white" points="-4,5 -4,-330 527.034,-330 527.034,5 -4,5"/>
<!-- Node1 -->
<g id="node1" class="node"><title>Node1</title>
<polygon fill="#bfbfbf" stroke="black" points="165.534,-304.5 165.534,-325.5 306.534,-325.5 306.534,-304.5 165.534,-304.5"/>
<text text-anchor="middle" x="236.034" y="-312.5" font-family="Helvetica,sans-Serif" font-size="10.00">harpoon/memory/memory.hh</text>
</g>
<!-- Node2 -->
<g id="node3" class="node"><title>Node2</title>
<a xlink:href="../../d5/d08/harpoon_8hh.html" target="_top" xlink:title="Harpoon library common header file. ">
<polygon fill="white" stroke="black" points="218.034,-58.5 218.034,-79.5 320.034,-79.5 320.034,-58.5 218.034,-58.5"/>
<text text-anchor="middle" x="269.034" y="-66.5" font-family="Helvetica,sans-Serif" font-size="10.00">harpoon/harpoon.hh</text>
</a>
</g>
<!-- Node1&#45;&gt;Node2 -->
<g id="edge2" class="edge"><title>Node1&#45;&gt;Node2</title>
<path fill="none" stroke="midnightblue" d="M205.979,-304.447C131.118,-276.604 -52.9056,-197.664 15.0338,-116 39.0749,-87.1022 140.555,-75.8969 207.74,-71.6044"/>
<polygon fill="midnightblue" stroke="midnightblue" points="208.03,-75.0934 217.801,-70.9966 207.608,-68.1061 208.03,-75.0934"/>
</g>
<!-- Node7 -->
<g id="node13" class="node"><title>Node7</title>
<a xlink:href="../../d5/d09/hardware__component_8hh.html" target="_top" xlink:title="Hardware component. ">
<polygon fill="white" stroke="black" points="235.534,-246.5 235.534,-267.5 396.534,-267.5 396.534,-246.5 235.534,-246.5"/>
<text text-anchor="middle" x="316.034" y="-254.5" font-family="Helvetica,sans-Serif" font-size="10.00">harpoon/hardware_component.hh</text>
</a>
</g>
<!-- Node1&#45;&gt;Node7 -->
<g id="edge12" class="edge"><title>Node1&#45;&gt;Node7</title>
<path fill="none" stroke="midnightblue" d="M250.707,-304.362C262.548,-295.777 279.419,-283.546 293.05,-273.664"/>
<polygon fill="midnightblue" stroke="midnightblue" points="295.412,-276.274 301.454,-267.571 291.303,-270.607 295.412,-276.274"/>
</g>
<!-- Node11 -->
<g id="node24" class="node"><title>Node11</title>
<polygon fill="white" stroke="#bfbfbf" points="493.534,-181.5 493.534,-202.5 522.534,-202.5 522.534,-181.5 493.534,-181.5"/>
<text text-anchor="middle" x="508.034" y="-189.5" font-family="Helvetica,sans-Serif" font-size="10.00">list</text>
</g>
<!-- Node1&#45;&gt;Node11 -->
<g id="edge42" class="edge"><title>Node1&#45;&gt;Node11</title>
<path fill="none" stroke="midnightblue" d="M293.026,-304.46C326.68,-296.955 369.51,-285.128 405.034,-268 437.087,-252.545 469.34,-226.69 489.002,-209.492"/>
<polygon fill="midnightblue" stroke="midnightblue" points="491.48,-211.971 496.62,-202.706 486.825,-206.744 491.48,-211.971"/>
</g>
<!-- Node14 -->
<g id="node30" class="node"><title>Node14</title>
<a xlink:href="../../d3/d22/address__range_8hh.html" target="_top" xlink:title="harpoon/memory/address\l_range.hh">
<polygon fill="white" stroke="black" points="71.5338,-175 71.5338,-209 198.534,-209 198.534,-175 71.5338,-175"/>
<text text-anchor="start" x="79.5338" y="-196" font-family="Helvetica,sans-Serif" font-size="10.00">harpoon/memory/address</text>
<text text-anchor="middle" x="135.034" y="-183" font-family="Helvetica,sans-Serif" font-size="10.00">_range.hh</text>
</a>
</g>
<!-- Node1&#45;&gt;Node14 -->
<g id="edge32" class="edge"><title>Node1&#45;&gt;Node14</title>
<path fill="none" stroke="midnightblue" d="M227.071,-304.085C211.145,-284.69 177.536,-243.76 155.64,-217.095"/>
<polygon fill="midnightblue" stroke="midnightblue" points="158.305,-214.825 149.254,-209.317 152.895,-219.267 158.305,-214.825"/>
</g>
<!-- Node3 -->
<g id="node5" class="node"><title>Node3</title>
<polygon fill="white" stroke="#bfbfbf" points="152.534,-0.5 152.534,-21.5 193.534,-21.5 193.534,-0.5 152.534,-0.5"/>
<text text-anchor="middle" x="173.034" y="-8.5" font-family="Helvetica,sans-Serif" font-size="10.00">string</text>
</g>
<!-- Node2&#45;&gt;Node3 -->
<g id="edge4" class="edge"><title>Node2&#45;&gt;Node3</title>
<path fill="none" stroke="midnightblue" d="M251.426,-58.3619C236.811,-49.532 215.81,-36.844 199.223,-26.8224"/>
<polygon fill="midnightblue" stroke="midnightblue" points="200.899,-23.7461 190.53,-21.5707 197.279,-29.7376 200.899,-23.7461"/>
</g>
<!-- Node4 -->
<g id="node7" class="node"><title>Node4</title>
<polygon fill="white" stroke="#bfbfbf" points="211.034,-0.5 211.034,-21.5 263.034,-21.5 263.034,-0.5 211.034,-0.5"/>
<text text-anchor="middle" x="237.034" y="-8.5" font-family="Helvetica,sans-Serif" font-size="10.00">memory</text>
</g>
<!-- Node2&#45;&gt;Node4 -->
<g id="edge6" class="edge"><title>Node2&#45;&gt;Node4</title>
<path fill="none" stroke="midnightblue" d="M263.165,-58.3619C258.879,-50.5949 252.947,-39.8426 247.818,-30.5458"/>
<polygon fill="midnightblue" stroke="midnightblue" points="250.761,-28.6357 242.866,-21.5707 244.632,-32.0172 250.761,-28.6357"/>
</g>
<!-- Node5 -->
<g id="node9" class="node"><title>Node5</title>
<polygon fill="white" stroke="#bfbfbf" points="281.034,-0.5 281.034,-21.5 321.034,-21.5 321.034,-0.5 281.034,-0.5"/>
<text text-anchor="middle" x="301.034" y="-8.5" font-family="Helvetica,sans-Serif" font-size="10.00">utility</text>
</g>
<!-- Node2&#45;&gt;Node5 -->
<g id="edge8" class="edge"><title>Node2&#45;&gt;Node5</title>
<path fill="none" stroke="midnightblue" d="M274.903,-58.3619C279.188,-50.5949 285.121,-39.8426 290.25,-30.5458"/>
<polygon fill="midnightblue" stroke="midnightblue" points="293.435,-32.0172 295.202,-21.5707 287.306,-28.6357 293.435,-32.0172"/>
</g>
<!-- Node6 -->
<g id="node11" class="node"><title>Node6</title>
<polygon fill="white" stroke="#bfbfbf" points="339.034,-0.5 339.034,-21.5 385.034,-21.5 385.034,-0.5 339.034,-0.5"/>
<text text-anchor="middle" x="362.034" y="-8.5" font-family="Helvetica,sans-Serif" font-size="10.00">cstdint</text>
</g>
<!-- Node2&#45;&gt;Node6 -->
<g id="edge10" class="edge"><title>Node2&#45;&gt;Node6</title>
<path fill="none" stroke="midnightblue" d="M286.091,-58.3619C300.119,-49.6138 320.218,-37.0786 336.216,-27.1015"/>
<polygon fill="midnightblue" stroke="midnightblue" points="338.451,-29.8323 345.084,-21.5707 334.747,-23.8927 338.451,-29.8323"/>
</g>
<!-- Node7&#45;&gt;Node2 -->
<g id="edge14" class="edge"><title>Node7&#45;&gt;Node2</title>
<path fill="none" stroke="midnightblue" d="M313.372,-246.354C305.811,-216.107 284.105,-129.285 274.143,-89.4371"/>
<polygon fill="midnightblue" stroke="midnightblue" points="277.487,-88.3821 271.666,-79.5296 270.696,-90.0799 277.487,-88.3821"/>
</g>
<!-- Node8 -->
<g id="node16" class="node"><title>Node8</title>
<a xlink:href="../../d3/de3/log_8hh.html" target="_top" xlink:title="harpoon/log/log.hh">
<polygon fill="white" stroke="black" points="316.034,-181.5 316.034,-202.5 412.034,-202.5 412.034,-181.5 316.034,-181.5"/>
<text text-anchor="middle" x="364.034" y="-189.5" font-family="Helvetica,sans-Serif" font-size="10.00">harpoon/log/log.hh</text>
</a>
</g>
<!-- Node7&#45;&gt;Node8 -->
<g id="edge16" class="edge"><title>Node7&#45;&gt;Node8</title>
<path fill="none" stroke="midnightblue" d="M323.96,-246.267C331.09,-236.612 341.722,-222.215 350.243,-210.675"/>
<polygon fill="midnightblue" stroke="midnightblue" points="353.13,-212.657 356.255,-202.534 347.499,-208.499 353.13,-212.657"/>
</g>
<!-- Node7&#45;&gt;Node11 -->
<g id="edge26" class="edge"><title>Node7&#45;&gt;Node11</title>
<path fill="none" stroke="midnightblue" d="M375.62,-246.419C408.978,-239.046 450.646,-227.366 485.034,-210 485.865,-209.58 486.696,-209.128 487.522,-208.649"/>
<polygon fill="midnightblue" stroke="midnightblue" points="489.71,-211.393 495.986,-202.858 485.757,-205.616 489.71,-211.393"/>
</g>
<!-- Node12 -->
<g id="node26" class="node"><title>Node12</title>
<polygon fill="white" stroke="#bfbfbf" points="430.034,-181.5 430.034,-202.5 476.034,-202.5 476.034,-181.5 430.034,-181.5"/>
<text text-anchor="middle" x="453.034" y="-189.5" font-family="Helvetica,sans-Serif" font-size="10.00">atomic</text>
</g>
<!-- Node7&#45;&gt;Node12 -->
<g id="edge28" class="edge"><title>Node7&#45;&gt;Node12</title>
<path fill="none" stroke="midnightblue" d="M341.371,-246.431C362.828,-237.297 394.279,-223.478 421.034,-210 422.599,-209.211 424.198,-208.385 425.804,-207.537"/>
<polygon fill="midnightblue" stroke="midnightblue" points="427.807,-210.431 434.913,-202.572 424.458,-204.284 427.807,-210.431"/>
</g>
<!-- Node13 -->
<g id="node28" class="node"><title>Node13</title>
<polygon fill="white" stroke="#bfbfbf" points="216.034,-181.5 216.034,-202.5 260.034,-202.5 260.034,-181.5 216.034,-181.5"/>
<text text-anchor="middle" x="238.034" y="-189.5" font-family="Helvetica,sans-Serif" font-size="10.00">mutex</text>
</g>
<!-- Node7&#45;&gt;Node13 -->
<g id="edge30" class="edge"><title>Node7&#45;&gt;Node13</title>
<path fill="none" stroke="midnightblue" d="M303.154,-246.267C291,-236.139 272.584,-220.792 258.433,-209"/>
<polygon fill="midnightblue" stroke="midnightblue" points="260.597,-206.247 250.674,-202.534 256.116,-211.624 260.597,-206.247"/>
</g>
<!-- Node8&#45;&gt;Node2 -->
<g id="edge18" class="edge"><title>Node8&#45;&gt;Node2</title>
<path fill="none" stroke="midnightblue" d="M355.603,-181.085C339.365,-160.061 303.584,-113.733 283.477,-87.7"/>
<polygon fill="midnightblue" stroke="midnightblue" points="286.193,-85.4902 277.31,-79.7153 280.653,-89.7691 286.193,-85.4902"/>
</g>
<!-- Node9 -->
<g id="node19" class="node"><title>Node9</title>
<a xlink:href="../../d9/d74/message_8hh.html" target="_top" xlink:title="harpoon/log/message.hh">
<polygon fill="white" stroke="black" points="353.534,-116.5 353.534,-137.5 476.534,-137.5 476.534,-116.5 353.534,-116.5"/>
<text text-anchor="middle" x="415.034" y="-124.5" font-family="Helvetica,sans-Serif" font-size="10.00">harpoon/log/message.hh</text>
</a>
</g>
<!-- Node8&#45;&gt;Node9 -->
<g id="edge20" class="edge"><title>Node8&#45;&gt;Node9</title>
<path fill="none" stroke="midnightblue" d="M372.455,-181.267C380.031,-171.612 391.327,-157.215 400.381,-145.675"/>
<polygon fill="midnightblue" stroke="midnightblue" points="403.35,-147.562 406.769,-137.534 397.842,-143.241 403.35,-147.562"/>
</g>
<!-- Node9&#45;&gt;Node2 -->
<g id="edge22" class="edge"><title>Node9&#45;&gt;Node2</title>
<path fill="none" stroke="midnightblue" d="M388.594,-116.497C365.277,-107.234 331.083,-93.6499 305.23,-83.3793"/>
<polygon fill="midnightblue" stroke="midnightblue" points="306.356,-80.0605 295.77,-79.6212 303.771,-86.566 306.356,-80.0605"/>
</g>
<!-- Node10 -->
<g id="node22" class="node"><title>Node10</title>
<polygon fill="white" stroke="#bfbfbf" points="389.034,-58.5 389.034,-79.5 441.034,-79.5 441.034,-58.5 389.034,-58.5"/>
<text text-anchor="middle" x="415.034" y="-66.5" font-family="Helvetica,sans-Serif" font-size="10.00">sstream</text>
</g>
<!-- Node9&#45;&gt;Node10 -->
<g id="edge24" class="edge"><title>Node9&#45;&gt;Node10</title>
<path fill="none" stroke="midnightblue" d="M415.034,-116.362C415.034,-108.922 415.034,-98.7427 415.034,-89.7276"/>
<polygon fill="midnightblue" stroke="midnightblue" points="418.534,-89.5706 415.034,-79.5707 411.534,-89.5707 418.534,-89.5706"/>
</g>
<!-- Node14&#45;&gt;Node2 -->
<g id="edge34" class="edge"><title>Node14&#45;&gt;Node2</title>
<path fill="none" stroke="midnightblue" d="M176.713,-174.88C194.973,-165.886 215.689,-153.484 231.034,-138 244.8,-124.11 255.044,-104.208 261.405,-89.3441"/>
<polygon fill="midnightblue" stroke="midnightblue" points="264.681,-90.5778 265.184,-79.9949 258.191,-87.9544 264.681,-90.5778"/>
</g>
<!-- Node15 -->
<g id="node33" class="node"><title>Node15</title>
<a xlink:href="../../db/db3/address_8hh.html" target="_top" xlink:title="harpoon/memory/address.hh">
<polygon fill="white" stroke="black" points="24.0338,-116.5 24.0338,-137.5 164.034,-137.5 164.034,-116.5 24.0338,-116.5"/>
<text text-anchor="middle" x="94.0338" y="-124.5" font-family="Helvetica,sans-Serif" font-size="10.00">harpoon/memory/address.hh</text>
</a>
</g>
<!-- Node14&#45;&gt;Node15 -->
<g id="edge36" class="edge"><title>Node14&#45;&gt;Node15</title>
<path fill="none" stroke="midnightblue" d="M124.262,-174.922C118.768,-166.212 112.06,-155.578 106.36,-146.542"/>
<polygon fill="midnightblue" stroke="midnightblue" points="109.174,-144.443 100.879,-137.852 103.254,-148.177 109.174,-144.443"/>
</g>
<!-- Node16 -->
<g id="node36" class="node"><title>Node16</title>
<polygon fill="white" stroke="#bfbfbf" points="182.034,-116.5 182.034,-137.5 222.034,-137.5 222.034,-116.5 182.034,-116.5"/>
<text text-anchor="middle" x="202.034" y="-124.5" font-family="Helvetica,sans-Serif" font-size="10.00">limits</text>
</g>
<!-- Node14&#45;&gt;Node16 -->
<g id="edge40" class="edge"><title>Node14&#45;&gt;Node16</title>
<path fill="none" stroke="midnightblue" d="M152.637,-174.922C162.182,-165.662 173.969,-154.227 183.634,-144.85"/>
<polygon fill="midnightblue" stroke="midnightblue" points="186.107,-147.327 190.848,-137.852 181.233,-142.303 186.107,-147.327"/>
</g>
<!-- Node15&#45;&gt;Node2 -->
<g id="edge38" class="edge"><title>Node15&#45;&gt;Node2</title>
<path fill="none" stroke="midnightblue" d="M125.725,-116.497C154.255,-107.041 196.37,-93.0829 227.568,-82.7428"/>
<polygon fill="midnightblue" stroke="midnightblue" points="228.892,-85.9914 237.283,-79.5231 226.69,-79.3468 228.892,-85.9914"/>
</g>
</g>
</svg>
        <g id="navigator" transform="translate(0 0)" fill="#404254">
                <rect fill="#f2f5e9" fill-opacity="0.5" stroke="#606060" stroke-width=".5" x="0" y="0" width="60" height="60"/>
                <use id="zoomplus" xlink:href="#zoomPlus" x="17" y="9" onmousedown="handleZoom(evt,'in')"/>
                <use id="zoomminus" xlink:href="#zoomMin" x="42" y="9" onmousedown="handleZoom(evt,'out')"/>
                <use id="reset" xlink:href="#resetDef" x="30" y="36" onmousedown="handleReset()"/>
                <g id="arrowUp" xlink:href="#dirArrow" transform="translate(30 24)" onmousedown="handlePan(0,-1)">
                  <use xlink:href="#rim" fill="#404040">
                        <set attributeName="fill" to="#808080" begin="arrowUp.mouseover" end="arrowUp.mouseout"/>
                  </use>
                  <path fill="none" stroke="white" stroke-width="1.5" d="M0,-3.0v7 M-2.5,-0.5L0,-3.0L2.5,-0.5"/>
                </g>
                <g id="arrowRight" xlink:href="#dirArrow" transform="rotate(90) translate(36 -43)" onmousedown="handlePan(1,0)">
                  <use xlink:href="#rim" fill="#404040">
                        <set attributeName="fill" to="#808080" begin="arrowRight.mouseover" end="arrowRight.mouseout"/>
                  </use>
                  <path fill="none" stroke="white" stroke-width="1.5" d="M0,-3.0v7 M-2.5,-0.5L0,-3.0L2.5,-0.5"/>
                </g>
                <g id="arrowDown" xlink:href="#dirArrow" transform="rotate(180) translate(-30 -48)" onmousedown="handlePan(0,1)">
                  <use xlink:href="#rim" fill="#404040">
                        <set attributeName="fill" to="#808080" begin="arrowDown.mouseover" end="arrowDown.mouseout"/>
                  </use>
                  <path fill="none" stroke="white" stroke-width="1.5" d="M0,-3.0v7 M-2.5,-0.5L0,-3.0L2.5,-0.5"/>
                </g>
                <g id="arrowLeft" xlink:href="#dirArrow" transform="rotate(270) translate(-36 17)" onmousedown="handlePan(-1,0)">
                  <use xlink:href="#rim" fill="#404040">
                        <set attributeName="fill" to="#808080" begin="arrowLeft.mouseover" end="arrowLeft.mouseout"/>
                  </use>
                  <path fill="none" stroke="white" stroke-width="1.5" d="M0,-3.0v7 M-2.5,-0.5L0,-3.0L2.5,-0.5"/>
                </g>
        </g>
        <svg viewBox="0 0 15 15" width="100%" height="30px" preserveAspectRatio="xMaxYMin meet">
         <g id="arrow_out" transform="scale(0.3 0.3)">
          <a xlink:href="memory_8hh__incl_org.svg" target="_base">
           <rect id="button" ry="5" rx="5" y="6" x="6" height="38" width="38"
                fill="#f2f5e9" fill-opacity="0.5" stroke="#606060" stroke-width="1.0"/>
           <path id="arrow"
             d="M 11.500037,31.436501 C 11.940474,20.09759 22.043105,11.32322 32.158766,21.979434 L 37.068811,17.246167 C 37.068811,17.246167 37.088388,32 37.088388,32 L 22.160133,31.978069 C 22.160133,31.978069 26.997745,27.140456 26.997745,27.140456 C 18.528582,18.264221 13.291696,25.230495 11.500037,31.436501 z"
             style="fill:#404040;"/>
          </a>
         </g>
        </svg>
</svg>
