<?xml version="1.0" encoding="UTF-8" standalone="no"?>
<!DOCTYPE svg PUBLIC "-//W3C//DTD SVG 1.1//EN"
 "http://www.w3.org/Graphics/SVG/1.1/DTD/svg11.dtd">
<!-- Generated by graphviz version 2.26.3 (20100126.1600)
 -->
<!-- Title: harpoon/memory/memory.hh Pages: 1 -->
<svg width="519pt" height="334pt"
 viewBox="0.00 0.00 519.29 334.00" xmlns="http://www.w3.org/2000/svg" xmlns:xlink="http://www.w3.org/1999/xlink">
<g id="graph1" class="graph" transform="scale(1 1) rotate(0) translate(4 330)">
<title>harpoon/memory/memory.hh</title>
<polygon fill="white" stroke="white" points="-4,5 -4,-330 516.285,-330 516.285,5 -4,5"/>
<!-- Node1 -->
<g id="node1" class="node"><title>Node1</title>
<polygon fill="#bfbfbf" stroke="black" points="240.785,-304.5 240.785,-325.5 381.785,-325.5 381.785,-304.5 240.785,-304.5"/>
<text text-anchor="middle" x="311.285" y="-312.5" font-family="Helvetica,sans-Serif" font-size="10.00">harpoon/memory/memory.hh</text>
</g>
<!-- Node2 -->
<g id="node3" class="node"><title>Node2</title>
<a xlink:href="../../d5/d08/harpoon_8hh.html" target="_top" xlink:title="Harpoon library common header file. ">
<polygon fill="white" stroke="black" points="204.285,-58.5 204.285,-79.5 306.285,-79.5 306.285,-58.5 204.285,-58.5"/>
<text text-anchor="middle" x="255.285" y="-66.5" font-family="Helvetica,sans-Serif" font-size="10.00">harpoon/harpoon.hh</text>
</a>
</g>
<!-- Node1&#45;&gt;Node2 -->
<g id="edge2" class="edge"><title>Node1&#45;&gt;Node2</title>
<path fill="none" stroke="midnightblue" d="M264.575,-304.426C192.798,-285.322 58.0477,-237.445 4.28519,-138 -0.364869,-129.399 -1.96016,-123.523 4.28519,-116 27.9053,-87.5464 127.331,-76.2179 193.733,-71.7781"/>
<polygon fill="midnightblue" stroke="midnightblue" points="194.33,-75.2474 204.089,-71.1232 193.888,-68.2614 194.33,-75.2474"/>
</g>
<!-- Node6 -->
<g id="node11" class="node"><title>Node6</title>
<a xlink:href="../../d5/d09/hardware__component_8hh.html" target="_top" xlink:title="Hardware component. ">
<polygon fill="white" stroke="black" points="308.785,-246.5 308.785,-267.5 469.785,-267.5 469.785,-246.5 308.785,-246.5"/>
<text text-anchor="middle" x="389.285" y="-254.5" font-family="Helvetica,sans-Serif" font-size="10.00">harpoon/hardware_component.hh</text>
</a>
</g>
<!-- Node1&#45;&gt;Node6 -->
<g id="edge10" class="edge"><title>Node1&#45;&gt;Node6</title>
<path fill="none" stroke="midnightblue" d="M325.592,-304.362C337.136,-295.777 353.586,-283.546 366.876,-273.664"/>
<polygon fill="midnightblue" stroke="midnightblue" points="369.133,-276.346 375.069,-267.571 364.956,-270.729 369.133,-276.346"/>
</g>
<!-- Node10 -->
<g id="node22" class="node"><title>Node10</title>
<polygon fill="white" stroke="#bfbfbf" points="482.785,-181.5 482.785,-202.5 511.785,-202.5 511.785,-181.5 482.785,-181.5"/>
<text text-anchor="middle" x="497.285" y="-189.5" font-family="Helvetica,sans-Serif" font-size="10.00">list</text>
</g>
<!-- Node1&#45;&gt;Node10 -->
<g id="edge38" class="edge"><title>Node1&#45;&gt;Node10</title>
<path fill="none" stroke="midnightblue" d="M372.278,-304.467C413.635,-296.125 463.387,-283.342 478.285,-268 492.508,-253.353 496.584,-229.75 497.522,-212.732"/>
<polygon fill="midnightblue" stroke="midnightblue" points="501.023,-212.74 497.761,-202.659 494.025,-212.574 501.023,-212.74"/>
</g>
<!-- Node12 -->
<g id="node26" class="node"><title>Node12</title>
<a xlink:href="../../d3/d22/address__range_8hh.html" target="_top" xlink:title="harpoon/memory/address\l_range.hh">
<polygon fill="white" stroke="black" points="122.785,-175 122.785,-209 249.785,-209 249.785,-175 122.785,-175"/>
<text text-anchor="start" x="130.785" y="-196" font-family="Helvetica,sans-Serif" font-size="10.00">harpoon/memory/address</text>
<text text-anchor="middle" x="186.285" y="-183" font-family="Helvetica,sans-Serif" font-size="10.00">_range.hh</text>
</a>
</g>
<!-- Node1&#45;&gt;Node12 -->
<g id="edge28" class="edge"><title>Node1&#45;&gt;Node12</title>
<path fill="none" stroke="midnightblue" d="M300.192,-304.085C280.312,-284.523 238.168,-243.052 211.091,-216.409"/>
<polygon fill="midnightblue" stroke="midnightblue" points="213.467,-213.836 203.884,-209.317 208.557,-218.826 213.467,-213.836"/>
</g>
<!-- Node3 -->
<g id="node5" class="node"><title>Node3</title>
<polygon fill="white" stroke="#bfbfbf" points="170.785,-0.5 170.785,-21.5 211.785,-21.5 211.785,-0.5 170.785,-0.5"/>
<text text-anchor="middle" x="191.285" y="-8.5" font-family="Helvetica,sans-Serif" font-size="10.00">string</text>
</g>
<!-- Node2&#45;&gt;Node3 -->
<g id="edge4" class="edge"><title>Node2&#45;&gt;Node3</title>
<path fill="none" stroke="midnightblue" d="M243.547,-58.3619C234.345,-50.0226 221.345,-38.2418 210.613,-28.5162"/>
<polygon fill="midnightblue" stroke="midnightblue" points="212.71,-25.6924 202.949,-21.5707 208.009,-30.8793 212.71,-25.6924"/>
</g>
<!-- Node4 -->
<g id="node7" class="node"><title>Node4</title>
<polygon fill="white" stroke="#bfbfbf" points="229.285,-0.5 229.285,-21.5 281.285,-21.5 281.285,-0.5 229.285,-0.5"/>
<text text-anchor="middle" x="255.285" y="-8.5" font-family="Helvetica,sans-Serif" font-size="10.00">memory</text>
</g>
<!-- Node2&#45;&gt;Node4 -->
<g id="edge6" class="edge"><title>Node2&#45;&gt;Node4</title>
<path fill="none" stroke="midnightblue" d="M255.285,-58.3619C255.285,-50.9219 255.285,-40.7427 255.285,-31.7276"/>
<polygon fill="midnightblue" stroke="midnightblue" points="258.785,-31.5706 255.285,-21.5707 251.785,-31.5707 258.785,-31.5706"/>
</g>
<!-- Node5 -->
<g id="node9" class="node"><title>Node5</title>
<polygon fill="white" stroke="#bfbfbf" points="299.285,-0.5 299.285,-21.5 339.285,-21.5 339.285,-0.5 299.285,-0.5"/>
<text text-anchor="middle" x="319.285" y="-8.5" font-family="Helvetica,sans-Serif" font-size="10.00">utility</text>
</g>
<!-- Node2&#45;&gt;Node5 -->
<g id="edge8" class="edge"><title>Node2&#45;&gt;Node5</title>
<path fill="none" stroke="midnightblue" d="M267.024,-58.3619C276.226,-50.0226 289.225,-38.2418 299.957,-28.5162"/>
<polygon fill="midnightblue" stroke="midnightblue" points="302.561,-30.8793 307.621,-21.5707 297.861,-25.6924 302.561,-30.8793"/>
</g>
<!-- Node6&#45;&gt;Node2 -->
<g id="edge12" class="edge"><title>Node6&#45;&gt;Node2</title>
<path fill="none" stroke="midnightblue" d="M405.215,-246.346C416.239,-237.944 430.014,-225.139 436.285,-210 452.273,-171.402 461.846,-149.046 436.285,-116 428.713,-106.21 365.937,-91.406 316.411,-81.0356"/>
<polygon fill="midnightblue" stroke="midnightblue" points="316.889,-77.5602 306.386,-78.9584 315.468,-84.4146 316.889,-77.5602"/>
</g>
<!-- Node7 -->
<g id="node14" class="node"><title>Node7</title>
<a xlink:href="../../d3/de3/log_8hh.html" target="_top" xlink:title="harpoon/log/log.hh">
<polygon fill="white" stroke="black" points="267.285,-181.5 267.285,-202.5 363.285,-202.5 363.285,-181.5 267.285,-181.5"/>
<text text-anchor="middle" x="315.285" y="-189.5" font-family="Helvetica,sans-Serif" font-size="10.00">harpoon/log/log.hh</text>
</a>
</g>
<!-- Node6&#45;&gt;Node7 -->
<g id="edge14" class="edge"><title>Node6&#45;&gt;Node7</title>
<path fill="none" stroke="midnightblue" d="M377.066,-246.267C365.643,-236.233 348.389,-221.078 335.016,-209.331"/>
<polygon fill="midnightblue" stroke="midnightblue" points="337.1,-206.504 327.277,-202.534 332.481,-211.763 337.1,-206.504"/>
</g>
<!-- Node6&#45;&gt;Node10 -->
<g id="edge24" class="edge"><title>Node6&#45;&gt;Node10</title>
<path fill="none" stroke="midnightblue" d="M407.84,-246.381C424.135,-236.989 448.427,-222.824 469.285,-210 470.774,-209.084 472.303,-208.134 473.84,-207.169"/>
<polygon fill="midnightblue" stroke="midnightblue" points="475.974,-209.96 482.533,-201.64 472.217,-204.054 475.974,-209.96"/>
</g>
<!-- Node11 -->
<g id="node24" class="node"><title>Node11</title>
<polygon fill="white" stroke="#bfbfbf" points="381.285,-181.5 381.285,-202.5 427.285,-202.5 427.285,-181.5 381.285,-181.5"/>
<text text-anchor="middle" x="404.285" y="-189.5" font-family="Helvetica,sans-Serif" font-size="10.00">atomic</text>
</g>
<!-- Node6&#45;&gt;Node11 -->
<g id="edge26" class="edge"><title>Node6&#45;&gt;Node11</title>
<path fill="none" stroke="midnightblue" d="M391.762,-246.267C393.881,-237.085 396.99,-223.615 399.579,-212.392"/>
<polygon fill="midnightblue" stroke="midnightblue" points="403.016,-213.065 401.854,-202.534 396.195,-211.491 403.016,-213.065"/>
</g>
<!-- Node7&#45;&gt;Node2 -->
<g id="edge16" class="edge"><title>Node7&#45;&gt;Node2</title>
<path fill="none" stroke="midnightblue" d="M309.961,-181.085C299.839,-160.335 277.694,-114.937 264.909,-88.729"/>
<polygon fill="midnightblue" stroke="midnightblue" points="268.042,-87.1685 260.512,-79.7153 261.751,-90.2375 268.042,-87.1685"/>
</g>
<!-- Node8 -->
<g id="node17" class="node"><title>Node8</title>
<a xlink:href="../../d9/d74/message_8hh.html" target="_top" xlink:title="harpoon/log/message.hh">
<polygon fill="white" stroke="black" points="304.785,-116.5 304.785,-137.5 427.785,-137.5 427.785,-116.5 304.785,-116.5"/>
<text text-anchor="middle" x="366.285" y="-124.5" font-family="Helvetica,sans-Serif" font-size="10.00">harpoon/log/message.hh</text>
</a>
</g>
<!-- Node7&#45;&gt;Node8 -->
<g id="edge18" class="edge"><title>Node7&#45;&gt;Node8</title>
<path fill="none" stroke="midnightblue" d="M323.707,-181.267C331.282,-171.612 342.578,-157.215 351.632,-145.675"/>
<polygon fill="midnightblue" stroke="midnightblue" points="354.601,-147.562 358.02,-137.534 349.094,-143.241 354.601,-147.562"/>
</g>
<!-- Node8&#45;&gt;Node2 -->
<g id="edge20" class="edge"><title>Node8&#45;&gt;Node2</title>
<path fill="none" stroke="midnightblue" d="M346.184,-116.497C329.003,-107.519 304.055,-94.4835 284.64,-84.3387"/>
<polygon fill="midnightblue" stroke="midnightblue" points="286.096,-81.1503 275.612,-79.6212 282.854,-87.3544 286.096,-81.1503"/>
</g>
<!-- Node9 -->
<g id="node20" class="node"><title>Node9</title>
<polygon fill="white" stroke="#bfbfbf" points="340.285,-58.5 340.285,-79.5 392.285,-79.5 392.285,-58.5 340.285,-58.5"/>
<text text-anchor="middle" x="366.285" y="-66.5" font-family="Helvetica,sans-Serif" font-size="10.00">sstream</text>
</g>
<!-- Node8&#45;&gt;Node9 -->
<g id="edge22" class="edge"><title>Node8&#45;&gt;Node9</title>
<path fill="none" stroke="midnightblue" d="M366.285,-116.362C366.285,-108.922 366.285,-98.7427 366.285,-89.7276"/>
<polygon fill="midnightblue" stroke="midnightblue" points="369.785,-89.5706 366.285,-79.5707 362.785,-89.5707 369.785,-89.5706"/>
</g>
<!-- Node12&#45;&gt;Node2 -->
<g id="edge30" class="edge"><title>Node12&#45;&gt;Node2</title>
<path fill="none" stroke="midnightblue" d="M197.725,-174.738C204.526,-164.259 213.183,-150.529 220.285,-138 229.453,-121.827 238.938,-102.973 245.718,-89.0642"/>
<polygon fill="midnightblue" stroke="midnightblue" points="248.937,-90.4468 250.133,-79.9197 242.633,-87.4031 248.937,-90.4468"/>
</g>
<!-- Node13 -->
<g id="node29" class="node"><title>Node13</title>
<a xlink:href="../../db/db3/address_8hh.html" target="_top" xlink:title="harpoon/memory/address.hh">
<polygon fill="white" stroke="black" points="13.2852,-116.5 13.2852,-137.5 153.285,-137.5 153.285,-116.5 13.2852,-116.5"/>
<text text-anchor="middle" x="83.2852" y="-124.5" font-family="Helvetica,sans-Serif" font-size="10.00">harpoon/memory/address.hh</text>
</a>
</g>
<!-- Node12&#45;&gt;Node13 -->
<g id="edge32" class="edge"><title>Node12&#45;&gt;Node13</title>
<path fill="none" stroke="midnightblue" d="M159.223,-174.922C143.578,-165.049 124.016,-152.704 108.665,-143.016"/>
<polygon fill="midnightblue" stroke="midnightblue" points="110.499,-140.035 100.175,-137.658 106.764,-145.955 110.499,-140.035"/>
</g>
<!-- Node14 -->
<g id="node32" class="node"><title>Node14</title>
<polygon fill="white" stroke="#bfbfbf" points="171.285,-116.5 171.285,-137.5 211.285,-137.5 211.285,-116.5 171.285,-116.5"/>
<text text-anchor="middle" x="191.285" y="-124.5" font-family="Helvetica,sans-Serif" font-size="10.00">limits</text>
</g>
<!-- Node12&#45;&gt;Node14 -->
<g id="edge36" class="edge"><title>Node12&#45;&gt;Node14</title>
<path fill="none" stroke="midnightblue" d="M187.599,-174.922C188.234,-166.67 189.001,-156.692 189.671,-147.982"/>
<polygon fill="midnightblue" stroke="midnightblue" points="193.173,-148.091 190.45,-137.852 186.194,-147.554 193.173,-148.091"/>
</g>
<!-- Node13&#45;&gt;Node2 -->
<g id="edge34" class="edge"><title>Node13&#45;&gt;Node2</title>
<path fill="none" stroke="midnightblue" d="M114.433,-116.497C142.474,-107.041 183.867,-93.0829 214.531,-82.7428"/>
<polygon fill="midnightblue" stroke="midnightblue" points="215.721,-86.035 224.079,-79.5231 213.485,-79.4019 215.721,-86.035"/>
</g>
</g>
</svg>
