<?xml version="1.0" encoding="UTF-8" standalone="no"?>
<!DOCTYPE svg PUBLIC "-//W3C//DTD SVG 1.1//EN"
 "http://www.w3.org/Graphics/SVG/1.1/DTD/svg11.dtd">
<!-- Generated by graphviz version 2.26.3 (20100126.1600)
 -->
<!-- Title: harpoon/memory/linear_memory.hh Pages: 1 -->
<svg width="288pt" height="116pt"
 viewBox="0.00 0.00 288.00 116.00" xmlns="http://www.w3.org/2000/svg" xmlns:xlink="http://www.w3.org/1999/xlink">
<g id="graph1" class="graph" transform="scale(1 1) rotate(0) translate(4 112)">
<title>harpoon/memory/linear_memory.hh</title>
<polygon fill="white" stroke="white" points="-4,5 -4,-112 285,-112 285,5 -4,5"/>
<!-- Node1 -->
<g id="node1" class="node"><title>Node1</title>
<polygon fill="#bfbfbf" stroke="black" points="88,-73 88,-107 204,-107 204,-73 88,-73"/>
<text text-anchor="start" x="96" y="-94" font-family="Helvetica,sans-Serif" font-size="10.00">harpoon/memory/linear</text>
<text text-anchor="middle" x="146" y="-81" font-family="Helvetica,sans-Serif" font-size="10.00">_memory.hh</text>
</g>
<!-- Node2 -->
<g id="node3" class="node"><title>Node2</title>
<a xlink:href="../../d0/d9e/linear__random__access__memory_8hh.html" target="_top" xlink:title="harpoon/memory/linear\l_random_access_memory.hh">
<polygon fill="white" stroke="black" points="-0.5,-1 -0.5,-35 144.5,-35 144.5,-1 -0.5,-1"/>
<text text-anchor="start" x="7.5" y="-22" font-family="Helvetica,sans-Serif" font-size="10.00">harpoon/memory/linear</text>
<text text-anchor="middle" x="72" y="-9" font-family="Helvetica,sans-Serif" font-size="10.00">_random_access_memory.hh</text>
</a>
</g>
<!-- Node1&#45;&gt;Node2 -->
<g id="edge2" class="edge"><title>Node1&#45;&gt;Node2</title>
<path fill="none" stroke="midnightblue" d="M121.239,-65.9083C110.895,-55.8438 99.1126,-44.3799 89.6675,-35.19"/>
<polygon fill="midnightblue" stroke="midnightblue" points="118.855,-68.472 128.463,-72.937 123.736,-63.4549 118.855,-68.472"/>
</g>
<!-- Node3 -->
<g id="node5" class="node"><title>Node3</title>
<a xlink:href="../../dd/db0/linear__read__only__memory_8hh.html" target="_top" xlink:title="harpoon/memory/linear\l_read_only_memory.hh">
<polygon fill="white" stroke="black" points="162,-1 162,-35 280,-35 280,-1 162,-1"/>
<text text-anchor="start" x="170" y="-22" font-family="Helvetica,sans-Serif" font-size="10.00">harpoon/memory/linear</text>
<text text-anchor="middle" x="221" y="-9" font-family="Helvetica,sans-Serif" font-size="10.00">_read_only_memory.hh</text>
</a>
</g>
<!-- Node1&#45;&gt;Node3 -->
<g id="edge4" class="edge"><title>Node1&#45;&gt;Node3</title>
<path fill="none" stroke="midnightblue" d="M171.095,-65.9083C181.579,-55.8438 193.521,-44.3799 203.094,-35.19"/>
<polygon fill="midnightblue" stroke="midnightblue" points="168.564,-63.4868 163.774,-72.937 173.412,-68.5365 168.564,-63.4868"/>
</g>
</g>
</svg>
