<?xml version="1.0" encoding="UTF-8" standalone="no"?>
<!DOCTYPE svg PUBLIC "-//W3C//DTD SVG 1.1//EN"
 "http://www.w3.org/Graphics/SVG/1.1/DTD/svg11.dtd">
<!-- Generated by graphviz version 2.26.3 (20100126.1600)
 -->
<!-- Title: harpoon::memory::exception::memory_exception Pages: 1 -->
<svg width="306pt" height="940pt"
 viewBox="0.00 0.00 306.00 940.00" xmlns="http://www.w3.org/2000/svg" xmlns:xlink="http://www.w3.org/1999/xlink">
<g id="graph1" class="graph" transform="scale(1 1) rotate(0) translate(4 936)">
<title>harpoon::memory::exception::memory_exception</title>
<polygon fill="white" stroke="white" points="-4,5 -4,-936 303,-936 303,5 -4,5"/>
<!-- Node1 -->
<g id="node1" class="node"><title>Node1</title>
<polygon fill="#bfbfbf" stroke="black" points="79,-319 79,-421 219,-421 219,-319 79,-319"/>
<text text-anchor="start" x="87" y="-408" font-family="Helvetica,sans-Serif" font-size="10.00">harpoon::memory::exception</text>
<text text-anchor="middle" x="149" y="-395" font-family="Helvetica,sans-Serif" font-size="10.00">::memory_exception</text>
<polyline fill="none" stroke="black" points="79,-387 219,-387 "/>
<text text-anchor="middle" x="149" y="-374" font-family="Helvetica,sans-Serif" font-size="10.00"> </text>
<polyline fill="none" stroke="black" points="79,-366 219,-366 "/>
<text text-anchor="start" x="87" y="-353" font-family="Helvetica,sans-Serif" font-size="10.00">+ memory_exception()</text>
<text text-anchor="start" x="87" y="-340" font-family="Helvetica,sans-Serif" font-size="10.00">+ operator=()</text>
<text text-anchor="start" x="87" y="-327" font-family="Helvetica,sans-Serif" font-size="10.00">+ ~memory_exception()</text>
</g>
<!-- Node5 -->
<g id="node9" class="node"><title>Node5</title>
<a xlink:href="../../d2/dc6/classharpoon_1_1memory_1_1exception_1_1access__violation.html" target="_top" xlink:title="{harpoon::memory::exception\l::access_violation\n||+ access_violation()\l+ access_violation()\l+ operator=()\l+ get_address()\l+ ~access_violation()\l}">
<polygon fill="white" stroke="black" points="79,-153 79,-281 219,-281 219,-153 79,-153"/>
<text text-anchor="start" x="87" y="-268" font-family="Helvetica,sans-Serif" font-size="10.00">harpoon::memory::exception</text>
<text text-anchor="middle" x="149" y="-255" font-family="Helvetica,sans-Serif" font-size="10.00">::access_violation</text>
<polyline fill="none" stroke="black" points="79,-247 219,-247 "/>
<text text-anchor="middle" x="149" y="-234" font-family="Helvetica,sans-Serif" font-size="10.00"> </text>
<polyline fill="none" stroke="black" points="79,-226 219,-226 "/>
<text text-anchor="start" x="87" y="-213" font-family="Helvetica,sans-Serif" font-size="10.00">+ access_violation()</text>
<text text-anchor="start" x="87" y="-200" font-family="Helvetica,sans-Serif" font-size="10.00">+ access_violation()</text>
<text text-anchor="start" x="87" y="-187" font-family="Helvetica,sans-Serif" font-size="10.00">+ operator=()</text>
<text text-anchor="start" x="87" y="-174" font-family="Helvetica,sans-Serif" font-size="10.00">+ get_address()</text>
<text text-anchor="start" x="87" y="-161" font-family="Helvetica,sans-Serif" font-size="10.00">+ ~access_violation()</text>
</a>
</g>
<!-- Node1&#45;&gt;Node5 -->
<g id="edge8" class="edge"><title>Node1&#45;&gt;Node5</title>
<path fill="none" stroke="midnightblue" d="M149,-308.547C149,-299.483 149,-290.125 149,-281.011"/>
<polygon fill="none" stroke="midnightblue" points="145.5,-308.628 149,-318.628 152.5,-308.628 145.5,-308.628"/>
</g>
<!-- Node2 -->
<g id="node2" class="node"><title>Node2</title>
<a xlink:href="../../d7/df5/classharpoon_1_1exception_1_1hardware__component__exception.html" target="_top" xlink:title="{harpoon::exception\l::hardware_component\l_exception\n||+ hardware_component\l_exception()\l+ hardware_component\l_exception()\l+ operator=()\l+ get_component()\l+ ~hardware_component\l_exception()\l}">
<polygon fill="white" stroke="black" points="86.5,-459 86.5,-639 211.5,-639 211.5,-459 86.5,-459"/>
<text text-anchor="start" x="94.5" y="-626" font-family="Helvetica,sans-Serif" font-size="10.00">harpoon::exception</text>
<text text-anchor="start" x="94.5" y="-613" font-family="Helvetica,sans-Serif" font-size="10.00">::hardware_component</text>
<text text-anchor="middle" x="149" y="-600" font-family="Helvetica,sans-Serif" font-size="10.00">_exception</text>
<polyline fill="none" stroke="black" points="86.5,-592 211.5,-592 "/>
<text text-anchor="middle" x="149" y="-579" font-family="Helvetica,sans-Serif" font-size="10.00"> </text>
<polyline fill="none" stroke="black" points="86.5,-571 211.5,-571 "/>
<text text-anchor="start" x="94.5" y="-558" font-family="Helvetica,sans-Serif" font-size="10.00">+ hardware_component</text>
<text text-anchor="start" x="94.5" y="-545" font-family="Helvetica,sans-Serif" font-size="10.00">_exception()</text>
<text text-anchor="start" x="94.5" y="-532" font-family="Helvetica,sans-Serif" font-size="10.00">+ hardware_component</text>
<text text-anchor="start" x="94.5" y="-519" font-family="Helvetica,sans-Serif" font-size="10.00">_exception()</text>
<text text-anchor="start" x="94.5" y="-506" font-family="Helvetica,sans-Serif" font-size="10.00">+ operator=()</text>
<text text-anchor="start" x="94.5" y="-493" font-family="Helvetica,sans-Serif" font-size="10.00">+ get_component()</text>
<text text-anchor="start" x="94.5" y="-480" font-family="Helvetica,sans-Serif" font-size="10.00">+ ~hardware_component</text>
<text text-anchor="start" x="94.5" y="-467" font-family="Helvetica,sans-Serif" font-size="10.00">_exception()</text>
</a>
</g>
<!-- Node2&#45;&gt;Node1 -->
<g id="edge2" class="edge"><title>Node2&#45;&gt;Node1</title>
<path fill="none" stroke="midnightblue" d="M149,-448.731C149,-439.33 149,-430.089 149,-421.433"/>
<polygon fill="none" stroke="midnightblue" points="145.5,-448.976 149,-458.976 152.5,-448.976 145.5,-448.976"/>
</g>
<!-- Node3 -->
<g id="node4" class="node"><title>Node3</title>
<a xlink:href="../../d0/d5b/classharpoon_1_1exception_1_1harpoon__exception.html" target="_top" xlink:title="{harpoon::exception\l::harpoon_exception\n||+ harpoon_exception()\l+ harpoon_exception()\l+ operator=()\l+ set_what()\l+ get_what()\l+ what()\l+ ~harpoon_exception()\l}">
<polygon fill="white" stroke="black" points="89.5,-677 89.5,-831 208.5,-831 208.5,-677 89.5,-677"/>
<text text-anchor="start" x="97.5" y="-818" font-family="Helvetica,sans-Serif" font-size="10.00">harpoon::exception</text>
<text text-anchor="middle" x="149" y="-805" font-family="Helvetica,sans-Serif" font-size="10.00">::harpoon_exception</text>
<polyline fill="none" stroke="black" points="89.5,-797 208.5,-797 "/>
<text text-anchor="middle" x="149" y="-784" font-family="Helvetica,sans-Serif" font-size="10.00"> </text>
<polyline fill="none" stroke="black" points="89.5,-776 208.5,-776 "/>
<text text-anchor="start" x="97.5" y="-763" font-family="Helvetica,sans-Serif" font-size="10.00">+ harpoon_exception()</text>
<text text-anchor="start" x="97.5" y="-750" font-family="Helvetica,sans-Serif" font-size="10.00">+ harpoon_exception()</text>
<text text-anchor="start" x="97.5" y="-737" font-family="Helvetica,sans-Serif" font-size="10.00">+ operator=()</text>
<text text-anchor="start" x="97.5" y="-724" font-family="Helvetica,sans-Serif" font-size="10.00">+ set_what()</text>
<text text-anchor="start" x="97.5" y="-711" font-family="Helvetica,sans-Serif" font-size="10.00">+ get_what()</text>
<text text-anchor="start" x="97.5" y="-698" font-family="Helvetica,sans-Serif" font-size="10.00">+ what()</text>
<text text-anchor="start" x="97.5" y="-685" font-family="Helvetica,sans-Serif" font-size="10.00">+ ~harpoon_exception()</text>
</a>
</g>
<!-- Node3&#45;&gt;Node2 -->
<g id="edge4" class="edge"><title>Node3&#45;&gt;Node2</title>
<path fill="none" stroke="midnightblue" d="M149,-666.635C149,-657.566 149,-648.335 149,-639.235"/>
<polygon fill="none" stroke="midnightblue" points="145.5,-666.79 149,-676.79 152.5,-666.79 145.5,-666.79"/>
</g>
<!-- Node4 -->
<g id="node6" class="node"><title>Node4</title>
<polygon fill="white" stroke="#bfbfbf" points="102.5,-868.5 102.5,-931.5 195.5,-931.5 195.5,-868.5 102.5,-868.5"/>
<text text-anchor="middle" x="149" y="-918.5" font-family="Helvetica,sans-Serif" font-size="10.00">std::runtime_error</text>
<polyline fill="none" stroke="#bfbfbf" points="102.5,-910.5 195.5,-910.5 "/>
<text text-anchor="middle" x="149" y="-897.5" font-family="Helvetica,sans-Serif" font-size="10.00"> </text>
<polyline fill="none" stroke="#bfbfbf" points="102.5,-889.5 195.5,-889.5 "/>
<text text-anchor="middle" x="149" y="-876.5" font-family="Helvetica,sans-Serif" font-size="10.00"> </text>
</g>
<!-- Node4&#45;&gt;Node3 -->
<g id="edge6" class="edge"><title>Node4&#45;&gt;Node3</title>
<path fill="none" stroke="midnightblue" d="M149,-858.288C149,-849.742 149,-840.491 149,-831.148"/>
<polygon fill="none" stroke="midnightblue" points="145.5,-858.32 149,-868.32 152.5,-858.32 145.5,-858.32"/>
</g>
<!-- Node6 -->
<g id="node11" class="node"><title>Node6</title>
<a xlink:href="../../de/db7/classharpoon_1_1memory_1_1exception_1_1read__access__violation.html" target="_top" xlink:title="{harpoon::memory::exception\l::read_access_violation\n||+ read_access_violation()\l+ read_access_violation()\l+ operator=()\l+ ~read_access_violation()\l}">
<polygon fill="white" stroke="black" points="0,-0.5 0,-115.5 140,-115.5 140,-0.5 0,-0.5"/>
<text text-anchor="start" x="8" y="-102.5" font-family="Helvetica,sans-Serif" font-size="10.00">harpoon::memory::exception</text>
<text text-anchor="middle" x="70" y="-89.5" font-family="Helvetica,sans-Serif" font-size="10.00">::read_access_violation</text>
<polyline fill="none" stroke="black" points="0,-81.5 140,-81.5 "/>
<text text-anchor="middle" x="70" y="-68.5" font-family="Helvetica,sans-Serif" font-size="10.00"> </text>
<polyline fill="none" stroke="black" points="0,-60.5 140,-60.5 "/>
<text text-anchor="start" x="8" y="-47.5" font-family="Helvetica,sans-Serif" font-size="10.00">+ read_access_violation()</text>
<text text-anchor="start" x="8" y="-34.5" font-family="Helvetica,sans-Serif" font-size="10.00">+ read_access_violation()</text>
<text text-anchor="start" x="8" y="-21.5" font-family="Helvetica,sans-Serif" font-size="10.00">+ operator=()</text>
<text text-anchor="start" x="8" y="-8.5" font-family="Helvetica,sans-Serif" font-size="10.00">+ ~read_access_violation()</text>
</a>
</g>
<!-- Node5&#45;&gt;Node6 -->
<g id="edge10" class="edge"><title>Node5&#45;&gt;Node6</title>
<path fill="none" stroke="midnightblue" d="M112.61,-143.76C107.904,-134.289 103.139,-124.698 98.5841,-115.53"/>
<polygon fill="none" stroke="midnightblue" points="109.511,-145.389 117.095,-152.787 115.78,-142.274 109.511,-145.389"/>
</g>
<!-- Node7 -->
<g id="node13" class="node"><title>Node7</title>
<a xlink:href="../../da/d66/classharpoon_1_1memory_1_1exception_1_1write__access__violation.html" target="_top" xlink:title="{harpoon::memory::exception\l::write_access_violation\n||+ write_access_violation()\l+ write_access_violation()\l+ operator=()\l+ ~write_access_violation()\l}">
<polygon fill="white" stroke="black" points="158,-0.5 158,-115.5 298,-115.5 298,-0.5 158,-0.5"/>
<text text-anchor="start" x="166" y="-102.5" font-family="Helvetica,sans-Serif" font-size="10.00">harpoon::memory::exception</text>
<text text-anchor="middle" x="228" y="-89.5" font-family="Helvetica,sans-Serif" font-size="10.00">::write_access_violation</text>
<polyline fill="none" stroke="black" points="158,-81.5 298,-81.5 "/>
<text text-anchor="middle" x="228" y="-68.5" font-family="Helvetica,sans-Serif" font-size="10.00"> </text>
<polyline fill="none" stroke="black" points="158,-60.5 298,-60.5 "/>
<text text-anchor="start" x="166" y="-47.5" font-family="Helvetica,sans-Serif" font-size="10.00">+ write_access_violation()</text>
<text text-anchor="start" x="166" y="-34.5" font-family="Helvetica,sans-Serif" font-size="10.00">+ write_access_violation()</text>
<text text-anchor="start" x="166" y="-21.5" font-family="Helvetica,sans-Serif" font-size="10.00">+ operator=()</text>
<text text-anchor="start" x="166" y="-8.5" font-family="Helvetica,sans-Serif" font-size="10.00">+ ~write_access_violation()</text>
</a>
</g>
<!-- Node5&#45;&gt;Node7 -->
<g id="edge12" class="edge"><title>Node5&#45;&gt;Node7</title>
<path fill="none" stroke="midnightblue" d="M185.39,-143.76C190.096,-134.289 194.861,-124.698 199.416,-115.53"/>
<polygon fill="none" stroke="midnightblue" points="182.22,-142.274 180.905,-152.787 188.489,-145.389 182.22,-142.274"/>
</g>
</g>
</svg>
