<?xml version="1.0" encoding="UTF-8" standalone="no"?>
<!DOCTYPE svg PUBLIC "-//W3C//DTD SVG 1.1//EN"
 "http://www.w3.org/Graphics/SVG/1.1/DTD/svg11.dtd">
<!-- Generated by graphviz version 2.26.3 (20100126.1600)
 -->
<!-- Title: harpoon/exception/harpoon_exception.hh Pages: 1 -->
<svg width="357pt" height="476pt"
 viewBox="0.00 0.00 357.00 476.00" xmlns="http://www.w3.org/2000/svg" xmlns:xlink="http://www.w3.org/1999/xlink">
<g id="graph1" class="graph" transform="scale(1 1) rotate(0) translate(4 472)">
<title>harpoon/exception/harpoon_exception.hh</title>
<polygon fill="white" stroke="white" points="-4,5 -4,-472 354,-472 354,5 -4,5"/>
<!-- Node1 -->
<g id="node1" class="node"><title>Node1</title>
<polygon fill="#bfbfbf" stroke="black" points="76,-433 76,-467 210,-467 210,-433 76,-433"/>
<text text-anchor="start" x="84" y="-454" font-family="Helvetica,sans-Serif" font-size="10.00">harpoon/exception/harpoon</text>
<text text-anchor="middle" x="143" y="-441" font-family="Helvetica,sans-Serif" font-size="10.00">_exception.hh</text>
</g>
<!-- Node2 -->
<g id="node3" class="node"><title>Node2</title>
<a xlink:href="../../df/d18/hardware__component__exception_8hh.html" target="_top" xlink:title="harpoon/exception/hardware\l_component_exception.hh">
<polygon fill="white" stroke="black" points="73.5,-361 73.5,-395 212.5,-395 212.5,-361 73.5,-361"/>
<text text-anchor="start" x="81.5" y="-382" font-family="Helvetica,sans-Serif" font-size="10.00">harpoon/exception/hardware</text>
<text text-anchor="middle" x="143" y="-369" font-family="Helvetica,sans-Serif" font-size="10.00">_component_exception.hh</text>
</a>
</g>
<!-- Node1&#45;&gt;Node2 -->
<g id="edge2" class="edge"><title>Node1&#45;&gt;Node2</title>
<path fill="none" stroke="midnightblue" d="M143,-422.719C143,-413.572 143,-403.625 143,-395.441"/>
<polygon fill="midnightblue" stroke="midnightblue" points="139.5,-422.937 143,-432.937 146.5,-422.937 139.5,-422.937"/>
</g>
<!-- Node3 -->
<g id="node5" class="node"><title>Node3</title>
<a xlink:href="../../df/d8d/memory__exception_8hh.html" target="_top" xlink:title="harpoon/memory/exception\l/memory_exception.hh">
<polygon fill="white" stroke="black" points="76,-289 76,-323 210,-323 210,-289 76,-289"/>
<text text-anchor="start" x="84" y="-310" font-family="Helvetica,sans-Serif" font-size="10.00">harpoon/memory/exception</text>
<text text-anchor="middle" x="143" y="-297" font-family="Helvetica,sans-Serif" font-size="10.00">/memory_exception.hh</text>
</a>
</g>
<!-- Node2&#45;&gt;Node3 -->
<g id="edge4" class="edge"><title>Node2&#45;&gt;Node3</title>
<path fill="none" stroke="midnightblue" d="M143,-350.719C143,-341.572 143,-331.625 143,-323.441"/>
<polygon fill="midnightblue" stroke="midnightblue" points="139.5,-350.937 143,-360.937 146.5,-350.937 139.5,-350.937"/>
</g>
<!-- Node4 -->
<g id="node7" class="node"><title>Node4</title>
<a xlink:href="../../d2/d41/access__violation_8hh.html" target="_top" xlink:title="harpoon/memory/exception\l/access_violation.hh">
<polygon fill="white" stroke="black" points="76,-217 76,-251 210,-251 210,-217 76,-217"/>
<text text-anchor="start" x="84" y="-238" font-family="Helvetica,sans-Serif" font-size="10.00">harpoon/memory/exception</text>
<text text-anchor="middle" x="143" y="-225" font-family="Helvetica,sans-Serif" font-size="10.00">/access_violation.hh</text>
</a>
</g>
<!-- Node3&#45;&gt;Node4 -->
<g id="edge6" class="edge"><title>Node3&#45;&gt;Node4</title>
<path fill="none" stroke="midnightblue" d="M143,-278.719C143,-269.572 143,-259.625 143,-251.441"/>
<polygon fill="midnightblue" stroke="midnightblue" points="139.5,-278.937 143,-288.937 146.5,-278.937 139.5,-278.937"/>
</g>
<!-- Node5 -->
<g id="node9" class="node"><title>Node5</title>
<a xlink:href="../../d2/d7f/read__access__violation_8hh.html" target="_top" xlink:title="harpoon/memory/exception\l/read_access_violation.hh">
<polygon fill="white" stroke="black" points="0,-145 0,-179 134,-179 134,-145 0,-145"/>
<text text-anchor="start" x="8" y="-166" font-family="Helvetica,sans-Serif" font-size="10.00">harpoon/memory/exception</text>
<text text-anchor="middle" x="67" y="-153" font-family="Helvetica,sans-Serif" font-size="10.00">/read_access_violation.hh</text>
</a>
</g>
<!-- Node4&#45;&gt;Node5 -->
<g id="edge8" class="edge"><title>Node4&#45;&gt;Node5</title>
<path fill="none" stroke="midnightblue" d="M117.57,-209.908C106.946,-199.844 94.8454,-188.38 85.145,-179.19"/>
<polygon fill="midnightblue" stroke="midnightblue" points="115.322,-212.6 124.989,-216.937 120.137,-207.519 115.322,-212.6"/>
</g>
<!-- Node6 -->
<g id="node11" class="node"><title>Node6</title>
<a xlink:href="../../de/da3/write__access__violation_8hh.html" target="_top" xlink:title="harpoon/memory/exception\l/write_access_violation.hh">
<polygon fill="white" stroke="black" points="152,-145 152,-179 286,-179 286,-145 152,-145"/>
<text text-anchor="start" x="160" y="-166" font-family="Helvetica,sans-Serif" font-size="10.00">harpoon/memory/exception</text>
<text text-anchor="middle" x="219" y="-153" font-family="Helvetica,sans-Serif" font-size="10.00">/write_access_violation.hh</text>
</a>
</g>
<!-- Node4&#45;&gt;Node6 -->
<g id="edge10" class="edge"><title>Node4&#45;&gt;Node6</title>
<path fill="none" stroke="midnightblue" d="M168.43,-209.908C179.054,-199.844 191.155,-188.38 200.855,-179.19"/>
<polygon fill="midnightblue" stroke="midnightblue" points="165.863,-207.519 161.011,-216.937 170.678,-212.6 165.863,-207.519"/>
</g>
<!-- Node7 -->
<g id="node13" class="node"><title>Node7</title>
<a xlink:href="../../d9/d5e/read__only__memory_8hh.html" target="_top" xlink:title="harpoon/memory/read\l_only_memory.hh">
<polygon fill="white" stroke="black" points="163.5,-73 163.5,-107 274.5,-107 274.5,-73 163.5,-73"/>
<text text-anchor="start" x="171.5" y="-94" font-family="Helvetica,sans-Serif" font-size="10.00">harpoon/memory/read</text>
<text text-anchor="middle" x="219" y="-81" font-family="Helvetica,sans-Serif" font-size="10.00">_only_memory.hh</text>
</a>
</g>
<!-- Node6&#45;&gt;Node7 -->
<g id="edge12" class="edge"><title>Node6&#45;&gt;Node7</title>
<path fill="none" stroke="midnightblue" d="M219,-134.719C219,-125.572 219,-115.625 219,-107.441"/>
<polygon fill="midnightblue" stroke="midnightblue" points="215.5,-134.937 219,-144.937 222.5,-134.937 215.5,-134.937"/>
</g>
<!-- Node8 -->
<g id="node15" class="node"><title>Node8</title>
<a xlink:href="../../dd/ddc/chunked__read__only__memory_8hh.html" target="_top" xlink:title="harpoon/memory/chunked\l_read_only_memory.hh">
<polygon fill="white" stroke="black" points="84.5,-1 84.5,-35 213.5,-35 213.5,-1 84.5,-1"/>
<text text-anchor="start" x="92.5" y="-22" font-family="Helvetica,sans-Serif" font-size="10.00">harpoon/memory/chunked</text>
<text text-anchor="middle" x="149" y="-9" font-family="Helvetica,sans-Serif" font-size="10.00">_read_only_memory.hh</text>
</a>
</g>
<!-- Node7&#45;&gt;Node8 -->
<g id="edge14" class="edge"><title>Node7&#45;&gt;Node8</title>
<path fill="none" stroke="midnightblue" d="M195.346,-65.6706C185.706,-55.7551 174.779,-44.5151 165.956,-35.4407"/>
<polygon fill="midnightblue" stroke="midnightblue" points="192.931,-68.2068 202.411,-72.937 197.95,-63.3272 192.931,-68.2068"/>
</g>
<!-- Node9 -->
<g id="node17" class="node"><title>Node9</title>
<a xlink:href="../../dd/db0/linear__read__only__memory_8hh.html" target="_top" xlink:title="harpoon/memory/linear\l_read_only_memory.hh">
<polygon fill="white" stroke="black" points="231,-1 231,-35 349,-35 349,-1 231,-1"/>
<text text-anchor="start" x="239" y="-22" font-family="Helvetica,sans-Serif" font-size="10.00">harpoon/memory/linear</text>
<text text-anchor="middle" x="290" y="-9" font-family="Helvetica,sans-Serif" font-size="10.00">_read_only_memory.hh</text>
</a>
</g>
<!-- Node7&#45;&gt;Node9 -->
<g id="edge16" class="edge"><title>Node7&#45;&gt;Node9</title>
<path fill="none" stroke="midnightblue" d="M242.992,-65.6706C252.769,-55.7551 263.853,-44.5151 272.802,-35.4407"/>
<polygon fill="midnightblue" stroke="midnightblue" points="240.355,-63.3591 235.826,-72.937 245.34,-68.2742 240.355,-63.3591"/>
</g>
</g>
</svg>
