<?xml version="1.0" encoding="UTF-8" standalone="no"?>
<!DOCTYPE svg PUBLIC "-//W3C//DTD SVG 1.1//EN"
 "http://www.w3.org/Graphics/SVG/1.1/DTD/svg11.dtd">
<!-- Generated by graphviz version 2.26.3 (20100126.1600)
 -->
<!-- Title: harpoon::execution::processing_unit Pages: 1 -->
<svg width="158pt" height="624pt"
 viewBox="0.00 0.00 158.00 624.00" xmlns="http://www.w3.org/2000/svg" xmlns:xlink="http://www.w3.org/1999/xlink">
<g id="graph1" class="graph" transform="scale(1 1) rotate(0) translate(4 620)">
<title>harpoon::execution::processing_unit</title>
<polygon fill="white" stroke="white" points="-4,5 -4,-620 155,-620 155,5 -4,5"/>
<!-- Node1 -->
<g id="node1" class="node"><title>Node1</title>
<polygon fill="#bfbfbf" stroke="black" points="2,-1 2,-259 148,-259 148,-1 2,-1"/>
<text text-anchor="start" x="10" y="-246" font-family="Helvetica,sans-Serif" font-size="10.00">harpoon::execution</text>
<text text-anchor="middle" x="75" y="-233" font-family="Helvetica,sans-Serif" font-size="10.00">::processing_unit</text>
<polyline fill="none" stroke="black" points="2,-225 148,-225 "/>
<text text-anchor="middle" x="75" y="-212" font-family="Helvetica,sans-Serif" font-size="10.00"> </text>
<polyline fill="none" stroke="black" points="2,-204 148,-204 "/>
<text text-anchor="start" x="10" y="-191" font-family="Helvetica,sans-Serif" font-size="10.00">+ prepare()</text>
<text text-anchor="start" x="10" y="-178" font-family="Helvetica,sans-Serif" font-size="10.00">+ boot()</text>
<text text-anchor="start" x="10" y="-165" font-family="Helvetica,sans-Serif" font-size="10.00">+ shutdown()</text>
<text text-anchor="start" x="10" y="-152" font-family="Helvetica,sans-Serif" font-size="10.00">+ run()</text>
<text text-anchor="start" x="10" y="-139" font-family="Helvetica,sans-Serif" font-size="10.00">+ wait_for_cycle()</text>
<text text-anchor="start" x="10" y="-126" font-family="Helvetica,sans-Serif" font-size="10.00">+ wait_for_next_cycle()</text>
<text text-anchor="start" x="10" y="-113" font-family="Helvetica,sans-Serif" font-size="10.00">+ fetch()</text>
<text text-anchor="start" x="10" y="-100" font-family="Helvetica,sans-Serif" font-size="10.00">+ execute()</text>
<text text-anchor="start" x="10" y="-87" font-family="Helvetica,sans-Serif" font-size="10.00">+ is_running()</text>
<text text-anchor="start" x="10" y="-74" font-family="Helvetica,sans-Serif" font-size="10.00">+ get_execution_unit()</text>
<text text-anchor="start" x="10" y="-61" font-family="Helvetica,sans-Serif" font-size="10.00">+ get_cycle()</text>
<text text-anchor="start" x="10" y="-48" font-family="Helvetica,sans-Serif" font-size="10.00">+ get_executed_instructions()</text>
<text text-anchor="start" x="10" y="-35" font-family="Helvetica,sans-Serif" font-size="10.00">+ log_state()</text>
<text text-anchor="start" x="10" y="-22" font-family="Helvetica,sans-Serif" font-size="10.00">+ log_registers()</text>
<text text-anchor="start" x="10" y="-9" font-family="Helvetica,sans-Serif" font-size="10.00">+ ~processing_unit()</text>
</g>
<!-- Node2 -->
<g id="node2" class="node"><title>Node2</title>
<a xlink:href="../../df/d54/classharpoon_1_1hardware__component.html" target="_top" xlink:title="Base class for all hardware components of computer system (i.e. CPU, memory). All components should d...">
<polygon fill="white" stroke="black" points="0,-296.5 0,-489.5 150,-489.5 150,-296.5 0,-296.5"/>
<text text-anchor="middle" x="75" y="-476.5" font-family="Helvetica,sans-Serif" font-size="10.00">harpoon::hardware_component</text>
<polyline fill="none" stroke="black" points="0,-468.5 150,-468.5 "/>
<text text-anchor="middle" x="75" y="-455.5" font-family="Helvetica,sans-Serif" font-size="10.00"> </text>
<polyline fill="none" stroke="black" points="0,-447.5 150,-447.5 "/>
<text text-anchor="start" x="8" y="-434.5" font-family="Helvetica,sans-Serif" font-size="10.00">+ hardware_component()</text>
<text text-anchor="start" x="8" y="-421.5" font-family="Helvetica,sans-Serif" font-size="10.00">+ hardware_component()</text>
<text text-anchor="start" x="8" y="-408.5" font-family="Helvetica,sans-Serif" font-size="10.00">+ operator=()</text>
<text text-anchor="start" x="8" y="-395.5" font-family="Helvetica,sans-Serif" font-size="10.00">+ ~hardware_component()</text>
<text text-anchor="start" x="8" y="-382.5" font-family="Helvetica,sans-Serif" font-size="10.00">+ add_component()</text>
<text text-anchor="start" x="8" y="-369.5" font-family="Helvetica,sans-Serif" font-size="10.00">+ remove_component()</text>
<text text-anchor="start" x="8" y="-356.5" font-family="Helvetica,sans-Serif" font-size="10.00">+ replace_component()</text>
<text text-anchor="start" x="8" y="-343.5" font-family="Helvetica,sans-Serif" font-size="10.00">+ prepare()</text>
<text text-anchor="start" x="8" y="-330.5" font-family="Helvetica,sans-Serif" font-size="10.00">+ cleanup()</text>
<text text-anchor="start" x="8" y="-317.5" font-family="Helvetica,sans-Serif" font-size="10.00">+ boot()</text>
<text text-anchor="start" x="8" y="-304.5" font-family="Helvetica,sans-Serif" font-size="10.00">and 10 more...</text>
</a>
</g>
<!-- Node2&#45;&gt;Node1 -->
<g id="edge2" class="edge"><title>Node2&#45;&gt;Node1</title>
<path fill="none" stroke="midnightblue" d="M75,-285.967C75,-277.191 75,-268.265 75,-259.353"/>
<polygon fill="none" stroke="midnightblue" points="71.5001,-286.189 75,-296.189 78.5001,-286.189 71.5001,-286.189"/>
</g>
<!-- Node3 -->
<g id="node4" class="node"><title>Node3</title>
<polygon fill="white" stroke="#bfbfbf" points="19.5,-526.5 19.5,-615.5 130.5,-615.5 130.5,-526.5 19.5,-526.5"/>
<text text-anchor="start" x="27.5" y="-602.5" font-family="Helvetica,sans-Serif" font-size="10.00">std::enable_shared</text>
<text text-anchor="start" x="27.5" y="-589.5" font-family="Helvetica,sans-Serif" font-size="10.00">_from_this&lt; hardware</text>
<text text-anchor="middle" x="75" y="-576.5" font-family="Helvetica,sans-Serif" font-size="10.00">_component &gt;</text>
<polyline fill="none" stroke="#bfbfbf" points="19.5,-568.5 130.5,-568.5 "/>
<text text-anchor="middle" x="75" y="-555.5" font-family="Helvetica,sans-Serif" font-size="10.00"> </text>
<polyline fill="none" stroke="#bfbfbf" points="19.5,-547.5 130.5,-547.5 "/>
<text text-anchor="middle" x="75" y="-534.5" font-family="Helvetica,sans-Serif" font-size="10.00"> </text>
</g>
<!-- Node3&#45;&gt;Node2 -->
<g id="edge4" class="edge"><title>Node3&#45;&gt;Node2</title>
<path fill="none" stroke="midnightblue" d="M75,-516.059C75,-507.626 75,-498.712 75,-489.692"/>
<polygon fill="none" stroke="midnightblue" points="71.5001,-516.083 75,-526.083 78.5001,-516.083 71.5001,-516.083"/>
</g>
</g>
</svg>
