<?xml version="1.0" encoding="UTF-8" standalone="no"?>
<!DOCTYPE svg PUBLIC "-//W3C//DTD SVG 1.1//EN"
 "http://www.w3.org/Graphics/SVG/1.1/DTD/svg11.dtd">
<!-- Generated by graphviz version 2.26.3 (20100126.1600)
 -->
<!-- Title: harpoon/log/console_log.hh Pages: 1 -->
<svg width="245pt" height="276pt"
 viewBox="0.00 0.00 245.00 276.00" xmlns="http://www.w3.org/2000/svg" xmlns:xlink="http://www.w3.org/1999/xlink">
<g id="graph1" class="graph" transform="scale(1 1) rotate(0) translate(4 272)">
<title>harpoon/log/console_log.hh</title>
<polygon fill="white" stroke="white" points="-4,5 -4,-272 242,-272 242,5 -4,5"/>
<!-- Node1 -->
<g id="node1" class="node"><title>Node1</title>
<polygon fill="#bfbfbf" stroke="black" points="73,-233 73,-267 177,-267 177,-233 73,-233"/>
<text text-anchor="start" x="81" y="-254" font-family="Helvetica,sans-Serif" font-size="10.00">harpoon/log/console</text>
<text text-anchor="middle" x="125" y="-241" font-family="Helvetica,sans-Serif" font-size="10.00">_log.hh</text>
</g>
<!-- Node2 -->
<g id="node3" class="node"><title>Node2</title>
<a xlink:href="../../d5/d08/harpoon_8hh.html" target="_top" xlink:title="Harpoon library common header file. ">
<polygon fill="white" stroke="black" points="33,-58.5 33,-79.5 135,-79.5 135,-58.5 33,-58.5"/>
<text text-anchor="middle" x="84" y="-66.5" font-family="Helvetica,sans-Serif" font-size="10.00">harpoon/harpoon.hh</text>
</a>
</g>
<!-- Node1&#45;&gt;Node2 -->
<g id="edge2" class="edge"><title>Node1&#45;&gt;Node2</title>
<path fill="none" stroke="midnightblue" d="M99.0061,-232.96C87.1768,-223.618 74.4096,-210.901 68,-196 52.7963,-160.653 65.4776,-115.024 75.279,-89.1912"/>
<polygon fill="midnightblue" stroke="midnightblue" points="78.604,-90.3033 79.0857,-79.7194 72.109,-87.6928 78.604,-90.3033"/>
</g>
<!-- Node6 -->
<g id="node11" class="node"><title>Node6</title>
<a xlink:href="../../d3/de3/log_8hh.html" target="_top" xlink:title="harpoon/log/log.hh">
<polygon fill="white" stroke="black" points="77,-174.5 77,-195.5 173,-195.5 173,-174.5 77,-174.5"/>
<text text-anchor="middle" x="125" y="-182.5" font-family="Helvetica,sans-Serif" font-size="10.00">harpoon/log/log.hh</text>
</a>
</g>
<!-- Node1&#45;&gt;Node6 -->
<g id="edge10" class="edge"><title>Node1&#45;&gt;Node6</title>
<path fill="none" stroke="midnightblue" d="M125,-232.922C125,-224.67 125,-214.692 125,-205.982"/>
<polygon fill="midnightblue" stroke="midnightblue" points="128.5,-205.852 125,-195.852 121.5,-205.852 128.5,-205.852"/>
</g>
<!-- Node9 -->
<g id="node19" class="node"><title>Node9</title>
<polygon fill="white" stroke="#bfbfbf" points="191,-174.5 191,-195.5 235,-195.5 235,-174.5 191,-174.5"/>
<text text-anchor="middle" x="213" y="-182.5" font-family="Helvetica,sans-Serif" font-size="10.00">mutex</text>
</g>
<!-- Node1&#45;&gt;Node9 -->
<g id="edge20" class="edge"><title>Node1&#45;&gt;Node9</title>
<path fill="none" stroke="midnightblue" d="M148.121,-232.922C161.113,-223.326 177.266,-211.394 190.205,-201.837"/>
<polygon fill="midnightblue" stroke="midnightblue" points="192.606,-204.415 198.57,-195.658 188.447,-198.784 192.606,-204.415"/>
</g>
<!-- Node3 -->
<g id="node5" class="node"><title>Node3</title>
<polygon fill="white" stroke="#bfbfbf" points="-0.5,-0.5 -0.5,-21.5 40.5,-21.5 40.5,-0.5 -0.5,-0.5"/>
<text text-anchor="middle" x="20" y="-8.5" font-family="Helvetica,sans-Serif" font-size="10.00">string</text>
</g>
<!-- Node2&#45;&gt;Node3 -->
<g id="edge4" class="edge"><title>Node2&#45;&gt;Node3</title>
<path fill="none" stroke="midnightblue" d="M72.2614,-58.3619C63.0594,-50.0226 50.0599,-38.2418 39.3283,-28.5162"/>
<polygon fill="midnightblue" stroke="midnightblue" points="41.4244,-25.6924 31.6642,-21.5707 36.7237,-30.8793 41.4244,-25.6924"/>
</g>
<!-- Node4 -->
<g id="node7" class="node"><title>Node4</title>
<polygon fill="white" stroke="#bfbfbf" points="58,-0.5 58,-21.5 110,-21.5 110,-0.5 58,-0.5"/>
<text text-anchor="middle" x="84" y="-8.5" font-family="Helvetica,sans-Serif" font-size="10.00">memory</text>
</g>
<!-- Node2&#45;&gt;Node4 -->
<g id="edge6" class="edge"><title>Node2&#45;&gt;Node4</title>
<path fill="none" stroke="midnightblue" d="M84,-58.3619C84,-50.9219 84,-40.7427 84,-31.7276"/>
<polygon fill="midnightblue" stroke="midnightblue" points="87.5001,-31.5706 84,-21.5707 80.5001,-31.5707 87.5001,-31.5706"/>
</g>
<!-- Node5 -->
<g id="node9" class="node"><title>Node5</title>
<polygon fill="white" stroke="#bfbfbf" points="128,-0.5 128,-21.5 168,-21.5 168,-0.5 128,-0.5"/>
<text text-anchor="middle" x="148" y="-8.5" font-family="Helvetica,sans-Serif" font-size="10.00">utility</text>
</g>
<!-- Node2&#45;&gt;Node5 -->
<g id="edge8" class="edge"><title>Node2&#45;&gt;Node5</title>
<path fill="none" stroke="midnightblue" d="M95.7386,-58.3619C104.941,-50.0226 117.94,-38.2418 128.672,-28.5162"/>
<polygon fill="midnightblue" stroke="midnightblue" points="131.276,-30.8793 136.336,-21.5707 126.576,-25.6924 131.276,-30.8793"/>
</g>
<!-- Node6&#45;&gt;Node2 -->
<g id="edge12" class="edge"><title>Node6&#45;&gt;Node2</title>
<path fill="none" stroke="midnightblue" d="M120.389,-174.262C116.389,-164.793 110.542,-150.583 106,-138 100.206,-121.949 94.3723,-103.524 90.1692,-89.7532"/>
<polygon fill="midnightblue" stroke="midnightblue" points="93.4183,-88.4048 87.1799,-79.8414 86.7164,-90.426 93.4183,-88.4048"/>
</g>
<!-- Node7 -->
<g id="node14" class="node"><title>Node7</title>
<a xlink:href="../../d9/d74/message_8hh.html" target="_top" xlink:title="harpoon/log/message.hh">
<polygon fill="white" stroke="black" points="114.5,-116.5 114.5,-137.5 237.5,-137.5 237.5,-116.5 114.5,-116.5"/>
<text text-anchor="middle" x="176" y="-124.5" font-family="Helvetica,sans-Serif" font-size="10.00">harpoon/log/message.hh</text>
</a>
</g>
<!-- Node6&#45;&gt;Node7 -->
<g id="edge14" class="edge"><title>Node6&#45;&gt;Node7</title>
<path fill="none" stroke="midnightblue" d="M134.354,-174.362C141.543,-166.186 151.641,-154.702 160.093,-145.091"/>
<polygon fill="midnightblue" stroke="midnightblue" points="162.73,-147.392 166.705,-137.571 157.473,-142.769 162.73,-147.392"/>
</g>
<!-- Node7&#45;&gt;Node2 -->
<g id="edge16" class="edge"><title>Node7&#45;&gt;Node2</title>
<path fill="none" stroke="midnightblue" d="M159.126,-116.362C145.249,-107.614 125.366,-95.0786 109.54,-85.1015"/>
<polygon fill="midnightblue" stroke="midnightblue" points="111.093,-81.943 100.767,-79.5707 107.36,-87.8645 111.093,-81.943"/>
</g>
<!-- Node8 -->
<g id="node17" class="node"><title>Node8</title>
<polygon fill="white" stroke="#bfbfbf" points="153,-58.5 153,-79.5 205,-79.5 205,-58.5 153,-58.5"/>
<text text-anchor="middle" x="179" y="-66.5" font-family="Helvetica,sans-Serif" font-size="10.00">sstream</text>
</g>
<!-- Node7&#45;&gt;Node8 -->
<g id="edge18" class="edge"><title>Node7&#45;&gt;Node8</title>
<path fill="none" stroke="midnightblue" d="M176.55,-116.362C176.935,-108.922 177.462,-98.7427 177.928,-89.7276"/>
<polygon fill="midnightblue" stroke="midnightblue" points="181.432,-89.7381 178.453,-79.5707 174.441,-89.3765 181.432,-89.7381"/>
</g>
</g>
</svg>
