<?xml version="1.0" encoding="UTF-8" standalone="no"?>
<!DOCTYPE svg PUBLIC "-//W3C//DTD SVG 1.1//EN"
 "http://www.w3.org/Graphics/SVG/1.1/DTD/svg11.dtd">
<!-- Generated by graphviz version 2.26.3 (20100126.1600)
 -->
<!-- Title: harpoon/execution/exception/invalid_instruction.hh Pages: 1 -->
<svg width="307pt" height="376pt"
 viewBox="0.00 0.00 307.00 376.00" xmlns="http://www.w3.org/2000/svg" xmlns:xlink="http://www.w3.org/1999/xlink">
<g id="graph1" class="graph" transform="scale(1 1) rotate(0) translate(4 372)">
<title>harpoon/execution/exception/invalid_instruction.hh</title>
<polygon fill="white" stroke="white" points="-4,5 -4,-372 304,-372 304,5 -4,5"/>
<!-- Node1 -->
<g id="node1" class="node"><title>Node1</title>
<polygon fill="#bfbfbf" stroke="black" points="39.5,-333 39.5,-367 180.5,-367 180.5,-333 39.5,-333"/>
<text text-anchor="start" x="47.5" y="-354" font-family="Helvetica,sans-Serif" font-size="10.00">harpoon/execution/exception</text>
<text text-anchor="middle" x="110" y="-341" font-family="Helvetica,sans-Serif" font-size="10.00">/invalid_instruction.hh</text>
</g>
<!-- Node2 -->
<g id="node3" class="node"><title>Node2</title>
<a xlink:href="../../d5/d08/harpoon_8hh.html" target="_top" xlink:title="Harpoon library common header file. ">
<polygon fill="white" stroke="black" points="65,-58.5 65,-79.5 167,-79.5 167,-58.5 65,-58.5"/>
<text text-anchor="middle" x="116" y="-66.5" font-family="Helvetica,sans-Serif" font-size="10.00">harpoon/harpoon.hh</text>
</a>
</g>
<!-- Node1&#45;&gt;Node2 -->
<g id="edge2" class="edge"><title>Node1&#45;&gt;Node2</title>
<path fill="none" stroke="midnightblue" d="M97.5826,-332.966C90.9434,-322.789 83.4434,-309.289 80,-296 60.5213,-220.829 91.4619,-128.765 107.422,-88.933"/>
<polygon fill="midnightblue" stroke="midnightblue" points="110.712,-90.134 111.295,-79.5551 104.242,-87.4619 110.712,-90.134"/>
</g>
<!-- Node7 -->
<g id="node13" class="node"><title>Node7</title>
<a xlink:href="../../d5/d38/execution__exception_8hh.html" target="_top" xlink:title="harpoon/execution/exception\l/execution_exception.hh">
<polygon fill="white" stroke="black" points="88.5,-261 88.5,-295 229.5,-295 229.5,-261 88.5,-261"/>
<text text-anchor="start" x="96.5" y="-282" font-family="Helvetica,sans-Serif" font-size="10.00">harpoon/execution/exception</text>
<text text-anchor="middle" x="159" y="-269" font-family="Helvetica,sans-Serif" font-size="10.00">/execution_exception.hh</text>
</a>
</g>
<!-- Node1&#45;&gt;Node7 -->
<g id="edge12" class="edge"><title>Node1&#45;&gt;Node7</title>
<path fill="none" stroke="midnightblue" d="M121.612,-332.937C127.506,-324.277 134.791,-313.573 141.36,-303.921"/>
<polygon fill="midnightblue" stroke="midnightblue" points="144.398,-305.677 147.131,-295.441 138.611,-301.739 144.398,-305.677"/>
</g>
<!-- Node3 -->
<g id="node5" class="node"><title>Node3</title>
<polygon fill="white" stroke="#bfbfbf" points="-0.5,-0.5 -0.5,-21.5 40.5,-21.5 40.5,-0.5 -0.5,-0.5"/>
<text text-anchor="middle" x="20" y="-8.5" font-family="Helvetica,sans-Serif" font-size="10.00">string</text>
</g>
<!-- Node2&#45;&gt;Node3 -->
<g id="edge4" class="edge"><title>Node2&#45;&gt;Node3</title>
<path fill="none" stroke="midnightblue" d="M98.3921,-58.3619C83.7771,-49.532 62.7762,-36.844 46.1888,-26.8224"/>
<polygon fill="midnightblue" stroke="midnightblue" points="47.8653,-23.7461 37.4963,-21.5707 44.2455,-29.7376 47.8653,-23.7461"/>
</g>
<!-- Node4 -->
<g id="node7" class="node"><title>Node4</title>
<polygon fill="white" stroke="#bfbfbf" points="58,-0.5 58,-21.5 110,-21.5 110,-0.5 58,-0.5"/>
<text text-anchor="middle" x="84" y="-8.5" font-family="Helvetica,sans-Serif" font-size="10.00">memory</text>
</g>
<!-- Node2&#45;&gt;Node4 -->
<g id="edge6" class="edge"><title>Node2&#45;&gt;Node4</title>
<path fill="none" stroke="midnightblue" d="M110.131,-58.3619C105.845,-50.5949 99.9131,-39.8426 94.7839,-30.5458"/>
<polygon fill="midnightblue" stroke="midnightblue" points="97.7274,-28.6357 89.8321,-21.5707 91.5984,-32.0172 97.7274,-28.6357"/>
</g>
<!-- Node5 -->
<g id="node9" class="node"><title>Node5</title>
<polygon fill="white" stroke="#bfbfbf" points="128,-0.5 128,-21.5 168,-21.5 168,-0.5 128,-0.5"/>
<text text-anchor="middle" x="148" y="-8.5" font-family="Helvetica,sans-Serif" font-size="10.00">utility</text>
</g>
<!-- Node2&#45;&gt;Node5 -->
<g id="edge8" class="edge"><title>Node2&#45;&gt;Node5</title>
<path fill="none" stroke="midnightblue" d="M121.869,-58.3619C126.155,-50.5949 132.087,-39.8426 137.216,-30.5458"/>
<polygon fill="midnightblue" stroke="midnightblue" points="140.402,-32.0172 142.168,-21.5707 134.273,-28.6357 140.402,-32.0172"/>
</g>
<!-- Node6 -->
<g id="node11" class="node"><title>Node6</title>
<polygon fill="white" stroke="#bfbfbf" points="186,-0.5 186,-21.5 232,-21.5 232,-0.5 186,-0.5"/>
<text text-anchor="middle" x="209" y="-8.5" font-family="Helvetica,sans-Serif" font-size="10.00">cstdint</text>
</g>
<!-- Node2&#45;&gt;Node6 -->
<g id="edge10" class="edge"><title>Node2&#45;&gt;Node6</title>
<path fill="none" stroke="midnightblue" d="M133.058,-58.3619C147.085,-49.6138 167.184,-37.0786 183.182,-27.1015"/>
<polygon fill="midnightblue" stroke="midnightblue" points="185.418,-29.8323 192.051,-21.5707 181.713,-23.8927 185.418,-29.8323"/>
</g>
<!-- Node7&#45;&gt;Node2 -->
<g id="edge14" class="edge"><title>Node7&#45;&gt;Node2</title>
<path fill="none" stroke="midnightblue" d="M141.325,-260.744C132.513,-250.904 122.746,-237.803 118,-224 102.25,-178.189 107.66,-120.168 112.26,-89.7573"/>
<polygon fill="midnightblue" stroke="midnightblue" points="115.772,-89.9717 113.938,-79.5368 108.864,-88.8378 115.772,-89.9717"/>
</g>
<!-- Node8 -->
<g id="node16" class="node"><title>Node8</title>
<a xlink:href="../../df/d18/hardware__component__exception_8hh.html" target="_top" xlink:title="harpoon/exception/hardware\l_component_exception.hh">
<polygon fill="white" stroke="black" points="126.5,-189 126.5,-223 265.5,-223 265.5,-189 126.5,-189"/>
<text text-anchor="start" x="134.5" y="-210" font-family="Helvetica,sans-Serif" font-size="10.00">harpoon/exception/hardware</text>
<text text-anchor="middle" x="196" y="-197" font-family="Helvetica,sans-Serif" font-size="10.00">_component_exception.hh</text>
</a>
</g>
<!-- Node7&#45;&gt;Node8 -->
<g id="edge16" class="edge"><title>Node7&#45;&gt;Node8</title>
<path fill="none" stroke="midnightblue" d="M167.768,-260.937C172.128,-252.454 177.495,-242.009 182.375,-232.513"/>
<polygon fill="midnightblue" stroke="midnightblue" points="185.58,-233.935 187.037,-223.441 179.354,-230.735 185.58,-233.935"/>
</g>
<!-- Node8&#45;&gt;Node2 -->
<g id="edge18" class="edge"><title>Node8&#45;&gt;Node2</title>
<path fill="none" stroke="midnightblue" d="M181.79,-188.587C173.72,-178.283 163.72,-164.783 156,-152 143.536,-131.363 131.884,-106.256 124.407,-89.0962"/>
<polygon fill="midnightblue" stroke="midnightblue" points="127.474,-87.3661 120.322,-79.5495 121.038,-90.1201 127.474,-87.3661"/>
</g>
<!-- Node9 -->
<g id="node19" class="node"><title>Node9</title>
<a xlink:href="../../d5/d38/harpoon__exception_8hh.html" target="_top" xlink:title="harpoon/exception/harpoon\l_exception.hh">
<polygon fill="white" stroke="black" points="165,-117 165,-151 299,-151 299,-117 165,-117"/>
<text text-anchor="start" x="173" y="-138" font-family="Helvetica,sans-Serif" font-size="10.00">harpoon/exception/harpoon</text>
<text text-anchor="middle" x="232" y="-125" font-family="Helvetica,sans-Serif" font-size="10.00">_exception.hh</text>
</a>
</g>
<!-- Node8&#45;&gt;Node9 -->
<g id="edge20" class="edge"><title>Node8&#45;&gt;Node9</title>
<path fill="none" stroke="midnightblue" d="M204.531,-188.937C208.773,-180.454 213.995,-170.009 218.744,-160.513"/>
<polygon fill="midnightblue" stroke="midnightblue" points="221.938,-161.95 223.28,-151.441 215.677,-158.82 221.938,-161.95"/>
</g>
<!-- Node9&#45;&gt;Node2 -->
<g id="edge22" class="edge"><title>Node9&#45;&gt;Node2</title>
<path fill="none" stroke="midnightblue" d="M201.522,-116.922C183.738,-106.957 161.459,-94.4729 144.1,-84.7455"/>
<polygon fill="midnightblue" stroke="midnightblue" points="145.456,-81.4934 135.021,-79.6584 142.034,-87.6001 145.456,-81.4934"/>
</g>
<!-- Node10 -->
<g id="node22" class="node"><title>Node10</title>
<polygon fill="white" stroke="#bfbfbf" points="202.5,-58.5 202.5,-79.5 261.5,-79.5 261.5,-58.5 202.5,-58.5"/>
<text text-anchor="middle" x="232" y="-66.5" font-family="Helvetica,sans-Serif" font-size="10.00">stdexcept</text>
</g>
<!-- Node9&#45;&gt;Node10 -->
<g id="edge24" class="edge"><title>Node9&#45;&gt;Node10</title>
<path fill="none" stroke="midnightblue" d="M232,-116.922C232,-108.67 232,-98.6922 232,-89.9818"/>
<polygon fill="midnightblue" stroke="midnightblue" points="235.5,-89.8521 232,-79.8521 228.5,-89.8521 235.5,-89.8521"/>
</g>
</g>
</svg>
