<?xml version="1.0" encoding="UTF-8" standalone="no"?>
<!DOCTYPE svg PUBLIC "-//W3C//DTD SVG 1.1//EN"
 "http://www.w3.org/Graphics/SVG/1.1/DTD/svg11.dtd">
<!-- Generated by graphviz version 2.26.3 (20100126.1600)
 -->
<!-- Title: harpoon/memory/address_range.hh Pages: 1 -->
<svg width="744pt" height="246pt"
 viewBox="0.00 0.00 744.00 246.00" xmlns="http://www.w3.org/2000/svg" xmlns:xlink="http://www.w3.org/1999/xlink">
<g id="graph1" class="graph" transform="scale(1 1) rotate(0) translate(4 242)">
<title>harpoon/memory/address_range.hh</title>
<polygon fill="white" stroke="white" points="-4,5 -4,-242 741,-242 741,5 -4,5"/>
<!-- Node1 -->
<g id="node1" class="node"><title>Node1</title>
<polygon fill="#bfbfbf" stroke="black" points="451.5,-203 451.5,-237 578.5,-237 578.5,-203 451.5,-203"/>
<text text-anchor="start" x="459.5" y="-224" font-family="Helvetica,sans-Serif" font-size="10.00">harpoon/memory/address</text>
<text text-anchor="middle" x="515" y="-211" font-family="Helvetica,sans-Serif" font-size="10.00">_range.hh</text>
</g>
<!-- Node2 -->
<g id="node3" class="node"><title>Node2</title>
<a xlink:href="../../dc/d3f/memory_8hh.html" target="_top" xlink:title="harpoon/memory/memory.hh">
<polygon fill="white" stroke="black" points="352.5,-144.5 352.5,-165.5 493.5,-165.5 493.5,-144.5 352.5,-144.5"/>
<text text-anchor="middle" x="423" y="-152.5" font-family="Helvetica,sans-Serif" font-size="10.00">harpoon/memory/memory.hh</text>
</a>
</g>
<!-- Node1&#45;&gt;Node2 -->
<g id="edge2" class="edge"><title>Node1&#45;&gt;Node2</title>
<path fill="none" stroke="midnightblue" d="M482.251,-196.862C467.183,-186.216 450.041,-174.105 438.086,-165.658"/>
<polygon fill="midnightblue" stroke="midnightblue" points="480.641,-200.01 490.828,-202.922 484.68,-194.293 480.641,-200.01"/>
</g>
<!-- Node11 -->
<g id="node21" class="node"><title>Node11</title>
<a xlink:href="../../d0/dcd/serializer_8hh.html" target="_top" xlink:title="harpoon/memory/serializer\l/serializer.hh">
<polygon fill="white" stroke="black" points="585.5,-73 585.5,-107 716.5,-107 716.5,-73 585.5,-73"/>
<text text-anchor="start" x="593.5" y="-94" font-family="Helvetica,sans-Serif" font-size="10.00">harpoon/memory/serializer</text>
<text text-anchor="middle" x="651" y="-81" font-family="Helvetica,sans-Serif" font-size="10.00">/serializer.hh</text>
</a>
</g>
<!-- Node1&#45;&gt;Node11 -->
<g id="edge24" class="edge"><title>Node1&#45;&gt;Node11</title>
<path fill="none" stroke="midnightblue" d="M540.565,-195.562C567.475,-169.84 609.153,-130.001 632.866,-107.334"/>
<polygon fill="midnightblue" stroke="midnightblue" points="537.87,-193.297 533.06,-202.737 542.707,-198.357 537.87,-193.297"/>
</g>
<!-- Node3 -->
<g id="node5" class="node"><title>Node3</title>
<a xlink:href="../../d5/d22/computer__system_8hh.html" target="_top" xlink:title="harpoon/computer_system.hh">
<polygon fill="white" stroke="black" points="5,-79.5 5,-100.5 151,-100.5 151,-79.5 5,-79.5"/>
<text text-anchor="middle" x="78" y="-87.5" font-family="Helvetica,sans-Serif" font-size="10.00">harpoon/computer_system.hh</text>
</a>
</g>
<!-- Node2&#45;&gt;Node3 -->
<g id="edge4" class="edge"><title>Node2&#45;&gt;Node3</title>
<path fill="none" stroke="midnightblue" d="M350.203,-142.78C297.326,-133.712 224.105,-120.759 160,-108 148.421,-105.695 135.96,-103.047 124.335,-100.504"/>
<polygon fill="midnightblue" stroke="midnightblue" points="349.718,-146.248 360.165,-144.484 350.899,-139.349 349.718,-146.248"/>
</g>
<!-- Node4 -->
<g id="node7" class="node"><title>Node4</title>
<a xlink:href="../../dc/d1d/chunked__memory_8hh.html" target="_top" xlink:title="harpoon/memory/chunked\l_memory.hh">
<polygon fill="white" stroke="black" points="168.5,-73 168.5,-107 297.5,-107 297.5,-73 168.5,-73"/>
<text text-anchor="start" x="176.5" y="-94" font-family="Helvetica,sans-Serif" font-size="10.00">harpoon/memory/chunked</text>
<text text-anchor="middle" x="233" y="-81" font-family="Helvetica,sans-Serif" font-size="10.00">_memory.hh</text>
</a>
</g>
<!-- Node2&#45;&gt;Node4 -->
<g id="edge6" class="edge"><title>Node2&#45;&gt;Node4</title>
<path fill="none" stroke="midnightblue" d="M382.215,-141.047C353.121,-131.094 313.829,-117.652 282.869,-107.06"/>
<polygon fill="midnightblue" stroke="midnightblue" points="381.456,-144.487 392.05,-144.412 383.722,-137.863 381.456,-144.487"/>
</g>
<!-- Node7 -->
<g id="node13" class="node"><title>Node7</title>
<a xlink:href="../../d1/d70/linear__memory_8hh.html" target="_top" xlink:title="harpoon/memory/linear\l_memory.hh">
<polygon fill="white" stroke="black" points="322,-73 322,-107 438,-107 438,-73 322,-73"/>
<text text-anchor="start" x="330" y="-94" font-family="Helvetica,sans-Serif" font-size="10.00">harpoon/memory/linear</text>
<text text-anchor="middle" x="380" y="-81" font-family="Helvetica,sans-Serif" font-size="10.00">_memory.hh</text>
</a>
</g>
<!-- Node2&#45;&gt;Node7 -->
<g id="edge12" class="edge"><title>Node2&#45;&gt;Node7</title>
<path fill="none" stroke="midnightblue" d="M410.337,-135.858C404.31,-126.748 397.162,-115.943 391.319,-107.11"/>
<polygon fill="midnightblue" stroke="midnightblue" points="407.463,-137.857 415.899,-144.267 413.301,-133.995 407.463,-137.857"/>
</g>
<!-- Node10 -->
<g id="node19" class="node"><title>Node10</title>
<a xlink:href="../../d4/d85/main__memory_8hh.html" target="_top" xlink:title="harpoon/memory/main\l_memory.hh">
<polygon fill="white" stroke="black" points="455.5,-73 455.5,-107 568.5,-107 568.5,-73 455.5,-73"/>
<text text-anchor="start" x="463.5" y="-94" font-family="Helvetica,sans-Serif" font-size="10.00">harpoon/memory/main</text>
<text text-anchor="middle" x="512" y="-81" font-family="Helvetica,sans-Serif" font-size="10.00">_memory.hh</text>
</a>
</g>
<!-- Node2&#45;&gt;Node10 -->
<g id="edge18" class="edge"><title>Node2&#45;&gt;Node10</title>
<path fill="none" stroke="midnightblue" d="M446.143,-138.098C459.199,-128.562 475.47,-116.679 488.573,-107.11"/>
<polygon fill="midnightblue" stroke="midnightblue" points="443.708,-135.542 437.697,-144.267 447.836,-141.195 443.708,-135.542"/>
</g>
<!-- Node2&#45;&gt;Node11 -->
<g id="edge20" class="edge"><title>Node2&#45;&gt;Node11</title>
<path fill="none" stroke="midnightblue" d="M469.861,-141.64C504.922,-131.645 553.147,-117.897 591.023,-107.099"/>
<polygon fill="midnightblue" stroke="midnightblue" points="468.543,-138.377 459.886,-144.484 470.462,-145.109 468.543,-138.377"/>
</g>
<!-- Node5 -->
<g id="node9" class="node"><title>Node5</title>
<a xlink:href="../../d4/d48/chunked__random__access__memory_8hh.html" target="_top" xlink:title="harpoon/memory/chunked\l_random_access_memory.hh">
<polygon fill="white" stroke="black" points="-0.5,-1 -0.5,-35 144.5,-35 144.5,-1 -0.5,-1"/>
<text text-anchor="start" x="7.5" y="-22" font-family="Helvetica,sans-Serif" font-size="10.00">harpoon/memory/chunked</text>
<text text-anchor="middle" x="72" y="-9" font-family="Helvetica,sans-Serif" font-size="10.00">_random_access_memory.hh</text>
</a>
</g>
<!-- Node4&#45;&gt;Node5 -->
<g id="edge8" class="edge"><title>Node4&#45;&gt;Node5</title>
<path fill="none" stroke="midnightblue" d="M185.553,-68.7812C161.522,-58.0346 132.735,-45.1612 110.16,-35.0651"/>
<polygon fill="midnightblue" stroke="midnightblue" points="184.288,-72.0496 194.845,-72.937 187.145,-65.6595 184.288,-72.0496"/>
</g>
<!-- Node6 -->
<g id="node11" class="node"><title>Node6</title>
<a xlink:href="../../dd/ddc/chunked__read__only__memory_8hh.html" target="_top" xlink:title="harpoon/memory/chunked\l_read_only_memory.hh">
<polygon fill="white" stroke="black" points="161.5,-1 161.5,-35 290.5,-35 290.5,-1 161.5,-1"/>
<text text-anchor="start" x="169.5" y="-22" font-family="Helvetica,sans-Serif" font-size="10.00">harpoon/memory/chunked</text>
<text text-anchor="middle" x="226" y="-9" font-family="Helvetica,sans-Serif" font-size="10.00">_read_only_memory.hh</text>
</a>
</g>
<!-- Node4&#45;&gt;Node6 -->
<g id="edge10" class="edge"><title>Node4&#45;&gt;Node6</title>
<path fill="none" stroke="midnightblue" d="M230.348,-62.7193C229.458,-53.572 228.491,-43.6255 227.696,-35.4407"/>
<polygon fill="midnightblue" stroke="midnightblue" points="226.89,-63.3226 231.341,-72.937 233.857,-62.6452 226.89,-63.3226"/>
</g>
<!-- Node8 -->
<g id="node15" class="node"><title>Node8</title>
<a xlink:href="../../d0/d9e/linear__random__access__memory_8hh.html" target="_top" xlink:title="harpoon/memory/linear\l_random_access_memory.hh">
<polygon fill="white" stroke="black" points="307.5,-1 307.5,-35 452.5,-35 452.5,-1 307.5,-1"/>
<text text-anchor="start" x="315.5" y="-22" font-family="Helvetica,sans-Serif" font-size="10.00">harpoon/memory/linear</text>
<text text-anchor="middle" x="380" y="-9" font-family="Helvetica,sans-Serif" font-size="10.00">_random_access_memory.hh</text>
</a>
</g>
<!-- Node7&#45;&gt;Node8 -->
<g id="edge14" class="edge"><title>Node7&#45;&gt;Node8</title>
<path fill="none" stroke="midnightblue" d="M380,-62.7193C380,-53.572 380,-43.6255 380,-35.4407"/>
<polygon fill="midnightblue" stroke="midnightblue" points="376.5,-62.937 380,-72.937 383.5,-62.937 376.5,-62.937"/>
</g>
<!-- Node9 -->
<g id="node17" class="node"><title>Node9</title>
<a xlink:href="../../dd/db0/linear__read__only__memory_8hh.html" target="_top" xlink:title="harpoon/memory/linear\l_read_only_memory.hh">
<polygon fill="white" stroke="black" points="470,-1 470,-35 588,-35 588,-1 470,-1"/>
<text text-anchor="start" x="478" y="-22" font-family="Helvetica,sans-Serif" font-size="10.00">harpoon/memory/linear</text>
<text text-anchor="middle" x="529" y="-9" font-family="Helvetica,sans-Serif" font-size="10.00">_read_only_memory.hh</text>
</a>
</g>
<!-- Node7&#45;&gt;Node9 -->
<g id="edge16" class="edge"><title>Node7&#45;&gt;Node9</title>
<path fill="none" stroke="midnightblue" d="M424.502,-68.4954C446.622,-57.8069 472.976,-45.0718 493.685,-35.0651"/>
<polygon fill="midnightblue" stroke="midnightblue" points="422.792,-65.4347 415.311,-72.937 425.838,-71.7374 422.792,-65.4347"/>
</g>
<!-- Node12 -->
<g id="node23" class="node"><title>Node12</title>
<a xlink:href="../../de/d7d/binary__file_8hh.html" target="_top" xlink:title="harpoon/memory/serializer\l/binary_file.hh">
<polygon fill="white" stroke="black" points="605.5,-1 605.5,-35 736.5,-35 736.5,-1 605.5,-1"/>
<text text-anchor="start" x="613.5" y="-22" font-family="Helvetica,sans-Serif" font-size="10.00">harpoon/memory/serializer</text>
<text text-anchor="middle" x="671" y="-9" font-family="Helvetica,sans-Serif" font-size="10.00">/binary_file.hh</text>
</a>
</g>
<!-- Node11&#45;&gt;Node12 -->
<g id="edge22" class="edge"><title>Node11&#45;&gt;Node12</title>
<path fill="none" stroke="midnightblue" d="M658.495,-63.0173C661.059,-53.7884 663.857,-43.7144 666.155,-35.4407"/>
<polygon fill="midnightblue" stroke="midnightblue" points="655.044,-62.365 655.74,-72.937 661.789,-64.2386 655.044,-62.365"/>
</g>
</g>
</svg>
