<?xml version="1.0" encoding="UTF-8" standalone="no"?>
<!DOCTYPE svg PUBLIC "-//W3C//DTD SVG 1.1//EN"
 "http://www.w3.org/Graphics/SVG/1.1/DTD/svg11.dtd">
<!-- Generated by graphviz version 2.26.3 (20100126.1600)
 -->
<!-- Title: harpoon/clock/tick.hh Pages: 1 -->
<svg width="579pt" height="390pt"
 viewBox="0.00 0.00 579.00 390.00" xmlns="http://www.w3.org/2000/svg" xmlns:xlink="http://www.w3.org/1999/xlink">
<g id="graph1" class="graph" transform="scale(1 1) rotate(0) translate(4 386)">
<title>harpoon/clock/tick.hh</title>
<polygon fill="white" stroke="white" points="-4,5 -4,-386 576,-386 576,5 -4,5"/>
<!-- Node1 -->
<g id="node1" class="node"><title>Node1</title>
<polygon fill="#bfbfbf" stroke="black" points="250,-360.5 250,-381.5 360,-381.5 360,-360.5 250,-360.5"/>
<text text-anchor="middle" x="305" y="-368.5" font-family="Helvetica,sans-Serif" font-size="10.00">harpoon/clock/tick.hh</text>
</g>
<!-- Node2 -->
<g id="node3" class="node"><title>Node2</title>
<a xlink:href="../../d7/d55/clock_8hh.html" target="_top" xlink:title="harpoon/clock/clock.hh">
<polygon fill="white" stroke="black" points="178.5,-223.5 178.5,-244.5 295.5,-244.5 295.5,-223.5 178.5,-223.5"/>
<text text-anchor="middle" x="237" y="-231.5" font-family="Helvetica,sans-Serif" font-size="10.00">harpoon/clock/clock.hh</text>
</a>
</g>
<!-- Node1&#45;&gt;Node2 -->
<g id="edge2" class="edge"><title>Node1&#45;&gt;Node2</title>
<path fill="none" stroke="midnightblue" d="M295.045,-350.944C280.426,-321.491 253.66,-267.564 242.311,-244.7"/>
<polygon fill="midnightblue" stroke="midnightblue" points="292.083,-352.849 299.664,-360.25 298.353,-349.736 292.083,-352.849"/>
</g>
<!-- Node7 -->
<g id="node14" class="node"><title>Node7</title>
<a xlink:href="../../d8/d45/generator_8hh.html" target="_top" xlink:title="harpoon/clock/generator\l/generator.hh">
<polygon fill="white" stroke="black" points="300.5,-289 300.5,-323 421.5,-323 421.5,-289 300.5,-289"/>
<text text-anchor="start" x="308.5" y="-310" font-family="Helvetica,sans-Serif" font-size="10.00">harpoon/clock/generator</text>
<text text-anchor="middle" x="361" y="-297" font-family="Helvetica,sans-Serif" font-size="10.00">/generator.hh</text>
</a>
</g>
<!-- Node1&#45;&gt;Node7 -->
<g id="edge14" class="edge"><title>Node1&#45;&gt;Node7</title>
<path fill="none" stroke="midnightblue" d="M321.003,-352.425C328.952,-343.199 338.491,-332.127 346.259,-323.11"/>
<polygon fill="midnightblue" stroke="midnightblue" points="318.123,-350.406 314.247,-360.267 323.426,-354.975 318.123,-350.406"/>
</g>
<!-- Node3 -->
<g id="node5" class="node"><title>Node3</title>
<a xlink:href="../../d9/d3e/execution__unit_8hh.html" target="_top" xlink:title="harpoon/execution/execution\l_unit.hh">
<polygon fill="white" stroke="black" points="166.5,-145 166.5,-179 307.5,-179 307.5,-145 166.5,-145"/>
<text text-anchor="start" x="174.5" y="-166" font-family="Helvetica,sans-Serif" font-size="10.00">harpoon/execution/execution</text>
<text text-anchor="middle" x="237" y="-153" font-family="Helvetica,sans-Serif" font-size="10.00">_unit.hh</text>
</a>
</g>
<!-- Node2&#45;&gt;Node3 -->
<g id="edge4" class="edge"><title>Node2&#45;&gt;Node3</title>
<path fill="none" stroke="midnightblue" d="M237,-213.132C237,-202.326 237,-189.296 237,-179.094"/>
<polygon fill="midnightblue" stroke="midnightblue" points="233.5,-213.376 237,-223.376 240.5,-213.376 233.5,-213.376"/>
</g>
<!-- Node4 -->
<g id="node7" class="node"><title>Node4</title>
<a xlink:href="../../d5/d22/computer__system_8hh.html" target="_top" xlink:title="harpoon/computer_system.hh">
<polygon fill="white" stroke="black" points="0,-79.5 0,-100.5 146,-100.5 146,-79.5 0,-79.5"/>
<text text-anchor="middle" x="73" y="-87.5" font-family="Helvetica,sans-Serif" font-size="10.00">harpoon/computer_system.hh</text>
</a>
</g>
<!-- Node3&#45;&gt;Node4 -->
<g id="edge6" class="edge"><title>Node3&#45;&gt;Node4</title>
<path fill="none" stroke="midnightblue" d="M188.668,-140.781C158.644,-127.6 121.333,-111.219 97.345,-100.688"/>
<polygon fill="midnightblue" stroke="midnightblue" points="187.571,-144.122 198.134,-144.937 190.385,-137.712 187.571,-144.122"/>
</g>
<!-- Node5 -->
<g id="node9" class="node"><title>Node5</title>
<a xlink:href="../../dd/dba/processing__unit_8hh.html" target="_top" xlink:title="harpoon/execution/processing\l_unit.hh">
<polygon fill="white" stroke="black" points="164,-73 164,-107 310,-107 310,-73 164,-73"/>
<text text-anchor="start" x="172" y="-94" font-family="Helvetica,sans-Serif" font-size="10.00">harpoon/execution/processing</text>
<text text-anchor="middle" x="237" y="-81" font-family="Helvetica,sans-Serif" font-size="10.00">_unit.hh</text>
</a>
</g>
<!-- Node3&#45;&gt;Node5 -->
<g id="edge8" class="edge"><title>Node3&#45;&gt;Node5</title>
<path fill="none" stroke="midnightblue" d="M237,-134.719C237,-125.572 237,-115.625 237,-107.441"/>
<polygon fill="midnightblue" stroke="midnightblue" points="233.5,-134.937 237,-144.937 240.5,-134.937 233.5,-134.937"/>
</g>
<!-- Node6 -->
<g id="node11" class="node"><title>Node6</title>
<a xlink:href="../../d9/d67/up__execution__unit_8hh.html" target="_top" xlink:title="harpoon/execution/up\l_execution_unit.hh">
<polygon fill="white" stroke="black" points="232,-1 232,-35 342,-35 342,-1 232,-1"/>
<text text-anchor="start" x="240" y="-22" font-family="Helvetica,sans-Serif" font-size="10.00">harpoon/execution/up</text>
<text text-anchor="middle" x="287" y="-9" font-family="Helvetica,sans-Serif" font-size="10.00">_execution_unit.hh</text>
</a>
</g>
<!-- Node3&#45;&gt;Node6 -->
<g id="edge12" class="edge"><title>Node3&#45;&gt;Node6</title>
<path fill="none" stroke="midnightblue" d="M287.507,-139.748C300.039,-131.653 311.905,-121.168 319,-108 331.901,-84.0578 315.139,-53.8555 301.426,-35.2398"/>
<polygon fill="midnightblue" stroke="midnightblue" points="285.559,-136.835 278.775,-144.973 289.153,-142.841 285.559,-136.835"/>
</g>
<!-- Node5&#45;&gt;Node6 -->
<g id="edge10" class="edge"><title>Node5&#45;&gt;Node6</title>
<path fill="none" stroke="midnightblue" d="M254.71,-64.4981C261.391,-54.8768 268.834,-44.1593 274.888,-35.4407"/>
<polygon fill="midnightblue" stroke="midnightblue" points="251.679,-62.7269 248.849,-72.937 257.428,-66.7197 251.679,-62.7269"/>
</g>
<!-- Node7&#45;&gt;Node2 -->
<g id="edge16" class="edge"><title>Node7&#45;&gt;Node2</title>
<path fill="none" stroke="midnightblue" d="M322.677,-283.748C300.297,-270.753 273.073,-254.946 255.407,-244.688"/>
<polygon fill="midnightblue" stroke="midnightblue" points="321.208,-286.942 331.614,-288.937 324.723,-280.889 321.208,-286.942"/>
</g>
<!-- Node8 -->
<g id="node17" class="node"><title>Node8</title>
<a xlink:href="../../d9/d94/dummy__generator_8hh.html" target="_top" xlink:title="harpoon/clock/generator\l/dummy_generator.hh">
<polygon fill="white" stroke="black" points="312.5,-217 312.5,-251 433.5,-251 433.5,-217 312.5,-217"/>
<text text-anchor="start" x="320.5" y="-238" font-family="Helvetica,sans-Serif" font-size="10.00">harpoon/clock/generator</text>
<text text-anchor="middle" x="373" y="-225" font-family="Helvetica,sans-Serif" font-size="10.00">/dummy_generator.hh</text>
</a>
</g>
<!-- Node7&#45;&gt;Node8 -->
<g id="edge18" class="edge"><title>Node7&#45;&gt;Node8</title>
<path fill="none" stroke="midnightblue" d="M365.497,-279.017C367.035,-269.788 368.714,-259.714 370.093,-251.441"/>
<polygon fill="midnightblue" stroke="midnightblue" points="362.036,-278.498 363.844,-288.937 368.94,-279.648 362.036,-278.498"/>
</g>
<!-- Node9 -->
<g id="node19" class="node"><title>Node9</title>
<a xlink:href="../../df/d47/threaded__generator_8hh.html" target="_top" xlink:title="harpoon/clock/generator\l/threaded_generator.hh">
<polygon fill="white" stroke="black" points="450.5,-217 450.5,-251 571.5,-251 571.5,-217 450.5,-217"/>
<text text-anchor="start" x="458.5" y="-238" font-family="Helvetica,sans-Serif" font-size="10.00">harpoon/clock/generator</text>
<text text-anchor="middle" x="511" y="-225" font-family="Helvetica,sans-Serif" font-size="10.00">/threaded_generator.hh</text>
</a>
</g>
<!-- Node7&#45;&gt;Node9 -->
<g id="edge20" class="edge"><title>Node7&#45;&gt;Node9</title>
<path fill="none" stroke="midnightblue" d="M405.801,-284.495C428.069,-273.807 454.6,-261.072 475.448,-251.065"/>
<polygon fill="midnightblue" stroke="midnightblue" points="404.049,-281.454 396.548,-288.937 407.078,-287.765 404.049,-281.454"/>
</g>
</g>
</svg>
