<?xml version="1.0" encoding="UTF-8" standalone="no"?>
<!DOCTYPE svg PUBLIC "-//W3C//DTD SVG 1.1//EN"
 "http://www.w3.org/Graphics/SVG/1.1/DTD/svg11.dtd">
<!-- Generated by graphviz version 2.26.3 (20100126.1600)
 -->
<!-- Title: harpoon::clock::clock Pages: 1 -->
<svg width="158pt" height="532pt"
 viewBox="0.00 0.00 158.00 532.00" xmlns="http://www.w3.org/2000/svg" xmlns:xlink="http://www.w3.org/1999/xlink">
<g id="graph1" class="graph" transform="scale(1 1) rotate(0) translate(4 528)">
<title>harpoon::clock::clock</title>
<polygon fill="white" stroke="white" points="-4,5 -4,-528 155,-528 155,5 -4,5"/>
<!-- Node1 -->
<g id="node1" class="node"><title>Node1</title>
<polygon fill="#bfbfbf" stroke="black" points="20,-0.5 20,-167.5 130,-167.5 130,-0.5 20,-0.5"/>
<text text-anchor="middle" x="75" y="-154.5" font-family="Helvetica,sans-Serif" font-size="10.00">harpoon::clock::clock</text>
<polyline fill="none" stroke="black" points="20,-146.5 130,-146.5 "/>
<text text-anchor="middle" x="75" y="-133.5" font-family="Helvetica,sans-Serif" font-size="10.00"> </text>
<polyline fill="none" stroke="black" points="20,-125.5 130,-125.5 "/>
<text text-anchor="start" x="28" y="-112.5" font-family="Helvetica,sans-Serif" font-size="10.00">+ clock()</text>
<text text-anchor="start" x="28" y="-99.5" font-family="Helvetica,sans-Serif" font-size="10.00">+ set_generator()</text>
<text text-anchor="start" x="28" y="-86.5" font-family="Helvetica,sans-Serif" font-size="10.00">+ get_tick()</text>
<text text-anchor="start" x="28" y="-73.5" font-family="Helvetica,sans-Serif" font-size="10.00">+ wait_for_tick()</text>
<text text-anchor="start" x="28" y="-60.5" font-family="Helvetica,sans-Serif" font-size="10.00">+ wait_tick()</text>
<text text-anchor="start" x="28" y="-47.5" font-family="Helvetica,sans-Serif" font-size="10.00">+ is_running()</text>
<text text-anchor="start" x="28" y="-34.5" font-family="Helvetica,sans-Serif" font-size="10.00">+ boot()</text>
<text text-anchor="start" x="28" y="-21.5" font-family="Helvetica,sans-Serif" font-size="10.00">+ shutdown()</text>
<text text-anchor="start" x="28" y="-8.5" font-family="Helvetica,sans-Serif" font-size="10.00">+ ~clock()</text>
</g>
<!-- Node2 -->
<g id="node2" class="node"><title>Node2</title>
<a xlink:href="../../df/d54/classharpoon_1_1hardware__component.html" target="_top" xlink:title="Base class for all hardware components of computer system (i.e. CPU, memory). All components should d...">
<polygon fill="white" stroke="black" points="0,-204.5 0,-397.5 150,-397.5 150,-204.5 0,-204.5"/>
<text text-anchor="middle" x="75" y="-384.5" font-family="Helvetica,sans-Serif" font-size="10.00">harpoon::hardware_component</text>
<polyline fill="none" stroke="black" points="0,-376.5 150,-376.5 "/>
<text text-anchor="middle" x="75" y="-363.5" font-family="Helvetica,sans-Serif" font-size="10.00"> </text>
<polyline fill="none" stroke="black" points="0,-355.5 150,-355.5 "/>
<text text-anchor="start" x="8" y="-342.5" font-family="Helvetica,sans-Serif" font-size="10.00">+ hardware_component()</text>
<text text-anchor="start" x="8" y="-329.5" font-family="Helvetica,sans-Serif" font-size="10.00">+ hardware_component()</text>
<text text-anchor="start" x="8" y="-316.5" font-family="Helvetica,sans-Serif" font-size="10.00">+ operator=()</text>
<text text-anchor="start" x="8" y="-303.5" font-family="Helvetica,sans-Serif" font-size="10.00">+ ~hardware_component()</text>
<text text-anchor="start" x="8" y="-290.5" font-family="Helvetica,sans-Serif" font-size="10.00">+ add_component()</text>
<text text-anchor="start" x="8" y="-277.5" font-family="Helvetica,sans-Serif" font-size="10.00">+ remove_component()</text>
<text text-anchor="start" x="8" y="-264.5" font-family="Helvetica,sans-Serif" font-size="10.00">+ replace_component()</text>
<text text-anchor="start" x="8" y="-251.5" font-family="Helvetica,sans-Serif" font-size="10.00">+ prepare()</text>
<text text-anchor="start" x="8" y="-238.5" font-family="Helvetica,sans-Serif" font-size="10.00">+ cleanup()</text>
<text text-anchor="start" x="8" y="-225.5" font-family="Helvetica,sans-Serif" font-size="10.00">+ boot()</text>
<text text-anchor="start" x="8" y="-212.5" font-family="Helvetica,sans-Serif" font-size="10.00">and 8 more...</text>
</a>
</g>
<!-- Node2&#45;&gt;Node1 -->
<g id="edge2" class="edge"><title>Node2&#45;&gt;Node1</title>
<path fill="none" stroke="midnightblue" d="M75,-194.196C75,-185.281 75,-176.352 75,-167.648"/>
<polygon fill="none" stroke="midnightblue" points="71.5001,-194.241 75,-204.241 78.5001,-194.241 71.5001,-194.241"/>
</g>
<!-- Node3 -->
<g id="node4" class="node"><title>Node3</title>
<polygon fill="white" stroke="#bfbfbf" points="19.5,-434.5 19.5,-523.5 130.5,-523.5 130.5,-434.5 19.5,-434.5"/>
<text text-anchor="start" x="27.5" y="-510.5" font-family="Helvetica,sans-Serif" font-size="10.00">std::enable_shared</text>
<text text-anchor="start" x="27.5" y="-497.5" font-family="Helvetica,sans-Serif" font-size="10.00">_from_this&lt; hardware</text>
<text text-anchor="middle" x="75" y="-484.5" font-family="Helvetica,sans-Serif" font-size="10.00">_component &gt;</text>
<polyline fill="none" stroke="#bfbfbf" points="19.5,-476.5 130.5,-476.5 "/>
<text text-anchor="middle" x="75" y="-463.5" font-family="Helvetica,sans-Serif" font-size="10.00"> </text>
<polyline fill="none" stroke="#bfbfbf" points="19.5,-455.5 130.5,-455.5 "/>
<text text-anchor="middle" x="75" y="-442.5" font-family="Helvetica,sans-Serif" font-size="10.00"> </text>
</g>
<!-- Node3&#45;&gt;Node2 -->
<g id="edge4" class="edge"><title>Node3&#45;&gt;Node2</title>
<path fill="none" stroke="midnightblue" d="M75,-424.059C75,-415.626 75,-406.712 75,-397.692"/>
<polygon fill="none" stroke="midnightblue" points="71.5001,-424.083 75,-434.083 78.5001,-424.083 71.5001,-424.083"/>
</g>
</g>
</svg>
