<?xml version="1.0" encoding="UTF-8" standalone="no"?>
<!DOCTYPE svg PUBLIC "-//W3C//DTD SVG 1.1//EN"
 "http://www.w3.org/Graphics/SVG/1.1/DTD/svg11.dtd">
<!-- Generated by graphviz version 2.26.3 (20100126.1600)
 -->
<!-- Title: harpoon/memory/random_access_memory.hh Pages: 1 -->
<svg width="314pt" height="116pt"
 viewBox="0.00 0.00 314.00 116.00" xmlns="http://www.w3.org/2000/svg" xmlns:xlink="http://www.w3.org/1999/xlink">
<g id="graph1" class="graph" transform="scale(1 1) rotate(0) translate(4 112)">
<title>harpoon/memory/random_access_memory.hh</title>
<polygon fill="white" stroke="white" points="-4,5 -4,-112 311,-112 311,5 -4,5"/>
<!-- Node1 -->
<g id="node1" class="node"><title>Node1</title>
<polygon fill="#bfbfbf" stroke="black" points="90.5,-73 90.5,-107 215.5,-107 215.5,-73 90.5,-73"/>
<text text-anchor="start" x="98.5" y="-94" font-family="Helvetica,sans-Serif" font-size="10.00">harpoon/memory/random</text>
<text text-anchor="middle" x="153" y="-81" font-family="Helvetica,sans-Serif" font-size="10.00">_access_memory.hh</text>
</g>
<!-- Node2 -->
<g id="node3" class="node"><title>Node2</title>
<a xlink:href="../../d4/d48/chunked__random__access__memory_8hh.html" target="_top" xlink:title="harpoon/memory/chunked\l_random_access_memory.hh">
<polygon fill="white" stroke="black" points="-0.5,-1 -0.5,-35 144.5,-35 144.5,-1 -0.5,-1"/>
<text text-anchor="start" x="7.5" y="-22" font-family="Helvetica,sans-Serif" font-size="10.00">harpoon/memory/chunked</text>
<text text-anchor="middle" x="72" y="-9" font-family="Helvetica,sans-Serif" font-size="10.00">_random_access_memory.hh</text>
</a>
</g>
<!-- Node1&#45;&gt;Node2 -->
<g id="edge2" class="edge"><title>Node1&#45;&gt;Node2</title>
<path fill="none" stroke="midnightblue" d="M126.226,-66.2011C114.825,-56.0666 101.778,-44.4691 91.3388,-35.19"/>
<polygon fill="midnightblue" stroke="midnightblue" points="124.005,-68.9093 133.804,-72.937 128.655,-63.6774 124.005,-68.9093"/>
</g>
<!-- Node3 -->
<g id="node5" class="node"><title>Node3</title>
<a xlink:href="../../d0/d9e/linear__random__access__memory_8hh.html" target="_top" xlink:title="harpoon/memory/linear\l_random_access_memory.hh">
<polygon fill="white" stroke="black" points="161.5,-1 161.5,-35 306.5,-35 306.5,-1 161.5,-1"/>
<text text-anchor="start" x="169.5" y="-22" font-family="Helvetica,sans-Serif" font-size="10.00">harpoon/memory/linear</text>
<text text-anchor="middle" x="234" y="-9" font-family="Helvetica,sans-Serif" font-size="10.00">_random_access_memory.hh</text>
</a>
</g>
<!-- Node1&#45;&gt;Node3 -->
<g id="edge4" class="edge"><title>Node1&#45;&gt;Node3</title>
<path fill="none" stroke="midnightblue" d="M179.774,-66.2011C191.175,-56.0666 204.222,-44.4691 214.661,-35.19"/>
<polygon fill="midnightblue" stroke="midnightblue" points="177.345,-63.6774 172.196,-72.937 181.995,-68.9093 177.345,-63.6774"/>
</g>
</g>
</svg>
