<?xml version="1.0" encoding="UTF-8" standalone="no"?>
<!DOCTYPE svg PUBLIC "-//W3C//DTD SVG 1.1//EN"
 "http://www.w3.org/Graphics/SVG/1.1/DTD/svg11.dtd">
<!-- Generated by graphviz version 2.26.3 (20100126.1600)
 -->
<!-- Title: harpoon/execution/breakpoint.hh Pages: 1 -->
<svg width="166pt" height="174pt"
 viewBox="0.00 0.00 166.00 174.00" xmlns="http://www.w3.org/2000/svg" xmlns:xlink="http://www.w3.org/1999/xlink">
<g id="graph1" class="graph" transform="scale(1 1) rotate(0) translate(4 170)">
<title>harpoon/execution/breakpoint.hh</title>
<polygon fill="white" stroke="white" points="-4,5 -4,-170 163,-170 163,5 -4,5"/>
<!-- Node1 -->
<g id="node1" class="node"><title>Node1</title>
<polygon fill="#bfbfbf" stroke="black" points="0,-144.5 0,-165.5 158,-165.5 158,-144.5 0,-144.5"/>
<text text-anchor="middle" x="79" y="-152.5" font-family="Helvetica,sans-Serif" font-size="10.00">harpoon/execution/breakpoint.hh</text>
</g>
<!-- Node2 -->
<g id="node3" class="node"><title>Node2</title>
<a xlink:href="../../dd/dba/processing__unit_8hh.html" target="_top" xlink:title="harpoon/execution/processing\l_unit.hh">
<polygon fill="white" stroke="black" points="6,-73 6,-107 152,-107 152,-73 6,-73"/>
<text text-anchor="start" x="14" y="-94" font-family="Helvetica,sans-Serif" font-size="10.00">harpoon/execution/processing</text>
<text text-anchor="middle" x="79" y="-81" font-family="Helvetica,sans-Serif" font-size="10.00">_unit.hh</text>
</a>
</g>
<!-- Node1&#45;&gt;Node2 -->
<g id="edge2" class="edge"><title>Node1&#45;&gt;Node2</title>
<path fill="none" stroke="midnightblue" d="M79,-134.131C79,-125.405 79,-115.391 79,-107.11"/>
<polygon fill="midnightblue" stroke="midnightblue" points="75.5001,-134.267 79,-144.267 82.5001,-134.267 75.5001,-134.267"/>
</g>
<!-- Node3 -->
<g id="node5" class="node"><title>Node3</title>
<a xlink:href="../../d9/d67/up__execution__unit_8hh.html" target="_top" xlink:title="harpoon/execution/up\l_execution_unit.hh">
<polygon fill="white" stroke="black" points="24,-1 24,-35 134,-35 134,-1 24,-1"/>
<text text-anchor="start" x="32" y="-22" font-family="Helvetica,sans-Serif" font-size="10.00">harpoon/execution/up</text>
<text text-anchor="middle" x="79" y="-9" font-family="Helvetica,sans-Serif" font-size="10.00">_execution_unit.hh</text>
</a>
</g>
<!-- Node2&#45;&gt;Node3 -->
<g id="edge4" class="edge"><title>Node2&#45;&gt;Node3</title>
<path fill="none" stroke="midnightblue" d="M79,-62.7193C79,-53.572 79,-43.6255 79,-35.4407"/>
<polygon fill="midnightblue" stroke="midnightblue" points="75.5001,-62.937 79,-72.937 82.5001,-62.937 75.5001,-62.937"/>
</g>
</g>
</svg>
