<?xml version="1.0" encoding="UTF-8" standalone="no"?>
<!DOCTYPE svg PUBLIC "-//W3C//DTD SVG 1.1//EN"
 "http://www.w3.org/Graphics/SVG/1.1/DTD/svg11.dtd">
<!-- Generated by graphviz version 2.26.3 (20100126.1600)
 -->
<!-- Title: harpoon::exception::harpoon_exception Pages: 1 -->
<svg width="126pt" height="264pt"
 viewBox="0.00 0.00 126.00 264.00" xmlns="http://www.w3.org/2000/svg" xmlns:xlink="http://www.w3.org/1999/xlink">
<g id="graph1" class="graph" transform="scale(1 1) rotate(0) translate(4 260)">
<title>harpoon::exception::harpoon_exception</title>
<polygon fill="white" stroke="white" points="-4,5 -4,-260 123,-260 123,5 -4,5"/>
<!-- Node1 -->
<g id="node1" class="node"><title>Node1</title>
<polygon fill="#bfbfbf" stroke="black" points="-0.5,-1 -0.5,-155 118.5,-155 118.5,-1 -0.5,-1"/>
<text text-anchor="start" x="7.5" y="-142" font-family="Helvetica,sans-Serif" font-size="10.00">harpoon::exception</text>
<text text-anchor="middle" x="59" y="-129" font-family="Helvetica,sans-Serif" font-size="10.00">::harpoon_exception</text>
<polyline fill="none" stroke="black" points="-0.5,-121 118.5,-121 "/>
<text text-anchor="middle" x="59" y="-108" font-family="Helvetica,sans-Serif" font-size="10.00"> </text>
<polyline fill="none" stroke="black" points="-0.5,-100 118.5,-100 "/>
<text text-anchor="start" x="7.5" y="-87" font-family="Helvetica,sans-Serif" font-size="10.00">+ harpoon_exception()</text>
<text text-anchor="start" x="7.5" y="-74" font-family="Helvetica,sans-Serif" font-size="10.00">+ harpoon_exception()</text>
<text text-anchor="start" x="7.5" y="-61" font-family="Helvetica,sans-Serif" font-size="10.00">+ operator=()</text>
<text text-anchor="start" x="7.5" y="-48" font-family="Helvetica,sans-Serif" font-size="10.00">+ set_what()</text>
<text text-anchor="start" x="7.5" y="-35" font-family="Helvetica,sans-Serif" font-size="10.00">+ get_what()</text>
<text text-anchor="start" x="7.5" y="-22" font-family="Helvetica,sans-Serif" font-size="10.00">+ what()</text>
<text text-anchor="start" x="7.5" y="-9" font-family="Helvetica,sans-Serif" font-size="10.00">+ ~harpoon_exception()</text>
</g>
<!-- Node2 -->
<g id="node2" class="node"><title>Node2</title>
<polygon fill="white" stroke="#bfbfbf" points="12.5,-192.5 12.5,-255.5 105.5,-255.5 105.5,-192.5 12.5,-192.5"/>
<text text-anchor="middle" x="59" y="-242.5" font-family="Helvetica,sans-Serif" font-size="10.00">std::runtime_error</text>
<polyline fill="none" stroke="#bfbfbf" points="12.5,-234.5 105.5,-234.5 "/>
<text text-anchor="middle" x="59" y="-221.5" font-family="Helvetica,sans-Serif" font-size="10.00"> </text>
<polyline fill="none" stroke="#bfbfbf" points="12.5,-213.5 105.5,-213.5 "/>
<text text-anchor="middle" x="59" y="-200.5" font-family="Helvetica,sans-Serif" font-size="10.00"> </text>
</g>
<!-- Node2&#45;&gt;Node1 -->
<g id="edge2" class="edge"><title>Node2&#45;&gt;Node1</title>
<path fill="none" stroke="midnightblue" d="M59,-182.288C59,-173.742 59,-164.491 59,-155.148"/>
<polygon fill="none" stroke="midnightblue" points="55.5001,-182.32 59,-192.32 62.5001,-182.32 55.5001,-182.32"/>
</g>
</g>
</svg>
