<?xml version="1.0" encoding="UTF-8" standalone="no"?>
<!DOCTYPE svg PUBLIC "-//W3C//DTD SVG 1.1//EN"
 "http://www.w3.org/Graphics/SVG/1.1/DTD/svg11.dtd">
<!-- Generated by graphviz version 2.26.3 (20100126.1600)
 -->
<!-- Title: harpoon/clock/tick.hh Pages: 1 -->
<svg width="207pt" height="146pt"
 viewBox="0.00 0.00 207.00 146.00" xmlns="http://www.w3.org/2000/svg" xmlns:xlink="http://www.w3.org/1999/xlink">
<g id="graph1" class="graph" transform="scale(1 1) rotate(0) translate(4 142)">
<title>harpoon/clock/tick.hh</title>
<polygon fill="white" stroke="white" points="-4,5 -4,-142 204,-142 204,5 -4,5"/>
<!-- Node1 -->
<g id="node1" class="node"><title>Node1</title>
<polygon fill="#bfbfbf" stroke="black" points="75,-116.5 75,-137.5 185,-137.5 185,-116.5 75,-116.5"/>
<text text-anchor="middle" x="130" y="-124.5" font-family="Helvetica,sans-Serif" font-size="10.00">harpoon/clock/tick.hh</text>
</g>
<!-- Node2 -->
<g id="node3" class="node"><title>Node2</title>
<a xlink:href="../../d5/d08/harpoon_8hh.html" target="_top" xlink:title="Harpoon library common header file. ">
<polygon fill="white" stroke="black" points="33,-58.5 33,-79.5 135,-79.5 135,-58.5 33,-58.5"/>
<text text-anchor="middle" x="84" y="-66.5" font-family="Helvetica,sans-Serif" font-size="10.00">harpoon/harpoon.hh</text>
</a>
</g>
<!-- Node1&#45;&gt;Node2 -->
<g id="edge2" class="edge"><title>Node1&#45;&gt;Node2</title>
<path fill="none" stroke="midnightblue" d="M121.563,-116.362C115.208,-108.35 106.334,-97.1605 98.8069,-87.6696"/>
<polygon fill="midnightblue" stroke="midnightblue" points="101.34,-85.2308 92.3836,-79.5707 95.8554,-89.5805 101.34,-85.2308"/>
</g>
<!-- Node6 -->
<g id="node11" class="node"><title>Node6</title>
<polygon fill="white" stroke="#bfbfbf" points="153,-58.5 153,-79.5 199,-79.5 199,-58.5 153,-58.5"/>
<text text-anchor="middle" x="176" y="-66.5" font-family="Helvetica,sans-Serif" font-size="10.00">atomic</text>
</g>
<!-- Node1&#45;&gt;Node6 -->
<g id="edge10" class="edge"><title>Node1&#45;&gt;Node6</title>
<path fill="none" stroke="midnightblue" d="M138.437,-116.362C144.792,-108.35 153.666,-97.1605 161.193,-87.6696"/>
<polygon fill="midnightblue" stroke="midnightblue" points="164.145,-89.5805 167.616,-79.5707 158.66,-85.2308 164.145,-89.5805"/>
</g>
<!-- Node3 -->
<g id="node5" class="node"><title>Node3</title>
<polygon fill="white" stroke="#bfbfbf" points="-0.5,-0.5 -0.5,-21.5 40.5,-21.5 40.5,-0.5 -0.5,-0.5"/>
<text text-anchor="middle" x="20" y="-8.5" font-family="Helvetica,sans-Serif" font-size="10.00">string</text>
</g>
<!-- Node2&#45;&gt;Node3 -->
<g id="edge4" class="edge"><title>Node2&#45;&gt;Node3</title>
<path fill="none" stroke="midnightblue" d="M72.2614,-58.3619C63.0594,-50.0226 50.0599,-38.2418 39.3283,-28.5162"/>
<polygon fill="midnightblue" stroke="midnightblue" points="41.4244,-25.6924 31.6642,-21.5707 36.7237,-30.8793 41.4244,-25.6924"/>
</g>
<!-- Node4 -->
<g id="node7" class="node"><title>Node4</title>
<polygon fill="white" stroke="#bfbfbf" points="58,-0.5 58,-21.5 110,-21.5 110,-0.5 58,-0.5"/>
<text text-anchor="middle" x="84" y="-8.5" font-family="Helvetica,sans-Serif" font-size="10.00">memory</text>
</g>
<!-- Node2&#45;&gt;Node4 -->
<g id="edge6" class="edge"><title>Node2&#45;&gt;Node4</title>
<path fill="none" stroke="midnightblue" d="M84,-58.3619C84,-50.9219 84,-40.7427 84,-31.7276"/>
<polygon fill="midnightblue" stroke="midnightblue" points="87.5001,-31.5706 84,-21.5707 80.5001,-31.5707 87.5001,-31.5706"/>
</g>
<!-- Node5 -->
<g id="node9" class="node"><title>Node5</title>
<polygon fill="white" stroke="#bfbfbf" points="128,-0.5 128,-21.5 168,-21.5 168,-0.5 128,-0.5"/>
<text text-anchor="middle" x="148" y="-8.5" font-family="Helvetica,sans-Serif" font-size="10.00">utility</text>
</g>
<!-- Node2&#45;&gt;Node5 -->
<g id="edge8" class="edge"><title>Node2&#45;&gt;Node5</title>
<path fill="none" stroke="midnightblue" d="M95.7386,-58.3619C104.941,-50.0226 117.94,-38.2418 128.672,-28.5162"/>
<polygon fill="midnightblue" stroke="midnightblue" points="131.276,-30.8793 136.336,-21.5707 126.576,-25.6924 131.276,-30.8793"/>
</g>
</g>
</svg>
