<?xml version="1.0" encoding="UTF-8" standalone="no"?>
<!DOCTYPE svg PUBLIC "-//W3C//DTD SVG 1.1//EN"
 "http://www.w3.org/Graphics/SVG/1.1/DTD/svg11.dtd">
<!-- Generated by graphviz version 2.26.3 (20100126.1600)
 -->
<!-- Title: harpoon/memory/memory.hh Pages: 1 -->
<svg width="744pt" height="174pt"
 viewBox="0.00 0.00 744.00 174.00" xmlns="http://www.w3.org/2000/svg" xmlns:xlink="http://www.w3.org/1999/xlink">
<g id="graph1" class="graph" transform="scale(1 1) rotate(0) translate(4 170)">
<title>harpoon/memory/memory.hh</title>
<polygon fill="white" stroke="white" points="-4,5 -4,-170 741,-170 741,5 -4,5"/>
<!-- Node1 -->
<g id="node1" class="node"><title>Node1</title>
<polygon fill="#bfbfbf" stroke="black" points="309.5,-144.5 309.5,-165.5 450.5,-165.5 450.5,-144.5 309.5,-144.5"/>
<text text-anchor="middle" x="380" y="-152.5" font-family="Helvetica,sans-Serif" font-size="10.00">harpoon/memory/memory.hh</text>
</g>
<!-- Node2 -->
<g id="node3" class="node"><title>Node2</title>
<a xlink:href="../../d5/d22/computer__system_8hh.html" target="_top" xlink:title="harpoon/computer_system.hh">
<polygon fill="white" stroke="black" points="5,-79.5 5,-100.5 151,-100.5 151,-79.5 5,-79.5"/>
<text text-anchor="middle" x="78" y="-87.5" font-family="Helvetica,sans-Serif" font-size="10.00">harpoon/computer_system.hh</text>
</a>
</g>
<!-- Node1&#45;&gt;Node2 -->
<g id="edge2" class="edge"><title>Node1&#45;&gt;Node2</title>
<path fill="none" stroke="midnightblue" d="M320.168,-142.312C275.915,-132.905 214.182,-119.734 160,-108 148.889,-105.594 136.936,-102.983 125.686,-100.515"/>
<polygon fill="midnightblue" stroke="midnightblue" points="319.67,-145.785 330.179,-144.44 321.125,-138.938 319.67,-145.785"/>
</g>
<!-- Node3 -->
<g id="node5" class="node"><title>Node3</title>
<a xlink:href="../../dc/d1d/chunked__memory_8hh.html" target="_top" xlink:title="harpoon/memory/chunked\l_memory.hh">
<polygon fill="white" stroke="black" points="168.5,-73 168.5,-107 297.5,-107 297.5,-73 168.5,-73"/>
<text text-anchor="start" x="176.5" y="-94" font-family="Helvetica,sans-Serif" font-size="10.00">harpoon/memory/chunked</text>
<text text-anchor="middle" x="233" y="-81" font-family="Helvetica,sans-Serif" font-size="10.00">_memory.hh</text>
</a>
</g>
<!-- Node1&#45;&gt;Node3 -->
<g id="edge4" class="edge"><title>Node1&#45;&gt;Node3</title>
<path fill="none" stroke="midnightblue" d="M346.66,-140.258C324.347,-130.392 294.909,-117.375 271.583,-107.06"/>
<polygon fill="midnightblue" stroke="midnightblue" points="345.493,-143.569 356.055,-144.412 348.324,-137.167 345.493,-143.569"/>
</g>
<!-- Node6 -->
<g id="node11" class="node"><title>Node6</title>
<a xlink:href="../../d1/d70/linear__memory_8hh.html" target="_top" xlink:title="harpoon/memory/linear\l_memory.hh">
<polygon fill="white" stroke="black" points="322,-73 322,-107 438,-107 438,-73 322,-73"/>
<text text-anchor="start" x="330" y="-94" font-family="Helvetica,sans-Serif" font-size="10.00">harpoon/memory/linear</text>
<text text-anchor="middle" x="380" y="-81" font-family="Helvetica,sans-Serif" font-size="10.00">_memory.hh</text>
</a>
</g>
<!-- Node1&#45;&gt;Node6 -->
<g id="edge10" class="edge"><title>Node1&#45;&gt;Node6</title>
<path fill="none" stroke="midnightblue" d="M380,-134.131C380,-125.405 380,-115.391 380,-107.11"/>
<polygon fill="midnightblue" stroke="midnightblue" points="376.5,-134.267 380,-144.267 383.5,-134.267 376.5,-134.267"/>
</g>
<!-- Node9 -->
<g id="node17" class="node"><title>Node9</title>
<a xlink:href="../../d4/d85/main__memory_8hh.html" target="_top" xlink:title="harpoon/memory/main\l_memory.hh">
<polygon fill="white" stroke="black" points="455.5,-73 455.5,-107 568.5,-107 568.5,-73 455.5,-73"/>
<text text-anchor="start" x="463.5" y="-94" font-family="Helvetica,sans-Serif" font-size="10.00">harpoon/memory/main</text>
<text text-anchor="middle" x="512" y="-81" font-family="Helvetica,sans-Serif" font-size="10.00">_memory.hh</text>
</a>
</g>
<!-- Node1&#45;&gt;Node9 -->
<g id="edge16" class="edge"><title>Node1&#45;&gt;Node9</title>
<path fill="none" stroke="midnightblue" d="M410.479,-139.992C430.448,-130.158 456.596,-117.282 477.354,-107.06"/>
<polygon fill="midnightblue" stroke="midnightblue" points="408.927,-136.854 401.502,-144.412 412.019,-143.134 408.927,-136.854"/>
</g>
<!-- Node10 -->
<g id="node19" class="node"><title>Node10</title>
<a xlink:href="../../d0/dcd/serializer_8hh.html" target="_top" xlink:title="harpoon/memory/serializer\l/serializer.hh">
<polygon fill="white" stroke="black" points="595.5,-73 595.5,-107 726.5,-107 726.5,-73 595.5,-73"/>
<text text-anchor="start" x="603.5" y="-94" font-family="Helvetica,sans-Serif" font-size="10.00">harpoon/memory/serializer</text>
<text text-anchor="middle" x="661" y="-81" font-family="Helvetica,sans-Serif" font-size="10.00">/serializer.hh</text>
</a>
</g>
<!-- Node1&#45;&gt;Node10 -->
<g id="edge18" class="edge"><title>Node1&#45;&gt;Node10</title>
<path fill="none" stroke="midnightblue" d="M435.25,-142.22C481.227,-131.584 546.788,-116.419 595.421,-105.17"/>
<polygon fill="midnightblue" stroke="midnightblue" points="434.414,-138.821 425.46,-144.484 435.991,-145.641 434.414,-138.821"/>
</g>
<!-- Node4 -->
<g id="node7" class="node"><title>Node4</title>
<a xlink:href="../../d4/d48/chunked__random__access__memory_8hh.html" target="_top" xlink:title="harpoon/memory/chunked\l_random_access_memory.hh">
<polygon fill="white" stroke="black" points="-0.5,-1 -0.5,-35 144.5,-35 144.5,-1 -0.5,-1"/>
<text text-anchor="start" x="7.5" y="-22" font-family="Helvetica,sans-Serif" font-size="10.00">harpoon/memory/chunked</text>
<text text-anchor="middle" x="72" y="-9" font-family="Helvetica,sans-Serif" font-size="10.00">_random_access_memory.hh</text>
</a>
</g>
<!-- Node3&#45;&gt;Node4 -->
<g id="edge6" class="edge"><title>Node3&#45;&gt;Node4</title>
<path fill="none" stroke="midnightblue" d="M185.553,-68.7812C161.522,-58.0346 132.735,-45.1612 110.16,-35.0651"/>
<polygon fill="midnightblue" stroke="midnightblue" points="184.288,-72.0496 194.845,-72.937 187.145,-65.6595 184.288,-72.0496"/>
</g>
<!-- Node5 -->
<g id="node9" class="node"><title>Node5</title>
<a xlink:href="../../dd/ddc/chunked__read__only__memory_8hh.html" target="_top" xlink:title="harpoon/memory/chunked\l_read_only_memory.hh">
<polygon fill="white" stroke="black" points="161.5,-1 161.5,-35 290.5,-35 290.5,-1 161.5,-1"/>
<text text-anchor="start" x="169.5" y="-22" font-family="Helvetica,sans-Serif" font-size="10.00">harpoon/memory/chunked</text>
<text text-anchor="middle" x="226" y="-9" font-family="Helvetica,sans-Serif" font-size="10.00">_read_only_memory.hh</text>
</a>
</g>
<!-- Node3&#45;&gt;Node5 -->
<g id="edge8" class="edge"><title>Node3&#45;&gt;Node5</title>
<path fill="none" stroke="midnightblue" d="M230.348,-62.7193C229.458,-53.572 228.491,-43.6255 227.696,-35.4407"/>
<polygon fill="midnightblue" stroke="midnightblue" points="226.89,-63.3226 231.341,-72.937 233.857,-62.6452 226.89,-63.3226"/>
</g>
<!-- Node7 -->
<g id="node13" class="node"><title>Node7</title>
<a xlink:href="../../d0/d9e/linear__random__access__memory_8hh.html" target="_top" xlink:title="harpoon/memory/linear\l_random_access_memory.hh">
<polygon fill="white" stroke="black" points="307.5,-1 307.5,-35 452.5,-35 452.5,-1 307.5,-1"/>
<text text-anchor="start" x="315.5" y="-22" font-family="Helvetica,sans-Serif" font-size="10.00">harpoon/memory/linear</text>
<text text-anchor="middle" x="380" y="-9" font-family="Helvetica,sans-Serif" font-size="10.00">_random_access_memory.hh</text>
</a>
</g>
<!-- Node6&#45;&gt;Node7 -->
<g id="edge12" class="edge"><title>Node6&#45;&gt;Node7</title>
<path fill="none" stroke="midnightblue" d="M380,-62.7193C380,-53.572 380,-43.6255 380,-35.4407"/>
<polygon fill="midnightblue" stroke="midnightblue" points="376.5,-62.937 380,-72.937 383.5,-62.937 376.5,-62.937"/>
</g>
<!-- Node8 -->
<g id="node15" class="node"><title>Node8</title>
<a xlink:href="../../dd/db0/linear__read__only__memory_8hh.html" target="_top" xlink:title="harpoon/memory/linear\l_read_only_memory.hh">
<polygon fill="white" stroke="black" points="470,-1 470,-35 588,-35 588,-1 470,-1"/>
<text text-anchor="start" x="478" y="-22" font-family="Helvetica,sans-Serif" font-size="10.00">harpoon/memory/linear</text>
<text text-anchor="middle" x="529" y="-9" font-family="Helvetica,sans-Serif" font-size="10.00">_read_only_memory.hh</text>
</a>
</g>
<!-- Node6&#45;&gt;Node8 -->
<g id="edge14" class="edge"><title>Node6&#45;&gt;Node8</title>
<path fill="none" stroke="midnightblue" d="M424.502,-68.4954C446.622,-57.8069 472.976,-45.0718 493.685,-35.0651"/>
<polygon fill="midnightblue" stroke="midnightblue" points="422.792,-65.4347 415.311,-72.937 425.838,-71.7374 422.792,-65.4347"/>
</g>
<!-- Node11 -->
<g id="node21" class="node"><title>Node11</title>
<a xlink:href="../../de/d7d/binary__file_8hh.html" target="_top" xlink:title="harpoon/memory/serializer\l/binary_file.hh">
<polygon fill="white" stroke="black" points="605.5,-1 605.5,-35 736.5,-35 736.5,-1 605.5,-1"/>
<text text-anchor="start" x="613.5" y="-22" font-family="Helvetica,sans-Serif" font-size="10.00">harpoon/memory/serializer</text>
<text text-anchor="middle" x="671" y="-9" font-family="Helvetica,sans-Serif" font-size="10.00">/binary_file.hh</text>
</a>
</g>
<!-- Node10&#45;&gt;Node11 -->
<g id="edge20" class="edge"><title>Node10&#45;&gt;Node11</title>
<path fill="none" stroke="midnightblue" d="M664.748,-63.0173C666.029,-53.7884 667.429,-43.7144 668.578,-35.4407"/>
<polygon fill="midnightblue" stroke="midnightblue" points="661.279,-62.5506 663.37,-72.937 668.212,-63.5136 661.279,-62.5506"/>
</g>
</g>
</svg>
