<?xml version="1.0" encoding="UTF-8" standalone="no"?>
<!DOCTYPE svg PUBLIC "-//W3C//DTD SVG 1.1//EN"
 "http://www.w3.org/Graphics/SVG/1.1/DTD/svg11.dtd">
<!-- Generated by graphviz version 2.26.3 (20100126.1600)
 -->
<!-- Title: harpoon/execution/processing_unit.hh Pages: 1 -->
<svg width="964pt" height="478pt"
 viewBox="0.00 0.00 964.23 478.00" xmlns="http://www.w3.org/2000/svg" xmlns:xlink="http://www.w3.org/1999/xlink">
<g id="graph1" class="graph" transform="scale(1 1) rotate(0) translate(4 474)">
<title>harpoon/execution/processing_unit.hh</title>
<polygon fill="white" stroke="white" points="-4,5 -4,-474 961.228,-474 961.228,5 -4,5"/>
<!-- Node1 -->
<g id="node1" class="node"><title>Node1</title>
<polygon fill="#bfbfbf" stroke="black" points="433,-435 433,-469 579,-469 579,-435 433,-435"/>
<text text-anchor="start" x="441" y="-456" font-family="Helvetica,sans-Serif" font-size="10.00">harpoon/execution/processing</text>
<text text-anchor="middle" x="506" y="-443" font-family="Helvetica,sans-Serif" font-size="10.00">_unit.hh</text>
</g>
<!-- Node2 -->
<g id="node3" class="node"><title>Node2</title>
<a xlink:href="../../d5/d08/harpoon_8hh.html" target="_top" xlink:title="Harpoon library common header file. ">
<polygon fill="white" stroke="black" points="579,-58.5 579,-79.5 681,-79.5 681,-58.5 579,-58.5"/>
<text text-anchor="middle" x="630" y="-66.5" font-family="Helvetica,sans-Serif" font-size="10.00">harpoon/harpoon.hh</text>
</a>
</g>
<!-- Node1&#45;&gt;Node2 -->
<g id="edge2" class="edge"><title>Node1&#45;&gt;Node2</title>
<path fill="none" stroke="midnightblue" d="M579.215,-446.961C693.409,-438.47 903.648,-420.059 930,-398 959.642,-373.187 956,-353.656 956,-315 956,-315 956,-315 956,-185 956,-129.429 785.736,-93.5948 691.305,-77.9937"/>
<polygon fill="midnightblue" stroke="midnightblue" points="691.728,-74.5167 681.296,-76.3689 690.606,-81.4262 691.728,-74.5167"/>
</g>
<!-- Node7 -->
<g id="node13" class="node"><title>Node7</title>
<a xlink:href="../../d5/d09/hardware__component_8hh.html" target="_top" xlink:title="Hardware component. ">
<polygon fill="white" stroke="black" points="316.5,-239.5 316.5,-260.5 477.5,-260.5 477.5,-239.5 316.5,-239.5"/>
<text text-anchor="middle" x="397" y="-247.5" font-family="Helvetica,sans-Serif" font-size="10.00">harpoon/hardware_component.hh</text>
</a>
</g>
<!-- Node1&#45;&gt;Node7 -->
<g id="edge12" class="edge"><title>Node1&#45;&gt;Node7</title>
<path fill="none" stroke="midnightblue" d="M496.707,-434.778C476.583,-397.485 429.074,-309.44 407.722,-269.87"/>
<polygon fill="midnightblue" stroke="midnightblue" points="410.718,-268.053 402.889,-260.914 404.558,-271.377 410.718,-268.053"/>
</g>
<!-- Node12 -->
<g id="node26" class="node"><title>Node12</title>
<polygon fill="white" stroke="#bfbfbf" points="344,-116.5 344,-137.5 390,-137.5 390,-116.5 344,-116.5"/>
<text text-anchor="middle" x="367" y="-124.5" font-family="Helvetica,sans-Serif" font-size="10.00">atomic</text>
</g>
<!-- Node1&#45;&gt;Node12 -->
<g id="edge74" class="edge"><title>Node1&#45;&gt;Node12</title>
<path fill="none" stroke="midnightblue" d="M432.919,-439.599C366.229,-423.602 278,-388.541 278,-315 278,-315 278,-315 278,-250 278,-205.048 317.498,-165.401 343.869,-143.941"/>
<polygon fill="midnightblue" stroke="midnightblue" points="346.202,-146.559 351.902,-137.628 341.877,-141.055 346.202,-146.559"/>
</g>
<!-- Node14 -->
<g id="node30" class="node"><title>Node14</title>
<a xlink:href="../../d9/d3e/execution__unit_8hh.html" target="_top" xlink:title="harpoon/execution/execution\l_unit.hh">
<polygon fill="white" stroke="black" points="546.5,-363 546.5,-397 687.5,-397 687.5,-363 546.5,-363"/>
<text text-anchor="start" x="554.5" y="-384" font-family="Helvetica,sans-Serif" font-size="10.00">harpoon/execution/execution</text>
<text text-anchor="middle" x="617" y="-371" font-family="Helvetica,sans-Serif" font-size="10.00">_unit.hh</text>
</a>
</g>
<!-- Node1&#45;&gt;Node14 -->
<g id="edge32" class="edge"><title>Node1&#45;&gt;Node14</title>
<path fill="none" stroke="midnightblue" d="M532.305,-434.937C547.127,-425.323 565.831,-413.19 581.891,-402.774"/>
<polygon fill="midnightblue" stroke="midnightblue" points="584.014,-405.568 590.499,-397.19 580.204,-399.696 584.014,-405.568"/>
</g>
<!-- Node18 -->
<g id="node47" class="node"><title>Node18</title>
<polygon fill="white" stroke="#bfbfbf" points="490,-174.5 490,-195.5 534,-195.5 534,-174.5 490,-174.5"/>
<text text-anchor="middle" x="512" y="-182.5" font-family="Helvetica,sans-Serif" font-size="10.00">thread</text>
</g>
<!-- Node1&#45;&gt;Node18 -->
<g id="edge72" class="edge"><title>Node1&#45;&gt;Node18</title>
<path fill="none" stroke="midnightblue" d="M506.384,-434.892C507.44,-387.917 510.381,-257.046 511.531,-205.88"/>
<polygon fill="midnightblue" stroke="midnightblue" points="515.034,-205.786 511.759,-195.71 508.035,-205.629 515.034,-205.786"/>
</g>
<!-- Node19 -->
<g id="node49" class="node"><title>Node19</title>
<a xlink:href="../../d0/df4/cycle_8hh.html" target="_top" xlink:title="harpoon/execution/cycle.hh">
<polygon fill="white" stroke="black" points="114,-174.5 114,-195.5 250,-195.5 250,-174.5 114,-174.5"/>
<text text-anchor="middle" x="182" y="-182.5" font-family="Helvetica,sans-Serif" font-size="10.00">harpoon/execution/cycle.hh</text>
</a>
</g>
<!-- Node1&#45;&gt;Node19 -->
<g id="edge60" class="edge"><title>Node1&#45;&gt;Node19</title>
<path fill="none" stroke="midnightblue" d="M432.715,-443.336C371.046,-434.689 289.025,-419.571 264,-398 205.041,-347.176 188.282,-248.929 183.676,-205.967"/>
<polygon fill="midnightblue" stroke="midnightblue" points="187.145,-205.47 182.711,-195.848 180.176,-206.135 187.145,-205.47"/>
</g>
<!-- Node20 -->
<g id="node53" class="node"><title>Node20</title>
<a xlink:href="../../d4/d15/instruction_8hh.html" target="_top" xlink:title="harpoon/execution/instruction.hh">
<polygon fill="white" stroke="black" points="763,-369.5 763,-390.5 921,-390.5 921,-369.5 763,-369.5"/>
<text text-anchor="middle" x="842" y="-377.5" font-family="Helvetica,sans-Serif" font-size="10.00">harpoon/execution/instruction.hh</text>
</a>
</g>
<!-- Node1&#45;&gt;Node20 -->
<g id="edge66" class="edge"><title>Node1&#45;&gt;Node20</title>
<path fill="none" stroke="midnightblue" d="M579.321,-436.288C640.435,-423.192 726.368,-404.778 783.082,-392.625"/>
<polygon fill="midnightblue" stroke="midnightblue" points="783.926,-396.024 792.97,-390.506 782.459,-389.179 783.926,-396.024"/>
</g>
<!-- Node3 -->
<g id="node5" class="node"><title>Node3</title>
<polygon fill="white" stroke="#bfbfbf" points="513.5,-0.5 513.5,-21.5 554.5,-21.5 554.5,-0.5 513.5,-0.5"/>
<text text-anchor="middle" x="534" y="-8.5" font-family="Helvetica,sans-Serif" font-size="10.00">string</text>
</g>
<!-- Node2&#45;&gt;Node3 -->
<g id="edge4" class="edge"><title>Node2&#45;&gt;Node3</title>
<path fill="none" stroke="midnightblue" d="M612.392,-58.3619C597.777,-49.532 576.776,-36.844 560.189,-26.8224"/>
<polygon fill="midnightblue" stroke="midnightblue" points="561.865,-23.7461 551.496,-21.5707 558.246,-29.7376 561.865,-23.7461"/>
</g>
<!-- Node4 -->
<g id="node7" class="node"><title>Node4</title>
<polygon fill="white" stroke="#bfbfbf" points="572,-0.5 572,-21.5 624,-21.5 624,-0.5 572,-0.5"/>
<text text-anchor="middle" x="598" y="-8.5" font-family="Helvetica,sans-Serif" font-size="10.00">memory</text>
</g>
<!-- Node2&#45;&gt;Node4 -->
<g id="edge6" class="edge"><title>Node2&#45;&gt;Node4</title>
<path fill="none" stroke="midnightblue" d="M624.131,-58.3619C619.845,-50.5949 613.913,-39.8426 608.784,-30.5458"/>
<polygon fill="midnightblue" stroke="midnightblue" points="611.727,-28.6357 603.832,-21.5707 605.598,-32.0172 611.727,-28.6357"/>
</g>
<!-- Node5 -->
<g id="node9" class="node"><title>Node5</title>
<polygon fill="white" stroke="#bfbfbf" points="642,-0.5 642,-21.5 682,-21.5 682,-0.5 642,-0.5"/>
<text text-anchor="middle" x="662" y="-8.5" font-family="Helvetica,sans-Serif" font-size="10.00">utility</text>
</g>
<!-- Node2&#45;&gt;Node5 -->
<g id="edge8" class="edge"><title>Node2&#45;&gt;Node5</title>
<path fill="none" stroke="midnightblue" d="M635.869,-58.3619C640.155,-50.5949 646.087,-39.8426 651.216,-30.5458"/>
<polygon fill="midnightblue" stroke="midnightblue" points="654.402,-32.0172 656.168,-21.5707 648.273,-28.6357 654.402,-32.0172"/>
</g>
<!-- Node6 -->
<g id="node11" class="node"><title>Node6</title>
<polygon fill="white" stroke="#bfbfbf" points="700,-0.5 700,-21.5 746,-21.5 746,-0.5 700,-0.5"/>
<text text-anchor="middle" x="723" y="-8.5" font-family="Helvetica,sans-Serif" font-size="10.00">cstdint</text>
</g>
<!-- Node2&#45;&gt;Node6 -->
<g id="edge10" class="edge"><title>Node2&#45;&gt;Node6</title>
<path fill="none" stroke="midnightblue" d="M647.058,-58.3619C661.085,-49.6138 681.184,-37.0786 697.182,-27.1015"/>
<polygon fill="midnightblue" stroke="midnightblue" points="699.418,-29.8323 706.051,-21.5707 695.713,-23.8927 699.418,-29.8323"/>
</g>
<!-- Node7&#45;&gt;Node2 -->
<g id="edge14" class="edge"><title>Node7&#45;&gt;Node2</title>
<path fill="none" stroke="midnightblue" d="M384.62,-239.167C358.283,-214.849 301.723,-154.999 335,-116 349.986,-98.4371 486.861,-82.5664 568.802,-74.5317"/>
<polygon fill="midnightblue" stroke="midnightblue" points="569.14,-78.0154 578.756,-73.5676 568.465,-71.048 569.14,-78.0154"/>
</g>
<!-- Node8 -->
<g id="node16" class="node"><title>Node8</title>
<a xlink:href="../../d3/de3/log_8hh.html" target="_top" xlink:title="harpoon/log/log.hh">
<polygon fill="white" stroke="black" points="0,-174.5 0,-195.5 96,-195.5 96,-174.5 0,-174.5"/>
<text text-anchor="middle" x="48" y="-182.5" font-family="Helvetica,sans-Serif" font-size="10.00">harpoon/log/log.hh</text>
</a>
</g>
<!-- Node7&#45;&gt;Node8 -->
<g id="edge16" class="edge"><title>Node7&#45;&gt;Node8</title>
<path fill="none" stroke="midnightblue" d="M339.355,-239.476C282.624,-229.088 193.243,-212.64 106.243,-196.226"/>
<polygon fill="midnightblue" stroke="midnightblue" points="106.673,-192.745 96.197,-194.328 105.374,-199.623 106.673,-192.745"/>
</g>
<!-- Node11 -->
<g id="node24" class="node"><title>Node11</title>
<polygon fill="white" stroke="#bfbfbf" points="381.5,-174.5 381.5,-195.5 410.5,-195.5 410.5,-174.5 381.5,-174.5"/>
<text text-anchor="middle" x="396" y="-182.5" font-family="Helvetica,sans-Serif" font-size="10.00">list</text>
</g>
<!-- Node7&#45;&gt;Node11 -->
<g id="edge26" class="edge"><title>Node7&#45;&gt;Node11</title>
<path fill="none" stroke="midnightblue" d="M396.835,-239.267C396.695,-230.18 396.491,-216.892 396.319,-205.74"/>
<polygon fill="midnightblue" stroke="midnightblue" points="399.816,-205.479 396.162,-195.534 392.816,-205.586 399.816,-205.479"/>
</g>
<!-- Node7&#45;&gt;Node12 -->
<g id="edge28" class="edge"><title>Node7&#45;&gt;Node12</title>
<path fill="none" stroke="midnightblue" d="M390.922,-239.219C385.242,-228.587 377.049,-211.696 373,-196 368.964,-180.355 367.512,-162.123 367.043,-148.33"/>
<polygon fill="midnightblue" stroke="midnightblue" points="370.535,-147.875 366.845,-137.943 363.536,-148.008 370.535,-147.875"/>
</g>
<!-- Node13 -->
<g id="node28" class="node"><title>Node13</title>
<polygon fill="white" stroke="#bfbfbf" points="428,-174.5 428,-195.5 472,-195.5 472,-174.5 428,-174.5"/>
<text text-anchor="middle" x="450" y="-182.5" font-family="Helvetica,sans-Serif" font-size="10.00">mutex</text>
</g>
<!-- Node7&#45;&gt;Node13 -->
<g id="edge30" class="edge"><title>Node7&#45;&gt;Node13</title>
<path fill="none" stroke="midnightblue" d="M405.752,-239.267C413.701,-229.517 425.594,-214.932 435.049,-203.336"/>
<polygon fill="midnightblue" stroke="midnightblue" points="437.804,-205.496 441.411,-195.534 432.379,-201.072 437.804,-205.496"/>
</g>
<!-- Node8&#45;&gt;Node2 -->
<g id="edge18" class="edge"><title>Node8&#45;&gt;Node2</title>
<path fill="none" stroke="midnightblue" d="M73.3357,-174.448C111.128,-159.148 184.811,-130.996 250,-116 360.597,-90.5579 492.68,-78.1472 568.407,-72.702"/>
<polygon fill="midnightblue" stroke="midnightblue" points="568.98,-76.1705 578.71,-71.9793 568.49,-69.1877 568.98,-76.1705"/>
</g>
<!-- Node9 -->
<g id="node19" class="node"><title>Node9</title>
<a xlink:href="../../d9/d74/message_8hh.html" target="_top" xlink:title="harpoon/log/message.hh">
<polygon fill="white" stroke="black" points="-0.5,-116.5 -0.5,-137.5 122.5,-137.5 122.5,-116.5 -0.5,-116.5"/>
<text text-anchor="middle" x="61" y="-124.5" font-family="Helvetica,sans-Serif" font-size="10.00">harpoon/log/message.hh</text>
</a>
</g>
<!-- Node8&#45;&gt;Node9 -->
<g id="edge20" class="edge"><title>Node8&#45;&gt;Node9</title>
<path fill="none" stroke="midnightblue" d="M50.3844,-174.362C52.0703,-166.84 54.3837,-156.519 56.4207,-147.431"/>
<polygon fill="midnightblue" stroke="midnightblue" points="59.8588,-148.094 58.6307,-137.571 53.0283,-146.563 59.8588,-148.094"/>
</g>
<!-- Node9&#45;&gt;Node2 -->
<g id="edge22" class="edge"><title>Node9&#45;&gt;Node2</title>
<path fill="none" stroke="midnightblue" d="M122.705,-120.71C232.237,-109.545 459.373,-86.3926 568.65,-75.2536"/>
<polygon fill="midnightblue" stroke="midnightblue" points="569.256,-78.71 578.85,-74.2139 568.546,-71.7461 569.256,-78.71"/>
</g>
<!-- Node10 -->
<g id="node22" class="node"><title>Node10</title>
<polygon fill="white" stroke="#bfbfbf" points="35,-58.5 35,-79.5 87,-79.5 87,-58.5 35,-58.5"/>
<text text-anchor="middle" x="61" y="-66.5" font-family="Helvetica,sans-Serif" font-size="10.00">sstream</text>
</g>
<!-- Node9&#45;&gt;Node10 -->
<g id="edge24" class="edge"><title>Node9&#45;&gt;Node10</title>
<path fill="none" stroke="midnightblue" d="M61,-116.362C61,-108.922 61,-98.7427 61,-89.7276"/>
<polygon fill="midnightblue" stroke="midnightblue" points="64.5001,-89.5706 61,-79.5707 57.5001,-89.5707 64.5001,-89.5706"/>
</g>
<!-- Node14&#45;&gt;Node2 -->
<g id="edge34" class="edge"><title>Node14&#45;&gt;Node2</title>
<path fill="none" stroke="midnightblue" d="M684.247,-362.913C737.858,-344.775 804,-310.199 804,-250 804,-250 804,-250 804,-185 804,-128.499 739.697,-97.8247 689.273,-82.4567"/>
<polygon fill="midnightblue" stroke="midnightblue" points="689.976,-79.0161 679.396,-79.5841 688.021,-85.7376 689.976,-79.0161"/>
</g>
<!-- Node14&#45;&gt;Node7 -->
<g id="edge36" class="edge"><title>Node14&#45;&gt;Node7</title>
<path fill="none" stroke="midnightblue" d="M587.786,-362.737C544.754,-337.309 464.963,-290.16 423.525,-265.674"/>
<polygon fill="midnightblue" stroke="midnightblue" points="425.204,-262.601 414.814,-260.527 421.643,-268.627 425.204,-262.601"/>
</g>
<!-- Node15 -->
<g id="node34" class="node"><title>Node15</title>
<a xlink:href="../../d7/d55/clock_8hh.html" target="_top" xlink:title="harpoon/clock/clock.hh">
<polygon fill="white" stroke="black" points="571.5,-304.5 571.5,-325.5 688.5,-325.5 688.5,-304.5 571.5,-304.5"/>
<text text-anchor="middle" x="630" y="-312.5" font-family="Helvetica,sans-Serif" font-size="10.00">harpoon/clock/clock.hh</text>
</a>
</g>
<!-- Node14&#45;&gt;Node15 -->
<g id="edge38" class="edge"><title>Node14&#45;&gt;Node15</title>
<path fill="none" stroke="midnightblue" d="M620.416,-362.922C622.084,-354.579 624.106,-344.47 625.862,-335.692"/>
<polygon fill="midnightblue" stroke="midnightblue" points="629.3,-336.344 627.83,-325.852 622.436,-334.971 629.3,-336.344"/>
</g>
<!-- Node15&#45;&gt;Node2 -->
<g id="edge40" class="edge"><title>Node15&#45;&gt;Node2</title>
<path fill="none" stroke="midnightblue" d="M647.164,-304.472C674.763,-286.366 727.849,-246.372 747,-196 765.73,-146.736 703.556,-105.24 662.765,-84.0768"/>
<polygon fill="midnightblue" stroke="midnightblue" points="664.177,-80.8695 653.67,-79.5073 661.034,-87.1244 664.177,-80.8695"/>
</g>
<!-- Node15&#45;&gt;Node7 -->
<g id="edge42" class="edge"><title>Node15&#45;&gt;Node7</title>
<path fill="none" stroke="midnightblue" d="M592.306,-304.484C552.038,-293.251 488.123,-275.421 444.455,-263.239"/>
<polygon fill="midnightblue" stroke="midnightblue" points="445.213,-259.816 434.64,-260.501 443.332,-266.559 445.213,-259.816"/>
</g>
<!-- Node16 -->
<g id="node38" class="node"><title>Node16</title>
<a xlink:href="../../d3/dce/tick_8hh.html" target="_top" xlink:title="harpoon/clock/tick.hh">
<polygon fill="white" stroke="black" points="628,-174.5 628,-195.5 738,-195.5 738,-174.5 628,-174.5"/>
<text text-anchor="middle" x="683" y="-182.5" font-family="Helvetica,sans-Serif" font-size="10.00">harpoon/clock/tick.hh</text>
</a>
</g>
<!-- Node15&#45;&gt;Node16 -->
<g id="edge44" class="edge"><title>Node15&#45;&gt;Node16</title>
<path fill="none" stroke="midnightblue" d="M639.762,-304.211C647.443,-295.163 657.846,-281.575 664,-268 673.113,-247.9 678.059,-223.015 680.599,-205.762"/>
<polygon fill="midnightblue" stroke="midnightblue" points="684.094,-206.027 681.94,-195.654 677.155,-205.107 684.094,-206.027"/>
</g>
<!-- Node17 -->
<g id="node42" class="node"><title>Node17</title>
<a xlink:href="../../d8/d45/generator_8hh.html" target="_top" xlink:title="harpoon/clock/generator\l/generator.hh">
<polygon fill="white" stroke="black" points="534.5,-233 534.5,-267 655.5,-267 655.5,-233 534.5,-233"/>
<text text-anchor="start" x="542.5" y="-254" font-family="Helvetica,sans-Serif" font-size="10.00">harpoon/clock/generator</text>
<text text-anchor="middle" x="595" y="-241" font-family="Helvetica,sans-Serif" font-size="10.00">/generator.hh</text>
</a>
</g>
<!-- Node15&#45;&gt;Node17 -->
<g id="edge50" class="edge"><title>Node15&#45;&gt;Node17</title>
<path fill="none" stroke="midnightblue" d="M624.22,-304.267C620.101,-296.615 614.377,-285.986 609.086,-276.16"/>
<polygon fill="midnightblue" stroke="midnightblue" points="612.036,-274.255 604.213,-267.11 605.872,-277.574 612.036,-274.255"/>
</g>
<!-- Node16&#45;&gt;Node2 -->
<g id="edge46" class="edge"><title>Node16&#45;&gt;Node2</title>
<path fill="none" stroke="midnightblue" d="M678.109,-174.295C669.235,-154.872 650.358,-113.556 639.068,-88.8462"/>
<polygon fill="midnightblue" stroke="midnightblue" points="642.219,-87.3203 634.879,-79.6792 635.852,-90.2293 642.219,-87.3203"/>
</g>
<!-- Node16&#45;&gt;Node12 -->
<g id="edge48" class="edge"><title>Node16&#45;&gt;Node12</title>
<path fill="none" stroke="midnightblue" d="M627.957,-174.897C562.309,-162.848 454.661,-143.09 400.437,-133.137"/>
<polygon fill="midnightblue" stroke="midnightblue" points="400.8,-129.645 390.332,-131.283 399.536,-136.53 400.8,-129.645"/>
</g>
<!-- Node17&#45;&gt;Node2 -->
<g id="edge52" class="edge"><title>Node17&#45;&gt;Node2</title>
<path fill="none" stroke="midnightblue" d="M598.293,-232.972C604.739,-199.635 619.003,-125.869 625.988,-89.747"/>
<polygon fill="midnightblue" stroke="midnightblue" points="629.443,-90.3143 627.905,-79.8317 622.571,-88.9853 629.443,-90.3143"/>
</g>
<!-- Node17&#45;&gt;Node12 -->
<g id="edge56" class="edge"><title>Node17&#45;&gt;Node12</title>
<path fill="none" stroke="midnightblue" d="M587.667,-232.836C579.349,-215.421 564.141,-188.961 543,-174 500.001,-143.571 438.452,-132.842 400.693,-129.06"/>
<polygon fill="midnightblue" stroke="midnightblue" points="400.518,-125.53 390.247,-128.13 399.898,-132.503 400.518,-125.53"/>
</g>
<!-- Node17&#45;&gt;Node16 -->
<g id="edge54" class="edge"><title>Node17&#45;&gt;Node16</title>
<path fill="none" stroke="midnightblue" d="M618.121,-232.922C631.113,-223.326 647.266,-211.394 660.205,-201.837"/>
<polygon fill="midnightblue" stroke="midnightblue" points="662.606,-204.415 668.57,-195.658 658.447,-198.784 662.606,-204.415"/>
</g>
<!-- Node17&#45;&gt;Node18 -->
<g id="edge58" class="edge"><title>Node17&#45;&gt;Node18</title>
<path fill="none" stroke="midnightblue" d="M573.193,-232.922C561.017,-223.387 545.897,-211.546 533.734,-202.02"/>
<polygon fill="midnightblue" stroke="midnightblue" points="535.888,-199.262 525.857,-195.852 531.572,-204.773 535.888,-199.262"/>
</g>
<!-- Node19&#45;&gt;Node2 -->
<g id="edge62" class="edge"><title>Node19&#45;&gt;Node2</title>
<path fill="none" stroke="midnightblue" d="M196.276,-174.355C217.918,-158.802 260.879,-130.181 302,-116 350.046,-99.4315 488.023,-83.3443 568.901,-74.9669"/>
<polygon fill="midnightblue" stroke="midnightblue" points="569.363,-78.438 578.953,-73.9349 568.648,-71.4746 569.363,-78.438"/>
</g>
<!-- Node19&#45;&gt;Node12 -->
<g id="edge64" class="edge"><title>Node19&#45;&gt;Node12</title>
<path fill="none" stroke="midnightblue" d="M215.502,-174.497C249.19,-163.935 300.795,-147.756 334.223,-137.276"/>
<polygon fill="midnightblue" stroke="midnightblue" points="335.479,-140.55 343.974,-134.219 333.384,-133.871 335.479,-140.55"/>
</g>
<!-- Node20&#45;&gt;Node2 -->
<g id="edge68" class="edge"><title>Node20&#45;&gt;Node2</title>
<path fill="none" stroke="midnightblue" d="M842,-369.214C842,-346.939 842,-294.236 842,-250 842,-250 842,-250 842,-185 842,-115.749 753.866,-87.5752 691.25,-76.2978"/>
<polygon fill="midnightblue" stroke="midnightblue" points="691.494,-72.7892 681.049,-74.5673 690.323,-79.6906 691.494,-72.7892"/>
</g>
<!-- Node21 -->
<g id="node56" class="node"><title>Node21</title>
<polygon fill="white" stroke="#bfbfbf" points="869.5,-304.5 869.5,-325.5 928.5,-325.5 928.5,-304.5 869.5,-304.5"/>
<text text-anchor="middle" x="899" y="-312.5" font-family="Helvetica,sans-Serif" font-size="10.00">functional</text>
</g>
<!-- Node20&#45;&gt;Node21 -->
<g id="edge70" class="edge"><title>Node20&#45;&gt;Node21</title>
<path fill="none" stroke="midnightblue" d="M851.412,-369.267C859.962,-359.517 872.752,-344.932 882.92,-333.336"/>
<polygon fill="midnightblue" stroke="midnightblue" points="885.801,-335.36 889.763,-325.534 880.538,-330.745 885.801,-335.36"/>
</g>
</g>
</svg>
