<?xml version="1.0" encoding="UTF-8" standalone="no"?>
<!DOCTYPE svg PUBLIC "-//W3C//DTD SVG 1.1//EN"
 "http://www.w3.org/Graphics/SVG/1.1/DTD/svg11.dtd">
<!-- Generated by graphviz version 2.26.3 (20100126.1600)
 -->
<!-- Title: harpoon/execution/processing_unit.hh Pages: 1 -->
<svg width="1071pt" height="478pt"
 viewBox="0.00 0.00 1071.00 478.00" xmlns="http://www.w3.org/2000/svg" xmlns:xlink="http://www.w3.org/1999/xlink">
<g id="graph1" class="graph" transform="scale(1 1) rotate(0) translate(4 474)">
<title>harpoon/execution/processing_unit.hh</title>
<polygon fill="white" stroke="white" points="-4,5 -4,-474 1068,-474 1068,5 -4,5"/>
<!-- Node1 -->
<g id="node1" class="node"><title>Node1</title>
<polygon fill="#bfbfbf" stroke="black" points="330,-435 330,-469 476,-469 476,-435 330,-435"/>
<text text-anchor="start" x="338" y="-456" font-family="Helvetica,sans-Serif" font-size="10.00">harpoon/execution/processing</text>
<text text-anchor="middle" x="403" y="-443" font-family="Helvetica,sans-Serif" font-size="10.00">_unit.hh</text>
</g>
<!-- Node2 -->
<g id="node3" class="node"><title>Node2</title>
<a xlink:href="../../d5/d08/harpoon_8hh.html" target="_top" xlink:title="Harpoon library common header file. ">
<polygon fill="white" stroke="black" points="361,-58.5 361,-79.5 463,-79.5 463,-58.5 361,-58.5"/>
<text text-anchor="middle" x="412" y="-66.5" font-family="Helvetica,sans-Serif" font-size="10.00">harpoon/harpoon.hh</text>
</a>
</g>
<!-- Node1&#45;&gt;Node2 -->
<g id="edge2" class="edge"><title>Node1&#45;&gt;Node2</title>
<path fill="none" stroke="midnightblue" d="M329.552,-442.357C213.313,-425.016 0,-383.817 0,-315 0,-315 0,-315 0,-185 0,-113.049 235.763,-83.5748 350.596,-73.4865"/>
<polygon fill="midnightblue" stroke="midnightblue" points="350.988,-76.9658 360.653,-72.6254 350.391,-69.9913 350.988,-76.9658"/>
</g>
<!-- Node7 -->
<g id="node13" class="node"><title>Node7</title>
<a xlink:href="../../d5/d09/hardware__component_8hh.html" target="_top" xlink:title="Hardware component. ">
<polygon fill="white" stroke="black" points="147.5,-239.5 147.5,-260.5 308.5,-260.5 308.5,-239.5 147.5,-239.5"/>
<text text-anchor="middle" x="228" y="-247.5" font-family="Helvetica,sans-Serif" font-size="10.00">harpoon/hardware_component.hh</text>
</a>
</g>
<!-- Node1&#45;&gt;Node7 -->
<g id="edge12" class="edge"><title>Node1&#45;&gt;Node7</title>
<path fill="none" stroke="midnightblue" d="M348.401,-434.916C328.301,-426.429 306.648,-414.398 291,-398 255.973,-361.294 238.932,-302.142 231.989,-270.894"/>
<polygon fill="midnightblue" stroke="midnightblue" points="235.34,-269.813 229.874,-260.737 228.487,-271.241 235.34,-269.813"/>
</g>
<!-- Node11 -->
<g id="node24" class="node"><title>Node11</title>
<polygon fill="white" stroke="#bfbfbf" points="27.5,-174.5 27.5,-195.5 56.5,-195.5 56.5,-174.5 27.5,-174.5"/>
<text text-anchor="middle" x="42" y="-182.5" font-family="Helvetica,sans-Serif" font-size="10.00">list</text>
</g>
<!-- Node1&#45;&gt;Node11 -->
<g id="edge82" class="edge"><title>Node1&#45;&gt;Node11</title>
<path fill="none" stroke="midnightblue" d="M361.191,-434.937C339.522,-425.336 313.052,-412.397 291,-398 196.721,-336.447 99.3868,-242.754 60.0751,-203.41"/>
<polygon fill="midnightblue" stroke="midnightblue" points="62.1186,-200.501 52.589,-195.871 57.1513,-205.433 62.1186,-200.501"/>
</g>
<!-- Node12 -->
<g id="node26" class="node"><title>Node12</title>
<polygon fill="white" stroke="#bfbfbf" points="440,-116.5 440,-137.5 486,-137.5 486,-116.5 440,-116.5"/>
<text text-anchor="middle" x="463" y="-124.5" font-family="Helvetica,sans-Serif" font-size="10.00">atomic</text>
</g>
<!-- Node1&#45;&gt;Node12 -->
<g id="edge80" class="edge"><title>Node1&#45;&gt;Node12</title>
<path fill="none" stroke="midnightblue" d="M363.13,-434.874C348.028,-426.182 332.452,-414.015 324,-398 316.532,-383.85 319.907,-377.468 324,-362 347.577,-272.912 415.51,-183.604 446.83,-145.79"/>
<polygon fill="midnightblue" stroke="midnightblue" points="449.862,-147.623 453.616,-137.715 444.503,-143.119 449.862,-147.623"/>
</g>
<!-- Node14 -->
<g id="node30" class="node"><title>Node14</title>
<a xlink:href="../../d9/d3e/execution__unit_8hh.html" target="_top" xlink:title="harpoon/execution/execution\l_unit.hh">
<polygon fill="white" stroke="black" points="332.5,-363 332.5,-397 473.5,-397 473.5,-363 332.5,-363"/>
<text text-anchor="start" x="340.5" y="-384" font-family="Helvetica,sans-Serif" font-size="10.00">harpoon/execution/execution</text>
<text text-anchor="middle" x="403" y="-371" font-family="Helvetica,sans-Serif" font-size="10.00">_unit.hh</text>
</a>
</g>
<!-- Node1&#45;&gt;Node14 -->
<g id="edge32" class="edge"><title>Node1&#45;&gt;Node14</title>
<path fill="none" stroke="midnightblue" d="M403,-434.937C403,-426.807 403,-416.876 403,-407.705"/>
<polygon fill="midnightblue" stroke="midnightblue" points="406.5,-407.441 403,-397.441 399.5,-407.441 406.5,-407.441"/>
</g>
<!-- Node18 -->
<g id="node47" class="node"><title>Node18</title>
<polygon fill="white" stroke="#bfbfbf" points="644,-174.5 644,-195.5 688,-195.5 688,-174.5 644,-174.5"/>
<text text-anchor="middle" x="666" y="-182.5" font-family="Helvetica,sans-Serif" font-size="10.00">thread</text>
</g>
<!-- Node1&#45;&gt;Node18 -->
<g id="edge78" class="edge"><title>Node1&#45;&gt;Node18</title>
<path fill="none" stroke="midnightblue" d="M438.672,-434.895C491.984,-407.426 591.75,-348.305 644,-268 656.33,-249.05 661.772,-223.424 664.16,-205.682"/>
<polygon fill="midnightblue" stroke="midnightblue" points="667.66,-205.878 665.308,-195.547 660.704,-205.09 667.66,-205.878"/>
</g>
<!-- Node19 -->
<g id="node49" class="node"><title>Node19</title>
<a xlink:href="../../d0/df4/cycle_8hh.html" target="_top" xlink:title="harpoon/execution/cycle.hh">
<polygon fill="white" stroke="black" points="706,-174.5 706,-195.5 842,-195.5 842,-174.5 706,-174.5"/>
<text text-anchor="middle" x="774" y="-182.5" font-family="Helvetica,sans-Serif" font-size="10.00">harpoon/execution/cycle.hh</text>
</a>
</g>
<!-- Node1&#45;&gt;Node19 -->
<g id="edge60" class="edge"><title>Node1&#45;&gt;Node19</title>
<path fill="none" stroke="midnightblue" d="M461.506,-434.95C487.53,-426.002 517.894,-413.618 543,-398 635.109,-340.7 723.503,-243.898 758.377,-203.536"/>
<polygon fill="midnightblue" stroke="midnightblue" points="761.143,-205.687 764.988,-195.815 755.826,-201.134 761.143,-205.687"/>
</g>
<!-- Node20 -->
<g id="node53" class="node"><title>Node20</title>
<a xlink:href="../../d4/d15/instruction_8hh.html" target="_top" xlink:title="harpoon/execution/instruction.hh">
<polygon fill="white" stroke="black" points="729,-369.5 729,-390.5 887,-390.5 887,-369.5 729,-369.5"/>
<text text-anchor="middle" x="808" y="-377.5" font-family="Helvetica,sans-Serif" font-size="10.00">harpoon/execution/instruction.hh</text>
</a>
</g>
<!-- Node1&#45;&gt;Node20 -->
<g id="edge66" class="edge"><title>Node1&#45;&gt;Node20</title>
<path fill="none" stroke="midnightblue" d="M476.199,-439.752C539.474,-429.064 633.353,-412.965 715,-398 724.484,-396.262 734.503,-394.375 744.313,-392.5"/>
<polygon fill="midnightblue" stroke="midnightblue" points="745.27,-395.88 754.43,-390.556 743.949,-389.006 745.27,-395.88"/>
</g>
<!-- Node22 -->
<g id="node58" class="node"><title>Node22</title>
<a xlink:href="../../d5/d5f/breakpoint_8hh.html" target="_top" xlink:title="harpoon/execution/breakpoint.hh">
<polygon fill="white" stroke="black" points="905,-369.5 905,-390.5 1063,-390.5 1063,-369.5 905,-369.5"/>
<text text-anchor="middle" x="984" y="-377.5" font-family="Helvetica,sans-Serif" font-size="10.00">harpoon/execution/breakpoint.hh</text>
</a>
</g>
<!-- Node1&#45;&gt;Node22 -->
<g id="edge72" class="edge"><title>Node1&#45;&gt;Node22</title>
<path fill="none" stroke="midnightblue" d="M476.367,-446.102C572.925,-437.852 747.776,-421.226 896,-398 905.937,-396.443 916.453,-394.528 926.625,-392.534"/>
<polygon fill="midnightblue" stroke="midnightblue" points="927.532,-395.922 936.649,-390.524 926.156,-389.058 927.532,-395.922"/>
</g>
<!-- Node3 -->
<g id="node5" class="node"><title>Node3</title>
<polygon fill="white" stroke="#bfbfbf" points="295.5,-0.5 295.5,-21.5 336.5,-21.5 336.5,-0.5 295.5,-0.5"/>
<text text-anchor="middle" x="316" y="-8.5" font-family="Helvetica,sans-Serif" font-size="10.00">string</text>
</g>
<!-- Node2&#45;&gt;Node3 -->
<g id="edge4" class="edge"><title>Node2&#45;&gt;Node3</title>
<path fill="none" stroke="midnightblue" d="M394.392,-58.3619C379.777,-49.532 358.776,-36.844 342.189,-26.8224"/>
<polygon fill="midnightblue" stroke="midnightblue" points="343.865,-23.7461 333.496,-21.5707 340.246,-29.7376 343.865,-23.7461"/>
</g>
<!-- Node4 -->
<g id="node7" class="node"><title>Node4</title>
<polygon fill="white" stroke="#bfbfbf" points="354,-0.5 354,-21.5 406,-21.5 406,-0.5 354,-0.5"/>
<text text-anchor="middle" x="380" y="-8.5" font-family="Helvetica,sans-Serif" font-size="10.00">memory</text>
</g>
<!-- Node2&#45;&gt;Node4 -->
<g id="edge6" class="edge"><title>Node2&#45;&gt;Node4</title>
<path fill="none" stroke="midnightblue" d="M406.131,-58.3619C401.845,-50.5949 395.913,-39.8426 390.784,-30.5458"/>
<polygon fill="midnightblue" stroke="midnightblue" points="393.727,-28.6357 385.832,-21.5707 387.598,-32.0172 393.727,-28.6357"/>
</g>
<!-- Node5 -->
<g id="node9" class="node"><title>Node5</title>
<polygon fill="white" stroke="#bfbfbf" points="424,-0.5 424,-21.5 464,-21.5 464,-0.5 424,-0.5"/>
<text text-anchor="middle" x="444" y="-8.5" font-family="Helvetica,sans-Serif" font-size="10.00">utility</text>
</g>
<!-- Node2&#45;&gt;Node5 -->
<g id="edge8" class="edge"><title>Node2&#45;&gt;Node5</title>
<path fill="none" stroke="midnightblue" d="M417.869,-58.3619C422.155,-50.5949 428.087,-39.8426 433.216,-30.5458"/>
<polygon fill="midnightblue" stroke="midnightblue" points="436.402,-32.0172 438.168,-21.5707 430.273,-28.6357 436.402,-32.0172"/>
</g>
<!-- Node6 -->
<g id="node11" class="node"><title>Node6</title>
<polygon fill="white" stroke="#bfbfbf" points="482,-0.5 482,-21.5 528,-21.5 528,-0.5 482,-0.5"/>
<text text-anchor="middle" x="505" y="-8.5" font-family="Helvetica,sans-Serif" font-size="10.00">cstdint</text>
</g>
<!-- Node2&#45;&gt;Node6 -->
<g id="edge10" class="edge"><title>Node2&#45;&gt;Node6</title>
<path fill="none" stroke="midnightblue" d="M429.058,-58.3619C443.085,-49.6138 463.184,-37.0786 479.182,-27.1015"/>
<polygon fill="midnightblue" stroke="midnightblue" points="481.418,-29.8323 488.051,-21.5707 477.713,-23.8927 481.418,-29.8323"/>
</g>
<!-- Node7&#45;&gt;Node2 -->
<g id="edge14" class="edge"><title>Node7&#45;&gt;Node2</title>
<path fill="none" stroke="midnightblue" d="M169.276,-239.475C144.442,-231.807 117.868,-218.619 103,-196 88.7009,-174.247 110.709,-125.655 122,-116 155.506,-87.3491 275.998,-75.9609 350.719,-71.5859"/>
<polygon fill="midnightblue" stroke="midnightblue" points="351.156,-75.067 360.945,-71.0141 350.765,-68.078 351.156,-75.067"/>
</g>
<!-- Node8 -->
<g id="node16" class="node"><title>Node8</title>
<a xlink:href="../../d3/de3/log_8hh.html" target="_top" xlink:title="harpoon/log/log.hh">
<polygon fill="white" stroke="black" points="112,-174.5 112,-195.5 208,-195.5 208,-174.5 112,-174.5"/>
<text text-anchor="middle" x="160" y="-182.5" font-family="Helvetica,sans-Serif" font-size="10.00">harpoon/log/log.hh</text>
</a>
</g>
<!-- Node7&#45;&gt;Node8 -->
<g id="edge16" class="edge"><title>Node7&#45;&gt;Node8</title>
<path fill="none" stroke="midnightblue" d="M216.771,-239.267C206.374,-229.328 190.719,-214.363 178.48,-202.664"/>
<polygon fill="midnightblue" stroke="midnightblue" points="180.667,-199.913 171.02,-195.534 175.83,-204.974 180.667,-199.913"/>
</g>
<!-- Node7&#45;&gt;Node11 -->
<g id="edge26" class="edge"><title>Node7&#45;&gt;Node11</title>
<path fill="none" stroke="midnightblue" d="M195.774,-239.458C163.739,-228.868 113.268,-211.884 70,-196 68.7865,-195.555 67.546,-195.092 66.295,-194.621"/>
<polygon fill="midnightblue" stroke="midnightblue" points="67.3641,-191.282 56.7746,-190.948 64.8444,-197.813 67.3641,-191.282"/>
</g>
<!-- Node7&#45;&gt;Node12 -->
<g id="edge28" class="edge"><title>Node7&#45;&gt;Node12</title>
<path fill="none" stroke="midnightblue" d="M228.633,-239.405C230.212,-222.881 235.73,-191.101 255,-174 280.582,-151.298 377.591,-136.883 429.594,-130.618"/>
<polygon fill="midnightblue" stroke="midnightblue" points="430.138,-134.079 439.663,-129.44 429.324,-127.126 430.138,-134.079"/>
</g>
<!-- Node13 -->
<g id="node28" class="node"><title>Node13</title>
<polygon fill="white" stroke="#bfbfbf" points="264,-174.5 264,-195.5 308,-195.5 308,-174.5 264,-174.5"/>
<text text-anchor="middle" x="286" y="-182.5" font-family="Helvetica,sans-Serif" font-size="10.00">mutex</text>
</g>
<!-- Node7&#45;&gt;Node13 -->
<g id="edge30" class="edge"><title>Node7&#45;&gt;Node13</title>
<path fill="none" stroke="midnightblue" d="M237.578,-239.267C246.361,-229.423 259.545,-214.648 269.939,-203"/>
<polygon fill="midnightblue" stroke="midnightblue" points="272.554,-205.325 276.601,-195.534 267.331,-200.665 272.554,-205.325"/>
</g>
<!-- Node8&#45;&gt;Node2 -->
<g id="edge18" class="edge"><title>Node8&#45;&gt;Node2</title>
<path fill="none" stroke="midnightblue" d="M183.256,-174.295C228.471,-153.482 328.303,-107.527 379.831,-83.808"/>
<polygon fill="midnightblue" stroke="midnightblue" points="381.544,-86.8725 389.164,-79.5117 378.617,-80.5138 381.544,-86.8725"/>
</g>
<!-- Node9 -->
<g id="node19" class="node"><title>Node9</title>
<a xlink:href="../../d9/d74/message_8hh.html" target="_top" xlink:title="harpoon/log/message.hh">
<polygon fill="white" stroke="black" points="130.5,-116.5 130.5,-137.5 253.5,-137.5 253.5,-116.5 130.5,-116.5"/>
<text text-anchor="middle" x="192" y="-124.5" font-family="Helvetica,sans-Serif" font-size="10.00">harpoon/log/message.hh</text>
</a>
</g>
<!-- Node8&#45;&gt;Node9 -->
<g id="edge20" class="edge"><title>Node8&#45;&gt;Node9</title>
<path fill="none" stroke="midnightblue" d="M165.869,-174.362C170.155,-166.595 176.087,-155.843 181.216,-146.546"/>
<polygon fill="midnightblue" stroke="midnightblue" points="184.402,-148.017 186.168,-137.571 178.273,-144.636 184.402,-148.017"/>
</g>
<!-- Node9&#45;&gt;Node2 -->
<g id="edge22" class="edge"><title>Node9&#45;&gt;Node2</title>
<path fill="none" stroke="midnightblue" d="M231.84,-116.497C268.483,-106.836 322.951,-92.4765 362.399,-82.0765"/>
<polygon fill="midnightblue" stroke="midnightblue" points="363.308,-85.4568 372.085,-79.5231 361.523,-78.688 363.308,-85.4568"/>
</g>
<!-- Node10 -->
<g id="node22" class="node"><title>Node10</title>
<polygon fill="white" stroke="#bfbfbf" points="166,-58.5 166,-79.5 218,-79.5 218,-58.5 166,-58.5"/>
<text text-anchor="middle" x="192" y="-66.5" font-family="Helvetica,sans-Serif" font-size="10.00">sstream</text>
</g>
<!-- Node9&#45;&gt;Node10 -->
<g id="edge24" class="edge"><title>Node9&#45;&gt;Node10</title>
<path fill="none" stroke="midnightblue" d="M192,-116.362C192,-108.922 192,-98.7427 192,-89.7276"/>
<polygon fill="midnightblue" stroke="midnightblue" points="195.5,-89.5706 192,-79.5707 188.5,-89.5707 195.5,-89.5706"/>
</g>
<!-- Node14&#45;&gt;Node2 -->
<g id="edge34" class="edge"><title>Node14&#45;&gt;Node2</title>
<path fill="none" stroke="midnightblue" d="M401.812,-362.986C401.131,-352.359 400.344,-338.389 400,-326 399.729,-316.226 399.751,-313.775 400,-304 402.019,-224.863 407.857,-130.881 410.576,-89.8727"/>
<polygon fill="midnightblue" stroke="midnightblue" points="414.077,-89.9793 411.254,-79.7673 407.092,-89.5104 414.077,-89.9793"/>
</g>
<!-- Node14&#45;&gt;Node7 -->
<g id="edge36" class="edge"><title>Node14&#45;&gt;Node7</title>
<path fill="none" stroke="midnightblue" d="M379.761,-362.737C345.963,-337.63 283.657,-291.345 250.361,-266.611"/>
<polygon fill="midnightblue" stroke="midnightblue" points="252.285,-263.68 242.17,-260.527 248.111,-269.3 252.285,-263.68"/>
</g>
<!-- Node15 -->
<g id="node34" class="node"><title>Node15</title>
<a xlink:href="../../d7/d55/clock_8hh.html" target="_top" xlink:title="harpoon/clock/clock.hh">
<polygon fill="white" stroke="black" points="408.5,-304.5 408.5,-325.5 525.5,-325.5 525.5,-304.5 408.5,-304.5"/>
<text text-anchor="middle" x="467" y="-312.5" font-family="Helvetica,sans-Serif" font-size="10.00">harpoon/clock/clock.hh</text>
</a>
</g>
<!-- Node14&#45;&gt;Node15 -->
<g id="edge38" class="edge"><title>Node14&#45;&gt;Node15</title>
<path fill="none" stroke="midnightblue" d="M419.815,-362.922C428.843,-353.754 439.969,-342.454 449.15,-333.129"/>
<polygon fill="midnightblue" stroke="midnightblue" points="451.793,-335.433 456.315,-325.852 446.805,-330.522 451.793,-335.433"/>
</g>
<!-- Node15&#45;&gt;Node2 -->
<g id="edge40" class="edge"><title>Node15&#45;&gt;Node2</title>
<path fill="none" stroke="midnightblue" d="M463.192,-304.311C455.959,-283.641 440.137,-236.643 431,-196 422.689,-159.03 417.038,-115.168 414.179,-89.8627"/>
<polygon fill="midnightblue" stroke="midnightblue" points="417.627,-89.1943 413.062,-79.6332 410.668,-89.954 417.627,-89.1943"/>
</g>
<!-- Node15&#45;&gt;Node7 -->
<g id="edge42" class="edge"><title>Node15&#45;&gt;Node7</title>
<path fill="none" stroke="midnightblue" d="M428.335,-304.484C386.943,-293.227 321.193,-275.345 276.395,-263.162"/>
<polygon fill="midnightblue" stroke="midnightblue" points="277.178,-259.748 266.61,-260.501 275.34,-266.502 277.178,-259.748"/>
</g>
<!-- Node16 -->
<g id="node38" class="node"><title>Node16</title>
<a xlink:href="../../d3/dce/tick_8hh.html" target="_top" xlink:title="harpoon/clock/tick.hh">
<polygon fill="white" stroke="black" points="440,-174.5 440,-195.5 550,-195.5 550,-174.5 440,-174.5"/>
<text text-anchor="middle" x="495" y="-182.5" font-family="Helvetica,sans-Serif" font-size="10.00">harpoon/clock/tick.hh</text>
</a>
</g>
<!-- Node15&#45;&gt;Node16 -->
<g id="edge44" class="edge"><title>Node15&#45;&gt;Node16</title>
<path fill="none" stroke="midnightblue" d="M469.291,-304.362C473.927,-282.841 484.488,-233.807 490.533,-205.74"/>
<polygon fill="midnightblue" stroke="midnightblue" points="493.993,-206.298 492.677,-195.785 487.15,-204.824 493.993,-206.298"/>
</g>
<!-- Node17 -->
<g id="node42" class="node"><title>Node17</title>
<a xlink:href="../../d8/d45/generator_8hh.html" target="_top" xlink:title="harpoon/clock/generator\l/generator.hh">
<polygon fill="white" stroke="black" points="514.5,-233 514.5,-267 635.5,-267 635.5,-233 514.5,-233"/>
<text text-anchor="start" x="522.5" y="-254" font-family="Helvetica,sans-Serif" font-size="10.00">harpoon/clock/generator</text>
<text text-anchor="middle" x="575" y="-241" font-family="Helvetica,sans-Serif" font-size="10.00">/generator.hh</text>
</a>
</g>
<!-- Node15&#45;&gt;Node17 -->
<g id="edge50" class="edge"><title>Node15&#45;&gt;Node17</title>
<path fill="none" stroke="midnightblue" d="M484.834,-304.267C499.119,-295.669 519.654,-283.31 537.519,-272.558"/>
<polygon fill="midnightblue" stroke="midnightblue" points="539.808,-275.265 546.571,-267.11 536.199,-269.268 539.808,-275.265"/>
</g>
<!-- Node16&#45;&gt;Node2 -->
<g id="edge46" class="edge"><title>Node16&#45;&gt;Node2</title>
<path fill="none" stroke="midnightblue" d="M498.111,-174.333C501.636,-159.997 505.618,-134.215 495,-116 486.505,-101.428 471.63,-91.0108 456.797,-83.7497"/>
<polygon fill="midnightblue" stroke="midnightblue" points="458.18,-80.5341 447.624,-79.6274 455.311,-86.919 458.18,-80.5341"/>
</g>
<!-- Node16&#45;&gt;Node12 -->
<g id="edge48" class="edge"><title>Node16&#45;&gt;Node12</title>
<path fill="none" stroke="midnightblue" d="M489.131,-174.362C484.845,-166.595 478.913,-155.843 473.784,-146.546"/>
<polygon fill="midnightblue" stroke="midnightblue" points="476.727,-144.636 468.832,-137.571 470.598,-148.017 476.727,-144.636"/>
</g>
<!-- Node17&#45;&gt;Node2 -->
<g id="edge52" class="edge"><title>Node17&#45;&gt;Node2</title>
<path fill="none" stroke="midnightblue" d="M579.903,-232.861C583.52,-216.884 586.492,-192.768 578,-174 556.331,-126.11 500.574,-97.8238 459.635,-82.8958"/>
<polygon fill="midnightblue" stroke="midnightblue" points="460.694,-79.5585 450.099,-79.5598 458.383,-86.1659 460.694,-79.5585"/>
</g>
<!-- Node17&#45;&gt;Node12 -->
<g id="edge56" class="edge"><title>Node17&#45;&gt;Node12</title>
<path fill="none" stroke="midnightblue" d="M575.522,-232.821C575.153,-216.137 572.17,-190.917 559,-174 543.353,-153.901 516.886,-141.844 495.701,-134.982"/>
<polygon fill="midnightblue" stroke="midnightblue" points="496.681,-131.622 486.097,-132.102 494.67,-138.327 496.681,-131.622"/>
</g>
<!-- Node17&#45;&gt;Node16 -->
<g id="edge54" class="edge"><title>Node17&#45;&gt;Node16</title>
<path fill="none" stroke="midnightblue" d="M553.981,-232.922C542.358,-223.479 527.952,-211.774 516.287,-202.296"/>
<polygon fill="midnightblue" stroke="midnightblue" points="518.325,-199.442 508.356,-195.852 513.91,-204.874 518.325,-199.442"/>
</g>
<!-- Node17&#45;&gt;Node18 -->
<g id="edge58" class="edge"><title>Node17&#45;&gt;Node18</title>
<path fill="none" stroke="midnightblue" d="M598.909,-232.922C612.473,-223.233 629.37,-211.165 642.813,-201.562"/>
<polygon fill="midnightblue" stroke="midnightblue" points="644.975,-204.319 651.078,-195.658 640.907,-198.623 644.975,-204.319"/>
</g>
<!-- Node19&#45;&gt;Node2 -->
<g id="edge62" class="edge"><title>Node19&#45;&gt;Node2</title>
<path fill="none" stroke="midnightblue" d="M755.497,-174.387C728.647,-159.396 676.951,-132.061 630,-116 578.342,-98.3292 517.448,-85.865 473.167,-78.2331"/>
<polygon fill="midnightblue" stroke="midnightblue" points="473.577,-74.7529 463.134,-76.5375 472.411,-81.6551 473.577,-74.7529"/>
</g>
<!-- Node19&#45;&gt;Node12 -->
<g id="edge64" class="edge"><title>Node19&#45;&gt;Node12</title>
<path fill="none" stroke="midnightblue" d="M717.68,-174.497C653.024,-162.439 549.105,-143.058 496.226,-133.197"/>
<polygon fill="midnightblue" stroke="midnightblue" points="496.83,-129.749 486.358,-131.356 495.546,-136.63 496.83,-129.749"/>
</g>
<!-- Node20&#45;&gt;Node2 -->
<g id="edge68" class="edge"><title>Node20&#45;&gt;Node2</title>
<path fill="none" stroke="midnightblue" d="M817.148,-369.354C834.395,-348.153 870,-298.509 870,-250 870,-250 870,-250 870,-185 870,-104.121 598.215,-79.0137 473.376,-71.7471"/>
<polygon fill="midnightblue" stroke="midnightblue" points="473.386,-68.2422 463.205,-71.1757 472.993,-75.2312 473.386,-68.2422"/>
</g>
<!-- Node21 -->
<g id="node56" class="node"><title>Node21</title>
<polygon fill="white" stroke="#bfbfbf" points="897.5,-304.5 897.5,-325.5 956.5,-325.5 956.5,-304.5 897.5,-304.5"/>
<text text-anchor="middle" x="927" y="-312.5" font-family="Helvetica,sans-Serif" font-size="10.00">functional</text>
</g>
<!-- Node20&#45;&gt;Node21 -->
<g id="edge70" class="edge"><title>Node20&#45;&gt;Node21</title>
<path fill="none" stroke="midnightblue" d="M827.384,-369.412C846.747,-358.836 876.719,-342.465 898.731,-330.441"/>
<polygon fill="midnightblue" stroke="midnightblue" points="900.526,-333.449 907.624,-325.584 897.17,-327.306 900.526,-333.449"/>
</g>
<!-- Node22&#45;&gt;Node2 -->
<g id="edge74" class="edge"><title>Node22&#45;&gt;Node2</title>
<path fill="none" stroke="midnightblue" d="M984,-369.214C984,-346.939 984,-294.236 984,-250 984,-250 984,-250 984,-185 984,-105.923 896.491,-136.059 820,-116 699.869,-84.4962 554.334,-74.1044 473.577,-70.6799"/>
<polygon fill="midnightblue" stroke="midnightblue" points="473.232,-67.1633 463.099,-70.2595 472.951,-74.1577 473.232,-67.1633"/>
</g>
<!-- Node22&#45;&gt;Node21 -->
<g id="edge76" class="edge"><title>Node22&#45;&gt;Node21</title>
<path fill="none" stroke="midnightblue" d="M974.588,-369.267C966.038,-359.517 953.248,-344.932 943.08,-333.336"/>
<polygon fill="midnightblue" stroke="midnightblue" points="945.462,-330.745 936.237,-325.534 940.199,-335.36 945.462,-330.745"/>
</g>
</g>
</svg>
