<?xml version="1.0" encoding="UTF-8" standalone="no"?>
<!DOCTYPE svg PUBLIC "-//W3C//DTD SVG 1.1//EN"
 "http://www.w3.org/Graphics/SVG/1.1/DTD/svg11.dtd">
<!-- Generated by graphviz version 2.26.3 (20100126.1600)
 -->
<!-- Title: harpoon/execution/processing_unit.hh Pages: 1 -->
<!--zoomable 478 -->
<svg id="main" version="1.1" xmlns="http://www.w3.org/2000/svg" xmlns:xlink="http://www.w3.org/1999/xlink" xml:space="preserve" onload="init(evt)">
<style type="text/css"><![CDATA[
.edge:hover path { stroke: red; }
.edge:hover polygon { stroke: red; fill: red; }
]]></style>
<script type="text/javascript"><![CDATA[
var edges = document.getElementsByTagName('g');
if (edges && edges.length) {
  for (var i=0;i<edges.length;i++) {
    if (edges[i].id.substr(0,4)=='edge') {
      edges[i].setAttribute('class','edge');
    }
  }
}
]]></script>
        <defs>
                <circle id="rim" cx="0" cy="0" r="7"/>
                <circle id="rim2" cx="0" cy="0" r="3.5"/>
                <g id="zoomPlus">
                        <use xlink:href="#rim" fill="#404040">
                                <set attributeName="fill" to="#808080" begin="zoomplus.mouseover" end="zoomplus.mouseout"/>
                        </use>
                        <path d="M-4,0h8M0,-4v8" fill="none" stroke="white" stroke-width="1.5" pointer-events="none"/>
                </g>
                <g id="zoomMin">
                        <use xlink:href="#rim" fill="#404040">
                                <set attributeName="fill" to="#808080" begin="zoomminus.mouseover" end="zoomminus.mouseout"/>
                        </use>
                        <path d="M-4,0h8" fill="none" stroke="white" stroke-width="1.5" pointer-events="none"/>
                </g>
                <g id="dirArrow">
                        <path fill="none" stroke="white" stroke-width="1.5" d="M0,-3.0v7 M-2.5,-0.5L0,-3.0L2.5,-0.5"/>
                </g>
               <g id="resetDef">
                       <use xlink:href="#rim2" fill="#404040">
                               <set attributeName="fill" to="#808080" begin="reset.mouseover" end="reset.mouseout"/>
                       </use>
               </g>
        </defs>

<script type="text/javascript">
var viewWidth = 797;
var viewHeight = 478;
var sectionId = 'dynsection-0';
</script>
<script xlink:href="../../svgpan.js"/>
<svg id="graph" class="graph">
<g id="viewport">
<title>harpoon/execution/processing_unit.hh</title>
<polygon fill="white" stroke="white" points="-4,5 -4,-474 794.07,-474 794.07,5 -4,5"/>
<!-- Node1 -->
<g id="node1" class="node"><title>Node1</title>
<polygon fill="#bfbfbf" stroke="black" points="502.07,-435 502.07,-469 648.07,-469 648.07,-435 502.07,-435"/>
<text text-anchor="start" x="510.07" y="-456" font-family="Helvetica,sans-Serif" font-size="10.00">harpoon/execution/processing</text>
<text text-anchor="middle" x="575.07" y="-443" font-family="Helvetica,sans-Serif" font-size="10.00">_unit.hh</text>
</g>
<!-- Node2 -->
<g id="node3" class="node"><title>Node2</title>
<a xlink:href="../../d5/d08/harpoon_8hh.html" target="_top" xlink:title="Harpoon library common header file. ">
<polygon fill="white" stroke="black" points="204.07,-58.5 204.07,-79.5 306.07,-79.5 306.07,-58.5 204.07,-58.5"/>
<text text-anchor="middle" x="255.07" y="-66.5" font-family="Helvetica,sans-Serif" font-size="10.00">harpoon/harpoon.hh</text>
</a>
</g>
<!-- Node1&#45;&gt;Node2 -->
<g id="edge2" class="edge"><title>Node1&#45;&gt;Node2</title>
<path fill="none" stroke="midnightblue" d="M648.118,-436.952C710.112,-419.407 789.07,-383.597 789.07,-315 789.07,-315 789.07,-315 789.07,-185 789.07,-137.103 456.768,-92.5879 316.438,-75.9248"/>
<polygon fill="midnightblue" stroke="midnightblue" points="316.613,-72.4212 306.272,-74.7265 315.793,-79.3731 316.613,-72.4212"/>
</g>
<!-- Node6 -->
<g id="node11" class="node"><title>Node6</title>
<a xlink:href="../../d5/d09/hardware__component_8hh.html" target="_top" xlink:title="Hardware component. ">
<polygon fill="white" stroke="black" points="66.5698,-239.5 66.5698,-260.5 227.57,-260.5 227.57,-239.5 66.5698,-239.5"/>
<text text-anchor="middle" x="147.07" y="-247.5" font-family="Helvetica,sans-Serif" font-size="10.00">harpoon/hardware_component.hh</text>
</a>
</g>
<!-- Node1&#45;&gt;Node6 -->
<g id="edge10" class="edge"><title>Node1&#45;&gt;Node6</title>
<path fill="none" stroke="midnightblue" d="M501.631,-446.519C393.664,-437.79 202.304,-419.502 179.07,-398 143.516,-365.097 142.566,-302.878 144.825,-270.596"/>
<polygon fill="midnightblue" stroke="midnightblue" points="148.322,-270.79 145.707,-260.523 141.348,-270.179 148.322,-270.79"/>
</g>
<!-- Node11 -->
<g id="node24" class="node"><title>Node11</title>
<polygon fill="white" stroke="#bfbfbf" points="474.07,-116.5 474.07,-137.5 520.07,-137.5 520.07,-116.5 474.07,-116.5"/>
<text text-anchor="middle" x="497.07" y="-124.5" font-family="Helvetica,sans-Serif" font-size="10.00">atomic</text>
</g>
<!-- Node1&#45;&gt;Node11 -->
<g id="edge64" class="edge"><title>Node1&#45;&gt;Node11</title>
<path fill="none" stroke="midnightblue" d="M579.628,-434.841C586.072,-409.033 597.07,-358.602 597.07,-315 597.07,-315 597.07,-315 597.07,-250 597.07,-215.183 599.002,-201.822 578.07,-174 571.361,-165.083 548.56,-152.217 528.852,-142.199"/>
<polygon fill="midnightblue" stroke="midnightblue" points="530.308,-139.014 519.798,-137.681 527.183,-145.278 530.308,-139.014"/>
</g>
<!-- Node12 -->
<g id="node26" class="node"><title>Node12</title>
<a xlink:href="../../d9/d3e/execution__unit_8hh.html" target="_top" xlink:title="harpoon/execution/execution\l_unit.hh">
<polygon fill="white" stroke="black" points="187.57,-363 187.57,-397 328.57,-397 328.57,-363 187.57,-363"/>
<text text-anchor="start" x="195.57" y="-384" font-family="Helvetica,sans-Serif" font-size="10.00">harpoon/execution/execution</text>
<text text-anchor="middle" x="258.07" y="-371" font-family="Helvetica,sans-Serif" font-size="10.00">_unit.hh</text>
</a>
</g>
<!-- Node1&#45;&gt;Node12 -->
<g id="edge28" class="edge"><title>Node1&#45;&gt;Node12</title>
<path fill="none" stroke="midnightblue" d="M501.946,-435.391C453.091,-424.295 388.812,-409.695 338.511,-398.271"/>
<polygon fill="midnightblue" stroke="midnightblue" points="339.173,-394.832 328.646,-396.03 337.623,-401.658 339.173,-394.832"/>
</g>
<!-- Node16 -->
<g id="node43" class="node"><title>Node16</title>
<polygon fill="white" stroke="#bfbfbf" points="525.07,-174.5 525.07,-195.5 569.07,-195.5 569.07,-174.5 525.07,-174.5"/>
<text text-anchor="middle" x="547.07" y="-182.5" font-family="Helvetica,sans-Serif" font-size="10.00">thread</text>
</g>
<!-- Node1&#45;&gt;Node16 -->
<g id="edge62" class="edge"><title>Node1&#45;&gt;Node16</title>
<path fill="none" stroke="midnightblue" d="M573.276,-434.892C568.349,-387.917 554.625,-257.046 549.259,-205.88"/>
<polygon fill="midnightblue" stroke="midnightblue" points="552.717,-205.29 548.193,-195.71 545.755,-206.02 552.717,-205.29"/>
</g>
<!-- Node17 -->
<g id="node45" class="node"><title>Node17</title>
<a xlink:href="../../d0/df4/cycle_8hh.html" target="_top" xlink:title="harpoon/execution/cycle.hh">
<polygon fill="white" stroke="black" points="625.07,-174.5 625.07,-195.5 761.07,-195.5 761.07,-174.5 625.07,-174.5"/>
<text text-anchor="middle" x="693.07" y="-182.5" font-family="Helvetica,sans-Serif" font-size="10.00">harpoon/execution/cycle.hh</text>
</a>
</g>
<!-- Node1&#45;&gt;Node17 -->
<g id="edge56" class="edge"><title>Node1&#45;&gt;Node17</title>
<path fill="none" stroke="midnightblue" d="M588.097,-434.606C595.439,-424.307 604.439,-410.807 611.07,-398 646.057,-330.424 674.697,-244.368 686.824,-205.587"/>
<polygon fill="midnightblue" stroke="midnightblue" points="690.318,-206.136 689.923,-195.548 683.629,-204.071 690.318,-206.136"/>
</g>
<!-- Node3 -->
<g id="node5" class="node"><title>Node3</title>
<polygon fill="white" stroke="#bfbfbf" points="170.57,-0.5 170.57,-21.5 211.57,-21.5 211.57,-0.5 170.57,-0.5"/>
<text text-anchor="middle" x="191.07" y="-8.5" font-family="Helvetica,sans-Serif" font-size="10.00">string</text>
</g>
<!-- Node2&#45;&gt;Node3 -->
<g id="edge4" class="edge"><title>Node2&#45;&gt;Node3</title>
<path fill="none" stroke="midnightblue" d="M243.331,-58.3619C234.129,-50.0226 221.13,-38.2418 210.398,-28.5162"/>
<polygon fill="midnightblue" stroke="midnightblue" points="212.494,-25.6924 202.734,-21.5707 207.794,-30.8793 212.494,-25.6924"/>
</g>
<!-- Node4 -->
<g id="node7" class="node"><title>Node4</title>
<polygon fill="white" stroke="#bfbfbf" points="229.07,-0.5 229.07,-21.5 281.07,-21.5 281.07,-0.5 229.07,-0.5"/>
<text text-anchor="middle" x="255.07" y="-8.5" font-family="Helvetica,sans-Serif" font-size="10.00">memory</text>
</g>
<!-- Node2&#45;&gt;Node4 -->
<g id="edge6" class="edge"><title>Node2&#45;&gt;Node4</title>
<path fill="none" stroke="midnightblue" d="M255.07,-58.3619C255.07,-50.9219 255.07,-40.7427 255.07,-31.7276"/>
<polygon fill="midnightblue" stroke="midnightblue" points="258.57,-31.5706 255.07,-21.5707 251.57,-31.5707 258.57,-31.5706"/>
</g>
<!-- Node5 -->
<g id="node9" class="node"><title>Node5</title>
<polygon fill="white" stroke="#bfbfbf" points="299.07,-0.5 299.07,-21.5 339.07,-21.5 339.07,-0.5 299.07,-0.5"/>
<text text-anchor="middle" x="319.07" y="-8.5" font-family="Helvetica,sans-Serif" font-size="10.00">utility</text>
</g>
<!-- Node2&#45;&gt;Node5 -->
<g id="edge8" class="edge"><title>Node2&#45;&gt;Node5</title>
<path fill="none" stroke="midnightblue" d="M266.808,-58.3619C276.01,-50.0226 289.01,-38.2418 299.742,-28.5162"/>
<polygon fill="midnightblue" stroke="midnightblue" points="302.346,-30.8793 307.406,-21.5707 297.645,-25.6924 302.346,-30.8793"/>
</g>
<!-- Node6&#45;&gt;Node2 -->
<g id="edge12" class="edge"><title>Node6&#45;&gt;Node2</title>
<path fill="none" stroke="midnightblue" d="M124.096,-239.437C97.3436,-225.618 58.8738,-200.078 76.0698,-174 98.4293,-140.091 124.751,-158.06 160.07,-138 174.687,-129.698 209.901,-103.454 233.105,-85.8318"/>
<polygon fill="midnightblue" stroke="midnightblue" points="235.51,-88.4002 241.343,-79.5556 231.267,-82.8322 235.51,-88.4002"/>
</g>
<!-- Node7 -->
<g id="node14" class="node"><title>Node7</title>
<a xlink:href="../../d3/de3/log_8hh.html" target="_top" xlink:title="harpoon/log/log.hh">
<polygon fill="white" stroke="black" points="85.0698,-174.5 85.0698,-195.5 181.07,-195.5 181.07,-174.5 85.0698,-174.5"/>
<text text-anchor="middle" x="133.07" y="-182.5" font-family="Helvetica,sans-Serif" font-size="10.00">harpoon/log/log.hh</text>
</a>
</g>
<!-- Node6&#45;&gt;Node7 -->
<g id="edge14" class="edge"><title>Node6&#45;&gt;Node7</title>
<path fill="none" stroke="midnightblue" d="M144.758,-239.267C142.78,-230.085 139.879,-216.615 137.462,-205.392"/>
<polygon fill="midnightblue" stroke="midnightblue" points="140.866,-204.573 135.339,-195.534 134.023,-206.046 140.866,-204.573"/>
</g>
<!-- Node10 -->
<g id="node22" class="node"><title>Node10</title>
<polygon fill="white" stroke="#bfbfbf" points="198.57,-174.5 198.57,-195.5 227.57,-195.5 227.57,-174.5 198.57,-174.5"/>
<text text-anchor="middle" x="213.07" y="-182.5" font-family="Helvetica,sans-Serif" font-size="10.00">list</text>
</g>
<!-- Node6&#45;&gt;Node10 -->
<g id="edge24" class="edge"><title>Node6&#45;&gt;Node10</title>
<path fill="none" stroke="midnightblue" d="M157.968,-239.267C168.06,-229.328 183.255,-214.363 195.134,-202.664"/>
<polygon fill="midnightblue" stroke="midnightblue" points="197.705,-205.044 202.374,-195.534 192.793,-200.057 197.705,-205.044"/>
</g>
<!-- Node6&#45;&gt;Node11 -->
<g id="edge26" class="edge"><title>Node6&#45;&gt;Node11</title>
<path fill="none" stroke="midnightblue" d="M173.845,-239.5C212.537,-224.435 286.428,-196.073 350.07,-174 389.018,-160.492 434.248,-146.244 464.141,-137.024"/>
<polygon fill="midnightblue" stroke="midnightblue" points="465.508,-140.266 474.039,-133.983 463.452,-133.574 465.508,-140.266"/>
</g>
<!-- Node7&#45;&gt;Node2 -->
<g id="edge16" class="edge"><title>Node7&#45;&gt;Node2</title>
<path fill="none" stroke="midnightblue" d="M147.953,-174.47C160.462,-165.36 178.569,-151.553 193.07,-138 210.183,-122.005 227.865,-101.911 239.944,-87.5395"/>
<polygon fill="midnightblue" stroke="midnightblue" points="242.665,-89.742 246.363,-79.8133 237.28,-85.269 242.665,-89.742"/>
</g>
<!-- Node8 -->
<g id="node17" class="node"><title>Node8</title>
<a xlink:href="../../d9/d74/message_8hh.html" target="_top" xlink:title="harpoon/log/message.hh">
<polygon fill="white" stroke="black" points="28.5698,-116.5 28.5698,-137.5 151.57,-137.5 151.57,-116.5 28.5698,-116.5"/>
<text text-anchor="middle" x="90.0698" y="-124.5" font-family="Helvetica,sans-Serif" font-size="10.00">harpoon/log/message.hh</text>
</a>
</g>
<!-- Node7&#45;&gt;Node8 -->
<g id="edge18" class="edge"><title>Node7&#45;&gt;Node8</title>
<path fill="none" stroke="midnightblue" d="M125.183,-174.362C119.243,-166.35 110.947,-155.161 103.911,-145.67"/>
<polygon fill="midnightblue" stroke="midnightblue" points="106.674,-143.519 97.9067,-137.571 101.051,-147.688 106.674,-143.519"/>
</g>
<!-- Node8&#45;&gt;Node2 -->
<g id="edge20" class="edge"><title>Node8&#45;&gt;Node2</title>
<path fill="none" stroke="midnightblue" d="M119.95,-116.497C146.733,-107.082 186.215,-93.2036 215.591,-82.8773"/>
<polygon fill="midnightblue" stroke="midnightblue" points="216.86,-86.1413 225.133,-79.5231 214.539,-79.5374 216.86,-86.1413"/>
</g>
<!-- Node9 -->
<g id="node20" class="node"><title>Node9</title>
<polygon fill="white" stroke="#bfbfbf" points="64.0698,-58.5 64.0698,-79.5 116.07,-79.5 116.07,-58.5 64.0698,-58.5"/>
<text text-anchor="middle" x="90.0698" y="-66.5" font-family="Helvetica,sans-Serif" font-size="10.00">sstream</text>
</g>
<!-- Node8&#45;&gt;Node9 -->
<g id="edge22" class="edge"><title>Node8&#45;&gt;Node9</title>
<path fill="none" stroke="midnightblue" d="M90.0698,-116.362C90.0698,-108.922 90.0698,-98.7427 90.0698,-89.7276"/>
<polygon fill="midnightblue" stroke="midnightblue" points="93.5699,-89.5706 90.0698,-79.5707 86.5699,-89.5707 93.5699,-89.5706"/>
</g>
<!-- Node12&#45;&gt;Node2 -->
<g id="edge30" class="edge"><title>Node12&#45;&gt;Node2</title>
<path fill="none" stroke="midnightblue" d="M187.503,-374.208C111.421,-363.649 1.06979,-333.878 1.06979,-250 1.06979,-250 1.06979,-250 1.06979,-185 1.06979,-153.192 -3.20936,-137.676 20.0698,-116 44.789,-92.9835 132.676,-80.2572 193.665,-74.0265"/>
<polygon fill="midnightblue" stroke="midnightblue" points="194.354,-77.4755 203.962,-73.0096 193.666,-70.5094 194.354,-77.4755"/>
</g>
<!-- Node12&#45;&gt;Node6 -->
<g id="edge32" class="edge"><title>Node12&#45;&gt;Node6</title>
<path fill="none" stroke="midnightblue" d="M239.409,-362.615C228.689,-352.32 215.189,-338.82 204.07,-326 187.99,-307.46 171.346,-284.797 160.226,-269.067"/>
<polygon fill="midnightblue" stroke="midnightblue" points="162.965,-266.876 154.363,-260.69 157.23,-270.89 162.965,-266.876"/>
</g>
<!-- Node13 -->
<g id="node30" class="node"><title>Node13</title>
<a xlink:href="../../d7/d55/clock_8hh.html" target="_top" xlink:title="harpoon/clock/clock.hh">
<polygon fill="white" stroke="black" points="212.57,-304.5 212.57,-325.5 329.57,-325.5 329.57,-304.5 212.57,-304.5"/>
<text text-anchor="middle" x="271.07" y="-312.5" font-family="Helvetica,sans-Serif" font-size="10.00">harpoon/clock/clock.hh</text>
</a>
</g>
<!-- Node12&#45;&gt;Node13 -->
<g id="edge34" class="edge"><title>Node12&#45;&gt;Node13</title>
<path fill="none" stroke="midnightblue" d="M261.485,-362.922C263.154,-354.579 265.176,-344.47 266.931,-335.692"/>
<polygon fill="midnightblue" stroke="midnightblue" points="270.37,-336.344 268.899,-325.852 263.506,-334.971 270.37,-336.344"/>
</g>
<!-- Node13&#45;&gt;Node2 -->
<g id="edge36" class="edge"><title>Node13&#45;&gt;Node2</title>
<path fill="none" stroke="midnightblue" d="M270.382,-304.43C267.946,-266.975 259.697,-140.138 256.424,-89.8186"/>
<polygon fill="midnightblue" stroke="midnightblue" points="259.896,-89.2827 255.755,-79.5309 252.911,-89.737 259.896,-89.2827"/>
</g>
<!-- Node13&#45;&gt;Node6 -->
<g id="edge38" class="edge"><title>Node13&#45;&gt;Node6</title>
<path fill="none" stroke="midnightblue" d="M250.871,-304.412C230.605,-293.788 199.185,-277.318 176.219,-265.28"/>
<polygon fill="midnightblue" stroke="midnightblue" points="177.742,-262.126 167.26,-260.584 174.492,-268.326 177.742,-262.126"/>
</g>
<!-- Node14 -->
<g id="node34" class="node"><title>Node14</title>
<a xlink:href="../../d3/dce/tick_8hh.html" target="_top" xlink:title="harpoon/clock/tick.hh">
<polygon fill="white" stroke="black" points="359.07,-174.5 359.07,-195.5 469.07,-195.5 469.07,-174.5 359.07,-174.5"/>
<text text-anchor="middle" x="414.07" y="-182.5" font-family="Helvetica,sans-Serif" font-size="10.00">harpoon/clock/tick.hh</text>
</a>
</g>
<!-- Node13&#45;&gt;Node14 -->
<g id="edge40" class="edge"><title>Node13&#45;&gt;Node14</title>
<path fill="none" stroke="midnightblue" d="M279.212,-304.287C292.112,-287.703 318.517,-255.303 345.07,-232 358.081,-220.581 373.971,-209.587 387.221,-201.106"/>
<polygon fill="midnightblue" stroke="midnightblue" points="389.291,-203.939 395.904,-195.662 385.573,-198.009 389.291,-203.939"/>
</g>
<!-- Node15 -->
<g id="node38" class="node"><title>Node15</title>
<a xlink:href="../../d8/d45/generator_8hh.html" target="_top" xlink:title="harpoon/clock/generator\l/generator.hh">
<polygon fill="white" stroke="black" points="353.57,-233 353.57,-267 474.57,-267 474.57,-233 353.57,-233"/>
<text text-anchor="start" x="361.57" y="-254" font-family="Helvetica,sans-Serif" font-size="10.00">harpoon/clock/generator</text>
<text text-anchor="middle" x="414.07" y="-241" font-family="Helvetica,sans-Serif" font-size="10.00">/generator.hh</text>
</a>
</g>
<!-- Node13&#45;&gt;Node15 -->
<g id="edge46" class="edge"><title>Node13&#45;&gt;Node15</title>
<path fill="none" stroke="midnightblue" d="M294.363,-304.412C314.083,-295.448 342.96,-282.323 367.411,-271.209"/>
<polygon fill="midnightblue" stroke="midnightblue" points="368.882,-274.385 376.537,-267.06 365.985,-268.012 368.882,-274.385"/>
</g>
<!-- Node14&#45;&gt;Node2 -->
<g id="edge42" class="edge"><title>Node14&#45;&gt;Node2</title>
<path fill="none" stroke="midnightblue" d="M405.108,-174.166C392.704,-159.642 369.104,-133.646 345.07,-116 327.926,-103.413 306.95,-92.25 289.563,-83.9653"/>
<polygon fill="midnightblue" stroke="midnightblue" points="290.863,-80.71 280.319,-79.668 287.912,-87.0576 290.863,-80.71"/>
</g>
<!-- Node14&#45;&gt;Node11 -->
<g id="edge44" class="edge"><title>Node14&#45;&gt;Node11</title>
<path fill="none" stroke="midnightblue" d="M429.293,-174.362C441.695,-165.696 459.416,-153.313 473.627,-143.382"/>
<polygon fill="midnightblue" stroke="midnightblue" points="475.751,-146.168 481.943,-137.571 471.741,-140.43 475.751,-146.168"/>
</g>
<!-- Node15&#45;&gt;Node2 -->
<g id="edge48" class="edge"><title>Node15&#45;&gt;Node2</title>
<path fill="none" stroke="midnightblue" d="M391.344,-232.916C378.587,-222.827 362.737,-209.432 350.07,-196 316.925,-160.853 284.589,-114.228 267.522,-88.3677"/>
<polygon fill="midnightblue" stroke="midnightblue" points="270.35,-86.2979 261.952,-79.8394 264.49,-90.1257 270.35,-86.2979"/>
</g>
<!-- Node15&#45;&gt;Node11 -->
<g id="edge52" class="edge"><title>Node15&#45;&gt;Node11</title>
<path fill="none" stroke="midnightblue" d="M441.104,-232.913C454.015,-223.477 468.666,-210.694 478.07,-196 487.464,-181.323 492.267,-162.018 494.691,-147.561"/>
<polygon fill="midnightblue" stroke="midnightblue" points="498.163,-148.003 496.117,-137.607 491.234,-147.01 498.163,-148.003"/>
</g>
<!-- Node15&#45;&gt;Node14 -->
<g id="edge50" class="edge"><title>Node15&#45;&gt;Node14</title>
<path fill="none" stroke="midnightblue" d="M414.07,-232.922C414.07,-224.67 414.07,-214.692 414.07,-205.982"/>
<polygon fill="midnightblue" stroke="midnightblue" points="417.57,-205.852 414.07,-195.852 410.57,-205.852 417.57,-205.852"/>
</g>
<!-- Node15&#45;&gt;Node16 -->
<g id="edge54" class="edge"><title>Node15&#45;&gt;Node16</title>
<path fill="none" stroke="midnightblue" d="M449.014,-232.922C469.877,-222.726 496.134,-209.894 516.225,-200.074"/>
<polygon fill="midnightblue" stroke="midnightblue" points="517.814,-203.194 525.261,-195.658 514.74,-196.905 517.814,-203.194"/>
</g>
<!-- Node17&#45;&gt;Node2 -->
<g id="edge58" class="edge"><title>Node17&#45;&gt;Node2</title>
<path fill="none" stroke="midnightblue" d="M672.402,-174.487C641.839,-159.365 582.443,-131.583 529.07,-116 457.432,-95.0845 372.371,-82.2885 316.238,-75.4339"/>
<polygon fill="midnightblue" stroke="midnightblue" points="316.448,-71.9342 306.104,-74.2226 315.618,-78.8847 316.448,-71.9342"/>
</g>
<!-- Node17&#45;&gt;Node11 -->
<g id="edge60" class="edge"><title>Node17&#45;&gt;Node11</title>
<path fill="none" stroke="midnightblue" d="M657.576,-174.497C621.33,-163.771 565.505,-147.251 530.156,-136.791"/>
<polygon fill="midnightblue" stroke="midnightblue" points="530.908,-133.363 520.326,-133.882 528.921,-140.076 530.908,-133.363"/>
</g>
</g>
</svg>
        <g id="navigator" transform="translate(0 0)" fill="#404254">
                <rect fill="#f2f5e9" fill-opacity="0.5" stroke="#606060" stroke-width=".5" x="0" y="0" width="60" height="60"/>
                <use id="zoomplus" xlink:href="#zoomPlus" x="17" y="9" onmousedown="handleZoom(evt,'in')"/>
                <use id="zoomminus" xlink:href="#zoomMin" x="42" y="9" onmousedown="handleZoom(evt,'out')"/>
                <use id="reset" xlink:href="#resetDef" x="30" y="36" onmousedown="handleReset()"/>
                <g id="arrowUp" xlink:href="#dirArrow" transform="translate(30 24)" onmousedown="handlePan(0,-1)">
                  <use xlink:href="#rim" fill="#404040">
                        <set attributeName="fill" to="#808080" begin="arrowUp.mouseover" end="arrowUp.mouseout"/>
                  </use>
                  <path fill="none" stroke="white" stroke-width="1.5" d="M0,-3.0v7 M-2.5,-0.5L0,-3.0L2.5,-0.5"/>
                </g>
                <g id="arrowRight" xlink:href="#dirArrow" transform="rotate(90) translate(36 -43)" onmousedown="handlePan(1,0)">
                  <use xlink:href="#rim" fill="#404040">
                        <set attributeName="fill" to="#808080" begin="arrowRight.mouseover" end="arrowRight.mouseout"/>
                  </use>
                  <path fill="none" stroke="white" stroke-width="1.5" d="M0,-3.0v7 M-2.5,-0.5L0,-3.0L2.5,-0.5"/>
                </g>
                <g id="arrowDown" xlink:href="#dirArrow" transform="rotate(180) translate(-30 -48)" onmousedown="handlePan(0,1)">
                  <use xlink:href="#rim" fill="#404040">
                        <set attributeName="fill" to="#808080" begin="arrowDown.mouseover" end="arrowDown.mouseout"/>
                  </use>
                  <path fill="none" stroke="white" stroke-width="1.5" d="M0,-3.0v7 M-2.5,-0.5L0,-3.0L2.5,-0.5"/>
                </g>
                <g id="arrowLeft" xlink:href="#dirArrow" transform="rotate(270) translate(-36 17)" onmousedown="handlePan(-1,0)">
                  <use xlink:href="#rim" fill="#404040">
                        <set attributeName="fill" to="#808080" begin="arrowLeft.mouseover" end="arrowLeft.mouseout"/>
                  </use>
                  <path fill="none" stroke="white" stroke-width="1.5" d="M0,-3.0v7 M-2.5,-0.5L0,-3.0L2.5,-0.5"/>
                </g>
        </g>
        <svg viewBox="0 0 15 15" width="100%" height="30px" preserveAspectRatio="xMaxYMin meet">
         <g id="arrow_out" transform="scale(0.3 0.3)">
          <a xlink:href="processing__unit_8hh__incl_org.svg" target="_base">
           <rect id="button" ry="5" rx="5" y="6" x="6" height="38" width="38"
                fill="#f2f5e9" fill-opacity="0.5" stroke="#606060" stroke-width="1.0"/>
           <path id="arrow"
             d="M 11.500037,31.436501 C 11.940474,20.09759 22.043105,11.32322 32.158766,21.979434 L 37.068811,17.246167 C 37.068811,17.246167 37.088388,32 37.088388,32 L 22.160133,31.978069 C 22.160133,31.978069 26.997745,27.140456 26.997745,27.140456 C 18.528582,18.264221 13.291696,25.230495 11.500037,31.436501 z"
             style="fill:#404040;"/>
          </a>
         </g>
        </svg>
</svg>
