<?xml version="1.0" encoding="UTF-8" standalone="no"?>
<!DOCTYPE svg PUBLIC "-//W3C//DTD SVG 1.1//EN"
 "http://www.w3.org/Graphics/SVG/1.1/DTD/svg11.dtd">
<!-- Generated by graphviz version 2.26.3 (20100126.1600)
 -->
<!-- Title: harpoon/memory/exception/write_access_violation.hh Pages: 1 -->
<svg width="272pt" height="188pt"
 viewBox="0.00 0.00 272.00 188.00" xmlns="http://www.w3.org/2000/svg" xmlns:xlink="http://www.w3.org/1999/xlink">
<g id="graph1" class="graph" transform="scale(1 1) rotate(0) translate(4 184)">
<title>harpoon/memory/exception/write_access_violation.hh</title>
<polygon fill="white" stroke="white" points="-4,5 -4,-184 269,-184 269,5 -4,5"/>
<!-- Node1 -->
<g id="node1" class="node"><title>Node1</title>
<polygon fill="#bfbfbf" stroke="black" points="67,-145 67,-179 201,-179 201,-145 67,-145"/>
<text text-anchor="start" x="75" y="-166" font-family="Helvetica,sans-Serif" font-size="10.00">harpoon/memory/exception</text>
<text text-anchor="middle" x="134" y="-153" font-family="Helvetica,sans-Serif" font-size="10.00">/write_access_violation.hh</text>
</g>
<!-- Node2 -->
<g id="node3" class="node"><title>Node2</title>
<a xlink:href="../../d9/d5e/read__only__memory_8hh.html" target="_top" xlink:title="harpoon/memory/read\l_only_memory.hh">
<polygon fill="white" stroke="black" points="78.5,-73 78.5,-107 189.5,-107 189.5,-73 78.5,-73"/>
<text text-anchor="start" x="86.5" y="-94" font-family="Helvetica,sans-Serif" font-size="10.00">harpoon/memory/read</text>
<text text-anchor="middle" x="134" y="-81" font-family="Helvetica,sans-Serif" font-size="10.00">_only_memory.hh</text>
</a>
</g>
<!-- Node1&#45;&gt;Node2 -->
<g id="edge2" class="edge"><title>Node1&#45;&gt;Node2</title>
<path fill="none" stroke="midnightblue" d="M134,-134.719C134,-125.572 134,-115.625 134,-107.441"/>
<polygon fill="midnightblue" stroke="midnightblue" points="130.5,-134.937 134,-144.937 137.5,-134.937 130.5,-134.937"/>
</g>
<!-- Node3 -->
<g id="node5" class="node"><title>Node3</title>
<a xlink:href="../../dd/ddc/chunked__read__only__memory_8hh.html" target="_top" xlink:title="harpoon/memory/chunked\l_read_only_memory.hh">
<polygon fill="white" stroke="black" points="-0.5,-1 -0.5,-35 128.5,-35 128.5,-1 -0.5,-1"/>
<text text-anchor="start" x="7.5" y="-22" font-family="Helvetica,sans-Serif" font-size="10.00">harpoon/memory/chunked</text>
<text text-anchor="middle" x="64" y="-9" font-family="Helvetica,sans-Serif" font-size="10.00">_read_only_memory.hh</text>
</a>
</g>
<!-- Node2&#45;&gt;Node3 -->
<g id="edge4" class="edge"><title>Node2&#45;&gt;Node3</title>
<path fill="none" stroke="midnightblue" d="M110.346,-65.6706C100.706,-55.7551 89.7786,-44.5151 80.9562,-35.4407"/>
<polygon fill="midnightblue" stroke="midnightblue" points="107.931,-68.2068 117.411,-72.937 112.95,-63.3272 107.931,-68.2068"/>
</g>
<!-- Node4 -->
<g id="node7" class="node"><title>Node4</title>
<a xlink:href="../../dd/db0/linear__read__only__memory_8hh.html" target="_top" xlink:title="harpoon/memory/linear\l_read_only_memory.hh">
<polygon fill="white" stroke="black" points="146,-1 146,-35 264,-35 264,-1 146,-1"/>
<text text-anchor="start" x="154" y="-22" font-family="Helvetica,sans-Serif" font-size="10.00">harpoon/memory/linear</text>
<text text-anchor="middle" x="205" y="-9" font-family="Helvetica,sans-Serif" font-size="10.00">_read_only_memory.hh</text>
</a>
</g>
<!-- Node2&#45;&gt;Node4 -->
<g id="edge6" class="edge"><title>Node2&#45;&gt;Node4</title>
<path fill="none" stroke="midnightblue" d="M157.992,-65.6706C167.769,-55.7551 178.853,-44.5151 187.802,-35.4407"/>
<polygon fill="midnightblue" stroke="midnightblue" points="155.355,-63.3591 150.826,-72.937 160.34,-68.2742 155.355,-63.3591"/>
</g>
</g>
</svg>
