<?xml version="1.0" encoding="UTF-8" standalone="no"?>
<!DOCTYPE svg PUBLIC "-//W3C//DTD SVG 1.1//EN"
 "http://www.w3.org/Graphics/SVG/1.1/DTD/svg11.dtd">
<!-- Generated by graphviz version 2.26.3 (20100126.1600)
 -->
<!-- Title: harpoon/memory/linear_random_access_memory.hh Pages: 1 -->
<!--zoomable 492 -->
<svg id="main" version="1.1" xmlns="http://www.w3.org/2000/svg" xmlns:xlink="http://www.w3.org/1999/xlink" xml:space="preserve" onload="init(evt)">
<style type="text/css"><![CDATA[
.edge:hover path { stroke: red; }
.edge:hover polygon { stroke: red; fill: red; }
]]></style>
<script type="text/javascript"><![CDATA[
var edges = document.getElementsByTagName('g');
if (edges && edges.length) {
  for (var i=0;i<edges.length;i++) {
    if (edges[i].id.substr(0,4)=='edge') {
      edges[i].setAttribute('class','edge');
    }
  }
}
]]></script>
        <defs>
                <circle id="rim" cx="0" cy="0" r="7"/>
                <circle id="rim2" cx="0" cy="0" r="3.5"/>
                <g id="zoomPlus">
                        <use xlink:href="#rim" fill="#404040">
                                <set attributeName="fill" to="#808080" begin="zoomplus.mouseover" end="zoomplus.mouseout"/>
                        </use>
                        <path d="M-4,0h8M0,-4v8" fill="none" stroke="white" stroke-width="1.5" pointer-events="none"/>
                </g>
                <g id="zoomMin">
                        <use xlink:href="#rim" fill="#404040">
                                <set attributeName="fill" to="#808080" begin="zoomminus.mouseover" end="zoomminus.mouseout"/>
                        </use>
                        <path d="M-4,0h8" fill="none" stroke="white" stroke-width="1.5" pointer-events="none"/>
                </g>
                <g id="dirArrow">
                        <path fill="none" stroke="white" stroke-width="1.5" d="M0,-3.0v7 M-2.5,-0.5L0,-3.0L2.5,-0.5"/>
                </g>
               <g id="resetDef">
                       <use xlink:href="#rim2" fill="#404040">
                               <set attributeName="fill" to="#808080" begin="reset.mouseover" end="reset.mouseout"/>
                       </use>
               </g>
        </defs>

<script type="text/javascript">
var viewWidth = 589;
var viewHeight = 492;
var sectionId = 'dynsection-0';
</script>
<script xlink:href="../../svgpan.js"/>
<svg id="graph" class="graph">
<g id="viewport">
<title>harpoon/memory/linear_random_access_memory.hh</title>
<polygon fill="white" stroke="white" points="-4,5 -4,-488 585.825,-488 585.825,5 -4,5"/>
<!-- Node1 -->
<g id="node1" class="node"><title>Node1</title>
<polygon fill="#bfbfbf" stroke="black" points="63.5,-449 63.5,-483 208.5,-483 208.5,-449 63.5,-449"/>
<text text-anchor="start" x="71.5" y="-470" font-family="Helvetica,sans-Serif" font-size="10.00">harpoon/memory/linear</text>
<text text-anchor="middle" x="136" y="-457" font-family="Helvetica,sans-Serif" font-size="10.00">_random_access_memory.hh</text>
</g>
<!-- Node2 -->
<g id="node3" class="node"><title>Node2</title>
<a xlink:href="../../d5/d08/harpoon_8hh.html" target="_top" xlink:title="Harpoon library common header file. ">
<polygon fill="white" stroke="black" points="279,-58.5 279,-79.5 381,-79.5 381,-58.5 279,-58.5"/>
<text text-anchor="middle" x="330" y="-66.5" font-family="Helvetica,sans-Serif" font-size="10.00">harpoon/harpoon.hh</text>
</a>
</g>
<!-- Node1&#45;&gt;Node2 -->
<g id="edge2" class="edge"><title>Node1&#45;&gt;Node2</title>
<path fill="none" stroke="midnightblue" d="M102.032,-448.966C61.75,-426.078 0,-381.318 0,-322 0,-322 0,-322 0,-192 0,-150.305 19.6033,-138.035 55,-116 89.8314,-94.3168 199.001,-80.7487 268.861,-74.0512"/>
<polygon fill="midnightblue" stroke="midnightblue" points="269.24,-77.5311 278.87,-73.1127 268.587,-70.5616 269.24,-77.5311"/>
</g>
<!-- Node7 -->
<g id="node13" class="node"><title>Node7</title>
<a xlink:href="../../d1/d70/linear__memory_8hh.html" target="_top" xlink:title="harpoon/memory/linear\l_memory.hh">
<polygon fill="white" stroke="black" points="78,-377 78,-411 194,-411 194,-377 78,-377"/>
<text text-anchor="start" x="86" y="-398" font-family="Helvetica,sans-Serif" font-size="10.00">harpoon/memory/linear</text>
<text text-anchor="middle" x="136" y="-385" font-family="Helvetica,sans-Serif" font-size="10.00">_memory.hh</text>
</a>
</g>
<!-- Node1&#45;&gt;Node7 -->
<g id="edge12" class="edge"><title>Node1&#45;&gt;Node7</title>
<path fill="none" stroke="midnightblue" d="M136,-448.937C136,-440.807 136,-430.876 136,-421.705"/>
<polygon fill="midnightblue" stroke="midnightblue" points="139.5,-421.441 136,-411.441 132.5,-421.441 139.5,-421.441"/>
</g>
<!-- Node19 -->
<g id="node45" class="node"><title>Node19</title>
<a xlink:href="../../d3/dc0/random__access__memory_8hh.html" target="_top" xlink:title="harpoon/memory/random\l_access_memory.hh">
<polygon fill="white" stroke="black" points="414.5,-305 414.5,-339 539.5,-339 539.5,-305 414.5,-305"/>
<text text-anchor="start" x="422.5" y="-326" font-family="Helvetica,sans-Serif" font-size="10.00">harpoon/memory/random</text>
<text text-anchor="middle" x="477" y="-313" font-family="Helvetica,sans-Serif" font-size="10.00">_access_memory.hh</text>
</a>
</g>
<!-- Node1&#45;&gt;Node19 -->
<g id="edge52" class="edge"><title>Node1&#45;&gt;Node19</title>
<path fill="none" stroke="midnightblue" d="M176.456,-448.916C239.008,-422.501 359.055,-371.807 426.968,-343.128"/>
<polygon fill="midnightblue" stroke="midnightblue" points="428.746,-346.177 436.596,-339.062 426.022,-339.728 428.746,-346.177"/>
</g>
<!-- Node3 -->
<g id="node5" class="node"><title>Node3</title>
<polygon fill="white" stroke="#bfbfbf" points="213.5,-0.5 213.5,-21.5 254.5,-21.5 254.5,-0.5 213.5,-0.5"/>
<text text-anchor="middle" x="234" y="-8.5" font-family="Helvetica,sans-Serif" font-size="10.00">string</text>
</g>
<!-- Node2&#45;&gt;Node3 -->
<g id="edge4" class="edge"><title>Node2&#45;&gt;Node3</title>
<path fill="none" stroke="midnightblue" d="M312.392,-58.3619C297.777,-49.532 276.776,-36.844 260.189,-26.8224"/>
<polygon fill="midnightblue" stroke="midnightblue" points="261.865,-23.7461 251.496,-21.5707 258.246,-29.7376 261.865,-23.7461"/>
</g>
<!-- Node4 -->
<g id="node7" class="node"><title>Node4</title>
<polygon fill="white" stroke="#bfbfbf" points="272,-0.5 272,-21.5 324,-21.5 324,-0.5 272,-0.5"/>
<text text-anchor="middle" x="298" y="-8.5" font-family="Helvetica,sans-Serif" font-size="10.00">memory</text>
</g>
<!-- Node2&#45;&gt;Node4 -->
<g id="edge6" class="edge"><title>Node2&#45;&gt;Node4</title>
<path fill="none" stroke="midnightblue" d="M324.131,-58.3619C319.845,-50.5949 313.913,-39.8426 308.784,-30.5458"/>
<polygon fill="midnightblue" stroke="midnightblue" points="311.727,-28.6357 303.832,-21.5707 305.598,-32.0172 311.727,-28.6357"/>
</g>
<!-- Node5 -->
<g id="node9" class="node"><title>Node5</title>
<polygon fill="white" stroke="#bfbfbf" points="342,-0.5 342,-21.5 382,-21.5 382,-0.5 342,-0.5"/>
<text text-anchor="middle" x="362" y="-8.5" font-family="Helvetica,sans-Serif" font-size="10.00">utility</text>
</g>
<!-- Node2&#45;&gt;Node5 -->
<g id="edge8" class="edge"><title>Node2&#45;&gt;Node5</title>
<path fill="none" stroke="midnightblue" d="M335.869,-58.3619C340.155,-50.5949 346.087,-39.8426 351.216,-30.5458"/>
<polygon fill="midnightblue" stroke="midnightblue" points="354.402,-32.0172 356.168,-21.5707 348.273,-28.6357 354.402,-32.0172"/>
</g>
<!-- Node6 -->
<g id="node11" class="node"><title>Node6</title>
<polygon fill="white" stroke="#bfbfbf" points="400,-0.5 400,-21.5 446,-21.5 446,-0.5 400,-0.5"/>
<text text-anchor="middle" x="423" y="-8.5" font-family="Helvetica,sans-Serif" font-size="10.00">cstdint</text>
</g>
<!-- Node2&#45;&gt;Node6 -->
<g id="edge10" class="edge"><title>Node2&#45;&gt;Node6</title>
<path fill="none" stroke="midnightblue" d="M347.058,-58.3619C361.085,-49.6138 381.184,-37.0786 397.182,-27.1015"/>
<polygon fill="midnightblue" stroke="midnightblue" points="399.418,-29.8323 406.051,-21.5707 395.713,-23.8927 399.418,-29.8323"/>
</g>
<!-- Node7&#45;&gt;Node2 -->
<g id="edge14" class="edge"><title>Node7&#45;&gt;Node2</title>
<path fill="none" stroke="midnightblue" d="M112.775,-376.903C83.7954,-353.405 38,-308.176 38,-257 38,-257 38,-257 38,-192 38,-152.049 53.0023,-138.521 86,-116 115.112,-96.131 206.47,-82.4779 268.751,-75.2005"/>
<polygon fill="midnightblue" stroke="midnightblue" points="269.329,-78.6573 278.867,-74.0444 268.534,-71.7026 269.329,-78.6573"/>
</g>
<!-- Node8 -->
<g id="node16" class="node"><title>Node8</title>
<a xlink:href="../../dc/d3f/memory_8hh.html" target="_top" xlink:title="harpoon/memory/memory.hh">
<polygon fill="white" stroke="black" points="150.5,-311.5 150.5,-332.5 291.5,-332.5 291.5,-311.5 150.5,-311.5"/>
<text text-anchor="middle" x="221" y="-319.5" font-family="Helvetica,sans-Serif" font-size="10.00">harpoon/memory/memory.hh</text>
</a>
</g>
<!-- Node7&#45;&gt;Node8 -->
<g id="edge16" class="edge"><title>Node7&#45;&gt;Node8</title>
<path fill="none" stroke="midnightblue" d="M156.144,-376.937C169.56,-365.573 187.131,-350.689 200.6,-339.28"/>
<polygon fill="midnightblue" stroke="midnightblue" points="203.014,-341.822 208.382,-332.688 198.489,-336.481 203.014,-341.822"/>
</g>
<!-- Node8&#45;&gt;Node2 -->
<g id="edge18" class="edge"><title>Node8&#45;&gt;Node2</title>
<path fill="none" stroke="midnightblue" d="M219.207,-311.121C215.497,-284.852 209.676,-216.964 240,-174 260.401,-145.094 288.613,-165.396 311,-138 322.152,-124.353 326.779,-104.646 328.688,-89.7837"/>
<polygon fill="midnightblue" stroke="midnightblue" points="332.199,-89.8349 329.681,-79.5437 325.232,-89.1592 332.199,-89.8349"/>
</g>
<!-- Node9 -->
<g id="node19" class="node"><title>Node9</title>
<a xlink:href="../../d5/d09/hardware__component_8hh.html" target="_top" xlink:title="Hardware component. ">
<polygon fill="white" stroke="black" points="278.5,-246.5 278.5,-267.5 439.5,-267.5 439.5,-246.5 278.5,-246.5"/>
<text text-anchor="middle" x="359" y="-254.5" font-family="Helvetica,sans-Serif" font-size="10.00">harpoon/hardware_component.hh</text>
</a>
</g>
<!-- Node8&#45;&gt;Node9 -->
<g id="edge20" class="edge"><title>Node8&#45;&gt;Node9</title>
<path fill="none" stroke="midnightblue" d="M243.479,-311.412C266.234,-300.694 301.624,-284.025 327.239,-271.96"/>
<polygon fill="midnightblue" stroke="midnightblue" points="328.975,-275.011 336.53,-267.584 325.992,-268.678 328.975,-275.011"/>
</g>
<!-- Node13 -->
<g id="node30" class="node"><title>Node13</title>
<polygon fill="white" stroke="#bfbfbf" points="526.5,-181.5 526.5,-202.5 555.5,-202.5 555.5,-181.5 526.5,-181.5"/>
<text text-anchor="middle" x="541" y="-189.5" font-family="Helvetica,sans-Serif" font-size="10.00">list</text>
</g>
<!-- Node8&#45;&gt;Node13 -->
<g id="edge50" class="edge"><title>Node8&#45;&gt;Node13</title>
<path fill="none" stroke="midnightblue" d="M291.577,-313.588C337.863,-306.089 398.709,-292.381 448,-268 477.822,-253.249 506.598,-227.361 524.047,-209.95"/>
<polygon fill="midnightblue" stroke="midnightblue" points="526.732,-212.21 531.229,-202.617 521.732,-207.312 526.732,-212.21"/>
</g>
<!-- Node16 -->
<g id="node36" class="node"><title>Node16</title>
<a xlink:href="../../d3/d22/address__range_8hh.html" target="_top" xlink:title="harpoon/memory/address\l_range.hh">
<polygon fill="white" stroke="black" points="66.5,-175 66.5,-209 193.5,-209 193.5,-175 66.5,-175"/>
<text text-anchor="start" x="74.5" y="-196" font-family="Helvetica,sans-Serif" font-size="10.00">harpoon/memory/address</text>
<text text-anchor="middle" x="130" y="-183" font-family="Helvetica,sans-Serif" font-size="10.00">_range.hh</text>
</a>
</g>
<!-- Node8&#45;&gt;Node16 -->
<g id="edge40" class="edge"><title>Node8&#45;&gt;Node16</title>
<path fill="none" stroke="midnightblue" d="M213.553,-311.362C199.32,-291.028 167.893,-246.133 147.898,-217.569"/>
<polygon fill="midnightblue" stroke="midnightblue" points="150.693,-215.459 142.091,-209.273 144.959,-219.473 150.693,-215.459"/>
</g>
<!-- Node9&#45;&gt;Node2 -->
<g id="edge22" class="edge"><title>Node9&#45;&gt;Node2</title>
<path fill="none" stroke="midnightblue" d="M361.069,-246.224C362.78,-236.73 365.074,-222.505 366,-210 367.182,-194.044 368.63,-189.782 366,-174 360.905,-143.429 348.003,-109.828 339.115,-89.0702"/>
<polygon fill="midnightblue" stroke="midnightblue" points="342.236,-87.4735 335.01,-79.7253 335.827,-90.2886 342.236,-87.4735"/>
</g>
<!-- Node10 -->
<g id="node22" class="node"><title>Node10</title>
<a xlink:href="../../d3/de3/log_8hh.html" target="_top" xlink:title="harpoon/log/log.hh">
<polygon fill="white" stroke="black" points="413,-181.5 413,-202.5 509,-202.5 509,-181.5 413,-181.5"/>
<text text-anchor="middle" x="461" y="-189.5" font-family="Helvetica,sans-Serif" font-size="10.00">harpoon/log/log.hh</text>
</a>
</g>
<!-- Node9&#45;&gt;Node10 -->
<g id="edge24" class="edge"><title>Node9&#45;&gt;Node10</title>
<path fill="none" stroke="midnightblue" d="M375.843,-246.267C392.182,-235.855 417.176,-219.927 435.867,-208.016"/>
<polygon fill="midnightblue" stroke="midnightblue" points="437.918,-210.859 444.47,-202.534 434.156,-204.956 437.918,-210.859"/>
</g>
<!-- Node9&#45;&gt;Node13 -->
<g id="edge34" class="edge"><title>Node9&#45;&gt;Node13</title>
<path fill="none" stroke="midnightblue" d="M412.829,-246.419C444.564,-238.899 484.863,-227.072 518,-210 518.828,-209.573 519.656,-209.115 520.479,-208.632"/>
<polygon fill="midnightblue" stroke="midnightblue" points="522.677,-211.368 528.931,-202.816 518.709,-205.602 522.677,-211.368"/>
</g>
<!-- Node14 -->
<g id="node32" class="node"><title>Node14</title>
<polygon fill="white" stroke="#bfbfbf" points="249,-181.5 249,-202.5 295,-202.5 295,-181.5 249,-181.5"/>
<text text-anchor="middle" x="272" y="-189.5" font-family="Helvetica,sans-Serif" font-size="10.00">atomic</text>
</g>
<!-- Node9&#45;&gt;Node14 -->
<g id="edge36" class="edge"><title>Node9&#45;&gt;Node14</title>
<path fill="none" stroke="midnightblue" d="M344.634,-246.267C330.951,-236.044 310.152,-220.504 294.312,-208.67"/>
<polygon fill="midnightblue" stroke="midnightblue" points="296.205,-205.715 286.099,-202.534 292.015,-211.323 296.205,-205.715"/>
</g>
<!-- Node15 -->
<g id="node34" class="node"><title>Node15</title>
<polygon fill="white" stroke="#bfbfbf" points="313,-181.5 313,-202.5 357,-202.5 357,-181.5 313,-181.5"/>
<text text-anchor="middle" x="335" y="-189.5" font-family="Helvetica,sans-Serif" font-size="10.00">mutex</text>
</g>
<!-- Node9&#45;&gt;Node15 -->
<g id="edge38" class="edge"><title>Node9&#45;&gt;Node15</title>
<path fill="none" stroke="midnightblue" d="M355.037,-246.267C351.612,-236.991 346.57,-223.336 342.401,-212.045"/>
<polygon fill="midnightblue" stroke="midnightblue" points="345.637,-210.702 338.889,-202.534 339.07,-213.127 345.637,-210.702"/>
</g>
<!-- Node10&#45;&gt;Node2 -->
<g id="edge26" class="edge"><title>Node10&#45;&gt;Node2</title>
<path fill="none" stroke="midnightblue" d="M450.112,-181.318C434.971,-166.51 406.636,-138.974 382,-116 371.432,-106.145 359.479,-95.3194 349.7,-86.5446"/>
<polygon fill="midnightblue" stroke="midnightblue" points="351.862,-83.7821 342.075,-79.7223 347.194,-88.9987 351.862,-83.7821"/>
</g>
<!-- Node11 -->
<g id="node25" class="node"><title>Node11</title>
<a xlink:href="../../d9/d74/message_8hh.html" target="_top" xlink:title="harpoon/log/message.hh">
<polygon fill="white" stroke="black" points="433.5,-116.5 433.5,-137.5 556.5,-137.5 556.5,-116.5 433.5,-116.5"/>
<text text-anchor="middle" x="495" y="-124.5" font-family="Helvetica,sans-Serif" font-size="10.00">harpoon/log/message.hh</text>
</a>
</g>
<!-- Node10&#45;&gt;Node11 -->
<g id="edge28" class="edge"><title>Node10&#45;&gt;Node11</title>
<path fill="none" stroke="midnightblue" d="M466.614,-181.267C471.516,-171.896 478.755,-158.057 484.695,-146.7"/>
<polygon fill="midnightblue" stroke="midnightblue" points="487.956,-148.017 489.49,-137.534 481.754,-144.772 487.956,-148.017"/>
</g>
<!-- Node11&#45;&gt;Node2 -->
<g id="edge30" class="edge"><title>Node11&#45;&gt;Node2</title>
<path fill="none" stroke="midnightblue" d="M465.12,-116.497C438.337,-107.082 398.855,-93.2036 369.478,-82.8773"/>
<polygon fill="midnightblue" stroke="midnightblue" points="370.531,-79.5374 359.936,-79.5231 368.21,-86.1413 370.531,-79.5374"/>
</g>
<!-- Node12 -->
<g id="node28" class="node"><title>Node12</title>
<polygon fill="white" stroke="#bfbfbf" points="469,-58.5 469,-79.5 521,-79.5 521,-58.5 469,-58.5"/>
<text text-anchor="middle" x="495" y="-66.5" font-family="Helvetica,sans-Serif" font-size="10.00">sstream</text>
</g>
<!-- Node11&#45;&gt;Node12 -->
<g id="edge32" class="edge"><title>Node11&#45;&gt;Node12</title>
<path fill="none" stroke="midnightblue" d="M495,-116.362C495,-108.922 495,-98.7427 495,-89.7276"/>
<polygon fill="midnightblue" stroke="midnightblue" points="498.5,-89.5706 495,-79.5707 491.5,-89.5707 498.5,-89.5706"/>
</g>
<!-- Node16&#45;&gt;Node2 -->
<g id="edge42" class="edge"><title>Node16&#45;&gt;Node2</title>
<path fill="none" stroke="midnightblue" d="M112.142,-174.918C97.1915,-158.539 80.4489,-133.75 95,-116 116.583,-89.6735 206.594,-77.7995 268.734,-72.6585"/>
<polygon fill="midnightblue" stroke="midnightblue" points="269.143,-76.1372 278.837,-71.8611 268.592,-69.1589 269.143,-76.1372"/>
</g>
<!-- Node17 -->
<g id="node39" class="node"><title>Node17</title>
<a xlink:href="../../db/db3/address_8hh.html" target="_top" xlink:title="harpoon/memory/address.hh">
<polygon fill="white" stroke="black" points="104,-116.5 104,-137.5 244,-137.5 244,-116.5 104,-116.5"/>
<text text-anchor="middle" x="174" y="-124.5" font-family="Helvetica,sans-Serif" font-size="10.00">harpoon/memory/address.hh</text>
</a>
</g>
<!-- Node16&#45;&gt;Node17 -->
<g id="edge44" class="edge"><title>Node16&#45;&gt;Node17</title>
<path fill="none" stroke="midnightblue" d="M141.56,-174.922C147.519,-166.12 154.806,-155.354 160.964,-146.258"/>
<polygon fill="midnightblue" stroke="midnightblue" points="163.947,-148.095 166.654,-137.852 158.15,-144.171 163.947,-148.095"/>
</g>
<!-- Node18 -->
<g id="node42" class="node"><title>Node18</title>
<polygon fill="white" stroke="#bfbfbf" points="262,-116.5 262,-137.5 302,-137.5 302,-116.5 262,-116.5"/>
<text text-anchor="middle" x="282" y="-124.5" font-family="Helvetica,sans-Serif" font-size="10.00">limits</text>
</g>
<!-- Node16&#45;&gt;Node18 -->
<g id="edge48" class="edge"><title>Node16&#45;&gt;Node18</title>
<path fill="none" stroke="midnightblue" d="M169.936,-174.922C195.796,-163.863 228.908,-149.704 252.417,-139.651"/>
<polygon fill="midnightblue" stroke="midnightblue" points="254.036,-142.765 261.855,-135.615 251.284,-136.329 254.036,-142.765"/>
</g>
<!-- Node17&#45;&gt;Node2 -->
<g id="edge46" class="edge"><title>Node17&#45;&gt;Node2</title>
<path fill="none" stroke="midnightblue" d="M202.25,-116.497C227.462,-107.123 264.576,-93.3242 292.312,-83.0122"/>
<polygon fill="midnightblue" stroke="midnightblue" points="293.543,-86.2886 301.697,-79.5231 291.104,-79.7274 293.543,-86.2886"/>
</g>
<!-- Node19&#45;&gt;Node2 -->
<g id="edge54" class="edge"><title>Node19&#45;&gt;Node2</title>
<path fill="none" stroke="midnightblue" d="M495.443,-304.811C533.674,-267.13 614.066,-175.85 565,-116 543.417,-89.6735 453.406,-77.7995 391.266,-72.6585"/>
<polygon fill="midnightblue" stroke="midnightblue" points="391.408,-69.1589 381.163,-71.8611 390.857,-76.1372 391.408,-69.1589"/>
</g>
</g>
</svg>
        <g id="navigator" transform="translate(0 0)" fill="#404254">
                <rect fill="#f2f5e9" fill-opacity="0.5" stroke="#606060" stroke-width=".5" x="0" y="0" width="60" height="60"/>
                <use id="zoomplus" xlink:href="#zoomPlus" x="17" y="9" onmousedown="handleZoom(evt,'in')"/>
                <use id="zoomminus" xlink:href="#zoomMin" x="42" y="9" onmousedown="handleZoom(evt,'out')"/>
                <use id="reset" xlink:href="#resetDef" x="30" y="36" onmousedown="handleReset()"/>
                <g id="arrowUp" xlink:href="#dirArrow" transform="translate(30 24)" onmousedown="handlePan(0,-1)">
                  <use xlink:href="#rim" fill="#404040">
                        <set attributeName="fill" to="#808080" begin="arrowUp.mouseover" end="arrowUp.mouseout"/>
                  </use>
                  <path fill="none" stroke="white" stroke-width="1.5" d="M0,-3.0v7 M-2.5,-0.5L0,-3.0L2.5,-0.5"/>
                </g>
                <g id="arrowRight" xlink:href="#dirArrow" transform="rotate(90) translate(36 -43)" onmousedown="handlePan(1,0)">
                  <use xlink:href="#rim" fill="#404040">
                        <set attributeName="fill" to="#808080" begin="arrowRight.mouseover" end="arrowRight.mouseout"/>
                  </use>
                  <path fill="none" stroke="white" stroke-width="1.5" d="M0,-3.0v7 M-2.5,-0.5L0,-3.0L2.5,-0.5"/>
                </g>
                <g id="arrowDown" xlink:href="#dirArrow" transform="rotate(180) translate(-30 -48)" onmousedown="handlePan(0,1)">
                  <use xlink:href="#rim" fill="#404040">
                        <set attributeName="fill" to="#808080" begin="arrowDown.mouseover" end="arrowDown.mouseout"/>
                  </use>
                  <path fill="none" stroke="white" stroke-width="1.5" d="M0,-3.0v7 M-2.5,-0.5L0,-3.0L2.5,-0.5"/>
                </g>
                <g id="arrowLeft" xlink:href="#dirArrow" transform="rotate(270) translate(-36 17)" onmousedown="handlePan(-1,0)">
                  <use xlink:href="#rim" fill="#404040">
                        <set attributeName="fill" to="#808080" begin="arrowLeft.mouseover" end="arrowLeft.mouseout"/>
                  </use>
                  <path fill="none" stroke="white" stroke-width="1.5" d="M0,-3.0v7 M-2.5,-0.5L0,-3.0L2.5,-0.5"/>
                </g>
        </g>
        <svg viewBox="0 0 15 15" width="100%" height="30px" preserveAspectRatio="xMaxYMin meet">
         <g id="arrow_out" transform="scale(0.3 0.3)">
          <a xlink:href="linear__random__access__memory_8hh__incl_org.svg" target="_base">
           <rect id="button" ry="5" rx="5" y="6" x="6" height="38" width="38"
                fill="#f2f5e9" fill-opacity="0.5" stroke="#606060" stroke-width="1.0"/>
           <path id="arrow"
             d="M 11.500037,31.436501 C 11.940474,20.09759 22.043105,11.32322 32.158766,21.979434 L 37.068811,17.246167 C 37.068811,17.246167 37.088388,32 37.088388,32 L 22.160133,31.978069 C 22.160133,31.978069 26.997745,27.140456 26.997745,27.140456 C 18.528582,18.264221 13.291696,25.230495 11.500037,31.436501 z"
             style="fill:#404040;"/>
          </a>
         </g>
        </svg>
</svg>
