<?xml version="1.0" encoding="UTF-8" standalone="no"?>
<!DOCTYPE svg PUBLIC "-//W3C//DTD SVG 1.1//EN"
 "http://www.w3.org/Graphics/SVG/1.1/DTD/svg11.dtd">
<!-- Generated by graphviz version 2.26.3 (20100126.1600)
 -->
<!-- Title: harpoon/memory/linear_random_access_memory.hh Pages: 1 -->
<svg width="594pt" height="492pt"
 viewBox="0.00 0.00 593.66 492.00" xmlns="http://www.w3.org/2000/svg" xmlns:xlink="http://www.w3.org/1999/xlink">
<g id="graph1" class="graph" transform="scale(1 1) rotate(0) translate(4 488)">
<title>harpoon/memory/linear_random_access_memory.hh</title>
<polygon fill="white" stroke="white" points="-4,5 -4,-488 590.664,-488 590.664,5 -4,5"/>
<!-- Node1 -->
<g id="node1" class="node"><title>Node1</title>
<polygon fill="#bfbfbf" stroke="black" points="17.5,-449 17.5,-483 162.5,-483 162.5,-449 17.5,-449"/>
<text text-anchor="start" x="25.5" y="-470" font-family="Helvetica,sans-Serif" font-size="10.00">harpoon/memory/linear</text>
<text text-anchor="middle" x="90" y="-457" font-family="Helvetica,sans-Serif" font-size="10.00">_random_access_memory.hh</text>
</g>
<!-- Node2 -->
<g id="node3" class="node"><title>Node2</title>
<a xlink:href="../../d5/d08/harpoon_8hh.html" target="_top" xlink:title="Harpoon library common header file. ">
<polygon fill="white" stroke="black" points="221,-58.5 221,-79.5 323,-79.5 323,-58.5 221,-58.5"/>
<text text-anchor="middle" x="272" y="-66.5" font-family="Helvetica,sans-Serif" font-size="10.00">harpoon/harpoon.hh</text>
</a>
</g>
<!-- Node1&#45;&gt;Node2 -->
<g id="edge2" class="edge"><title>Node1&#45;&gt;Node2</title>
<path fill="none" stroke="midnightblue" d="M70.0261,-448.657C43.5114,-423.596 0,-374.477 0,-322 0,-322 0,-322 0,-192 0,-148.408 24.9132,-138.909 62,-116 86.5604,-100.829 157.996,-86.8467 210.762,-78.1468"/>
<polygon fill="midnightblue" stroke="midnightblue" points="211.404,-81.5885 220.714,-76.5316 210.283,-74.6789 211.404,-81.5885"/>
</g>
<!-- Node6 -->
<g id="node11" class="node"><title>Node6</title>
<a xlink:href="../../d1/d70/linear__memory_8hh.html" target="_top" xlink:title="harpoon/memory/linear\l_memory.hh">
<polygon fill="white" stroke="black" points="197,-377 197,-411 313,-411 313,-377 197,-377"/>
<text text-anchor="start" x="205" y="-398" font-family="Helvetica,sans-Serif" font-size="10.00">harpoon/memory/linear</text>
<text text-anchor="middle" x="255" y="-385" font-family="Helvetica,sans-Serif" font-size="10.00">_memory.hh</text>
</a>
</g>
<!-- Node1&#45;&gt;Node6 -->
<g id="edge10" class="edge"><title>Node1&#45;&gt;Node6</title>
<path fill="none" stroke="midnightblue" d="M129.103,-448.937C152.341,-438.797 182.001,-425.854 206.695,-415.078"/>
<polygon fill="midnightblue" stroke="midnightblue" points="208.127,-418.273 215.892,-411.065 205.327,-411.857 208.127,-418.273"/>
</g>
<!-- Node17 -->
<g id="node41" class="node"><title>Node17</title>
<a xlink:href="../../d3/dc0/random__access__memory_8hh.html" target="_top" xlink:title="harpoon/memory/random\l_access_memory.hh">
<polygon fill="white" stroke="black" points="27.5,-305 27.5,-339 152.5,-339 152.5,-305 27.5,-305"/>
<text text-anchor="start" x="35.5" y="-326" font-family="Helvetica,sans-Serif" font-size="10.00">harpoon/memory/random</text>
<text text-anchor="middle" x="90" y="-313" font-family="Helvetica,sans-Serif" font-size="10.00">_access_memory.hh</text>
</a>
</g>
<!-- Node1&#45;&gt;Node17 -->
<g id="edge48" class="edge"><title>Node1&#45;&gt;Node17</title>
<path fill="none" stroke="midnightblue" d="M90,-448.916C90,-424.341 90,-378.753 90,-349.427"/>
<polygon fill="midnightblue" stroke="midnightblue" points="93.5001,-349.062 90,-339.062 86.5001,-349.062 93.5001,-349.062"/>
</g>
<!-- Node3 -->
<g id="node5" class="node"><title>Node3</title>
<polygon fill="white" stroke="#bfbfbf" points="187.5,-0.5 187.5,-21.5 228.5,-21.5 228.5,-0.5 187.5,-0.5"/>
<text text-anchor="middle" x="208" y="-8.5" font-family="Helvetica,sans-Serif" font-size="10.00">string</text>
</g>
<!-- Node2&#45;&gt;Node3 -->
<g id="edge4" class="edge"><title>Node2&#45;&gt;Node3</title>
<path fill="none" stroke="midnightblue" d="M260.261,-58.3619C251.059,-50.0226 238.06,-38.2418 227.328,-28.5162"/>
<polygon fill="midnightblue" stroke="midnightblue" points="229.424,-25.6924 219.664,-21.5707 224.724,-30.8793 229.424,-25.6924"/>
</g>
<!-- Node4 -->
<g id="node7" class="node"><title>Node4</title>
<polygon fill="white" stroke="#bfbfbf" points="246,-0.5 246,-21.5 298,-21.5 298,-0.5 246,-0.5"/>
<text text-anchor="middle" x="272" y="-8.5" font-family="Helvetica,sans-Serif" font-size="10.00">memory</text>
</g>
<!-- Node2&#45;&gt;Node4 -->
<g id="edge6" class="edge"><title>Node2&#45;&gt;Node4</title>
<path fill="none" stroke="midnightblue" d="M272,-58.3619C272,-50.9219 272,-40.7427 272,-31.7276"/>
<polygon fill="midnightblue" stroke="midnightblue" points="275.5,-31.5706 272,-21.5707 268.5,-31.5707 275.5,-31.5706"/>
</g>
<!-- Node5 -->
<g id="node9" class="node"><title>Node5</title>
<polygon fill="white" stroke="#bfbfbf" points="316,-0.5 316,-21.5 356,-21.5 356,-0.5 316,-0.5"/>
<text text-anchor="middle" x="336" y="-8.5" font-family="Helvetica,sans-Serif" font-size="10.00">utility</text>
</g>
<!-- Node2&#45;&gt;Node5 -->
<g id="edge8" class="edge"><title>Node2&#45;&gt;Node5</title>
<path fill="none" stroke="midnightblue" d="M283.739,-58.3619C292.941,-50.0226 305.94,-38.2418 316.672,-28.5162"/>
<polygon fill="midnightblue" stroke="midnightblue" points="319.276,-30.8793 324.336,-21.5707 314.576,-25.6924 319.276,-30.8793"/>
</g>
<!-- Node6&#45;&gt;Node2 -->
<g id="edge12" class="edge"><title>Node6&#45;&gt;Node2</title>
<path fill="none" stroke="midnightblue" d="M313.061,-382.282C407.511,-361.534 584,-315.005 584,-257 584,-257 584,-257 584,-192 584,-157.183 590.654,-139.539 565,-116 532.099,-85.811 409.411,-74.956 333.617,-71.0936"/>
<polygon fill="midnightblue" stroke="midnightblue" points="333.405,-67.5793 323.248,-70.5937 333.067,-74.5712 333.405,-67.5793"/>
</g>
<!-- Node7 -->
<g id="node14" class="node"><title>Node7</title>
<a xlink:href="../../dc/d3f/memory_8hh.html" target="_top" xlink:title="harpoon/memory/memory.hh">
<polygon fill="white" stroke="black" points="184.5,-311.5 184.5,-332.5 325.5,-332.5 325.5,-311.5 184.5,-311.5"/>
<text text-anchor="middle" x="255" y="-319.5" font-family="Helvetica,sans-Serif" font-size="10.00">harpoon/memory/memory.hh</text>
</a>
</g>
<!-- Node6&#45;&gt;Node7 -->
<g id="edge14" class="edge"><title>Node6&#45;&gt;Node7</title>
<path fill="none" stroke="midnightblue" d="M255,-376.937C255,-366.814 255,-353.898 255,-343.133"/>
<polygon fill="midnightblue" stroke="midnightblue" points="258.5,-342.901 255,-332.901 251.5,-342.901 258.5,-342.901"/>
</g>
<!-- Node7&#45;&gt;Node2 -->
<g id="edge16" class="edge"><title>Node7&#45;&gt;Node2</title>
<path fill="none" stroke="midnightblue" d="M234.966,-311.305C180.456,-280.85 37.2999,-191.021 95,-116 109.236,-97.4902 165.41,-84.7478 210.708,-77.2484"/>
<polygon fill="midnightblue" stroke="midnightblue" points="211.455,-80.6734 220.776,-75.6365 210.348,-73.7614 211.455,-80.6734"/>
</g>
<!-- Node8 -->
<g id="node17" class="node"><title>Node8</title>
<a xlink:href="../../d5/d09/hardware__component_8hh.html" target="_top" xlink:title="Hardware component. ">
<polygon fill="white" stroke="black" points="296.5,-246.5 296.5,-267.5 457.5,-267.5 457.5,-246.5 296.5,-246.5"/>
<text text-anchor="middle" x="377" y="-254.5" font-family="Helvetica,sans-Serif" font-size="10.00">harpoon/hardware_component.hh</text>
</a>
</g>
<!-- Node7&#45;&gt;Node8 -->
<g id="edge18" class="edge"><title>Node7&#45;&gt;Node8</title>
<path fill="none" stroke="midnightblue" d="M274.873,-311.412C294.724,-300.836 325.451,-284.465 348.019,-272.441"/>
<polygon fill="midnightblue" stroke="midnightblue" points="349.956,-275.375 357.136,-267.584 346.664,-269.197 349.956,-275.375"/>
</g>
<!-- Node12 -->
<g id="node28" class="node"><title>Node12</title>
<polygon fill="white" stroke="#bfbfbf" points="311.5,-181.5 311.5,-202.5 340.5,-202.5 340.5,-181.5 311.5,-181.5"/>
<text text-anchor="middle" x="326" y="-189.5" font-family="Helvetica,sans-Serif" font-size="10.00">list</text>
</g>
<!-- Node7&#45;&gt;Node12 -->
<g id="edge46" class="edge"><title>Node7&#45;&gt;Node12</title>
<path fill="none" stroke="midnightblue" d="M258.834,-311.352C264.409,-296.349 275.469,-268.328 288,-246 294.856,-233.784 303.826,-220.925 311.329,-210.822"/>
<polygon fill="midnightblue" stroke="midnightblue" points="314.205,-212.822 317.455,-202.738 308.625,-208.594 314.205,-212.822"/>
</g>
<!-- Node14 -->
<g id="node32" class="node"><title>Node14</title>
<a xlink:href="../../d3/d22/address__range_8hh.html" target="_top" xlink:title="harpoon/memory/address\l_range.hh">
<polygon fill="white" stroke="black" points="167.5,-175 167.5,-209 294.5,-209 294.5,-175 167.5,-175"/>
<text text-anchor="start" x="175.5" y="-196" font-family="Helvetica,sans-Serif" font-size="10.00">harpoon/memory/address</text>
<text text-anchor="middle" x="231" y="-183" font-family="Helvetica,sans-Serif" font-size="10.00">_range.hh</text>
</a>
</g>
<!-- Node7&#45;&gt;Node14 -->
<g id="edge36" class="edge"><title>Node7&#45;&gt;Node14</title>
<path fill="none" stroke="midnightblue" d="M253.036,-311.362C249.363,-291.466 241.349,-248.057 236.065,-219.438"/>
<polygon fill="midnightblue" stroke="midnightblue" points="239.446,-218.472 234.189,-209.273 232.563,-219.743 239.446,-218.472"/>
</g>
<!-- Node8&#45;&gt;Node2 -->
<g id="edge20" class="edge"><title>Node8&#45;&gt;Node2</title>
<path fill="none" stroke="midnightblue" d="M377.64,-246.344C378.607,-221.229 377.856,-157.339 349,-116 339.367,-102.199 324.253,-91.7033 309.958,-84.1691"/>
<polygon fill="midnightblue" stroke="midnightblue" points="311.266,-80.9121 300.747,-79.6409 308.177,-87.1939 311.266,-80.9121"/>
</g>
<!-- Node9 -->
<g id="node20" class="node"><title>Node9</title>
<a xlink:href="../../d3/de3/log_8hh.html" target="_top" xlink:title="harpoon/log/log.hh">
<polygon fill="white" stroke="black" points="396,-181.5 396,-202.5 492,-202.5 492,-181.5 396,-181.5"/>
<text text-anchor="middle" x="444" y="-189.5" font-family="Helvetica,sans-Serif" font-size="10.00">harpoon/log/log.hh</text>
</a>
</g>
<!-- Node8&#45;&gt;Node9 -->
<g id="edge22" class="edge"><title>Node8&#45;&gt;Node9</title>
<path fill="none" stroke="midnightblue" d="M388.064,-246.267C398.308,-236.328 413.733,-221.363 425.792,-209.664"/>
<polygon fill="midnightblue" stroke="midnightblue" points="428.402,-212.009 433.142,-202.534 423.528,-206.985 428.402,-212.009"/>
</g>
<!-- Node8&#45;&gt;Node12 -->
<g id="edge32" class="edge"><title>Node8&#45;&gt;Node12</title>
<path fill="none" stroke="midnightblue" d="M368.578,-246.267C361.003,-236.612 349.707,-222.215 340.653,-210.675"/>
<polygon fill="midnightblue" stroke="midnightblue" points="343.191,-208.241 334.265,-202.534 337.684,-212.562 343.191,-208.241"/>
</g>
<!-- Node13 -->
<g id="node30" class="node"><title>Node13</title>
<polygon fill="white" stroke="#bfbfbf" points="510,-181.5 510,-202.5 556,-202.5 556,-181.5 510,-181.5"/>
<text text-anchor="middle" x="533" y="-189.5" font-family="Helvetica,sans-Serif" font-size="10.00">atomic</text>
</g>
<!-- Node8&#45;&gt;Node13 -->
<g id="edge34" class="edge"><title>Node8&#45;&gt;Node13</title>
<path fill="none" stroke="midnightblue" d="M408.623,-246.49C434.007,-237.703 470.343,-224.334 501,-210 502.776,-209.17 504.586,-208.279 506.398,-207.355"/>
<polygon fill="midnightblue" stroke="midnightblue" points="508.151,-210.387 515.308,-202.575 504.842,-204.218 508.151,-210.387"/>
</g>
<!-- Node9&#45;&gt;Node2 -->
<g id="edge24" class="edge"><title>Node9&#45;&gt;Node2</title>
<path fill="none" stroke="midnightblue" d="M437.661,-181.292C427.652,-165.186 406.762,-134.635 382,-116 362.876,-101.608 338.678,-90.6488 317.849,-82.9484"/>
<polygon fill="midnightblue" stroke="midnightblue" points="318.835,-79.5844 308.24,-79.5343 316.491,-86.1804 318.835,-79.5844"/>
</g>
<!-- Node10 -->
<g id="node23" class="node"><title>Node10</title>
<a xlink:href="../../d9/d74/message_8hh.html" target="_top" xlink:title="harpoon/log/message.hh">
<polygon fill="white" stroke="black" points="433.5,-116.5 433.5,-137.5 556.5,-137.5 556.5,-116.5 433.5,-116.5"/>
<text text-anchor="middle" x="495" y="-124.5" font-family="Helvetica,sans-Serif" font-size="10.00">harpoon/log/message.hh</text>
</a>
</g>
<!-- Node9&#45;&gt;Node10 -->
<g id="edge26" class="edge"><title>Node9&#45;&gt;Node10</title>
<path fill="none" stroke="midnightblue" d="M452.422,-181.267C459.997,-171.612 471.293,-157.215 480.347,-145.675"/>
<polygon fill="midnightblue" stroke="midnightblue" points="483.316,-147.562 486.735,-137.534 477.809,-143.241 483.316,-147.562"/>
</g>
<!-- Node10&#45;&gt;Node2 -->
<g id="edge28" class="edge"><title>Node10&#45;&gt;Node2</title>
<path fill="none" stroke="midnightblue" d="M454.616,-116.497C417.474,-106.836 362.263,-92.4765 322.277,-82.0765"/>
<polygon fill="midnightblue" stroke="midnightblue" points="323.018,-78.653 312.459,-79.5231 321.256,-85.4276 323.018,-78.653"/>
</g>
<!-- Node11 -->
<g id="node26" class="node"><title>Node11</title>
<polygon fill="white" stroke="#bfbfbf" points="469,-58.5 469,-79.5 521,-79.5 521,-58.5 469,-58.5"/>
<text text-anchor="middle" x="495" y="-66.5" font-family="Helvetica,sans-Serif" font-size="10.00">sstream</text>
</g>
<!-- Node10&#45;&gt;Node11 -->
<g id="edge30" class="edge"><title>Node10&#45;&gt;Node11</title>
<path fill="none" stroke="midnightblue" d="M495,-116.362C495,-108.922 495,-98.7427 495,-89.7276"/>
<polygon fill="midnightblue" stroke="midnightblue" points="498.5,-89.5706 495,-79.5707 491.5,-89.5707 498.5,-89.5706"/>
</g>
<!-- Node14&#45;&gt;Node2 -->
<g id="edge38" class="edge"><title>Node14&#45;&gt;Node2</title>
<path fill="none" stroke="midnightblue" d="M238.663,-174.688C243.156,-164.19 248.763,-150.459 253,-138 258.429,-122.035 263.442,-103.604 266.954,-89.8098"/>
<polygon fill="midnightblue" stroke="midnightblue" points="270.407,-90.4258 269.428,-79.8763 263.615,-88.734 270.407,-90.4258"/>
</g>
<!-- Node15 -->
<g id="node35" class="node"><title>Node15</title>
<a xlink:href="../../db/db3/address_8hh.html" target="_top" xlink:title="harpoon/memory/address.hh">
<polygon fill="white" stroke="black" points="104,-116.5 104,-137.5 244,-137.5 244,-116.5 104,-116.5"/>
<text text-anchor="middle" x="174" y="-124.5" font-family="Helvetica,sans-Serif" font-size="10.00">harpoon/memory/address.hh</text>
</a>
</g>
<!-- Node14&#45;&gt;Node15 -->
<g id="edge40" class="edge"><title>Node14&#45;&gt;Node15</title>
<path fill="none" stroke="midnightblue" d="M216.024,-174.922C208.064,-165.845 198.273,-154.679 190.144,-145.41"/>
<polygon fill="midnightblue" stroke="midnightblue" points="192.741,-143.063 183.516,-137.852 187.478,-147.678 192.741,-143.063"/>
</g>
<!-- Node16 -->
<g id="node38" class="node"><title>Node16</title>
<polygon fill="white" stroke="#bfbfbf" points="300,-116.5 300,-137.5 340,-137.5 340,-116.5 300,-116.5"/>
<text text-anchor="middle" x="320" y="-124.5" font-family="Helvetica,sans-Serif" font-size="10.00">limits</text>
</g>
<!-- Node14&#45;&gt;Node16 -->
<g id="edge44" class="edge"><title>Node14&#45;&gt;Node16</title>
<path fill="none" stroke="midnightblue" d="M254.384,-174.922C267.65,-165.233 284.175,-153.165 297.322,-143.562"/>
<polygon fill="midnightblue" stroke="midnightblue" points="299.395,-146.383 305.406,-137.658 295.266,-140.73 299.395,-146.383"/>
</g>
<!-- Node15&#45;&gt;Node2 -->
<g id="edge42" class="edge"><title>Node15&#45;&gt;Node2</title>
<path fill="none" stroke="midnightblue" d="M191.975,-116.362C206.894,-107.532 228.333,-94.844 245.266,-84.8224"/>
<polygon fill="midnightblue" stroke="midnightblue" points="247.316,-87.6759 254.139,-79.5707 243.751,-81.6519 247.316,-87.6759"/>
</g>
<!-- Node17&#45;&gt;Node2 -->
<g id="edge50" class="edge"><title>Node17&#45;&gt;Node2</title>
<path fill="none" stroke="midnightblue" d="M82.2983,-304.826C66.3528,-266.374 34.7461,-172.324 79,-116 95.2453,-95.3239 160.62,-82.6032 210.828,-75.6968"/>
<polygon fill="midnightblue" stroke="midnightblue" points="211.516,-79.1364 220.969,-74.3515 210.595,-72.1972 211.516,-79.1364"/>
</g>
</g>
</svg>
