<?xml version="1.0" encoding="UTF-8" standalone="no"?>
<!DOCTYPE svg PUBLIC "-//W3C//DTD SVG 1.1//EN"
 "http://www.w3.org/Graphics/SVG/1.1/DTD/svg11.dtd">
<!-- Generated by graphviz version 2.26.3 (20100126.1600)
 -->
<!-- Title: harpoon/memory/main_memory.hh Pages: 1 -->
<!--zoomable 406 -->
<svg id="main" version="1.1" xmlns="http://www.w3.org/2000/svg" xmlns:xlink="http://www.w3.org/1999/xlink" xml:space="preserve" onload="init(evt)">
<style type="text/css"><![CDATA[
.edge:hover path { stroke: red; }
.edge:hover polygon { stroke: red; fill: red; }
]]></style>
<script type="text/javascript"><![CDATA[
var edges = document.getElementsByTagName('g');
if (edges && edges.length) {
  for (var i=0;i<edges.length;i++) {
    if (edges[i].id.substr(0,4)=='edge') {
      edges[i].setAttribute('class','edge');
    }
  }
}
]]></script>
        <defs>
                <circle id="rim" cx="0" cy="0" r="7"/>
                <circle id="rim2" cx="0" cy="0" r="3.5"/>
                <g id="zoomPlus">
                        <use xlink:href="#rim" fill="#404040">
                                <set attributeName="fill" to="#808080" begin="zoomplus.mouseover" end="zoomplus.mouseout"/>
                        </use>
                        <path d="M-4,0h8M0,-4v8" fill="none" stroke="white" stroke-width="1.5" pointer-events="none"/>
                </g>
                <g id="zoomMin">
                        <use xlink:href="#rim" fill="#404040">
                                <set attributeName="fill" to="#808080" begin="zoomminus.mouseover" end="zoomminus.mouseout"/>
                        </use>
                        <path d="M-4,0h8" fill="none" stroke="white" stroke-width="1.5" pointer-events="none"/>
                </g>
                <g id="dirArrow">
                        <path fill="none" stroke="white" stroke-width="1.5" d="M0,-3.0v7 M-2.5,-0.5L0,-3.0L2.5,-0.5"/>
                </g>
               <g id="resetDef">
                       <use xlink:href="#rim2" fill="#404040">
                               <set attributeName="fill" to="#808080" begin="reset.mouseover" end="reset.mouseout"/>
                       </use>
               </g>
        </defs>

<script type="text/javascript">
var viewWidth = 526;
var viewHeight = 406;
var sectionId = 'dynsection-0';
</script>
<script xlink:href="../../svgpan.js"/>
<svg id="graph" class="graph">
<g id="viewport">
<title>harpoon/memory/main_memory.hh</title>
<polygon fill="white" stroke="white" points="-4,5 -4,-402 523,-402 523,5 -4,5"/>
<!-- Node1 -->
<g id="node1" class="node"><title>Node1</title>
<polygon fill="#bfbfbf" stroke="black" points="68.5,-363 68.5,-397 181.5,-397 181.5,-363 68.5,-363"/>
<text text-anchor="start" x="76.5" y="-384" font-family="Helvetica,sans-Serif" font-size="10.00">harpoon/memory/main</text>
<text text-anchor="middle" x="125" y="-371" font-family="Helvetica,sans-Serif" font-size="10.00">_memory.hh</text>
</g>
<!-- Node2 -->
<g id="node3" class="node"><title>Node2</title>
<a xlink:href="../../d5/d08/harpoon_8hh.html" target="_top" xlink:title="Harpoon library common header file. ">
<polygon fill="white" stroke="black" points="123,-58.5 123,-79.5 225,-79.5 225,-58.5 123,-58.5"/>
<text text-anchor="middle" x="174" y="-66.5" font-family="Helvetica,sans-Serif" font-size="10.00">harpoon/harpoon.hh</text>
</a>
</g>
<!-- Node1&#45;&gt;Node2 -->
<g id="edge2" class="edge"><title>Node1&#45;&gt;Node2</title>
<path fill="none" stroke="midnightblue" d="M87.8343,-362.926C50.9877,-343.145 0,-306.779 0,-257 0,-257 0,-257 0,-192 0,-132.397 68.9204,-99.0979 120.01,-82.6019"/>
<polygon fill="midnightblue" stroke="midnightblue" points="121.125,-85.9205 129.642,-79.6192 119.054,-79.2338 121.125,-85.9205"/>
</g>
<!-- Node7 -->
<g id="node13" class="node"><title>Node7</title>
<a xlink:href="../../dc/d3f/memory_8hh.html" target="_top" xlink:title="harpoon/memory/memory.hh">
<polygon fill="white" stroke="black" points="54.5,-304.5 54.5,-325.5 195.5,-325.5 195.5,-304.5 54.5,-304.5"/>
<text text-anchor="middle" x="125" y="-312.5" font-family="Helvetica,sans-Serif" font-size="10.00">harpoon/memory/memory.hh</text>
</a>
</g>
<!-- Node1&#45;&gt;Node7 -->
<g id="edge12" class="edge"><title>Node1&#45;&gt;Node7</title>
<path fill="none" stroke="midnightblue" d="M125,-362.922C125,-354.67 125,-344.692 125,-335.982"/>
<polygon fill="midnightblue" stroke="midnightblue" points="128.5,-335.852 125,-325.852 121.5,-335.852 128.5,-335.852"/>
</g>
<!-- Node12 -->
<g id="node27" class="node"><title>Node12</title>
<polygon fill="white" stroke="#bfbfbf" points="209.5,-181.5 209.5,-202.5 238.5,-202.5 238.5,-181.5 209.5,-181.5"/>
<text text-anchor="middle" x="224" y="-189.5" font-family="Helvetica,sans-Serif" font-size="10.00">list</text>
</g>
<!-- Node1&#45;&gt;Node12 -->
<g id="edge48" class="edge"><title>Node1&#45;&gt;Node12</title>
<path fill="none" stroke="midnightblue" d="M162.491,-362.931C177.765,-354.075 194.121,-341.768 204,-326 225.951,-290.962 227.187,-240.863 225.806,-212.906"/>
<polygon fill="midnightblue" stroke="midnightblue" points="229.284,-212.456 225.133,-202.708 222.299,-212.917 229.284,-212.456"/>
</g>
<!-- Node3 -->
<g id="node5" class="node"><title>Node3</title>
<polygon fill="white" stroke="#bfbfbf" points="57.5,-0.5 57.5,-21.5 98.5,-21.5 98.5,-0.5 57.5,-0.5"/>
<text text-anchor="middle" x="78" y="-8.5" font-family="Helvetica,sans-Serif" font-size="10.00">string</text>
</g>
<!-- Node2&#45;&gt;Node3 -->
<g id="edge4" class="edge"><title>Node2&#45;&gt;Node3</title>
<path fill="none" stroke="midnightblue" d="M156.392,-58.3619C141.777,-49.532 120.776,-36.844 104.189,-26.8224"/>
<polygon fill="midnightblue" stroke="midnightblue" points="105.865,-23.7461 95.4963,-21.5707 102.246,-29.7376 105.865,-23.7461"/>
</g>
<!-- Node4 -->
<g id="node7" class="node"><title>Node4</title>
<polygon fill="white" stroke="#bfbfbf" points="116,-0.5 116,-21.5 168,-21.5 168,-0.5 116,-0.5"/>
<text text-anchor="middle" x="142" y="-8.5" font-family="Helvetica,sans-Serif" font-size="10.00">memory</text>
</g>
<!-- Node2&#45;&gt;Node4 -->
<g id="edge6" class="edge"><title>Node2&#45;&gt;Node4</title>
<path fill="none" stroke="midnightblue" d="M168.131,-58.3619C163.845,-50.5949 157.913,-39.8426 152.784,-30.5458"/>
<polygon fill="midnightblue" stroke="midnightblue" points="155.727,-28.6357 147.832,-21.5707 149.598,-32.0172 155.727,-28.6357"/>
</g>
<!-- Node5 -->
<g id="node9" class="node"><title>Node5</title>
<polygon fill="white" stroke="#bfbfbf" points="186,-0.5 186,-21.5 226,-21.5 226,-0.5 186,-0.5"/>
<text text-anchor="middle" x="206" y="-8.5" font-family="Helvetica,sans-Serif" font-size="10.00">utility</text>
</g>
<!-- Node2&#45;&gt;Node5 -->
<g id="edge8" class="edge"><title>Node2&#45;&gt;Node5</title>
<path fill="none" stroke="midnightblue" d="M179.869,-58.3619C184.155,-50.5949 190.087,-39.8426 195.216,-30.5458"/>
<polygon fill="midnightblue" stroke="midnightblue" points="198.402,-32.0172 200.168,-21.5707 192.273,-28.6357 198.402,-32.0172"/>
</g>
<!-- Node6 -->
<g id="node11" class="node"><title>Node6</title>
<polygon fill="white" stroke="#bfbfbf" points="244,-0.5 244,-21.5 290,-21.5 290,-0.5 244,-0.5"/>
<text text-anchor="middle" x="267" y="-8.5" font-family="Helvetica,sans-Serif" font-size="10.00">cstdint</text>
</g>
<!-- Node2&#45;&gt;Node6 -->
<g id="edge10" class="edge"><title>Node2&#45;&gt;Node6</title>
<path fill="none" stroke="midnightblue" d="M191.058,-58.3619C205.085,-49.6138 225.184,-37.0786 241.182,-27.1015"/>
<polygon fill="midnightblue" stroke="midnightblue" points="243.418,-29.8323 250.051,-21.5707 239.713,-23.8927 243.418,-29.8323"/>
</g>
<!-- Node7&#45;&gt;Node2 -->
<g id="edge14" class="edge"><title>Node7&#45;&gt;Node2</title>
<path fill="none" stroke="midnightblue" d="M113.756,-304.26C91.2721,-281.436 43.9916,-225.935 57,-174 64.1017,-145.647 67.4286,-136.764 88,-116 101.514,-102.359 119.826,-91.6118 136.079,-83.8571"/>
<polygon fill="midnightblue" stroke="midnightblue" points="137.704,-86.963 145.359,-79.6379 134.807,-80.5907 137.704,-86.963"/>
</g>
<!-- Node8 -->
<g id="node16" class="node"><title>Node8</title>
<a xlink:href="../../d5/d09/hardware__component_8hh.html" target="_top" xlink:title="Hardware component. ">
<polygon fill="white" stroke="black" points="250.5,-246.5 250.5,-267.5 411.5,-267.5 411.5,-246.5 250.5,-246.5"/>
<text text-anchor="middle" x="331" y="-254.5" font-family="Helvetica,sans-Serif" font-size="10.00">harpoon/hardware_component.hh</text>
</a>
</g>
<!-- Node7&#45;&gt;Node8 -->
<g id="edge16" class="edge"><title>Node7&#45;&gt;Node8</title>
<path fill="none" stroke="midnightblue" d="M162.305,-304.497C196.325,-294.918 246.755,-280.72 283.614,-270.342"/>
<polygon fill="midnightblue" stroke="midnightblue" points="284.948,-273.602 293.625,-267.523 283.051,-266.864 284.948,-273.602"/>
</g>
<!-- Node7&#45;&gt;Node12 -->
<g id="edge46" class="edge"><title>Node7&#45;&gt;Node12</title>
<path fill="none" stroke="midnightblue" d="M133.786,-304.085C150.707,-283.061 187.995,-236.733 208.949,-210.7"/>
<polygon fill="midnightblue" stroke="midnightblue" points="211.832,-212.7 215.375,-202.715 206.379,-208.311 211.832,-212.7"/>
</g>
<!-- Node15 -->
<g id="node33" class="node"><title>Node15</title>
<a xlink:href="../../d3/d22/address__range_8hh.html" target="_top" xlink:title="harpoon/memory/address\l_range.hh">
<polygon fill="white" stroke="black" points="65.5,-175 65.5,-209 192.5,-209 192.5,-175 65.5,-175"/>
<text text-anchor="start" x="73.5" y="-196" font-family="Helvetica,sans-Serif" font-size="10.00">harpoon/memory/address</text>
<text text-anchor="middle" x="129" y="-183" font-family="Helvetica,sans-Serif" font-size="10.00">_range.hh</text>
</a>
</g>
<!-- Node7&#45;&gt;Node15 -->
<g id="edge36" class="edge"><title>Node7&#45;&gt;Node15</title>
<path fill="none" stroke="midnightblue" d="M125.355,-304.085C125.967,-285.275 127.237,-246.21 128.104,-219.547"/>
<polygon fill="midnightblue" stroke="midnightblue" points="131.61,-219.426 128.437,-209.317 124.614,-219.198 131.61,-219.426"/>
</g>
<!-- Node8&#45;&gt;Node2 -->
<g id="edge18" class="edge"><title>Node8&#45;&gt;Node2</title>
<path fill="none" stroke="midnightblue" d="M332.894,-246.347C336.814,-220.681 342.971,-154.689 311,-116 300.331,-103.089 263.666,-90.8875 230.95,-82.1537"/>
<polygon fill="midnightblue" stroke="midnightblue" points="231.516,-78.6845 220.957,-79.5575 229.756,-85.4596 231.516,-78.6845"/>
</g>
<!-- Node9 -->
<g id="node19" class="node"><title>Node9</title>
<a xlink:href="../../d3/de3/log_8hh.html" target="_top" xlink:title="harpoon/log/log.hh">
<polygon fill="white" stroke="black" points="358,-181.5 358,-202.5 454,-202.5 454,-181.5 358,-181.5"/>
<text text-anchor="middle" x="406" y="-189.5" font-family="Helvetica,sans-Serif" font-size="10.00">harpoon/log/log.hh</text>
</a>
</g>
<!-- Node8&#45;&gt;Node9 -->
<g id="edge20" class="edge"><title>Node8&#45;&gt;Node9</title>
<path fill="none" stroke="midnightblue" d="M343.385,-246.267C354.962,-236.233 372.448,-221.078 386.003,-209.331"/>
<polygon fill="midnightblue" stroke="midnightblue" points="388.581,-211.728 393.846,-202.534 383.997,-206.438 388.581,-211.728"/>
</g>
<!-- Node8&#45;&gt;Node12 -->
<g id="edge30" class="edge"><title>Node8&#45;&gt;Node12</title>
<path fill="none" stroke="midnightblue" d="M311.109,-246.354C294.288,-237.174 269.692,-223.328 249,-210 248.213,-209.493 247.417,-208.972 246.617,-208.439"/>
<polygon fill="midnightblue" stroke="midnightblue" points="248.315,-205.358 238.101,-202.54 244.328,-211.112 248.315,-205.358"/>
</g>
<!-- Node13 -->
<g id="node29" class="node"><title>Node13</title>
<polygon fill="white" stroke="#bfbfbf" points="472,-181.5 472,-202.5 518,-202.5 518,-181.5 472,-181.5"/>
<text text-anchor="middle" x="495" y="-189.5" font-family="Helvetica,sans-Serif" font-size="10.00">atomic</text>
</g>
<!-- Node8&#45;&gt;Node13 -->
<g id="edge32" class="edge"><title>Node8&#45;&gt;Node13</title>
<path fill="none" stroke="midnightblue" d="M365.544,-246.487C392.551,-237.843 430.787,-224.666 463,-210 464.784,-209.188 466.601,-208.311 468.417,-207.397"/>
<polygon fill="midnightblue" stroke="midnightblue" points="470.161,-210.434 477.339,-202.641 466.868,-204.257 470.161,-210.434"/>
</g>
<!-- Node14 -->
<g id="node31" class="node"><title>Node14</title>
<polygon fill="white" stroke="#bfbfbf" points="258,-181.5 258,-202.5 302,-202.5 302,-181.5 258,-181.5"/>
<text text-anchor="middle" x="280" y="-189.5" font-family="Helvetica,sans-Serif" font-size="10.00">mutex</text>
</g>
<!-- Node8&#45;&gt;Node14 -->
<g id="edge34" class="edge"><title>Node8&#45;&gt;Node14</title>
<path fill="none" stroke="midnightblue" d="M322.578,-246.267C315.003,-236.612 303.707,-222.215 294.653,-210.675"/>
<polygon fill="midnightblue" stroke="midnightblue" points="297.191,-208.241 288.265,-202.534 291.684,-212.562 297.191,-208.241"/>
</g>
<!-- Node9&#45;&gt;Node2 -->
<g id="edge22" class="edge"><title>Node9&#45;&gt;Node2</title>
<path fill="none" stroke="midnightblue" d="M400.273,-181.409C390.789,-164.892 370.24,-133.121 344,-116 311.439,-94.7549 269.36,-83.0223 235.213,-76.5924"/>
<polygon fill="midnightblue" stroke="midnightblue" points="235.808,-73.1433 225.349,-74.8392 234.583,-80.0353 235.808,-73.1433"/>
</g>
<!-- Node10 -->
<g id="node22" class="node"><title>Node10</title>
<a xlink:href="../../d9/d74/message_8hh.html" target="_top" xlink:title="harpoon/log/message.hh">
<polygon fill="white" stroke="black" points="395.5,-116.5 395.5,-137.5 518.5,-137.5 518.5,-116.5 395.5,-116.5"/>
<text text-anchor="middle" x="457" y="-124.5" font-family="Helvetica,sans-Serif" font-size="10.00">harpoon/log/message.hh</text>
</a>
</g>
<!-- Node9&#45;&gt;Node10 -->
<g id="edge24" class="edge"><title>Node9&#45;&gt;Node10</title>
<path fill="none" stroke="midnightblue" d="M414.422,-181.267C421.997,-171.612 433.293,-157.215 442.347,-145.675"/>
<polygon fill="midnightblue" stroke="midnightblue" points="445.316,-147.562 448.735,-137.534 439.809,-143.241 445.316,-147.562"/>
</g>
<!-- Node10&#45;&gt;Node2 -->
<g id="edge26" class="edge"><title>Node10&#45;&gt;Node2</title>
<path fill="none" stroke="midnightblue" d="M405.751,-116.497C357.817,-106.673 286.167,-91.9884 235.241,-81.5512"/>
<polygon fill="midnightblue" stroke="midnightblue" points="235.844,-78.1021 225.345,-79.5231 234.439,-84.9596 235.844,-78.1021"/>
</g>
<!-- Node11 -->
<g id="node25" class="node"><title>Node11</title>
<polygon fill="white" stroke="#bfbfbf" points="431,-58.5 431,-79.5 483,-79.5 483,-58.5 431,-58.5"/>
<text text-anchor="middle" x="457" y="-66.5" font-family="Helvetica,sans-Serif" font-size="10.00">sstream</text>
</g>
<!-- Node10&#45;&gt;Node11 -->
<g id="edge28" class="edge"><title>Node10&#45;&gt;Node11</title>
<path fill="none" stroke="midnightblue" d="M457,-116.362C457,-108.922 457,-98.7427 457,-89.7276"/>
<polygon fill="midnightblue" stroke="midnightblue" points="460.5,-89.5706 457,-79.5707 453.5,-89.5707 460.5,-89.5706"/>
</g>
<!-- Node15&#45;&gt;Node2 -->
<g id="edge38" class="edge"><title>Node15&#45;&gt;Node2</title>
<path fill="none" stroke="midnightblue" d="M112.127,-174.94C98.7252,-159.229 83.9249,-135.476 95,-116 103.154,-101.661 117.602,-91.2393 131.932,-83.9088"/>
<polygon fill="midnightblue" stroke="midnightblue" points="133.699,-86.9456 141.264,-79.528 130.725,-80.609 133.699,-86.9456"/>
</g>
<!-- Node16 -->
<g id="node36" class="node"><title>Node16</title>
<a xlink:href="../../db/db3/address_8hh.html" target="_top" xlink:title="harpoon/memory/address.hh">
<polygon fill="white" stroke="black" points="104,-116.5 104,-137.5 244,-137.5 244,-116.5 104,-116.5"/>
<text text-anchor="middle" x="174" y="-124.5" font-family="Helvetica,sans-Serif" font-size="10.00">harpoon/memory/address.hh</text>
</a>
</g>
<!-- Node15&#45;&gt;Node16 -->
<g id="edge40" class="edge"><title>Node15&#45;&gt;Node16</title>
<path fill="none" stroke="midnightblue" d="M140.823,-174.922C146.917,-166.12 154.37,-155.354 160.668,-146.258"/>
<polygon fill="midnightblue" stroke="midnightblue" points="163.673,-148.066 166.487,-137.852 157.917,-144.082 163.673,-148.066"/>
</g>
<!-- Node17 -->
<g id="node39" class="node"><title>Node17</title>
<polygon fill="white" stroke="#bfbfbf" points="262,-116.5 262,-137.5 302,-137.5 302,-116.5 262,-116.5"/>
<text text-anchor="middle" x="282" y="-124.5" font-family="Helvetica,sans-Serif" font-size="10.00">limits</text>
</g>
<!-- Node15&#45;&gt;Node17 -->
<g id="edge44" class="edge"><title>Node15&#45;&gt;Node17</title>
<path fill="none" stroke="midnightblue" d="M169.199,-174.922C195.229,-163.863 228.559,-149.704 252.222,-139.651"/>
<polygon fill="midnightblue" stroke="midnightblue" points="253.887,-142.746 261.722,-135.615 251.15,-136.304 253.887,-142.746"/>
</g>
<!-- Node16&#45;&gt;Node2 -->
<g id="edge42" class="edge"><title>Node16&#45;&gt;Node2</title>
<path fill="none" stroke="midnightblue" d="M174,-116.362C174,-108.922 174,-98.7427 174,-89.7276"/>
<polygon fill="midnightblue" stroke="midnightblue" points="177.5,-89.5706 174,-79.5707 170.5,-89.5707 177.5,-89.5706"/>
</g>
</g>
</svg>
        <g id="navigator" transform="translate(0 0)" fill="#404254">
                <rect fill="#f2f5e9" fill-opacity="0.5" stroke="#606060" stroke-width=".5" x="0" y="0" width="60" height="60"/>
                <use id="zoomplus" xlink:href="#zoomPlus" x="17" y="9" onmousedown="handleZoom(evt,'in')"/>
                <use id="zoomminus" xlink:href="#zoomMin" x="42" y="9" onmousedown="handleZoom(evt,'out')"/>
                <use id="reset" xlink:href="#resetDef" x="30" y="36" onmousedown="handleReset()"/>
                <g id="arrowUp" xlink:href="#dirArrow" transform="translate(30 24)" onmousedown="handlePan(0,-1)">
                  <use xlink:href="#rim" fill="#404040">
                        <set attributeName="fill" to="#808080" begin="arrowUp.mouseover" end="arrowUp.mouseout"/>
                  </use>
                  <path fill="none" stroke="white" stroke-width="1.5" d="M0,-3.0v7 M-2.5,-0.5L0,-3.0L2.5,-0.5"/>
                </g>
                <g id="arrowRight" xlink:href="#dirArrow" transform="rotate(90) translate(36 -43)" onmousedown="handlePan(1,0)">
                  <use xlink:href="#rim" fill="#404040">
                        <set attributeName="fill" to="#808080" begin="arrowRight.mouseover" end="arrowRight.mouseout"/>
                  </use>
                  <path fill="none" stroke="white" stroke-width="1.5" d="M0,-3.0v7 M-2.5,-0.5L0,-3.0L2.5,-0.5"/>
                </g>
                <g id="arrowDown" xlink:href="#dirArrow" transform="rotate(180) translate(-30 -48)" onmousedown="handlePan(0,1)">
                  <use xlink:href="#rim" fill="#404040">
                        <set attributeName="fill" to="#808080" begin="arrowDown.mouseover" end="arrowDown.mouseout"/>
                  </use>
                  <path fill="none" stroke="white" stroke-width="1.5" d="M0,-3.0v7 M-2.5,-0.5L0,-3.0L2.5,-0.5"/>
                </g>
                <g id="arrowLeft" xlink:href="#dirArrow" transform="rotate(270) translate(-36 17)" onmousedown="handlePan(-1,0)">
                  <use xlink:href="#rim" fill="#404040">
                        <set attributeName="fill" to="#808080" begin="arrowLeft.mouseover" end="arrowLeft.mouseout"/>
                  </use>
                  <path fill="none" stroke="white" stroke-width="1.5" d="M0,-3.0v7 M-2.5,-0.5L0,-3.0L2.5,-0.5"/>
                </g>
        </g>
        <svg viewBox="0 0 15 15" width="100%" height="30px" preserveAspectRatio="xMaxYMin meet">
         <g id="arrow_out" transform="scale(0.3 0.3)">
          <a xlink:href="main__memory_8hh__incl_org.svg" target="_base">
           <rect id="button" ry="5" rx="5" y="6" x="6" height="38" width="38"
                fill="#f2f5e9" fill-opacity="0.5" stroke="#606060" stroke-width="1.0"/>
           <path id="arrow"
             d="M 11.500037,31.436501 C 11.940474,20.09759 22.043105,11.32322 32.158766,21.979434 L 37.068811,17.246167 C 37.068811,17.246167 37.088388,32 37.088388,32 L 22.160133,31.978069 C 22.160133,31.978069 26.997745,27.140456 26.997745,27.140456 C 18.528582,18.264221 13.291696,25.230495 11.500037,31.436501 z"
             style="fill:#404040;"/>
          </a>
         </g>
        </svg>
</svg>
