<?xml version="1.0" encoding="UTF-8" standalone="no"?>
<!DOCTYPE svg PUBLIC "-//W3C//DTD SVG 1.1//EN"
 "http://www.w3.org/Graphics/SVG/1.1/DTD/svg11.dtd">
<!-- Generated by graphviz version 2.26.3 (20100126.1600)
 -->
<!-- Title: harpoon/memory/main_memory.hh Pages: 1 -->
<svg width="536pt" height="406pt"
 viewBox="0.00 0.00 536.00 406.00" xmlns="http://www.w3.org/2000/svg" xmlns:xlink="http://www.w3.org/1999/xlink">
<g id="graph1" class="graph" transform="scale(1 1) rotate(0) translate(4 402)">
<title>harpoon/memory/main_memory.hh</title>
<polygon fill="white" stroke="white" points="-4,5 -4,-402 533,-402 533,5 -4,5"/>
<!-- Node1 -->
<g id="node1" class="node"><title>Node1</title>
<polygon fill="#bfbfbf" stroke="black" points="92.5,-363 92.5,-397 205.5,-397 205.5,-363 92.5,-363"/>
<text text-anchor="start" x="100.5" y="-384" font-family="Helvetica,sans-Serif" font-size="10.00">harpoon/memory/main</text>
<text text-anchor="middle" x="149" y="-371" font-family="Helvetica,sans-Serif" font-size="10.00">_memory.hh</text>
</g>
<!-- Node2 -->
<g id="node3" class="node"><title>Node2</title>
<a xlink:href="../../d5/d08/harpoon_8hh.html" target="_top" xlink:title="Harpoon library common header file. ">
<polygon fill="white" stroke="black" points="123,-58.5 123,-79.5 225,-79.5 225,-58.5 123,-58.5"/>
<text text-anchor="middle" x="174" y="-66.5" font-family="Helvetica,sans-Serif" font-size="10.00">harpoon/harpoon.hh</text>
</a>
</g>
<!-- Node1&#45;&gt;Node2 -->
<g id="edge2" class="edge"><title>Node1&#45;&gt;Node2</title>
<path fill="none" stroke="midnightblue" d="M99.7989,-362.848C56.3985,-344.212 0,-309.831 0,-257 0,-257 0,-257 0,-192 0,-132.397 68.9204,-99.0979 120.01,-82.6019"/>
<polygon fill="midnightblue" stroke="midnightblue" points="121.125,-85.9205 129.642,-79.6192 119.054,-79.2338 121.125,-85.9205"/>
</g>
<!-- Node6 -->
<g id="node11" class="node"><title>Node6</title>
<a xlink:href="../../dc/d3f/memory_8hh.html" target="_top" xlink:title="harpoon/memory/memory.hh">
<polygon fill="white" stroke="black" points="78.5,-304.5 78.5,-325.5 219.5,-325.5 219.5,-304.5 78.5,-304.5"/>
<text text-anchor="middle" x="149" y="-312.5" font-family="Helvetica,sans-Serif" font-size="10.00">harpoon/memory/memory.hh</text>
</a>
</g>
<!-- Node1&#45;&gt;Node6 -->
<g id="edge10" class="edge"><title>Node1&#45;&gt;Node6</title>
<path fill="none" stroke="midnightblue" d="M149,-362.922C149,-354.67 149,-344.692 149,-335.982"/>
<polygon fill="midnightblue" stroke="midnightblue" points="152.5,-335.852 149,-325.852 145.5,-335.852 152.5,-335.852"/>
</g>
<!-- Node11 -->
<g id="node25" class="node"><title>Node11</title>
<polygon fill="white" stroke="#bfbfbf" points="232.5,-181.5 232.5,-202.5 261.5,-202.5 261.5,-181.5 232.5,-181.5"/>
<text text-anchor="middle" x="247" y="-189.5" font-family="Helvetica,sans-Serif" font-size="10.00">list</text>
</g>
<!-- Node1&#45;&gt;Node11 -->
<g id="edge44" class="edge"><title>Node1&#45;&gt;Node11</title>
<path fill="none" stroke="midnightblue" d="M186.545,-362.965C201.83,-354.115 218.179,-341.804 228,-326 249.8,-290.919 250.62,-240.836 248.994,-212.893"/>
<polygon fill="midnightblue" stroke="midnightblue" points="252.468,-212.412 248.231,-202.701 245.487,-212.935 252.468,-212.412"/>
</g>
<!-- Node3 -->
<g id="node5" class="node"><title>Node3</title>
<polygon fill="white" stroke="#bfbfbf" points="89.5,-0.5 89.5,-21.5 130.5,-21.5 130.5,-0.5 89.5,-0.5"/>
<text text-anchor="middle" x="110" y="-8.5" font-family="Helvetica,sans-Serif" font-size="10.00">string</text>
</g>
<!-- Node2&#45;&gt;Node3 -->
<g id="edge4" class="edge"><title>Node2&#45;&gt;Node3</title>
<path fill="none" stroke="midnightblue" d="M162.261,-58.3619C153.059,-50.0226 140.06,-38.2418 129.328,-28.5162"/>
<polygon fill="midnightblue" stroke="midnightblue" points="131.424,-25.6924 121.664,-21.5707 126.724,-30.8793 131.424,-25.6924"/>
</g>
<!-- Node4 -->
<g id="node7" class="node"><title>Node4</title>
<polygon fill="white" stroke="#bfbfbf" points="148,-0.5 148,-21.5 200,-21.5 200,-0.5 148,-0.5"/>
<text text-anchor="middle" x="174" y="-8.5" font-family="Helvetica,sans-Serif" font-size="10.00">memory</text>
</g>
<!-- Node2&#45;&gt;Node4 -->
<g id="edge6" class="edge"><title>Node2&#45;&gt;Node4</title>
<path fill="none" stroke="midnightblue" d="M174,-58.3619C174,-50.9219 174,-40.7427 174,-31.7276"/>
<polygon fill="midnightblue" stroke="midnightblue" points="177.5,-31.5706 174,-21.5707 170.5,-31.5707 177.5,-31.5706"/>
</g>
<!-- Node5 -->
<g id="node9" class="node"><title>Node5</title>
<polygon fill="white" stroke="#bfbfbf" points="218,-0.5 218,-21.5 258,-21.5 258,-0.5 218,-0.5"/>
<text text-anchor="middle" x="238" y="-8.5" font-family="Helvetica,sans-Serif" font-size="10.00">utility</text>
</g>
<!-- Node2&#45;&gt;Node5 -->
<g id="edge8" class="edge"><title>Node2&#45;&gt;Node5</title>
<path fill="none" stroke="midnightblue" d="M185.739,-58.3619C194.941,-50.0226 207.94,-38.2418 218.672,-28.5162"/>
<polygon fill="midnightblue" stroke="midnightblue" points="221.276,-30.8793 226.336,-21.5707 216.576,-25.6924 221.276,-30.8793"/>
</g>
<!-- Node6&#45;&gt;Node2 -->
<g id="edge12" class="edge"><title>Node6&#45;&gt;Node2</title>
<path fill="none" stroke="midnightblue" d="M138.81,-304.49C122.41,-286.758 90.8088,-249.002 79,-210 74.3635,-194.687 77.7697,-189.953 79,-174 81.0059,-147.991 73.0071,-137.347 88,-116 98.1229,-101.587 114.121,-91.1449 129.587,-83.8195"/>
<polygon fill="midnightblue" stroke="midnightblue" points="131.338,-86.8737 139.091,-79.6534 128.527,-80.4626 131.338,-86.8737"/>
</g>
<!-- Node7 -->
<g id="node14" class="node"><title>Node7</title>
<a xlink:href="../../d5/d09/hardware__component_8hh.html" target="_top" xlink:title="Hardware component. ">
<polygon fill="white" stroke="black" points="274.5,-246.5 274.5,-267.5 435.5,-267.5 435.5,-246.5 274.5,-246.5"/>
<text text-anchor="middle" x="355" y="-254.5" font-family="Helvetica,sans-Serif" font-size="10.00">harpoon/hardware_component.hh</text>
</a>
</g>
<!-- Node6&#45;&gt;Node7 -->
<g id="edge14" class="edge"><title>Node6&#45;&gt;Node7</title>
<path fill="none" stroke="midnightblue" d="M186.305,-304.497C220.325,-294.918 270.755,-280.72 307.614,-270.342"/>
<polygon fill="midnightblue" stroke="midnightblue" points="308.948,-273.602 317.625,-267.523 307.051,-266.864 308.948,-273.602"/>
</g>
<!-- Node6&#45;&gt;Node11 -->
<g id="edge42" class="edge"><title>Node6&#45;&gt;Node11</title>
<path fill="none" stroke="midnightblue" d="M157.697,-304.085C174.447,-283.061 211.359,-236.733 232.101,-210.7"/>
<polygon fill="midnightblue" stroke="midnightblue" points="234.968,-212.717 238.463,-202.715 229.494,-208.355 234.968,-212.717"/>
</g>
<!-- Node13 -->
<g id="node29" class="node"><title>Node13</title>
<a xlink:href="../../d3/d22/address__range_8hh.html" target="_top" xlink:title="harpoon/memory/address\l_range.hh">
<polygon fill="white" stroke="black" points="87.5,-175 87.5,-209 214.5,-209 214.5,-175 87.5,-175"/>
<text text-anchor="start" x="95.5" y="-196" font-family="Helvetica,sans-Serif" font-size="10.00">harpoon/memory/address</text>
<text text-anchor="middle" x="151" y="-183" font-family="Helvetica,sans-Serif" font-size="10.00">_range.hh</text>
</a>
</g>
<!-- Node6&#45;&gt;Node13 -->
<g id="edge32" class="edge"><title>Node6&#45;&gt;Node13</title>
<path fill="none" stroke="midnightblue" d="M149.177,-304.085C149.483,-285.275 150.119,-246.21 150.552,-219.547"/>
<polygon fill="midnightblue" stroke="midnightblue" points="154.055,-219.373 150.718,-209.317 147.056,-219.259 154.055,-219.373"/>
</g>
<!-- Node7&#45;&gt;Node2 -->
<g id="edge16" class="edge"><title>Node7&#45;&gt;Node2</title>
<path fill="none" stroke="midnightblue" d="M352.984,-246.43C347.186,-217.034 329.681,-135.212 311,-116 290.948,-95.3787 261.463,-83.8019 234.979,-77.3042"/>
<polygon fill="midnightblue" stroke="midnightblue" points="235.526,-73.8398 225.001,-75.0543 233.986,-80.6683 235.526,-73.8398"/>
</g>
<!-- Node8 -->
<g id="node17" class="node"><title>Node8</title>
<a xlink:href="../../d3/de3/log_8hh.html" target="_top" xlink:title="harpoon/log/log.hh">
<polygon fill="white" stroke="black" points="422,-181.5 422,-202.5 518,-202.5 518,-181.5 422,-181.5"/>
<text text-anchor="middle" x="470" y="-189.5" font-family="Helvetica,sans-Serif" font-size="10.00">harpoon/log/log.hh</text>
</a>
</g>
<!-- Node7&#45;&gt;Node8 -->
<g id="edge18" class="edge"><title>Node7&#45;&gt;Node8</title>
<path fill="none" stroke="midnightblue" d="M373.733,-246.412C392.361,-235.883 421.151,-219.611 442.396,-207.602"/>
<polygon fill="midnightblue" stroke="midnightblue" points="444.292,-210.551 451.275,-202.584 440.847,-204.457 444.292,-210.551"/>
</g>
<!-- Node7&#45;&gt;Node11 -->
<g id="edge28" class="edge"><title>Node7&#45;&gt;Node11</title>
<path fill="none" stroke="midnightblue" d="M337.166,-246.267C318.96,-235.309 290.604,-218.243 270.559,-206.179"/>
<polygon fill="midnightblue" stroke="midnightblue" points="272.107,-203.026 261.734,-200.868 268.497,-209.023 272.107,-203.026"/>
</g>
<!-- Node12 -->
<g id="node27" class="node"><title>Node12</title>
<polygon fill="white" stroke="#bfbfbf" points="358,-181.5 358,-202.5 404,-202.5 404,-181.5 358,-181.5"/>
<text text-anchor="middle" x="381" y="-189.5" font-family="Helvetica,sans-Serif" font-size="10.00">atomic</text>
</g>
<!-- Node7&#45;&gt;Node12 -->
<g id="edge30" class="edge"><title>Node7&#45;&gt;Node12</title>
<path fill="none" stroke="midnightblue" d="M359.293,-246.267C363.004,-236.991 368.465,-223.336 372.982,-212.045"/>
<polygon fill="midnightblue" stroke="midnightblue" points="376.322,-213.118 376.787,-202.534 369.823,-210.519 376.322,-213.118"/>
</g>
<!-- Node8&#45;&gt;Node2 -->
<g id="edge20" class="edge"><title>Node8&#45;&gt;Node2</title>
<path fill="none" stroke="midnightblue" d="M455.582,-181.491C432.878,-165.372 386.945,-134.474 344,-116 309.076,-100.977 268.042,-89.4708 235.038,-81.604"/>
<polygon fill="midnightblue" stroke="midnightblue" points="235.603,-78.1418 225.069,-79.2795 234.013,-84.9589 235.603,-78.1418"/>
</g>
<!-- Node9 -->
<g id="node20" class="node"><title>Node9</title>
<a xlink:href="../../d9/d74/message_8hh.html" target="_top" xlink:title="harpoon/log/message.hh">
<polygon fill="white" stroke="black" points="405.5,-116.5 405.5,-137.5 528.5,-137.5 528.5,-116.5 405.5,-116.5"/>
<text text-anchor="middle" x="467" y="-124.5" font-family="Helvetica,sans-Serif" font-size="10.00">harpoon/log/message.hh</text>
</a>
</g>
<!-- Node8&#45;&gt;Node9 -->
<g id="edge22" class="edge"><title>Node8&#45;&gt;Node9</title>
<path fill="none" stroke="midnightblue" d="M469.505,-181.267C469.085,-172.18 468.472,-158.892 467.957,-147.74"/>
<polygon fill="midnightblue" stroke="midnightblue" points="471.444,-147.362 467.486,-137.534 464.451,-147.684 471.444,-147.362"/>
</g>
<!-- Node9&#45;&gt;Node2 -->
<g id="edge24" class="edge"><title>Node9&#45;&gt;Node2</title>
<path fill="none" stroke="midnightblue" d="M413.94,-116.497C363.589,-106.53 287.964,-91.5594 235.114,-81.0977"/>
<polygon fill="midnightblue" stroke="midnightblue" points="235.682,-77.6422 225.192,-79.1337 234.322,-84.509 235.682,-77.6422"/>
</g>
<!-- Node10 -->
<g id="node23" class="node"><title>Node10</title>
<polygon fill="white" stroke="#bfbfbf" points="441,-58.5 441,-79.5 493,-79.5 493,-58.5 441,-58.5"/>
<text text-anchor="middle" x="467" y="-66.5" font-family="Helvetica,sans-Serif" font-size="10.00">sstream</text>
</g>
<!-- Node9&#45;&gt;Node10 -->
<g id="edge26" class="edge"><title>Node9&#45;&gt;Node10</title>
<path fill="none" stroke="midnightblue" d="M467,-116.362C467,-108.922 467,-98.7427 467,-89.7276"/>
<polygon fill="midnightblue" stroke="midnightblue" points="470.5,-89.5706 467,-79.5707 463.5,-89.5707 470.5,-89.5706"/>
</g>
<!-- Node13&#45;&gt;Node2 -->
<g id="edge34" class="edge"><title>Node13&#45;&gt;Node2</title>
<path fill="none" stroke="midnightblue" d="M124.292,-174.989C104.448,-160.089 82.7665,-137.513 95,-116 103.154,-101.661 117.602,-91.2393 131.932,-83.9088"/>
<polygon fill="midnightblue" stroke="midnightblue" points="133.699,-86.9456 141.264,-79.528 130.725,-80.609 133.699,-86.9456"/>
</g>
<!-- Node14 -->
<g id="node32" class="node"><title>Node14</title>
<a xlink:href="../../db/db3/address_8hh.html" target="_top" xlink:title="harpoon/memory/address.hh">
<polygon fill="white" stroke="black" points="104,-116.5 104,-137.5 244,-137.5 244,-116.5 104,-116.5"/>
<text text-anchor="middle" x="174" y="-124.5" font-family="Helvetica,sans-Serif" font-size="10.00">harpoon/memory/address.hh</text>
</a>
</g>
<!-- Node13&#45;&gt;Node14 -->
<g id="edge36" class="edge"><title>Node13&#45;&gt;Node14</title>
<path fill="none" stroke="midnightblue" d="M157.043,-174.922C160.028,-166.487 163.651,-156.248 166.78,-147.403"/>
<polygon fill="midnightblue" stroke="midnightblue" points="170.124,-148.447 170.16,-137.852 163.525,-146.112 170.124,-148.447"/>
</g>
<!-- Node15 -->
<g id="node35" class="node"><title>Node15</title>
<polygon fill="white" stroke="#bfbfbf" points="262,-116.5 262,-137.5 302,-137.5 302,-116.5 262,-116.5"/>
<text text-anchor="middle" x="282" y="-124.5" font-family="Helvetica,sans-Serif" font-size="10.00">limits</text>
</g>
<!-- Node13&#45;&gt;Node15 -->
<g id="edge40" class="edge"><title>Node13&#45;&gt;Node15</title>
<path fill="none" stroke="midnightblue" d="M185.419,-174.922C206.266,-164.578 232.581,-151.521 252.476,-141.649"/>
<polygon fill="midnightblue" stroke="midnightblue" points="254.273,-144.665 261.675,-137.085 251.161,-138.394 254.273,-144.665"/>
</g>
<!-- Node14&#45;&gt;Node2 -->
<g id="edge38" class="edge"><title>Node14&#45;&gt;Node2</title>
<path fill="none" stroke="midnightblue" d="M174,-116.362C174,-108.922 174,-98.7427 174,-89.7276"/>
<polygon fill="midnightblue" stroke="midnightblue" points="177.5,-89.5706 174,-79.5707 170.5,-89.5707 177.5,-89.5706"/>
</g>
</g>
</svg>
