<?xml version="1.0" encoding="UTF-8" standalone="no"?>
<!DOCTYPE svg PUBLIC "-//W3C//DTD SVG 1.1//EN"
 "http://www.w3.org/Graphics/SVG/1.1/DTD/svg11.dtd">
<!-- Generated by graphviz version 2.26.3 (20100126.1600)
 -->
<!-- Title: harpoon::memory::chunked_memory Pages: 1 -->
<svg width="304pt" height="1120pt"
 viewBox="0.00 0.00 304.00 1120.00" xmlns="http://www.w3.org/2000/svg" xmlns:xlink="http://www.w3.org/1999/xlink">
<g id="graph1" class="graph" transform="scale(1 1) rotate(0) translate(4 1116)">
<title>harpoon::memory::chunked_memory</title>
<polygon fill="white" stroke="white" points="-4,5 -4,-1116 301,-1116 301,5 -4,5"/>
<!-- Node1 -->
<g id="node1" class="node"><title>Node1</title>
<polygon fill="#bfbfbf" stroke="black" points="82.5,-266.5 82.5,-485.5 217.5,-485.5 217.5,-266.5 82.5,-266.5"/>
<text text-anchor="start" x="90.5" y="-472.5" font-family="Helvetica,sans-Serif" font-size="10.00">harpoon::memory::chunked</text>
<text text-anchor="middle" x="150" y="-459.5" font-family="Helvetica,sans-Serif" font-size="10.00">_memory</text>
<polyline fill="none" stroke="black" points="82.5,-451.5 217.5,-451.5 "/>
<text text-anchor="middle" x="150" y="-438.5" font-family="Helvetica,sans-Serif" font-size="10.00"> </text>
<polyline fill="none" stroke="black" points="82.5,-430.5 217.5,-430.5 "/>
<text text-anchor="start" x="90.5" y="-417.5" font-family="Helvetica,sans-Serif" font-size="10.00">+ chunked_memory()</text>
<text text-anchor="start" x="90.5" y="-404.5" font-family="Helvetica,sans-Serif" font-size="10.00">+ chunked_memory()</text>
<text text-anchor="start" x="90.5" y="-391.5" font-family="Helvetica,sans-Serif" font-size="10.00">+ operator=()</text>
<text text-anchor="start" x="90.5" y="-378.5" font-family="Helvetica,sans-Serif" font-size="10.00">+ prepare()</text>
<text text-anchor="start" x="90.5" y="-365.5" font-family="Helvetica,sans-Serif" font-size="10.00">+ cleanup()</text>
<text text-anchor="start" x="90.5" y="-352.5" font-family="Helvetica,sans-Serif" font-size="10.00">+ get()</text>
<text text-anchor="start" x="90.5" y="-339.5" font-family="Helvetica,sans-Serif" font-size="10.00">+ set()</text>
<text text-anchor="start" x="90.5" y="-326.5" font-family="Helvetica,sans-Serif" font-size="10.00">+ ~chunked_memory()</text>
<text text-anchor="start" x="90.5" y="-313.5" font-family="Helvetica,sans-Serif" font-size="10.00"># get_chunk_index()</text>
<text text-anchor="start" x="90.5" y="-300.5" font-family="Helvetica,sans-Serif" font-size="10.00"># get_chunk_offset()</text>
<text text-anchor="start" x="90.5" y="-287.5" font-family="Helvetica,sans-Serif" font-size="10.00"># get_chunk()</text>
<text text-anchor="start" x="90.5" y="-274.5" font-family="Helvetica,sans-Serif" font-size="10.00"># get_chunk()</text>
</g>
<!-- Node5 -->
<g id="node9" class="node"><title>Node5</title>
<a xlink:href="../../dc/d01/classharpoon_1_1memory_1_1random__access__memory.html" target="_top" xlink:title="{harpoon::memory::random\l_access_memory\&lt; chunked\l_memory \&gt;\n||+ ~random_access_memory()\l}">
<polygon fill="white" stroke="black" points="-0.5,-133.5 -0.5,-222.5 146.5,-222.5 146.5,-133.5 -0.5,-133.5"/>
<text text-anchor="start" x="7.5" y="-209.5" font-family="Helvetica,sans-Serif" font-size="10.00">harpoon::memory::random</text>
<text text-anchor="start" x="7.5" y="-196.5" font-family="Helvetica,sans-Serif" font-size="10.00">_access_memory&lt; chunked</text>
<text text-anchor="middle" x="73" y="-183.5" font-family="Helvetica,sans-Serif" font-size="10.00">_memory &gt;</text>
<polyline fill="none" stroke="black" points="-0.5,-175.5 146.5,-175.5 "/>
<text text-anchor="middle" x="73" y="-162.5" font-family="Helvetica,sans-Serif" font-size="10.00"> </text>
<polyline fill="none" stroke="black" points="-0.5,-154.5 146.5,-154.5 "/>
<text text-anchor="start" x="7.5" y="-141.5" font-family="Helvetica,sans-Serif" font-size="10.00">+ ~random_access_memory()</text>
</a>
</g>
<!-- Node1&#45;&gt;Node5 -->
<g id="edge8" class="edge"><title>Node1&#45;&gt;Node5</title>
<path fill="none" stroke="midnightblue" d="M103.581,-256.636C98.9369,-244.695 94.4538,-233.167 90.4176,-222.788"/>
<polygon fill="none" stroke="midnightblue" points="100.447,-258.236 107.334,-266.287 106.971,-255.699 100.447,-258.236"/>
</g>
<!-- Node7 -->
<g id="node13" class="node"><title>Node7</title>
<a xlink:href="../../db/dd3/classharpoon_1_1memory_1_1read__only__memory.html" target="_top" xlink:title="{harpoon::memory::read\l_only_memory\&lt; chunked\l_memory \&gt;\n||+ set()\l+ ~read_only_memory()\l}">
<polygon fill="white" stroke="black" points="165,-127 165,-229 291,-229 291,-127 165,-127"/>
<text text-anchor="start" x="173" y="-216" font-family="Helvetica,sans-Serif" font-size="10.00">harpoon::memory::read</text>
<text text-anchor="start" x="173" y="-203" font-family="Helvetica,sans-Serif" font-size="10.00">_only_memory&lt; chunked</text>
<text text-anchor="middle" x="228" y="-190" font-family="Helvetica,sans-Serif" font-size="10.00">_memory &gt;</text>
<polyline fill="none" stroke="black" points="165,-182 291,-182 "/>
<text text-anchor="middle" x="228" y="-169" font-family="Helvetica,sans-Serif" font-size="10.00"> </text>
<polyline fill="none" stroke="black" points="165,-161 291,-161 "/>
<text text-anchor="start" x="173" y="-148" font-family="Helvetica,sans-Serif" font-size="10.00">+ set()</text>
<text text-anchor="start" x="173" y="-135" font-family="Helvetica,sans-Serif" font-size="10.00">+ ~read_only_memory()</text>
</a>
</g>
<!-- Node1&#45;&gt;Node7 -->
<g id="edge12" class="edge"><title>Node1&#45;&gt;Node7</title>
<path fill="none" stroke="midnightblue" d="M196.993,-256.71C200.737,-247.207 204.378,-237.964 207.77,-229.352"/>
<polygon fill="none" stroke="midnightblue" points="193.629,-255.7 193.22,-266.287 200.142,-258.266 193.629,-255.7"/>
</g>
<!-- Node2 -->
<g id="node2" class="node"><title>Node2</title>
<a xlink:href="../../db/d2f/classharpoon_1_1memory_1_1memory.html" target="_top" xlink:title="{harpoon::memory::memory\n||+ memory()\l+ get_address_range()\l+ get_address_range()\l+ set_address_range()\l+ has_address()\l+ get()\l+ set()\l+ get()\l+ set()\l+ get()\l+ set()\l+ get()\l+ set()\l+ ~memory()\l}">
<polygon fill="white" stroke="black" points="83,-523 83,-755 217,-755 217,-523 83,-523"/>
<text text-anchor="middle" x="150" y="-742" font-family="Helvetica,sans-Serif" font-size="10.00">harpoon::memory::memory</text>
<polyline fill="none" stroke="black" points="83,-734 217,-734 "/>
<text text-anchor="middle" x="150" y="-721" font-family="Helvetica,sans-Serif" font-size="10.00"> </text>
<polyline fill="none" stroke="black" points="83,-713 217,-713 "/>
<text text-anchor="start" x="91" y="-700" font-family="Helvetica,sans-Serif" font-size="10.00">+ memory()</text>
<text text-anchor="start" x="91" y="-687" font-family="Helvetica,sans-Serif" font-size="10.00">+ get_address_range()</text>
<text text-anchor="start" x="91" y="-674" font-family="Helvetica,sans-Serif" font-size="10.00">+ get_address_range()</text>
<text text-anchor="start" x="91" y="-661" font-family="Helvetica,sans-Serif" font-size="10.00">+ set_address_range()</text>
<text text-anchor="start" x="91" y="-648" font-family="Helvetica,sans-Serif" font-size="10.00">+ has_address()</text>
<text text-anchor="start" x="91" y="-635" font-family="Helvetica,sans-Serif" font-size="10.00">+ get()</text>
<text text-anchor="start" x="91" y="-622" font-family="Helvetica,sans-Serif" font-size="10.00">+ set()</text>
<text text-anchor="start" x="91" y="-609" font-family="Helvetica,sans-Serif" font-size="10.00">+ get()</text>
<text text-anchor="start" x="91" y="-596" font-family="Helvetica,sans-Serif" font-size="10.00">+ set()</text>
<text text-anchor="start" x="91" y="-583" font-family="Helvetica,sans-Serif" font-size="10.00">+ get()</text>
<text text-anchor="start" x="91" y="-570" font-family="Helvetica,sans-Serif" font-size="10.00">+ set()</text>
<text text-anchor="start" x="91" y="-557" font-family="Helvetica,sans-Serif" font-size="10.00">+ get()</text>
<text text-anchor="start" x="91" y="-544" font-family="Helvetica,sans-Serif" font-size="10.00">+ set()</text>
<text text-anchor="start" x="91" y="-531" font-family="Helvetica,sans-Serif" font-size="10.00">+ ~memory()</text>
</a>
</g>
<!-- Node2&#45;&gt;Node1 -->
<g id="edge2" class="edge"><title>Node2&#45;&gt;Node1</title>
<path fill="none" stroke="midnightblue" d="M150,-512.687C150,-503.64 150,-494.56 150,-485.619"/>
<polygon fill="none" stroke="midnightblue" points="146.5,-512.879 150,-522.879 153.5,-512.879 146.5,-512.879"/>
</g>
<!-- Node3 -->
<g id="node4" class="node"><title>Node3</title>
<a xlink:href="../../df/d54/classharpoon_1_1hardware__component.html" target="_top" xlink:title="Base class for all hardware components of computer system (i.e. CPU, memory). All components should d...">
<polygon fill="white" stroke="black" points="75,-792.5 75,-985.5 225,-985.5 225,-792.5 75,-792.5"/>
<text text-anchor="middle" x="150" y="-972.5" font-family="Helvetica,sans-Serif" font-size="10.00">harpoon::hardware_component</text>
<polyline fill="none" stroke="black" points="75,-964.5 225,-964.5 "/>
<text text-anchor="middle" x="150" y="-951.5" font-family="Helvetica,sans-Serif" font-size="10.00"> </text>
<polyline fill="none" stroke="black" points="75,-943.5 225,-943.5 "/>
<text text-anchor="start" x="83" y="-930.5" font-family="Helvetica,sans-Serif" font-size="10.00">+ hardware_component()</text>
<text text-anchor="start" x="83" y="-917.5" font-family="Helvetica,sans-Serif" font-size="10.00">+ hardware_component()</text>
<text text-anchor="start" x="83" y="-904.5" font-family="Helvetica,sans-Serif" font-size="10.00">+ operator=()</text>
<text text-anchor="start" x="83" y="-891.5" font-family="Helvetica,sans-Serif" font-size="10.00">+ ~hardware_component()</text>
<text text-anchor="start" x="83" y="-878.5" font-family="Helvetica,sans-Serif" font-size="10.00">+ add_component()</text>
<text text-anchor="start" x="83" y="-865.5" font-family="Helvetica,sans-Serif" font-size="10.00">+ remove_component()</text>
<text text-anchor="start" x="83" y="-852.5" font-family="Helvetica,sans-Serif" font-size="10.00">+ replace_component()</text>
<text text-anchor="start" x="83" y="-839.5" font-family="Helvetica,sans-Serif" font-size="10.00">+ prepare()</text>
<text text-anchor="start" x="83" y="-826.5" font-family="Helvetica,sans-Serif" font-size="10.00">+ cleanup()</text>
<text text-anchor="start" x="83" y="-813.5" font-family="Helvetica,sans-Serif" font-size="10.00">+ boot()</text>
<text text-anchor="start" x="83" y="-800.5" font-family="Helvetica,sans-Serif" font-size="10.00">and 10 more...</text>
</a>
</g>
<!-- Node3&#45;&gt;Node2 -->
<g id="edge4" class="edge"><title>Node3&#45;&gt;Node2</title>
<path fill="none" stroke="midnightblue" d="M150,-782.237C150,-773.227 150,-764.088 150,-755.013"/>
<polygon fill="none" stroke="midnightblue" points="146.5,-782.343 150,-792.343 153.5,-782.344 146.5,-782.343"/>
</g>
<!-- Node4 -->
<g id="node6" class="node"><title>Node4</title>
<polygon fill="white" stroke="#bfbfbf" points="94.5,-1022.5 94.5,-1111.5 205.5,-1111.5 205.5,-1022.5 94.5,-1022.5"/>
<text text-anchor="start" x="102.5" y="-1098.5" font-family="Helvetica,sans-Serif" font-size="10.00">std::enable_shared</text>
<text text-anchor="start" x="102.5" y="-1085.5" font-family="Helvetica,sans-Serif" font-size="10.00">_from_this&lt; hardware</text>
<text text-anchor="middle" x="150" y="-1072.5" font-family="Helvetica,sans-Serif" font-size="10.00">_component &gt;</text>
<polyline fill="none" stroke="#bfbfbf" points="94.5,-1064.5 205.5,-1064.5 "/>
<text text-anchor="middle" x="150" y="-1051.5" font-family="Helvetica,sans-Serif" font-size="10.00"> </text>
<polyline fill="none" stroke="#bfbfbf" points="94.5,-1043.5 205.5,-1043.5 "/>
<text text-anchor="middle" x="150" y="-1030.5" font-family="Helvetica,sans-Serif" font-size="10.00"> </text>
</g>
<!-- Node4&#45;&gt;Node3 -->
<g id="edge6" class="edge"><title>Node4&#45;&gt;Node3</title>
<path fill="none" stroke="midnightblue" d="M150,-1012.06C150,-1003.63 150,-994.712 150,-985.692"/>
<polygon fill="none" stroke="midnightblue" points="146.5,-1012.08 150,-1022.08 153.5,-1012.08 146.5,-1012.08"/>
</g>
<!-- Node6 -->
<g id="node11" class="node"><title>Node6</title>
<a xlink:href="../../de/d86/classharpoon_1_1memory_1_1chunked__random__access__memory.html" target="_top" xlink:title="{harpoon::memory::chunked\l_random_access_memory\n||+ ~chunked_random_access\l_memory()\l}">
<polygon fill="white" stroke="black" points="1.5,-0.5 1.5,-89.5 144.5,-89.5 144.5,-0.5 1.5,-0.5"/>
<text text-anchor="start" x="9.5" y="-76.5" font-family="Helvetica,sans-Serif" font-size="10.00">harpoon::memory::chunked</text>
<text text-anchor="middle" x="73" y="-63.5" font-family="Helvetica,sans-Serif" font-size="10.00">_random_access_memory</text>
<polyline fill="none" stroke="black" points="1.5,-55.5 144.5,-55.5 "/>
<text text-anchor="middle" x="73" y="-42.5" font-family="Helvetica,sans-Serif" font-size="10.00"> </text>
<polyline fill="none" stroke="black" points="1.5,-34.5 144.5,-34.5 "/>
<text text-anchor="start" x="9.5" y="-21.5" font-family="Helvetica,sans-Serif" font-size="10.00">+ ~chunked_random_access</text>
<text text-anchor="start" x="9.5" y="-8.5" font-family="Helvetica,sans-Serif" font-size="10.00">_memory()</text>
</a>
</g>
<!-- Node5&#45;&gt;Node6 -->
<g id="edge10" class="edge"><title>Node5&#45;&gt;Node6</title>
<path fill="none" stroke="midnightblue" d="M73,-123.27C73,-112.122 73,-100.518 73,-89.7656"/>
<polygon fill="none" stroke="midnightblue" points="69.5001,-123.343 73,-133.343 76.5001,-123.343 69.5001,-123.343"/>
</g>
<!-- Node8 -->
<g id="node15" class="node"><title>Node8</title>
<a xlink:href="../../d5/d6c/classharpoon_1_1memory_1_1chunked__read__only__memory.html" target="_top" xlink:title="{harpoon::memory::chunked\l_read_only_memory\n||+ ~chunked_read_only\l_memory()\l}">
<polygon fill="white" stroke="black" points="161.5,-0.5 161.5,-89.5 296.5,-89.5 296.5,-0.5 161.5,-0.5"/>
<text text-anchor="start" x="169.5" y="-76.5" font-family="Helvetica,sans-Serif" font-size="10.00">harpoon::memory::chunked</text>
<text text-anchor="middle" x="229" y="-63.5" font-family="Helvetica,sans-Serif" font-size="10.00">_read_only_memory</text>
<polyline fill="none" stroke="black" points="161.5,-55.5 296.5,-55.5 "/>
<text text-anchor="middle" x="229" y="-42.5" font-family="Helvetica,sans-Serif" font-size="10.00"> </text>
<polyline fill="none" stroke="black" points="161.5,-34.5 296.5,-34.5 "/>
<text text-anchor="start" x="169.5" y="-21.5" font-family="Helvetica,sans-Serif" font-size="10.00">+ ~chunked_read_only</text>
<text text-anchor="start" x="169.5" y="-8.5" font-family="Helvetica,sans-Serif" font-size="10.00">_memory()</text>
</a>
</g>
<!-- Node7&#45;&gt;Node8 -->
<g id="edge14" class="edge"><title>Node7&#45;&gt;Node8</title>
<path fill="none" stroke="midnightblue" d="M228.461,-116.733C228.529,-107.593 228.599,-98.3199 228.665,-89.6108"/>
<polygon fill="none" stroke="midnightblue" points="224.959,-116.933 228.384,-126.959 231.959,-116.986 224.959,-116.933"/>
</g>
</g>
</svg>
