<?xml version="1.0" encoding="UTF-8" standalone="no"?>
<!DOCTYPE svg PUBLIC "-//W3C//DTD SVG 1.1//EN"
 "http://www.w3.org/Graphics/SVG/1.1/DTD/svg11.dtd">
<!-- Generated by graphviz version 2.26.3 (20100126.1600)
 -->
<!-- Title: harpoon/computer_system.hh Pages: 1 -->
<svg width="942pt" height="478pt"
 viewBox="0.00 0.00 941.86 478.00" xmlns="http://www.w3.org/2000/svg" xmlns:xlink="http://www.w3.org/1999/xlink">
<g id="graph1" class="graph" transform="scale(1 1) rotate(0) translate(4 474)">
<title>harpoon/computer_system.hh</title>
<polygon fill="white" stroke="white" points="-4,5 -4,-474 938.86,-474 938.86,5 -4,5"/>
<!-- Node1 -->
<g id="node1" class="node"><title>Node1</title>
<polygon fill="#bfbfbf" stroke="black" points="451,-448.5 451,-469.5 597,-469.5 597,-448.5 451,-448.5"/>
<text text-anchor="middle" x="524" y="-456.5" font-family="Helvetica,sans-Serif" font-size="10.00">harpoon/computer_system.hh</text>
</g>
<!-- Node2 -->
<g id="node3" class="node"><title>Node2</title>
<a xlink:href="../../d5/d08/harpoon_8hh.html" target="_top" xlink:title="Harpoon library common header file. ">
<polygon fill="white" stroke="black" points="408,-58.5 408,-79.5 510,-79.5 510,-58.5 408,-58.5"/>
<text text-anchor="middle" x="459" y="-66.5" font-family="Helvetica,sans-Serif" font-size="10.00">harpoon/harpoon.hh</text>
</a>
</g>
<!-- Node1&#45;&gt;Node2 -->
<g id="edge2" class="edge"><title>Node1&#45;&gt;Node2</title>
<path fill="none" stroke="midnightblue" d="M597.413,-450.847C714.879,-435.736 932,-398.417 932,-329 932,-329 932,-329 932,-192 932,-157.183 939.439,-138.655 913,-116 848.454,-60.6923 621.861,-89.8379 520.049,-79.8485"/>
<polygon fill="midnightblue" stroke="midnightblue" points="520.351,-76.36 510.013,-78.6758 519.539,-83.3127 520.351,-76.36"/>
</g>
<!-- Node7 -->
<g id="node13" class="node"><title>Node7</title>
<a xlink:href="../../d5/d09/hardware__component_8hh.html" target="_top" xlink:title="Hardware component. ">
<polygon fill="white" stroke="black" points="361.5,-253.5 361.5,-274.5 522.5,-274.5 522.5,-253.5 361.5,-253.5"/>
<text text-anchor="middle" x="442" y="-261.5" font-family="Helvetica,sans-Serif" font-size="10.00">harpoon/hardware_component.hh</text>
</a>
</g>
<!-- Node1&#45;&gt;Node7 -->
<g id="edge12" class="edge"><title>Node1&#45;&gt;Node7</title>
<path fill="none" stroke="midnightblue" d="M519.475,-448.238C506.289,-416.882 467.75,-325.235 450.509,-284.234"/>
<polygon fill="midnightblue" stroke="midnightblue" points="453.715,-282.83 446.613,-274.969 447.263,-285.544 453.715,-282.83"/>
</g>
<!-- Node14 -->
<g id="node30" class="node"><title>Node14</title>
<a xlink:href="../../d9/d3e/execution__unit_8hh.html" target="_top" xlink:title="harpoon/execution/execution\l_unit.hh">
<polygon fill="white" stroke="black" points="272.5,-377 272.5,-411 413.5,-411 413.5,-377 272.5,-377"/>
<text text-anchor="start" x="280.5" y="-398" font-family="Helvetica,sans-Serif" font-size="10.00">harpoon/execution/execution</text>
<text text-anchor="middle" x="343" y="-385" font-family="Helvetica,sans-Serif" font-size="10.00">_unit.hh</text>
</a>
</g>
<!-- Node1&#45;&gt;Node14 -->
<g id="edge32" class="edge"><title>Node1&#45;&gt;Node14</title>
<path fill="none" stroke="midnightblue" d="M494.516,-448.412C469.007,-439.251 431.39,-425.742 400.021,-414.477"/>
<polygon fill="midnightblue" stroke="midnightblue" points="401.101,-411.146 390.507,-411.06 398.735,-417.734 401.101,-411.146"/>
</g>
<!-- Node19 -->
<g id="node49" class="node"><title>Node19</title>
<a xlink:href="../../dc/d3f/memory_8hh.html" target="_top" xlink:title="harpoon/memory/memory.hh">
<polygon fill="white" stroke="black" points="527.5,-318.5 527.5,-339.5 668.5,-339.5 668.5,-318.5 527.5,-318.5"/>
<text text-anchor="middle" x="598" y="-326.5" font-family="Helvetica,sans-Serif" font-size="10.00">harpoon/memory/memory.hh</text>
</a>
</g>
<!-- Node1&#45;&gt;Node19 -->
<g id="edge60" class="edge"><title>Node1&#45;&gt;Node19</title>
<path fill="none" stroke="midnightblue" d="M530.056,-448.362C542.469,-426.555 570.961,-376.5 586.824,-348.634"/>
<polygon fill="midnightblue" stroke="midnightblue" points="589.955,-350.208 591.861,-339.785 583.872,-346.745 589.955,-350.208"/>
</g>
<!-- Node3 -->
<g id="node5" class="node"><title>Node3</title>
<polygon fill="white" stroke="#bfbfbf" points="342.5,-0.5 342.5,-21.5 383.5,-21.5 383.5,-0.5 342.5,-0.5"/>
<text text-anchor="middle" x="363" y="-8.5" font-family="Helvetica,sans-Serif" font-size="10.00">string</text>
</g>
<!-- Node2&#45;&gt;Node3 -->
<g id="edge4" class="edge"><title>Node2&#45;&gt;Node3</title>
<path fill="none" stroke="midnightblue" d="M441.392,-58.3619C426.777,-49.532 405.776,-36.844 389.189,-26.8224"/>
<polygon fill="midnightblue" stroke="midnightblue" points="390.865,-23.7461 380.496,-21.5707 387.246,-29.7376 390.865,-23.7461"/>
</g>
<!-- Node4 -->
<g id="node7" class="node"><title>Node4</title>
<polygon fill="white" stroke="#bfbfbf" points="401,-0.5 401,-21.5 453,-21.5 453,-0.5 401,-0.5"/>
<text text-anchor="middle" x="427" y="-8.5" font-family="Helvetica,sans-Serif" font-size="10.00">memory</text>
</g>
<!-- Node2&#45;&gt;Node4 -->
<g id="edge6" class="edge"><title>Node2&#45;&gt;Node4</title>
<path fill="none" stroke="midnightblue" d="M453.131,-58.3619C448.845,-50.5949 442.913,-39.8426 437.784,-30.5458"/>
<polygon fill="midnightblue" stroke="midnightblue" points="440.727,-28.6357 432.832,-21.5707 434.598,-32.0172 440.727,-28.6357"/>
</g>
<!-- Node5 -->
<g id="node9" class="node"><title>Node5</title>
<polygon fill="white" stroke="#bfbfbf" points="471,-0.5 471,-21.5 511,-21.5 511,-0.5 471,-0.5"/>
<text text-anchor="middle" x="491" y="-8.5" font-family="Helvetica,sans-Serif" font-size="10.00">utility</text>
</g>
<!-- Node2&#45;&gt;Node5 -->
<g id="edge8" class="edge"><title>Node2&#45;&gt;Node5</title>
<path fill="none" stroke="midnightblue" d="M464.869,-58.3619C469.155,-50.5949 475.087,-39.8426 480.216,-30.5458"/>
<polygon fill="midnightblue" stroke="midnightblue" points="483.402,-32.0172 485.168,-21.5707 477.273,-28.6357 483.402,-32.0172"/>
</g>
<!-- Node6 -->
<g id="node11" class="node"><title>Node6</title>
<polygon fill="white" stroke="#bfbfbf" points="529,-0.5 529,-21.5 575,-21.5 575,-0.5 529,-0.5"/>
<text text-anchor="middle" x="552" y="-8.5" font-family="Helvetica,sans-Serif" font-size="10.00">cstdint</text>
</g>
<!-- Node2&#45;&gt;Node6 -->
<g id="edge10" class="edge"><title>Node2&#45;&gt;Node6</title>
<path fill="none" stroke="midnightblue" d="M476.058,-58.3619C490.085,-49.6138 510.184,-37.0786 526.182,-27.1015"/>
<polygon fill="midnightblue" stroke="midnightblue" points="528.418,-29.8323 535.051,-21.5707 524.713,-23.8927 528.418,-29.8323"/>
</g>
<!-- Node7&#45;&gt;Node2 -->
<g id="edge14" class="edge"><title>Node7&#45;&gt;Node2</title>
<path fill="none" stroke="midnightblue" d="M442.938,-253.238C445.654,-222.082 453.56,-131.397 457.167,-90.022"/>
<polygon fill="midnightblue" stroke="midnightblue" points="460.662,-90.2351 458.044,-79.9689 453.688,-89.6271 460.662,-90.2351"/>
</g>
<!-- Node8 -->
<g id="node16" class="node"><title>Node8</title>
<a xlink:href="../../d3/de3/log_8hh.html" target="_top" xlink:title="harpoon/log/log.hh">
<polygon fill="white" stroke="black" points="470,-181.5 470,-202.5 566,-202.5 566,-181.5 470,-181.5"/>
<text text-anchor="middle" x="518" y="-189.5" font-family="Helvetica,sans-Serif" font-size="10.00">harpoon/log/log.hh</text>
</a>
</g>
<!-- Node7&#45;&gt;Node8 -->
<g id="edge16" class="edge"><title>Node7&#45;&gt;Node8</title>
<path fill="none" stroke="midnightblue" d="M453.214,-253.376C465.338,-241.89 484.863,-223.393 499.313,-209.703"/>
<polygon fill="midnightblue" stroke="midnightblue" points="501.887,-212.086 506.74,-202.667 497.073,-207.004 501.887,-212.086"/>
</g>
<!-- Node11 -->
<g id="node24" class="node"><title>Node11</title>
<polygon fill="white" stroke="#bfbfbf" points="583.5,-181.5 583.5,-202.5 612.5,-202.5 612.5,-181.5 583.5,-181.5"/>
<text text-anchor="middle" x="598" y="-189.5" font-family="Helvetica,sans-Serif" font-size="10.00">list</text>
</g>
<!-- Node7&#45;&gt;Node11 -->
<g id="edge26" class="edge"><title>Node7&#45;&gt;Node11</title>
<path fill="none" stroke="midnightblue" d="M475.163,-253.432C502.816,-243.949 542.758,-228.669 575,-210 575.806,-209.533 576.615,-209.041 577.423,-208.528"/>
<polygon fill="midnightblue" stroke="midnightblue" points="579.679,-211.218 585.796,-202.567 575.619,-205.516 579.679,-211.218"/>
</g>
<!-- Node12 -->
<g id="node26" class="node"><title>Node12</title>
<polygon fill="white" stroke="#bfbfbf" points="194,-116.5 194,-137.5 240,-137.5 240,-116.5 194,-116.5"/>
<text text-anchor="middle" x="217" y="-124.5" font-family="Helvetica,sans-Serif" font-size="10.00">atomic</text>
</g>
<!-- Node7&#45;&gt;Node12 -->
<g id="edge28" class="edge"><title>Node7&#45;&gt;Node12</title>
<path fill="none" stroke="midnightblue" d="M438.21,-253.32C430.937,-234.389 413.197,-194.972 385,-174 344.855,-144.141 286.566,-133.247 250.265,-129.275"/>
<polygon fill="midnightblue" stroke="midnightblue" points="250.49,-125.78 240.196,-128.289 249.808,-132.747 250.49,-125.78"/>
</g>
<!-- Node13 -->
<g id="node28" class="node"><title>Node13</title>
<polygon fill="white" stroke="#bfbfbf" points="332,-181.5 332,-202.5 376,-202.5 376,-181.5 332,-181.5"/>
<text text-anchor="middle" x="354" y="-189.5" font-family="Helvetica,sans-Serif" font-size="10.00">mutex</text>
</g>
<!-- Node7&#45;&gt;Node13 -->
<g id="edge30" class="edge"><title>Node7&#45;&gt;Node13</title>
<path fill="none" stroke="midnightblue" d="M429.015,-253.376C414.847,-241.784 391.949,-223.05 375.174,-209.324"/>
<polygon fill="midnightblue" stroke="midnightblue" points="376.994,-206.291 367.038,-202.667 372.561,-211.709 376.994,-206.291"/>
</g>
<!-- Node8&#45;&gt;Node2 -->
<g id="edge18" class="edge"><title>Node8&#45;&gt;Node2</title>
<path fill="none" stroke="midnightblue" d="M509.352,-181.41C501.132,-170.921 488.886,-154.132 481,-138 473.419,-122.491 467.641,-103.771 463.914,-89.7445"/>
<polygon fill="midnightblue" stroke="midnightblue" points="467.208,-88.4935 461.368,-79.6532 460.42,-90.2056 467.208,-88.4935"/>
</g>
<!-- Node9 -->
<g id="node19" class="node"><title>Node9</title>
<a xlink:href="../../d9/d74/message_8hh.html" target="_top" xlink:title="harpoon/log/message.hh">
<polygon fill="white" stroke="black" points="489.5,-116.5 489.5,-137.5 612.5,-137.5 612.5,-116.5 489.5,-116.5"/>
<text text-anchor="middle" x="551" y="-124.5" font-family="Helvetica,sans-Serif" font-size="10.00">harpoon/log/message.hh</text>
</a>
</g>
<!-- Node8&#45;&gt;Node9 -->
<g id="edge20" class="edge"><title>Node8&#45;&gt;Node9</title>
<path fill="none" stroke="midnightblue" d="M523.449,-181.267C528.207,-171.896 535.232,-158.057 540.998,-146.7"/>
<polygon fill="midnightblue" stroke="midnightblue" points="544.246,-148.035 545.652,-137.534 538.004,-144.866 544.246,-148.035"/>
</g>
<!-- Node9&#45;&gt;Node2 -->
<g id="edge22" class="edge"><title>Node9&#45;&gt;Node2</title>
<path fill="none" stroke="midnightblue" d="M534.126,-116.362C520.249,-107.614 500.366,-95.0786 484.54,-85.1015"/>
<polygon fill="midnightblue" stroke="midnightblue" points="486.093,-81.943 475.767,-79.5707 482.36,-87.8645 486.093,-81.943"/>
</g>
<!-- Node10 -->
<g id="node22" class="node"><title>Node10</title>
<polygon fill="white" stroke="#bfbfbf" points="528,-58.5 528,-79.5 580,-79.5 580,-58.5 528,-58.5"/>
<text text-anchor="middle" x="554" y="-66.5" font-family="Helvetica,sans-Serif" font-size="10.00">sstream</text>
</g>
<!-- Node9&#45;&gt;Node10 -->
<g id="edge24" class="edge"><title>Node9&#45;&gt;Node10</title>
<path fill="none" stroke="midnightblue" d="M551.55,-116.362C551.935,-108.922 552.462,-98.7427 552.928,-89.7276"/>
<polygon fill="midnightblue" stroke="midnightblue" points="556.432,-89.7381 553.453,-79.5707 549.441,-89.3765 556.432,-89.7381"/>
</g>
<!-- Node14&#45;&gt;Node2 -->
<g id="edge34" class="edge"><title>Node14&#45;&gt;Node2</title>
<path fill="none" stroke="midnightblue" d="M272.346,-381.983C171.937,-362.869 0,-321.712 0,-264 0,-264 0,-264 0,-192 0,-110.653 272.379,-81.6449 397.49,-72.6111"/>
<polygon fill="midnightblue" stroke="midnightblue" points="397.952,-76.0873 407.683,-71.8959 397.462,-69.1045 397.952,-76.0873"/>
</g>
<!-- Node14&#45;&gt;Node7 -->
<g id="edge36" class="edge"><title>Node14&#45;&gt;Node7</title>
<path fill="none" stroke="midnightblue" d="M356.146,-376.737C374.778,-352.271 408.725,-307.695 427.876,-282.547"/>
<polygon fill="midnightblue" stroke="midnightblue" points="430.709,-284.603 433.984,-274.527 425.14,-280.362 430.709,-284.603"/>
</g>
<!-- Node15 -->
<g id="node34" class="node"><title>Node15</title>
<a xlink:href="../../d7/d55/clock_8hh.html" target="_top" xlink:title="harpoon/clock/clock.hh">
<polygon fill="white" stroke="black" points="245.5,-318.5 245.5,-339.5 362.5,-339.5 362.5,-318.5 245.5,-318.5"/>
<text text-anchor="middle" x="304" y="-326.5" font-family="Helvetica,sans-Serif" font-size="10.00">harpoon/clock/clock.hh</text>
</a>
</g>
<!-- Node14&#45;&gt;Node15 -->
<g id="edge38" class="edge"><title>Node14&#45;&gt;Node15</title>
<path fill="none" stroke="midnightblue" d="M332.753,-376.922C327.527,-368.212 321.147,-357.578 315.725,-348.542"/>
<polygon fill="midnightblue" stroke="midnightblue" points="318.657,-346.626 310.511,-339.852 312.655,-350.228 318.657,-346.626"/>
</g>
<!-- Node15&#45;&gt;Node2 -->
<g id="edge40" class="edge"><title>Node15&#45;&gt;Node2</title>
<path fill="none" stroke="midnightblue" d="M302.646,-318.361C299.817,-291.951 295.632,-222.061 323,-174 346.846,-132.124 394.757,-101.285 426.862,-84.2303"/>
<polygon fill="midnightblue" stroke="midnightblue" points="428.586,-87.2794 435.87,-79.5853 425.378,-81.0579 428.586,-87.2794"/>
</g>
<!-- Node15&#45;&gt;Node7 -->
<g id="edge42" class="edge"><title>Node15&#45;&gt;Node7</title>
<path fill="none" stroke="midnightblue" d="M326.479,-318.412C349.234,-307.694 384.624,-291.025 410.239,-278.96"/>
<polygon fill="midnightblue" stroke="midnightblue" points="411.975,-282.011 419.53,-274.584 408.992,-275.678 411.975,-282.011"/>
</g>
<!-- Node16 -->
<g id="node38" class="node"><title>Node16</title>
<a xlink:href="../../d3/dce/tick_8hh.html" target="_top" xlink:title="harpoon/clock/tick.hh">
<polygon fill="white" stroke="black" points="28,-181.5 28,-202.5 138,-202.5 138,-181.5 28,-181.5"/>
<text text-anchor="middle" x="83" y="-189.5" font-family="Helvetica,sans-Serif" font-size="10.00">harpoon/clock/tick.hh</text>
</a>
</g>
<!-- Node15&#45;&gt;Node16 -->
<g id="edge44" class="edge"><title>Node15&#45;&gt;Node16</title>
<path fill="none" stroke="midnightblue" d="M249.083,-318.422C206.88,-309.444 152.876,-295.847 135,-282 111.918,-264.12 97.2411,-232.891 89.5651,-212.328"/>
<polygon fill="midnightblue" stroke="midnightblue" points="92.7924,-210.954 86.1818,-202.675 86.1864,-213.27 92.7924,-210.954"/>
</g>
<!-- Node17 -->
<g id="node42" class="node"><title>Node17</title>
<a xlink:href="../../d8/d45/generator_8hh.html" target="_top" xlink:title="harpoon/clock/generator\l/generator.hh">
<polygon fill="white" stroke="black" points="143.5,-247 143.5,-281 264.5,-281 264.5,-247 143.5,-247"/>
<text text-anchor="start" x="151.5" y="-268" font-family="Helvetica,sans-Serif" font-size="10.00">harpoon/clock/generator</text>
<text text-anchor="middle" x="204" y="-255" font-family="Helvetica,sans-Serif" font-size="10.00">/generator.hh</text>
</a>
</g>
<!-- Node15&#45;&gt;Node17 -->
<g id="edge50" class="edge"><title>Node15&#45;&gt;Node17</title>
<path fill="none" stroke="midnightblue" d="M287.487,-318.267C274.381,-309.748 255.595,-297.537 239.16,-286.854"/>
<polygon fill="midnightblue" stroke="midnightblue" points="240.615,-283.625 230.323,-281.11 236.8,-289.494 240.615,-283.625"/>
</g>
<!-- Node16&#45;&gt;Node2 -->
<g id="edge46" class="edge"><title>Node16&#45;&gt;Node2</title>
<path fill="none" stroke="midnightblue" d="M89.2756,-181.304C99.8542,-164.341 122.953,-131.597 152,-116 193.372,-93.7852 320.565,-80.0421 397.644,-73.5265"/>
<polygon fill="midnightblue" stroke="midnightblue" points="398.033,-77.0063 407.71,-72.6925 397.455,-70.0302 398.033,-77.0063"/>
</g>
<!-- Node16&#45;&gt;Node12 -->
<g id="edge48" class="edge"><title>Node16&#45;&gt;Node12</title>
<path fill="none" stroke="midnightblue" d="M104.828,-181.412C126.923,-170.694 161.287,-154.025 186.159,-141.96"/>
<polygon fill="midnightblue" stroke="midnightblue" points="187.712,-145.097 195.182,-137.584 184.657,-138.799 187.712,-145.097"/>
</g>
<!-- Node17&#45;&gt;Node2 -->
<g id="edge52" class="edge"><title>Node17&#45;&gt;Node2</title>
<path fill="none" stroke="midnightblue" d="M194.292,-246.586C178.837,-216.263 153.441,-153.433 185,-116 198.584,-99.8877 321.173,-83.8835 397.705,-75.3398"/>
<polygon fill="midnightblue" stroke="midnightblue" points="398.165,-78.8104 407.721,-74.2348 397.397,-71.8526 398.165,-78.8104"/>
</g>
<!-- Node17&#45;&gt;Node12 -->
<g id="edge56" class="edge"><title>Node17&#45;&gt;Node12</title>
<path fill="none" stroke="midnightblue" d="M205.62,-246.926C208.002,-221.821 212.445,-174.998 215.019,-147.881"/>
<polygon fill="midnightblue" stroke="midnightblue" points="218.535,-147.872 215.995,-137.586 211.566,-147.211 218.535,-147.872"/>
</g>
<!-- Node17&#45;&gt;Node16 -->
<g id="edge54" class="edge"><title>Node17&#45;&gt;Node16</title>
<path fill="none" stroke="midnightblue" d="M175.325,-246.937C155.416,-235.09 129.079,-219.419 109.631,-207.846"/>
<polygon fill="midnightblue" stroke="midnightblue" points="111.345,-204.794 100.962,-202.688 107.766,-210.809 111.345,-204.794"/>
</g>
<!-- Node18 -->
<g id="node47" class="node"><title>Node18</title>
<polygon fill="white" stroke="#bfbfbf" points="232,-181.5 232,-202.5 276,-202.5 276,-181.5 232,-181.5"/>
<text text-anchor="middle" x="254" y="-189.5" font-family="Helvetica,sans-Serif" font-size="10.00">thread</text>
</g>
<!-- Node17&#45;&gt;Node18 -->
<g id="edge58" class="edge"><title>Node17&#45;&gt;Node18</title>
<path fill="none" stroke="midnightblue" d="M215.849,-246.937C223.323,-236.174 232.99,-222.255 240.722,-211.12"/>
<polygon fill="midnightblue" stroke="midnightblue" points="243.601,-213.111 246.43,-202.901 237.851,-209.118 243.601,-213.111"/>
</g>
<!-- Node19&#45;&gt;Node2 -->
<g id="edge62" class="edge"><title>Node19&#45;&gt;Node2</title>
<path fill="none" stroke="midnightblue" d="M603.756,-318.352C621.061,-284.735 668.579,-179.345 621,-116 614.378,-107.184 559.476,-92.4733 515.395,-81.8557"/>
<polygon fill="midnightblue" stroke="midnightblue" points="516.144,-78.4361 505.605,-79.5212 514.52,-85.2452 516.144,-78.4361"/>
</g>
<!-- Node19&#45;&gt;Node7 -->
<g id="edge64" class="edge"><title>Node19&#45;&gt;Node7</title>
<path fill="none" stroke="midnightblue" d="M572.589,-318.412C546.526,-307.552 505.8,-290.583 476.762,-278.484"/>
<polygon fill="midnightblue" stroke="midnightblue" points="477.977,-275.199 467.4,-274.584 475.285,-281.66 477.977,-275.199"/>
</g>
<!-- Node19&#45;&gt;Node11 -->
<g id="edge76" class="edge"><title>Node19&#45;&gt;Node11</title>
<path fill="none" stroke="midnightblue" d="M598,-318.25C598,-295.541 598,-242.348 598,-212.768"/>
<polygon fill="midnightblue" stroke="midnightblue" points="601.5,-212.7 598,-202.7 594.5,-212.7 601.5,-212.7"/>
</g>
<!-- Node20 -->
<g id="node53" class="node"><title>Node20</title>
<a xlink:href="../../d3/d22/address__range_8hh.html" target="_top" xlink:title="harpoon/memory/address\l_range.hh">
<polygon fill="white" stroke="black" points="667.5,-175 667.5,-209 794.5,-209 794.5,-175 667.5,-175"/>
<text text-anchor="start" x="675.5" y="-196" font-family="Helvetica,sans-Serif" font-size="10.00">harpoon/memory/address</text>
<text text-anchor="middle" x="731" y="-183" font-family="Helvetica,sans-Serif" font-size="10.00">_range.hh</text>
</a>
</g>
<!-- Node19&#45;&gt;Node20 -->
<g id="edge66" class="edge"><title>Node19&#45;&gt;Node20</title>
<path fill="none" stroke="midnightblue" d="M611.895,-318.39C623.573,-309.232 640.474,-295.399 654,-282 674.777,-261.419 696.233,-235.929 711.202,-217.336"/>
<polygon fill="midnightblue" stroke="midnightblue" points="714.096,-219.32 717.597,-209.321 708.624,-214.955 714.096,-219.32"/>
</g>
<!-- Node20&#45;&gt;Node2 -->
<g id="edge68" class="edge"><title>Node20&#45;&gt;Node2</title>
<path fill="none" stroke="midnightblue" d="M718.234,-174.768C704.362,-157.298 680.59,-130.793 654,-116 642.064,-109.36 571.52,-93.2061 518.686,-81.6935"/>
<polygon fill="midnightblue" stroke="midnightblue" points="519.226,-78.2295 508.712,-79.5292 517.742,-85.0703 519.226,-78.2295"/>
</g>
<!-- Node21 -->
<g id="node56" class="node"><title>Node21</title>
<a xlink:href="../../db/db3/address_8hh.html" target="_top" xlink:title="harpoon/memory/address.hh">
<polygon fill="white" stroke="black" points="764,-116.5 764,-137.5 904,-137.5 904,-116.5 764,-116.5"/>
<text text-anchor="middle" x="834" y="-124.5" font-family="Helvetica,sans-Serif" font-size="10.00">harpoon/memory/address.hh</text>
</a>
</g>
<!-- Node20&#45;&gt;Node21 -->
<g id="edge70" class="edge"><title>Node20&#45;&gt;Node21</title>
<path fill="none" stroke="midnightblue" d="M758.062,-174.922C773.707,-165.049 793.269,-152.704 808.62,-143.016"/>
<polygon fill="midnightblue" stroke="midnightblue" points="810.522,-145.955 817.111,-137.658 806.786,-140.035 810.522,-145.955"/>
</g>
<!-- Node22 -->
<g id="node59" class="node"><title>Node22</title>
<polygon fill="white" stroke="#bfbfbf" points="706,-116.5 706,-137.5 746,-137.5 746,-116.5 706,-116.5"/>
<text text-anchor="middle" x="726" y="-124.5" font-family="Helvetica,sans-Serif" font-size="10.00">limits</text>
</g>
<!-- Node20&#45;&gt;Node22 -->
<g id="edge74" class="edge"><title>Node20&#45;&gt;Node22</title>
<path fill="none" stroke="midnightblue" d="M729.686,-174.922C729.052,-166.67 728.284,-156.692 727.614,-147.982"/>
<polygon fill="midnightblue" stroke="midnightblue" points="731.092,-147.554 726.835,-137.852 724.112,-148.091 731.092,-147.554"/>
</g>
<!-- Node21&#45;&gt;Node2 -->
<g id="edge72" class="edge"><title>Node21&#45;&gt;Node2</title>
<path fill="none" stroke="midnightblue" d="M763.833,-117.211C702.237,-108.463 609.96,-94.98 520.133,-80.1503"/>
<polygon fill="midnightblue" stroke="midnightblue" points="520.481,-76.6602 510.043,-78.477 519.336,-83.5659 520.481,-76.6602"/>
</g>
</g>
</svg>
