<?xml version="1.0" encoding="UTF-8" standalone="no"?>
<!DOCTYPE svg PUBLIC "-//W3C//DTD SVG 1.1//EN"
 "http://www.w3.org/Graphics/SVG/1.1/DTD/svg11.dtd">
<!-- Generated by graphviz version 2.26.3 (20100126.1600)
 -->
<!-- Title: harpoon/computer_system.hh Pages: 1 -->
<svg width="848pt" height="478pt"
 viewBox="0.00 0.00 848.05 478.00" xmlns="http://www.w3.org/2000/svg" xmlns:xlink="http://www.w3.org/1999/xlink">
<g id="graph1" class="graph" transform="scale(1 1) rotate(0) translate(4 474)">
<title>harpoon/computer_system.hh</title>
<polygon fill="white" stroke="white" points="-4,5 -4,-474 845.05,-474 845.05,5 -4,5"/>
<!-- Node1 -->
<g id="node1" class="node"><title>Node1</title>
<polygon fill="#bfbfbf" stroke="black" points="382.316,-448.5 382.316,-469.5 528.316,-469.5 528.316,-448.5 382.316,-448.5"/>
<text text-anchor="middle" x="455.316" y="-456.5" font-family="Helvetica,sans-Serif" font-size="10.00">harpoon/computer_system.hh</text>
</g>
<!-- Node2 -->
<g id="node3" class="node"><title>Node2</title>
<a xlink:href="../../d5/d08/harpoon_8hh.html" target="_top" xlink:title="Harpoon library common header file. ">
<polygon fill="white" stroke="black" points="422.316,-58.5 422.316,-79.5 524.316,-79.5 524.316,-58.5 422.316,-58.5"/>
<text text-anchor="middle" x="473.316" y="-66.5" font-family="Helvetica,sans-Serif" font-size="10.00">harpoon/harpoon.hh</text>
</a>
</g>
<!-- Node1&#45;&gt;Node2 -->
<g id="edge2" class="edge"><title>Node1&#45;&gt;Node2</title>
<path fill="none" stroke="midnightblue" d="M528.709,-449.333C639.92,-432.602 838.316,-393.689 838.316,-329 838.316,-329 838.316,-329 838.316,-192 838.316,-157.183 845.251,-139.229 819.316,-116 798.506,-97.3609 628.261,-81.195 534.58,-73.605"/>
<polygon fill="midnightblue" stroke="midnightblue" points="534.627,-70.0977 524.38,-72.7879 534.068,-77.0753 534.627,-70.0977"/>
</g>
<!-- Node6 -->
<g id="node11" class="node"><title>Node6</title>
<a xlink:href="../../d5/d09/hardware__component_8hh.html" target="_top" xlink:title="Hardware component. ">
<polygon fill="white" stroke="black" points="330.816,-253.5 330.816,-274.5 491.816,-274.5 491.816,-253.5 330.816,-253.5"/>
<text text-anchor="middle" x="411.316" y="-261.5" font-family="Helvetica,sans-Serif" font-size="10.00">harpoon/hardware_component.hh</text>
</a>
</g>
<!-- Node1&#45;&gt;Node6 -->
<g id="edge10" class="edge"><title>Node1&#45;&gt;Node6</title>
<path fill="none" stroke="midnightblue" d="M452.888,-448.238C445.842,-417.015 425.308,-326.01 416,-284.758"/>
<polygon fill="midnightblue" stroke="midnightblue" points="419.406,-283.953 413.791,-274.969 412.578,-285.494 419.406,-283.953"/>
</g>
<!-- Node12 -->
<g id="node26" class="node"><title>Node12</title>
<a xlink:href="../../d9/d3e/execution__unit_8hh.html" target="_top" xlink:title="harpoon/execution/execution\l_unit.hh">
<polygon fill="white" stroke="black" points="234.816,-377 234.816,-411 375.816,-411 375.816,-377 234.816,-377"/>
<text text-anchor="start" x="242.816" y="-398" font-family="Helvetica,sans-Serif" font-size="10.00">harpoon/execution/execution</text>
<text text-anchor="middle" x="305.316" y="-385" font-family="Helvetica,sans-Serif" font-size="10.00">_unit.hh</text>
</a>
</g>
<!-- Node1&#45;&gt;Node12 -->
<g id="edge28" class="edge"><title>Node1&#45;&gt;Node12</title>
<path fill="none" stroke="midnightblue" d="M430.882,-448.412C410.106,-439.409 379.64,-426.207 353.92,-415.062"/>
<polygon fill="midnightblue" stroke="midnightblue" points="355.253,-411.825 344.686,-411.06 352.47,-418.248 355.253,-411.825"/>
</g>
<!-- Node17 -->
<g id="node45" class="node"><title>Node17</title>
<a xlink:href="../../dc/d3f/memory_8hh.html" target="_top" xlink:title="harpoon/memory/memory.hh">
<polygon fill="white" stroke="black" points="453.816,-318.5 453.816,-339.5 594.816,-339.5 594.816,-318.5 453.816,-318.5"/>
<text text-anchor="middle" x="524.316" y="-326.5" font-family="Helvetica,sans-Serif" font-size="10.00">harpoon/memory/memory.hh</text>
</a>
</g>
<!-- Node1&#45;&gt;Node17 -->
<g id="edge56" class="edge"><title>Node1&#45;&gt;Node17</title>
<path fill="none" stroke="midnightblue" d="M460.963,-448.362C472.537,-426.555 499.104,-376.5 513.895,-348.634"/>
<polygon fill="midnightblue" stroke="midnightblue" points="516.995,-350.259 518.591,-339.785 510.812,-346.977 516.995,-350.259"/>
</g>
<!-- Node3 -->
<g id="node5" class="node"><title>Node3</title>
<polygon fill="white" stroke="#bfbfbf" points="388.816,-0.5 388.816,-21.5 429.816,-21.5 429.816,-0.5 388.816,-0.5"/>
<text text-anchor="middle" x="409.316" y="-8.5" font-family="Helvetica,sans-Serif" font-size="10.00">string</text>
</g>
<!-- Node2&#45;&gt;Node3 -->
<g id="edge4" class="edge"><title>Node2&#45;&gt;Node3</title>
<path fill="none" stroke="midnightblue" d="M461.577,-58.3619C452.375,-50.0226 439.376,-38.2418 428.644,-28.5162"/>
<polygon fill="midnightblue" stroke="midnightblue" points="430.74,-25.6924 420.98,-21.5707 426.04,-30.8793 430.74,-25.6924"/>
</g>
<!-- Node4 -->
<g id="node7" class="node"><title>Node4</title>
<polygon fill="white" stroke="#bfbfbf" points="447.316,-0.5 447.316,-21.5 499.316,-21.5 499.316,-0.5 447.316,-0.5"/>
<text text-anchor="middle" x="473.316" y="-8.5" font-family="Helvetica,sans-Serif" font-size="10.00">memory</text>
</g>
<!-- Node2&#45;&gt;Node4 -->
<g id="edge6" class="edge"><title>Node2&#45;&gt;Node4</title>
<path fill="none" stroke="midnightblue" d="M473.316,-58.3619C473.316,-50.9219 473.316,-40.7427 473.316,-31.7276"/>
<polygon fill="midnightblue" stroke="midnightblue" points="476.816,-31.5706 473.316,-21.5707 469.816,-31.5707 476.816,-31.5706"/>
</g>
<!-- Node5 -->
<g id="node9" class="node"><title>Node5</title>
<polygon fill="white" stroke="#bfbfbf" points="517.316,-0.5 517.316,-21.5 557.316,-21.5 557.316,-0.5 517.316,-0.5"/>
<text text-anchor="middle" x="537.316" y="-8.5" font-family="Helvetica,sans-Serif" font-size="10.00">utility</text>
</g>
<!-- Node2&#45;&gt;Node5 -->
<g id="edge8" class="edge"><title>Node2&#45;&gt;Node5</title>
<path fill="none" stroke="midnightblue" d="M485.055,-58.3619C494.257,-50.0226 507.256,-38.2418 517.988,-28.5162"/>
<polygon fill="midnightblue" stroke="midnightblue" points="520.592,-30.8793 525.652,-21.5707 515.892,-25.6924 520.592,-30.8793"/>
</g>
<!-- Node6&#45;&gt;Node2 -->
<g id="edge12" class="edge"><title>Node6&#45;&gt;Node2</title>
<path fill="none" stroke="midnightblue" d="M426.052,-253.429C438.359,-243.682 455.162,-228.024 463.316,-210 481.265,-170.325 479.136,-117.907 476.139,-89.4742"/>
<polygon fill="midnightblue" stroke="midnightblue" points="479.61,-89.0177 474.945,-79.505 472.659,-89.8503 479.61,-89.0177"/>
</g>
<!-- Node7 -->
<g id="node14" class="node"><title>Node7</title>
<a xlink:href="../../d3/de3/log_8hh.html" target="_top" xlink:title="harpoon/log/log.hh">
<polygon fill="white" stroke="black" points="358.316,-181.5 358.316,-202.5 454.316,-202.5 454.316,-181.5 358.316,-181.5"/>
<text text-anchor="middle" x="406.316" y="-189.5" font-family="Helvetica,sans-Serif" font-size="10.00">harpoon/log/log.hh</text>
</a>
</g>
<!-- Node6&#45;&gt;Node7 -->
<g id="edge14" class="edge"><title>Node6&#45;&gt;Node7</title>
<path fill="none" stroke="midnightblue" d="M410.578,-253.376C409.84,-242.741 408.684,-226.095 407.762,-212.82"/>
<polygon fill="midnightblue" stroke="midnightblue" points="411.241,-212.401 407.057,-202.667 404.258,-212.886 411.241,-212.401"/>
</g>
<!-- Node10 -->
<g id="node22" class="node"><title>Node10</title>
<polygon fill="white" stroke="#bfbfbf" points="509.816,-181.5 509.816,-202.5 538.816,-202.5 538.816,-181.5 509.816,-181.5"/>
<text text-anchor="middle" x="524.316" y="-189.5" font-family="Helvetica,sans-Serif" font-size="10.00">list</text>
</g>
<!-- Node6&#45;&gt;Node10 -->
<g id="edge24" class="edge"><title>Node6&#45;&gt;Node10</title>
<path fill="none" stroke="midnightblue" d="M427.946,-253.472C445.093,-242.608 472.598,-225.157 496.316,-210 497.959,-208.95 499.656,-207.864 501.364,-206.769"/>
<polygon fill="midnightblue" stroke="midnightblue" points="503.269,-209.705 509.793,-201.357 499.487,-203.815 503.269,-209.705"/>
</g>
<!-- Node11 -->
<g id="node24" class="node"><title>Node11</title>
<polygon fill="white" stroke="#bfbfbf" points="131.316,-116.5 131.316,-137.5 177.316,-137.5 177.316,-116.5 131.316,-116.5"/>
<text text-anchor="middle" x="154.316" y="-124.5" font-family="Helvetica,sans-Serif" font-size="10.00">atomic</text>
</g>
<!-- Node6&#45;&gt;Node11 -->
<g id="edge26" class="edge"><title>Node6&#45;&gt;Node11</title>
<path fill="none" stroke="midnightblue" d="M391.576,-253.477C346.541,-229.47 236.039,-170.565 183.274,-142.437"/>
<polygon fill="midnightblue" stroke="midnightblue" points="184.594,-139.174 174.123,-137.559 181.301,-145.351 184.594,-139.174"/>
</g>
<!-- Node7&#45;&gt;Node2 -->
<g id="edge16" class="edge"><title>Node7&#45;&gt;Node2</title>
<path fill="none" stroke="midnightblue" d="M417.36,-181.359C427.453,-171.092 442.161,-154.691 451.316,-138 459.7,-122.715 465.456,-103.745 468.971,-89.567"/>
<polygon fill="midnightblue" stroke="midnightblue" points="472.387,-90.3302 471.229,-79.7989 465.567,-88.7538 472.387,-90.3302"/>
</g>
<!-- Node8 -->
<g id="node17" class="node"><title>Node8</title>
<a xlink:href="../../d9/d74/message_8hh.html" target="_top" xlink:title="harpoon/log/message.hh">
<polygon fill="white" stroke="black" points="319.816,-116.5 319.816,-137.5 442.816,-137.5 442.816,-116.5 319.816,-116.5"/>
<text text-anchor="middle" x="381.316" y="-124.5" font-family="Helvetica,sans-Serif" font-size="10.00">harpoon/log/message.hh</text>
</a>
</g>
<!-- Node7&#45;&gt;Node8 -->
<g id="edge18" class="edge"><title>Node7&#45;&gt;Node8</title>
<path fill="none" stroke="midnightblue" d="M402.188,-181.267C398.62,-171.991 393.368,-158.336 389.026,-147.045"/>
<polygon fill="midnightblue" stroke="midnightblue" points="392.224,-145.611 385.367,-137.534 385.691,-148.124 392.224,-145.611"/>
</g>
<!-- Node8&#45;&gt;Node2 -->
<g id="edge20" class="edge"><title>Node8&#45;&gt;Node2</title>
<path fill="none" stroke="midnightblue" d="M398.19,-116.362C412.067,-107.614 431.95,-95.0786 447.776,-85.1015"/>
<polygon fill="midnightblue" stroke="midnightblue" points="449.956,-87.8645 456.549,-79.5707 446.223,-81.943 449.956,-87.8645"/>
</g>
<!-- Node9 -->
<g id="node20" class="node"><title>Node9</title>
<polygon fill="white" stroke="#bfbfbf" points="352.316,-58.5 352.316,-79.5 404.316,-79.5 404.316,-58.5 352.316,-58.5"/>
<text text-anchor="middle" x="378.316" y="-66.5" font-family="Helvetica,sans-Serif" font-size="10.00">sstream</text>
</g>
<!-- Node8&#45;&gt;Node9 -->
<g id="edge22" class="edge"><title>Node8&#45;&gt;Node9</title>
<path fill="none" stroke="midnightblue" d="M380.766,-116.362C380.381,-108.922 379.854,-98.7427 379.388,-89.7276"/>
<polygon fill="midnightblue" stroke="midnightblue" points="382.875,-89.3765 378.863,-79.5707 375.884,-89.7381 382.875,-89.3765"/>
</g>
<!-- Node12&#45;&gt;Node2 -->
<g id="edge30" class="edge"><title>Node12&#45;&gt;Node2</title>
<path fill="none" stroke="midnightblue" d="M302.495,-376.811C298.672,-351.982 292.316,-304.601 292.316,-264 292.316,-264 292.316,-264 292.316,-192 292.316,-157.183 287.161,-141.076 311.316,-116 319.036,-107.985 374.703,-92.9181 418.656,-81.9991"/>
<polygon fill="midnightblue" stroke="midnightblue" points="419.53,-85.3886 428.402,-79.5977 417.855,-78.5919 419.53,-85.3886"/>
</g>
<!-- Node12&#45;&gt;Node6 -->
<g id="edge32" class="edge"><title>Node12&#45;&gt;Node6</title>
<path fill="none" stroke="midnightblue" d="M319.392,-376.737C339.341,-352.271 375.688,-307.695 396.193,-282.547"/>
<polygon fill="midnightblue" stroke="midnightblue" points="399.126,-284.489 402.733,-274.527 393.701,-280.065 399.126,-284.489"/>
</g>
<!-- Node13 -->
<g id="node30" class="node"><title>Node13</title>
<a xlink:href="../../d7/d55/clock_8hh.html" target="_top" xlink:title="harpoon/clock/clock.hh">
<polygon fill="white" stroke="black" points="133.816,-318.5 133.816,-339.5 250.816,-339.5 250.816,-318.5 133.816,-318.5"/>
<text text-anchor="middle" x="192.316" y="-326.5" font-family="Helvetica,sans-Serif" font-size="10.00">harpoon/clock/clock.hh</text>
</a>
</g>
<!-- Node12&#45;&gt;Node13 -->
<g id="edge34" class="edge"><title>Node12&#45;&gt;Node13</title>
<path fill="none" stroke="midnightblue" d="M275.627,-376.922C258.302,-366.957 236.6,-354.473 219.689,-344.745"/>
<polygon fill="midnightblue" stroke="midnightblue" points="221.259,-341.611 210.845,-339.658 217.768,-347.678 221.259,-341.611"/>
</g>
<!-- Node13&#45;&gt;Node2 -->
<g id="edge36" class="edge"><title>Node13&#45;&gt;Node2</title>
<path fill="none" stroke="midnightblue" d="M157.251,-318.395C93.5917,-297.142 -31.0303,-245.2 7.31595,-174 29.5273,-132.759 51.2776,-131.962 95.316,-116 226.035,-68.6192 270.611,-99.3819 412.365,-80.0162"/>
<polygon fill="midnightblue" stroke="midnightblue" points="412.887,-83.4772 422.292,-78.6003 411.898,-76.5474 412.887,-83.4772"/>
</g>
<!-- Node13&#45;&gt;Node6 -->
<g id="edge38" class="edge"><title>Node13&#45;&gt;Node6</title>
<path fill="none" stroke="midnightblue" d="M227.989,-318.412C265.612,-307.246 324.999,-289.619 365.932,-277.47"/>
<polygon fill="midnightblue" stroke="midnightblue" points="367.067,-280.784 375.658,-274.584 365.075,-274.074 367.067,-280.784"/>
</g>
<!-- Node14 -->
<g id="node34" class="node"><title>Node14</title>
<a xlink:href="../../d3/dce/tick_8hh.html" target="_top" xlink:title="harpoon/clock/tick.hh">
<polygon fill="white" stroke="black" points="16.316,-181.5 16.316,-202.5 126.316,-202.5 126.316,-181.5 16.316,-181.5"/>
<text text-anchor="middle" x="71.316" y="-189.5" font-family="Helvetica,sans-Serif" font-size="10.00">harpoon/clock/tick.hh</text>
</a>
</g>
<!-- Node13&#45;&gt;Node14 -->
<g id="edge40" class="edge"><title>Node13&#45;&gt;Node14</title>
<path fill="none" stroke="midnightblue" d="M172.096,-318.49C157.296,-310.074 137.419,-297.188 123.316,-282 103.852,-261.039 88.5555,-231.53 79.7277,-212.095"/>
<polygon fill="midnightblue" stroke="midnightblue" points="82.8295,-210.453 75.6082,-202.701 76.4188,-213.265 82.8295,-210.453"/>
</g>
<!-- Node15 -->
<g id="node38" class="node"><title>Node15</title>
<a xlink:href="../../d8/d45/generator_8hh.html" target="_top" xlink:title="harpoon/clock/generator\l/generator.hh">
<polygon fill="white" stroke="black" points="131.816,-247 131.816,-281 252.816,-281 252.816,-247 131.816,-247"/>
<text text-anchor="start" x="139.816" y="-268" font-family="Helvetica,sans-Serif" font-size="10.00">harpoon/clock/generator</text>
<text text-anchor="middle" x="192.316" y="-255" font-family="Helvetica,sans-Serif" font-size="10.00">/generator.hh</text>
</a>
</g>
<!-- Node13&#45;&gt;Node15 -->
<g id="edge46" class="edge"><title>Node13&#45;&gt;Node15</title>
<path fill="none" stroke="midnightblue" d="M192.316,-318.267C192.316,-310.931 192.316,-300.857 192.316,-291.38"/>
<polygon fill="midnightblue" stroke="midnightblue" points="195.816,-291.11 192.316,-281.11 188.816,-291.11 195.816,-291.11"/>
</g>
<!-- Node14&#45;&gt;Node2 -->
<g id="edge42" class="edge"><title>Node14&#45;&gt;Node2</title>
<path fill="none" stroke="midnightblue" d="M75.1307,-181.259C81.7932,-164.232 97.2768,-131.401 122.316,-116 175.433,-83.3296 334.42,-89.2682 412.304,-79.9205"/>
<polygon fill="midnightblue" stroke="midnightblue" points="412.849,-83.3787 422.287,-78.5642 411.907,-76.4424 412.849,-83.3787"/>
</g>
<!-- Node14&#45;&gt;Node11 -->
<g id="edge44" class="edge"><title>Node14&#45;&gt;Node11</title>
<path fill="none" stroke="midnightblue" d="M85.0217,-181.267C97.9542,-171.139 117.551,-155.792 132.609,-144"/>
<polygon fill="midnightblue" stroke="midnightblue" points="135.15,-146.455 140.865,-137.534 130.834,-140.944 135.15,-146.455"/>
</g>
<!-- Node15&#45;&gt;Node2 -->
<g id="edge48" class="edge"><title>Node15&#45;&gt;Node2</title>
<path fill="none" stroke="midnightblue" d="M207.795,-246.804C216.538,-236.571 227.288,-223.071 235.316,-210 259.358,-170.852 242.859,-145.213 278.316,-116 288.794,-107.367 358.87,-91.8104 412.044,-80.9694"/>
<polygon fill="midnightblue" stroke="midnightblue" points="412.987,-84.3496 422.094,-78.9352 411.598,-77.4887 412.987,-84.3496"/>
</g>
<!-- Node15&#45;&gt;Node11 -->
<g id="edge52" class="edge"><title>Node15&#45;&gt;Node11</title>
<path fill="none" stroke="midnightblue" d="M185.649,-246.652C181.751,-236.142 176.907,-222.411 173.316,-210 167.215,-188.917 161.8,-164.369 158.327,-147.469"/>
<polygon fill="midnightblue" stroke="midnightblue" points="161.741,-146.693 156.338,-137.58 154.879,-148.074 161.741,-146.693"/>
</g>
<!-- Node15&#45;&gt;Node14 -->
<g id="edge50" class="edge"><title>Node15&#45;&gt;Node14</title>
<path fill="none" stroke="midnightblue" d="M163.641,-246.937C143.731,-235.09 117.395,-219.419 97.9465,-207.846"/>
<polygon fill="midnightblue" stroke="midnightblue" points="99.6613,-204.794 89.2778,-202.688 96.0817,-210.809 99.6613,-204.794"/>
</g>
<!-- Node16 -->
<g id="node43" class="node"><title>Node16</title>
<polygon fill="white" stroke="#bfbfbf" points="182.316,-181.5 182.316,-202.5 226.316,-202.5 226.316,-181.5 182.316,-181.5"/>
<text text-anchor="middle" x="204.316" y="-189.5" font-family="Helvetica,sans-Serif" font-size="10.00">thread</text>
</g>
<!-- Node15&#45;&gt;Node16 -->
<g id="edge54" class="edge"><title>Node15&#45;&gt;Node16</title>
<path fill="none" stroke="midnightblue" d="M195.16,-246.937C196.865,-236.707 199.045,-223.625 200.85,-212.794"/>
<polygon fill="midnightblue" stroke="midnightblue" points="204.307,-213.34 202.499,-202.901 197.403,-212.19 204.307,-213.34"/>
</g>
<!-- Node17&#45;&gt;Node2 -->
<g id="edge58" class="edge"><title>Node17&#45;&gt;Node2</title>
<path fill="none" stroke="midnightblue" d="M529.171,-318.212C540.001,-292.606 563.92,-226.384 547.316,-174 536.359,-139.433 509.468,-106.418 491.304,-86.9284"/>
<polygon fill="midnightblue" stroke="midnightblue" points="493.802,-84.4763 484.358,-79.6742 488.746,-89.3176 493.802,-84.4763"/>
</g>
<!-- Node17&#45;&gt;Node6 -->
<g id="edge60" class="edge"><title>Node17&#45;&gt;Node6</title>
<path fill="none" stroke="midnightblue" d="M505.909,-318.412C487.605,-307.883 459.316,-291.611 438.44,-279.602"/>
<polygon fill="midnightblue" stroke="midnightblue" points="440.128,-276.536 429.715,-274.584 436.638,-282.604 440.128,-276.536"/>
</g>
<!-- Node17&#45;&gt;Node10 -->
<g id="edge72" class="edge"><title>Node17&#45;&gt;Node10</title>
<path fill="none" stroke="midnightblue" d="M524.316,-318.25C524.316,-295.541 524.316,-242.348 524.316,-212.768"/>
<polygon fill="midnightblue" stroke="midnightblue" points="527.816,-212.7 524.316,-202.7 520.816,-212.7 527.816,-212.7"/>
</g>
<!-- Node18 -->
<g id="node49" class="node"><title>Node18</title>
<a xlink:href="../../d3/d22/address__range_8hh.html" target="_top" xlink:title="harpoon/memory/address\l_range.hh">
<polygon fill="white" stroke="black" points="644.816,-175 644.816,-209 771.816,-209 771.816,-175 644.816,-175"/>
<text text-anchor="start" x="652.816" y="-196" font-family="Helvetica,sans-Serif" font-size="10.00">harpoon/memory/address</text>
<text text-anchor="middle" x="708.316" y="-183" font-family="Helvetica,sans-Serif" font-size="10.00">_range.hh</text>
</a>
</g>
<!-- Node17&#45;&gt;Node18 -->
<g id="edge62" class="edge"><title>Node17&#45;&gt;Node18</title>
<path fill="none" stroke="midnightblue" d="M538.449,-318.477C567.989,-296.483 636.87,-245.196 677.262,-215.121"/>
<polygon fill="midnightblue" stroke="midnightblue" points="679.494,-217.823 685.425,-209.044 675.314,-212.209 679.494,-217.823"/>
</g>
<!-- Node18&#45;&gt;Node2 -->
<g id="edge64" class="edge"><title>Node18&#45;&gt;Node2</title>
<path fill="none" stroke="midnightblue" d="M718.858,-174.94C727.76,-158.109 737.054,-132.562 723.316,-116 699.83,-87.6878 601.047,-76.3206 534.908,-71.834"/>
<polygon fill="midnightblue" stroke="midnightblue" points="534.794,-68.3196 524.59,-71.1715 534.345,-75.3052 534.794,-68.3196"/>
</g>
<!-- Node19 -->
<g id="node52" class="node"><title>Node19</title>
<a xlink:href="../../db/db3/address_8hh.html" target="_top" xlink:title="harpoon/memory/address.hh">
<polygon fill="white" stroke="black" points="574.316,-116.5 574.316,-137.5 714.316,-137.5 714.316,-116.5 574.316,-116.5"/>
<text text-anchor="middle" x="644.316" y="-124.5" font-family="Helvetica,sans-Serif" font-size="10.00">harpoon/memory/address.hh</text>
</a>
</g>
<!-- Node18&#45;&gt;Node19 -->
<g id="edge66" class="edge"><title>Node18&#45;&gt;Node19</title>
<path fill="none" stroke="midnightblue" d="M691.501,-174.922C682.473,-165.754 671.347,-154.454 662.166,-145.129"/>
<polygon fill="midnightblue" stroke="midnightblue" points="664.511,-142.522 655.001,-137.852 659.523,-147.433 664.511,-142.522"/>
</g>
<!-- Node20 -->
<g id="node55" class="node"><title>Node20</title>
<polygon fill="white" stroke="#bfbfbf" points="770.316,-116.5 770.316,-137.5 810.316,-137.5 810.316,-116.5 770.316,-116.5"/>
<text text-anchor="middle" x="790.316" y="-124.5" font-family="Helvetica,sans-Serif" font-size="10.00">limits</text>
</g>
<!-- Node18&#45;&gt;Node20 -->
<g id="edge70" class="edge"><title>Node18&#45;&gt;Node20</title>
<path fill="none" stroke="midnightblue" d="M729.86,-174.922C741.774,-165.479 756.54,-153.774 768.497,-144.296"/>
<polygon fill="midnightblue" stroke="midnightblue" points="770.963,-146.807 776.626,-137.852 766.615,-141.321 770.963,-146.807"/>
</g>
<!-- Node19&#45;&gt;Node2 -->
<g id="edge68" class="edge"><title>Node19&#45;&gt;Node2</title>
<path fill="none" stroke="midnightblue" d="M613.349,-116.497C585.472,-107.041 544.319,-93.0829 513.834,-82.7428"/>
<polygon fill="midnightblue" stroke="midnightblue" points="514.935,-79.4207 504.341,-79.5231 512.687,-86.0497 514.935,-79.4207"/>
</g>
</g>
</svg>
