<?xml version="1.0" encoding="UTF-8" standalone="no"?>
<!DOCTYPE svg PUBLIC "-//W3C//DTD SVG 1.1//EN"
 "http://www.w3.org/Graphics/SVG/1.1/DTD/svg11.dtd">
<!-- Generated by graphviz version 2.26.3 (20100126.1600)
 -->
<!-- Title: harpoon/execution/instruction.hh Pages: 1 -->
<svg width="316pt" height="174pt"
 viewBox="0.00 0.00 316.00 174.00" xmlns="http://www.w3.org/2000/svg" xmlns:xlink="http://www.w3.org/1999/xlink">
<g id="graph1" class="graph" transform="scale(1 1) rotate(0) translate(4 170)">
<title>harpoon/execution/instruction.hh</title>
<polygon fill="white" stroke="white" points="-4,5 -4,-170 313,-170 313,5 -4,5"/>
<!-- Node1 -->
<g id="node1" class="node"><title>Node1</title>
<polygon fill="#bfbfbf" stroke="black" points="74,-144.5 74,-165.5 232,-165.5 232,-144.5 74,-144.5"/>
<text text-anchor="middle" x="153" y="-152.5" font-family="Helvetica,sans-Serif" font-size="10.00">harpoon/execution/instruction.hh</text>
</g>
<!-- Node2 -->
<g id="node3" class="node"><title>Node2</title>
<a xlink:href="../../d7/d71/instruction__decoder_8hh.html" target="_top" xlink:title="harpoon/execution/instruction\l_decoder.hh">
<polygon fill="white" stroke="black" points="0,-73 0,-107 144,-107 144,-73 0,-73"/>
<text text-anchor="start" x="8" y="-94" font-family="Helvetica,sans-Serif" font-size="10.00">harpoon/execution/instruction</text>
<text text-anchor="middle" x="72" y="-81" font-family="Helvetica,sans-Serif" font-size="10.00">_decoder.hh</text>
</a>
</g>
<!-- Node1&#45;&gt;Node2 -->
<g id="edge2" class="edge"><title>Node1&#45;&gt;Node2</title>
<path fill="none" stroke="midnightblue" d="M131.594,-137.822C119.77,-128.334 105.131,-116.587 93.3215,-107.11"/>
<polygon fill="midnightblue" stroke="midnightblue" points="129.635,-140.738 139.624,-144.267 134.016,-135.278 129.635,-140.738"/>
</g>
<!-- Node3 -->
<g id="node5" class="node"><title>Node3</title>
<a xlink:href="../../dd/dba/processing__unit_8hh.html" target="_top" xlink:title="harpoon/execution/processing\l_unit.hh">
<polygon fill="white" stroke="black" points="162,-73 162,-107 308,-107 308,-73 162,-73"/>
<text text-anchor="start" x="170" y="-94" font-family="Helvetica,sans-Serif" font-size="10.00">harpoon/execution/processing</text>
<text text-anchor="middle" x="235" y="-81" font-family="Helvetica,sans-Serif" font-size="10.00">_unit.hh</text>
</a>
</g>
<!-- Node1&#45;&gt;Node3 -->
<g id="edge4" class="edge"><title>Node1&#45;&gt;Node3</title>
<path fill="none" stroke="midnightblue" d="M174.671,-137.822C186.64,-128.334 201.46,-116.587 213.415,-107.11"/>
<polygon fill="midnightblue" stroke="midnightblue" points="172.203,-135.312 166.541,-144.267 176.551,-140.797 172.203,-135.312"/>
</g>
<!-- Node4 -->
<g id="node7" class="node"><title>Node4</title>
<a xlink:href="../../d9/d67/up__execution__unit_8hh.html" target="_top" xlink:title="harpoon/execution/up\l_execution_unit.hh">
<polygon fill="white" stroke="black" points="180,-1 180,-35 290,-35 290,-1 180,-1"/>
<text text-anchor="start" x="188" y="-22" font-family="Helvetica,sans-Serif" font-size="10.00">harpoon/execution/up</text>
<text text-anchor="middle" x="235" y="-9" font-family="Helvetica,sans-Serif" font-size="10.00">_execution_unit.hh</text>
</a>
</g>
<!-- Node3&#45;&gt;Node4 -->
<g id="edge6" class="edge"><title>Node3&#45;&gt;Node4</title>
<path fill="none" stroke="midnightblue" d="M235,-62.7193C235,-53.572 235,-43.6255 235,-35.4407"/>
<polygon fill="midnightblue" stroke="midnightblue" points="231.5,-62.937 235,-72.937 238.5,-62.937 231.5,-62.937"/>
</g>
</g>
</svg>
