<?xml version="1.0" encoding="UTF-8" standalone="no"?>
<!DOCTYPE svg PUBLIC "-//W3C//DTD SVG 1.1//EN"
 "http://www.w3.org/Graphics/SVG/1.1/DTD/svg11.dtd">
<!-- Generated by graphviz version 2.26.3 (20100126.1600)
 -->
<!-- Title: harpoon::execution::up_execution_unit Pages: 1 -->
<svg width="158pt" height="608pt"
 viewBox="0.00 0.00 158.00 608.00" xmlns="http://www.w3.org/2000/svg" xmlns:xlink="http://www.w3.org/1999/xlink">
<g id="graph1" class="graph" transform="scale(1 1) rotate(0) translate(4 604)">
<title>harpoon::execution::up_execution_unit</title>
<polygon fill="white" stroke="white" points="-4,5 -4,-604 155,-604 155,5 -4,5"/>
<!-- Node1 -->
<g id="node1" class="node"><title>Node1</title>
<polygon fill="#bfbfbf" stroke="black" points="15.5,-1 15.5,-103 134.5,-103 134.5,-1 15.5,-1"/>
<text text-anchor="start" x="23.5" y="-90" font-family="Helvetica,sans-Serif" font-size="10.00">harpoon::execution</text>
<text text-anchor="middle" x="75" y="-77" font-family="Helvetica,sans-Serif" font-size="10.00">::up_execution_unit</text>
<polyline fill="none" stroke="black" points="15.5,-69 134.5,-69 "/>
<text text-anchor="middle" x="75" y="-56" font-family="Helvetica,sans-Serif" font-size="10.00"> </text>
<polyline fill="none" stroke="black" points="15.5,-48 134.5,-48 "/>
<text text-anchor="start" x="23.5" y="-35" font-family="Helvetica,sans-Serif" font-size="10.00">+ ~up_execution_unit()</text>
<text text-anchor="start" x="23.5" y="-22" font-family="Helvetica,sans-Serif" font-size="10.00">+ set_processing_unit()</text>
<text text-anchor="start" x="23.5" y="-9" font-family="Helvetica,sans-Serif" font-size="10.00">+ get_processing_unit()</text>
</g>
<!-- Node2 -->
<g id="node2" class="node"><title>Node2</title>
<a xlink:href="../../d6/d5c/classharpoon_1_1execution_1_1execution__unit.html" target="_top" xlink:title="{harpoon::execution\l::execution_unit\n||+ set_clock()\l+ get_clock()\l+ ~execution_unit()\l}">
<polygon fill="white" stroke="black" points="24.5,-141 24.5,-243 125.5,-243 125.5,-141 24.5,-141"/>
<text text-anchor="start" x="32.5" y="-230" font-family="Helvetica,sans-Serif" font-size="10.00">harpoon::execution</text>
<text text-anchor="middle" x="75" y="-217" font-family="Helvetica,sans-Serif" font-size="10.00">::execution_unit</text>
<polyline fill="none" stroke="black" points="24.5,-209 125.5,-209 "/>
<text text-anchor="middle" x="75" y="-196" font-family="Helvetica,sans-Serif" font-size="10.00"> </text>
<polyline fill="none" stroke="black" points="24.5,-188 125.5,-188 "/>
<text text-anchor="start" x="32.5" y="-175" font-family="Helvetica,sans-Serif" font-size="10.00">+ set_clock()</text>
<text text-anchor="start" x="32.5" y="-162" font-family="Helvetica,sans-Serif" font-size="10.00">+ get_clock()</text>
<text text-anchor="start" x="32.5" y="-149" font-family="Helvetica,sans-Serif" font-size="10.00">+ ~execution_unit()</text>
</a>
</g>
<!-- Node2&#45;&gt;Node1 -->
<g id="edge2" class="edge"><title>Node2&#45;&gt;Node1</title>
<path fill="none" stroke="midnightblue" d="M75,-130.529C75,-121.449 75,-112.175 75,-103.33"/>
<polygon fill="none" stroke="midnightblue" points="71.5001,-130.664 75,-140.664 78.5001,-130.664 71.5001,-130.664"/>
</g>
<!-- Node3 -->
<g id="node4" class="node"><title>Node3</title>
<a xlink:href="../../df/d54/classharpoon_1_1hardware__component.html" target="_top" xlink:title="Base class for all hardware components of computer system (i.e. CPU, memory). All components should d...">
<polygon fill="white" stroke="black" points="0,-280.5 0,-473.5 150,-473.5 150,-280.5 0,-280.5"/>
<text text-anchor="middle" x="75" y="-460.5" font-family="Helvetica,sans-Serif" font-size="10.00">harpoon::hardware_component</text>
<polyline fill="none" stroke="black" points="0,-452.5 150,-452.5 "/>
<text text-anchor="middle" x="75" y="-439.5" font-family="Helvetica,sans-Serif" font-size="10.00"> </text>
<polyline fill="none" stroke="black" points="0,-431.5 150,-431.5 "/>
<text text-anchor="start" x="8" y="-418.5" font-family="Helvetica,sans-Serif" font-size="10.00">+ hardware_component()</text>
<text text-anchor="start" x="8" y="-405.5" font-family="Helvetica,sans-Serif" font-size="10.00">+ hardware_component()</text>
<text text-anchor="start" x="8" y="-392.5" font-family="Helvetica,sans-Serif" font-size="10.00">+ operator=()</text>
<text text-anchor="start" x="8" y="-379.5" font-family="Helvetica,sans-Serif" font-size="10.00">+ ~hardware_component()</text>
<text text-anchor="start" x="8" y="-366.5" font-family="Helvetica,sans-Serif" font-size="10.00">+ add_component()</text>
<text text-anchor="start" x="8" y="-353.5" font-family="Helvetica,sans-Serif" font-size="10.00">+ remove_component()</text>
<text text-anchor="start" x="8" y="-340.5" font-family="Helvetica,sans-Serif" font-size="10.00">+ replace_component()</text>
<text text-anchor="start" x="8" y="-327.5" font-family="Helvetica,sans-Serif" font-size="10.00">+ prepare()</text>
<text text-anchor="start" x="8" y="-314.5" font-family="Helvetica,sans-Serif" font-size="10.00">+ cleanup()</text>
<text text-anchor="start" x="8" y="-301.5" font-family="Helvetica,sans-Serif" font-size="10.00">+ boot()</text>
<text text-anchor="start" x="8" y="-288.5" font-family="Helvetica,sans-Serif" font-size="10.00">and 10 more...</text>
</a>
</g>
<!-- Node3&#45;&gt;Node2 -->
<g id="edge4" class="edge"><title>Node3&#45;&gt;Node2</title>
<path fill="none" stroke="midnightblue" d="M75,-270.284C75,-260.982 75,-251.876 75,-243.355"/>
<polygon fill="none" stroke="midnightblue" points="71.5001,-270.436 75,-280.436 78.5001,-270.436 71.5001,-270.436"/>
</g>
<!-- Node4 -->
<g id="node6" class="node"><title>Node4</title>
<polygon fill="white" stroke="#bfbfbf" points="19.5,-510.5 19.5,-599.5 130.5,-599.5 130.5,-510.5 19.5,-510.5"/>
<text text-anchor="start" x="27.5" y="-586.5" font-family="Helvetica,sans-Serif" font-size="10.00">std::enable_shared</text>
<text text-anchor="start" x="27.5" y="-573.5" font-family="Helvetica,sans-Serif" font-size="10.00">_from_this&lt; hardware</text>
<text text-anchor="middle" x="75" y="-560.5" font-family="Helvetica,sans-Serif" font-size="10.00">_component &gt;</text>
<polyline fill="none" stroke="#bfbfbf" points="19.5,-552.5 130.5,-552.5 "/>
<text text-anchor="middle" x="75" y="-539.5" font-family="Helvetica,sans-Serif" font-size="10.00"> </text>
<polyline fill="none" stroke="#bfbfbf" points="19.5,-531.5 130.5,-531.5 "/>
<text text-anchor="middle" x="75" y="-518.5" font-family="Helvetica,sans-Serif" font-size="10.00"> </text>
</g>
<!-- Node4&#45;&gt;Node3 -->
<g id="edge6" class="edge"><title>Node4&#45;&gt;Node3</title>
<path fill="none" stroke="midnightblue" d="M75,-500.059C75,-491.626 75,-482.712 75,-473.692"/>
<polygon fill="none" stroke="midnightblue" points="71.5001,-500.083 75,-510.083 78.5001,-500.083 71.5001,-500.083"/>
</g>
</g>
</svg>
