<?xml version="1.0" encoding="UTF-8" standalone="no"?>
<!DOCTYPE svg PUBLIC "-//W3C//DTD SVG 1.1//EN"
 "http://www.w3.org/Graphics/SVG/1.1/DTD/svg11.dtd">
<!-- Generated by graphviz version 2.26.3 (20100126.1600)
 -->
<!-- Title: harpoon/memory/serializer/serializer.hh Pages: 1 -->
<svg width="576pt" height="406pt"
 viewBox="0.00 0.00 576.00 406.00" xmlns="http://www.w3.org/2000/svg" xmlns:xlink="http://www.w3.org/1999/xlink">
<g id="graph1" class="graph" transform="scale(1 1) rotate(0) translate(4 402)">
<title>harpoon/memory/serializer/serializer.hh</title>
<polygon fill="white" stroke="white" points="-4,5 -4,-402 573,-402 573,5 -4,5"/>
<!-- Node1 -->
<g id="node1" class="node"><title>Node1</title>
<polygon fill="#bfbfbf" stroke="black" points="70.5,-363 70.5,-397 201.5,-397 201.5,-363 70.5,-363"/>
<text text-anchor="start" x="78.5" y="-384" font-family="Helvetica,sans-Serif" font-size="10.00">harpoon/memory/serializer</text>
<text text-anchor="middle" x="136" y="-371" font-family="Helvetica,sans-Serif" font-size="10.00">/serializer.hh</text>
</g>
<!-- Node2 -->
<g id="node3" class="node"><title>Node2</title>
<a xlink:href="../../d5/d08/harpoon_8hh.html" target="_top" xlink:title="Harpoon library common header file. ">
<polygon fill="white" stroke="black" points="183,-58.5 183,-79.5 285,-79.5 285,-58.5 183,-58.5"/>
<text text-anchor="middle" x="234" y="-66.5" font-family="Helvetica,sans-Serif" font-size="10.00">harpoon/harpoon.hh</text>
</a>
</g>
<!-- Node1&#45;&gt;Node2 -->
<g id="edge2" class="edge"><title>Node1&#45;&gt;Node2</title>
<path fill="none" stroke="midnightblue" d="M96.6632,-362.828C56.4972,-342.32 0,-303.894 0,-250 0,-250 0,-250 0,-185 0,-148.388 15.1664,-137.223 45,-116 65.4064,-101.484 125.478,-88.0301 172.479,-79.2698"/>
<polygon fill="midnightblue" stroke="midnightblue" points="173.387,-82.6619 182.593,-77.4187 172.126,-75.7763 173.387,-82.6619"/>
</g>
<!-- Node7 -->
<g id="node13" class="node"><title>Node7</title>
<a xlink:href="../../d3/d22/address__range_8hh.html" target="_top" xlink:title="harpoon/memory/address\l_range.hh">
<polygon fill="white" stroke="black" points="72.5,-233 72.5,-267 199.5,-267 199.5,-233 72.5,-233"/>
<text text-anchor="start" x="80.5" y="-254" font-family="Helvetica,sans-Serif" font-size="10.00">harpoon/memory/address</text>
<text text-anchor="middle" x="136" y="-241" font-family="Helvetica,sans-Serif" font-size="10.00">_range.hh</text>
</a>
</g>
<!-- Node1&#45;&gt;Node7 -->
<g id="edge12" class="edge"><title>Node1&#45;&gt;Node7</title>
<path fill="none" stroke="midnightblue" d="M136,-362.737C136,-340.981 136,-303.322 136,-277.564"/>
<polygon fill="midnightblue" stroke="midnightblue" points="139.5,-277.334 136,-267.334 132.5,-277.334 139.5,-277.334"/>
</g>
<!-- Node10 -->
<g id="node21" class="node"><title>Node10</title>
<a xlink:href="../../dc/d3f/memory_8hh.html" target="_top" xlink:title="harpoon/memory/memory.hh">
<polygon fill="white" stroke="black" points="163.5,-304.5 163.5,-325.5 304.5,-325.5 304.5,-304.5 163.5,-304.5"/>
<text text-anchor="middle" x="234" y="-312.5" font-family="Helvetica,sans-Serif" font-size="10.00">harpoon/memory/memory.hh</text>
</a>
</g>
<!-- Node1&#45;&gt;Node10 -->
<g id="edge22" class="edge"><title>Node1&#45;&gt;Node10</title>
<path fill="none" stroke="midnightblue" d="M161.748,-362.922C176.495,-353.141 194.899,-340.934 209.442,-331.289"/>
<polygon fill="midnightblue" stroke="midnightblue" points="211.531,-334.103 217.93,-325.658 207.662,-328.269 211.531,-334.103"/>
</g>
<!-- Node3 -->
<g id="node5" class="node"><title>Node3</title>
<polygon fill="white" stroke="#bfbfbf" points="117.5,-0.5 117.5,-21.5 158.5,-21.5 158.5,-0.5 117.5,-0.5"/>
<text text-anchor="middle" x="138" y="-8.5" font-family="Helvetica,sans-Serif" font-size="10.00">string</text>
</g>
<!-- Node2&#45;&gt;Node3 -->
<g id="edge4" class="edge"><title>Node2&#45;&gt;Node3</title>
<path fill="none" stroke="midnightblue" d="M216.392,-58.3619C201.777,-49.532 180.776,-36.844 164.189,-26.8224"/>
<polygon fill="midnightblue" stroke="midnightblue" points="165.865,-23.7461 155.496,-21.5707 162.246,-29.7376 165.865,-23.7461"/>
</g>
<!-- Node4 -->
<g id="node7" class="node"><title>Node4</title>
<polygon fill="white" stroke="#bfbfbf" points="176,-0.5 176,-21.5 228,-21.5 228,-0.5 176,-0.5"/>
<text text-anchor="middle" x="202" y="-8.5" font-family="Helvetica,sans-Serif" font-size="10.00">memory</text>
</g>
<!-- Node2&#45;&gt;Node4 -->
<g id="edge6" class="edge"><title>Node2&#45;&gt;Node4</title>
<path fill="none" stroke="midnightblue" d="M228.131,-58.3619C223.845,-50.5949 217.913,-39.8426 212.784,-30.5458"/>
<polygon fill="midnightblue" stroke="midnightblue" points="215.727,-28.6357 207.832,-21.5707 209.598,-32.0172 215.727,-28.6357"/>
</g>
<!-- Node5 -->
<g id="node9" class="node"><title>Node5</title>
<polygon fill="white" stroke="#bfbfbf" points="246,-0.5 246,-21.5 286,-21.5 286,-0.5 246,-0.5"/>
<text text-anchor="middle" x="266" y="-8.5" font-family="Helvetica,sans-Serif" font-size="10.00">utility</text>
</g>
<!-- Node2&#45;&gt;Node5 -->
<g id="edge8" class="edge"><title>Node2&#45;&gt;Node5</title>
<path fill="none" stroke="midnightblue" d="M239.869,-58.3619C244.155,-50.5949 250.087,-39.8426 255.216,-30.5458"/>
<polygon fill="midnightblue" stroke="midnightblue" points="258.402,-32.0172 260.168,-21.5707 252.273,-28.6357 258.402,-32.0172"/>
</g>
<!-- Node6 -->
<g id="node11" class="node"><title>Node6</title>
<polygon fill="white" stroke="#bfbfbf" points="304,-0.5 304,-21.5 350,-21.5 350,-0.5 304,-0.5"/>
<text text-anchor="middle" x="327" y="-8.5" font-family="Helvetica,sans-Serif" font-size="10.00">cstdint</text>
</g>
<!-- Node2&#45;&gt;Node6 -->
<g id="edge10" class="edge"><title>Node2&#45;&gt;Node6</title>
<path fill="none" stroke="midnightblue" d="M251.058,-58.3619C265.085,-49.6138 285.184,-37.0786 301.182,-27.1015"/>
<polygon fill="midnightblue" stroke="midnightblue" points="303.418,-29.8323 310.051,-21.5707 299.713,-23.8927 303.418,-29.8323"/>
</g>
<!-- Node7&#45;&gt;Node2 -->
<g id="edge14" class="edge"><title>Node7&#45;&gt;Node2</title>
<path fill="none" stroke="midnightblue" d="M112.772,-232.866C79.8951,-206.534 26.9527,-155.067 57,-116 71.2362,-97.4902 127.41,-84.7478 172.708,-77.2484"/>
<polygon fill="midnightblue" stroke="midnightblue" points="173.455,-80.6734 182.776,-75.6365 172.348,-73.7614 173.455,-80.6734"/>
</g>
<!-- Node8 -->
<g id="node16" class="node"><title>Node8</title>
<a xlink:href="../../db/db3/address_8hh.html" target="_top" xlink:title="harpoon/memory/address.hh">
<polygon fill="white" stroke="black" points="66,-116.5 66,-137.5 206,-137.5 206,-116.5 66,-116.5"/>
<text text-anchor="middle" x="136" y="-124.5" font-family="Helvetica,sans-Serif" font-size="10.00">harpoon/memory/address.hh</text>
</a>
</g>
<!-- Node7&#45;&gt;Node8 -->
<g id="edge16" class="edge"><title>Node7&#45;&gt;Node8</title>
<path fill="none" stroke="midnightblue" d="M136,-232.897C136,-210.673 136,-171.886 136,-147.929"/>
<polygon fill="midnightblue" stroke="midnightblue" points="139.5,-147.787 136,-137.787 132.5,-147.787 139.5,-147.787"/>
</g>
<!-- Node9 -->
<g id="node19" class="node"><title>Node9</title>
<polygon fill="white" stroke="#bfbfbf" points="164,-174.5 164,-195.5 204,-195.5 204,-174.5 164,-174.5"/>
<text text-anchor="middle" x="184" y="-182.5" font-family="Helvetica,sans-Serif" font-size="10.00">limits</text>
</g>
<!-- Node7&#45;&gt;Node9 -->
<g id="edge20" class="edge"><title>Node7&#45;&gt;Node9</title>
<path fill="none" stroke="midnightblue" d="M148.611,-232.922C155.179,-224.029 163.227,-213.13 169.989,-203.974"/>
<polygon fill="midnightblue" stroke="midnightblue" points="172.861,-205.976 175.986,-195.852 167.23,-201.817 172.861,-205.976"/>
</g>
<!-- Node8&#45;&gt;Node2 -->
<g id="edge18" class="edge"><title>Node8&#45;&gt;Node2</title>
<path fill="none" stroke="midnightblue" d="M153.975,-116.362C168.894,-107.532 190.333,-94.844 207.266,-84.8224"/>
<polygon fill="midnightblue" stroke="midnightblue" points="209.316,-87.6759 216.139,-79.5707 205.751,-81.6519 209.316,-87.6759"/>
</g>
<!-- Node10&#45;&gt;Node2 -->
<g id="edge24" class="edge"><title>Node10&#45;&gt;Node2</title>
<path fill="none" stroke="midnightblue" d="M234,-304.43C234,-266.975 234,-140.138 234,-89.8186"/>
<polygon fill="midnightblue" stroke="midnightblue" points="237.5,-89.5309 234,-79.5309 230.5,-89.531 237.5,-89.5309"/>
</g>
<!-- Node10&#45;&gt;Node7 -->
<g id="edge46" class="edge"><title>Node10&#45;&gt;Node7</title>
<path fill="none" stroke="midnightblue" d="M217.817,-304.267C204.974,-295.748 186.563,-283.537 170.457,-272.854"/>
<polygon fill="midnightblue" stroke="midnightblue" points="172.065,-269.721 161.796,-267.11 168.195,-275.554 172.065,-269.721"/>
</g>
<!-- Node11 -->
<g id="node24" class="node"><title>Node11</title>
<a xlink:href="../../d5/d09/hardware__component_8hh.html" target="_top" xlink:title="Hardware component. ">
<polygon fill="white" stroke="black" points="291.5,-239.5 291.5,-260.5 452.5,-260.5 452.5,-239.5 291.5,-239.5"/>
<text text-anchor="middle" x="372" y="-247.5" font-family="Helvetica,sans-Serif" font-size="10.00">harpoon/hardware_component.hh</text>
</a>
</g>
<!-- Node10&#45;&gt;Node11 -->
<g id="edge26" class="edge"><title>Node10&#45;&gt;Node11</title>
<path fill="none" stroke="midnightblue" d="M256.479,-304.412C279.234,-293.694 314.624,-277.025 340.239,-264.96"/>
<polygon fill="midnightblue" stroke="midnightblue" points="341.975,-268.011 349.53,-260.584 338.992,-261.678 341.975,-268.011"/>
</g>
<!-- Node15 -->
<g id="node35" class="node"><title>Node15</title>
<polygon fill="white" stroke="#bfbfbf" points="539.5,-174.5 539.5,-195.5 568.5,-195.5 568.5,-174.5 539.5,-174.5"/>
<text text-anchor="middle" x="554" y="-182.5" font-family="Helvetica,sans-Serif" font-size="10.00">list</text>
</g>
<!-- Node10&#45;&gt;Node15 -->
<g id="edge48" class="edge"><title>Node10&#45;&gt;Node15</title>
<path fill="none" stroke="midnightblue" d="M304.647,-309.924C351.102,-304.339 412.112,-292.613 461,-268 492.655,-252.063 521.868,-222.55 538.81,-203.353"/>
<polygon fill="midnightblue" stroke="midnightblue" points="541.624,-205.448 545.493,-195.585 536.317,-200.883 541.624,-205.448"/>
</g>
<!-- Node11&#45;&gt;Node2 -->
<g id="edge28" class="edge"><title>Node11&#45;&gt;Node2</title>
<path fill="none" stroke="midnightblue" d="M349.543,-239.471C331.706,-230.159 307.159,-215.094 291,-196 276.623,-179.011 253.429,-120.731 241.547,-89.3674"/>
<polygon fill="midnightblue" stroke="midnightblue" points="244.77,-87.9945 237.98,-79.8615 238.216,-90.4537 244.77,-87.9945"/>
</g>
<!-- Node12 -->
<g id="node27" class="node"><title>Node12</title>
<a xlink:href="../../d3/de3/log_8hh.html" target="_top" xlink:title="harpoon/log/log.hh">
<polygon fill="white" stroke="black" points="300,-174.5 300,-195.5 396,-195.5 396,-174.5 300,-174.5"/>
<text text-anchor="middle" x="348" y="-182.5" font-family="Helvetica,sans-Serif" font-size="10.00">harpoon/log/log.hh</text>
</a>
</g>
<!-- Node11&#45;&gt;Node12 -->
<g id="edge30" class="edge"><title>Node11&#45;&gt;Node12</title>
<path fill="none" stroke="midnightblue" d="M368.037,-239.267C364.612,-229.991 359.57,-216.336 355.401,-205.045"/>
<polygon fill="midnightblue" stroke="midnightblue" points="358.637,-203.702 351.889,-195.534 352.07,-206.127 358.637,-203.702"/>
</g>
<!-- Node11&#45;&gt;Node15 -->
<g id="edge40" class="edge"><title>Node11&#45;&gt;Node15</title>
<path fill="none" stroke="midnightblue" d="M406.863,-239.473C437.339,-229.982 482.877,-215.106 529.653,-196.293"/>
<polygon fill="midnightblue" stroke="midnightblue" points="531.08,-199.491 539.021,-192.478 528.439,-193.008 531.08,-199.491"/>
</g>
<!-- Node16 -->
<g id="node37" class="node"><title>Node16</title>
<polygon fill="white" stroke="#bfbfbf" points="414,-174.5 414,-195.5 460,-195.5 460,-174.5 414,-174.5"/>
<text text-anchor="middle" x="437" y="-182.5" font-family="Helvetica,sans-Serif" font-size="10.00">atomic</text>
</g>
<!-- Node11&#45;&gt;Node16 -->
<g id="edge42" class="edge"><title>Node11&#45;&gt;Node16</title>
<path fill="none" stroke="midnightblue" d="M382.733,-239.267C392.672,-229.328 407.637,-214.363 419.336,-202.664"/>
<polygon fill="midnightblue" stroke="midnightblue" points="421.87,-205.08 426.466,-195.534 416.92,-200.13 421.87,-205.08"/>
</g>
<!-- Node17 -->
<g id="node39" class="node"><title>Node17</title>
<polygon fill="white" stroke="#bfbfbf" points="478,-174.5 478,-195.5 522,-195.5 522,-174.5 478,-174.5"/>
<text text-anchor="middle" x="500" y="-182.5" font-family="Helvetica,sans-Serif" font-size="10.00">mutex</text>
</g>
<!-- Node11&#45;&gt;Node17 -->
<g id="edge44" class="edge"><title>Node11&#45;&gt;Node17</title>
<path fill="none" stroke="midnightblue" d="M392.85,-239.412C413.863,-228.741 446.493,-212.172 470.226,-200.12"/>
<polygon fill="midnightblue" stroke="midnightblue" points="471.827,-203.232 479.159,-195.584 468.658,-196.991 471.827,-203.232"/>
</g>
<!-- Node12&#45;&gt;Node2 -->
<g id="edge32" class="edge"><title>Node12&#45;&gt;Node2</title>
<path fill="none" stroke="midnightblue" d="M339.082,-174.405C327.318,-160.589 305.786,-135.844 286,-116 275.931,-105.902 264.184,-95.1999 254.405,-86.5632"/>
<polygon fill="midnightblue" stroke="midnightblue" points="256.565,-83.8024 246.734,-79.8527 251.956,-89.0711 256.565,-83.8024"/>
</g>
<!-- Node13 -->
<g id="node30" class="node"><title>Node13</title>
<a xlink:href="../../d9/d74/message_8hh.html" target="_top" xlink:title="harpoon/log/message.hh">
<polygon fill="white" stroke="black" points="337.5,-116.5 337.5,-137.5 460.5,-137.5 460.5,-116.5 337.5,-116.5"/>
<text text-anchor="middle" x="399" y="-124.5" font-family="Helvetica,sans-Serif" font-size="10.00">harpoon/log/message.hh</text>
</a>
</g>
<!-- Node12&#45;&gt;Node13 -->
<g id="edge34" class="edge"><title>Node12&#45;&gt;Node13</title>
<path fill="none" stroke="midnightblue" d="M357.354,-174.362C364.543,-166.186 374.641,-154.702 383.093,-145.091"/>
<polygon fill="midnightblue" stroke="midnightblue" points="385.73,-147.392 389.705,-137.571 380.473,-142.769 385.73,-147.392"/>
</g>
<!-- Node13&#45;&gt;Node2 -->
<g id="edge36" class="edge"><title>Node13&#45;&gt;Node2</title>
<path fill="none" stroke="midnightblue" d="M369.12,-116.497C342.337,-107.082 302.855,-93.2036 273.478,-82.8773"/>
<polygon fill="midnightblue" stroke="midnightblue" points="274.531,-79.5374 263.936,-79.5231 272.21,-86.1413 274.531,-79.5374"/>
</g>
<!-- Node14 -->
<g id="node33" class="node"><title>Node14</title>
<polygon fill="white" stroke="#bfbfbf" points="373,-58.5 373,-79.5 425,-79.5 425,-58.5 373,-58.5"/>
<text text-anchor="middle" x="399" y="-66.5" font-family="Helvetica,sans-Serif" font-size="10.00">sstream</text>
</g>
<!-- Node13&#45;&gt;Node14 -->
<g id="edge38" class="edge"><title>Node13&#45;&gt;Node14</title>
<path fill="none" stroke="midnightblue" d="M399,-116.362C399,-108.922 399,-98.7427 399,-89.7276"/>
<polygon fill="midnightblue" stroke="midnightblue" points="402.5,-89.5706 399,-79.5707 395.5,-89.5707 402.5,-89.5706"/>
</g>
</g>
</svg>
