<?xml version="1.0" encoding="UTF-8" standalone="no"?>
<!DOCTYPE svg PUBLIC "-//W3C//DTD SVG 1.1//EN"
 "http://www.w3.org/Graphics/SVG/1.1/DTD/svg11.dtd">
<!-- Generated by graphviz version 2.26.3 (20100126.1600)
 -->
<!-- Title: harpoon/execution Pages: 1 -->
<svg width="98pt" height="153pt"
 viewBox="0.00 0.00 98.00 153.00" xmlns="http://www.w3.org/2000/svg" xmlns:xlink="http://www.w3.org/1999/xlink">
<g id="graph1" class="graph" transform="scale(1 1) rotate(0) translate(4 149)">
<title>harpoon/execution</title>
<polygon fill="white" stroke="white" points="-4,5 -4,-149 95,-149 95,5 -4,5"/>
<g id="graph2" class="cluster"><title>clusterdir_d6cfac7184b3a2ae06630a5923aa12d1</title>
<a xlink:href="dir_d6cfac7184b3a2ae06630a5923aa12d1.html" target="_top" xlink:title="harpoon">
<polygon fill="#ddddee" stroke="black" points="8,-64 8,-137 82,-137 82,-64 8,-64"/>
<text text-anchor="middle" x="45" y="-124" font-family="Helvetica,sans-Serif" font-size="10.00">harpoon</text>
</a>
</g>
<!-- dir_8d2b12b06294a2e950f1eb6f7f90a240 -->
<g id="node2" class="node"><title>dir_8d2b12b06294a2e950f1eb6f7f90a240</title>
<a xlink:href="dir_8d2b12b06294a2e950f1eb6f7f90a240.html" target="_top" xlink:title="execution">
<polygon fill="#eeeeff" stroke="black" points="74,-108 16,-108 16,-72 74,-72 74,-108"/>
<text text-anchor="middle" x="45" y="-87.5" font-family="Helvetica,sans-Serif" font-size="10.00">execution</text>
</a>
</g>
<!-- dir_3efc55d360d15bc5b946832cb8e0b0f5 -->
<g id="node3" class="node"><title>dir_3efc55d360d15bc5b946832cb8e0b0f5</title>
<a xlink:href="dir_3efc55d360d15bc5b946832cb8e0b0f5.html" target="_top" xlink:title="clock">
<polygon fill="white" stroke="red" points="72,-36 18,-36 18,-1.77636e-14 72,-3.55271e-15 72,-36"/>
<text text-anchor="middle" x="45" y="-15.5" font-family="Helvetica,sans-Serif" font-size="10.00">clock</text>
</a>
</g>
<!-- dir_8d2b12b06294a2e950f1eb6f7f90a240&#45;&gt;dir_3efc55d360d15bc5b946832cb8e0b0f5 -->
<g id="edge3" class="edge"><title>dir_8d2b12b06294a2e950f1eb6f7f90a240&#45;&gt;dir_3efc55d360d15bc5b946832cb8e0b0f5</title>
<path fill="none" stroke="black" d="M45,-71.8314C45,-64.131 45,-54.9743 45,-46.4166"/>
<polygon fill="black" stroke="black" points="48.5001,-46.4132 45,-36.4133 41.5001,-46.4133 48.5001,-46.4132"/>
<a xlink:href="dir_000004_000001.html" target="_top" xlink:title="1">
<text text-anchor="middle" x="51.3393" y="-47.5079" font-family="Helvetica,sans-Serif" font-size="10.00">1</text>
</a>
</g>
</g>
</svg>
