<?xml version="1.0" encoding="UTF-8" standalone="no"?>
<!DOCTYPE svg PUBLIC "-//W3C//DTD SVG 1.1//EN"
 "http://www.w3.org/Graphics/SVG/1.1/DTD/svg11.dtd">
<!-- Generated by graphviz version 2.26.3 (20100126.1600)
 -->
<!-- Title: harpoon Pages: 1 -->
<svg width="242pt" height="220pt"
 viewBox="0.00 0.00 242.00 220.00" xmlns="http://www.w3.org/2000/svg" xmlns:xlink="http://www.w3.org/1999/xlink">
<g id="graph1" class="graph" transform="scale(1 1) rotate(0) translate(4 216)">
<title>harpoon</title>
<polygon fill="white" stroke="white" points="-4,5 -4,-216 239,-216 239,5 -4,5"/>
<g id="graph2" class="cluster"><title>clusterdir_d6cfac7184b3a2ae06630a5923aa12d1</title>
<a xlink:href="dir_d6cfac7184b3a2ae06630a5923aa12d1.html" target="_top">
<polygon fill="#eeeeff" stroke="black" points="8,-8 8,-204 226,-204 226,-8 8,-8"/>
</a>
</g>
<!-- dir_d6cfac7184b3a2ae06630a5923aa12d1 -->
<g id="node2" class="node"><title>dir_d6cfac7184b3a2ae06630a5923aa12d1</title>
<text text-anchor="middle" x="119" y="-175.5" font-family="Helvetica,sans-Serif" font-size="10.00">harpoon</text>
</g>
<!-- dir_8d2b12b06294a2e950f1eb6f7f90a240 -->
<g id="node5" class="node"><title>dir_8d2b12b06294a2e950f1eb6f7f90a240</title>
<a xlink:href="dir_8d2b12b06294a2e950f1eb6f7f90a240.html" target="_top" xlink:title="execution">
<polygon fill="white" stroke="black" points="74,-124 16,-124 16,-88 74,-88 74,-124"/>
<text text-anchor="middle" x="45" y="-103.5" font-family="Helvetica,sans-Serif" font-size="10.00">execution</text>
</a>
</g>
<!-- dir_d6cfac7184b3a2ae06630a5923aa12d1&#45;&gt;dir_8d2b12b06294a2e950f1eb6f7f90a240 -->
<g id="edge7" class="edge"><title>dir_d6cfac7184b3a2ae06630a5923aa12d1&#45;&gt;dir_8d2b12b06294a2e950f1eb6f7f90a240</title>
<path fill="none" stroke="black" d="M100.327,-159.831C91.4751,-151.219 80.7514,-140.785 71.1105,-131.405"/>
<polygon fill="black" stroke="black" points="73.2754,-128.628 63.6674,-124.163 68.3939,-133.645 73.2754,-128.628"/>
<a xlink:href="dir_000000_000004.html" target="_top" xlink:title="1">
<text text-anchor="middle" x="77.8317" y="-126.6" font-family="Helvetica,sans-Serif" font-size="10.00">1</text>
</a>
</g>
<!-- dir_e6320cd3dcef99ab942dc9fc8ee30d04 -->
<g id="node6" class="node"><title>dir_e6320cd3dcef99ab942dc9fc8ee30d04</title>
<a xlink:href="dir_e6320cd3dcef99ab942dc9fc8ee30d04.html" target="_top" xlink:title="log">
<polygon fill="white" stroke="black" points="146,-124 92,-124 92,-88 146,-88 146,-124"/>
<text text-anchor="middle" x="119" y="-103.5" font-family="Helvetica,sans-Serif" font-size="10.00">log</text>
</a>
</g>
<!-- dir_d6cfac7184b3a2ae06630a5923aa12d1&#45;&gt;dir_e6320cd3dcef99ab942dc9fc8ee30d04 -->
<g id="edge5" class="edge"><title>dir_d6cfac7184b3a2ae06630a5923aa12d1&#45;&gt;dir_e6320cd3dcef99ab942dc9fc8ee30d04</title>
<path fill="none" stroke="black" d="M119,-159.831C119,-152.131 119,-142.974 119,-134.417"/>
<polygon fill="black" stroke="black" points="122.5,-134.413 119,-124.413 115.5,-134.413 122.5,-134.413"/>
<a xlink:href="dir_000000_000005.html" target="_top" xlink:title="1">
<text text-anchor="middle" x="125.339" y="-135.508" font-family="Helvetica,sans-Serif" font-size="10.00">1</text>
</a>
</g>
<!-- dir_c282853123e6cccf4e1d96eb84719b7c -->
<g id="node7" class="node"><title>dir_c282853123e6cccf4e1d96eb84719b7c</title>
<a xlink:href="dir_c282853123e6cccf4e1d96eb84719b7c.html" target="_top" xlink:title="memory">
<polygon fill="white" stroke="red" points="218,-124 164,-124 164,-88 218,-88 218,-124"/>
<text text-anchor="middle" x="191" y="-103.5" font-family="Helvetica,sans-Serif" font-size="10.00">memory</text>
</a>
</g>
<!-- dir_d6cfac7184b3a2ae06630a5923aa12d1&#45;&gt;dir_c282853123e6cccf4e1d96eb84719b7c -->
<g id="edge9" class="edge"><title>dir_d6cfac7184b3a2ae06630a5923aa12d1&#45;&gt;dir_c282853123e6cccf4e1d96eb84719b7c</title>
<path fill="none" stroke="black" d="M137.169,-159.831C145.715,-151.285 156.056,-140.944 165.38,-131.62"/>
<polygon fill="black" stroke="black" points="167.991,-133.959 172.587,-124.413 163.041,-129.009 167.991,-133.959"/>
<a xlink:href="dir_000000_000006.html" target="_top" xlink:title="2">
<text text-anchor="middle" x="167.456" y="-136.009" font-family="Helvetica,sans-Serif" font-size="10.00">2</text>
</a>
</g>
<!-- dir_3efc55d360d15bc5b946832cb8e0b0f5 -->
<g id="node3" class="node"><title>dir_3efc55d360d15bc5b946832cb8e0b0f5</title>
<a xlink:href="dir_3efc55d360d15bc5b946832cb8e0b0f5.html" target="_top" xlink:title="clock">
<polygon fill="white" stroke="red" points="72,-52 18,-52 18,-16 72,-16 72,-52"/>
<text text-anchor="middle" x="45" y="-31.5" font-family="Helvetica,sans-Serif" font-size="10.00">clock</text>
</a>
</g>
<!-- dir_53e624dd41e30a87ca3c360098cd913c -->
<g id="node4" class="node"><title>dir_53e624dd41e30a87ca3c360098cd913c</title>
<a xlink:href="dir_53e624dd41e30a87ca3c360098cd913c.html" target="_top" xlink:title="exception">
<polygon fill="white" stroke="black" points="218,-52 160,-52 160,-16 218,-16 218,-52"/>
<text text-anchor="middle" x="189" y="-31.5" font-family="Helvetica,sans-Serif" font-size="10.00">exception</text>
</a>
</g>
<!-- dir_8d2b12b06294a2e950f1eb6f7f90a240&#45;&gt;dir_3efc55d360d15bc5b946832cb8e0b0f5 -->
<g id="edge3" class="edge"><title>dir_8d2b12b06294a2e950f1eb6f7f90a240&#45;&gt;dir_3efc55d360d15bc5b946832cb8e0b0f5</title>
<path fill="none" stroke="black" d="M45,-87.8314C45,-80.131 45,-70.9743 45,-62.4166"/>
<polygon fill="black" stroke="black" points="48.5001,-62.4132 45,-52.4133 41.5001,-62.4133 48.5001,-62.4132"/>
<a xlink:href="dir_000004_000001.html" target="_top" xlink:title="1">
<text text-anchor="middle" x="51.3393" y="-63.5079" font-family="Helvetica,sans-Serif" font-size="10.00">1</text>
</a>
</g>
<!-- dir_c282853123e6cccf4e1d96eb84719b7c&#45;&gt;dir_53e624dd41e30a87ca3c360098cd913c -->
<g id="edge11" class="edge"><title>dir_c282853123e6cccf4e1d96eb84719b7c&#45;&gt;dir_53e624dd41e30a87ca3c360098cd913c</title>
<path fill="none" stroke="black" d="M190.495,-87.8314C190.281,-80.131 190.027,-70.9743 189.789,-62.4166"/>
<polygon fill="black" stroke="black" points="193.288,-62.3122 189.511,-52.4133 186.291,-62.5066 193.288,-62.3122"/>
<a xlink:href="dir_000006_000003.html" target="_top" xlink:title="1">
<text text-anchor="middle" x="196.226" y="-63.3266" font-family="Helvetica,sans-Serif" font-size="10.00">1</text>
</a>
</g>
</g>
</svg>
