<?xml version="1.0" encoding="UTF-8" standalone="no"?>
<!DOCTYPE svg PUBLIC "-//W3C//DTD SVG 1.1//EN"
 "http://www.w3.org/Graphics/SVG/1.1/DTD/svg11.dtd">
<!-- Generated by graphviz version 2.26.3 (20100126.1600)
 -->
<!-- Title: harpoon/execution Pages: 1 -->
<svg width="190pt" height="161pt"
 viewBox="0.00 0.00 190.00 161.00" xmlns="http://www.w3.org/2000/svg" xmlns:xlink="http://www.w3.org/1999/xlink">
<g id="graph1" class="graph" transform="scale(1 1) rotate(0) translate(4 157)">
<title>harpoon/execution</title>
<polygon fill="white" stroke="white" points="-4,5 -4,-157 187,-157 187,5 -4,5"/>
<g id="graph2" class="cluster"><title>clusterdir_d6cfac7184b3a2ae06630a5923aa12d1</title>
<a xlink:href="dir_d6cfac7184b3a2ae06630a5923aa12d1.html" target="_top" xlink:title="harpoon">
<polygon fill="#ddddee" stroke="black" points="8,-56 8,-145 174,-145 174,-56 8,-56"/>
<text text-anchor="middle" x="91" y="-132" font-family="Helvetica,sans-Serif" font-size="10.00">harpoon</text>
</a>
</g>
<g id="graph3" class="cluster"><title>clusterdir_8d2b12b06294a2e950f1eb6f7f90a240</title>
<a xlink:href="dir_8d2b12b06294a2e950f1eb6f7f90a240.html" target="_top">
<polygon fill="#eeeeff" stroke="black" points="16,-64 16,-116 166,-116 166,-64 16,-64"/>
</a>
</g>
<!-- dir_8d2b12b06294a2e950f1eb6f7f90a240 -->
<g id="node3" class="node"><title>dir_8d2b12b06294a2e950f1eb6f7f90a240</title>
<text text-anchor="middle" x="53" y="-87.5" font-family="Helvetica,sans-Serif" font-size="10.00">execution</text>
</g>
<!-- dir_3efc55d360d15bc5b946832cb8e0b0f5 -->
<g id="node6" class="node"><title>dir_3efc55d360d15bc5b946832cb8e0b0f5</title>
<a xlink:href="dir_3efc55d360d15bc5b946832cb8e0b0f5.html" target="_top" xlink:title="clock">
<polygon fill="white" stroke="red" points="80,-36 26,-36 26,-1.77636e-14 80,-3.55271e-15 80,-36"/>
<text text-anchor="middle" x="53" y="-15.5" font-family="Helvetica,sans-Serif" font-size="10.00">clock</text>
</a>
</g>
<!-- dir_8d2b12b06294a2e950f1eb6f7f90a240&#45;&gt;dir_3efc55d360d15bc5b946832cb8e0b0f5 -->
<g id="edge4" class="edge"><title>dir_8d2b12b06294a2e950f1eb6f7f90a240&#45;&gt;dir_3efc55d360d15bc5b946832cb8e0b0f5</title>
<path fill="none" stroke="black" d="M53,-71.8314C53,-64.131 53,-54.9743 53,-46.4166"/>
<polygon fill="black" stroke="black" points="56.5001,-46.4132 53,-36.4133 49.5001,-46.4133 56.5001,-46.4132"/>
<a xlink:href="dir_000004_000001.html" target="_top" xlink:title="1">
<text text-anchor="middle" x="59.3393" y="-47.5079" font-family="Helvetica,sans-Serif" font-size="10.00">1</text>
</a>
</g>
<!-- dir_bb16d08d08d9935665df9214a4b5d60a -->
<g id="node4" class="node"><title>dir_bb16d08d08d9935665df9214a4b5d60a</title>
<a xlink:href="dir_bb16d08d08d9935665df9214a4b5d60a.html" target="_top" xlink:title="exception">
<polygon fill="white" stroke="black" points="158,-108 100,-108 100,-72 158,-72 158,-108"/>
<text text-anchor="middle" x="129" y="-87.5" font-family="Helvetica,sans-Serif" font-size="10.00">exception</text>
</a>
</g>
<!-- dir_53e624dd41e30a87ca3c360098cd913c -->
<g id="node5" class="node"><title>dir_53e624dd41e30a87ca3c360098cd913c</title>
<a xlink:href="dir_53e624dd41e30a87ca3c360098cd913c.html" target="_top" xlink:title="exception">
<polygon fill="none" stroke="black" points="158,-36 100,-36 100,-1.77636e-14 158,-3.55271e-15 158,-36"/>
<text text-anchor="middle" x="129" y="-15.5" font-family="Helvetica,sans-Serif" font-size="10.00">exception</text>
</a>
</g>
<!-- dir_bb16d08d08d9935665df9214a4b5d60a&#45;&gt;dir_53e624dd41e30a87ca3c360098cd913c -->
<g id="edge6" class="edge"><title>dir_bb16d08d08d9935665df9214a4b5d60a&#45;&gt;dir_53e624dd41e30a87ca3c360098cd913c</title>
<path fill="none" stroke="black" d="M129,-71.8314C129,-64.131 129,-54.9743 129,-46.4166"/>
<polygon fill="black" stroke="black" points="132.5,-46.4132 129,-36.4133 125.5,-46.4133 132.5,-46.4132"/>
<a xlink:href="dir_000005_000003.html" target="_top" xlink:title="1">
<text text-anchor="middle" x="135.339" y="-47.5079" font-family="Helvetica,sans-Serif" font-size="10.00">1</text>
</a>
</g>
</g>
</svg>
