<?xml version="1.0" encoding="UTF-8" standalone="no"?>
<!DOCTYPE svg PUBLIC "-//W3C//DTD SVG 1.1//EN"
 "http://www.w3.org/Graphics/SVG/1.1/DTD/svg11.dtd">
<!-- Generated by graphviz version 2.26.3 (20100126.1600)
 -->
<!-- Title: harpoon/clock Pages: 1 -->
<svg width="112pt" height="185pt"
 viewBox="0.00 0.00 112.00 185.00" xmlns="http://www.w3.org/2000/svg" xmlns:xlink="http://www.w3.org/1999/xlink">
<g id="graph1" class="graph" transform="scale(1 1) rotate(0) translate(4 181)">
<title>harpoon/clock</title>
<polygon fill="white" stroke="white" points="-4,5 -4,-181 109,-181 109,5 -4,5"/>
<g id="graph2" class="cluster"><title>clusterdir_d6cfac7184b3a2ae06630a5923aa12d1</title>
<a xlink:href="dir_d6cfac7184b3a2ae06630a5923aa12d1.html" target="_top" xlink:title="harpoon">
<polygon fill="#ddddee" stroke="black" points="8,-8 8,-169 96,-169 96,-8 8,-8"/>
<text text-anchor="middle" x="52" y="-156" font-family="Helvetica,sans-Serif" font-size="10.00">harpoon</text>
</a>
</g>
<g id="graph3" class="cluster"><title>clusterdir_3efc55d360d15bc5b946832cb8e0b0f5</title>
<a xlink:href="dir_3efc55d360d15bc5b946832cb8e0b0f5.html" target="_top">
<polygon fill="#eeeeff" stroke="black" points="16,-16 16,-140 88,-140 88,-16 16,-16"/>
</a>
</g>
<!-- dir_3efc55d360d15bc5b946832cb8e0b0f5 -->
<g id="node3" class="node"><title>dir_3efc55d360d15bc5b946832cb8e0b0f5</title>
<text text-anchor="middle" x="52" y="-111.5" font-family="Helvetica,sans-Serif" font-size="10.00">clock</text>
</g>
<!-- dir_8aa7d1294c0956f827f31fdb681123c0 -->
<g id="node4" class="node"><title>dir_8aa7d1294c0956f827f31fdb681123c0</title>
<a xlink:href="dir_8aa7d1294c0956f827f31fdb681123c0.html" target="_top" xlink:title="generator">
<polygon fill="white" stroke="black" points="80,-60 24,-60 24,-24 80,-24 80,-60"/>
<text text-anchor="middle" x="52" y="-39.5" font-family="Helvetica,sans-Serif" font-size="10.00">generator</text>
</a>
</g>
<!-- dir_3efc55d360d15bc5b946832cb8e0b0f5&#45;&gt;dir_8aa7d1294c0956f827f31fdb681123c0 -->
<g id="edge4" class="edge"><title>dir_3efc55d360d15bc5b946832cb8e0b0f5&#45;&gt;dir_8aa7d1294c0956f827f31fdb681123c0</title>
<path fill="none" stroke="black" d="M52,-95.8314C52,-88.131 52,-78.9743 52,-70.4166"/>
<polygon fill="black" stroke="black" points="55.5001,-70.4132 52,-60.4133 48.5001,-70.4133 55.5001,-70.4132"/>
<a xlink:href="dir_000001_000002.html" target="_top" xlink:title="1">
<text text-anchor="middle" x="58.3393" y="-71.5079" font-family="Helvetica,sans-Serif" font-size="10.00">1</text>
</a>
</g>
</g>
</svg>
