<?xml version="1.0" encoding="UTF-8" standalone="no"?>
<!DOCTYPE svg PUBLIC "-//W3C//DTD SVG 1.1//EN"
 "http://www.w3.org/Graphics/SVG/1.1/DTD/svg11.dtd">
<!-- Generated by graphviz version 2.26.3 (20100126.1600)
 -->
<!-- Title: harpoon/memory Pages: 1 -->
<svg width="184pt" height="233pt"
 viewBox="0.00 0.00 184.00 233.00" xmlns="http://www.w3.org/2000/svg" xmlns:xlink="http://www.w3.org/1999/xlink">
<g id="graph1" class="graph" transform="scale(1 1) rotate(0) translate(4 229)">
<title>harpoon/memory</title>
<polygon fill="white" stroke="white" points="-4,5 -4,-229 181,-229 181,5 -4,5"/>
<g id="graph2" class="cluster"><title>clusterdir_d6cfac7184b3a2ae06630a5923aa12d1</title>
<a xlink:href="dir_d6cfac7184b3a2ae06630a5923aa12d1.html" target="_top" xlink:title="harpoon">
<polygon fill="#ddddee" stroke="black" points="8,-56 8,-217 168,-217 168,-56 8,-56"/>
<text text-anchor="middle" x="88" y="-204" font-family="Helvetica,sans-Serif" font-size="10.00">harpoon</text>
</a>
</g>
<g id="graph3" class="cluster"><title>clusterdir_c282853123e6cccf4e1d96eb84719b7c</title>
<a xlink:href="dir_c282853123e6cccf4e1d96eb84719b7c.html" target="_top">
<polygon fill="#eeeeff" stroke="black" points="16,-64 16,-188 160,-188 160,-64 16,-64"/>
</a>
</g>
<!-- dir_c282853123e6cccf4e1d96eb84719b7c -->
<g id="node3" class="node"><title>dir_c282853123e6cccf4e1d96eb84719b7c</title>
<text text-anchor="middle" x="125" y="-159.5" font-family="Helvetica,sans-Serif" font-size="10.00">memory</text>
</g>
<!-- dir_a295622d724395d44289b3fb5d6329d1 -->
<g id="node4" class="node"><title>dir_a295622d724395d44289b3fb5d6329d1</title>
<a xlink:href="dir_a295622d724395d44289b3fb5d6329d1.html" target="_top" xlink:title="exception">
<polygon fill="white" stroke="black" points="152,-108 94,-108 94,-72 152,-72 152,-108"/>
<text text-anchor="middle" x="123" y="-87.5" font-family="Helvetica,sans-Serif" font-size="10.00">exception</text>
</a>
</g>
<!-- dir_c282853123e6cccf4e1d96eb84719b7c&#45;&gt;dir_a295622d724395d44289b3fb5d6329d1 -->
<g id="edge6" class="edge"><title>dir_c282853123e6cccf4e1d96eb84719b7c&#45;&gt;dir_a295622d724395d44289b3fb5d6329d1</title>
<path fill="none" stroke="black" d="M124.495,-143.831C124.281,-136.131 124.027,-126.974 123.789,-118.417"/>
<polygon fill="black" stroke="black" points="127.288,-118.312 123.511,-108.413 120.291,-118.507 127.288,-118.312"/>
<a xlink:href="dir_000007_000008.html" target="_top" xlink:title="1">
<text text-anchor="middle" x="130.226" y="-119.327" font-family="Helvetica,sans-Serif" font-size="10.00">1</text>
</a>
</g>
<!-- dir_53e624dd41e30a87ca3c360098cd913c -->
<g id="node6" class="node"><title>dir_53e624dd41e30a87ca3c360098cd913c</title>
<a xlink:href="dir_53e624dd41e30a87ca3c360098cd913c.html" target="_top" xlink:title="exception">
<polygon fill="none" stroke="black" points="152,-36 94,-36 94,-1.77636e-14 152,-3.55271e-15 152,-36"/>
<text text-anchor="middle" x="123" y="-15.5" font-family="Helvetica,sans-Serif" font-size="10.00">exception</text>
</a>
</g>
<!-- dir_a295622d724395d44289b3fb5d6329d1&#45;&gt;dir_53e624dd41e30a87ca3c360098cd913c -->
<g id="edge4" class="edge"><title>dir_a295622d724395d44289b3fb5d6329d1&#45;&gt;dir_53e624dd41e30a87ca3c360098cd913c</title>
<path fill="none" stroke="black" d="M123,-71.8314C123,-64.131 123,-54.9743 123,-46.4166"/>
<polygon fill="black" stroke="black" points="126.5,-46.4132 123,-36.4133 119.5,-46.4133 126.5,-46.4132"/>
<a xlink:href="dir_000008_000003.html" target="_top" xlink:title="1">
<text text-anchor="middle" x="129.339" y="-47.5079" font-family="Helvetica,sans-Serif" font-size="10.00">1</text>
</a>
</g>
<!-- dir_6a9d91a41f7117691dbd3cf5b38d802f -->
<g id="node5" class="node"><title>dir_6a9d91a41f7117691dbd3cf5b38d802f</title>
<a xlink:href="dir_6a9d91a41f7117691dbd3cf5b38d802f.html" target="_top" xlink:title="serializer">
<polygon fill="white" stroke="black" points="80,-180 24,-180 24,-144 80,-144 80,-180"/>
<text text-anchor="middle" x="52" y="-159.5" font-family="Helvetica,sans-Serif" font-size="10.00">serializer</text>
</a>
</g>
</g>
</svg>
