<?xml version="1.0" encoding="UTF-8" standalone="no"?>
<!DOCTYPE svg PUBLIC "-//W3C//DTD SVG 1.1//EN"
 "http://www.w3.org/Graphics/SVG/1.1/DTD/svg11.dtd">
<!-- Generated by graphviz version 2.26.3 (20100126.1600)
 -->
<!-- Title: harpoon/execution/exception Pages: 1 -->
<svg width="98pt" height="153pt"
 viewBox="0.00 0.00 98.00 153.00" xmlns="http://www.w3.org/2000/svg" xmlns:xlink="http://www.w3.org/1999/xlink">
<g id="graph1" class="graph" transform="scale(1 1) rotate(0) translate(4 149)">
<title>harpoon/execution/exception</title>
<polygon fill="white" stroke="white" points="-4,5 -4,-149 95,-149 95,5 -4,5"/>
<g id="graph2" class="cluster"><title>clusterdir_8d2b12b06294a2e950f1eb6f7f90a240</title>
<a xlink:href="dir_8d2b12b06294a2e950f1eb6f7f90a240.html" target="_top" xlink:title="execution">
<polygon fill="#ddddee" stroke="black" points="8,-64 8,-137 82,-137 82,-64 8,-64"/>
<text text-anchor="middle" x="45" y="-124" font-family="Helvetica,sans-Serif" font-size="10.00">execution</text>
</a>
</g>
<!-- dir_bb16d08d08d9935665df9214a4b5d60a -->
<g id="node2" class="node"><title>dir_bb16d08d08d9935665df9214a4b5d60a</title>
<a xlink:href="dir_bb16d08d08d9935665df9214a4b5d60a.html" target="_top" xlink:title="exception">
<polygon fill="#eeeeff" stroke="black" points="74,-108 16,-108 16,-72 74,-72 74,-108"/>
<text text-anchor="middle" x="45" y="-87.5" font-family="Helvetica,sans-Serif" font-size="10.00">exception</text>
</a>
</g>
<!-- dir_53e624dd41e30a87ca3c360098cd913c -->
<g id="node3" class="node"><title>dir_53e624dd41e30a87ca3c360098cd913c</title>
<a xlink:href="dir_53e624dd41e30a87ca3c360098cd913c.html" target="_top" xlink:title="exception">
<polygon fill="none" stroke="black" points="74,-36 16,-36 16,-1.77636e-14 74,-3.55271e-15 74,-36"/>
<text text-anchor="middle" x="45" y="-15.5" font-family="Helvetica,sans-Serif" font-size="10.00">exception</text>
</a>
</g>
<!-- dir_bb16d08d08d9935665df9214a4b5d60a&#45;&gt;dir_53e624dd41e30a87ca3c360098cd913c -->
<g id="edge3" class="edge"><title>dir_bb16d08d08d9935665df9214a4b5d60a&#45;&gt;dir_53e624dd41e30a87ca3c360098cd913c</title>
<path fill="none" stroke="black" d="M45,-71.8314C45,-64.131 45,-54.9743 45,-46.4166"/>
<polygon fill="black" stroke="black" points="48.5001,-46.4132 45,-36.4133 41.5001,-46.4133 48.5001,-46.4132"/>
<a xlink:href="dir_000005_000003.html" target="_top" xlink:title="1">
<text text-anchor="middle" x="51.3393" y="-47.5079" font-family="Helvetica,sans-Serif" font-size="10.00">1</text>
</a>
</g>
</g>
</svg>
