<?xml version="1.0" encoding="UTF-8" standalone="no"?>
<!DOCTYPE svg PUBLIC "-//W3C//DTD SVG 1.1//EN"
 "http://www.w3.org/Graphics/SVG/1.1/DTD/svg11.dtd">
<!-- Generated by graphviz version 2.26.3 (20100126.1600)
 -->
<!-- Title: Graphical Class Hierarchy Pages: 1 -->
<svg width="902pt" height="94pt"
 viewBox="0.00 0.00 902.00 94.00" xmlns="http://www.w3.org/2000/svg" xmlns:xlink="http://www.w3.org/1999/xlink">
<g id="graph1" class="graph" transform="scale(1 1) rotate(0) translate(4 90)">
<title>Graphical Class Hierarchy</title>
<polygon fill="white" stroke="white" points="-4,5 -4,-90 899,-90 899,5 -4,5"/>
<!-- Node1 -->
<g id="node1" class="node"><title>Node1</title>
<polygon fill="white" stroke="#bfbfbf" points="0,-32.5 0,-53.5 74,-53.5 74,-32.5 0,-32.5"/>
<text text-anchor="middle" x="37" y="-40.5" font-family="Helvetica,sans-Serif" font-size="10.00">runtime_error</text>
</g>
<!-- Node2 -->
<g id="node3" class="node"><title>Node2</title>
<a xlink:href="d0/d5b/classharpoon_1_1exception_1_1harpoon__exception.html" target="_top" xlink:title="harpoon::exception\l::harpoon_exception">
<polygon fill="white" stroke="black" points="110,-26 110,-60 214,-60 214,-26 110,-26"/>
<text text-anchor="start" x="118" y="-47" font-family="Helvetica,sans-Serif" font-size="10.00">harpoon::exception</text>
<text text-anchor="middle" x="162" y="-34" font-family="Helvetica,sans-Serif" font-size="10.00">::harpoon_exception</text>
</a>
</g>
<!-- Node1&#45;&gt;Node2 -->
<g id="edge2" class="edge"><title>Node1&#45;&gt;Node2</title>
<path fill="none" stroke="midnightblue" d="M84.1859,-43C92.5975,-43 101.404,-43 109.942,-43"/>
<polygon fill="midnightblue" stroke="midnightblue" points="84.1657,-39.5001 74.1657,-43 84.1656,-46.5001 84.1657,-39.5001"/>
</g>
<!-- Node3 -->
<g id="node5" class="node"><title>Node3</title>
<a xlink:href="d7/df5/classharpoon_1_1exception_1_1hardware__component__exception.html" target="_top" xlink:title="harpoon::exception\l::hardware_component\l_exception">
<polygon fill="white" stroke="black" points="250,-19.5 250,-66.5 366,-66.5 366,-19.5 250,-19.5"/>
<text text-anchor="start" x="258" y="-53.5" font-family="Helvetica,sans-Serif" font-size="10.00">harpoon::exception</text>
<text text-anchor="start" x="258" y="-40.5" font-family="Helvetica,sans-Serif" font-size="10.00">::hardware_component</text>
<text text-anchor="middle" x="308" y="-27.5" font-family="Helvetica,sans-Serif" font-size="10.00">_exception</text>
</a>
</g>
<!-- Node2&#45;&gt;Node3 -->
<g id="edge4" class="edge"><title>Node2&#45;&gt;Node3</title>
<path fill="none" stroke="midnightblue" d="M224.459,-43C232.894,-43 241.52,-43 249.875,-43"/>
<polygon fill="midnightblue" stroke="midnightblue" points="224.297,-39.5001 214.297,-43 224.297,-46.5001 224.297,-39.5001"/>
</g>
<!-- Node4 -->
<g id="node7" class="node"><title>Node4</title>
<a xlink:href="dd/de3/classharpoon_1_1memory_1_1exception_1_1memory__exception.html" target="_top" xlink:title="harpoon::memory::exception\l::memory_exception">
<polygon fill="white" stroke="black" points="402,-26 402,-60 542,-60 542,-26 402,-26"/>
<text text-anchor="start" x="410" y="-47" font-family="Helvetica,sans-Serif" font-size="10.00">harpoon::memory::exception</text>
<text text-anchor="middle" x="472" y="-34" font-family="Helvetica,sans-Serif" font-size="10.00">::memory_exception</text>
</a>
</g>
<!-- Node3&#45;&gt;Node4 -->
<g id="edge6" class="edge"><title>Node3&#45;&gt;Node4</title>
<path fill="none" stroke="midnightblue" d="M376.408,-43C384.81,-43 393.407,-43 401.834,-43"/>
<polygon fill="midnightblue" stroke="midnightblue" points="376.282,-39.5001 366.282,-43 376.282,-46.5001 376.282,-39.5001"/>
</g>
<!-- Node5 -->
<g id="node9" class="node"><title>Node5</title>
<a xlink:href="d2/dc6/classharpoon_1_1memory_1_1exception_1_1access__violation.html" target="_top" xlink:title="harpoon::memory::exception\l::access_violation">
<polygon fill="white" stroke="black" points="578,-26 578,-60 718,-60 718,-26 578,-26"/>
<text text-anchor="start" x="586" y="-47" font-family="Helvetica,sans-Serif" font-size="10.00">harpoon::memory::exception</text>
<text text-anchor="middle" x="648" y="-34" font-family="Helvetica,sans-Serif" font-size="10.00">::access_violation</text>
</a>
</g>
<!-- Node4&#45;&gt;Node5 -->
<g id="edge8" class="edge"><title>Node4&#45;&gt;Node5</title>
<path fill="none" stroke="midnightblue" d="M552.101,-43C560.706,-43 569.412,-43 577.888,-43"/>
<polygon fill="midnightblue" stroke="midnightblue" points="552.066,-39.5001 542.066,-43 552.066,-46.5001 552.066,-39.5001"/>
</g>
<!-- Node6 -->
<g id="node11" class="node"><title>Node6</title>
<a xlink:href="de/db7/classharpoon_1_1memory_1_1exception_1_1read__access__violation.html" target="_top" xlink:title="harpoon::memory::exception\l::read_access_violation">
<polygon fill="white" stroke="black" points="754,-52 754,-86 894,-86 894,-52 754,-52"/>
<text text-anchor="start" x="762" y="-73" font-family="Helvetica,sans-Serif" font-size="10.00">harpoon::memory::exception</text>
<text text-anchor="middle" x="824" y="-60" font-family="Helvetica,sans-Serif" font-size="10.00">::read_access_violation</text>
</a>
</g>
<!-- Node5&#45;&gt;Node6 -->
<g id="edge10" class="edge"><title>Node5&#45;&gt;Node6</title>
<path fill="none" stroke="midnightblue" d="M728.101,-54.833C736.706,-56.1043 745.412,-57.3905 753.888,-58.6425"/>
<polygon fill="midnightblue" stroke="midnightblue" points="728.47,-51.3497 718.066,-53.3506 727.447,-58.2745 728.47,-51.3497"/>
</g>
<!-- Node7 -->
<g id="node13" class="node"><title>Node7</title>
<a xlink:href="da/d66/classharpoon_1_1memory_1_1exception_1_1write__access__violation.html" target="_top" xlink:title="harpoon::memory::exception\l::write_access_violation">
<polygon fill="white" stroke="black" points="754,-0 754,-34 894,-34 894,-0 754,-0"/>
<text text-anchor="start" x="762" y="-21" font-family="Helvetica,sans-Serif" font-size="10.00">harpoon::memory::exception</text>
<text text-anchor="middle" x="824" y="-8" font-family="Helvetica,sans-Serif" font-size="10.00">::write_access_violation</text>
</a>
</g>
<!-- Node5&#45;&gt;Node7 -->
<g id="edge12" class="edge"><title>Node5&#45;&gt;Node7</title>
<path fill="none" stroke="midnightblue" d="M728.101,-31.167C736.706,-29.8957 745.412,-28.6095 753.888,-27.3575"/>
<polygon fill="midnightblue" stroke="midnightblue" points="727.447,-27.7255 718.066,-32.6494 728.47,-34.6503 727.447,-27.7255"/>
</g>
</g>
</svg>
