<?xml version="1.0" encoding="UTF-8" standalone="no"?>
<!DOCTYPE svg PUBLIC "-//W3C//DTD SVG 1.1//EN"
 "http://www.w3.org/Graphics/SVG/1.1/DTD/svg11.dtd">
<!-- Generated by graphviz version 2.26.3 (20100126.1600)
 -->
<!-- Title: Graphical Class Hierarchy Pages: 1 -->
<svg width="1012pt" height="306pt"
 viewBox="0.00 0.00 1012.00 306.00" xmlns="http://www.w3.org/2000/svg" xmlns:xlink="http://www.w3.org/1999/xlink">
<g id="graph1" class="graph" transform="scale(1 1) rotate(0) translate(4 302)">
<title>Graphical Class Hierarchy</title>
<polygon fill="white" stroke="white" points="-4,5 -4,-302 1009,-302 1009,5 -4,5"/>
<!-- Node1 -->
<g id="node1" class="node"><title>Node1</title>
<polygon fill="white" stroke="#bfbfbf" points="0.5,-190.5 0.5,-211.5 125.5,-211.5 125.5,-190.5 0.5,-190.5"/>
<text text-anchor="middle" x="63" y="-198.5" font-family="Helvetica,sans-Serif" font-size="10.00">enable_shared_from_this</text>
</g>
<!-- Node2 -->
<g id="node3" class="node"><title>Node2</title>
<a xlink:href="df/d54/classharpoon_1_1hardware__component.html" target="_top" xlink:title="Base class for all hardware components of computer system (i.e. CPU, memory). All components should d...">
<polygon fill="white" stroke="black" points="162,-190.5 162,-211.5 312,-211.5 312,-190.5 162,-190.5"/>
<text text-anchor="middle" x="237" y="-198.5" font-family="Helvetica,sans-Serif" font-size="10.00">harpoon::hardware_component</text>
</a>
</g>
<!-- Node1&#45;&gt;Node2 -->
<g id="edge2" class="edge"><title>Node1&#45;&gt;Node2</title>
<path fill="none" stroke="midnightblue" d="M136.084,-201C144.592,-201 153.283,-201 161.819,-201"/>
<polygon fill="midnightblue" stroke="midnightblue" points="135.818,-197.5 125.818,-201 135.818,-204.5 135.818,-197.5"/>
</g>
<!-- Node3 -->
<g id="node5" class="node"><title>Node3</title>
<a xlink:href="d5/d84/classharpoon_1_1clock_1_1clock.html" target="_top" xlink:title="harpoon::clock::clock">
<polygon fill="white" stroke="black" points="361,-276.5 361,-297.5 471,-297.5 471,-276.5 361,-276.5"/>
<text text-anchor="middle" x="416" y="-284.5" font-family="Helvetica,sans-Serif" font-size="10.00">harpoon::clock::clock</text>
</a>
</g>
<!-- Node2&#45;&gt;Node3 -->
<g id="edge4" class="edge"><title>Node2&#45;&gt;Node3</title>
<path fill="none" stroke="midnightblue" d="M260.458,-217.315C282.311,-231.929 316.211,-253.136 348,-267 356.234,-270.591 365.302,-273.76 374.058,-276.456"/>
<polygon fill="midnightblue" stroke="midnightblue" points="262.39,-214.397 252.148,-211.686 258.465,-220.192 262.39,-214.397"/>
</g>
<!-- Node4 -->
<g id="node7" class="node"><title>Node4</title>
<a xlink:href="dd/d91/classharpoon_1_1computer__system.html" target="_top" xlink:title="harpoon::computer_system">
<polygon fill="white" stroke="black" points="348.5,-236.5 348.5,-257.5 483.5,-257.5 483.5,-236.5 348.5,-236.5"/>
<text text-anchor="middle" x="416" y="-244.5" font-family="Helvetica,sans-Serif" font-size="10.00">harpoon::computer_system</text>
</a>
</g>
<!-- Node2&#45;&gt;Node4 -->
<g id="edge6" class="edge"><title>Node2&#45;&gt;Node4</title>
<path fill="none" stroke="midnightblue" d="M287.942,-214.091C315.562,-221.189 349.24,-229.844 375.125,-236.496"/>
<polygon fill="midnightblue" stroke="midnightblue" points="288.623,-210.653 278.066,-211.553 286.88,-217.432 288.623,-210.653"/>
</g>
<!-- Node5 -->
<g id="node9" class="node"><title>Node5</title>
<a xlink:href="d6/d5c/classharpoon_1_1execution_1_1execution__unit.html" target="_top" xlink:title="harpoon::execution\l::execution_unit">
<polygon fill="white" stroke="black" points="366.5,-184 366.5,-218 465.5,-218 465.5,-184 366.5,-184"/>
<text text-anchor="start" x="374.5" y="-205" font-family="Helvetica,sans-Serif" font-size="10.00">harpoon::execution</text>
<text text-anchor="middle" x="416" y="-192" font-family="Helvetica,sans-Serif" font-size="10.00">::execution_unit</text>
</a>
</g>
<!-- Node2&#45;&gt;Node5 -->
<g id="edge8" class="edge"><title>Node2&#45;&gt;Node5</title>
<path fill="none" stroke="midnightblue" d="M322.479,-201C337.486,-201 352.645,-201 366.262,-201"/>
<polygon fill="midnightblue" stroke="midnightblue" points="322.134,-197.5 312.134,-201 322.134,-204.5 322.134,-197.5"/>
</g>
<!-- Node7 -->
<g id="node13" class="node"><title>Node7</title>
<a xlink:href="d9/d00/classharpoon_1_1execution_1_1processing__unit.html" target="_top" xlink:title="harpoon::execution\l::processing_unit">
<polygon fill="white" stroke="black" points="366.5,-132 366.5,-166 465.5,-166 465.5,-132 366.5,-132"/>
<text text-anchor="start" x="374.5" y="-153" font-family="Helvetica,sans-Serif" font-size="10.00">harpoon::execution</text>
<text text-anchor="middle" x="416" y="-140" font-family="Helvetica,sans-Serif" font-size="10.00">::processing_unit</text>
</a>
</g>
<!-- Node2&#45;&gt;Node7 -->
<g id="edge12" class="edge"><title>Node2&#45;&gt;Node7</title>
<path fill="none" stroke="midnightblue" d="M283.017,-187.632C308.505,-180.228 340.207,-171.018 366.265,-163.448"/>
<polygon fill="midnightblue" stroke="midnightblue" points="281.85,-184.326 273.223,-190.477 283.803,-191.048 281.85,-184.326"/>
</g>
<!-- Node8 -->
<g id="node15" class="node"><title>Node8</title>
<a xlink:href="db/d2f/classharpoon_1_1memory_1_1memory.html" target="_top" xlink:title="harpoon::memory::memory">
<polygon fill="white" stroke="black" points="349,-88.5 349,-109.5 483,-109.5 483,-88.5 349,-88.5"/>
<text text-anchor="middle" x="416" y="-96.5" font-family="Helvetica,sans-Serif" font-size="10.00">harpoon::memory::memory</text>
</a>
</g>
<!-- Node2&#45;&gt;Node8 -->
<g id="edge14" class="edge"><title>Node2&#45;&gt;Node8</title>
<path fill="none" stroke="midnightblue" d="M257.366,-184.103C278.838,-166.927 314.178,-140.433 348,-123 358.127,-117.78 369.646,-113.239 380.289,-109.553"/>
<polygon fill="midnightblue" stroke="midnightblue" points="255.151,-181.392 249.584,-190.407 259.557,-186.832 255.151,-181.392"/>
</g>
<!-- Node6 -->
<g id="node11" class="node"><title>Node6</title>
<a xlink:href="d7/dcf/classharpoon_1_1execution_1_1up__execution__unit.html" target="_top" xlink:title="harpoon::execution\l::up_execution_unit">
<polygon fill="white" stroke="black" points="537.5,-187 537.5,-221 638.5,-221 638.5,-187 537.5,-187"/>
<text text-anchor="start" x="545.5" y="-208" font-family="Helvetica,sans-Serif" font-size="10.00">harpoon::execution</text>
<text text-anchor="middle" x="588" y="-195" font-family="Helvetica,sans-Serif" font-size="10.00">::up_execution_unit</text>
</a>
</g>
<!-- Node5&#45;&gt;Node6 -->
<g id="edge10" class="edge"><title>Node5&#45;&gt;Node6</title>
<path fill="none" stroke="midnightblue" d="M476.021,-202.047C496.075,-202.397 518.21,-202.783 537.468,-203.119"/>
<polygon fill="midnightblue" stroke="midnightblue" points="475.809,-198.543 465.75,-201.868 475.687,-205.542 475.809,-198.543"/>
</g>
<!-- Node9 -->
<g id="node17" class="node"><title>Node9</title>
<a xlink:href="da/d84/classharpoon_1_1memory_1_1chunked__memory.html" target="_top" xlink:title="harpoon::memory::chunked\l_memory">
<polygon fill="white" stroke="black" points="520.5,-135 520.5,-169 655.5,-169 655.5,-135 520.5,-135"/>
<text text-anchor="start" x="528.5" y="-156" font-family="Helvetica,sans-Serif" font-size="10.00">harpoon::memory::chunked</text>
<text text-anchor="middle" x="588" y="-143" font-family="Helvetica,sans-Serif" font-size="10.00">_memory</text>
</a>
</g>
<!-- Node8&#45;&gt;Node9 -->
<g id="edge16" class="edge"><title>Node8&#45;&gt;Node9</title>
<path fill="none" stroke="midnightblue" d="M460.171,-112.611C482.262,-119.418 509.22,-127.725 532.676,-134.952"/>
<polygon fill="midnightblue" stroke="midnightblue" points="460.981,-109.198 450.393,-109.598 458.919,-115.888 460.981,-109.198"/>
</g>
<!-- Node14 -->
<g id="node27" class="node"><title>Node14</title>
<a xlink:href="da/df3/classharpoon_1_1memory_1_1linear__memory.html" target="_top" xlink:title="harpoon::memory::linear\l_memory">
<polygon fill="white" stroke="black" points="527,-80 527,-114 649,-114 649,-80 527,-80"/>
<text text-anchor="start" x="535" y="-101" font-family="Helvetica,sans-Serif" font-size="10.00">harpoon::memory::linear</text>
<text text-anchor="middle" x="588" y="-88" font-family="Helvetica,sans-Serif" font-size="10.00">_memory</text>
</a>
</g>
<!-- Node8&#45;&gt;Node14 -->
<g id="edge26" class="edge"><title>Node8&#45;&gt;Node14</title>
<path fill="none" stroke="midnightblue" d="M493.64,-98.0972C504.78,-97.9677 516.108,-97.836 526.867,-97.7108"/>
<polygon fill="midnightblue" stroke="midnightblue" points="493.444,-94.5992 483.485,-98.2153 493.525,-101.599 493.444,-94.5992"/>
</g>
<!-- Node19 -->
<g id="node37" class="node"><title>Node19</title>
<a xlink:href="d8/d1f/classharpoon_1_1memory_1_1main__memory.html" target="_top" xlink:title="harpoon::memory::main\l_memory">
<polygon fill="white" stroke="black" points="528.5,-28 528.5,-62 647.5,-62 647.5,-28 528.5,-28"/>
<text text-anchor="start" x="536.5" y="-49" font-family="Helvetica,sans-Serif" font-size="10.00">harpoon::memory::main</text>
<text text-anchor="middle" x="588" y="-36" font-family="Helvetica,sans-Serif" font-size="10.00">_memory</text>
</a>
</g>
<!-- Node8&#45;&gt;Node19 -->
<g id="edge36" class="edge"><title>Node8&#45;&gt;Node19</title>
<path fill="none" stroke="midnightblue" d="M459.201,-85.4369C481.736,-78.3618 509.534,-69.6347 533.53,-62.101"/>
<polygon fill="midnightblue" stroke="midnightblue" points="458.064,-82.1253 449.572,-88.4601 460.161,-88.8039 458.064,-82.1253"/>
</g>
<!-- Node10 -->
<g id="node19" class="node"><title>Node10</title>
<a xlink:href="dc/d01/classharpoon_1_1memory_1_1random__access__memory.html" target="_top" xlink:title="harpoon::memory::random\l_access_memory\&lt; chunked\l_memory \&gt;">
<polygon fill="white" stroke="black" points="692,-198.5 692,-245.5 832,-245.5 832,-198.5 692,-198.5"/>
<text text-anchor="start" x="700" y="-232.5" font-family="Helvetica,sans-Serif" font-size="10.00">harpoon::memory::random</text>
<text text-anchor="start" x="700" y="-219.5" font-family="Helvetica,sans-Serif" font-size="10.00">_access_memory&lt; chunked</text>
<text text-anchor="middle" x="762" y="-206.5" font-family="Helvetica,sans-Serif" font-size="10.00">_memory &gt;</text>
</a>
</g>
<!-- Node9&#45;&gt;Node10 -->
<g id="edge18" class="edge"><title>Node9&#45;&gt;Node10</title>
<path fill="none" stroke="midnightblue" d="M642.463,-172.668C647.048,-174.455 651.608,-176.249 656,-178 672.288,-184.493 689.903,-191.721 706.009,-198.412"/>
<polygon fill="midnightblue" stroke="midnightblue" points="643.649,-169.374 633.06,-169.024 641.12,-175.901 643.649,-169.374"/>
</g>
<!-- Node12 -->
<g id="node23" class="node"><title>Node12</title>
<a xlink:href="db/dd3/classharpoon_1_1memory_1_1read__only__memory.html" target="_top" xlink:title="harpoon::memory::read\l_only_memory\&lt; chunked\l_memory \&gt;">
<polygon fill="white" stroke="black" points="699,-132.5 699,-179.5 825,-179.5 825,-132.5 699,-132.5"/>
<text text-anchor="start" x="707" y="-166.5" font-family="Helvetica,sans-Serif" font-size="10.00">harpoon::memory::read</text>
<text text-anchor="start" x="707" y="-153.5" font-family="Helvetica,sans-Serif" font-size="10.00">_only_memory&lt; chunked</text>
<text text-anchor="middle" x="762" y="-140.5" font-family="Helvetica,sans-Serif" font-size="10.00">_memory &gt;</text>
</a>
</g>
<!-- Node9&#45;&gt;Node12 -->
<g id="edge22" class="edge"><title>Node9&#45;&gt;Node12</title>
<path fill="none" stroke="midnightblue" d="M665.866,-153.79C676.942,-154.045 688.218,-154.304 698.965,-154.551"/>
<polygon fill="midnightblue" stroke="midnightblue" points="665.849,-150.289 655.771,-153.558 665.688,-157.287 665.849,-150.289"/>
</g>
<!-- Node11 -->
<g id="node21" class="node"><title>Node11</title>
<a xlink:href="de/d86/classharpoon_1_1memory_1_1chunked__random__access__memory.html" target="_top" xlink:title="harpoon::memory::chunked\l_random_access_memory">
<polygon fill="white" stroke="black" points="868.5,-205 868.5,-239 1003.5,-239 1003.5,-205 868.5,-205"/>
<text text-anchor="start" x="876.5" y="-226" font-family="Helvetica,sans-Serif" font-size="10.00">harpoon::memory::chunked</text>
<text text-anchor="middle" x="936" y="-213" font-family="Helvetica,sans-Serif" font-size="10.00">_random_access_memory</text>
</a>
</g>
<!-- Node10&#45;&gt;Node11 -->
<g id="edge20" class="edge"><title>Node10&#45;&gt;Node11</title>
<path fill="none" stroke="midnightblue" d="M842.224,-222C850.971,-222 859.809,-222 868.383,-222"/>
<polygon fill="midnightblue" stroke="midnightblue" points="842.02,-218.5 832.02,-222 842.02,-225.5 842.02,-218.5"/>
</g>
<!-- Node13 -->
<g id="node25" class="node"><title>Node13</title>
<a xlink:href="d5/d6c/classharpoon_1_1memory_1_1chunked__read__only__memory.html" target="_top" xlink:title="harpoon::memory::chunked\l_read_only_memory">
<polygon fill="white" stroke="black" points="868.5,-139 868.5,-173 1003.5,-173 1003.5,-139 868.5,-139"/>
<text text-anchor="start" x="876.5" y="-160" font-family="Helvetica,sans-Serif" font-size="10.00">harpoon::memory::chunked</text>
<text text-anchor="middle" x="936" y="-147" font-family="Helvetica,sans-Serif" font-size="10.00">_read_only_memory</text>
</a>
</g>
<!-- Node12&#45;&gt;Node13 -->
<g id="edge24" class="edge"><title>Node12&#45;&gt;Node13</title>
<path fill="none" stroke="midnightblue" d="M835.61,-156C846.467,-156 857.609,-156 868.338,-156"/>
<polygon fill="midnightblue" stroke="midnightblue" points="835.31,-152.5 825.31,-156 835.31,-159.5 835.31,-152.5"/>
</g>
<!-- Node15 -->
<g id="node29" class="node"><title>Node15</title>
<a xlink:href="dc/d01/classharpoon_1_1memory_1_1random__access__memory.html" target="_top" xlink:title="harpoon::memory::random\l_access_memory\&lt; linear\l_memory \&gt;">
<polygon fill="white" stroke="black" points="696.5,-66.5 696.5,-113.5 827.5,-113.5 827.5,-66.5 696.5,-66.5"/>
<text text-anchor="start" x="704.5" y="-100.5" font-family="Helvetica,sans-Serif" font-size="10.00">harpoon::memory::random</text>
<text text-anchor="start" x="704.5" y="-87.5" font-family="Helvetica,sans-Serif" font-size="10.00">_access_memory&lt; linear</text>
<text text-anchor="middle" x="762" y="-74.5" font-family="Helvetica,sans-Serif" font-size="10.00">_memory &gt;</text>
</a>
</g>
<!-- Node14&#45;&gt;Node15 -->
<g id="edge28" class="edge"><title>Node14&#45;&gt;Node15</title>
<path fill="none" stroke="midnightblue" d="M659.506,-94.1233C671.747,-93.6309 684.411,-93.1214 696.485,-92.6356"/>
<polygon fill="midnightblue" stroke="midnightblue" points="659.197,-90.6328 649.346,-94.5321 659.479,-97.6272 659.197,-90.6328"/>
</g>
<!-- Node17 -->
<g id="node33" class="node"><title>Node17</title>
<a xlink:href="db/dd3/classharpoon_1_1memory_1_1read__only__memory.html" target="_top" xlink:title="harpoon::memory::read\l_only_memory\&lt; linear\l_memory \&gt;">
<polygon fill="white" stroke="black" points="703.5,-0.5 703.5,-47.5 820.5,-47.5 820.5,-0.5 703.5,-0.5"/>
<text text-anchor="start" x="711.5" y="-34.5" font-family="Helvetica,sans-Serif" font-size="10.00">harpoon::memory::read</text>
<text text-anchor="start" x="711.5" y="-21.5" font-family="Helvetica,sans-Serif" font-size="10.00">_only_memory&lt; linear</text>
<text text-anchor="middle" x="762" y="-8.5" font-family="Helvetica,sans-Serif" font-size="10.00">_memory &gt;</text>
</a>
</g>
<!-- Node14&#45;&gt;Node17 -->
<g id="edge32" class="edge"><title>Node14&#45;&gt;Node17</title>
<path fill="none" stroke="midnightblue" d="M643.082,-76.2197C647.464,-74.4813 651.812,-72.7277 656,-71 673.772,-63.6683 693.036,-55.266 710.205,-47.6122"/>
<polygon fill="midnightblue" stroke="midnightblue" points="641.517,-73.0741 633.486,-79.9851 644.074,-79.5904 641.517,-73.0741"/>
</g>
<!-- Node16 -->
<g id="node31" class="node"><title>Node16</title>
<a xlink:href="df/d20/classharpoon_1_1memory_1_1linear__random__access__memory.html" target="_top" xlink:title="harpoon::memory::linear\l_random_access_memory">
<polygon fill="white" stroke="black" points="870.5,-73 870.5,-107 1001.5,-107 1001.5,-73 870.5,-73"/>
<text text-anchor="start" x="878.5" y="-94" font-family="Helvetica,sans-Serif" font-size="10.00">harpoon::memory::linear</text>
<text text-anchor="middle" x="936" y="-81" font-family="Helvetica,sans-Serif" font-size="10.00">_random_access_memory</text>
</a>
</g>
<!-- Node15&#45;&gt;Node16 -->
<g id="edge30" class="edge"><title>Node15&#45;&gt;Node16</title>
<path fill="none" stroke="midnightblue" d="M838.035,-90C848.825,-90 859.844,-90 870.414,-90"/>
<polygon fill="midnightblue" stroke="midnightblue" points="837.782,-86.5001 827.782,-90 837.782,-93.5001 837.782,-86.5001"/>
</g>
<!-- Node18 -->
<g id="node35" class="node"><title>Node18</title>
<a xlink:href="de/dd2/classharpoon_1_1memory_1_1linear__read__only__memory.html" target="_top" xlink:title="harpoon::memory::linear\l_read_only_memory">
<polygon fill="white" stroke="black" points="875,-7 875,-41 997,-41 997,-7 875,-7"/>
<text text-anchor="start" x="883" y="-28" font-family="Helvetica,sans-Serif" font-size="10.00">harpoon::memory::linear</text>
<text text-anchor="middle" x="936" y="-15" font-family="Helvetica,sans-Serif" font-size="10.00">_read_only_memory</text>
</a>
</g>
<!-- Node17&#45;&gt;Node18 -->
<g id="edge34" class="edge"><title>Node17&#45;&gt;Node18</title>
<path fill="none" stroke="midnightblue" d="M831.243,-24C845.633,-24 860.699,-24 874.776,-24"/>
<polygon fill="midnightblue" stroke="midnightblue" points="830.908,-20.5001 820.908,-24 830.908,-27.5001 830.908,-20.5001"/>
</g>
</g>
</svg>
