<?xml version="1.0" encoding="UTF-8" standalone="no"?>
<!DOCTYPE svg PUBLIC "-//W3C//DTD SVG 1.1//EN"
 "http://www.w3.org/Graphics/SVG/1.1/DTD/svg11.dtd">
<!-- Generated by graphviz version 2.26.3 (20100126.1600)
 -->
<!-- Title: Graphical Class Hierarchy Pages: 1 -->
<svg width="378pt" height="94pt"
 viewBox="0.00 0.00 378.00 94.00" xmlns="http://www.w3.org/2000/svg" xmlns:xlink="http://www.w3.org/1999/xlink">
<g id="graph1" class="graph" transform="scale(1 1) rotate(0) translate(4 90)">
<title>Graphical Class Hierarchy</title>
<polygon fill="white" stroke="white" points="-4,5 -4,-90 375,-90 375,5 -4,5"/>
<!-- Node1 -->
<g id="node1" class="node"><title>Node1</title>
<polygon fill="white" stroke="#bfbfbf" points="0.5,-32.5 0.5,-53.5 119.5,-53.5 119.5,-32.5 0.5,-32.5"/>
<text text-anchor="middle" x="60" y="-40.5" font-family="Helvetica,sans-Serif" font-size="10.00">MemoryImplementation</text>
</g>
<!-- Node2 -->
<g id="node3" class="node"><title>Node2</title>
<a xlink:href="dc/d01/classharpoon_1_1memory_1_1random__access__memory.html" target="_top" xlink:title="harpoon::memory::random\l_access_memory\&lt; MemoryImplementation \&gt;">
<polygon fill="white" stroke="black" points="156,-52 156,-86 370,-86 370,-52 156,-52"/>
<text text-anchor="start" x="164" y="-73" font-family="Helvetica,sans-Serif" font-size="10.00">harpoon::memory::random</text>
<text text-anchor="middle" x="263" y="-60" font-family="Helvetica,sans-Serif" font-size="10.00">_access_memory&lt; MemoryImplementation &gt;</text>
</a>
</g>
<!-- Node1&#45;&gt;Node2 -->
<g id="edge2" class="edge"><title>Node1&#45;&gt;Node2</title>
<path fill="none" stroke="midnightblue" d="M129.677,-51.9241C138.139,-53.008 146.93,-54.1339 155.78,-55.2673"/>
<polygon fill="midnightblue" stroke="midnightblue" points="129.899,-48.424 119.535,-50.6252 129.009,-55.3673 129.899,-48.424"/>
</g>
<!-- Node3 -->
<g id="node5" class="node"><title>Node3</title>
<a xlink:href="db/dd3/classharpoon_1_1memory_1_1read__only__memory.html" target="_top" xlink:title="harpoon::memory::read\l_only_memory\&lt; MemoryImplementation \&gt;">
<polygon fill="white" stroke="black" points="163,-0 163,-34 363,-34 363,-0 163,-0"/>
<text text-anchor="start" x="171" y="-21" font-family="Helvetica,sans-Serif" font-size="10.00">harpoon::memory::read</text>
<text text-anchor="middle" x="263" y="-8" font-family="Helvetica,sans-Serif" font-size="10.00">_only_memory&lt; MemoryImplementation &gt;</text>
</a>
</g>
<!-- Node1&#45;&gt;Node3 -->
<g id="edge4" class="edge"><title>Node1&#45;&gt;Node3</title>
<path fill="none" stroke="midnightblue" d="M129.591,-34.0868C140.266,-32.7196 151.465,-31.2853 162.645,-29.8533"/>
<polygon fill="midnightblue" stroke="midnightblue" points="129.009,-30.6327 119.535,-35.3748 129.899,-37.576 129.009,-30.6327"/>
</g>
</g>
</svg>
