<?xml version="1.0" encoding="UTF-8" standalone="no"?>
<!DOCTYPE svg PUBLIC "-//W3C//DTD SVG 1.1//EN"
 "http://www.w3.org/Graphics/SVG/1.1/DTD/svg11.dtd">
<!-- Generated by graphviz version 2.26.3 (20100126.1600)
 -->
<!-- Title: harpoon/memory/linear_memory.hh Pages: 1 -->
<!--zoomable 406 -->
<svg id="main" version="1.1" xmlns="http://www.w3.org/2000/svg" xmlns:xlink="http://www.w3.org/1999/xlink" xml:space="preserve" onload="init(evt)">
<style type="text/css"><![CDATA[
.edge:hover path { stroke: red; }
.edge:hover polygon { stroke: red; fill: red; }
]]></style>
<script type="text/javascript"><![CDATA[
var edges = document.getElementsByTagName('g');
if (edges && edges.length) {
  for (var i=0;i<edges.length;i++) {
    if (edges[i].id.substr(0,4)=='edge') {
      edges[i].setAttribute('class','edge');
    }
  }
}
]]></script>
        <defs>
                <circle id="rim" cx="0" cy="0" r="7"/>
                <circle id="rim2" cx="0" cy="0" r="3.5"/>
                <g id="zoomPlus">
                        <use xlink:href="#rim" fill="#404040">
                                <set attributeName="fill" to="#808080" begin="zoomplus.mouseover" end="zoomplus.mouseout"/>
                        </use>
                        <path d="M-4,0h8M0,-4v8" fill="none" stroke="white" stroke-width="1.5" pointer-events="none"/>
                </g>
                <g id="zoomMin">
                        <use xlink:href="#rim" fill="#404040">
                                <set attributeName="fill" to="#808080" begin="zoomminus.mouseover" end="zoomminus.mouseout"/>
                        </use>
                        <path d="M-4,0h8" fill="none" stroke="white" stroke-width="1.5" pointer-events="none"/>
                </g>
                <g id="dirArrow">
                        <path fill="none" stroke="white" stroke-width="1.5" d="M0,-3.0v7 M-2.5,-0.5L0,-3.0L2.5,-0.5"/>
                </g>
               <g id="resetDef">
                       <use xlink:href="#rim2" fill="#404040">
                               <set attributeName="fill" to="#808080" begin="reset.mouseover" end="reset.mouseout"/>
                       </use>
               </g>
        </defs>

<script type="text/javascript">
var viewWidth = 523;
var viewHeight = 406;
var sectionId = 'dynsection-0';
</script>
<script xlink:href="../../svgpan.js"/>
<svg id="graph" class="graph">
<g id="viewport">
<title>harpoon/memory/linear_memory.hh</title>
<polygon fill="white" stroke="white" points="-4,5 -4,-402 520.201,-402 520.201,5 -4,5"/>
<!-- Node1 -->
<g id="node1" class="node"><title>Node1</title>
<polygon fill="#bfbfbf" stroke="black" points="324.763,-363 324.763,-397 440.763,-397 440.763,-363 324.763,-363"/>
<text text-anchor="start" x="332.763" y="-384" font-family="Helvetica,sans-Serif" font-size="10.00">harpoon/memory/linear</text>
<text text-anchor="middle" x="382.763" y="-371" font-family="Helvetica,sans-Serif" font-size="10.00">_memory.hh</text>
</g>
<!-- Node2 -->
<g id="node3" class="node"><title>Node2</title>
<a xlink:href="../../d5/d08/harpoon_8hh.html" target="_top" xlink:title="Harpoon library common header file. ">
<polygon fill="white" stroke="black" points="246.763,-58.5 246.763,-79.5 348.763,-79.5 348.763,-58.5 246.763,-58.5"/>
<text text-anchor="middle" x="297.763" y="-66.5" font-family="Helvetica,sans-Serif" font-size="10.00">harpoon/harpoon.hh</text>
</a>
</g>
<!-- Node1&#45;&gt;Node2 -->
<g id="edge2" class="edge"><title>Node1&#45;&gt;Node2</title>
<path fill="none" stroke="midnightblue" d="M422.779,-362.87C461.304,-343.37 513.763,-307.539 513.763,-257 513.763,-257 513.763,-257 513.763,-192 513.763,-157.183 519.515,-140.487 494.763,-116 475.704,-97.1453 409.448,-84.0761 358.987,-76.5901"/>
<polygon fill="midnightblue" stroke="midnightblue" points="359.201,-73.0847 348.804,-75.1223 358.202,-80.0131 359.201,-73.0847"/>
</g>
<!-- Node6 -->
<g id="node11" class="node"><title>Node6</title>
<a xlink:href="../../dc/d3f/memory_8hh.html" target="_top" xlink:title="harpoon/memory/memory.hh">
<polygon fill="white" stroke="black" points="181.263,-304.5 181.263,-325.5 322.263,-325.5 322.263,-304.5 181.263,-304.5"/>
<text text-anchor="middle" x="251.763" y="-312.5" font-family="Helvetica,sans-Serif" font-size="10.00">harpoon/memory/memory.hh</text>
</a>
</g>
<!-- Node1&#45;&gt;Node6 -->
<g id="edge10" class="edge"><title>Node1&#45;&gt;Node6</title>
<path fill="none" stroke="midnightblue" d="M348.344,-362.922C327.888,-352.772 302.167,-340.01 282.413,-330.208"/>
<polygon fill="midnightblue" stroke="midnightblue" points="283.757,-326.968 273.244,-325.658 280.646,-333.238 283.757,-326.968"/>
</g>
<!-- Node3 -->
<g id="node5" class="node"><title>Node3</title>
<polygon fill="white" stroke="#bfbfbf" points="213.263,-0.5 213.263,-21.5 254.263,-21.5 254.263,-0.5 213.263,-0.5"/>
<text text-anchor="middle" x="233.763" y="-8.5" font-family="Helvetica,sans-Serif" font-size="10.00">string</text>
</g>
<!-- Node2&#45;&gt;Node3 -->
<g id="edge4" class="edge"><title>Node2&#45;&gt;Node3</title>
<path fill="none" stroke="midnightblue" d="M286.024,-58.3619C276.822,-50.0226 263.823,-38.2418 253.091,-28.5162"/>
<polygon fill="midnightblue" stroke="midnightblue" points="255.187,-25.6924 245.427,-21.5707 250.487,-30.8793 255.187,-25.6924"/>
</g>
<!-- Node4 -->
<g id="node7" class="node"><title>Node4</title>
<polygon fill="white" stroke="#bfbfbf" points="271.763,-0.5 271.763,-21.5 323.763,-21.5 323.763,-0.5 271.763,-0.5"/>
<text text-anchor="middle" x="297.763" y="-8.5" font-family="Helvetica,sans-Serif" font-size="10.00">memory</text>
</g>
<!-- Node2&#45;&gt;Node4 -->
<g id="edge6" class="edge"><title>Node2&#45;&gt;Node4</title>
<path fill="none" stroke="midnightblue" d="M297.763,-58.3619C297.763,-50.9219 297.763,-40.7427 297.763,-31.7276"/>
<polygon fill="midnightblue" stroke="midnightblue" points="301.263,-31.5706 297.763,-21.5707 294.263,-31.5707 301.263,-31.5706"/>
</g>
<!-- Node5 -->
<g id="node9" class="node"><title>Node5</title>
<polygon fill="white" stroke="#bfbfbf" points="341.763,-0.5 341.763,-21.5 381.763,-21.5 381.763,-0.5 341.763,-0.5"/>
<text text-anchor="middle" x="361.763" y="-8.5" font-family="Helvetica,sans-Serif" font-size="10.00">utility</text>
</g>
<!-- Node2&#45;&gt;Node5 -->
<g id="edge8" class="edge"><title>Node2&#45;&gt;Node5</title>
<path fill="none" stroke="midnightblue" d="M309.501,-58.3619C318.703,-50.0226 331.703,-38.2418 342.435,-28.5162"/>
<polygon fill="midnightblue" stroke="midnightblue" points="345.039,-30.8793 350.099,-21.5707 340.338,-25.6924 345.039,-30.8793"/>
</g>
<!-- Node6&#45;&gt;Node2 -->
<g id="edge12" class="edge"><title>Node6&#45;&gt;Node2</title>
<path fill="none" stroke="midnightblue" d="M247.356,-304.174C238.255,-280.255 219.313,-221.278 232.763,-174 242.268,-140.589 265.778,-107.41 281.758,-87.5532"/>
<polygon fill="midnightblue" stroke="midnightblue" points="284.614,-89.5925 288.288,-79.6553 279.219,-85.132 284.614,-89.5925"/>
</g>
<!-- Node7 -->
<g id="node14" class="node"><title>Node7</title>
<a xlink:href="../../d5/d09/hardware__component_8hh.html" target="_top" xlink:title="Hardware component. ">
<polygon fill="white" stroke="black" points="279.263,-246.5 279.263,-267.5 440.263,-267.5 440.263,-246.5 279.263,-246.5"/>
<text text-anchor="middle" x="359.763" y="-254.5" font-family="Helvetica,sans-Serif" font-size="10.00">harpoon/hardware_component.hh</text>
</a>
</g>
<!-- Node6&#45;&gt;Node7 -->
<g id="edge14" class="edge"><title>Node6&#45;&gt;Node7</title>
<path fill="none" stroke="midnightblue" d="M271.321,-304.497C287.961,-295.56 312.09,-282.602 330.943,-272.477"/>
<polygon fill="midnightblue" stroke="midnightblue" points="332.831,-275.436 339.985,-267.621 329.52,-269.269 332.831,-275.436"/>
</g>
<!-- Node11 -->
<g id="node25" class="node"><title>Node11</title>
<polygon fill="white" stroke="#bfbfbf" points="241.263,-181.5 241.263,-202.5 270.263,-202.5 270.263,-181.5 241.263,-181.5"/>
<text text-anchor="middle" x="255.763" y="-189.5" font-family="Helvetica,sans-Serif" font-size="10.00">list</text>
</g>
<!-- Node6&#45;&gt;Node11 -->
<g id="edge42" class="edge"><title>Node6&#45;&gt;Node11</title>
<path fill="none" stroke="midnightblue" d="M252.118,-304.085C252.784,-283.609 254.23,-239.133 255.087,-212.778"/>
<polygon fill="midnightblue" stroke="midnightblue" points="258.587,-212.824 255.414,-202.715 251.591,-212.596 258.587,-212.824"/>
</g>
<!-- Node13 -->
<g id="node29" class="node"><title>Node13</title>
<a xlink:href="../../d3/d22/address__range_8hh.html" target="_top" xlink:title="harpoon/memory/address\l_range.hh">
<polygon fill="white" stroke="black" points="15.2629,-175 15.2629,-209 142.263,-209 142.263,-175 15.2629,-175"/>
<text text-anchor="start" x="23.2629" y="-196" font-family="Helvetica,sans-Serif" font-size="10.00">harpoon/memory/address</text>
<text text-anchor="middle" x="78.7629" y="-183" font-family="Helvetica,sans-Serif" font-size="10.00">_range.hh</text>
</a>
</g>
<!-- Node6&#45;&gt;Node13 -->
<g id="edge32" class="edge"><title>Node6&#45;&gt;Node13</title>
<path fill="none" stroke="midnightblue" d="M236.713,-304.3C208.934,-284.55 149.023,-241.954 111.493,-215.271"/>
<polygon fill="midnightblue" stroke="midnightblue" points="113.105,-212.122 102.927,-209.18 109.049,-217.827 113.105,-212.122"/>
</g>
<!-- Node7&#45;&gt;Node2 -->
<g id="edge16" class="edge"><title>Node7&#45;&gt;Node2</title>
<path fill="none" stroke="midnightblue" d="M346.147,-246.167C336.272,-237.494 323.51,-224.426 316.763,-210 298.277,-170.473 296.256,-118.354 296.78,-89.8453"/>
<polygon fill="midnightblue" stroke="midnightblue" points="300.289,-89.6057 297.105,-79.5008 293.292,-89.386 300.289,-89.6057"/>
</g>
<!-- Node8 -->
<g id="node17" class="node"><title>Node8</title>
<a xlink:href="../../d3/de3/log_8hh.html" target="_top" xlink:title="harpoon/log/log.hh">
<polygon fill="white" stroke="black" points="389.763,-181.5 389.763,-202.5 485.763,-202.5 485.763,-181.5 389.763,-181.5"/>
<text text-anchor="middle" x="437.763" y="-189.5" font-family="Helvetica,sans-Serif" font-size="10.00">harpoon/log/log.hh</text>
</a>
</g>
<!-- Node7&#45;&gt;Node8 -->
<g id="edge18" class="edge"><title>Node7&#45;&gt;Node8</title>
<path fill="none" stroke="midnightblue" d="M372.643,-246.267C384.796,-236.139 403.213,-220.792 417.363,-209"/>
<polygon fill="midnightblue" stroke="midnightblue" points="419.681,-211.624 425.122,-202.534 415.2,-206.247 419.681,-211.624"/>
</g>
<!-- Node7&#45;&gt;Node11 -->
<g id="edge28" class="edge"><title>Node7&#45;&gt;Node11</title>
<path fill="none" stroke="midnightblue" d="M342.505,-246.446C327.066,-236.976 303.84,-222.66 283.763,-210 282.113,-208.96 280.412,-207.881 278.701,-206.792"/>
<polygon fill="midnightblue" stroke="midnightblue" points="280.574,-203.835 270.265,-201.391 276.799,-209.73 280.574,-203.835"/>
</g>
<!-- Node12 -->
<g id="node27" class="node"><title>Node12</title>
<polygon fill="white" stroke="#bfbfbf" points="325.763,-181.5 325.763,-202.5 371.763,-202.5 371.763,-181.5 325.763,-181.5"/>
<text text-anchor="middle" x="348.763" y="-189.5" font-family="Helvetica,sans-Serif" font-size="10.00">atomic</text>
</g>
<!-- Node7&#45;&gt;Node12 -->
<g id="edge30" class="edge"><title>Node7&#45;&gt;Node12</title>
<path fill="none" stroke="midnightblue" d="M357.946,-246.267C356.409,-237.18 354.16,-223.892 352.273,-212.74"/>
<polygon fill="midnightblue" stroke="midnightblue" points="355.665,-211.809 350.545,-202.534 348.763,-212.978 355.665,-211.809"/>
</g>
<!-- Node8&#45;&gt;Node2 -->
<g id="edge20" class="edge"><title>Node8&#45;&gt;Node2</title>
<path fill="none" stroke="midnightblue" d="M417.797,-181.314C400.202,-171.38 374.388,-155.512 354.763,-138 337.866,-122.922 321.733,-102.647 310.971,-87.98"/>
<polygon fill="midnightblue" stroke="midnightblue" points="313.68,-85.752 305.005,-79.6691 307.993,-89.8339 313.68,-85.752"/>
</g>
<!-- Node9 -->
<g id="node20" class="node"><title>Node9</title>
<a xlink:href="../../d9/d74/message_8hh.html" target="_top" xlink:title="harpoon/log/message.hh">
<polygon fill="white" stroke="black" points="363.263,-116.5 363.263,-137.5 486.263,-137.5 486.263,-116.5 363.263,-116.5"/>
<text text-anchor="middle" x="424.763" y="-124.5" font-family="Helvetica,sans-Serif" font-size="10.00">harpoon/log/message.hh</text>
</a>
</g>
<!-- Node8&#45;&gt;Node9 -->
<g id="edge22" class="edge"><title>Node8&#45;&gt;Node9</title>
<path fill="none" stroke="midnightblue" d="M435.616,-181.267C433.78,-172.085 431.086,-158.615 428.841,-147.392"/>
<polygon fill="midnightblue" stroke="midnightblue" points="432.263,-146.653 426.87,-137.534 425.399,-148.026 432.263,-146.653"/>
</g>
<!-- Node9&#45;&gt;Node2 -->
<g id="edge24" class="edge"><title>Node9&#45;&gt;Node2</title>
<path fill="none" stroke="midnightblue" d="M401.764,-116.497C381.75,-107.356 352.522,-94.0082 330.144,-83.7883"/>
<polygon fill="midnightblue" stroke="midnightblue" points="331.57,-80.5918 321.02,-79.6212 328.662,-86.9592 331.57,-80.5918"/>
</g>
<!-- Node10 -->
<g id="node23" class="node"><title>Node10</title>
<polygon fill="white" stroke="#bfbfbf" points="398.763,-58.5 398.763,-79.5 450.763,-79.5 450.763,-58.5 398.763,-58.5"/>
<text text-anchor="middle" x="424.763" y="-66.5" font-family="Helvetica,sans-Serif" font-size="10.00">sstream</text>
</g>
<!-- Node9&#45;&gt;Node10 -->
<g id="edge26" class="edge"><title>Node9&#45;&gt;Node10</title>
<path fill="none" stroke="midnightblue" d="M424.763,-116.362C424.763,-108.922 424.763,-98.7427 424.763,-89.7276"/>
<polygon fill="midnightblue" stroke="midnightblue" points="428.263,-89.5706 424.763,-79.5707 421.263,-89.5707 428.263,-89.5706"/>
</g>
<!-- Node13&#45;&gt;Node2 -->
<g id="edge34" class="edge"><title>Node13&#45;&gt;Node2</title>
<path fill="none" stroke="midnightblue" d="M43.2165,-174.894C16.6548,-159.842 -12.2115,-137.099 5.76287,-116 20.5516,-98.6406 155.433,-82.7406 236.609,-74.6343"/>
<polygon fill="midnightblue" stroke="midnightblue" points="237.108,-78.1021 246.716,-73.6374 236.421,-71.1359 237.108,-78.1021"/>
</g>
<!-- Node14 -->
<g id="node32" class="node"><title>Node14</title>
<a xlink:href="../../db/db3/address_8hh.html" target="_top" xlink:title="harpoon/memory/address.hh">
<polygon fill="white" stroke="black" points="72.7629,-116.5 72.7629,-137.5 212.763,-137.5 212.763,-116.5 72.7629,-116.5"/>
<text text-anchor="middle" x="142.763" y="-124.5" font-family="Helvetica,sans-Serif" font-size="10.00">harpoon/memory/address.hh</text>
</a>
</g>
<!-- Node13&#45;&gt;Node14 -->
<g id="edge36" class="edge"><title>Node13&#45;&gt;Node14</title>
<path fill="none" stroke="midnightblue" d="M95.5781,-174.922C104.605,-165.754 115.732,-154.454 124.912,-145.129"/>
<polygon fill="midnightblue" stroke="midnightblue" points="127.556,-147.433 132.078,-137.852 122.568,-142.522 127.556,-147.433"/>
</g>
<!-- Node15 -->
<g id="node35" class="node"><title>Node15</title>
<polygon fill="white" stroke="#bfbfbf" points="14.7629,-116.5 14.7629,-137.5 54.7629,-137.5 54.7629,-116.5 14.7629,-116.5"/>
<text text-anchor="middle" x="34.7629" y="-124.5" font-family="Helvetica,sans-Serif" font-size="10.00">limits</text>
</g>
<!-- Node13&#45;&gt;Node15 -->
<g id="edge40" class="edge"><title>Node13&#45;&gt;Node15</title>
<path fill="none" stroke="midnightblue" d="M67.2024,-174.922C61.2443,-166.12 53.9564,-155.354 47.7987,-146.258"/>
<polygon fill="midnightblue" stroke="midnightblue" points="50.613,-144.171 42.1089,-137.852 44.8162,-148.095 50.613,-144.171"/>
</g>
<!-- Node14&#45;&gt;Node2 -->
<g id="edge38" class="edge"><title>Node14&#45;&gt;Node2</title>
<path fill="none" stroke="midnightblue" d="M170.832,-116.497C195.773,-107.164 232.437,-93.4447 259.955,-83.1475"/>
<polygon fill="midnightblue" stroke="midnightblue" points="261.502,-86.3058 269.641,-79.5231 259.048,-79.7497 261.502,-86.3058"/>
</g>
</g>
</svg>
        <g id="navigator" transform="translate(0 0)" fill="#404254">
                <rect fill="#f2f5e9" fill-opacity="0.5" stroke="#606060" stroke-width=".5" x="0" y="0" width="60" height="60"/>
                <use id="zoomplus" xlink:href="#zoomPlus" x="17" y="9" onmousedown="handleZoom(evt,'in')"/>
                <use id="zoomminus" xlink:href="#zoomMin" x="42" y="9" onmousedown="handleZoom(evt,'out')"/>
                <use id="reset" xlink:href="#resetDef" x="30" y="36" onmousedown="handleReset()"/>
                <g id="arrowUp" xlink:href="#dirArrow" transform="translate(30 24)" onmousedown="handlePan(0,-1)">
                  <use xlink:href="#rim" fill="#404040">
                        <set attributeName="fill" to="#808080" begin="arrowUp.mouseover" end="arrowUp.mouseout"/>
                  </use>
                  <path fill="none" stroke="white" stroke-width="1.5" d="M0,-3.0v7 M-2.5,-0.5L0,-3.0L2.5,-0.5"/>
                </g>
                <g id="arrowRight" xlink:href="#dirArrow" transform="rotate(90) translate(36 -43)" onmousedown="handlePan(1,0)">
                  <use xlink:href="#rim" fill="#404040">
                        <set attributeName="fill" to="#808080" begin="arrowRight.mouseover" end="arrowRight.mouseout"/>
                  </use>
                  <path fill="none" stroke="white" stroke-width="1.5" d="M0,-3.0v7 M-2.5,-0.5L0,-3.0L2.5,-0.5"/>
                </g>
                <g id="arrowDown" xlink:href="#dirArrow" transform="rotate(180) translate(-30 -48)" onmousedown="handlePan(0,1)">
                  <use xlink:href="#rim" fill="#404040">
                        <set attributeName="fill" to="#808080" begin="arrowDown.mouseover" end="arrowDown.mouseout"/>
                  </use>
                  <path fill="none" stroke="white" stroke-width="1.5" d="M0,-3.0v7 M-2.5,-0.5L0,-3.0L2.5,-0.5"/>
                </g>
                <g id="arrowLeft" xlink:href="#dirArrow" transform="rotate(270) translate(-36 17)" onmousedown="handlePan(-1,0)">
                  <use xlink:href="#rim" fill="#404040">
                        <set attributeName="fill" to="#808080" begin="arrowLeft.mouseover" end="arrowLeft.mouseout"/>
                  </use>
                  <path fill="none" stroke="white" stroke-width="1.5" d="M0,-3.0v7 M-2.5,-0.5L0,-3.0L2.5,-0.5"/>
                </g>
        </g>
        <svg viewBox="0 0 15 15" width="100%" height="30px" preserveAspectRatio="xMaxYMin meet">
         <g id="arrow_out" transform="scale(0.3 0.3)">
          <a xlink:href="linear__memory_8hh__incl_org.svg" target="_base">
           <rect id="button" ry="5" rx="5" y="6" x="6" height="38" width="38"
                fill="#f2f5e9" fill-opacity="0.5" stroke="#606060" stroke-width="1.0"/>
           <path id="arrow"
             d="M 11.500037,31.436501 C 11.940474,20.09759 22.043105,11.32322 32.158766,21.979434 L 37.068811,17.246167 C 37.068811,17.246167 37.088388,32 37.088388,32 L 22.160133,31.978069 C 22.160133,31.978069 26.997745,27.140456 26.997745,27.140456 C 18.528582,18.264221 13.291696,25.230495 11.500037,31.436501 z"
             style="fill:#404040;"/>
          </a>
         </g>
        </svg>
</svg>
